<?xml version="1.0" encoding="UTF-8" standalone="no"?>
<!-- Created with Inkscape (http://www.inkscape.org/) -->

<svg
   width="143.16362mm"
   height="81.783592mm"
   viewBox="0 0 143.16362 81.783592"
   version="1.1"
   id="svg1"
   xml:space="preserve"
   xmlns:inkscape="http://www.inkscape.org/namespaces/inkscape"
   xmlns:sodipodi="http://sodipodi.sourceforge.net/DTD/sodipodi-0.dtd"
   xmlns="http://www.w3.org/2000/svg"
   xmlns:svg="http://www.w3.org/2000/svg"><sodipodi:namedview
     id="namedview1"
     pagecolor="#ffffff"
     bordercolor="#000000"
     borderopacity="0.25"
     inkscape:showpageshadow="2"
     inkscape:pageopacity="0.0"
     inkscape:pagecheckerboard="0"
     inkscape:deskcolor="#d1d1d1"
     inkscape:document-units="mm" /><defs
     id="defs1" /><g
     inkscape:label="Calque 1"
     inkscape:groupmode="layer"
     id="layer1"
     transform="translate(-36.869023,-131.86883)"><path
       style="fill:#000000"
       d="m 48.350411,213.58092 c -0.54628,-0.16678 -1.0402,-0.517 -1.94109,-1.37637 -0.53355,-0.50896 -1.13368,-0.99966 -1.33361,-1.09044 -0.70985,-0.32233 -1.60097,-0.13421 -2.23412,0.47163 l -0.29259,0.27997 -0.30031,-0.34469 -0.30032,-0.34468 0.23513,-0.24542 c 0.33073,-0.34521 0.83978,-0.68447 1.23103,-0.82041 0.36987,-0.12852 0.34348,-0.14442 -0.49953,-0.30093 -1.17203,-0.21759 -2.505,-0.90278 -3.46753,-1.78242 -2.36465,-2.16102 -3.20074,-5.63499 -2.09845,-8.71908 0.69601,-1.94733 2.16334,-3.57972 3.99574,-4.44521 1.09778,-0.51851 1.61454,-0.61912 3.14826,-0.61294 1.23444,0.005 1.42307,0.0271 2.0602,0.24127 2.49928,0.84028 4.31072,2.7171 5.09673,5.28066 0.22079,0.72011 0.24102,0.90734 0.2458,2.27504 0.005,1.30364 -0.0201,1.57822 -0.19656,2.1917 -0.82013,2.85081 -3.07188,5.02617 -5.75965,5.56426 -0.2893,0.0579 -0.61892,0.12345 -0.73248,0.14563 -0.17953,0.0351 -0.14655,0.0702 0.25274,0.26915 0.26303,0.13108 0.86497,0.61231 1.40907,1.12651 1.11016,1.04917 1.4956,1.26753 2.23248,1.26481 0.59524,-0.002 1.07876,-0.19021 1.54741,-0.60169 l 0.31435,-0.27601 0.27167,0.36941 c 0.14942,0.20318 0.27167,0.40118 0.27167,0.44 0,0.15073 -1.09189,0.86427 -1.5147,0.98983 -0.46835,0.13909 -1.27021,0.16372 -1.64134,0.0504 z m -1.90579,-4.97721 c 0.97532,-0.34075 1.59282,-0.71259 2.36436,-1.42374 1.57685,-1.45345 2.34705,-3.32957 2.23158,-5.43589 -0.0626,-1.14237 -0.22165,-1.75174 -0.72171,-2.76556 -1.13066,-2.29226 -3.40602,-3.72588 -5.9135,-3.72588 -2.91163,0 -5.39398,1.92652 -6.32585,4.9094 -0.1747,0.55924 -0.20523,0.84095 -0.20421,1.88486 0.001,1.44925 0.12065,1.99109 0.69448,3.15605 0.70016,1.42141 1.72022,2.4293 3.16397,3.12623 0.9845,0.47523 1.62388,0.60115 2.89078,0.56931 0.90636,-0.0228 1.15836,-0.0636 1.8201,-0.29478 z M 147.7658,202.61674 v -7.53944 h -2.93688 -2.93687 v -0.48217 -0.48217 h 6.31209 6.31209 v 0.48217 0.48217 h -2.93688 -2.93687 v 7.53944 7.53944 h -0.43834 -0.43834 z m -73.115023,7.39173 c 0,-0.0861 6.588978,-15.75059 6.658808,-15.83054 0.04865,-0.0557 6.608438,15.27592 6.733298,15.73716 0.03645,0.13466 -0.02828,0.15342 -0.529342,0.15342 h -0.570874 l -0.790068,-1.86294 -0.790068,-1.86294 -4.013214,-0.0228 c -3.152526,-0.0179 -4.028175,8.8e-4 -4.082973,0.0877 -0.03837,0.0608 -0.390303,0.90936 -0.782079,1.88576 l -0.712319,1.77527 h -0.560584 c -0.308322,0 -0.560585,-0.027 -0.560585,-0.06 z m 9.54196,-6.53697 c -0.432197,-1.02461 -1.24543,-2.95725 -1.807185,-4.29474 -0.561754,-1.3375 -1.045819,-2.40266 -1.0757,-2.36704 -0.04523,0.0539 -3.371611,7.89447 -3.55156,8.37131 -0.05456,0.14458 0.151781,0.15342 3.58118,0.15342 h 3.639078 z m 27.629223,-1.38076 v -7.97778 h 2.39245 c 1.85436,0 2.50997,0.03 2.91496,0.13339 1.69354,0.43237 3.10778,1.77489 3.64588,3.46099 0.23657,0.74126 0.25421,2.0157 0.0382,2.75696 -0.34053,1.16837 -1.18378,2.31928 -2.15677,2.94365 -0.23884,0.15326 -0.41878,0.30422 -0.39987,0.33548 0.0315,0.0521 2.1708,4.79689 2.64428,5.86483 l 0.20406,0.46025 -0.49927,-0.003 -0.49926,-0.003 -1.35801,-3.02654 c -1.2328,-2.74749 -1.37426,-3.02079 -1.53419,-2.96422 -0.0969,0.0343 -1.13286,0.0789 -2.30213,0.0992 l -2.12594,0.0369 v 2.93003 2.93002 h -0.48218 -0.48217 z m 5.12493,1.09311 c 2.07499,-0.54047 3.43154,-2.55765 3.11894,-4.63785 -0.24675,-1.64194 -1.57768,-3.09655 -3.16893,-3.46339 -0.21159,-0.0488 -1.22303,-0.0897 -2.24765,-0.0908 l -1.86294,-0.002 v 4.16422 4.16423 h 1.82261 c 1.35376,0 1.95518,-0.0345 2.33797,-0.13424 z m 10.19113,6.8229 c -0.0226,-0.0384 1.25472,-3.14688 2.8385,-6.90783 1.58377,-3.76096 3.08432,-7.32647 3.33453,-7.92336 0.42629,-1.01691 0.46176,-1.07213 0.56316,-0.87668 0.21268,0.40996 6.61515,15.5798 6.61515,15.67376 0,0.0587 -0.20355,0.0959 -0.52526,0.0959 -0.40593,0 -0.54666,-0.0349 -0.61943,-0.15342 -0.0518,-0.0844 -0.41893,-0.9227 -0.81584,-1.86294 l -0.72167,-1.70952 -4.03775,-0.0228 -4.03775,-0.0228 -0.75004,1.86381 -0.75003,1.86381 -0.52624,0.0259 c -0.28943,0.0143 -0.54473,-0.005 -0.56733,-0.0438 z m 9.80871,-5.79007 c -1.48354,-3.56519 -3.14934,-7.4737 -3.17453,-7.44851 -0.021,0.021 -3.14787,7.36436 -3.60095,8.45669 -0.0359,0.0866 0.71735,0.10959 3.59758,0.10959 h 3.64303 z m 32.88609,5.79733 c -0.0343,-0.0343 -0.0624,-3.62609 -0.0624,-7.98172 v -7.91933 h 0.52521 0.52521 l 0.0227,4.48811 0.0227,4.48812 3.93868,-4.48812 3.93869,-4.48811 h 0.64451 0.64452 l -3.25468,3.70397 c -1.79008,2.03718 -3.27425,3.75171 -3.29815,3.81008 -0.036,0.0878 2.00488,2.7309 5.82419,7.54291 l 0.64364,0.81093 h -0.60845 -0.60845 l -3.00085,-3.68569 c -1.65047,-2.02712 -3.02678,-3.67418 -3.05846,-3.66013 -0.0317,0.014 -0.46011,0.46564 -0.95204,1.00353 l -0.89443,0.97799 -0.0232,2.70406 -0.0232,2.70407 -0.44171,0.0258 c -0.24294,0.0142 -0.46978,-0.002 -0.50409,-0.0365 z M 63.271631,209.80358 c -1.72799,-0.45271 -3.26127,-1.84103 -3.88447,-3.51722 l -0.20724,-0.5574 -0.0262,-5.808 -0.0262,-5.80799 h 0.48094 0.48093 l 0.0261,5.58882 0.0261,5.58883 0.20444,0.5665 c 0.28673,0.79452 0.59217,1.2823 1.15376,1.84258 1.09706,1.09449 2.78112,1.56488 4.24106,1.18462 1.644543,-0.42835 3.016076,-1.79876 3.379738,-3.37696 0.05676,-0.24631 0.09114,-2.43722 0.09249,-5.89323 l 0.0021,-5.50116 h 0.482173 0.482174 v 5.54675 c 0,5.30639 -0.0077,5.57462 -0.178128,6.18955 -0.554325,2.00035 -2.118044,3.54385 -4.052316,3.99991 -0.75455,0.17791 -1.89887,0.15842 -2.67764,-0.0456 z m 30.841418,-7.76466 v -7.94193 l 2.520452,0.0373 c 2.245377,0.0333 2.596995,0.0582 3.221795,0.22855 2.318704,0.63217 4.192964,2.18379 5.211574,4.31445 0.56944,1.19111 0.73058,1.93432 0.73058,3.36958 0,1.43073 -0.16127,2.1787 -0.72316,3.35412 -0.44611,0.93322 -0.77861,1.41525 -1.48773,2.15682 -1.18899,1.24338 -2.65969,2.0334 -4.339123,2.33087 -0.286105,0.0507 -1.558386,0.0921 -2.82729,0.0921 h -2.307098 z m 4.761107,6.96761 c 2.215754,-0.34318 4.166354,-1.80273 5.220474,-3.90627 0.84668,-1.68955 0.92839,-3.83127 0.21424,-5.61519 -0.71233,-1.77937 -2.4325,-3.405 -4.2344,-4.00168 -0.920646,-0.30486 -1.796283,-0.40608 -3.513063,-0.40608 h -1.484011 v 7.01344 7.01343 h 1.583146 c 0.87073,0 1.866857,-0.044 2.213614,-0.0977 z m 61.778824,-7.00345 v -7.97778 h 0.43834 0.43834 v 7.97778 7.97778 h -0.43834 -0.43834 z m -56.06289,-26.38731 -3.41748,-3.41832 -4.866716,-0.0226 -4.866715,-0.0226 -0.02264,-4.86671 -0.02264,-4.86671 -3.462156,-3.46133 c -1.904185,-1.90372 -3.462155,-3.50114 -3.462155,-3.54982 0,-0.0487 1.558297,-1.64642 3.462882,-3.55055 l 3.462882,-3.46205 v -4.84407 -4.84406 h 4.887906 4.887902 l 3.41822,-3.41906 3.41821,-3.41905 3.41987,3.41905 3.41988,3.41906 h 4.97474 4.97474 v 4.97473 4.97474 l 3.39671,3.39755 3.39671,3.39755 -3.39608,3.39713 -3.39608,3.39713 -0.0225,4.95323 -0.0226,4.95324 -4.91054,0.0226 -4.91054,0.0226 -3.41749,3.41833 c -1.87962,1.88008 -3.43759,3.41833 -3.46216,3.41833 -0.0246,0 -1.58254,-1.53825 -3.46216,-3.41832 z m 6.22157,-0.63632 2.68706,-2.73962 -1.27672,-0.0243 -1.27672,-0.0243 v -4.27247 -4.27246 l -1.4465,-1.44451 -1.4465,-1.44451 -1.40271,1.40064 -1.4027,1.40065 v 4.31867 4.31867 h -1.38025 -1.38024 l 2.76049,2.76154 c 1.51827,1.51885 2.78687,2.76154 2.81911,2.76154 0.0322,0 1.2678,-1.23283 2.74568,-2.73962 z m -11.592936,-4.73499 -0.984383,-0.98718 3.067929,-3.06699 3.06792,-3.06698 v -1.95108 -1.95109 h -2.08164 -2.08164 l -3.002552,3.00161 -3.002549,3.0016 -0.921059,-0.91792 -0.921059,-0.91793 v 3.92157 3.92158 h 3.921708 3.921711 z m 5.130466,-2.43186 0.0228,-3.37522 -2.36795,2.36643 c -1.30237,1.30153 -2.367942,2.4055 -2.367942,2.45327 0,0.0478 0.424092,0.51243 0.942432,1.03258 l 0.94243,0.94574 1.40268,-0.0238 1.40269,-0.0238 z m 11.15544,2.41025 1.00593,-1.00879 -2.3443,-2.3443 -2.3443,-2.3443 v 3.29465 c 0,1.81205 0.0263,3.32095 0.0584,3.35309 0.0321,0.0322 0.63441,0.0585 1.33837,0.0585 h 1.27992 z m 8.32783,-3.00064 v -4.00944 l -1.03099,1.02831 -1.03099,1.02831 -3.02317,-3.02412 -3.02317,-3.02413 h -1.95109 -1.95109 v 1.99493 1.99492 l 3.0241,3.02314 3.02409,3.02314 -0.98438,0.98719 -0.98439,0.98719 h 3.96554 3.96554 z m 0,-6.66276 v -1.33831 h -3.39652 -3.39652 l 2.36546,2.36668 2.36547,2.36668 1.03105,-1.02837 1.03106,-1.02837 z m -27.26471,0.98489 2.321959,-2.3232 H 95.6247 92.359691 v 1.42311 1.42311 l 0.89703,0.90009 c 0.493366,0.49505 0.917739,0.90009 0.94305,0.90009 0.02531,0 1.090902,-1.04544 2.367979,-2.3232 z m 14.37753,-1.31501 v -1.97253 h 1.90575 1.90575 l -1.40064,-1.4027 -1.40065,-1.40271 1.44451,-1.4465 1.44451,-1.44651 h -1.94961 -1.94962 v -1.99347 -1.99348 l -1.46908,1.46717 -1.46908,1.46718 -1.38012,-1.38013 -1.38013,-1.38012 v 1.90643 1.90642 h -1.97253 c -1.08489,0 -1.97252,0.0301 -1.97252,0.0668 0,0.0367 0.6115,0.67736 1.3589,1.42359 l 1.35889,1.35677 -1.42365,1.42562 -1.42365,1.42562 h 2.03728 2.03728 v 1.92869 c 0,1.06078 0.0291,1.9287 0.0647,1.9287 0.0356,0 0.66697,-0.60131 1.40304,-1.33624 l 1.33832,-1.33623 1.38007,1.38007 c 0.75904,0.75903 1.40981,1.38006 1.44616,1.38006 0.0363,0 0.0661,-0.88763 0.0661,-1.97252 z M 95.626524,158.2568 h 4.226837 l 1.425589,-1.42362 1.42558,-1.42362 -1.42362,-1.42559 -1.423621,-1.42559 h -4.228746 -4.228746 l -0.02414,-1.35954 -0.02414,-1.35954 -2.78635,2.78755 -2.786349,2.78754 2.786349,2.83845 2.78635,2.83845 0.02409,-1.41725 0.02409,-1.41724 z m 31.909736,-5.54482 -2.73945,-2.73945 v 1.29293 1.29292 h -4.27287 -4.27287 l -1.46936,1.46746 -1.46936,1.46746 1.37972,1.38175 1.37973,1.38175 h 4.36251 4.3625 v 1.33676 1.33676 l 2.73945,-2.73945 2.73944,-2.73944 z m -30.924265,-3.3969 -2.365405,-2.36662 -0.943449,0.94053 -0.94345,0.94052 v 1.4261 1.4261 h 3.308854 3.308854 z m 7.670535,0.41648 v -1.95015 l -3.04551,-3.04644 -3.045513,-3.04644 1.0058,-1.00866 1.005803,-1.00867 h -3.921711 -3.921708 v 3.87774 3.87774 l 0.921219,-0.91808 0.921218,-0.91809 3.045596,3.0456 3.045596,3.0456 h 1.9946 1.99461 z m 14.46478,-1.07398 3.02317,-3.02412 1.03099,1.02831 1.03099,1.02831 v -4.00944 -4.00944 h -4.00937 -4.00938 l 1.0058,1.00866 1.00579,1.00865 -2.95783,2.9588 -2.95784,2.95879 v 2.0378 2.03781 h 1.90725 1.90726 z m 5.08515,1.68576 v -1.33836 l -1.00879,-1.00594 -1.00879,-1.00593 -2.3443,2.3443 -2.3443,2.3443 h 3.35309 3.35309 z m -14.30831,-1.67027 1.42113,-1.43061 v -4.26546 -4.26546 l 1.27191,-0.0243 1.2719,-0.0243 -2.74086,-2.73962 -2.74086,-2.73963 -2.76049,2.76154 -2.7605,2.76155 h 1.38024 1.38025 v 4.36045 4.36045 l 1.33588,1.33796 c 0.73473,0.73588 1.37736,1.33796 1.42806,1.33796 0.0507,0 0.73171,-0.64377 1.51334,-1.43061 z m -5.24162,-5.62665 v -3.37522 h -1.3822 -1.3822 l -1.00573,1.0086 -1.005736,1.00859 2.365406,2.36662 c 1.30097,1.30164 2.37554,2.36662 2.38793,2.36662 0.0124,0 0.0225,-1.51884 0.0225,-3.37521 z m 11.19784,-2.38895 -0.98168,-0.98627 h -1.29453 -1.29453 l 0.004,3.30947 0.004,3.30946 2.27174,-2.3232 2.27174,-2.3232 z"
       id="path1"
       sodipodi:nodetypes="sssscccssssssscsccsssscscssssssssssscsssscccccccccccccccccsssscccssscsssssssscsccssscssscccssscccccccssscccsccssssssssccccccsssssscscscccccccccssscccscscccscccscccccccssssccccscscccccssssssscccsssscccscccccccccccccccccssscccccccccccccccccccccssscccccccccccccccsscccccccccccccccccccccsssccccccccscsccccccccccccccccccccccccccccscccccsssccccccccccccccccccssscccccssscssscccccccccccccccccccccccccccccccccccccccccccccccccccccccccccccccccccccccccccccccccccccccccccccccccccccssccccccccssscccccccccc" /></g></svg>
