<svg width="1920" height="1080" viewBox="0 0 1920 1080" fill="none" xmlns="http://www.w3.org/2000/svg">
<path d="M1920 -0.000244141H0V1080H1920V-0.000244141Z" fill="#332D2A"/>
<path fill-rule="evenodd" clip-rule="evenodd" d="M1698.03 27.6926H1698.69V12.3804H1698.03V27.6926ZM1889.7 198.082V198.733H1904.85V198.082H1889.7ZM1889.7 368.145V368.797H1904.85V368.145H1889.7ZM1889.7 538.208V538.86H1904.85V538.208H1889.7ZM1889.7 708.272V708.923H1904.85V708.272H1889.7ZM1889.7 878.335V878.987H1904.85V878.335H1889.7ZM1698.69 1051.33H1698.03V1061.43H1698.69V1051.33ZM1513.28 1051.33H1512.62V1061.76H1513.28V1051.33ZM1327.86 1051.33H1327.2V1062.08H1327.86V1051.33ZM1142.45 1051.33H1141.79V1062.41H1142.45V1051.33ZM957.036 1051.33H956.377V1062.73H957.036V1051.33ZM771.623 1051.33H770.964V1063.06H771.623V1051.33ZM586.209 1051.33H585.551V1063.38H586.209V1051.33ZM400.796 1051.33H400.137V1063.71H400.796V1051.33ZM215.383 1051.33H214.724V1064.04H215.383V1051.33ZM29.6398 878.987V878.335H14.8199V878.987H29.6398ZM29.6398 708.923V708.272H14.8199V708.923H29.6398ZM29.6398 538.86V538.208H14.8199V538.86H29.6398ZM29.6398 368.797V368.145H14.8199V368.797H29.6398ZM29.6398 198.733V198.082H14.8199V198.733H29.6398ZM1513.28 27.6926H1512.62V12.7062H1513.28V27.6926ZM1327.86 27.6926V13.032H1327.2V27.6926H1327.86ZM1142.45 27.6926V13.3577H1141.79V27.6926H1142.45ZM957.036 27.6926V13.6835H956.377V27.6926H957.036ZM771.623 27.6926V14.0093H770.964V27.6926H771.623ZM586.209 27.6926V14.3351H585.551V27.6926H586.209ZM400.796 27.6926V14.6609H400.137V27.6926H400.796ZM215.383 27.6926V14.9867H214.724V27.6926H215.383Z" fill="#D0C3B4"/>
<path opacity="0.1" d="M1918.68 2.93237H1.31737V1078.7H1918.68V2.93237Z" stroke="#D0C3B4"/>
<path opacity="0.8" d="M1.31737 28.0183H1919.34" stroke="#D0C3B4"/>
<path opacity="0.8" d="M3.29332 1051H1919.34" stroke="#D0C3B4"/>
<path opacity="0.8" d="M29.6398 -0.000244141V1078.05" stroke="#D0C3B4"/>
<path opacity="0.8" d="M1889.7 2.28076V1078.05" stroke="#D0C3B4"/>
<path d="M122.26 9.74414V19.2218H121.1V10.9474H121.044L118.705 12.4838V11.3176L121.1 9.74414H122.26Z" fill="#D0C3B4"/>
<path d="M122.26 1057.49V1066.97H121.1V1058.69H121.044L118.705 1060.23V1059.07L121.1 1057.49H122.26Z" fill="#D0C3B4"/>
<path d="M303.976 19.2216V18.3887L307.139 14.9641C307.51 14.5631 307.815 14.2144 308.056 13.9183C308.295 13.619 308.473 13.3382 308.589 13.076C308.707 12.8107 308.766 12.533 308.766 12.2431C308.766 11.9098 308.685 11.6214 308.523 11.3776C308.364 11.1339 308.146 10.9458 307.869 10.8131C307.591 10.6804 307.279 10.6141 306.933 10.6141C306.565 10.6141 306.244 10.6897 305.969 10.8408C305.698 10.989 305.487 11.1972 305.337 11.4656C305.191 11.734 305.118 12.0487 305.118 12.4097H304.013C304.013 11.8543 304.143 11.3669 304.402 10.9473C304.661 10.5277 305.013 10.2007 305.459 9.96623C305.908 9.73172 306.412 9.6145 306.97 9.6145C307.531 9.6145 308.029 9.73172 308.463 9.96623C308.896 10.2007 309.236 10.5169 309.482 10.9149C309.729 11.3129 309.852 11.7556 309.852 12.2431C309.852 12.5917 309.788 12.9326 309.66 13.2658C309.536 13.5959 309.317 13.9645 309.005 14.3718C308.696 14.776 308.268 15.2696 307.719 15.8526L305.566 18.1295V18.2035H310.02V19.2216H303.976Z" fill="#D0C3B4"/>
<path d="M303.976 1066.97V1066.14L307.139 1062.71C307.51 1062.31 307.815 1061.96 308.056 1061.67C308.295 1061.37 308.473 1061.09 308.589 1060.82C308.707 1060.56 308.766 1060.28 308.766 1059.99C308.766 1059.66 308.685 1059.37 308.523 1059.12C308.364 1058.88 308.146 1058.69 307.869 1058.56C307.591 1058.43 307.279 1058.36 306.933 1058.36C306.565 1058.36 306.244 1058.44 305.969 1058.59C305.698 1058.74 305.487 1058.94 305.337 1059.22C305.191 1059.48 305.118 1059.8 305.118 1060.16H304.013C304.013 1059.6 304.143 1059.12 304.402 1058.69C304.661 1058.28 305.013 1057.95 305.459 1057.72C305.908 1057.48 306.412 1057.36 306.97 1057.36C307.531 1057.36 308.029 1057.48 308.463 1057.72C308.896 1057.95 309.236 1058.26 309.482 1058.66C309.729 1059.06 309.852 1059.5 309.852 1059.99C309.852 1060.34 309.788 1060.68 309.66 1061.01C309.536 1061.35 309.317 1061.71 309.005 1062.12C308.696 1062.53 308.268 1063.01 307.719 1063.6L305.566 1065.87V1065.95H310.02V1066.97H303.976Z" fill="#D0C3B4"/>
<path d="M492.297 19.3512C491.68 19.3512 491.129 19.2463 490.646 19.0365C490.166 18.8267 489.784 18.5352 489.5 18.1619C489.219 17.7855 489.066 17.3489 489.041 16.8522H490.22C490.245 17.1577 490.351 17.4215 490.538 17.6436C490.726 17.8626 490.971 18.0323 491.273 18.1527C491.575 18.2729 491.91 18.3331 492.279 18.3331C492.69 18.3331 493.055 18.2622 493.373 18.1203C493.691 17.9784 493.941 17.7809 494.122 17.5279C494.303 17.2749 494.393 16.9818 494.393 16.6486C494.393 16.3 494.306 15.9931 494.131 15.7277C493.956 15.4593 493.701 15.2495 493.364 15.0984C493.027 14.9472 492.615 14.8716 492.129 14.8716H491.362V13.8535H492.129C492.509 13.8535 492.843 13.7856 493.13 13.6499C493.42 13.5141 493.646 13.3229 493.808 13.076C493.973 12.8292 494.056 12.5392 494.056 12.206C494.056 11.8851 493.985 11.6059 493.841 11.3684C493.697 11.1309 493.495 10.9458 493.233 10.8131C492.974 10.6804 492.669 10.6141 492.316 10.6141C491.986 10.6141 491.673 10.6742 491.38 10.7946C491.09 10.9118 490.853 11.083 490.67 11.3082C490.486 11.5304 490.386 11.7988 490.37 12.1135H489.247C489.266 11.6168 489.417 11.1818 489.701 10.8085C489.985 10.432 490.356 10.139 490.814 9.92915C491.276 9.71941 491.783 9.6145 492.335 9.6145C492.927 9.6145 493.436 9.73329 493.86 9.97085C494.284 10.2053 494.61 10.5154 494.838 10.901C495.065 11.2867 495.179 11.7032 495.179 12.1505C495.179 12.6842 495.037 13.1392 494.753 13.5157C494.473 13.892 494.091 14.1527 493.607 14.2978V14.3718C494.212 14.4705 494.685 14.7251 495.025 15.1354C495.364 15.5426 495.534 16.047 495.534 16.6486C495.534 17.1639 495.393 17.6266 495.109 18.0369C494.828 18.4442 494.444 18.765 493.958 18.9995C493.471 19.234 492.918 19.3512 492.297 19.3512Z" fill="#D0C3B4"/>
<path d="M492.297 1067.1C491.68 1067.1 491.129 1067 490.646 1066.79C490.166 1066.57 489.784 1066.28 489.5 1065.91C489.219 1065.54 489.066 1065.1 489.041 1064.6H490.22C490.245 1064.9 490.351 1065.17 490.538 1065.39C490.726 1065.61 490.971 1065.78 491.273 1065.9C491.575 1066.02 491.91 1066.08 492.279 1066.08C492.69 1066.08 493.055 1066.01 493.373 1065.87C493.691 1065.72 493.941 1065.53 494.122 1065.27C494.303 1065.02 494.393 1064.73 494.393 1064.4C494.393 1064.05 494.306 1063.74 494.131 1063.48C493.956 1063.21 493.701 1062.99 493.364 1062.84C493.027 1062.69 492.615 1062.62 492.129 1062.62H491.362V1061.6H492.129C492.509 1061.6 492.843 1061.53 493.13 1061.4C493.42 1061.26 493.646 1061.07 493.808 1060.82C493.973 1060.58 494.056 1060.28 494.056 1059.95C494.056 1059.63 493.985 1059.35 493.841 1059.12C493.697 1058.88 493.495 1058.69 493.233 1058.56C492.974 1058.43 492.669 1058.36 492.316 1058.36C491.986 1058.36 491.673 1058.42 491.38 1058.54C491.09 1058.66 490.853 1058.83 490.67 1059.06C490.486 1059.28 490.386 1059.55 490.37 1059.86H489.247C489.266 1059.37 489.417 1058.93 489.701 1058.56C489.985 1058.18 490.356 1057.89 490.814 1057.68C491.276 1057.47 491.783 1057.36 492.335 1057.36C492.927 1057.36 493.436 1057.48 493.86 1057.72C494.284 1057.95 494.61 1058.26 494.838 1058.65C495.065 1059.03 495.179 1059.45 495.179 1059.9C495.179 1060.43 495.037 1060.89 494.753 1061.26C494.473 1061.64 494.091 1061.9 493.607 1062.04V1062.12C494.212 1062.22 494.685 1062.47 495.025 1062.88C495.364 1063.29 495.534 1063.8 495.534 1064.4C495.534 1064.91 495.393 1065.37 495.109 1065.78C494.828 1066.19 494.444 1066.51 493.958 1066.75C493.471 1066.98 492.918 1067.1 492.297 1067.1Z" fill="#D0C3B4"/>
<path d="M673.917 17.2781V16.3341L678.132 9.74414H678.824V11.2066H678.356L675.175 16.186V16.26H680.846V17.2781H673.917ZM678.428 19.2218V16.9912V16.5516V9.74414H679.535V19.2218H678.428Z" fill="#D0C3B4"/>
<path d="M673.917 1065.03V1064.08L678.132 1057.49H678.824V1058.95H678.356L675.175 1063.93V1064H680.846V1065.03H673.917ZM678.428 1066.97V1064.74V1064.3V1057.49H679.535V1066.97H678.428Z" fill="#D0C3B4"/>
<path d="M862.222 19.3514C861.675 19.3514 861.181 19.2433 860.74 19.0274C860.298 18.8115 859.949 18.5152 859.679 18.1389C859.416 17.7625 859.271 17.3337 859.244 16.8523H860.371C860.41 17.2812 860.608 17.636 860.957 17.9168C861.313 18.1944 861.734 18.3333 862.222 18.3333C862.617 18.3333 862.966 18.2422 863.269 18.0602C863.578 17.8782 863.822 17.6283 863.993 17.3105C864.171 16.9896 864.263 16.6271 864.263 16.223C864.263 15.8096 864.171 15.4409 863.987 15.117C863.802 14.7899 863.559 14.5323 863.236 14.3441C862.92 14.1559 862.557 14.0603 862.149 14.0572C861.853 14.0541 861.556 14.0989 861.247 14.1914C860.937 14.2809 860.68 14.3966 860.483 14.5385L859.396 14.4089L859.976 9.74414H864.955V10.7622H860.95L860.614 13.5574H860.667C860.865 13.4032 861.115 13.2751 861.411 13.1733C861.708 13.0715 862.011 13.0206 862.334 13.0206C862.92 13.0206 863.44 13.1594 863.901 13.4371C864.362 13.7117 864.724 14.0881 864.988 14.5663C865.251 15.0444 865.383 15.5905 865.383 16.2045C865.383 16.8091 865.245 17.349 864.975 17.8242C864.705 18.2962 864.329 18.6695 863.848 18.9441C863.374 19.2156 862.828 19.3514 862.222 19.3514Z" fill="#D0C3B4"/>
<path d="M862.222 1067.1C861.675 1067.1 861.181 1066.99 860.74 1066.77C860.298 1066.56 859.949 1066.27 859.679 1065.89C859.416 1065.51 859.271 1065.08 859.244 1064.6H860.371C860.41 1065.03 860.608 1065.39 860.957 1065.67C861.313 1065.94 861.734 1066.08 862.222 1066.08C862.617 1066.08 862.966 1065.99 863.269 1065.81C863.578 1065.63 863.822 1065.37 863.993 1065.06C864.171 1064.73 864.263 1064.38 864.263 1063.97C864.263 1063.55 864.171 1063.19 863.987 1062.86C863.802 1062.54 863.559 1062.28 863.236 1062.09C862.92 1061.91 862.557 1061.81 862.149 1061.8C861.853 1061.8 861.556 1061.85 861.247 1061.94C860.937 1062.03 860.68 1062.14 860.483 1062.28L859.396 1062.15L859.976 1057.49H864.955V1058.51H860.95L860.614 1061.31H860.667C860.865 1061.15 861.115 1061.02 861.411 1060.92C861.708 1060.82 862.011 1060.77 862.334 1060.77C862.92 1060.77 863.44 1060.91 863.901 1061.18C864.362 1061.46 864.724 1061.83 864.988 1062.32C865.251 1062.79 865.383 1063.34 865.383 1063.95C865.383 1064.56 865.245 1065.1 864.975 1065.57C864.705 1066.04 864.329 1066.41 863.848 1066.69C863.374 1066.96 862.828 1067.1 862.222 1067.1Z" fill="#D0C3B4"/>
<path d="M1047.5 19.3512C1047.1 19.3451 1046.71 19.271 1046.32 19.1291C1045.92 18.9872 1045.56 18.7481 1045.24 18.4118C1044.91 18.0724 1044.65 17.6143 1044.46 17.0373C1044.26 16.4574 1044.16 15.7293 1044.16 14.8531C1044.16 14.0139 1044.24 13.2704 1044.4 12.6225C1044.56 11.9715 1044.79 11.424 1045.09 10.9797C1045.4 10.5323 1045.76 10.193 1046.19 9.9616C1046.62 9.73016 1047.1 9.6145 1047.64 9.6145C1048.18 9.6145 1048.66 9.72091 1049.08 9.93378C1049.5 10.1436 1049.84 10.4367 1050.1 10.8131C1050.37 11.1894 1050.54 11.6229 1050.62 12.1135H1049.48C1049.37 11.6877 1049.16 11.3345 1048.86 11.0537C1048.56 10.773 1048.15 10.6326 1047.64 10.6326C1046.9 10.6326 1046.32 10.9519 1045.89 11.5906C1045.47 12.2292 1045.25 13.1254 1045.25 14.2793H1045.32C1045.49 14.017 1045.71 13.7933 1045.94 13.6082C1046.19 13.42 1046.46 13.275 1046.75 13.1732C1047.04 13.0714 1047.35 13.0205 1047.68 13.0205C1048.23 13.0205 1048.73 13.1563 1049.19 13.4278C1049.64 13.6962 1050.01 14.0679 1050.28 14.543C1050.55 15.015 1050.69 15.5565 1050.69 16.1673C1050.69 16.7535 1050.56 17.2904 1050.3 17.7778C1050.03 18.2622 1049.66 18.6478 1049.18 18.9348C1048.7 19.2186 1048.14 19.3574 1047.5 19.3512ZM1047.5 18.3331C1047.89 18.3331 1048.24 18.2359 1048.55 18.0416C1048.87 17.8472 1049.11 17.5865 1049.29 17.2595C1049.48 16.9324 1049.57 16.5684 1049.57 16.1673C1049.57 15.7756 1049.48 15.4192 1049.3 15.0984C1049.13 14.7744 1048.89 14.5168 1048.58 14.3255C1048.27 14.1342 1047.92 14.0386 1047.53 14.0386C1047.23 14.0386 1046.96 14.0972 1046.7 14.2144C1046.45 14.3286 1046.23 14.4859 1046.03 14.6865C1045.84 14.887 1045.69 15.1169 1045.58 15.376C1045.47 15.6321 1045.42 15.902 1045.42 16.1859C1045.42 16.5623 1045.51 16.9139 1045.69 17.241C1045.86 17.568 1046.11 17.8318 1046.42 18.0323C1046.74 18.2329 1047.09 18.3331 1047.5 18.3331Z" fill="#D0C3B4"/>
<path d="M1047.5 1067.1C1047.1 1067.09 1046.71 1067.02 1046.32 1066.88C1045.92 1066.73 1045.56 1066.49 1045.24 1066.16C1044.91 1065.82 1044.65 1065.36 1044.46 1064.79C1044.26 1064.21 1044.16 1063.48 1044.16 1062.6C1044.16 1061.76 1044.24 1061.02 1044.4 1060.37C1044.56 1059.72 1044.79 1059.17 1045.09 1058.73C1045.4 1058.28 1045.76 1057.94 1046.19 1057.71C1046.62 1057.48 1047.1 1057.36 1047.64 1057.36C1048.18 1057.36 1048.66 1057.47 1049.08 1057.68C1049.5 1057.89 1049.84 1058.19 1050.1 1058.56C1050.37 1058.94 1050.54 1059.37 1050.62 1059.86H1049.48C1049.37 1059.44 1049.16 1059.08 1048.86 1058.8C1048.56 1058.52 1048.15 1058.38 1047.64 1058.38C1046.9 1058.38 1046.32 1058.7 1045.89 1059.34C1045.47 1059.98 1045.25 1060.87 1045.25 1062.02H1045.32C1045.49 1061.76 1045.71 1061.54 1045.94 1061.35C1046.19 1061.17 1046.46 1061.02 1046.75 1060.92C1047.04 1060.82 1047.35 1060.77 1047.68 1060.77C1048.23 1060.77 1048.73 1060.9 1049.19 1061.18C1049.64 1061.44 1050.01 1061.82 1050.28 1062.29C1050.55 1062.76 1050.69 1063.31 1050.69 1063.91C1050.69 1064.5 1050.56 1065.04 1050.3 1065.52C1050.03 1066.01 1049.66 1066.4 1049.18 1066.68C1048.7 1066.97 1048.14 1067.11 1047.5 1067.1ZM1047.5 1066.08C1047.89 1066.08 1048.24 1065.99 1048.55 1065.79C1048.87 1065.59 1049.11 1065.33 1049.29 1065.01C1049.48 1064.68 1049.57 1064.32 1049.57 1063.91C1049.57 1063.52 1049.48 1063.16 1049.3 1062.84C1049.13 1062.52 1048.89 1062.26 1048.58 1062.08C1048.27 1061.88 1047.92 1061.79 1047.53 1061.79C1047.23 1061.79 1046.96 1061.85 1046.7 1061.96C1046.45 1062.08 1046.23 1062.23 1046.03 1062.43C1045.84 1062.64 1045.69 1062.86 1045.58 1063.12C1045.47 1063.38 1045.42 1063.65 1045.42 1063.93C1045.42 1064.31 1045.51 1064.66 1045.69 1064.99C1045.86 1065.31 1046.11 1065.58 1046.42 1065.78C1046.74 1065.98 1047.09 1066.08 1047.5 1066.08Z" fill="#D0C3B4"/>
<path d="M1229.7 19.2218L1233.98 10.8363V10.7622H1229.04V9.74414H1235.18V10.8178L1230.91 19.2218H1229.7Z" fill="#D0C3B4"/>
<path d="M1229.7 1066.97L1233.98 1058.58V1058.51H1229.04V1057.49H1235.18V1058.56L1230.91 1066.97H1229.7Z" fill="#D0C3B4"/>
<path d="M1417.55 19.3512C1416.91 19.3512 1416.34 19.2386 1415.85 19.0134C1415.36 18.7851 1414.98 18.4719 1414.7 18.0739C1414.42 17.6729 1414.29 17.2163 1414.29 16.7042C1414.29 16.3031 1414.37 15.9329 1414.53 15.5935C1414.69 15.251 1414.92 14.9657 1415.19 14.7374C1415.48 14.506 1415.79 14.3595 1416.14 14.2978V14.2422C1415.69 14.125 1415.32 13.8705 1415.05 13.4787C1414.78 13.0837 1414.65 12.6349 1414.65 12.132C1414.65 11.6507 1414.77 11.2203 1415.02 10.8408C1415.27 10.4614 1415.61 10.1621 1416.04 9.94303C1416.49 9.72403 1416.99 9.6145 1417.55 9.6145C1418.11 9.6145 1418.6 9.72403 1419.03 9.94303C1419.48 10.1621 1419.82 10.4614 1420.07 10.8408C1420.32 11.2203 1420.44 11.6507 1420.45 12.132C1420.44 12.6349 1420.31 13.0837 1420.04 13.4787C1419.76 13.8705 1419.4 14.125 1418.96 14.2422V14.2978C1419.3 14.3595 1419.61 14.506 1419.89 14.7374C1420.17 14.9657 1420.38 15.251 1420.55 15.5935C1420.72 15.9329 1420.8 16.3031 1420.81 16.7042C1420.8 17.2163 1420.66 17.6729 1420.38 18.0739C1420.11 18.4719 1419.73 18.7851 1419.24 19.0134C1418.75 19.2386 1418.19 19.3512 1417.55 19.3512ZM1417.55 18.3331C1417.98 18.3331 1418.36 18.2637 1418.67 18.1249C1418.99 17.986 1419.23 17.7901 1419.4 17.5372C1419.57 17.2842 1419.66 16.988 1419.67 16.6486C1419.66 16.2908 1419.57 15.9745 1419.38 15.7C1419.2 15.4254 1418.95 15.2094 1418.63 15.0521C1418.32 14.8947 1417.95 14.816 1417.55 14.816C1417.14 14.816 1416.78 14.8947 1416.45 15.0521C1416.14 15.2094 1415.89 15.4254 1415.7 15.7C1415.52 15.9745 1415.43 16.2908 1415.43 16.6486C1415.43 16.988 1415.52 17.2842 1415.68 17.5372C1415.85 17.7901 1416.1 17.986 1416.42 18.1249C1416.74 18.2637 1417.11 18.3331 1417.55 18.3331ZM1417.55 13.835C1417.9 13.835 1418.2 13.7671 1418.46 13.6314C1418.73 13.4956 1418.94 13.3059 1419.09 13.0622C1419.25 12.8184 1419.32 12.533 1419.32 12.206C1419.32 11.8851 1419.25 11.6059 1419.1 11.3684C1418.95 11.1277 1418.74 10.9426 1418.47 10.8131C1418.21 10.6804 1417.9 10.6141 1417.55 10.6141C1417.19 10.6141 1416.87 10.6804 1416.61 10.8131C1416.34 10.9426 1416.14 11.1277 1415.99 11.3684C1415.84 11.6059 1415.77 11.8851 1415.77 12.206C1415.77 12.533 1415.84 12.8184 1415.99 13.0622C1416.14 13.3059 1416.35 13.4956 1416.62 13.6314C1416.89 13.7671 1417.2 13.835 1417.55 13.835Z" fill="#D0C3B4"/>
<path d="M1417.55 1067.1C1416.91 1067.1 1416.34 1066.99 1415.85 1066.76C1415.36 1066.53 1414.98 1066.22 1414.7 1065.82C1414.42 1065.42 1414.29 1064.96 1414.29 1064.45C1414.29 1064.05 1414.37 1063.68 1414.53 1063.34C1414.69 1063 1414.92 1062.71 1415.19 1062.49C1415.48 1062.25 1415.79 1062.11 1416.14 1062.04V1061.99C1415.69 1061.87 1415.32 1061.62 1415.05 1061.23C1414.78 1060.83 1414.65 1060.38 1414.65 1059.88C1414.65 1059.4 1414.77 1058.97 1415.02 1058.59C1415.27 1058.21 1415.61 1057.91 1416.04 1057.69C1416.49 1057.47 1416.99 1057.36 1417.55 1057.36C1418.11 1057.36 1418.6 1057.47 1419.03 1057.69C1419.48 1057.91 1419.82 1058.21 1420.07 1058.59C1420.32 1058.97 1420.44 1059.4 1420.45 1059.88C1420.44 1060.38 1420.31 1060.83 1420.04 1061.23C1419.76 1061.62 1419.4 1061.87 1418.96 1061.99V1062.04C1419.3 1062.11 1419.61 1062.25 1419.89 1062.49C1420.17 1062.71 1420.38 1063 1420.55 1063.34C1420.72 1063.68 1420.8 1064.05 1420.81 1064.45C1420.8 1064.96 1420.66 1065.42 1420.38 1065.82C1420.11 1066.22 1419.73 1066.53 1419.24 1066.76C1418.75 1066.99 1418.19 1067.1 1417.55 1067.1ZM1417.55 1066.08C1417.98 1066.08 1418.36 1066.01 1418.67 1065.87C1418.99 1065.73 1419.23 1065.54 1419.4 1065.28C1419.57 1065.03 1419.66 1064.73 1419.67 1064.4C1419.66 1064.04 1419.57 1063.72 1419.38 1063.45C1419.2 1063.17 1418.95 1062.96 1418.63 1062.8C1418.32 1062.64 1417.95 1062.56 1417.55 1062.56C1417.14 1062.56 1416.78 1062.64 1416.45 1062.8C1416.14 1062.96 1415.89 1063.17 1415.7 1063.45C1415.52 1063.72 1415.43 1064.04 1415.43 1064.4C1415.43 1064.73 1415.52 1065.03 1415.68 1065.28C1415.85 1065.54 1416.1 1065.73 1416.42 1065.87C1416.74 1066.01 1417.11 1066.08 1417.55 1066.08ZM1417.55 1061.58C1417.9 1061.58 1418.2 1061.52 1418.46 1061.38C1418.73 1061.24 1418.94 1061.05 1419.09 1060.81C1419.25 1060.56 1419.32 1060.28 1419.32 1059.95C1419.32 1059.63 1419.25 1059.35 1419.1 1059.12C1418.95 1058.88 1418.74 1058.69 1418.47 1058.56C1418.21 1058.43 1417.9 1058.36 1417.55 1058.36C1417.19 1058.36 1416.87 1058.43 1416.61 1058.56C1416.34 1058.69 1416.14 1058.88 1415.99 1059.12C1415.84 1059.35 1415.77 1059.63 1415.77 1059.95C1415.77 1060.28 1415.84 1060.56 1415.99 1060.81C1416.14 1061.05 1416.35 1061.24 1416.62 1061.38C1416.89 1061.52 1417.2 1061.58 1417.55 1061.58Z" fill="#D0C3B4"/>
<path d="M1602.62 9.61469C1603.01 9.61775 1603.4 9.69184 1603.8 9.83682C1604.18 9.98179 1604.55 10.2224 1604.87 10.5587C1605.19 10.8919 1605.46 11.347 1605.65 11.9239C1605.84 12.5008 1605.94 13.2243 1605.94 14.0943C1605.94 14.9366 1605.86 15.6847 1605.7 16.3388C1605.54 16.9897 1605.31 17.5389 1605.01 17.9862C1604.71 18.4336 1604.34 18.773 1603.91 19.0043C1603.49 19.2357 1603.01 19.3514 1602.47 19.3514C1601.93 19.3514 1601.45 19.2465 1601.03 19.0367C1600.61 18.8238 1600.27 18.5292 1600 18.1528C1599.73 17.7734 1599.57 17.3337 1599.49 16.8339H1600.63C1600.73 17.2689 1600.94 17.6284 1601.25 17.9122C1601.55 18.1929 1601.96 18.3333 1602.47 18.3333C1603.2 18.3333 1603.79 18.014 1604.22 17.3754C1604.65 16.7368 1604.86 15.8343 1604.86 14.6682H1604.78C1604.61 14.9273 1604.4 15.151 1604.16 15.3392C1603.92 15.5274 1603.66 15.6724 1603.36 15.7742C1603.07 15.876 1602.76 15.9269 1602.43 15.9269C1601.88 15.9269 1601.37 15.7927 1600.92 15.5243C1600.46 15.2528 1600.09 14.8811 1599.82 14.409C1599.55 13.9339 1599.42 13.3909 1599.42 12.78C1599.42 12.2 1599.55 11.6694 1599.81 11.1881C1600.07 10.7037 1600.44 10.3181 1600.92 10.0312C1601.4 9.74423 1601.96 9.60544 1602.62 9.61469ZM1602.62 10.6328C1602.22 10.6328 1601.87 10.7299 1601.55 10.9243C1601.24 11.1156 1600.99 11.3747 1600.81 11.7018C1600.63 12.0257 1600.54 12.3852 1600.54 12.78C1600.54 13.1749 1600.63 13.5344 1600.8 13.8583C1600.98 14.1792 1601.22 14.4352 1601.52 14.6265C1601.83 14.8147 1602.18 14.9088 1602.58 14.9088C1602.87 14.9088 1603.15 14.8517 1603.41 14.7376C1603.66 14.6204 1603.88 14.4614 1604.07 14.2609C1604.27 14.0573 1604.42 13.8274 1604.53 13.5714C1604.64 13.3122 1604.69 13.0423 1604.69 12.7615C1604.69 12.3913 1604.6 12.0443 1604.42 11.7203C1604.24 11.3964 1603.99 11.1341 1603.68 10.9336C1603.37 10.7331 1603.01 10.6328 1602.62 10.6328Z" fill="#D0C3B4"/>
<path d="M1602.62 1057.37C1603.01 1057.37 1603.4 1057.44 1603.8 1057.59C1604.18 1057.73 1604.55 1057.97 1604.87 1058.3C1605.19 1058.64 1605.46 1059.09 1605.65 1059.67C1605.84 1060.25 1605.94 1060.97 1605.94 1061.84C1605.94 1062.68 1605.86 1063.43 1605.7 1064.09C1605.54 1064.73 1605.31 1065.29 1605.01 1065.73C1604.71 1066.18 1604.34 1066.52 1603.91 1066.75C1603.49 1066.98 1603.01 1067.1 1602.47 1067.1C1601.93 1067.1 1601.45 1067 1601.03 1066.79C1600.61 1066.57 1600.27 1066.28 1600 1065.9C1599.73 1065.52 1599.57 1065.08 1599.49 1064.58H1600.63C1600.73 1065.01 1600.94 1065.37 1601.25 1065.66C1601.55 1065.94 1601.96 1066.08 1602.47 1066.08C1603.2 1066.08 1603.79 1065.76 1604.22 1065.13C1604.65 1064.49 1604.86 1063.58 1604.86 1062.41H1604.78C1604.61 1062.68 1604.4 1062.9 1604.16 1063.09C1603.92 1063.27 1603.66 1063.42 1603.36 1063.52C1603.07 1063.63 1602.76 1063.67 1602.43 1063.67C1601.88 1063.67 1601.37 1063.54 1600.92 1063.27C1600.46 1063 1600.09 1062.63 1599.82 1062.15C1599.55 1061.68 1599.42 1061.14 1599.42 1060.53C1599.42 1059.95 1599.55 1059.42 1599.81 1058.94C1600.07 1058.45 1600.44 1058.07 1600.92 1057.78C1601.4 1057.49 1601.96 1057.35 1602.62 1057.37ZM1602.62 1058.38C1602.22 1058.38 1601.87 1058.48 1601.55 1058.67C1601.24 1058.86 1600.99 1059.12 1600.81 1059.45C1600.63 1059.78 1600.54 1060.13 1600.54 1060.53C1600.54 1060.92 1600.63 1061.28 1600.8 1061.61C1600.98 1061.93 1601.22 1062.18 1601.52 1062.38C1601.83 1062.56 1602.18 1062.66 1602.58 1062.66C1602.87 1062.66 1603.15 1062.6 1603.41 1062.49C1603.66 1062.37 1603.88 1062.21 1604.07 1062.01C1604.27 1061.8 1604.42 1061.57 1604.53 1061.32C1604.64 1061.06 1604.69 1060.79 1604.69 1060.51C1604.69 1060.14 1604.6 1059.79 1604.42 1059.47C1604.24 1059.14 1603.99 1058.88 1603.68 1058.68C1603.37 1058.48 1603.01 1058.38 1602.62 1058.38Z" fill="#D0C3B4"/>
<path d="M1788.02 9.74404V19.2216H1786.86V10.9473H1786.8L1784.46 12.4837V11.3175L1786.86 9.74404H1788.02ZM1793.9 19.3512C1793.19 19.3512 1792.59 19.1615 1792.09 18.782C1791.6 18.3995 1791.22 17.8457 1790.96 17.1207C1790.7 16.3925 1790.57 15.5133 1790.57 14.4829C1790.57 13.4586 1790.7 12.584 1790.96 11.8589C1791.22 11.1309 1791.61 10.5755 1792.1 10.193C1792.6 9.80731 1793.2 9.6145 1793.9 9.6145C1794.6 9.6145 1795.19 9.80731 1795.69 10.193C1796.18 10.5755 1796.57 11.1309 1796.83 11.8589C1797.09 12.584 1797.23 13.4586 1797.23 14.4829C1797.23 15.5133 1797.09 16.3925 1796.84 17.1207C1796.57 17.8457 1796.19 18.3995 1795.7 18.782C1795.2 19.1615 1794.6 19.3512 1793.9 19.3512ZM1793.9 18.3331C1794.6 18.3331 1795.14 17.9999 1795.53 17.3336C1795.91 16.6671 1796.11 15.7169 1796.11 14.4829C1796.11 13.6622 1796.01 12.9634 1795.84 12.3865C1795.66 11.8096 1795.41 11.3699 1795.08 11.0676C1794.76 10.7653 1794.36 10.6141 1793.9 10.6141C1793.21 10.6141 1792.66 10.9519 1792.27 11.6276C1791.88 12.3001 1791.69 13.2519 1791.69 14.4829C1791.69 15.3035 1791.78 16.0007 1791.95 16.5746C1792.13 17.1484 1792.38 17.585 1792.71 17.8842C1793.04 18.1835 1793.43 18.3331 1793.9 18.3331Z" fill="#D0C3B4"/>
<path d="M1788.02 1057.49V1066.97H1786.86V1058.69H1786.8L1784.46 1060.23V1059.07L1786.86 1057.49H1788.02ZM1793.9 1067.1C1793.19 1067.1 1792.59 1066.91 1792.09 1066.53C1791.6 1066.15 1791.22 1065.59 1790.96 1064.87C1790.7 1064.14 1790.57 1063.26 1790.57 1062.23C1790.57 1061.21 1790.7 1060.33 1790.96 1059.61C1791.22 1058.88 1791.61 1058.32 1792.1 1057.94C1792.6 1057.55 1793.2 1057.36 1793.9 1057.36C1794.6 1057.36 1795.19 1057.55 1795.69 1057.94C1796.18 1058.32 1796.57 1058.88 1796.83 1059.61C1797.09 1060.33 1797.23 1061.21 1797.23 1062.23C1797.23 1063.26 1797.09 1064.14 1796.84 1064.87C1796.57 1065.59 1796.19 1066.15 1795.7 1066.53C1795.2 1066.91 1794.6 1067.1 1793.9 1067.1ZM1793.9 1066.08C1794.6 1066.08 1795.14 1065.74 1795.53 1065.08C1795.91 1064.41 1796.11 1063.46 1796.11 1062.23C1796.11 1061.41 1796.01 1060.71 1795.84 1060.13C1795.66 1059.55 1795.41 1059.12 1795.08 1058.82C1794.76 1058.51 1794.36 1058.36 1793.9 1058.36C1793.21 1058.36 1792.66 1058.7 1792.27 1059.38C1791.88 1060.05 1791.69 1061 1791.69 1062.23C1791.69 1063.05 1791.78 1063.75 1791.95 1064.32C1792.13 1064.9 1792.38 1065.33 1792.71 1065.63C1793.04 1065.93 1793.43 1066.08 1793.9 1066.08Z" fill="#D0C3B4"/>
<path d="M11.0401 285.068V275.591H14.3895C15.0569 275.591 15.6073 275.705 16.0409 275.933C16.4743 276.158 16.7971 276.462 17.0092 276.844C17.2213 277.224 17.3273 277.645 17.3273 278.108C17.3273 278.515 17.254 278.851 17.1074 279.116C16.964 279.382 16.7738 279.592 16.5367 279.746C16.3028 279.9 16.0486 280.014 15.7742 280.088V280.181C16.0673 280.199 16.3621 280.302 16.6584 280.487C16.9546 280.672 17.2025 280.937 17.4022 281.282C17.6018 281.628 17.7016 282.05 17.7016 282.55C17.7016 283.026 17.5924 283.453 17.3741 283.832C17.1558 284.212 16.8112 284.513 16.3402 284.735C15.8694 284.957 15.2565 285.068 14.5018 285.068H11.0401ZM12.2002 284.05H14.5018C15.2596 284.05 15.7976 283.905 16.1157 283.615C16.4369 283.322 16.5976 282.967 16.5976 282.55C16.5976 282.23 16.5149 281.933 16.3496 281.662C16.1843 281.387 15.9489 281.168 15.6432 281.005C15.3376 280.838 14.9758 280.755 14.558 280.755H12.2002V284.05ZM12.2002 279.755H14.3521C14.7014 279.755 15.0164 279.687 15.297 279.552C15.5809 279.416 15.8054 279.224 15.9707 278.978C16.1391 278.731 16.2233 278.441 16.2233 278.108C16.2233 277.691 16.0767 277.338 15.7836 277.048C15.4904 276.755 15.0257 276.608 14.3895 276.608H12.2002V279.755Z" fill="#D0C3B4"/>
<path d="M1900.74 285.068V275.591H1904.09C1904.76 275.591 1905.31 275.705 1905.74 275.933C1906.17 276.158 1906.5 276.462 1906.71 276.844C1906.93 277.224 1907.03 277.645 1907.03 278.108C1907.03 278.515 1906.96 278.851 1906.81 279.116C1906.67 279.382 1906.48 279.592 1906.24 279.746C1906 279.9 1905.75 280.014 1905.48 280.088V280.181C1905.77 280.199 1906.06 280.302 1906.36 280.487C1906.66 280.672 1906.91 280.937 1907.1 281.282C1907.3 281.628 1907.41 282.05 1907.41 282.55C1907.41 283.026 1907.29 283.453 1907.08 283.832C1906.86 284.212 1906.51 284.513 1906.04 284.735C1905.57 284.957 1904.96 285.068 1904.21 285.068H1900.74ZM1901.9 284.05H1904.21C1904.96 284.05 1905.5 283.905 1905.82 283.615C1906.14 283.322 1906.3 282.967 1906.3 282.55C1906.3 282.23 1906.21 281.933 1906.05 281.662C1905.88 281.387 1905.65 281.168 1905.34 281.005C1905.04 280.838 1904.68 280.755 1904.26 280.755H1901.9V284.05ZM1901.9 279.755H1904.05C1904.4 279.755 1904.72 279.687 1905 279.552C1905.29 279.416 1905.51 279.224 1905.67 278.978C1905.84 278.731 1905.92 278.441 1905.92 278.108C1905.92 277.691 1905.78 277.338 1905.48 277.048C1905.19 276.755 1904.73 276.608 1904.09 276.608H1901.9V279.755Z" fill="#D0C3B4"/>
<path d="M11.4331 113.702H10.2168L13.7346 104.224H14.9322L18.4501 113.702H17.2338L14.3708 105.724H14.2959L11.4331 113.702ZM11.8821 109.999H16.7847V111.018H11.8821V109.999Z" fill="#D0C3B4"/>
<path d="M1901.14 113.702H1899.92L1903.43 104.224H1904.63L1908.15 113.702H1906.93L1904.07 105.724H1903.99L1901.14 113.702ZM1901.58 109.999H1906.48V111.018H1901.58V109.999Z" fill="#D0C3B4"/>
<path d="M18.7494 449.919H17.5893C17.5207 449.588 17.4006 449.298 17.2291 449.049C17.0607 448.799 16.8549 448.589 16.6116 448.419C16.3715 448.247 16.1048 448.117 15.8117 448.03C15.5185 447.944 15.2129 447.901 14.8948 447.901C14.3147 447.901 13.7892 448.046 13.3183 448.336C12.8505 448.626 12.4778 449.053 12.2002 449.618C11.9258 450.183 11.7886 450.875 11.7886 451.696C11.7886 452.517 11.9258 453.209 12.2002 453.774C12.4778 454.338 12.8505 454.765 13.3183 455.056C13.7892 455.346 14.3147 455.49 14.8948 455.49C15.2129 455.49 15.5185 455.447 15.8117 455.361C16.1048 455.275 16.3715 455.146 16.6116 454.977C16.8549 454.804 17.0607 454.593 17.2291 454.343C17.4006 454.09 17.5207 453.8 17.5893 453.473H18.7494C18.6621 453.957 18.5031 454.391 18.2723 454.773C18.0415 455.156 17.7546 455.481 17.4116 455.75C17.0685 456.015 16.6833 456.217 16.2561 456.356C15.832 456.495 15.3781 456.564 14.8948 456.564C14.0777 456.564 13.351 456.367 12.7148 455.972C12.0786 455.577 11.5781 455.015 11.2132 454.288C10.8483 453.559 10.6659 452.695 10.6659 451.696C10.6659 450.696 10.8483 449.832 11.2132 449.104C11.5781 448.376 12.0786 447.815 12.7148 447.42C13.351 447.025 14.0777 446.828 14.8948 446.828C15.3781 446.828 15.832 446.897 16.2561 447.036C16.6833 447.174 17.0685 447.378 17.4116 447.647C17.7546 447.912 18.0415 448.236 18.2723 448.618C18.5031 448.998 18.6621 449.431 18.7494 449.919Z" fill="#D0C3B4"/>
<path d="M1908.45 449.919H1907.29C1907.22 449.588 1907.1 449.298 1906.93 449.049C1906.76 448.799 1906.56 448.589 1906.31 448.419C1906.08 448.247 1905.81 448.117 1905.52 448.03C1905.22 447.944 1904.92 447.901 1904.59 447.901C1904.01 447.901 1903.49 448.046 1903.02 448.336C1902.55 448.626 1902.18 449.053 1901.9 449.618C1901.63 450.183 1901.49 450.875 1901.49 451.696C1901.49 452.517 1901.63 453.209 1901.9 453.774C1902.18 454.338 1902.55 454.765 1903.02 455.056C1903.49 455.346 1904.01 455.49 1904.59 455.49C1904.92 455.49 1905.22 455.447 1905.52 455.361C1905.81 455.275 1906.08 455.146 1906.31 454.977C1906.56 454.804 1906.76 454.593 1906.93 454.343C1907.1 454.09 1907.22 453.8 1907.29 453.473H1908.45C1908.36 453.957 1908.2 454.391 1907.97 454.773C1907.74 455.156 1907.46 455.481 1907.11 455.75C1906.77 456.015 1906.39 456.217 1905.96 456.356C1905.54 456.495 1905.08 456.564 1904.59 456.564C1903.78 456.564 1903.05 456.367 1902.41 455.972C1901.78 455.577 1901.28 455.015 1900.91 454.288C1900.55 453.559 1900.37 452.695 1900.37 451.696C1900.37 450.696 1900.55 449.832 1900.91 449.104C1901.28 448.376 1901.78 447.815 1902.41 447.42C1903.05 447.025 1903.78 446.828 1904.59 446.828C1905.08 446.828 1905.54 446.897 1905.96 447.036C1906.39 447.174 1906.77 447.378 1907.11 447.647C1907.46 447.912 1907.74 448.236 1907.97 448.618C1908.2 448.998 1908.36 449.431 1908.45 449.919Z" fill="#D0C3B4"/>
<path d="M13.9966 627.801H11.0401V618.324H14.1276C15.0569 618.324 15.8522 618.513 16.5133 618.893C17.1745 619.269 17.6813 619.811 18.0337 620.517C18.3861 621.221 18.5623 622.062 18.5623 623.044C18.5623 624.031 18.3845 624.881 18.029 625.593C17.6735 626.303 17.1558 626.849 16.4759 627.232C15.796 627.611 14.9696 627.801 13.9966 627.801ZM12.2002 626.783H13.9218C14.7139 626.783 15.3703 626.631 15.8912 626.329C16.412 626.027 16.8002 625.597 17.056 625.038C17.3117 624.48 17.4396 623.815 17.4396 623.044C17.4396 622.279 17.3133 621.62 17.0607 621.068C16.8081 620.512 16.4307 620.087 15.9286 619.79C15.4265 619.491 14.8012 619.342 14.0527 619.342H12.2002V626.783Z" fill="#D0C3B4"/>
<path d="M1903.7 627.801H1900.74V618.324H1903.83C1904.76 618.324 1905.56 618.513 1906.21 618.893C1906.87 619.269 1907.38 619.811 1907.74 620.517C1908.08 621.221 1908.26 622.062 1908.26 623.044C1908.26 624.031 1908.08 624.881 1907.73 625.593C1907.37 626.303 1906.86 626.849 1906.17 627.232C1905.5 627.611 1904.67 627.801 1903.7 627.801ZM1901.9 626.783H1903.63C1904.42 626.783 1905.07 626.631 1905.59 626.329C1906.12 626.027 1906.5 625.597 1906.75 625.038C1907.01 624.48 1907.14 623.815 1907.14 623.044C1907.14 622.279 1907.02 621.62 1906.76 621.068C1906.51 620.512 1906.14 620.087 1905.63 619.79C1905.13 619.491 1904.5 619.342 1903.76 619.342H1901.9V626.783Z" fill="#D0C3B4"/>
<path d="M11.0401 799.167V789.687H16.8221V790.71H12.2002V793.909H16.5227V794.925H12.2002V798.151H16.8969V799.167H11.0401Z" fill="#D0C3B4"/>
<path d="M1900.74 799.167V789.687H1906.52V790.71H1901.9V793.909H1906.23V794.925H1901.9V798.151H1906.6V799.167H1900.74Z" fill="#D0C3B4"/>
<path d="M11.0401 970.534V961.053H16.7847V962.076H12.2002V965.276H16.3543V966.292H12.2002V970.534H11.0401Z" fill="#D0C3B4"/>
<path d="M1900.74 970.534V961.053H1906.48V962.076H1901.9V965.276H1906.06V966.292H1901.9V970.534H1900.74Z" fill="#D0C3B4"/>
<path d="M1747.59 107H972.469V189H1747.59V107Z" stroke="#D0C3B4"/>
<path d="M972 122.79H1748" stroke="#D0C3B4"/>
<path d="M972 140.079H1748" stroke="#D0C3B4"/>
<path d="M1031.92 188.806V122.79" stroke="#D0C3B4"/>
<path d="M1077.22 188.806V155.798V122.79" stroke="#D0C3B4"/>
<path d="M1535.37 188.806V122.79" stroke="#D0C3B4"/>
<path d="M1625.97 188.806V122.79" stroke="#D0C3B4"/>
<path d="M993.676 133.575H996.961V132.951H994.769L996.934 129.286H994.043V129.878H995.862L993.676 133.575ZM1001.24 131.439C1001.24 131.656 1001.2 131.861 1001.12 132.054C1001.04 132.248 1000.93 132.421 1000.78 132.573C1000.63 132.725 1000.46 132.843 1000.27 132.922C1000.09 133.004 999.887 133.042 999.679 133.042C999.465 133.042 999.263 133.004 999.076 132.922C998.885 132.843 998.715 132.725 998.569 132.573C998.42 132.421 998.305 132.248 998.229 132.054C998.15 131.861 998.112 131.656 998.112 131.439C998.112 131.222 998.15 131.014 998.229 130.818C998.305 130.625 998.42 130.452 998.569 130.3C998.715 130.147 998.885 130.033 999.076 129.951C999.266 129.872 999.468 129.831 999.679 129.831C999.89 129.831 1000.09 129.872 1000.28 129.954C1000.47 130.036 1000.64 130.15 1000.78 130.3C1000.93 130.452 1001.04 130.628 1001.12 130.821C1001.2 131.017 1001.24 131.222 1001.24 131.439ZM1001.97 131.439C1001.97 131.137 1001.91 130.85 1001.8 130.578C1001.68 130.305 1001.52 130.059 1001.3 129.843C1001.08 129.632 1000.83 129.468 1000.56 129.356C1000.28 129.245 999.987 129.189 999.679 129.189C999.369 129.189 999.073 129.245 998.798 129.356C998.519 129.468 998.27 129.632 998.053 129.843C997.834 130.059 997.667 130.302 997.555 130.572C997.441 130.844 997.385 131.135 997.385 131.439C997.385 131.75 997.441 132.037 997.555 132.306C997.667 132.576 997.834 132.819 998.053 133.03C998.267 133.241 998.513 133.405 998.795 133.519C999.076 133.634 999.369 133.689 999.679 133.689C999.984 133.689 1000.27 133.634 1000.55 133.519C1000.83 133.408 1001.08 133.244 1001.3 133.03C1001.52 132.819 1001.68 132.576 1001.8 132.303C1001.91 132.034 1001.97 131.744 1001.97 131.439ZM1002.77 133.575H1003.41V130.593C1003.47 130.68 1003.54 130.765 1003.61 130.844C1003.68 130.927 1003.75 131.003 1003.82 131.073L1006.61 133.742V129.286H1005.96V132.26C1005.88 132.154 1005.8 132.06 1005.72 131.975C1005.64 131.893 1005.57 131.814 1005.49 131.738L1002.77 129.116V133.575ZM1007.59 133.575H1009.99V132.951H1008.29V131.565H1009.99V130.953H1008.29V129.878H1009.99V129.286H1007.59V133.575Z" fill="#D0C3B4"/>
<path d="M1050.63 131.114V129.884H1050.75C1051.1 129.884 1051.34 129.933 1051.47 130.03C1051.6 130.127 1051.67 130.294 1051.67 130.528C1051.67 130.748 1051.61 130.9 1051.49 130.985C1051.36 131.073 1051.12 131.114 1050.75 131.114H1050.63ZM1050.58 131.656H1050.66L1052.09 133.575H1052.88L1051.4 131.624C1051.72 131.586 1051.97 131.469 1052.13 131.275C1052.3 131.082 1052.38 130.812 1052.38 130.467C1052.38 130.273 1052.35 130.092 1052.27 129.927C1052.2 129.763 1052.1 129.632 1051.97 129.526C1051.86 129.441 1051.72 129.38 1051.56 129.342C1051.4 129.306 1051.19 129.286 1050.9 129.286H1049.93V133.575H1050.58V131.656ZM1053.29 133.575H1055.69V132.951H1053.99V131.565H1055.69V130.953H1053.99V129.878H1055.69V129.286H1053.29V133.575ZM1057.85 133.742L1059.76 129.286H1059.04L1058.08 131.571C1058.03 131.694 1057.98 131.811 1057.94 131.926C1057.9 132.043 1057.87 132.154 1057.85 132.26C1057.82 132.16 1057.79 132.052 1057.76 131.94C1057.72 131.829 1057.67 131.706 1057.62 131.571L1056.66 129.286H1055.93L1057.85 133.742Z" fill="#D0C3B4"/>
<path d="M1574.53 132.945V129.91H1574.78H1575.03C1575.39 129.91 1575.65 129.933 1575.82 129.974C1575.99 130.018 1576.14 130.092 1576.26 130.191C1576.42 130.332 1576.54 130.505 1576.62 130.71C1576.71 130.915 1576.75 131.155 1576.75 131.427C1576.75 131.703 1576.71 131.943 1576.62 132.148C1576.54 132.353 1576.42 132.526 1576.26 132.664C1576.14 132.766 1576 132.84 1575.84 132.881C1575.68 132.925 1575.44 132.945 1575.12 132.945H1574.53ZM1573.83 133.575H1574.77H1574.96C1575.46 133.575 1575.84 133.546 1576.08 133.484C1576.32 133.423 1576.53 133.32 1576.72 133.174C1576.96 132.983 1577.15 132.74 1577.28 132.447C1577.41 132.154 1577.47 131.814 1577.47 131.433C1577.47 131.052 1577.41 130.716 1577.28 130.417C1577.15 130.121 1576.96 129.878 1576.72 129.687C1576.53 129.544 1576.31 129.441 1576.06 129.38C1575.81 129.318 1575.38 129.286 1574.77 129.286H1573.83V133.575ZM1579.18 131.89L1579.62 130.912C1579.64 130.844 1579.67 130.771 1579.7 130.689C1579.72 130.607 1579.75 130.519 1579.77 130.426C1579.8 130.525 1579.83 130.616 1579.86 130.698C1579.88 130.78 1579.91 130.85 1579.94 130.912L1580.37 131.89H1579.18ZM1581.11 133.575H1581.84L1579.77 129.116L1577.69 133.575H1578.42L1578.92 132.47H1580.62L1581.11 133.575ZM1583.63 129.878H1584.77V129.286H1581.8V129.878H1582.94V133.575H1583.63V129.878ZM1585.3 133.575H1587.69V132.951H1586V131.565H1587.69V130.953H1586V129.878H1587.69V129.286H1585.3V133.575Z" fill="#D0C3B4"/>
<path d="M1672.88 131.89L1673.32 130.912C1673.34 130.844 1673.37 130.771 1673.39 130.689C1673.42 130.607 1673.45 130.519 1673.47 130.426C1673.5 130.525 1673.52 130.616 1673.55 130.698C1673.58 130.78 1673.61 130.85 1673.63 130.912L1674.07 131.89H1672.88ZM1674.8 133.575H1675.54L1673.46 129.116L1671.39 133.575H1672.12L1672.62 132.47H1674.32L1674.8 133.575ZM1676.64 131.079V129.884H1676.82C1677.19 129.884 1677.44 129.93 1677.58 130.024C1677.72 130.118 1677.79 130.279 1677.79 130.508C1677.79 130.721 1677.72 130.871 1677.59 130.953C1677.46 131.038 1677.21 131.079 1676.82 131.079H1676.64ZM1676.6 131.65H1676.86H1677C1677.31 131.65 1677.54 131.635 1677.69 131.6C1677.83 131.568 1677.96 131.512 1678.07 131.433C1678.21 131.337 1678.31 131.202 1678.39 131.029C1678.47 130.859 1678.5 130.672 1678.5 130.467C1678.5 130.264 1678.47 130.08 1678.39 129.91C1678.31 129.74 1678.21 129.605 1678.07 129.506C1677.96 129.429 1677.83 129.374 1677.69 129.339C1677.54 129.303 1677.31 129.286 1677 129.286H1675.94V133.575H1676.6V131.65ZM1679.83 131.079V129.884H1680.01C1680.38 129.884 1680.63 129.93 1680.77 130.024C1680.91 130.118 1680.98 130.279 1680.98 130.508C1680.98 130.721 1680.91 130.871 1680.79 130.953C1680.66 131.038 1680.4 131.079 1680.01 131.079H1679.83ZM1679.79 131.65H1680.05H1680.19C1680.5 131.65 1680.73 131.635 1680.88 131.6C1681.03 131.568 1681.15 131.512 1681.27 131.433C1681.4 131.337 1681.51 131.202 1681.58 131.029C1681.66 130.859 1681.7 130.672 1681.7 130.467C1681.7 130.264 1681.66 130.08 1681.58 129.91C1681.51 129.74 1681.4 129.605 1681.27 129.506C1681.15 129.429 1681.03 129.374 1680.88 129.339C1680.73 129.303 1680.5 129.286 1680.19 129.286H1679.14V133.575H1679.79V131.65ZM1683.03 131.114V129.884H1683.15C1683.5 129.884 1683.74 129.933 1683.87 130.03C1684 130.127 1684.07 130.294 1684.07 130.528C1684.07 130.748 1684.01 130.9 1683.89 130.985C1683.77 131.073 1683.52 131.114 1683.15 131.114H1683.03ZM1682.98 131.656H1683.06L1684.49 133.575H1685.28L1683.8 131.624C1684.12 131.586 1684.37 131.469 1684.54 131.275C1684.7 131.082 1684.78 130.812 1684.78 130.467C1684.78 130.273 1684.75 130.092 1684.68 129.927C1684.6 129.763 1684.5 129.632 1684.37 129.526C1684.26 129.441 1684.12 129.38 1683.96 129.342C1683.81 129.306 1683.59 129.286 1683.3 129.286H1682.33V133.575H1682.98V131.656ZM1689.36 131.439C1689.36 131.656 1689.32 131.861 1689.24 132.054C1689.16 132.248 1689.05 132.421 1688.9 132.573C1688.75 132.725 1688.58 132.843 1688.39 132.922C1688.21 133.004 1688.01 133.042 1687.8 133.042C1687.59 133.042 1687.38 133.004 1687.2 132.922C1687.01 132.843 1686.84 132.725 1686.69 132.573C1686.54 132.421 1686.43 132.248 1686.35 132.054C1686.27 131.861 1686.23 131.656 1686.23 131.439C1686.23 131.222 1686.27 131.014 1686.35 130.818C1686.43 130.625 1686.54 130.452 1686.69 130.3C1686.84 130.147 1687.01 130.033 1687.2 129.951C1687.39 129.872 1687.59 129.831 1687.8 129.831C1688.01 129.831 1688.21 129.872 1688.4 129.954C1688.59 130.036 1688.76 130.15 1688.9 130.3C1689.05 130.452 1689.16 130.628 1689.24 130.821C1689.32 131.017 1689.36 131.222 1689.36 131.439ZM1690.09 131.439C1690.09 131.137 1690.03 130.85 1689.92 130.578C1689.8 130.305 1689.64 130.059 1689.42 129.843C1689.2 129.632 1688.95 129.468 1688.68 129.356C1688.4 129.245 1688.11 129.189 1687.8 129.189C1687.49 129.189 1687.19 129.245 1686.92 129.356C1686.64 129.468 1686.39 129.632 1686.17 129.843C1685.95 130.059 1685.79 130.302 1685.68 130.572C1685.56 130.844 1685.51 131.135 1685.51 131.439C1685.51 131.75 1685.56 132.037 1685.68 132.306C1685.79 132.576 1685.95 132.819 1686.17 133.03C1686.39 133.241 1686.63 133.405 1686.91 133.519C1687.2 133.634 1687.49 133.689 1687.8 133.689C1688.1 133.689 1688.39 133.634 1688.67 133.519C1688.95 133.408 1689.2 133.244 1689.42 133.03C1689.64 132.819 1689.8 132.576 1689.92 132.303C1690.03 132.034 1690.09 131.744 1690.09 131.439ZM1690.87 129.286V131.955C1690.87 132.538 1691.02 132.971 1691.31 133.259C1691.6 133.546 1692.04 133.689 1692.63 133.689C1693.22 133.689 1693.66 133.546 1693.95 133.259C1694.25 132.971 1694.39 132.535 1694.39 131.955V129.286H1693.7V131.89C1693.7 132.277 1693.61 132.57 1693.43 132.763C1693.25 132.957 1692.98 133.053 1692.63 133.053C1692.27 133.053 1692.01 132.957 1691.83 132.763C1691.65 132.57 1691.56 132.277 1691.56 131.89V129.286H1690.87ZM1696.72 133.742L1698.63 129.286H1697.91L1696.95 131.571C1696.9 131.694 1696.85 131.811 1696.81 131.926C1696.77 132.043 1696.74 132.154 1696.72 132.26C1696.69 132.16 1696.66 132.052 1696.63 131.94C1696.59 131.829 1696.54 131.706 1696.49 131.571L1695.53 129.286H1694.8L1696.72 133.742ZM1699.06 133.575H1701.46V132.951H1699.76V131.565H1701.46V130.953H1699.76V129.878H1701.46V129.286H1699.06V133.575Z" fill="#D0C3B4"/>
<path d="M1288.71 132.945V129.91H1288.96H1289.21C1289.57 129.91 1289.83 129.933 1290 129.974C1290.17 130.018 1290.31 130.092 1290.44 130.191C1290.6 130.332 1290.72 130.505 1290.8 130.71C1290.88 130.915 1290.92 131.155 1290.92 131.427C1290.92 131.703 1290.88 131.943 1290.8 132.148C1290.72 132.353 1290.6 132.526 1290.44 132.664C1290.32 132.766 1290.18 132.84 1290.02 132.881C1289.85 132.925 1289.61 132.945 1289.29 132.945H1288.71ZM1288.01 133.575H1288.95H1289.14C1289.64 133.575 1290.01 133.546 1290.25 133.484C1290.49 133.423 1290.71 133.32 1290.89 133.174C1291.14 132.983 1291.33 132.74 1291.46 132.447C1291.59 132.154 1291.65 131.814 1291.65 131.433C1291.65 131.052 1291.59 130.716 1291.46 130.417C1291.33 130.121 1291.14 129.878 1290.89 129.687C1290.71 129.544 1290.49 129.441 1290.24 129.38C1289.99 129.318 1289.56 129.286 1288.95 129.286H1288.01V133.575ZM1292.45 133.575H1294.84V132.951H1293.15V131.565H1294.84V130.953H1293.15V129.878H1294.84V129.286H1292.45V133.575ZM1295.4 132.717C1295.47 133.03 1295.62 133.27 1295.85 133.437C1296.09 133.607 1296.39 133.689 1296.75 133.689C1297.19 133.689 1297.53 133.572 1297.79 133.332C1298.05 133.092 1298.17 132.769 1298.17 132.362C1298.17 132.084 1298.1 131.852 1297.94 131.665C1297.78 131.477 1297.49 131.287 1297.06 131.091C1297.04 131.082 1297.01 131.067 1296.98 131.05C1296.49 130.827 1296.25 130.587 1296.25 130.329C1296.25 130.165 1296.3 130.036 1296.41 129.936C1296.53 129.84 1296.67 129.79 1296.86 129.79C1296.99 129.79 1297.11 129.822 1297.21 129.884C1297.32 129.948 1297.41 130.045 1297.5 130.179L1298.04 129.898C1297.96 129.67 1297.81 129.497 1297.6 129.374C1297.39 129.251 1297.12 129.189 1296.81 129.189C1296.42 129.189 1296.11 129.298 1295.87 129.514C1295.63 129.731 1295.52 130.015 1295.52 130.364C1295.52 130.634 1295.59 130.862 1295.75 131.05C1295.91 131.237 1296.22 131.445 1296.7 131.674C1296.73 131.688 1296.77 131.709 1296.83 131.738C1297.25 131.937 1297.46 132.16 1297.46 132.412C1297.46 132.605 1297.4 132.76 1297.28 132.875C1297.15 132.992 1296.99 133.048 1296.78 133.048C1296.56 133.048 1296.38 132.998 1296.24 132.898C1296.1 132.799 1296.01 132.652 1295.95 132.459L1295.4 132.717ZM1302.38 130.329L1302.42 129.626C1302.2 129.479 1301.98 129.368 1301.75 129.295C1301.52 129.221 1301.28 129.183 1301.03 129.183C1300.71 129.183 1300.41 129.239 1300.14 129.347C1299.86 129.456 1299.62 129.614 1299.41 129.825C1299.19 130.036 1299.03 130.279 1298.92 130.554C1298.8 130.83 1298.75 131.126 1298.75 131.439C1298.75 131.756 1298.8 132.052 1298.92 132.33C1299.03 132.608 1299.19 132.848 1299.4 133.053C1299.61 133.264 1299.85 133.423 1300.13 133.528C1300.41 133.636 1300.71 133.689 1301.04 133.689C1301.3 133.689 1301.54 133.657 1301.76 133.59C1301.98 133.525 1302.19 133.423 1302.37 133.288V132.5C1302.16 132.681 1301.94 132.819 1301.71 132.907C1301.48 132.998 1301.24 133.042 1300.99 133.042C1300.55 133.042 1300.19 132.892 1299.9 132.591C1299.62 132.292 1299.48 131.908 1299.48 131.445C1299.48 130.968 1299.62 130.578 1299.92 130.276C1300.21 129.977 1300.59 129.825 1301.06 129.825C1301.3 129.825 1301.53 129.869 1301.75 129.951C1301.97 130.036 1302.18 130.162 1302.38 130.329ZM1303.94 131.114V129.884H1304.07C1304.42 129.884 1304.66 129.933 1304.79 130.03C1304.92 130.127 1304.98 130.294 1304.98 130.528C1304.98 130.748 1304.92 130.9 1304.8 130.985C1304.68 131.073 1304.44 131.114 1304.07 131.114H1303.94ZM1303.9 131.656H1303.98L1305.4 133.575H1306.19L1304.71 131.624C1305.04 131.586 1305.28 131.469 1305.45 131.275C1305.61 131.082 1305.7 130.812 1305.7 130.467C1305.7 130.273 1305.66 130.092 1305.59 129.927C1305.52 129.763 1305.41 129.632 1305.28 129.526C1305.17 129.441 1305.04 129.38 1304.88 129.342C1304.72 129.306 1304.5 129.286 1304.22 129.286H1303.24V133.575H1303.9V131.656ZM1306.62 133.575H1307.32V129.286H1306.62V133.575ZM1309.01 131.079V129.884H1309.19C1309.56 129.884 1309.81 129.93 1309.95 130.024C1310.09 130.118 1310.16 130.279 1310.16 130.508C1310.16 130.721 1310.1 130.871 1309.97 130.953C1309.84 131.038 1309.58 131.079 1309.19 131.079H1309.01ZM1308.97 131.65H1309.23H1309.37C1309.68 131.65 1309.91 131.635 1310.06 131.6C1310.21 131.568 1310.34 131.512 1310.45 131.433C1310.58 131.337 1310.69 131.202 1310.76 131.029C1310.84 130.859 1310.88 130.672 1310.88 130.467C1310.88 130.264 1310.84 130.08 1310.76 129.91C1310.69 129.74 1310.58 129.605 1310.45 129.506C1310.34 129.429 1310.21 129.374 1310.06 129.339C1309.91 129.303 1309.68 129.286 1309.37 129.286H1308.32V133.575H1308.97V131.65ZM1312.9 129.878H1314.03V129.286H1311.06V129.878H1312.2V133.575H1312.9V129.878ZM1314.58 133.575H1315.27V129.286H1314.58V133.575ZM1319.95 131.439C1319.95 131.656 1319.9 131.861 1319.83 132.054C1319.75 132.248 1319.63 132.421 1319.49 132.573C1319.33 132.725 1319.16 132.843 1318.98 132.922C1318.79 133.004 1318.59 133.042 1318.38 133.042C1318.17 133.042 1317.96 133.004 1317.78 132.922C1317.59 132.843 1317.42 132.725 1317.27 132.573C1317.12 132.421 1317.01 132.248 1316.93 132.054C1316.85 131.861 1316.81 131.656 1316.81 131.439C1316.81 131.222 1316.85 131.014 1316.93 130.818C1317.01 130.625 1317.12 130.452 1317.27 130.3C1317.42 130.147 1317.59 130.033 1317.78 129.951C1317.97 129.872 1318.17 129.831 1318.38 129.831C1318.59 129.831 1318.79 129.872 1318.98 129.954C1319.17 130.036 1319.34 130.15 1319.49 130.3C1319.63 130.452 1319.75 130.628 1319.83 130.821C1319.9 131.017 1319.95 131.222 1319.95 131.439ZM1320.67 131.439C1320.67 131.137 1320.61 130.85 1320.5 130.578C1320.38 130.305 1320.22 130.059 1320 129.843C1319.78 129.632 1319.53 129.468 1319.26 129.356C1318.98 129.245 1318.69 129.189 1318.38 129.189C1318.07 129.189 1317.77 129.245 1317.5 129.356C1317.22 129.468 1316.97 129.632 1316.75 129.843C1316.54 130.059 1316.37 130.302 1316.26 130.572C1316.14 130.844 1316.09 131.135 1316.09 131.439C1316.09 131.75 1316.14 132.037 1316.26 132.306C1316.37 132.576 1316.54 132.819 1316.75 133.03C1316.97 133.241 1317.21 133.405 1317.5 133.519C1317.78 133.634 1318.07 133.689 1318.38 133.689C1318.69 133.689 1318.98 133.634 1319.25 133.519C1319.53 133.408 1319.78 133.244 1320 133.03C1320.22 132.819 1320.38 132.576 1320.5 132.303C1320.61 132.034 1320.67 131.744 1320.67 131.439ZM1321.47 133.575H1322.11V130.593C1322.17 130.68 1322.24 130.765 1322.31 130.844C1322.38 130.927 1322.45 131.003 1322.53 131.073L1325.31 133.742V129.286H1324.66V132.26C1324.58 132.154 1324.5 132.06 1324.42 131.975C1324.35 131.893 1324.27 131.814 1324.2 131.738L1321.47 129.116V133.575Z" fill="#D0C3B4"/>
<path d="M1132.67 945.789H1311.61" stroke="#D0C3B4"/>
<path d="M1132.67 914.734H1311.61" stroke="#D0C3B4"/>
<path d="M1132.67 883.68H1311.61" stroke="#D0C3B4"/>
<path d="M1311.61 768V979.173" stroke="#D0C3B4"/>
<path d="M1310.95 931.038H1748" stroke="#D0C3B4"/>
<path d="M1310.95 899.983H1748" stroke="#D0C3B4"/>
<path d="M1508.52 834.519L1748 835.295" stroke="#D0C3B4"/>
<path d="M1508.52 947.342L1748 948.118" stroke="#D0C3B4"/>
<path d="M1507.19 768V979.95" stroke="#D0C3B4"/>
<path d="M1687.46 899.207V931.038" stroke="#D0C3B4"/>
<path d="M1632.92 931.038V979.173" stroke="#D0C3B4"/>
<path d="M1311.61 865.046H1508.52" stroke="#D0C3B4"/>
<path d="M1310.28 833.992H1507.19" stroke="#D0C3B4"/>
<path d="M1133.33 802.937L1505.86 802.937" stroke="#D0C3B4"/>
<path d="M1193.92 782.615H1195.81V781.628H1190.86V782.615H1192.76V788.777H1193.92V782.615ZM1202.82 785.217C1202.82 785.578 1202.75 785.92 1202.62 786.242C1202.48 786.565 1202.29 786.853 1202.05 787.107C1201.8 787.361 1201.51 787.556 1201.2 787.688C1200.89 787.824 1200.56 787.888 1200.21 787.888C1199.85 787.888 1199.52 787.824 1199.2 787.688C1198.89 787.556 1198.6 787.361 1198.36 787.107C1198.11 786.853 1197.92 786.565 1197.79 786.242C1197.66 785.92 1197.6 785.578 1197.6 785.217C1197.6 784.856 1197.66 784.509 1197.79 784.182C1197.92 783.86 1198.11 783.572 1198.36 783.318C1198.6 783.064 1198.89 782.873 1199.2 782.737C1199.52 782.605 1199.86 782.536 1200.21 782.536C1200.56 782.536 1200.89 782.605 1201.21 782.741C1201.53 782.878 1201.81 783.069 1202.05 783.318C1202.29 783.572 1202.48 783.865 1202.62 784.187C1202.75 784.514 1202.82 784.856 1202.82 785.217ZM1204.03 785.217C1204.03 784.714 1203.93 784.236 1203.74 783.781C1203.55 783.327 1203.27 782.917 1202.91 782.556C1202.54 782.204 1202.13 781.931 1201.67 781.745C1201.21 781.56 1200.72 781.467 1200.21 781.467C1199.69 781.467 1199.2 781.56 1198.74 781.745C1198.28 781.931 1197.86 782.204 1197.5 782.556C1197.13 782.917 1196.85 783.323 1196.67 783.772C1196.48 784.226 1196.39 784.709 1196.39 785.217C1196.39 785.735 1196.48 786.213 1196.67 786.662C1196.85 787.112 1197.13 787.517 1197.5 787.868C1197.86 788.22 1198.27 788.493 1198.73 788.684C1199.2 788.874 1199.69 788.967 1200.21 788.967C1200.72 788.967 1201.2 788.874 1201.66 788.684C1202.12 788.498 1202.54 788.225 1202.91 787.868C1203.27 787.517 1203.55 787.112 1203.74 786.657C1203.93 786.208 1204.03 785.725 1204.03 785.217ZM1205.36 788.777H1209.12V787.737H1206.52V781.628H1205.36V788.777ZM1210.07 788.777H1214.06V787.737H1211.23V785.427H1214.06V784.406H1211.23V782.615H1214.06V781.628H1210.07V788.777ZM1216.55 784.675V782.624H1216.76C1217.35 782.624 1217.75 782.707 1217.96 782.868C1218.18 783.03 1218.29 783.308 1218.29 783.698C1218.29 784.065 1218.19 784.319 1217.99 784.46C1217.78 784.607 1217.38 784.675 1216.76 784.675H1216.55ZM1216.48 785.578H1216.61L1218.99 788.777H1220.3L1217.84 785.525C1218.38 785.461 1218.79 785.266 1219.07 784.944C1219.34 784.621 1219.48 784.172 1219.48 783.596C1219.48 783.274 1219.42 782.971 1219.3 782.698C1219.18 782.424 1219.01 782.204 1218.79 782.029C1218.6 781.887 1218.38 781.784 1218.11 781.721C1217.85 781.662 1217.48 781.628 1217.01 781.628H1215.39V788.777H1216.48V785.578ZM1222.5 785.969L1223.24 784.338C1223.28 784.226 1223.32 784.104 1223.37 783.967C1223.41 783.83 1223.46 783.684 1223.5 783.528C1223.54 783.694 1223.58 783.845 1223.63 783.982C1223.68 784.118 1223.72 784.236 1223.76 784.338L1224.5 785.969H1222.5ZM1225.72 788.777H1226.94L1223.49 781.345L1220.02 788.777H1221.24L1222.07 786.936H1224.91L1225.72 788.777ZM1227.62 788.777H1228.69V783.806C1228.79 783.952 1228.9 784.094 1229.01 784.226C1229.13 784.363 1229.25 784.49 1229.37 784.607L1234.01 789.055V781.628H1232.93V786.584C1232.79 786.408 1232.66 786.252 1232.53 786.111C1232.41 785.974 1232.28 785.842 1232.16 785.715L1227.62 781.345V788.777ZM1241.39 783.366L1241.45 782.195C1241.09 781.95 1240.73 781.765 1240.35 781.643C1239.96 781.521 1239.56 781.457 1239.14 781.457C1238.61 781.457 1238.11 781.55 1237.66 781.731C1237.2 781.911 1236.79 782.175 1236.43 782.527C1236.08 782.878 1235.8 783.283 1235.62 783.742C1235.43 784.201 1235.34 784.695 1235.34 785.217C1235.34 785.744 1235.43 786.238 1235.62 786.701C1235.8 787.165 1236.07 787.566 1236.42 787.907C1236.78 788.259 1237.18 788.523 1237.65 788.698C1238.11 788.879 1238.62 788.967 1239.16 788.967C1239.59 788.967 1239.99 788.913 1240.36 788.801C1240.73 788.694 1241.07 788.523 1241.38 788.298V786.985C1241.03 787.287 1240.66 787.517 1240.28 787.663C1239.9 787.815 1239.49 787.888 1239.07 787.888C1238.34 787.888 1237.74 787.639 1237.26 787.136C1236.79 786.638 1236.55 785.998 1236.55 785.227C1236.55 784.431 1236.8 783.781 1237.28 783.279C1237.77 782.781 1238.41 782.527 1239.19 782.527C1239.59 782.527 1239.98 782.6 1240.35 782.737C1240.71 782.878 1241.06 783.088 1241.39 783.366ZM1242.83 788.777H1246.82V787.737H1243.99V785.427H1246.82V784.406H1243.99V782.615H1246.82V781.628H1242.83V788.777ZM1247.74 787.346C1247.86 787.868 1248.11 788.269 1248.5 788.547C1248.9 788.83 1249.39 788.967 1250 788.967C1250.73 788.967 1251.3 788.772 1251.73 788.371C1252.16 787.971 1252.37 787.434 1252.37 786.755C1252.37 786.291 1252.24 785.906 1251.98 785.593C1251.71 785.281 1251.22 784.963 1250.52 784.636C1250.48 784.621 1250.43 784.597 1250.37 784.568C1249.56 784.197 1249.16 783.796 1249.16 783.366C1249.16 783.093 1249.25 782.878 1249.44 782.712C1249.62 782.551 1249.87 782.468 1250.18 782.468C1250.4 782.468 1250.6 782.522 1250.77 782.624C1250.94 782.732 1251.1 782.893 1251.24 783.117L1252.15 782.649C1252.02 782.268 1251.77 781.98 1251.41 781.775C1251.06 781.57 1250.62 781.467 1250.09 781.467C1249.45 781.467 1248.93 781.648 1248.53 782.009C1248.14 782.37 1247.94 782.844 1247.94 783.425C1247.94 783.874 1248.07 784.255 1248.33 784.568C1248.6 784.88 1249.12 785.227 1249.91 785.608C1249.96 785.632 1250.04 785.666 1250.14 785.715C1250.83 786.047 1251.18 786.418 1251.18 786.838C1251.18 787.16 1251.08 787.419 1250.87 787.61C1250.67 787.805 1250.39 787.898 1250.05 787.898C1249.69 787.898 1249.39 787.815 1249.15 787.649C1248.92 787.483 1248.76 787.239 1248.67 786.916L1247.74 787.346Z" fill="#D0C3B4"/>
<path d="M1336.35 788.777H1337.42V783.806C1337.52 783.952 1337.63 784.094 1337.75 784.226C1337.87 784.363 1337.98 784.49 1338.11 784.607L1342.74 789.055V781.628H1341.67V786.584C1341.53 786.408 1341.4 786.252 1341.27 786.111C1341.14 785.974 1341.02 785.842 1340.89 785.715L1336.35 781.345V788.777ZM1350.51 785.217C1350.51 785.578 1350.44 785.92 1350.31 786.242C1350.18 786.565 1349.99 786.853 1349.74 787.107C1349.49 787.361 1349.2 787.556 1348.89 787.688C1348.58 787.824 1348.25 787.888 1347.9 787.888C1347.54 787.888 1347.21 787.824 1346.89 787.688C1346.58 787.556 1346.29 787.361 1346.05 787.107C1345.8 786.853 1345.61 786.565 1345.48 786.242C1345.35 785.92 1345.29 785.578 1345.29 785.217C1345.29 784.856 1345.35 784.509 1345.48 784.182C1345.61 783.86 1345.8 783.572 1346.05 783.318C1346.29 783.064 1346.58 782.873 1346.89 782.737C1347.21 782.605 1347.55 782.536 1347.9 782.536C1348.25 782.536 1348.58 782.605 1348.9 782.741C1349.22 782.878 1349.5 783.069 1349.74 783.318C1349.99 783.572 1350.18 783.865 1350.31 784.187C1350.44 784.514 1350.51 784.856 1350.51 785.217ZM1351.72 785.217C1351.72 784.714 1351.62 784.236 1351.43 783.781C1351.24 783.327 1350.96 782.917 1350.6 782.556C1350.23 782.204 1349.82 781.931 1349.36 781.745C1348.9 781.56 1348.41 781.467 1347.9 781.467C1347.38 781.467 1346.89 781.56 1346.43 781.745C1345.97 781.931 1345.55 782.204 1345.19 782.556C1344.82 782.917 1344.55 783.323 1344.36 783.772C1344.17 784.226 1344.08 784.709 1344.08 785.217C1344.08 785.735 1344.17 786.213 1344.36 786.662C1344.55 787.112 1344.82 787.517 1345.19 787.868C1345.55 788.22 1345.96 788.493 1346.43 788.684C1346.89 788.874 1347.38 788.967 1347.9 788.967C1348.41 788.967 1348.89 788.874 1349.36 788.684C1349.81 788.498 1350.23 788.225 1350.6 787.868C1350.96 787.517 1351.24 787.112 1351.43 786.657C1351.62 786.208 1351.72 785.725 1351.72 785.217ZM1358.88 785.246L1359.67 788.777H1360.75L1359.02 781.325L1356.96 785.832C1356.94 785.881 1356.91 785.945 1356.88 786.028C1356.73 786.345 1356.62 786.604 1356.55 786.809C1356.46 786.565 1356.38 786.36 1356.31 786.194C1356.24 786.028 1356.19 785.91 1356.16 785.837L1354.05 781.325L1352.36 788.777H1353.43L1354.2 785.256C1354.24 785.08 1354.27 784.909 1354.29 784.743C1354.31 784.577 1354.33 784.421 1354.33 784.27C1354.37 784.416 1354.42 784.568 1354.48 784.714C1354.54 784.865 1354.6 785.022 1354.68 785.178L1356.55 789.065L1358.42 785.256C1358.5 785.09 1358.57 784.924 1358.62 784.758C1358.68 784.597 1358.72 784.436 1358.75 784.27C1358.77 784.406 1358.79 784.582 1358.82 784.787C1358.85 785.041 1358.87 785.193 1358.88 785.246Z" fill="#D0C3B4"/>
<path d="M1419.15 787.346C1419.27 787.868 1419.52 788.269 1419.91 788.547C1420.3 788.83 1420.8 788.967 1421.41 788.967C1422.13 788.967 1422.71 788.772 1423.14 788.371C1423.57 787.971 1423.78 787.434 1423.78 786.755C1423.78 786.291 1423.65 785.906 1423.38 785.593C1423.12 785.281 1422.63 784.963 1421.93 784.636C1421.89 784.621 1421.84 784.597 1421.78 784.568C1420.97 784.197 1420.57 783.796 1420.57 783.366C1420.57 783.093 1420.66 782.878 1420.85 782.712C1421.03 782.551 1421.28 782.468 1421.59 782.468C1421.81 782.468 1422.01 782.522 1422.18 782.624C1422.35 782.732 1422.51 782.893 1422.65 783.117L1423.56 782.649C1423.42 782.268 1423.17 781.98 1422.82 781.775C1422.47 781.57 1422.03 781.467 1421.5 781.467C1420.86 781.467 1420.34 781.648 1419.94 782.009C1419.55 782.37 1419.35 782.844 1419.35 783.425C1419.35 783.874 1419.48 784.255 1419.74 784.568C1420.01 784.88 1420.53 785.227 1421.32 785.608C1421.37 785.632 1421.45 785.666 1421.54 785.715C1422.24 786.047 1422.59 786.418 1422.59 786.838C1422.59 787.16 1422.49 787.419 1422.28 787.61C1422.08 787.805 1421.8 787.898 1421.46 787.898C1421.09 787.898 1420.8 787.815 1420.56 787.649C1420.33 787.483 1420.17 787.239 1420.08 786.916L1419.15 787.346ZM1425.07 788.777H1426.23V781.628H1425.07V788.777ZM1431.86 785.115V786.096H1433.58V786.198C1433.58 786.736 1433.39 787.156 1433.01 787.463C1432.63 787.776 1432.11 787.927 1431.44 787.927C1430.66 787.927 1430.02 787.678 1429.53 787.175C1429.04 786.672 1428.8 786.018 1428.8 785.207C1428.8 784.416 1429.04 783.772 1429.53 783.274C1430.02 782.776 1430.66 782.527 1431.43 782.527C1431.8 782.527 1432.14 782.595 1432.45 782.732C1432.75 782.868 1433.02 783.078 1433.26 783.357L1434.11 782.717C1433.76 782.297 1433.37 781.98 1432.92 781.775C1432.48 781.57 1431.97 781.467 1431.41 781.467C1430.87 781.467 1430.38 781.56 1429.91 781.736C1429.44 781.916 1429.03 782.175 1428.68 782.517C1428.32 782.868 1428.05 783.269 1427.86 783.723C1427.68 784.182 1427.59 784.68 1427.59 785.217C1427.59 785.749 1427.68 786.247 1427.86 786.711C1428.04 787.18 1428.3 787.585 1428.64 787.927C1428.98 788.279 1429.39 788.537 1429.84 788.708C1430.3 788.884 1430.83 788.967 1431.41 788.967C1432.46 788.967 1433.27 788.689 1433.85 788.132C1434.42 787.575 1434.71 786.794 1434.71 785.788C1434.71 785.71 1434.71 785.554 1434.7 785.32C1434.69 785.232 1434.69 785.163 1434.69 785.115H1431.86ZM1435.94 788.777H1437.01V783.806C1437.11 783.952 1437.22 784.094 1437.33 784.226C1437.45 784.363 1437.57 784.49 1437.7 784.607L1442.33 789.055V781.628H1441.26V786.584C1441.11 786.408 1440.98 786.252 1440.86 786.111C1440.73 785.974 1440.6 785.842 1440.48 785.715L1435.94 781.345V788.777ZM1445.48 785.969L1446.22 784.338C1446.26 784.226 1446.3 784.104 1446.35 783.967C1446.39 783.83 1446.44 783.684 1446.48 783.528C1446.52 783.694 1446.56 783.845 1446.61 783.982C1446.66 784.118 1446.7 784.236 1446.74 784.338L1447.48 785.969H1445.48ZM1448.7 788.777H1449.92L1446.47 781.345L1443 788.777H1444.22L1445.05 786.936H1447.89L1448.7 788.777ZM1452.91 782.615H1454.8V781.628H1449.84V782.615H1451.74V788.777H1452.91V782.615ZM1455.66 781.628V786.076C1455.66 787.048 1455.89 787.771 1456.38 788.249C1456.87 788.728 1457.6 788.967 1458.58 788.967C1459.57 788.967 1460.3 788.728 1460.79 788.249C1461.28 787.771 1461.52 787.043 1461.52 786.076V781.628H1460.36V785.969C1460.36 786.614 1460.21 787.102 1459.91 787.424C1459.62 787.746 1459.17 787.907 1458.58 787.907C1457.99 787.907 1457.54 787.746 1457.25 787.424C1456.95 787.102 1456.8 786.614 1456.8 785.969V781.628H1455.66ZM1464.29 784.675V782.624H1464.5C1465.08 782.624 1465.48 782.707 1465.7 782.868C1465.91 783.03 1466.03 783.308 1466.03 783.698C1466.03 784.065 1465.92 784.319 1465.72 784.46C1465.52 784.607 1465.11 784.675 1464.5 784.675H1464.29ZM1464.21 785.578H1464.35L1466.72 788.777H1468.04L1465.58 785.525C1466.11 785.461 1466.52 785.266 1466.8 784.944C1467.08 784.621 1467.22 784.172 1467.22 783.596C1467.22 783.274 1467.15 782.971 1467.04 782.698C1466.91 782.424 1466.74 782.204 1466.52 782.029C1466.34 781.887 1466.11 781.784 1465.85 781.721C1465.59 781.662 1465.22 781.628 1464.75 781.628H1463.13V788.777H1464.21V785.578ZM1468.73 788.777H1472.72V787.737H1469.89V785.427H1472.72V784.406H1469.89V782.615H1472.72V781.628H1468.73V788.777Z" fill="#D0C3B4"/>
<path d="M1604.97 809.218H1603.56L1604.83 810.595C1604.65 810.693 1604.47 810.761 1604.28 810.805C1604.1 810.849 1603.91 810.868 1603.71 810.868C1602.96 810.868 1602.33 810.615 1601.82 810.102C1601.31 809.589 1601.07 808.959 1601.07 808.207C1601.07 807.846 1601.13 807.499 1601.26 807.177C1601.39 806.855 1601.58 806.572 1601.83 806.318C1602.07 806.064 1602.35 805.868 1602.68 805.732C1602.99 805.595 1603.33 805.527 1603.68 805.527C1604.02 805.527 1604.35 805.595 1604.67 805.732C1604.99 805.868 1605.27 806.064 1605.53 806.318C1605.77 806.572 1605.96 806.855 1606.09 807.177C1606.22 807.499 1606.29 807.846 1606.29 808.207C1606.29 808.539 1606.23 808.852 1606.13 809.135C1606.03 809.418 1605.87 809.692 1605.66 809.955L1604.97 809.218ZM1606.42 810.805C1606.77 810.458 1607.03 810.063 1607.22 809.618C1607.4 809.174 1607.5 808.705 1607.5 808.207C1607.5 807.699 1607.4 807.221 1607.21 806.767C1607.01 806.318 1606.74 805.912 1606.38 805.556C1606.02 805.204 1605.61 804.936 1605.15 804.75C1604.68 804.565 1604.2 804.467 1603.68 804.467C1603.16 804.467 1602.66 804.565 1602.2 804.75C1601.73 804.936 1601.32 805.204 1600.97 805.556C1600.61 805.907 1600.33 806.313 1600.14 806.762C1599.95 807.216 1599.85 807.699 1599.85 808.207C1599.85 808.72 1599.95 809.203 1600.14 809.653C1600.33 810.107 1600.61 810.507 1600.97 810.859C1601.31 811.2 1601.72 811.469 1602.19 811.659C1602.65 811.855 1603.13 811.948 1603.61 811.948C1603.97 811.948 1604.31 811.908 1604.64 811.821C1604.97 811.738 1605.29 811.611 1605.62 811.435L1606.55 812.446H1607.94L1606.42 810.805ZM1608.8 804.628V809.076C1608.8 810.048 1609.04 810.771 1609.53 811.249C1610.01 811.728 1610.74 811.967 1611.73 811.967C1612.71 811.967 1613.45 811.728 1613.94 811.249C1614.42 810.771 1614.67 810.043 1614.67 809.076V804.628H1613.51V808.969C1613.51 809.614 1613.36 810.102 1613.06 810.424C1612.76 810.746 1612.32 810.907 1611.73 810.907C1611.13 810.907 1610.69 810.746 1610.39 810.424C1610.09 810.102 1609.95 809.614 1609.95 808.969V804.628H1608.8ZM1617.78 808.969L1618.51 807.338C1618.56 807.226 1618.6 807.104 1618.64 806.967C1618.69 806.83 1618.73 806.684 1618.77 806.528C1618.81 806.694 1618.86 806.845 1618.91 806.982C1618.95 807.118 1619 807.236 1619.04 807.338L1619.77 808.969H1617.78ZM1620.99 811.777H1622.22L1618.76 804.345L1615.3 811.777H1616.52L1617.35 809.936H1620.18L1620.99 811.777ZM1624.05 810.727V805.668H1624.47H1624.89C1625.49 805.668 1625.93 805.707 1626.21 805.776C1626.5 805.849 1626.73 805.971 1626.94 806.137C1627.21 806.371 1627.41 806.659 1627.54 807.001C1627.68 807.343 1627.75 807.743 1627.75 808.198C1627.75 808.656 1627.68 809.057 1627.54 809.399C1627.41 809.74 1627.21 810.029 1626.94 810.258C1626.74 810.429 1626.5 810.551 1626.24 810.619C1625.97 810.693 1625.57 810.727 1625.03 810.727H1624.05ZM1622.89 811.777H1624.46H1624.77C1625.61 811.777 1626.23 811.728 1626.63 811.625C1627.03 811.523 1627.39 811.352 1627.7 811.108C1628.11 810.79 1628.42 810.385 1628.64 809.897C1628.85 809.408 1628.96 808.842 1628.96 808.207C1628.96 807.573 1628.85 807.011 1628.64 806.513C1628.42 806.02 1628.11 805.615 1627.7 805.297C1627.39 805.058 1627.02 804.887 1626.61 804.784C1626.19 804.682 1625.47 804.628 1624.46 804.628H1622.89V811.777ZM1631.46 807.675V805.624H1631.67C1632.25 805.624 1632.65 805.707 1632.87 805.868C1633.08 806.03 1633.19 806.308 1633.19 806.698C1633.19 807.065 1633.09 807.319 1632.89 807.46C1632.69 807.607 1632.28 807.675 1631.67 807.675H1631.46ZM1631.38 808.578H1631.51L1633.89 811.777H1635.21L1632.75 808.525C1633.28 808.461 1633.69 808.266 1633.97 807.944C1634.24 807.621 1634.39 807.172 1634.39 806.596C1634.39 806.274 1634.32 805.971 1634.21 805.698C1634.08 805.424 1633.91 805.204 1633.69 805.029C1633.51 804.887 1633.28 804.784 1633.02 804.721C1632.75 804.662 1632.39 804.628 1631.92 804.628H1630.29V811.777H1631.38V808.578ZM1637.41 808.969L1638.14 807.338C1638.18 807.226 1638.23 807.104 1638.27 806.967C1638.32 806.83 1638.36 806.684 1638.4 806.528C1638.44 806.694 1638.49 806.845 1638.54 806.982C1638.58 807.118 1638.62 807.236 1638.67 807.338L1639.4 808.969H1637.41ZM1640.62 811.777H1641.85L1638.39 804.345L1634.93 811.777H1636.15L1636.98 809.936H1639.81L1640.62 811.777ZM1644.83 805.615H1646.72V804.628H1641.77V805.615H1643.67V811.777H1644.83V805.615ZM1647.63 811.777H1648.79V804.628H1647.63V811.777ZM1650.46 811.777H1651.62V808.124L1654.45 811.777H1655.95L1652.78 807.807L1655.61 804.628H1654.19L1651.62 807.587V804.628H1650.46V811.777Z" fill="white"/>
<path d="M1600.02 864.75C1600.2 865.666 1600.29 866.541 1600.29 867.375C1600.29 868.208 1600.13 869.016 1599.82 869.8C1599.48 870.633 1599.03 871.35 1598.47 871.95C1597.9 872.533 1597.23 873.016 1596.44 873.4C1595.99 873.616 1595.51 873.783 1594.99 873.9C1594.48 874.016 1593.96 874.058 1593.44 874.025C1592.93 874.008 1592.42 873.9 1591.92 873.7C1591.42 873.5 1590.94 873.2 1590.49 872.8C1590.16 872.483 1589.88 872.108 1589.67 871.675C1589.47 871.241 1589.3 870.775 1589.17 870.275C1589.05 869.758 1588.97 869.225 1588.92 868.675C1588.87 868.125 1588.83 867.566 1588.82 867C1588.58 867.483 1588.33 868 1588.07 868.55C1587.8 869.1 1587.52 869.658 1587.22 870.225C1586.93 870.775 1586.64 871.325 1586.34 871.875C1586.06 872.408 1585.78 872.908 1585.49 873.375C1585.11 874.025 1584.7 874.491 1584.27 874.775C1583.85 875.058 1583.45 875.158 1583.07 875.075C1582.68 875.025 1582.35 874.783 1582.07 874.35C1581.78 873.933 1581.59 873.333 1581.49 872.55C1581.41 871.833 1581.31 871.025 1581.19 870.125C1581.09 869.225 1581 868.283 1580.92 867.3C1580.83 866.316 1580.76 865.325 1580.69 864.325C1580.64 863.308 1580.62 862.325 1580.62 861.375C1580.62 861.041 1580.71 860.8 1580.89 860.65C1581.09 860.483 1581.31 860.4 1581.54 860.4C1581.78 860.4 1581.98 860.483 1582.17 860.65C1582.37 860.8 1582.47 861.016 1582.47 861.3C1582.48 862.066 1582.52 862.883 1582.57 863.75C1582.62 864.616 1582.68 865.5 1582.74 866.4C1582.83 867.3 1582.91 868.191 1582.99 869.075C1583.09 869.958 1583.2 870.8 1583.32 871.6C1583.35 871.85 1583.4 872.05 1583.47 872.2C1583.53 872.35 1583.62 872.425 1583.72 872.425C1583.88 872.425 1584.11 872.208 1584.39 871.775C1584.61 871.408 1584.85 870.975 1585.12 870.475C1585.38 869.958 1585.66 869.416 1585.94 868.85C1586.23 868.283 1586.5 867.708 1586.77 867.125C1587.05 866.525 1587.32 865.966 1587.57 865.45C1587.82 864.916 1588.04 864.441 1588.24 864.025C1588.44 863.608 1588.61 863.275 1588.74 863.025C1588.84 862.791 1589 862.641 1589.22 862.575C1589.43 862.491 1589.65 862.483 1589.87 862.55C1590.05 862.583 1590.21 862.683 1590.34 862.85C1590.48 863 1590.53 863.208 1590.49 863.475C1590.46 864.108 1590.44 864.816 1590.44 865.6C1590.46 866.366 1590.51 867.125 1590.59 867.875C1590.68 868.608 1590.81 869.3 1590.99 869.95C1591.19 870.583 1591.48 871.075 1591.84 871.425C1592.33 871.908 1592.9 872.166 1593.57 872.2C1594.23 872.233 1594.87 872.108 1595.47 871.825C1596.05 871.525 1596.57 871.15 1597.02 870.7C1597.48 870.25 1597.83 869.725 1598.07 869.125C1598.27 868.641 1598.37 868.058 1598.37 867.375C1598.37 866.691 1598.31 865.966 1598.19 865.2C1598.06 864.433 1597.88 863.7 1597.67 863C1597.45 862.3 1597.23 861.675 1596.99 861.125C1596.78 860.575 1596.57 860.125 1596.37 859.775C1596.17 859.425 1596.03 859.208 1595.94 859.125C1595.69 858.891 1595.58 858.65 1595.59 858.4C1595.61 858.133 1595.71 857.916 1595.89 857.75C1596.06 857.583 1596.27 857.483 1596.52 857.45C1596.77 857.416 1597.01 857.516 1597.24 857.75C1597.46 857.966 1597.7 858.3 1597.97 858.75C1598.23 859.2 1598.49 859.733 1598.74 860.35C1599.01 860.966 1599.25 861.65 1599.47 862.4C1599.68 863.15 1599.87 863.933 1600.02 864.75ZM1609.62 870.7C1609.94 870.316 1610.03 869.916 1609.9 869.5C1609.78 869.083 1609.53 868.741 1609.15 868.475C1608.9 868.475 1608.6 868.483 1608.25 868.5C1607.92 868.5 1607.6 868.491 1607.3 868.475C1606.83 868.475 1606.46 868.4 1606.17 868.25C1605.91 868.083 1605.82 867.875 1605.9 867.625C1605.82 867.575 1605.72 867.566 1605.62 867.6C1605.54 867.633 1605.43 867.675 1605.3 867.725C1604.95 867.958 1604.58 868.333 1604.2 868.85C1603.82 869.366 1603.57 869.95 1603.47 870.6C1603.32 871.4 1603.37 871.983 1603.62 872.35C1603.89 872.75 1604.33 872.95 1604.95 872.95C1605.43 872.966 1605.87 872.941 1606.25 872.875C1606.65 872.791 1607 872.683 1607.3 872.55C1607.73 872.366 1608.15 872.108 1608.55 871.775C1608.95 871.441 1609.31 871.083 1609.62 870.7ZM1612.95 867.65C1612.95 867.783 1612.92 867.916 1612.85 868.05C1612.78 868.183 1612.68 868.283 1612.55 868.35C1612.27 868.433 1611.89 868.475 1611.42 868.475C1611.52 868.608 1611.62 868.791 1611.7 869.025C1611.8 869.258 1611.85 869.525 1611.85 869.825C1611.87 870.125 1611.82 870.45 1611.7 870.8C1611.6 871.15 1611.4 871.5 1611.1 871.85C1610.18 872.933 1609.18 873.716 1608.1 874.2C1607.63 874.416 1607.14 874.566 1606.62 874.65C1606.11 874.733 1605.56 874.783 1604.97 874.8C1603.46 874.833 1602.42 874.366 1601.85 873.4C1601.4 872.616 1601.32 871.558 1601.6 870.225C1601.7 869.725 1601.85 869.25 1602.05 868.8C1602.27 868.333 1602.52 867.908 1602.82 867.525C1603.12 867.141 1603.46 866.8 1603.82 866.5C1604.19 866.2 1604.57 865.95 1604.97 865.75C1605.34 865.566 1605.72 865.483 1606.12 865.5C1606.52 865.5 1606.89 865.658 1607.22 865.975C1607.37 865.925 1607.54 865.9 1607.72 865.9C1607.91 865.883 1608.07 865.891 1608.2 865.925C1608.48 865.958 1608.78 866.05 1609.1 866.2C1609.42 866.333 1609.67 866.491 1609.87 866.675H1611.95C1612.25 866.675 1612.49 866.775 1612.67 866.975C1612.87 867.175 1612.97 867.4 1612.95 867.65ZM1621.05 870.7C1621.37 870.316 1621.46 869.916 1621.32 869.5C1621.21 869.083 1620.96 868.741 1620.57 868.475C1620.32 868.475 1620.02 868.483 1619.67 868.5C1619.34 868.5 1619.02 868.491 1618.72 868.475C1618.26 868.475 1617.88 868.4 1617.6 868.25C1617.33 868.083 1617.24 867.875 1617.32 867.625C1617.24 867.575 1617.15 867.566 1617.05 867.6C1616.97 867.633 1616.86 867.675 1616.72 867.725C1616.37 867.958 1616.01 868.333 1615.62 868.85C1615.24 869.366 1615 869.95 1614.9 870.6C1614.75 871.4 1614.8 871.983 1615.05 872.35C1615.32 872.75 1615.76 872.95 1616.37 872.95C1616.86 872.966 1617.29 872.941 1617.67 872.875C1618.07 872.791 1618.42 872.683 1618.72 872.55C1619.16 872.366 1619.57 872.108 1619.97 871.775C1620.37 871.441 1620.73 871.083 1621.05 870.7ZM1624.37 867.65C1624.37 867.783 1624.34 867.916 1624.27 868.05C1624.21 868.183 1624.11 868.283 1623.97 868.35C1623.69 868.433 1623.32 868.475 1622.85 868.475C1622.95 868.608 1623.04 868.791 1623.12 869.025C1623.22 869.258 1623.27 869.525 1623.27 869.825C1623.29 870.125 1623.24 870.45 1623.12 870.8C1623.02 871.15 1622.82 871.5 1622.52 871.85C1621.61 872.933 1620.61 873.716 1619.52 874.2C1619.06 874.416 1618.57 874.566 1618.05 874.65C1617.53 874.733 1616.98 874.783 1616.4 874.8C1614.88 874.833 1613.84 874.366 1613.27 873.4C1612.82 872.616 1612.74 871.558 1613.02 870.225C1613.12 869.725 1613.27 869.25 1613.47 868.8C1613.69 868.333 1613.95 867.908 1614.25 867.525C1614.55 867.141 1614.88 866.8 1615.25 866.5C1615.62 866.2 1616 865.95 1616.4 865.75C1616.77 865.566 1617.15 865.483 1617.55 865.5C1617.95 865.5 1618.32 865.658 1618.65 865.975C1618.8 865.925 1618.97 865.9 1619.15 865.9C1619.33 865.883 1619.49 865.891 1619.62 865.925C1619.91 865.958 1620.21 866.05 1620.52 866.2C1620.84 866.333 1621.1 866.491 1621.3 866.675H1623.37C1623.67 866.675 1623.92 866.775 1624.1 866.975C1624.3 867.175 1624.39 867.4 1624.37 867.65ZM1637.08 869.225C1637.11 869.691 1637.01 870.05 1636.78 870.3C1636.56 870.533 1636.31 870.65 1636.03 870.65C1635.83 870.65 1635.63 870.6 1635.43 870.5C1635.25 870.4 1635.1 870.233 1634.98 870C1634.8 869.716 1634.58 869.425 1634.33 869.125C1634.1 868.808 1633.83 868.525 1633.53 868.275C1633.25 868.025 1632.94 867.825 1632.6 867.675C1632.27 867.525 1631.94 867.45 1631.6 867.45C1631.3 867.45 1630.97 867.516 1630.6 867.65C1630.24 867.766 1629.87 867.925 1629.5 868.125C1629.14 868.325 1628.78 868.558 1628.43 868.825C1628.08 869.091 1627.77 869.358 1627.5 869.625C1627.32 869.808 1627.19 870 1627.1 870.2C1627.02 870.4 1626.98 870.575 1626.98 870.725C1627 870.991 1627.13 871.233 1627.38 871.45C1627.63 871.666 1628 871.841 1628.48 871.975C1628.75 872.058 1629.1 872.133 1629.53 872.2C1629.96 872.25 1630.45 872.275 1630.98 872.275C1631.51 872.258 1632.07 872.216 1632.65 872.15C1633.24 872.066 1633.82 871.925 1634.4 871.725C1634.67 871.641 1634.9 871.658 1635.1 871.775C1635.32 871.891 1635.48 872.058 1635.58 872.275C1635.66 872.508 1635.66 872.741 1635.58 872.975C1635.5 873.208 1635.26 873.391 1634.88 873.525C1634.2 873.758 1633.52 873.916 1632.85 874C1632.19 874.083 1631.55 874.125 1630.93 874.125C1630.33 874.125 1629.78 874.091 1629.28 874.025C1628.78 873.975 1628.35 873.908 1628 873.825C1626.99 873.575 1626.21 873.183 1625.68 872.65C1625.16 872.116 1624.9 871.508 1624.88 870.825C1624.85 870.091 1625.19 869.341 1625.9 868.575C1626.22 868.225 1626.6 867.875 1627.05 867.525C1627.52 867.175 1628.01 866.858 1628.53 866.575C1629.05 866.275 1629.57 866.033 1630.1 865.85C1630.65 865.65 1631.17 865.55 1631.65 865.55C1632.05 865.55 1632.41 865.6 1632.73 865.7C1633.05 865.783 1633.34 865.9 1633.6 866.05C1633.89 866.2 1634.14 866.366 1634.35 866.55C1634.59 866.733 1634.8 866.908 1635 867.075C1634.94 866.225 1634.86 865.341 1634.78 864.425C1634.7 863.491 1634.6 862.575 1634.5 861.675C1634.42 860.775 1634.33 859.916 1634.23 859.1C1634.13 858.266 1634.03 857.525 1633.93 856.875C1633.86 856.541 1633.91 856.275 1634.08 856.075C1634.26 855.858 1634.47 855.733 1634.7 855.7C1634.94 855.65 1635.16 855.7 1635.38 855.85C1635.61 855.983 1635.75 856.233 1635.8 856.6C1635.9 857.333 1636.02 858.233 1636.15 859.3C1636.29 860.366 1636.41 861.483 1636.53 862.65C1636.66 863.816 1636.77 864.983 1636.85 866.15C1636.95 867.3 1637.03 868.325 1637.08 869.225ZM1648 871.35C1648.01 871.55 1647.95 871.75 1647.8 871.95C1647.66 872.15 1647.43 872.266 1647.1 872.3C1646.86 872.333 1646.54 872.416 1646.12 872.55C1645.72 872.666 1645.29 872.808 1644.82 872.975C1644.37 873.141 1643.91 873.3 1643.42 873.45C1642.96 873.616 1642.55 873.741 1642.2 873.825C1641.15 874.075 1640.32 874.066 1639.72 873.8C1639.14 873.55 1638.71 872.941 1638.45 871.975C1638.36 871.658 1638.31 871.291 1638.3 870.875C1638.3 870.441 1638.31 870.066 1638.35 869.75C1638.38 869.316 1638.44 868.891 1638.52 868.475C1638.62 868.058 1638.73 867.683 1638.85 867.35C1638.75 867.316 1638.7 867.25 1638.7 867.15C1638.7 867.05 1638.71 866.95 1638.75 866.85C1638.81 866.7 1638.91 866.516 1639.05 866.3C1639.18 866.066 1639.31 865.883 1639.45 865.75C1639.61 865.616 1639.8 865.541 1640 865.525C1640.21 865.508 1640.41 865.533 1640.6 865.6C1640.83 865.683 1641.01 865.816 1641.12 866C1641.26 866.166 1641.26 866.358 1641.15 866.575C1640.96 866.941 1640.77 867.425 1640.57 868.025C1640.39 868.625 1640.28 869.2 1640.25 869.75C1640.23 870.083 1640.23 870.383 1640.25 870.65C1640.26 870.916 1640.3 871.141 1640.35 871.325C1640.43 871.658 1640.57 871.883 1640.77 872C1640.99 872.1 1641.32 872.108 1641.77 872.025C1642.06 871.975 1642.42 871.866 1642.87 871.7C1643.32 871.533 1643.79 871.358 1644.27 871.175C1644.77 870.975 1645.26 870.8 1645.72 870.65C1646.21 870.5 1646.61 870.425 1646.95 870.425C1647.28 870.408 1647.53 870.5 1647.7 870.7C1647.88 870.9 1647.98 871.116 1648 871.35ZM1643.15 860.15C1643.35 860.283 1643.5 860.458 1643.6 860.675C1643.7 860.875 1643.75 861.091 1643.75 861.325C1643.75 861.541 1643.7 861.766 1643.6 862C1643.5 862.216 1643.34 862.4 1643.12 862.55C1642.84 862.75 1642.51 862.841 1642.15 862.825C1641.78 862.808 1641.45 862.658 1641.15 862.375C1640.86 862.075 1640.72 861.708 1640.72 861.275C1640.74 860.825 1640.96 860.45 1641.37 860.15C1641.62 859.966 1641.91 859.875 1642.25 859.875C1642.58 859.875 1642.88 859.966 1643.15 860.15ZM1657.88 873.875C1657.79 874.075 1657.65 874.241 1657.45 874.375C1657.27 874.525 1657.06 874.575 1656.83 874.525C1656.08 874.358 1655.28 874.083 1654.43 873.7C1653.58 873.316 1652.75 872.9 1651.95 872.45C1651.15 871.983 1650.42 871.508 1649.75 871.025C1649.08 870.541 1648.58 870.116 1648.23 869.75C1648.21 869.95 1648.19 870.183 1648.18 870.45C1648.18 870.7 1648.17 870.958 1648.15 871.225C1648.15 871.475 1648.14 871.716 1648.13 871.95C1648.13 872.183 1648.13 872.375 1648.13 872.525C1648.09 872.825 1647.99 873.05 1647.83 873.2C1647.66 873.35 1647.46 873.425 1647.23 873.425C1647.01 873.425 1646.8 873.35 1646.6 873.2C1646.42 873.05 1646.33 872.825 1646.33 872.525C1646.29 871.791 1646.28 870.95 1646.3 870C1646.32 869.05 1646.4 868.066 1646.55 867.05C1646.67 866.283 1646.81 865.516 1646.98 864.75C1647.16 863.983 1647.38 863.241 1647.65 862.525C1647.92 861.808 1648.22 861.133 1648.55 860.5C1648.9 859.85 1649.3 859.275 1649.75 858.775C1649.93 858.591 1650.15 858.5 1650.4 858.5C1650.65 858.483 1650.87 858.541 1651.05 858.675C1651.22 858.808 1651.33 858.983 1651.38 859.2C1651.44 859.416 1651.39 859.666 1651.23 859.95C1650.56 860.9 1650.03 861.858 1649.63 862.825C1649.23 863.791 1648.92 864.833 1648.7 865.95C1648.92 865.8 1649.24 865.641 1649.68 865.475C1650.13 865.308 1650.62 865.158 1651.15 865.025C1651.7 864.875 1652.27 864.75 1652.85 864.65C1653.45 864.55 1654.02 864.491 1654.55 864.475C1655.13 864.441 1655.65 864.466 1656.1 864.55C1656.42 864.583 1656.63 864.7 1656.75 864.9C1656.88 865.083 1656.94 865.283 1656.93 865.5C1656.91 865.766 1656.8 866 1656.6 866.2C1656.42 866.383 1656.16 866.433 1655.83 866.35C1655.68 866.316 1655.49 866.308 1655.28 866.325C1655.06 866.325 1654.83 866.325 1654.6 866.325C1654.17 866.358 1653.72 866.416 1653.25 866.5C1652.78 866.583 1652.33 866.683 1651.88 866.8C1651.44 866.916 1651.03 867.041 1650.65 867.175C1650.27 867.308 1649.95 867.441 1649.7 867.575C1649.47 867.675 1649.33 867.816 1649.28 868C1649.24 868.166 1649.33 868.35 1649.53 868.55C1649.86 868.833 1650.33 869.183 1650.93 869.6C1651.54 870.016 1652.21 870.433 1652.93 870.85C1653.66 871.266 1654.4 871.65 1655.15 872C1655.9 872.35 1656.59 872.583 1657.23 872.7C1657.56 872.783 1657.77 872.941 1657.85 873.175C1657.95 873.408 1657.96 873.641 1657.88 873.875ZM1678.19 862.15C1678.38 862.533 1678.26 862.975 1677.84 863.475C1677.38 864.041 1676.89 864.683 1676.37 865.4C1675.85 866.116 1675.33 866.875 1674.79 867.675C1674.28 868.475 1673.78 869.291 1673.29 870.125C1672.81 870.958 1672.35 871.783 1671.92 872.6C1671.5 873.416 1671.14 874.2 1670.82 874.95C1670.5 875.7 1670.26 876.383 1670.09 877C1670.18 877.233 1670.21 877.466 1670.19 877.7C1670.19 877.933 1670.14 878.125 1670.04 878.275C1669.89 878.508 1669.69 878.666 1669.44 878.75C1669.19 878.833 1668.95 878.841 1668.72 878.775C1668.45 878.691 1668.24 878.508 1668.07 878.225C1667.92 877.958 1667.91 877.6 1668.04 877.15C1668.36 876 1668.8 874.808 1669.37 873.575C1669.94 872.358 1670.54 871.166 1671.19 870C1671.86 868.816 1672.54 867.7 1673.24 866.65C1673.96 865.583 1674.63 864.641 1675.24 863.825C1675.36 863.658 1675.4 863.525 1675.37 863.425C1675.34 863.308 1675.18 863.25 1674.89 863.25C1674.36 863.233 1673.85 863.225 1673.37 863.225C1672.9 863.208 1672.41 863.2 1671.89 863.2C1671.39 863.2 1670.85 863.216 1670.27 863.25C1669.69 863.266 1669.03 863.3 1668.29 863.35C1668.11 863.483 1667.92 863.575 1667.72 863.625C1667.54 863.675 1667.35 863.691 1667.17 863.675C1666.89 863.691 1666.62 863.616 1666.37 863.45C1666.14 863.266 1665.97 863.058 1665.87 862.825C1665.77 862.575 1665.79 862.325 1665.92 862.075C1666.05 861.825 1666.37 861.658 1666.87 861.575C1667.44 861.508 1668.14 861.458 1668.97 861.425C1669.82 861.375 1670.7 861.35 1671.62 861.35C1672.55 861.35 1673.48 861.358 1674.39 861.375C1675.31 861.391 1676.12 861.425 1676.82 861.475C1677.22 861.491 1677.53 861.566 1677.74 861.7C1677.96 861.816 1678.11 861.966 1678.19 862.15Z" fill="white"/>
<path d="M1574.14 917.832H1571.42L1572.33 916.777C1573.07 915.933 1573.56 915.288 1573.79 914.844C1574.02 914.399 1574.13 913.96 1574.13 913.521C1574.13 912.91 1573.93 912.427 1573.53 912.07C1573.13 911.719 1572.59 911.538 1571.9 911.538C1571.17 911.538 1570.6 911.733 1570.17 912.114C1569.74 912.495 1569.52 913.008 1569.52 913.647H1570.64C1570.67 913.315 1570.78 913.052 1571 912.847C1571.21 912.642 1571.48 912.539 1571.8 912.539C1572.17 912.539 1572.45 912.642 1572.66 912.847C1572.87 913.052 1572.98 913.33 1572.98 913.682C1572.98 913.931 1572.9 914.204 1572.75 914.507C1572.6 914.81 1572.36 915.161 1572.02 915.562L1569.35 918.76H1574.14V917.832ZM1580.19 917.832H1577.47L1578.38 916.777C1579.12 915.933 1579.6 915.288 1579.83 914.844C1580.06 914.399 1580.18 913.96 1580.18 913.521C1580.18 912.91 1579.98 912.427 1579.58 912.07C1579.18 911.719 1578.64 911.538 1577.95 911.538C1577.22 911.538 1576.64 911.733 1576.21 912.114C1575.78 912.495 1575.57 913.008 1575.57 913.647H1576.69C1576.71 913.315 1576.83 913.052 1577.04 912.847C1577.25 912.642 1577.52 912.539 1577.85 912.539C1578.21 912.539 1578.5 912.642 1578.71 912.847C1578.92 913.052 1579.03 913.33 1579.03 913.682C1579.03 913.931 1578.95 914.204 1578.8 914.507C1578.64 914.81 1578.4 915.161 1578.07 915.562L1575.4 918.76H1580.19V917.832ZM1584.73 911.45L1581.23 919.688H1582.06L1585.56 911.45H1584.73ZM1588.21 918.76H1589.27V911.68H1587.18L1586.73 912.598H1588.21V918.76ZM1592.07 916.851C1592.09 917.495 1592.31 918.003 1592.73 918.384C1593.15 918.765 1593.7 918.95 1594.39 918.95C1595.15 918.95 1595.75 918.765 1596.19 918.394C1596.64 918.022 1596.86 917.515 1596.86 916.88C1596.86 916.362 1596.74 915.942 1596.51 915.625C1596.27 915.312 1595.93 915.112 1595.48 915.029C1595.86 914.971 1596.16 914.805 1596.37 914.521C1596.59 914.238 1596.7 913.877 1596.7 913.438C1596.7 912.856 1596.51 912.393 1596.13 912.051C1595.74 911.709 1595.23 911.538 1594.57 911.538C1593.89 911.538 1593.37 911.704 1592.99 912.026C1592.6 912.354 1592.39 912.822 1592.37 913.428H1593.42C1593.43 913.125 1593.53 912.891 1593.72 912.725C1593.92 912.559 1594.19 912.471 1594.54 912.471C1594.87 912.471 1595.12 912.563 1595.32 912.744C1595.51 912.925 1595.61 913.169 1595.61 913.472C1595.61 913.818 1595.51 914.082 1595.29 914.258C1595.08 914.434 1594.75 914.521 1594.33 914.521C1594.31 914.521 1594.27 914.521 1594.23 914.517C1594.18 914.517 1594.14 914.512 1594.12 914.512V915.449C1594.15 915.449 1594.19 915.449 1594.24 915.444C1594.28 915.444 1594.32 915.439 1594.34 915.439C1594.82 915.439 1595.18 915.552 1595.43 915.767C1595.67 915.981 1595.79 916.304 1595.79 916.729C1595.79 917.139 1595.67 917.451 1595.44 917.666C1595.2 917.881 1594.87 917.988 1594.44 917.988C1594.05 917.988 1593.75 917.891 1593.52 917.695C1593.3 917.5 1593.19 917.241 1593.19 916.909V916.851H1592.07ZM1601.16 911.45L1597.66 919.688H1598.49L1601.99 911.45H1601.16ZM1606.99 917.832H1604.27L1605.18 916.777C1605.93 915.933 1606.41 915.288 1606.64 914.844C1606.87 914.399 1606.98 913.96 1606.98 913.521C1606.98 912.91 1606.78 912.427 1606.38 912.07C1605.98 911.719 1605.44 911.538 1604.75 911.538C1604.03 911.538 1603.45 911.733 1603.02 912.114C1602.59 912.495 1602.38 913.008 1602.38 913.647H1603.49C1603.52 913.315 1603.64 913.052 1603.85 912.847C1604.06 912.642 1604.33 912.539 1604.66 912.539C1605.02 912.539 1605.31 912.642 1605.51 912.847C1605.72 913.052 1605.83 913.33 1605.83 913.682C1605.83 913.931 1605.75 914.204 1605.6 914.507C1605.45 914.81 1605.21 915.161 1604.88 915.562L1602.2 918.76H1606.99V917.832ZM1613.63 915.317C1613.63 914.106 1613.41 913.174 1612.97 912.52C1612.52 911.865 1611.89 911.538 1611.07 911.538C1610.26 911.538 1609.63 911.865 1609.17 912.515C1608.71 913.169 1608.49 914.077 1608.49 915.239C1608.49 916.416 1608.71 917.329 1609.16 917.979C1609.61 918.628 1610.25 918.95 1611.06 918.95C1611.86 918.95 1612.48 918.633 1612.94 917.988C1613.4 917.344 1613.63 916.455 1613.63 915.317ZM1611.04 917.949C1610.59 917.949 1610.25 917.72 1610.01 917.251C1609.77 916.787 1609.65 916.118 1609.65 915.249C1609.65 914.355 1609.77 913.677 1610.01 913.218C1610.25 912.759 1610.61 912.529 1611.08 912.529C1611.53 912.529 1611.88 912.764 1612.11 913.223C1612.35 913.682 1612.47 914.351 1612.47 915.229C1612.47 916.138 1612.35 916.816 1612.11 917.271C1611.87 917.725 1611.51 917.949 1611.04 917.949ZM1619.08 917.832H1616.36L1617.27 916.777C1618.01 915.933 1618.5 915.288 1618.73 914.844C1618.96 914.399 1619.07 913.96 1619.07 913.521C1619.07 912.91 1618.87 912.427 1618.47 912.07C1618.07 911.719 1617.53 911.538 1616.84 911.538C1616.12 911.538 1615.54 911.733 1615.11 912.114C1614.68 912.495 1614.47 913.008 1614.47 913.647H1615.58C1615.61 913.315 1615.72 913.052 1615.94 912.847C1616.15 912.642 1616.42 912.539 1616.75 912.539C1617.11 912.539 1617.39 912.642 1617.6 912.847C1617.81 913.052 1617.92 913.33 1617.92 913.682C1617.92 913.931 1617.84 914.204 1617.69 914.507C1617.54 914.81 1617.3 915.161 1616.97 915.562L1614.29 918.76H1619.08V917.832ZM1620.59 916.851C1620.61 917.495 1620.83 918.003 1621.25 918.384C1621.67 918.765 1622.22 918.95 1622.91 918.95C1623.66 918.95 1624.26 918.765 1624.71 918.394C1625.15 918.022 1625.38 917.515 1625.38 916.88C1625.38 916.362 1625.26 915.942 1625.02 915.625C1624.79 915.312 1624.44 915.112 1623.99 915.029C1624.37 914.971 1624.68 914.805 1624.89 914.521C1625.1 914.238 1625.22 913.877 1625.22 913.438C1625.22 912.856 1625.02 912.393 1624.64 912.051C1624.26 911.709 1623.74 911.538 1623.09 911.538C1622.41 911.538 1621.88 911.704 1621.5 912.026C1621.12 912.354 1620.91 912.822 1620.88 913.428H1621.93C1621.94 913.125 1622.04 912.891 1622.24 912.725C1622.43 912.559 1622.71 912.471 1623.06 912.471C1623.38 912.471 1623.64 912.563 1623.84 912.744C1624.03 912.925 1624.13 913.169 1624.13 913.472C1624.13 913.818 1624.02 914.082 1623.81 914.258C1623.59 914.434 1623.27 914.521 1622.85 914.521C1622.82 914.521 1622.79 914.521 1622.74 914.517C1622.69 914.517 1622.66 914.512 1622.64 914.512V915.449C1622.66 915.449 1622.7 915.449 1622.75 915.444C1622.8 915.444 1622.83 915.439 1622.86 915.439C1623.34 915.439 1623.7 915.552 1623.94 915.767C1624.19 915.981 1624.31 916.304 1624.31 916.729C1624.31 917.139 1624.19 917.451 1623.95 917.666C1623.72 917.881 1623.38 917.988 1622.95 917.988C1622.57 917.988 1622.26 917.891 1622.04 917.695C1621.81 917.5 1621.7 917.241 1621.7 916.909V916.851H1620.59Z" fill="#D0C3B4"/>
<path d="M1714.06 915.952L1714.79 914.321C1714.84 914.209 1714.88 914.087 1714.92 913.95C1714.97 913.813 1715.01 913.667 1715.05 913.511C1715.1 913.677 1715.14 913.828 1715.19 913.965C1715.23 914.102 1715.28 914.219 1715.32 914.321L1716.05 915.952H1714.06ZM1717.27 918.76H1718.5L1715.04 911.328L1711.58 918.76H1712.8L1713.63 916.919H1716.46L1717.27 918.76ZM1721.94 913.931C1721.93 914.067 1721.92 914.194 1721.92 914.312C1721.91 914.434 1721.91 914.541 1721.91 914.639V916.499H1720.12L1721.94 913.931ZM1721.91 918.76H1722.97V917.31H1723.84V916.499H1722.97V911.538H1722.64L1718.48 917.31H1721.91V918.76Z" fill="#D0C3B4"/>
<path d="M1661.87 966.895H1665.86V965.854H1663.03V963.545H1665.86V962.524H1663.03V960.732H1665.86V959.746H1661.87V966.895ZM1672.93 961.484L1672.99 960.312C1672.63 960.068 1672.26 959.883 1671.88 959.761C1671.5 959.639 1671.1 959.575 1670.68 959.575C1670.15 959.575 1669.65 959.668 1669.19 959.849C1668.73 960.029 1668.32 960.293 1667.97 960.645C1667.62 960.996 1667.34 961.401 1667.16 961.86C1666.97 962.319 1666.88 962.812 1666.88 963.335C1666.88 963.862 1666.97 964.355 1667.16 964.819C1667.34 965.283 1667.61 965.684 1667.96 966.025C1668.31 966.377 1668.72 966.641 1669.18 966.816C1669.65 966.997 1670.16 967.085 1670.7 967.085C1671.13 967.085 1671.53 967.031 1671.9 966.919C1672.26 966.812 1672.61 966.641 1672.92 966.416V965.103C1672.57 965.405 1672.2 965.635 1671.82 965.781C1671.43 965.933 1671.03 966.006 1670.61 966.006C1669.88 966.006 1669.28 965.757 1668.8 965.254C1668.32 964.756 1668.09 964.116 1668.09 963.345C1668.09 962.549 1668.33 961.899 1668.82 961.396C1669.31 960.898 1669.95 960.645 1670.73 960.645C1671.13 960.645 1671.52 960.718 1671.88 960.854C1672.25 960.996 1672.6 961.206 1672.93 961.484ZM1674.37 966.895H1675.53V963.423H1679.05V966.895H1680.21V959.746H1679.05V962.383H1675.53V959.746H1674.37V966.895ZM1681.85 966.895H1685.84V965.854H1683.01V963.545H1685.84V962.524H1683.01V960.732H1685.84V959.746H1681.85V966.895ZM1687.17 966.895H1690.93V965.854H1688.33V959.746H1687.17V966.895ZM1691.88 966.895H1695.64V965.854H1693.04V959.746H1691.88V966.895ZM1696.59 966.895H1700.58V965.854H1697.75V963.545H1700.58V962.524H1697.75V960.732H1700.58V959.746H1696.59V966.895ZM1706.75 966.895H1707.81V959.814H1705.72L1705.27 960.732H1706.75V966.895ZM1713.65 959.585L1710.15 967.822H1710.98L1714.48 959.585H1713.65ZM1717.13 966.895H1718.19V959.814H1716.1L1715.65 960.732H1717.13V966.895Z" fill="#D0C3B4"/>
<path fill-rule="evenodd" clip-rule="evenodd" d="M1473.08 938.177C1472.87 938.618 1471.7 939.267 1470.48 939.618C1467.77 940.395 1463.76 946.137 1463.15 950.086C1462.72 952.884 1462.58 952.97 1458.23 952.97C1455.43 952.97 1453.92 953.342 1454.21 953.958C1454.47 954.502 1456.5 954.947 1458.73 954.947C1462.53 954.947 1462.81 955.115 1463.26 957.665C1463.98 961.794 1466.67 965.481 1470.54 967.642C1473.8 969.463 1474.26 969.492 1477.54 968.078C1481.43 966.401 1484.65 962.137 1485.32 957.774L1485.75 954.947H1493.21C1502.89 954.947 1503.01 953.132 1493.35 952.758C1486.11 952.479 1486.04 952.449 1485.5 949.798C1484.47 944.771 1482 941.493 1477.65 939.397C1475.35 938.285 1473.29 937.735 1473.08 938.177ZM1424 941.286C1415.28 942.835 1406.72 944.373 1404.97 944.704C1401.98 945.275 1401.79 945.501 1401.58 948.891L1401.35 952.476L1397 952.772C1391.25 953.165 1391.4 954.947 1397.19 954.947H1401.72V958.266V961.586L1407.58 962.648C1410.8 963.234 1419.38 964.801 1426.65 966.132C1433.92 967.462 1440.12 968.356 1440.43 968.117C1440.74 967.876 1441 961.283 1441 953.464C1441 945.645 1440.74 939.073 1440.43 938.858C1440.12 938.645 1432.73 939.737 1424 941.286ZM1440.08 952.418C1440.2 958.911 1440.14 964.729 1439.96 965.349C1439.72 966.167 1435.85 965.858 1425.78 964.219C1406.54 961.087 1403.23 960.123 1403.23 957.64C1403.23 956.55 1403.83 955.069 1404.56 954.346C1405.82 953.096 1405.82 953.031 1404.56 953.002C1403.57 952.978 1403.23 952.144 1403.23 949.713V946.456L1417.77 944.15C1425.77 942.881 1432.99 941.473 1433.82 941.021C1434.65 940.568 1436.35 940.292 1437.6 940.406L1439.86 940.614L1440.08 952.418ZM1473.47 943.03C1473.47 944.022 1472.61 945.577 1471.55 946.484C1470.49 947.39 1469.25 949.221 1468.79 950.551C1468.24 952.114 1467.32 952.97 1466.18 952.97C1462.74 952.97 1464.57 946.653 1469.12 942.792C1472.37 940.03 1473.47 940.09 1473.47 943.03ZM1479.5 942.576C1482.7 945.223 1484.05 947.693 1484.05 950.928C1484.05 954.003 1481.59 953.464 1479.61 949.955C1478.67 948.296 1477.08 946.528 1476.07 946.025C1473.71 944.854 1473.56 940.12 1475.88 940.12C1476.24 940.12 1477.86 941.225 1479.5 942.576ZM1477.26 949.021C1478.69 950.026 1479.01 955.045 1477.8 957.566C1477.15 958.928 1471.94 959.097 1470.73 957.795C1469.64 956.627 1469.93 951.532 1471.19 949.544C1472.29 947.81 1475.17 947.562 1477.26 949.021ZM1473.66 951.693C1472.35 952.326 1472.48 954.617 1473.88 955.319C1474.55 955.657 1475.23 955.257 1475.49 954.37C1476.02 952.555 1475 951.052 1473.66 951.693ZM1412.3 953.958C1412.3 954.502 1413.47 954.947 1414.9 954.947C1416.33 954.947 1417.71 954.502 1417.96 953.958C1418.24 953.361 1417.21 952.97 1415.36 952.97C1413.68 952.97 1412.3 953.415 1412.3 953.958ZM1425.14 953.958C1425.14 954.535 1427.65 954.947 1431.18 954.947C1434.7 954.947 1437.22 954.535 1437.22 953.958C1437.22 953.382 1434.7 952.97 1431.18 952.97C1427.65 952.97 1425.14 953.382 1425.14 953.958ZM1444.02 953.958C1444.02 954.502 1445.19 954.947 1446.62 954.947C1448.05 954.947 1449.43 954.502 1449.68 953.958C1449.96 953.361 1448.94 952.97 1447.08 952.97C1445.4 952.97 1444.02 953.415 1444.02 953.958ZM1468.84 957.174C1469.34 958.399 1470.76 960.157 1471.99 961.082C1474.2 962.744 1474.91 965.156 1473.51 966.288C1471.26 968.105 1464.42 960.506 1464.41 956.183C1464.41 954.023 1467.87 954.798 1468.84 957.174ZM1484.05 956.848C1484.05 960.77 1477.08 968.227 1475.43 966.069C1474.33 964.631 1475.14 961.742 1476.88 960.873C1477.93 960.354 1479.17 958.808 1479.65 957.438C1480.72 954.343 1484.05 953.897 1484.05 956.848Z" fill="#D0C3B4"/>
<path d="M1747 768H1133V980H1747V768Z" stroke="#D0C3B4"/>
<path d="M1384.79 768V979.949" stroke="#D0C3B4"/>
</svg>
