<svg width="762" height="503" viewBox="0 0 762 503" fill="none" xmlns="http://www.w3.org/2000/svg">
<g filter="url(#filter0_d_303_829)">
<path d="M242.926 396.416C242.924 397.889 244.117 399.084 245.59 399.086C247.062 399.088 248.258 397.895 248.259 396.422C248.261 394.949 247.068 393.754 245.595 393.753C244.123 393.751 242.927 394.944 242.926 396.416ZM622.621 244.211C622.619 245.684 623.812 246.879 625.285 246.881C626.758 246.882 627.953 245.69 627.954 244.217C627.956 242.744 626.763 241.549 625.291 241.547C623.818 241.546 622.623 242.739 622.621 244.211ZM245.779 396.883L246.709 396.51L246.337 395.582L245.406 395.955L245.779 396.883ZM248.57 395.764L250.432 395.018L250.06 394.09L248.198 394.836L248.57 395.764ZM252.293 394.272L254.154 393.526L253.782 392.598L251.921 393.344L252.293 394.272ZM256.015 392.78L257.877 392.034L257.505 391.106L255.643 391.852L256.015 392.78ZM259.738 391.288L261.599 390.542L261.227 389.613L259.366 390.359L259.738 391.288ZM263.46 389.795L265.322 389.049L264.95 388.121L263.088 388.867L263.46 389.795ZM267.183 388.303L269.044 387.557L268.672 386.629L266.811 387.375L267.183 388.303ZM270.905 386.811L272.767 386.065L272.395 385.137L270.533 385.883L270.905 386.811ZM274.628 385.319L276.489 384.573L276.117 383.644L274.256 384.391L274.628 385.319ZM278.35 383.827L280.212 383.08L279.84 382.152L277.978 382.898L278.35 383.827ZM282.073 382.334L283.934 381.588L283.562 380.66L281.701 381.406L282.073 382.334ZM285.795 380.842L287.657 380.096L287.285 379.168L285.423 379.914L285.795 380.842ZM289.518 379.35L291.379 378.604L291.007 377.676L289.146 378.422L289.518 379.35ZM293.24 377.858L295.102 377.112L294.73 376.183L292.868 376.93L293.24 377.858ZM296.963 376.366L298.824 375.619L298.452 374.691L296.591 375.437L296.963 376.366ZM300.685 374.873L302.547 374.127L302.175 373.199L300.313 373.945L300.685 374.873ZM304.408 373.381L306.269 372.635L305.897 371.707L304.036 372.453L304.408 373.381ZM308.13 371.889L309.992 371.143L309.62 370.215L307.758 370.961L308.13 371.889ZM311.853 370.397L313.714 369.651L313.342 368.722L311.481 369.468L311.853 370.397ZM315.575 368.904L317.437 368.158L317.065 367.23L315.203 367.976L315.575 368.904ZM319.298 367.412L321.159 366.666L320.787 365.738L318.926 366.484L319.298 367.412ZM323.02 365.92L324.882 365.174L324.51 364.246L322.648 364.992L323.02 365.92ZM326.743 364.428L328.604 363.682L328.232 362.754L326.371 363.5L326.743 364.428ZM330.465 362.936L332.327 362.19L331.955 361.261L330.093 362.007L330.465 362.936ZM334.188 361.443L336.049 360.697L335.677 359.769L333.816 360.515L334.188 361.443ZM337.91 359.951L339.772 359.205L339.4 358.277L337.538 359.023L337.91 359.951ZM341.633 358.459L343.494 357.713L343.122 356.785L341.261 357.531L341.633 358.459ZM345.355 356.967L347.217 356.221L346.845 355.293L344.983 356.039L345.355 356.967ZM349.078 355.475L350.939 354.728L350.567 353.8L348.706 354.546L349.078 355.475ZM352.801 353.982L354.662 353.236L354.29 352.308L352.428 353.054L352.801 353.982ZM356.523 352.49L358.384 351.744L358.012 350.816L356.151 351.562L356.523 352.49ZM360.246 350.998L362.107 350.252L361.735 349.324L359.873 350.07L360.246 350.998ZM363.968 349.506L365.829 348.76L365.457 347.831L363.596 348.578L363.968 349.506ZM367.691 348.014L369.552 347.267L369.18 346.339L367.318 347.085L367.691 348.014ZM371.413 346.521L373.274 345.775L372.902 344.847L371.041 345.593L371.413 346.521ZM375.135 345.029L376.997 344.283L376.625 343.355L374.763 344.101L375.135 345.029ZM378.858 343.537L380.719 342.791L380.347 341.863L378.486 342.609L378.858 343.537ZM382.58 342.045L384.442 341.299L384.07 340.37L382.208 341.117L382.58 342.045ZM386.303 340.553L388.164 339.806L387.792 338.878L385.931 339.624L386.303 340.553ZM390.025 339.06L391.887 338.314L391.515 337.386L389.653 338.132L390.025 339.06ZM393.748 337.568L395.609 336.822L395.237 335.894L393.376 336.64L393.748 337.568ZM397.47 336.076L399.332 335.33L398.96 334.402L397.098 335.148L397.47 336.076ZM401.193 334.584L403.054 333.838L402.682 332.909L400.821 333.656L401.193 334.584ZM404.915 333.092L406.777 332.345L406.405 331.417L404.543 332.163L404.915 333.092ZM408.638 331.599L410.499 330.853L410.127 329.925L408.266 330.671L408.638 331.599ZM412.36 330.107L414.222 329.361L413.85 328.433L411.988 329.179L412.36 330.107ZM416.083 328.615L417.944 327.869L417.572 326.941L415.711 327.687L416.083 328.615ZM419.805 327.123L421.667 326.377L421.295 325.448L419.433 326.195L419.805 327.123ZM423.528 325.631L425.389 324.884L425.017 323.956L423.156 324.702L423.528 325.631ZM427.25 324.138L429.112 323.392L428.74 322.464L426.878 323.21L427.25 324.138ZM430.973 322.646L432.834 321.9L432.462 320.972L430.601 321.718L430.973 322.646ZM434.695 321.154L436.557 320.408L436.185 319.48L434.323 320.226L434.695 321.154ZM438.418 319.662L440.279 318.916L439.907 317.987L438.046 318.734L438.418 319.662ZM442.14 318.169L444.002 317.423L443.629 316.495L441.768 317.241L442.14 318.169ZM445.863 316.677L447.724 315.931L447.352 315.003L445.491 315.749L445.863 316.677ZM449.585 315.185L451.447 314.439L451.074 313.511L449.213 314.257L449.585 315.185ZM453.308 313.693L455.169 312.947L454.797 312.019L452.936 312.765L453.308 313.693ZM457.03 312.201L458.892 311.455L458.519 310.526L456.658 311.272L457.03 312.201ZM460.753 310.708L462.614 309.962L462.242 309.034L460.381 309.78L460.753 310.708ZM464.475 309.216L466.337 308.47L465.964 307.542L464.103 308.288L464.475 309.216ZM468.198 307.724L470.059 306.978L469.687 306.05L467.826 306.796L468.198 307.724ZM471.92 306.232L473.781 305.486L473.409 304.558L471.548 305.304L471.92 306.232ZM475.643 304.74L477.504 303.994L477.132 303.065L475.271 303.811L475.643 304.74ZM479.365 303.247L481.226 302.501L480.854 301.573L478.993 302.319L479.365 303.247ZM483.088 301.755L484.949 301.009L484.577 300.081L482.716 300.827L483.088 301.755ZM486.81 300.263L488.671 299.517L488.299 298.589L486.438 299.335L486.81 300.263ZM490.533 298.771L492.394 298.025L492.022 297.097L490.161 297.843L490.533 298.771ZM494.255 297.279L496.116 296.533L495.744 295.604L493.883 296.35L494.255 297.279ZM497.978 295.786L499.839 295.04L499.467 294.112L497.606 294.858L497.978 295.786ZM501.7 294.294L503.561 293.548L503.189 292.62L501.328 293.366L501.7 294.294ZM505.423 292.802L507.284 292.056L506.912 291.128L505.051 291.874L505.423 292.802ZM509.145 291.31L511.006 290.564L510.634 289.636L508.773 290.382L509.145 291.31ZM512.868 289.818L514.729 289.072L514.357 288.143L512.496 288.889L512.868 289.818ZM516.59 288.325L518.451 287.579L518.079 286.651L516.218 287.397L516.59 288.325ZM520.313 286.833L522.174 286.087L521.802 285.159L519.941 285.905L520.313 286.833ZM524.035 285.341L525.896 284.595L525.524 283.667L523.663 284.413L524.035 285.341ZM527.758 283.849L529.619 283.103L529.247 282.175L527.386 282.921L527.758 283.849ZM531.48 282.357L533.341 281.611L532.969 280.682L531.108 281.428L531.48 282.357ZM535.203 280.864L537.064 280.118L536.692 279.19L534.831 279.936L535.203 280.864ZM538.925 279.372L540.786 278.626L540.414 277.698L538.553 278.444L538.925 279.372ZM542.648 277.88L544.509 277.134L544.137 276.206L542.275 276.952L542.648 277.88ZM546.37 276.388L548.231 275.642L547.859 274.714L545.998 275.46L546.37 276.388ZM550.093 274.896L551.954 274.15L551.582 273.221L549.72 273.967L550.093 274.896ZM553.815 273.403L555.676 272.657L555.304 271.729L553.443 272.475L553.815 273.403ZM557.538 271.911L559.399 271.165L559.027 270.237L557.165 270.983L557.538 271.911ZM561.26 270.419L563.121 269.673L562.749 268.745L560.888 269.491L561.26 270.419ZM564.983 268.927L566.844 268.181L566.472 267.252L564.61 267.999L564.983 268.927ZM568.705 267.435L570.566 266.688L570.194 265.76L568.333 266.506L568.705 267.435ZM572.428 265.942L574.289 265.196L573.917 264.268L572.055 265.014L572.428 265.942ZM576.15 264.45L578.011 263.704L577.639 262.776L575.778 263.522L576.15 264.45ZM579.872 262.958L581.734 262.212L581.362 261.284L579.5 262.03L579.872 262.958ZM583.595 261.466L585.456 260.72L585.084 259.791L583.223 260.538L583.595 261.466ZM587.317 259.974L589.179 259.227L588.807 258.299L586.945 259.045L587.317 259.974ZM591.04 258.481L592.901 257.735L592.529 256.807L590.668 257.553L591.04 258.481ZM594.762 256.989L596.624 256.243L596.252 255.315L594.39 256.061L594.762 256.989ZM598.485 255.497L600.346 254.751L599.974 253.823L598.113 254.569L598.485 255.497ZM602.207 254.005L604.069 253.259L603.697 252.33L601.835 253.077L602.207 254.005ZM605.93 252.513L607.791 251.766L607.419 250.838L605.558 251.584L605.93 252.513ZM609.652 251.02L611.514 250.274L611.142 249.346L609.28 250.092L609.652 251.02ZM613.375 249.528L615.236 248.782L614.864 247.854L613.003 248.6L613.375 249.528ZM617.097 248.036L618.959 247.29L618.587 246.362L616.725 247.108L617.097 248.036ZM620.82 246.544L622.681 245.798L622.309 244.869L620.448 245.616L620.82 246.544ZM624.542 245.052L625.474 244.678L625.102 243.75L624.17 244.123L624.542 245.052Z" fill="#D0C3B4"/>
</g>
<rect width="63.2406" height="27.8912" transform="matrix(0.92061 -0.390482 0.337342 0.941382 403.435 324.757)" fill="#332D2A"/>
<path d="M429.952 329.124C429.255 329.402 428.563 329.474 427.877 329.339C427.193 329.214 426.616 328.918 426.144 328.45L426.61 327.716C427.025 328.077 427.503 328.311 428.044 328.418C428.593 328.521 429.138 328.466 429.676 328.251C430.141 328.065 430.519 327.796 430.812 327.443C431.114 327.086 431.311 326.68 431.401 326.225C431.501 325.766 431.47 325.294 431.309 324.811C431.154 324.346 430.911 323.98 430.581 323.714C430.256 323.435 429.88 323.269 429.451 323.214C429.032 323.155 428.6 323.215 428.154 323.393C427.726 323.563 427.351 323.826 427.027 324.181C426.7 324.526 426.478 324.932 426.359 325.398L425.481 325.748L424.687 319.617L429.466 317.711L429.764 318.607L425.696 320.23L426.221 324.131C426.374 323.769 426.604 323.447 426.909 323.164C427.212 322.871 427.567 322.643 427.976 322.48C428.58 322.239 429.169 322.16 429.744 322.243C430.328 322.322 430.844 322.545 431.293 322.915C431.742 323.284 432.071 323.781 432.279 324.407C432.501 325.072 432.537 325.718 432.389 326.347C432.249 326.972 431.966 327.526 431.537 328.008C431.112 328.5 430.583 328.872 429.952 329.124ZM439.56 318.167C439.838 319.002 439.932 319.808 439.844 320.584C439.761 321.348 439.517 322.021 439.111 322.602C438.705 323.183 438.167 323.607 437.498 323.874C436.829 324.14 436.169 324.194 435.516 324.035C434.873 323.873 434.29 323.53 433.769 323.007C433.245 322.475 432.843 321.791 432.565 320.956C432.287 320.121 432.194 319.32 432.286 318.553C432.374 317.776 432.617 317.099 433.014 316.521C433.417 315.93 433.953 315.502 434.622 315.235C435.291 314.968 435.953 314.919 436.609 315.087C437.261 315.246 437.845 315.594 438.361 316.13C438.882 316.653 439.282 317.332 439.56 318.167ZM438.598 318.55C438.374 317.876 438.07 317.326 437.685 316.899C437.301 316.472 436.871 316.192 436.396 316.059C435.917 315.917 435.427 315.946 434.925 316.146C434.424 316.346 434.031 316.669 433.748 317.115C433.462 317.551 433.293 318.07 433.241 318.672C433.198 319.269 433.288 319.905 433.513 320.578C433.737 321.252 434.041 321.802 434.426 322.229C434.819 322.653 435.254 322.931 435.729 323.064C436.205 323.197 436.693 323.163 437.195 322.963C437.697 322.763 438.09 322.444 438.376 322.008C438.659 321.562 438.824 321.045 438.87 320.457C438.913 319.859 438.822 319.224 438.598 318.55ZM448.091 314.764C448.369 315.599 448.463 316.405 448.375 317.182C448.292 317.946 448.048 318.618 447.642 319.199C447.236 319.781 446.698 320.204 446.029 320.471C445.361 320.738 444.7 320.792 444.047 320.633C443.404 320.47 442.821 320.128 442.3 319.605C441.776 319.072 441.374 318.389 441.096 317.554C440.818 316.719 440.725 315.918 440.817 315.15C440.905 314.373 441.148 313.696 441.545 313.119C441.948 312.528 442.484 312.099 443.153 311.832C443.822 311.566 444.484 311.517 445.14 311.685C445.792 311.844 446.376 312.191 446.892 312.727C447.413 313.25 447.813 313.929 448.091 314.764ZM447.129 315.148C446.905 314.474 446.601 313.924 446.216 313.496C445.832 313.069 445.402 312.789 444.927 312.657C444.448 312.514 443.958 312.543 443.456 312.743C442.955 312.943 442.562 313.266 442.28 313.712C441.993 314.149 441.824 314.668 441.772 315.269C441.729 315.867 441.82 316.502 442.044 317.176C442.268 317.85 442.572 318.4 442.957 318.827C443.35 319.25 443.785 319.529 444.26 319.661C444.736 319.794 445.224 319.76 445.726 319.56C446.228 319.36 446.621 319.042 446.908 318.606C447.19 318.16 447.355 317.642 447.401 317.054C447.444 316.457 447.354 315.821 447.129 315.148Z" fill="#D0C3B4"/>
<path opacity="0.6" d="M566.617 409.687C566.426 410.26 566.253 410.919 566.099 411.663C565.945 412.407 565.817 413.13 565.714 413.831C565.624 414.545 565.571 415.189 565.554 415.765C565.537 416.354 565.57 416.773 565.652 417.021C565.776 417.08 565.895 417.166 566.009 417.28C566.136 417.392 566.205 417.528 566.215 417.688C566.242 417.913 566.182 418.13 566.035 418.34C565.889 418.563 565.682 418.676 565.415 418.679C564.987 418.679 564.671 418.525 564.464 418.218C564.272 417.922 564.151 417.589 564.101 417.218C564.038 416.848 564.01 416.389 564.015 415.841C564.035 415.292 564.073 414.728 564.13 414.15C564.202 413.585 564.281 413.032 564.368 412.492C564.467 411.952 564.566 411.498 564.663 411.131C564.72 410.968 564.707 410.868 564.625 410.833C564.542 410.785 564.449 410.797 564.347 410.871C564.204 410.946 564.037 411.05 563.845 411.182C563.653 411.315 563.442 411.461 563.211 411.623C562.993 411.77 562.763 411.931 562.52 412.107C562.29 412.281 562.06 412.443 561.829 412.591C561.316 412.93 560.839 413.107 560.399 413.121C559.959 413.135 559.584 413.018 559.275 412.77C558.838 412.41 558.616 411.836 558.606 411.048C558.608 410.434 558.685 409.841 558.836 409.271C558.987 408.687 559.189 408.173 559.441 407.73C559.813 407.052 560.27 406.449 560.811 405.921C561.365 405.379 561.919 404.944 562.473 404.615C562.744 404.451 563.016 404.321 563.29 404.223C563.577 404.112 563.854 404.048 564.12 404.031C564.4 404.014 564.656 404.058 564.89 404.164C565.123 404.256 565.32 404.417 565.481 404.648C565.628 404.866 565.681 405.07 565.64 405.259C565.611 405.448 565.541 405.599 565.427 405.713C565.136 405.972 564.81 405.992 564.449 405.774C564.295 405.65 564.138 405.607 563.98 405.643C563.821 405.667 563.606 405.747 563.334 405.884C563.101 406.005 562.857 406.168 562.603 406.37C562.361 406.559 562.12 406.768 561.88 406.997C561.654 407.225 561.442 407.465 561.244 407.718C561.059 407.97 560.908 408.213 560.789 408.447C560.586 408.834 560.435 409.198 560.336 409.538C560.249 409.864 560.198 410.221 560.182 410.609C560.166 410.784 560.182 410.93 560.23 411.047C560.289 411.151 560.355 411.233 560.425 411.296C560.649 411.455 560.953 411.396 561.336 411.119C561.656 410.885 562.001 410.636 562.372 410.373C562.742 410.096 563.107 409.839 563.466 409.603C563.824 409.354 564.165 409.132 564.486 408.938C564.808 408.744 565.093 408.6 565.341 408.504C565.655 408.404 565.959 408.446 566.251 408.628C566.417 408.724 566.54 408.87 566.619 409.066C566.697 409.248 566.696 409.455 566.617 409.687ZM585.709 404.127C585.731 404.259 585.699 404.388 585.613 404.514C585.527 404.639 585.385 404.722 585.187 404.761C584.91 404.805 584.551 404.841 584.112 404.868C583.673 404.895 583.233 404.916 582.793 404.93C582.353 404.944 581.947 404.963 581.574 404.986C581.214 404.995 580.969 405.017 580.837 405.052C580.771 405.057 580.699 405.094 580.624 405.166C580.547 405.224 580.477 405.275 580.413 405.319C580.311 405.392 580.199 405.426 580.079 405.42C579.958 405.414 579.849 405.375 579.75 405.301C579.556 405.179 579.47 404.984 579.494 404.715C579.522 404.527 579.598 404.362 579.723 404.22C579.861 404.078 580.022 403.981 580.206 403.929C580.416 403.863 580.74 403.823 581.18 403.809C581.619 403.781 582.086 403.765 582.58 403.761C583.073 403.744 583.547 403.728 584 403.713C584.453 403.698 584.812 403.669 585.076 403.626C585.261 403.587 585.41 403.625 585.524 403.738C585.638 403.851 585.7 403.981 585.709 404.127ZM585.948 406.998C585.97 407.13 585.938 407.259 585.852 407.385C585.766 407.51 585.625 407.592 585.427 407.632C585.149 407.676 584.79 407.711 584.351 407.739C583.912 407.766 583.473 407.787 583.033 407.801C582.593 407.815 582.186 407.834 581.814 407.857C581.454 407.866 581.208 407.888 581.076 407.923C581.01 407.927 580.939 407.965 580.863 408.037C580.786 408.095 580.716 408.146 580.652 408.19C580.55 408.263 580.438 408.297 580.318 408.291C580.197 408.285 580.088 408.245 579.99 408.171C579.795 408.05 579.709 407.855 579.733 407.586C579.761 407.397 579.838 407.232 579.962 407.091C580.1 406.949 580.261 406.852 580.445 406.8C580.655 406.734 580.98 406.693 581.42 406.679C581.859 406.652 582.325 406.636 582.819 406.632C583.313 406.615 583.786 406.598 584.239 406.583C584.692 406.569 585.051 406.539 585.316 406.496C585.5 406.458 585.65 406.495 585.764 406.609C585.878 406.722 585.939 406.851 585.948 406.998ZM606.825 395.836C606.937 395.923 607.005 396.045 607.028 396.204C607.052 396.363 606.994 396.513 606.856 396.656C606.054 397.507 605.321 398.381 604.655 399.278C604.003 400.174 603.445 401.07 602.98 401.967C602.528 402.864 602.182 403.747 601.943 404.617C601.716 405.486 601.628 406.32 601.678 407.118C601.749 408.263 602.113 409.175 602.77 409.856C603.427 410.536 604.425 411.008 605.764 411.272C605.981 411.312 606.132 411.389 606.22 411.504C606.308 411.632 606.344 411.79 606.329 411.978C606.312 412.126 606.24 412.251 606.112 412.352C605.986 412.467 605.801 412.505 605.558 412.467C603.914 412.236 602.675 411.645 601.841 410.695C601.008 409.759 600.548 408.598 600.461 407.214C600.399 406.216 600.51 405.214 600.795 404.208C601.093 403.201 601.499 402.213 602.013 401.246C602.539 400.265 603.142 399.326 603.821 398.428C604.513 397.53 605.215 396.685 605.927 395.892C606.076 395.709 606.231 395.626 606.392 395.643C606.566 395.645 606.71 395.71 606.825 395.836ZM619.202 408.189C619.332 408.355 619.391 408.545 619.378 408.759C619.364 408.974 619.249 409.155 619.031 409.302C618.594 409.583 618.075 409.722 617.474 409.72C616.873 409.717 616.264 409.495 615.649 409.052C614.962 408.534 614.287 407.881 613.623 407.095C613.318 407.341 612.994 407.615 612.652 407.917C612.323 408.204 611.988 408.506 611.647 408.821C611.305 409.123 610.963 409.431 610.622 409.747C610.295 410.061 609.98 410.368 609.678 410.667C609.688 410.827 609.632 410.997 609.509 411.179C609.388 411.373 609.222 411.504 609.013 411.57C608.777 411.639 608.569 411.631 608.39 411.549C608.211 411.467 608.083 411.341 608.006 411.172C607.915 411.004 607.884 410.819 607.911 410.617C607.939 410.415 608.034 410.222 608.196 410.038C608.459 409.768 608.736 409.49 609.025 409.205C609.315 408.92 609.637 408.619 609.991 408.303C610.358 407.973 610.763 407.614 611.206 407.225C611.65 406.837 612.15 406.398 612.707 405.909C612.517 405.641 612.334 405.385 612.158 405.142C611.995 404.885 611.849 404.674 611.718 404.508C611.452 404.525 611.253 404.444 611.122 404.265C611.049 404.163 611.001 404.045 610.98 403.913C610.971 403.78 610.963 403.653 610.956 403.534C610.959 403.373 611.003 403.223 611.088 403.085C611.186 402.932 611.305 402.817 611.448 402.742C611.59 402.666 611.742 402.636 611.903 402.653C612.078 402.669 612.243 402.752 612.399 402.903C612.499 403.003 612.608 403.143 612.726 403.323C612.858 403.502 612.99 403.687 613.122 403.88C613.254 404.072 613.38 404.264 613.498 404.457C613.63 404.636 613.746 404.782 613.846 404.896C614.151 404.637 614.474 404.363 614.817 404.074C615.16 403.786 615.496 403.504 615.827 403.23C616.156 402.942 616.479 402.661 616.796 402.388C617.113 402.114 617.398 401.863 617.651 401.633C617.828 401.475 618.005 401.417 618.181 401.46C618.37 401.501 618.523 401.592 618.639 401.732C618.782 401.883 618.853 402.059 618.852 402.26C618.864 402.446 618.775 402.632 618.586 402.817C618.041 403.292 617.426 403.811 616.74 404.375C616.066 404.925 615.4 405.501 614.743 406.103C615.365 406.866 615.949 407.444 616.495 407.837C616.789 408.059 617.091 408.187 617.4 408.221C617.723 408.255 618.013 408.19 618.27 408.027C618.464 407.921 618.642 407.89 618.805 407.933C618.981 407.963 619.113 408.048 619.202 408.189ZM626.848 399.917L621.218 400.268L621.151 399.19L623.307 396.811C623.82 396.258 624.2 395.814 624.446 395.478C624.705 395.128 624.873 394.823 624.951 394.565C625.04 394.292 625.076 394.009 625.058 393.716C625.031 393.291 624.885 392.979 624.619 392.782C624.366 392.584 624.04 392.497 623.641 392.522C623.242 392.547 622.881 392.65 622.558 392.83C622.248 392.997 621.928 393.224 621.598 393.511L620.843 392.637C621.208 392.28 621.61 391.988 622.05 391.76C622.504 391.531 623.016 391.399 623.589 391.363C624.44 391.31 625.119 391.482 625.625 391.878C626.143 392.259 626.425 392.816 626.47 393.548C626.511 394.2 626.348 394.798 625.981 395.342C625.627 395.885 625.1 396.533 624.399 397.284L622.878 398.922L626.77 398.679L626.848 399.917ZM642.566 404.267C642.434 404.288 642.305 404.256 642.18 404.17C642.054 404.085 641.972 403.943 641.933 403.745C641.89 403.481 641.855 403.142 641.829 402.729C641.803 402.304 641.783 401.877 641.77 401.451C641.436 401.458 641.136 401.47 640.87 401.487C640.617 401.503 640.438 401.527 640.334 401.56C640.267 401.565 640.196 401.602 640.12 401.674C640.044 401.732 639.973 401.783 639.909 401.827C639.807 401.9 639.696 401.934 639.575 401.928C639.454 401.922 639.345 401.883 639.247 401.809C639.052 401.687 638.967 401.492 638.99 401.223C639.018 401.035 639.095 400.869 639.22 400.728C639.358 400.586 639.519 400.489 639.702 400.437C639.886 400.386 640.158 400.349 640.517 400.327C640.889 400.29 641.289 400.272 641.716 400.272C641.704 400.072 641.693 399.899 641.684 399.753C641.674 399.593 641.66 399.474 641.641 399.395C641.637 399.328 641.599 399.257 641.528 399.181C641.47 399.105 641.418 399.035 641.374 398.971C641.301 398.868 641.267 398.757 641.273 398.636C641.279 398.516 641.319 398.406 641.393 398.308C641.515 398.113 641.71 398.028 641.978 398.051C642.167 398.079 642.333 398.163 642.475 398.301C642.616 398.425 642.713 398.58 642.764 398.764C642.8 398.908 642.833 399.113 642.863 399.379C642.893 399.644 642.91 399.93 642.916 400.237C643.263 400.229 643.577 400.222 643.857 400.218C644.15 400.2 644.388 400.172 644.573 400.134C644.758 400.095 644.907 400.133 645.021 400.246C645.135 400.359 645.196 400.489 645.205 400.635C645.227 400.767 645.195 400.896 645.109 401.022C645.024 401.147 644.882 401.23 644.684 401.269C644.473 401.309 644.214 401.338 643.908 401.357C643.615 401.376 643.296 401.396 642.95 401.417C642.951 401.858 642.957 402.285 642.97 402.698C642.994 403.098 643.027 403.41 643.068 403.634C643.106 403.819 643.069 403.968 642.956 404.082C642.843 404.196 642.713 404.257 642.566 404.267ZM668.105 400.649C668.151 400.953 668.189 401.352 668.22 401.844C668.251 402.337 668.265 402.89 668.263 403.505C668.261 404.106 668.248 404.755 668.225 405.451C668.214 406.133 668.184 406.83 668.134 407.541C668.085 408.252 668.029 408.957 667.966 409.655C667.903 410.354 667.823 411.013 667.729 411.634C667.692 411.903 667.584 412.097 667.404 412.215C667.225 412.333 667.04 412.378 666.852 412.35C666.65 412.336 666.478 412.246 666.334 412.082C666.204 411.929 666.164 411.711 666.213 411.428C666.334 410.792 666.43 410.085 666.501 409.306C666.573 408.526 666.624 407.735 666.654 406.932C666.684 406.128 666.695 405.346 666.688 404.585C666.693 403.81 666.683 403.116 666.658 402.503C666.664 402.382 666.645 402.297 666.602 402.246C666.559 402.195 666.497 402.166 666.416 402.157C666.349 402.148 666.276 402.166 666.199 402.211C666.121 402.256 666.052 402.314 665.989 402.384C665.789 402.597 665.538 402.853 665.236 403.153C664.934 403.452 664.613 403.766 664.272 404.094C663.931 404.41 663.583 404.719 663.228 405.021C662.886 405.323 662.568 405.583 662.275 405.802C661.738 406.183 661.212 406.43 660.698 406.542C660.198 406.667 659.711 406.563 659.236 406.232C659.067 406.096 658.895 405.906 658.719 405.663C658.557 405.42 658.456 405.085 658.416 404.66C658.396 404.341 658.422 403.999 658.492 403.634C658.576 403.254 658.686 402.887 658.824 402.531C658.963 402.175 659.109 401.845 659.264 401.541C659.432 401.237 659.584 400.994 659.719 400.812C659.854 400.616 660.02 400.499 660.218 400.46C660.416 400.421 660.59 400.43 660.741 400.487C660.96 400.581 661.103 400.732 661.17 400.942C661.236 401.138 661.177 401.369 660.993 401.634C660.882 401.788 660.767 401.982 660.648 402.217C660.529 402.451 660.418 402.692 660.313 402.939C660.208 403.186 660.123 403.432 660.058 403.676C660.007 403.92 659.987 404.135 659.998 404.321C660.007 404.467 660.041 404.586 660.1 404.675C660.159 404.752 660.216 404.815 660.273 404.865C660.4 404.977 660.555 405.008 660.739 404.956C660.936 404.904 661.163 404.783 661.418 404.593C661.801 404.315 662.196 403.997 662.601 403.638C663.018 403.264 663.435 402.878 663.851 402.478C664.266 402.064 664.668 401.652 665.056 401.24C665.458 400.828 665.828 400.437 666.165 400.069C666.314 399.886 666.501 399.767 666.724 399.713C666.948 399.659 667.162 399.659 667.366 399.713C667.543 399.769 667.696 399.873 667.826 400.025C667.969 400.177 668.062 400.385 668.105 400.649ZM677.53 396.755L671.901 397.106L671.834 396.028L673.99 393.649C674.503 393.096 674.883 392.651 675.129 392.315C675.388 391.965 675.556 391.661 675.633 391.402C675.723 391.13 675.759 390.847 675.741 390.554C675.714 390.128 675.568 389.817 675.302 389.62C675.049 389.422 674.723 389.335 674.323 389.36C673.924 389.385 673.563 389.487 673.241 389.668C672.93 389.834 672.611 390.061 672.281 390.349L671.525 389.474C671.89 389.118 672.293 388.825 672.733 388.597C673.186 388.369 673.699 388.237 674.271 388.201C675.123 388.148 675.802 388.319 676.307 388.715C676.825 389.097 677.107 389.654 677.153 390.386C677.194 391.038 677.03 391.636 676.664 392.18C676.31 392.723 675.783 393.37 675.082 394.122L673.561 395.76L677.453 395.517L677.53 396.755ZM688.364 396.119C688.426 397.117 688.308 398.119 688.01 399.126C687.713 400.134 687.3 401.128 686.774 402.109C686.26 403.077 685.663 404.009 684.985 404.906C684.307 405.817 683.611 406.662 682.898 407.441C682.749 407.624 682.588 407.708 682.413 407.692C682.253 407.688 682.115 407.623 682 407.497C681.888 407.411 681.82 407.288 681.797 407.129C681.774 406.97 681.831 406.82 681.969 406.677C682.771 405.826 683.498 404.952 684.15 404.056C684.815 403.16 685.374 402.263 685.826 401.367C686.291 400.47 686.636 399.586 686.863 398.717C687.102 397.847 687.197 397.013 687.147 396.215C687.076 395.07 686.712 394.158 686.055 393.477C685.398 392.797 684.4 392.325 683.061 392.061C682.845 392.021 682.693 391.944 682.606 391.829C682.517 391.701 682.481 391.543 682.496 391.355C682.513 391.207 682.586 391.082 682.713 390.981C682.839 390.866 683.024 390.828 683.267 390.866C684.089 390.975 684.81 391.184 685.43 391.492C686.05 391.801 686.569 392.183 686.984 392.638C687.4 393.093 687.72 393.614 687.944 394.201C688.181 394.787 688.321 395.427 688.364 396.119ZM721.917 401.239C721.857 401.35 721.764 401.462 721.637 401.577C721.523 401.678 721.393 401.739 721.248 401.762C721.195 401.765 721.154 401.761 721.127 401.749C721.099 401.738 721.032 401.728 720.925 401.722C720.753 401.759 720.458 401.844 720.039 401.977C719.632 402.096 719.221 402.242 718.804 402.415C718.283 402.635 717.749 402.748 717.202 402.756C716.668 402.762 716.187 402.545 715.759 402.104C715.431 401.777 715.158 401.367 714.94 400.873C714.722 400.365 714.521 399.83 714.339 399.267C714.24 398.966 714.091 398.822 713.891 398.834C713.665 398.848 713.324 399.05 712.867 399.439C712.765 399.512 712.626 399.641 712.45 399.826C712.274 399.997 712.08 400.21 711.869 400.463C711.657 400.704 711.439 400.964 711.216 401.245C711.006 401.512 710.809 401.779 710.625 402.044C710.54 402.183 710.426 402.29 710.284 402.366C710.142 402.441 709.998 402.484 709.851 402.493C709.705 402.502 709.556 402.478 709.406 402.42C709.255 402.35 709.134 402.244 709.045 402.102C708.849 401.74 708.663 401.331 708.488 400.875C708.326 400.417 708.161 400.033 707.995 399.723C707.891 399.556 707.741 399.498 707.544 399.551C707.305 399.579 707.07 399.774 706.839 400.136C706.645 400.455 706.418 400.777 706.157 401.1C705.909 401.41 705.662 401.726 705.415 402.048C705.217 402.301 705.016 402.608 704.811 402.968C704.606 403.314 704.431 403.619 704.287 403.882C704.167 404.103 704.002 404.241 703.792 404.294C703.582 404.36 703.388 404.359 703.21 404.29C703.06 404.233 702.933 404.134 702.831 403.993C702.729 403.852 702.664 403.676 702.638 403.464C702.585 403.04 702.536 402.575 702.491 402.07C702.445 401.552 702.407 401.047 702.376 400.555C702.358 400.048 702.342 399.575 702.328 399.135C702.313 398.695 702.304 398.335 702.3 398.054C702.31 397.787 702.385 397.588 702.524 397.459C702.676 397.33 702.845 397.259 703.031 397.247C703.23 397.222 703.414 397.27 703.582 397.393C703.75 397.517 703.835 397.705 703.837 397.959C703.845 398.506 703.855 399.1 703.868 399.74C703.894 400.366 703.938 400.965 704 401.535C704.073 401.424 704.159 401.292 704.256 401.139C704.353 400.972 704.469 400.811 704.607 400.656C704.793 400.431 704.979 400.192 705.163 399.94C705.347 399.675 705.525 399.423 705.697 399.185C705.906 398.892 706.175 398.601 706.504 398.313C706.834 398.025 707.169 397.838 707.511 397.749C707.814 397.677 708.103 397.699 708.377 397.816C708.664 397.918 708.921 398.182 709.148 398.609C709.271 398.869 709.395 399.141 709.52 399.428C709.644 399.714 709.746 399.948 709.824 400.13C709.858 400.248 709.916 400.311 709.996 400.32C710.076 400.315 710.153 400.263 710.227 400.165C710.338 400.024 710.462 399.87 710.599 399.701C710.749 399.531 710.898 399.362 711.048 399.192C711.211 399.021 711.368 398.858 711.518 398.702C711.669 398.545 711.801 398.41 711.914 398.296C712.783 397.454 713.537 397.013 714.176 396.973C714.534 396.937 714.842 397.045 715.098 397.296C715.353 397.534 715.55 397.902 715.688 398.401C715.813 398.901 715.977 399.399 716.182 399.894C716.399 400.374 716.622 400.741 716.852 400.994C717.051 401.195 717.264 401.289 717.49 401.275C717.716 401.247 717.933 401.194 718.141 401.114C718.376 401.019 718.617 400.924 718.865 400.828C719.126 400.732 719.381 400.642 719.63 400.56C719.892 400.477 720.134 400.402 720.357 400.334C720.593 400.266 720.798 400.22 720.97 400.196C721.302 400.162 721.573 400.225 721.783 400.386C722.063 400.595 722.108 400.88 721.917 401.239ZM729.048 400.033C729.282 399.711 729.335 399.387 729.208 399.061C729.094 398.734 728.877 398.474 728.558 398.28C728.358 398.292 728.119 398.314 727.841 398.344C727.575 398.361 727.321 398.37 727.081 398.372C726.708 398.395 726.405 398.354 726.171 398.248C725.95 398.128 725.867 397.967 725.921 397.763C725.852 397.727 725.778 397.725 725.7 397.757C725.635 397.787 725.551 397.826 725.447 397.873C725.179 398.076 724.905 398.394 724.624 398.826C724.344 399.257 724.18 399.735 724.133 400.259C724.053 400.905 724.122 401.369 724.34 401.649C724.572 401.955 724.935 402.093 725.427 402.062C725.814 402.051 726.159 402.01 726.462 401.937C726.777 401.851 727.051 401.747 727.284 401.626C727.621 401.458 727.941 401.231 728.243 400.944C728.546 400.658 728.814 400.354 729.048 400.033ZM731.551 397.432C731.558 397.538 731.538 397.646 731.491 397.756C731.445 397.866 731.37 397.951 731.267 398.01C731.044 398.091 730.747 398.143 730.374 398.166C730.461 398.268 730.543 398.41 730.621 398.592C730.713 398.773 730.766 398.984 730.781 399.223C730.809 399.462 730.786 399.724 730.71 400.009C730.647 400.293 730.505 400.583 730.283 400.877C729.605 401.788 728.846 402.463 728.005 402.903C727.643 403.099 727.258 403.244 726.85 403.336C726.441 403.428 726.005 403.496 725.54 403.538C724.33 403.64 723.475 403.319 722.975 402.576C722.576 401.973 722.457 401.132 722.617 400.053C722.672 399.649 722.768 399.262 722.905 398.893C723.055 398.51 723.24 398.157 723.461 397.836C723.681 397.515 723.93 397.226 724.208 396.968C724.486 396.71 724.779 396.492 725.089 396.312C725.372 396.147 725.674 396.062 725.994 396.055C726.314 396.035 726.615 396.143 726.896 396.379C727.014 396.332 727.146 396.304 727.292 396.295C727.437 396.272 727.564 396.271 727.672 396.291C727.9 396.303 728.144 396.362 728.405 396.466C728.664 396.556 728.878 396.67 729.047 396.806L730.704 396.703C730.944 396.688 731.141 396.756 731.298 396.906C731.467 397.056 731.552 397.231 731.551 397.432ZM743.77 397.932C743.819 398.303 743.757 398.594 743.584 398.805C743.422 399.002 743.228 399.108 743.002 399.122C742.843 399.132 742.68 399.102 742.516 399.032C742.364 398.961 742.236 398.836 742.131 398.655C741.971 398.438 741.783 398.216 741.569 397.989C741.367 397.748 741.14 397.535 740.888 397.35C740.649 397.165 740.393 397.02 740.119 396.917C739.846 396.814 739.576 396.771 739.31 396.787C739.07 396.802 738.807 396.872 738.521 396.997C738.234 397.108 737.949 397.253 737.667 397.431C737.384 397.609 737.109 397.813 736.843 398.043C736.577 398.274 736.344 398.502 736.144 398.728C736.007 398.884 735.91 399.043 735.854 399.207C735.797 399.371 735.773 399.513 735.78 399.633C735.807 399.845 735.925 400.031 736.136 400.192C736.346 400.352 736.647 400.474 737.04 400.556C737.257 400.609 737.54 400.652 737.89 400.683C738.238 400.702 738.625 400.697 739.051 400.671C739.476 400.631 739.92 400.57 740.382 400.488C740.844 400.392 741.303 400.25 741.758 400.061C741.967 399.981 742.154 399.983 742.32 400.066C742.499 400.148 742.633 400.274 742.724 400.442C742.802 400.624 742.814 400.81 742.759 401.001C742.704 401.191 742.527 401.349 742.227 401.475C741.693 401.695 741.162 401.855 740.634 401.955C740.106 402.055 739.596 402.12 739.103 402.15C738.624 402.18 738.183 402.181 737.781 402.153C737.379 402.138 737.036 402.106 736.753 402.057C735.929 401.908 735.29 401.634 734.838 401.234C734.399 400.834 734.156 400.362 734.108 399.817C734.045 399.233 734.281 398.617 734.815 397.969C735.05 397.674 735.339 397.376 735.68 397.074C736.036 396.771 736.412 396.494 736.811 396.242C737.208 395.977 737.616 395.757 738.032 395.584C738.461 395.397 738.869 395.292 739.255 395.268C739.574 395.248 739.863 395.27 740.121 395.334C740.378 395.385 740.616 395.463 740.837 395.57C741.071 395.675 741.278 395.796 741.461 395.932C741.656 396.066 741.838 396.195 742.006 396.318C741.91 395.643 741.806 394.941 741.694 394.214C741.581 393.473 741.462 392.745 741.337 392.032C741.226 391.317 741.11 390.636 740.99 389.989C740.868 389.329 740.751 388.742 740.639 388.228C740.569 387.965 740.596 387.75 740.719 387.582C740.855 387.399 741.015 387.289 741.199 387.251C741.383 387.199 741.565 387.228 741.746 387.337C741.939 387.432 742.064 387.625 742.123 387.915C742.239 388.495 742.377 389.208 742.537 390.053C742.696 390.898 742.852 391.784 743.003 392.709C743.167 393.634 743.312 394.56 743.437 395.488C743.574 396.401 743.685 397.216 743.77 397.932ZM570.521 427.619C570.669 428.05 570.763 428.592 570.803 429.244C570.856 429.882 570.871 430.549 570.848 431.245C570.837 431.927 570.793 432.605 570.714 433.278C570.635 433.937 570.53 434.505 570.4 434.98C570.227 435.646 569.935 436.198 569.521 436.638C569.107 437.065 568.621 437.302 568.063 437.351C567.716 437.359 567.35 437.281 566.966 437.118C566.583 436.969 566.185 436.693 565.772 436.291C565.135 435.703 564.496 435.001 563.858 434.186C563.231 433.357 562.634 432.459 562.066 431.493C562.045 432.015 562.025 432.551 562.006 433.1C562 433.648 561.993 434.176 561.985 434.684C561.976 435.179 561.978 435.646 561.992 436.086C562.006 436.526 562.036 436.898 562.082 437.203C562.118 437.347 562.152 437.472 562.185 437.577C562.219 437.682 562.29 437.751 562.399 437.784C562.589 437.839 562.716 437.938 562.778 438.081C562.855 438.237 562.864 438.39 562.807 438.54C562.749 438.691 562.657 438.817 562.53 438.918C562.417 439.032 562.259 439.082 562.058 439.068C561.643 439.054 561.321 438.92 561.091 438.667C560.875 438.414 560.742 438.101 560.692 437.73C560.608 437.241 560.55 436.63 560.518 435.898C560.498 435.151 560.49 434.376 560.493 433.575C560.509 432.759 560.533 431.962 560.564 431.186C560.609 430.408 560.654 429.737 560.699 429.173C560.624 429.031 560.534 428.876 560.43 428.709C560.338 428.528 560.267 428.345 560.215 428.161C560.177 427.977 560.194 427.815 560.265 427.677C560.336 427.526 560.436 427.413 560.565 427.338C560.707 427.262 560.852 427.227 560.999 427.231C561.159 427.234 561.297 427.299 561.412 427.426C561.484 427.515 561.55 427.611 561.61 427.714C561.669 427.804 561.728 427.893 561.787 427.983C562.002 427.997 562.155 428.094 562.246 428.275C562.338 428.457 562.351 428.663 562.285 428.894C562.527 429.346 562.813 429.856 563.142 430.424C563.47 430.978 563.826 431.543 564.21 432.12C564.606 432.697 565.022 433.252 565.456 433.786C565.903 434.319 566.353 434.779 566.804 435.165C567.045 435.377 567.261 435.524 567.453 435.605C567.658 435.673 567.833 435.695 567.978 435.673C568.257 435.642 568.468 435.502 568.613 435.252C568.757 434.989 568.869 434.742 568.948 434.51C569.026 434.265 569.103 433.892 569.179 433.393C569.254 432.894 569.315 432.363 569.36 431.799C569.404 431.222 569.422 430.653 569.413 430.092C569.404 429.519 569.361 429.034 569.283 428.638C569.061 428.505 568.954 428.304 568.964 428.036C568.965 427.823 569.02 427.645 569.132 427.505C569.243 427.364 569.377 427.256 569.532 427.179C569.714 427.101 569.901 427.096 570.092 427.164C570.297 427.232 570.44 427.383 570.521 427.619Z" fill="#D0C3B4"/>
<path d="M363.591 489.508C361.315 482.335 357.98 471.856 356.18 466.222C353.456 457.694 352.78 454.388 352.146 446.494C351.728 441.279 351.581 436.816 351.821 436.577C352.316 436.082 426.61 423.105 426.958 423.453C427.083 423.577 431.021 433.903 435.711 446.399L444.238 469.119L444.645 478.813L445.053 488.507L443.29 488.912C441.239 489.383 368.643 502.549 368.096 502.549C367.895 502.549 365.867 496.681 363.591 489.508ZM407.955 494.019L443.477 487.572L443.238 478.346L442.998 469.119L434.629 447.078C430.025 434.955 426.191 424.951 426.109 424.847C426.027 424.743 409.781 427.469 390.008 430.904C370.234 434.339 353.78 437.151 353.443 437.154C353.106 437.154 353.044 440.878 353.307 445.424C353.757 453.222 354.205 455.035 361.227 477.449C368.637 501.101 368.679 501.206 370.552 500.836C371.586 500.632 388.418 497.565 407.955 494.019ZM134.353 302.514C71.806 239.177 58.6818 225.545 58.4974 223.722C58.3748 222.51 57.8771 218.82 57.3914 215.524L56.5084 209.53L44.2121 197.255L31.9158 184.98L32.9075 190.759C33.4529 193.937 34.0941 197.339 34.3324 198.318C34.5707 199.298 39.2993 204.753 44.8403 210.441C55.3224 221.201 57.9579 224.089 57.2953 224.089C57.0793 224.089 45.933 212.874 32.5257 199.167L8.1487 174.246L3.85327 149.757C1.49077 136.289 -0.231766 125.055 0.0254423 124.793C0.282651 124.532 13.5024 120.463 29.4028 115.752L58.3125 107.187L61.3778 109.765C63.0638 111.183 68.7433 116.3 73.9989 121.137C79.2546 125.973 83.6464 129.681 83.7585 129.376C83.8707 129.072 82.4541 118.6 80.6106 106.106C78.7671 93.612 77.1869 82.6144 77.099 81.6667C76.953 80.0926 77.5432 79.7668 83.9222 77.8984C87.7629 76.7734 100.627 73.0027 112.51 69.519C124.393 66.0353 134.626 63.1849 135.25 63.1849C135.874 63.1849 137.087 63.8446 137.945 64.651L139.507 66.117L153.429 62.0051C161.086 59.7436 167.545 57.7751 167.783 57.6309C168.02 57.4867 167.782 53.8175 167.255 49.4772C166.727 45.1369 166.368 41.5239 166.456 41.4483C166.602 41.3228 206.498 29.6355 216.393 26.8196L220.596 25.6233L228.707 31.6087L236.818 37.5939L248.761 34.1332C255.329 32.2298 263.761 29.7558 267.497 28.6351L274.291 26.5975L285.139 34.3315C291.105 38.5851 297.606 43.2438 299.585 44.6844L303.184 47.3035L302.699 41.4681C301.595 28.202 300.817 15.1304 301.113 14.8348C301.615 14.333 350.995 -0.000827954 352.219 3.587e-08C352.825 0.000414031 357.787 2.97542 363.244 6.61118C368.702 10.2469 373.646 13.2221 374.231 13.2227C374.816 13.2227 381.928 17.5854 390.035 22.9164C398.142 28.2474 404.877 32.6749 405.001 32.7553C405.126 32.8357 405.423 35.9131 405.662 39.5939C405.9 43.2747 406.39 46.2862 406.75 46.2862C407.111 46.2862 413.724 44.318 421.446 41.9124C437.402 36.9418 435.181 36.8095 444.836 43.3072C447.868 45.3478 451.031 47.0181 451.865 47.0191C452.699 47.0191 456.317 46.0291 459.905 44.8168C463.493 43.6045 466.92 42.6127 467.52 42.6127C468.534 42.6127 485.293 52.9439 497.552 61.1259L502.858 64.6666L503.065 72.8963L503.273 81.1259L520.914 92.5751L538.556 104.024L538.923 128.895L539.291 153.766L541.274 155.245L543.258 156.725L559.151 151.055C567.892 147.937 575.457 145.488 575.961 145.614C576.464 145.739 585.42 151.454 595.862 158.313L614.846 170.785L614.461 196.37C614.249 210.441 613.917 222.112 613.724 222.305C613.486 222.543 247.578 364.65 210.72 378.819C210.316 378.975 175.95 344.637 134.353 302.514ZM241.395 365.468C257.675 359.174 271.277 353.75 271.623 353.415C272.233 352.823 271.187 338.286 270.484 337.583C270.111 337.211 210.39 359.852 209.389 360.746C208.631 361.422 210.342 376.912 211.175 376.912C211.516 376.912 225.115 371.762 241.395 365.468ZM208.189 367.572L207.307 360.38L192.113 345.135C183.757 336.75 176.721 329.889 176.478 329.889C176.235 329.889 176.496 333.278 177.057 337.42L178.079 344.951L193.263 360.169C201.614 368.539 208.587 375.247 208.759 375.076C208.93 374.904 208.674 371.528 208.189 367.572ZM239.401 347.57C256.254 341.13 270.171 335.733 270.327 335.577C270.484 335.42 270.238 331.618 269.78 327.128L268.949 318.964L266.296 320.003C264.838 320.575 250.955 325.825 235.447 331.67C219.938 337.515 207.106 342.44 206.931 342.615C206.612 342.934 208.223 359.278 208.573 359.278C208.676 359.278 222.548 354.009 239.401 347.57ZM206.3 351.747C206.008 348.414 205.395 344.694 204.937 343.482C204.468 342.241 197.402 334.695 188.768 326.216C175.943 313.619 173.502 311.515 173.86 313.358C174.094 314.57 174.635 318.207 175.06 321.44L175.833 327.318L191.065 342.563C199.442 350.948 206.416 357.809 206.563 357.809C206.71 357.809 206.592 355.081 206.3 351.747ZM304.991 340.79L333.842 329.627L333.756 325.901C333.709 323.851 333.461 320.159 333.205 317.695L332.739 313.215L303.705 324.332C287.736 330.446 274.336 335.655 273.929 335.909C272.904 336.545 274.255 351.927 275.337 351.942C275.779 351.948 289.123 346.929 304.991 340.79ZM175.087 334.441L174.195 327.165L159.217 312.207C142.391 295.404 143.925 295.891 145.947 307.996L146.77 312.92L161.011 327.681C168.843 335.8 175.415 342.279 175.615 342.079C175.815 341.879 175.577 338.442 175.087 334.441ZM237.816 329.34L268.587 317.766L268.084 310.052C267.807 305.809 267.294 302.043 266.943 301.684C266.574 301.305 253.368 305.835 235.572 312.445L204.839 323.859L204.993 329.997C205.161 336.731 204.188 335.355 203.359 327.685L202.922 323.644L187.043 308.224C172.424 294.026 171.202 293.007 171.627 295.366C171.881 296.776 172.305 300.243 172.569 303.072L173.049 308.215L189.29 324.563C198.223 333.554 205.872 340.911 206.288 340.912C206.704 340.912 220.892 335.706 237.816 329.34ZM302.35 323.104C318.458 316.948 331.617 311.741 331.592 311.532C331.541 311.111 302.212 285.267 300.04 283.731C298.84 282.882 296.567 283.529 282.257 288.788C273.233 292.105 265.708 294.944 265.535 295.096C265.363 295.248 266.074 296.278 267.117 297.385C268.925 299.306 269.089 300.201 270.674 316.848C271.587 326.445 272.499 334.298 272.699 334.298C272.9 334.298 286.243 329.261 302.35 323.104ZM365.082 317.522L393.014 306.663L393.255 303.031C393.387 301.033 393.284 297.385 393.025 294.924L392.555 290.45L364.25 301.282C348.682 307.24 335.789 312.269 335.599 312.459C335.102 312.956 336.177 328.424 336.707 328.4C336.951 328.389 349.719 323.494 365.082 317.522ZM171.994 308.399C170.885 299.812 169.967 292.29 169.955 291.684C169.939 290.902 175.28 288.682 188.326 284.049C198.442 280.456 206.884 277.249 207.086 276.922C207.288 276.595 206.846 276.003 206.104 275.606C205.062 275.049 198.234 277.214 176.129 285.114C160.386 290.74 147.026 295.526 146.442 295.75C145.716 296.027 149.798 300.579 159.298 310.084C166.954 317.744 173.396 324.012 173.615 324.012C173.833 324.012 173.104 316.986 171.994 308.399ZM239.387 309.304C253.941 303.926 266.015 299.385 266.217 299.213C266.419 299.04 264.941 297.524 262.933 295.843C260.924 294.161 253.565 287.555 246.579 281.163L233.877 269.54L203.555 280.381C186.877 286.344 173.071 291.349 172.875 291.504C172.678 291.658 179.625 298.666 188.311 307.076L204.104 322.367L208.515 320.725C210.94 319.822 224.833 314.683 239.387 309.304ZM143.589 303.147L142.523 295.507L128.659 281.663C113.498 266.525 114.187 266.783 115.609 276.776L116.424 282.5L130.487 296.643C138.222 304.422 144.574 310.787 144.602 310.787C144.631 310.787 144.175 307.349 143.589 303.147ZM365.082 299.571C380.04 293.87 392.399 289.119 392.546 289.014C392.693 288.909 392.528 285.219 392.179 280.813L391.544 272.802L362.877 283.628L334.21 294.454L334.419 300.967C334.695 309.589 335.037 311.052 336.629 310.428C337.32 310.157 350.124 305.272 365.082 299.571ZM333.075 301.998C332.574 296.233 332.085 294.025 331.104 293.089C326.467 288.671 299.794 265.959 299.54 266.213C299.368 266.384 299.458 269.565 299.738 273.28C300.078 277.775 300.642 280.509 301.425 281.449C302.7 282.98 333.388 310.009 333.608 309.794C333.681 309.722 333.441 306.214 333.075 301.998ZM424.332 294.543C439.045 288.841 451.129 284.13 451.185 284.073C451.241 284.016 451.075 280.457 450.817 276.165L450.349 268.361L423.519 278.6C408.763 284.232 396.412 289.112 396.074 289.445C395.343 290.163 396.269 304.909 397.045 304.909C397.339 304.909 409.618 300.244 424.332 294.543ZM174.631 283.553C190.359 277.933 203.365 273.198 203.532 273.03C203.834 272.729 202.276 257.724 201.899 257.299C201.632 256.998 142.462 277.795 141.954 278.369C141.73 278.62 142.022 282.399 142.601 286.766C143.501 293.552 143.827 294.638 144.844 294.239C145.499 293.982 158.903 289.173 174.631 283.553ZM281.285 287.092C290.18 283.831 297.521 281.124 297.599 281.076C297.87 280.912 296.298 265.668 295.977 265.347C295.8 265.169 285.338 268.772 272.73 273.353L249.805 281.682L256.357 287.765C260.554 291.662 263.305 293.7 264.012 293.435C264.618 293.207 272.391 290.353 281.285 287.092ZM141.187 285.485L140.263 278.426L126.259 264.528C118.556 256.884 112.178 250.705 112.086 250.798C111.993 250.891 112.409 254.259 113.009 258.284L114.102 265.601L127.829 279.35C135.379 286.912 141.681 292.974 141.834 292.822C141.986 292.669 141.695 289.367 141.187 285.485ZM362.877 282.242L391.544 271.407L391.296 263.728C391.16 259.505 390.829 255.828 390.561 255.558C390.293 255.287 377.088 259.885 361.215 265.775L332.357 276.485L332.847 282.362C333.211 286.728 333.119 288.104 332.487 287.714C332.02 287.425 331.604 285.307 331.564 283.007C331.523 280.708 331.275 278.104 331.012 277.222C330.749 276.34 323.128 269.268 314.076 261.506L297.618 247.393L298.129 254.293C298.41 258.088 298.806 261.76 299.009 262.452C299.364 263.667 332.818 293.193 333.751 293.115C334.003 293.094 347.11 288.201 362.877 282.242ZM436.015 272.401L450.349 266.915L450.082 259.278C449.935 255.078 449.694 251.51 449.546 251.35C449.398 251.19 437.037 255.654 422.078 261.269L394.879 271.479L394.866 276.336C394.858 279.007 395.055 282.677 395.304 284.491L395.757 287.789L408.719 282.838C415.848 280.114 428.132 275.418 436.015 272.401ZM481.404 272.374L506.578 262.662V254.774V246.886L502.719 248.338C500.597 249.137 488.606 253.716 476.073 258.513L453.286 267.236L453.044 270.46C452.911 272.233 453.022 275.774 453.292 278.329C453.705 282.24 453.976 282.905 455.005 282.53C455.677 282.285 467.555 277.715 481.401 272.374H481.404ZM113.56 272.948L112.493 265.601L99.4942 252.542C85.1194 238.101 85.2967 238.164 87.0396 248.102L87.965 253.379L101.104 267.052C108.33 274.572 114.329 280.629 114.434 280.51C114.54 280.392 114.146 276.989 113.56 272.948ZM273.02 271.872L296.186 263.448L295.818 259.014C295.616 256.575 295.24 252.894 294.983 250.832L294.516 247.084L265.166 257.638C249.023 263.443 235.712 268.295 235.587 268.42C235.185 268.821 248.69 280.749 249.284 280.518C249.597 280.395 260.278 276.505 273.02 271.872ZM171.394 266.343C187.363 260.76 200.726 255.929 201.089 255.608C201.682 255.083 200.46 240.407 199.765 239.712C199.616 239.563 185.87 244.156 169.219 249.919L138.946 260.397L139.337 262.632C139.552 263.861 139.926 267.016 140.167 269.642C140.779 276.283 139.477 273.75 138.467 266.336L137.667 260.458L123.865 246.721C116.273 239.165 109.921 233.124 109.749 233.296C109.577 233.468 109.843 236.674 110.339 240.421L111.243 247.233L126.066 262.119C134.219 270.306 141.22 276.89 141.624 276.75C142.029 276.61 155.425 271.927 171.394 266.343ZM215.532 274.304L220.796 272.354L213.553 265.524C209.569 261.767 206.061 258.678 205.758 258.658C205.043 258.61 205.091 260.685 205.961 267.387C206.47 271.303 207.123 273.328 208.272 274.55C209.153 275.488 209.962 276.255 210.071 276.255C210.179 276.255 212.637 275.377 215.532 274.304ZM362.036 264.046L390.982 253.307L390.678 246.597C390.154 235.026 391.661 237.065 372.415 221.889C362.938 214.416 354.93 208.224 354.62 208.13C354.31 208.036 341.156 212.541 325.389 218.142L296.722 228.324L296.958 235.35C297.088 239.214 297.429 243.254 297.716 244.326C298.069 245.645 303.575 250.87 314.754 260.493C323.837 268.313 331.679 274.728 332.179 274.748C332.68 274.768 346.115 269.953 362.036 264.046ZM227.722 269.947C230.499 268.903 232.86 267.96 232.969 267.852C233.078 267.744 227.785 262.755 221.208 256.767C214.631 250.778 207.803 244.53 206.036 242.882L202.822 239.886L203.242 243.559C203.473 245.58 203.879 249.111 204.145 251.407L204.628 255.58L213.432 263.713C218.275 268.186 222.335 271.846 222.455 271.846C222.575 271.846 224.945 270.992 227.722 269.947ZM422.644 259.672L450.069 249.437L449.57 241.723C449.296 237.48 448.955 233.88 448.812 233.723C448.67 233.566 436.217 238.011 421.14 243.6L393.727 253.762L393.692 262.096C393.668 267.669 393.915 270.342 394.438 270.168C394.868 270.025 407.561 265.301 422.644 259.672ZM263.388 256.844C278.487 251.422 291.679 246.663 292.703 246.269L294.566 245.554L293.915 237.577C293.557 233.189 293.176 229.505 293.068 229.39C292.96 229.275 279.42 233.903 262.979 239.676L233.085 250.172L233.51 253.846C233.744 255.866 234.116 258.759 234.337 260.274C234.57 261.873 234.433 263.03 234.011 263.03C233.611 263.03 233.068 260.963 232.805 258.438C232.542 255.912 232.154 252.942 231.942 251.838C231.664 250.383 227.386 246.06 216.395 236.124C208.055 228.585 201.137 222.711 201.021 223.07C200.905 223.428 201.22 226.921 201.722 230.831L202.634 237.941L218.411 252.322C227.089 260.232 234.581 266.703 235.061 266.703C235.542 266.703 248.289 262.267 263.388 256.844ZM482.324 254.662L506.213 245.539L506.022 237.99C505.917 233.839 505.719 230.331 505.583 230.194C505.447 230.058 494.286 234.118 480.782 239.216C467.278 244.315 455.32 248.815 454.208 249.217C451.946 250.035 451.761 251.44 452.661 260.962L453.125 265.875L455.78 264.831C457.24 264.256 469.185 259.68 482.324 254.662ZM111.059 255.435L110.145 248.449L96.6661 234.991C89.2527 227.589 83.1929 222.025 83.2 222.627C83.2071 223.229 83.6995 226.691 84.2944 230.319L85.3759 236.916L98.397 249.946C105.559 257.112 111.543 262.851 111.696 262.698C111.849 262.545 111.562 259.277 111.059 255.435ZM534.282 251.92C547.953 246.618 559.398 242.043 559.716 241.754C560.034 241.465 560.199 237.889 560.083 233.809L559.872 226.39L534.513 236.093L509.154 245.796L508.945 253.678C508.83 258.013 508.892 261.56 509.082 261.56C509.272 261.56 520.612 257.222 534.282 251.92ZM182.42 243.934L198.959 238.203L198.805 232.432C198.72 229.258 198.389 225.479 198.07 224.035L197.489 221.41L167.103 231.75L136.717 242.09L137.163 246.131C137.408 248.354 137.817 251.792 138.072 253.773C138.366 256.056 138.271 257.211 137.814 256.928C137.417 256.683 136.678 253.229 136.171 249.253L135.249 242.024L121.314 228.559C113.65 221.153 107.242 215.23 107.075 215.397C106.908 215.564 107.26 218.993 107.856 223.017L108.941 230.334L123.801 244.722L138.661 259.11L152.271 254.388C159.757 251.791 173.324 247.087 182.42 243.934ZM425.533 240.559L449.23 231.804L449.152 228.13C449.11 226.11 448.865 222.435 448.609 219.963L448.144 215.469L420.177 225.709L392.21 235.949L392.326 244.163C392.389 248.68 392.487 252.456 392.544 252.554C392.601 252.651 394.714 251.962 397.241 251.023C399.768 250.083 412.499 245.374 425.533 240.559ZM84.8992 243.927L83.8147 236.947L71.2232 224.3C64.298 217.344 58.5424 211.742 58.4331 211.851C58.3239 211.96 58.7541 215.172 59.3892 218.988L60.544 225.926L73.1174 238.573C80.0328 245.529 85.7567 251.15 85.8372 251.064C85.9177 250.977 85.4956 247.766 84.8992 243.927ZM262.541 238.468L292.311 227.9L292.101 219.943C291.985 215.567 291.655 211.78 291.366 211.528C290.647 210.899 231.279 231.758 231.393 232.6C232.139 238.09 232.312 243.192 231.752 243.192C231.371 243.192 230.831 240.759 230.552 237.785C230.274 234.811 229.832 232.049 229.571 231.648C228.902 230.622 199.105 204.228 198.875 204.458C198.771 204.562 199.066 208.074 199.532 212.263L200.377 219.879L216.574 234.467C225.483 242.49 232.772 249.05 232.772 249.045C232.772 249.039 246.168 244.28 262.541 238.468ZM480.005 238.04L505.846 228.282V220.229C505.846 214.094 505.627 212.258 504.927 212.519C504.422 212.708 492.596 217.08 478.649 222.235C464.701 227.39 453.083 231.817 452.832 232.073C452.58 232.329 452.168 236.131 451.915 240.522C451.482 248.037 451.534 248.485 452.81 248.152C453.555 247.957 465.793 243.406 480.005 238.04ZM108.449 238.094C107.878 234.279 107.246 230.973 107.045 230.746C105.226 228.701 80.6263 204.362 80.5028 204.486C80.4135 204.575 80.8651 208.048 81.5063 212.204L82.6722 219.76L95.9134 232.58C103.196 239.632 109.229 245.317 109.32 245.215C109.412 245.112 109.019 241.908 108.449 238.094ZM532.792 235.08C559.061 225.151 559.805 224.857 559.416 224.544C559.263 224.421 551.217 218.759 541.536 211.962L523.935 199.603L518.014 201.69C514.758 202.838 510.969 204.24 509.595 204.805L507.096 205.833L507.573 214.709C507.836 219.591 508.051 228.162 508.051 233.756C508.051 239.365 508.35 243.927 508.719 243.927C509.086 243.927 519.919 239.946 532.792 235.08ZM166.707 230.251C182.829 224.75 196.292 219.996 196.627 219.688C196.961 219.379 196.183 218.379 194.899 217.464C193.614 216.55 186.93 210.758 180.045 204.594L167.527 193.385L164.499 194.371C141.591 201.832 109.126 212.604 108.585 212.923C107.803 213.385 135.278 240.194 136.57 240.23C137.024 240.243 150.586 235.752 166.707 230.251ZM588.552 230.854L612.797 221.454L613.007 213.896C613.176 207.795 613.023 206.385 612.211 206.58C611.657 206.714 600.4 210.956 587.194 216.007L563.183 225.191V232.722C563.183 236.864 563.435 240.253 563.746 240.253C564.056 240.253 575.219 236.023 588.554 230.854H588.552ZM82.1546 226.246C81.3022 220.953 80.6756 219.069 79.3647 217.855C78.435 216.994 72.6795 211.422 66.5748 205.472L55.4753 194.654L56.7337 202.098L57.992 209.543L70.4038 221.965C77.2303 228.797 82.9143 234.092 83.0348 233.73C83.1554 233.369 82.7593 230.001 82.1546 226.246ZM420.579 224.162L448.144 214.015L447.963 206.075C447.864 201.708 447.632 197.985 447.449 197.802C447.266 197.619 435.439 201.684 421.168 206.837C406.896 211.99 394.393 216.495 393.382 216.849C391.587 217.477 391.55 217.636 391.803 223.73C392.148 232.014 390.812 231.891 389.979 223.562L389.339 217.157L372.433 203.848L355.526 190.54L355.327 193.171C355.217 194.618 355.382 198.2 355.694 201.13L356.261 206.459L373.535 220.365C383.036 228.013 391.305 234.28 391.912 234.29C392.518 234.301 405.418 229.743 420.579 224.162ZM261.806 219.846L290.841 209.727L290.586 201.295C290.446 196.658 290.247 192.775 290.144 192.666C290.041 192.558 277.255 196.773 261.731 202.034C246.208 207.295 232.68 211.862 231.669 212.182C229.866 212.753 229.836 212.886 230.073 219.24C230.24 223.739 230.073 225.567 229.521 225.227C229.085 224.958 228.729 223.646 228.729 222.311C228.729 220.977 228.514 218.317 228.251 216.399C227.776 212.939 227.659 212.813 212.337 199.386C203.847 191.946 196.801 185.959 196.679 186.081C196.557 186.203 196.902 189.721 197.445 193.898C198.603 202.792 196.654 200.328 216.6 218.135C224.995 225.629 231.006 230.476 231.669 230.284C232.275 230.108 245.837 225.411 261.806 219.846ZM479.081 220.664L506.055 210.626L505.582 202.908C505.322 198.662 505.003 195.082 504.872 194.952C504.742 194.821 495.728 197.977 484.843 201.965C473.957 205.953 461.864 210.285 457.97 211.59L450.89 213.965L450.943 222.333C450.972 226.936 451.246 230.702 451.551 230.702C451.857 230.702 464.245 226.185 479.081 220.664ZM105.994 220.283L105.135 213.436L91.7879 200.44C84.4469 193.292 78.3201 187.565 78.1728 187.712C78.0256 187.859 78.3216 191.062 78.8306 194.83L79.7561 201.68L93.0489 214.644C100.36 221.774 106.456 227.5 106.597 227.368C106.737 227.237 106.466 224.049 105.994 220.283ZM310.136 222.105C317.919 219.38 324.286 216.929 324.286 216.657C324.286 215.118 321.018 215.725 311.63 219.008C295.94 224.495 294.884 224.937 294.884 226.026C294.884 226.577 295.132 227.035 295.435 227.044C295.738 227.052 302.354 224.83 310.136 222.105ZM560.083 207.503C559.563 207.009 551.53 201.274 542.231 194.758L525.325 182.91L525.113 190.036C524.962 195.114 525.173 197.433 525.848 198.104C526.369 198.621 534.403 204.442 543.701 211.039L560.608 223.034L560.818 215.717C560.97 210.473 560.761 208.145 560.083 207.503ZM588.689 214.021L613.164 204.687V197.122C613.164 192.961 612.996 189.557 612.791 189.557C612.586 189.557 601.34 193.737 587.799 198.847L563.18 208.136V215.745C563.18 219.93 563.413 223.354 563.697 223.354C563.982 223.354 575.228 219.154 588.689 214.021ZM308.346 218.117L321.44 213.589L321 208.736C320.759 206.068 320.389 202.498 320.18 200.804L319.799 197.724L306.79 202.214C299.635 204.683 293.665 206.791 293.524 206.898C293.07 207.242 294.306 222.619 294.788 222.632C295.043 222.64 301.144 220.607 308.346 218.117ZM79.6088 209.762L78.3863 202.415L65.9018 190.164C59.0354 183.426 53.3258 178.163 53.2139 178.467C53.102 178.772 53.476 181.928 54.045 185.48L55.0797 191.938L67.8125 204.681C74.8156 211.689 80.6097 217.353 80.6883 217.266C80.7669 217.18 80.2812 213.803 79.6088 209.762ZM198.589 216.191C198.589 214.568 197.033 201.741 196.811 201.503C196.598 201.277 185.114 205.081 184.625 205.54C184.091 206.041 196.583 217.465 197.672 217.471C198.178 217.471 198.59 216.898 198.589 216.191ZM333.26 213.987C336.408 212.875 338.985 211.758 338.986 211.505C338.986 210.913 323.389 198.291 323.061 198.619C322.926 198.754 323.032 201.916 323.296 205.644C323.654 210.687 324.139 212.882 325.188 214.215C325.964 215.201 326.809 216.007 327.067 216.007C327.325 216.007 330.112 215.098 333.26 213.987ZM419.66 205.646C434.719 200.232 447.04 195.607 447.041 195.369C447.041 195.131 446.297 194.597 445.387 194.182C444.478 193.768 436.567 188.094 427.807 181.574L411.882 169.72L388.849 177.698C376.182 182.087 363.599 186.407 360.887 187.299L355.957 188.921L373.361 202.481C382.933 209.939 391.106 215.916 391.522 215.765C391.939 215.613 404.6 211.06 419.66 205.646ZM477.858 202.813C492.14 197.576 503.976 193.141 504.161 192.956C504.346 192.77 502.733 191.488 500.578 190.107C498.422 188.725 490.421 183.099 482.799 177.606L468.94 167.617L458.542 171.306C452.823 173.334 444.257 176.356 439.507 178.021C434.756 179.685 430.886 181.226 430.907 181.445C430.927 181.664 435.144 184.983 440.279 188.822L449.614 195.802L449.822 204.068C449.974 210.141 450.277 212.334 450.961 212.334C451.473 212.334 463.577 208.049 477.858 202.813ZM136.375 201.592L166.409 191.586L166 188.918C165.776 187.451 165.371 184.225 165.101 181.749C164.83 179.273 164.36 176.843 164.055 176.351C163.647 175.691 155.859 177.913 134.554 184.766C118.633 189.888 105.193 194.208 104.688 194.366C103.544 194.725 103.555 195.656 104.804 203.884C105.356 207.521 105.661 210.745 105.48 211.048C105.3 211.351 105.42 211.599 105.747 211.599C106.074 211.599 119.856 207.096 136.375 201.592ZM259.234 201.29C275.001 195.922 288.174 191.292 288.509 191.001C288.843 190.71 288.016 189.703 286.671 188.763C285.326 187.823 278.161 182.079 270.748 175.999C263.335 169.919 256.885 164.977 256.414 165.016C255.539 165.09 198.49 183.822 197.897 184.23C197.718 184.354 198.865 185.52 200.447 186.822C202.03 188.124 209.101 194.244 216.161 200.421C223.222 206.598 229.352 211.517 229.783 211.352C230.214 211.187 243.467 206.659 259.234 201.29ZM349.156 208.327L354.056 206.663L353.831 197.48L353.606 188.298L360.447 185.87C364.209 184.535 370.016 182.473 373.352 181.287C376.687 180.102 379.249 178.862 379.046 178.532C378.842 178.202 372.639 180.036 365.263 182.606C357.886 185.177 345.647 189.357 338.064 191.896C330.482 194.434 324.362 196.737 324.466 197.014C324.569 197.291 328.439 200.522 333.064 204.195C339.195 209.063 341.852 210.754 342.866 210.432C343.631 210.19 346.462 209.242 349.156 208.327ZM103.251 202.22L102.092 194.707L88.5968 181.773C81.1744 174.659 75.1016 169.206 75.1016 169.654C75.1016 170.103 75.6017 173.577 76.213 177.374L77.3245 184.278L87.4226 194.138C98.1047 204.568 104.035 210.108 104.269 209.874C104.347 209.797 103.889 206.352 103.251 202.22ZM588.038 197.363L613.164 187.903V180.281C613.164 176.088 612.889 172.659 612.554 172.659C612.218 172.659 601.816 176.43 589.439 181.041C577.062 185.651 565.925 189.645 564.69 189.916L562.445 190.409V195.904C562.445 199.381 562.175 201.233 561.71 200.945C561.306 200.696 560.975 198.261 560.975 195.535V190.579L543.689 178.652C534.182 172.092 525.962 166.556 525.423 166.349C524.631 166.045 524.512 167.427 524.805 173.54C525.122 180.152 525.362 181.247 526.71 182.21C541.488 192.767 562.175 207.08 562.495 206.969C562.724 206.889 574.219 202.566 588.038 197.363ZM53.7977 192.088C52.5625 184.485 51.4606 178.172 51.3489 178.061C51.188 177.9 38.9959 181.629 33.9789 183.374C33.2677 183.621 36.6542 187.484 44.2347 195.073C50.4594 201.305 55.6628 206.293 55.7979 206.158C55.9329 206.023 55.0328 199.692 53.7977 192.088ZM307.38 200.633L319.508 196.359L319.299 189.835C318.954 179.04 320.583 179.57 304.442 185.007C294.442 188.376 290.631 189.965 291.122 190.56C291.5 191.019 292.048 194.452 292.339 198.19C292.774 203.775 293.081 204.979 294.06 204.947C294.715 204.925 300.709 202.983 307.38 200.633ZM189.648 201.966L196.511 199.681L195.989 192.719C195.702 188.891 195.426 185.208 195.375 184.535C195.305 183.599 197.393 182.623 204.279 180.373C209.227 178.757 213.279 177.215 213.284 176.946C213.29 176.678 210.123 173.733 206.249 170.402L199.205 164.345L182.727 169.756C170.615 173.733 166.256 175.467 166.275 176.3C166.29 176.924 166.717 180.58 167.225 184.425L168.148 191.416L171.792 194.76C173.797 196.6 176.925 199.479 178.745 201.16C180.564 202.84 182.217 204.223 182.418 204.233C182.619 204.243 185.873 203.223 189.648 201.966ZM515.034 200.711L522.385 197.909L522.183 190.653C522.072 186.663 521.853 183.27 521.696 183.114C521.412 182.829 505.645 188.455 503.726 189.525C502.965 189.95 503.289 190.436 505.012 191.453C507.258 192.779 507.316 192.947 507.316 198.165C507.316 201.108 507.399 203.516 507.5 203.515C507.601 203.515 510.991 202.252 515.034 200.711ZM76.9244 192.049L75.7709 184.781L63.124 172.562C56.1682 165.841 50.3791 160.429 50.2593 160.534C50.1394 160.64 50.5616 163.957 51.1973 167.906L52.3531 175.085L65.0137 187.382C71.977 194.145 77.7651 199.597 77.8761 199.498C77.9871 199.398 77.5589 196.047 76.9244 192.049ZM31.3641 190.193L30.1852 183.312L19.0495 172.134C12.9248 165.986 7.77378 161.095 7.60266 161.266C7.43148 161.437 7.72662 164.319 8.25849 167.669L9.22555 173.761L14.7612 179.638C24.9273 190.433 32.0207 197.597 32.2831 197.334C32.426 197.191 32.0124 193.978 31.3641 190.193ZM349.646 185.969C370.678 178.659 376.829 176.245 376.782 175.322C376.748 174.665 376.66 171.566 376.587 168.434C376.513 165.302 376.186 162.319 375.859 161.804C375.406 161.09 368.894 163.034 348.489 169.975L321.714 179.083L321.889 187.076C321.985 191.471 322.067 195.15 322.072 195.251C322.087 195.555 321.535 195.74 349.646 185.969ZM133.906 183.342C149.875 178.184 163.01 173.904 163.095 173.831C163.334 173.624 136.049 149.549 135.235 149.249C134.338 148.918 76.5965 166.979 76.5822 167.595C76.5591 168.586 103.238 193.311 104.024 193.027C104.49 192.859 117.937 188.501 133.906 183.342ZM588.277 179.809L612.271 170.949L600.773 163.497C594.449 159.399 586.214 153.988 582.474 151.474L575.672 146.903L551.601 155.495C538.362 160.221 527.303 164.28 527.025 164.515C526.178 165.234 561.958 189.549 563.18 189.086C563.787 188.856 575.08 184.681 588.277 179.809ZM304.342 183.679L318.496 178.904L317.992 170.822C317.715 166.377 317.425 162.663 317.347 162.569C317.045 162.202 275.04 176.487 275.073 176.946C275.127 177.695 289.109 188.916 289.683 188.671C289.96 188.552 296.557 186.306 304.342 183.679ZM512.312 184.752L522.017 181.255V173.39V165.525L505.152 171.588C495.876 174.923 487.889 177.784 487.403 177.946C486.917 178.108 489.793 180.605 493.794 183.496C497.794 186.386 501.414 188.637 501.838 188.499C502.261 188.361 506.975 186.675 512.312 184.752ZM46.618 177.416C51.3657 175.897 51.3607 175.91 50.09 168.569C48.7876 161.044 48.6924 160.79 47.3286 161.184C46.6346 161.385 42.2338 162.74 37.549 164.196L29.0312 166.842L29.931 171.771C30.4258 174.482 31.0434 177.911 31.3033 179.391L31.7759 182.083L37.0837 180.426C40.0029 179.514 44.2934 178.16 46.618 177.416ZM74.5982 175.414C74.0482 171.676 73.5229 168.153 73.431 167.585C73.31 166.838 79.8069 164.504 96.9551 159.136C109.985 155.056 120.57 151.5 120.477 151.232C120.16 150.321 108.681 140.388 108.245 140.648C108.007 140.79 95.2421 144.789 79.8794 149.535C64.5167 154.281 51.7818 158.314 51.5797 158.497C51.3267 158.726 74.5755 181.71 75.5337 182.178C75.5692 182.195 75.1482 179.152 74.5982 175.414ZM28.5017 172.914L27.4007 166.413L16.1867 155.603C10.019 149.657 4.85228 144.913 4.70513 145.06C4.55797 145.207 4.84446 148.088 5.34178 151.462L6.24607 157.597L17.6957 169.191C23.993 175.568 29.2482 180.477 29.374 180.1C29.4997 179.723 29.1072 176.489 28.5017 172.914ZM432.918 178.645C436.018 177.387 436.358 176.332 433.664 176.332C431.451 176.332 427.047 178.439 427.552 179.256C428.179 180.269 429.204 180.152 432.918 178.645ZM396.167 173.393C404.283 170.565 411.329 168.25 411.826 168.25C412.323 168.25 415.075 170.006 417.941 172.151C420.807 174.297 423.524 176.274 423.979 176.546C424.768 177.017 431.476 175.165 432.425 174.214C432.673 173.965 432.673 170.408 432.425 166.311L431.972 158.862L406.245 167.726C392.095 172.602 380.402 176.676 380.261 176.78C379.99 176.979 380.815 178.536 381.192 178.536C381.312 178.536 388.051 176.222 396.167 173.393ZM348.278 168.617C363.091 163.566 375.379 159.434 375.584 159.434C375.951 159.434 375.127 143.881 374.741 143.495C374.631 143.386 362.333 147.366 347.41 152.34L320.278 161.384L320.41 169.042C320.572 178.387 320.534 177.802 320.978 177.802C321.179 177.802 333.464 173.669 348.278 168.617ZM503.337 170.822C512.934 167.387 520.897 164.577 521.034 164.577C521.17 164.577 521.282 161.105 521.282 156.862C521.282 151.195 521.039 149.147 520.366 149.147C519.863 149.147 508.465 153.032 495.037 157.78C476.022 164.504 470.82 166.608 471.512 167.295C472.887 168.659 484.829 177.067 485.391 177.067C485.665 177.067 493.741 174.257 503.337 170.822ZM223.032 174.176C225.761 173.275 227.994 172.424 227.994 172.283C227.994 171.858 200.175 148.413 199.67 148.413C199.154 148.413 199.983 158.665 200.722 161.428C201.232 163.332 216.154 176.484 217.335 176.07C217.74 175.928 220.303 175.076 223.032 174.176ZM444.989 174.312C448.137 173.2 450.713 172.081 450.714 171.825C450.714 171.569 447.243 168.841 442.998 165.764L435.28 160.17V166.907C435.28 172.146 435.551 173.944 436.497 174.989C438.061 176.717 438.208 176.705 444.989 174.312ZM295.251 168.089C306.167 164.417 315.363 161.182 315.687 160.9C316.011 160.618 315.35 159.781 314.217 159.042C313.085 158.302 306.105 152.93 298.708 147.105L285.257 136.512L257.544 145.484C242.302 150.419 229.732 154.545 229.612 154.654C229.215 155.011 243.723 166.781 244.56 166.781C245.01 166.781 247.809 165.954 250.78 164.944C253.752 163.934 256.558 163.107 257.017 163.107C257.475 163.107 261.28 165.93 265.473 169.38C270.507 173.523 273.488 175.503 274.25 175.209C274.885 174.964 284.336 171.76 295.251 168.089ZM405.878 166.49L431.972 157.413L431.709 149.79C431.564 145.598 431.369 142.083 431.276 141.979C431.183 141.876 419.3 145.808 404.871 150.717L378.636 159.644L378.735 167.62C378.79 172.008 379.048 175.591 379.309 175.582C379.57 175.574 391.526 171.483 405.878 166.49ZM175.562 170.385C186.182 166.932 186.028 168.014 176.985 160.331L171.917 156.025L162.391 159.004L152.866 161.982L159.006 167.662C162.383 170.786 165.408 173.353 165.729 173.367C166.049 173.382 170.474 172.039 175.562 170.385ZM237.352 169.424L242.175 167.798L235.413 162.063C231.693 158.909 228.51 156.469 228.338 156.64C228.167 156.811 228.347 159.742 228.739 163.152C229.132 166.562 229.455 169.953 229.458 170.687C229.464 172.153 229.072 172.216 237.352 169.424ZM460.121 168.95C463.611 167.719 466.573 166.605 466.703 166.476C466.832 166.346 459.465 160.871 450.33 154.309C441.195 147.747 433.624 142.496 433.506 142.64C433.387 142.784 433.49 146.263 433.733 150.371L434.178 157.84L443.356 164.514C448.404 168.185 452.813 171.189 453.154 171.189C453.495 171.189 456.63 170.181 460.121 168.95ZM227.061 161.549L226.156 154.48L211.908 142.605C204.071 136.074 197.523 130.867 197.356 131.034C197.19 131.201 197.4 134.096 197.822 137.468C198.245 140.84 198.591 144.001 198.591 144.492C198.591 145.607 227.491 170.14 227.766 169.259C227.876 168.906 227.559 165.436 227.061 161.549ZM193.701 164.376L198.652 162.707L187.221 152.935C180.934 147.56 174.86 142.381 173.725 141.425L171.659 139.688L172.541 147.023C173.025 151.057 173.545 154.462 173.694 154.59C173.844 154.717 176.883 157.347 180.448 160.434C184.013 163.52 187.339 166.046 187.839 166.046C188.34 166.046 190.977 165.295 193.701 164.376ZM40.0025 161.981C44.8629 160.471 48.6395 158.904 48.6395 158.398C48.6395 157.864 55.8243 155.288 66.3112 152.062C76.0306 149.072 84.2591 146.449 84.5966 146.233C85.0959 145.914 83.7615 134.688 83.0256 133.016C82.8432 132.601 26.7852 149.44 26.1141 150.111C25.9666 150.258 26.1572 151.341 26.5373 152.518C26.9175 153.695 27.6125 157.067 28.0817 160.012C28.7848 164.424 29.1485 165.304 30.1502 165.015C30.8187 164.822 35.2522 163.457 40.0025 161.981ZM495.469 156.266L520.743 147.302L520.6 139.608C520.521 135.376 520.361 131.818 520.244 131.701C520.071 131.528 474.78 147.054 470.379 148.796C469.264 149.237 469.093 150.369 469.093 157.308C469.093 161.71 469.341 165.293 469.644 165.271C469.947 165.249 481.569 161.197 495.469 156.266ZM467.329 156.688C467.013 151.81 466.481 148.604 465.934 148.287C465.448 148.004 457.79 142.638 448.916 136.362C440.042 130.085 432.73 125.022 432.668 125.11C432.605 125.197 432.754 128.725 432.998 132.95L433.442 140.631L449.981 152.545C459.078 159.098 466.817 164.486 467.18 164.518C467.561 164.552 467.624 161.243 467.329 156.688ZM25.8579 156.719L24.9639 150.25L13.5013 139.069C7.19692 132.919 1.91698 128.009 1.76805 128.158C1.61918 128.307 1.90424 131.19 2.40156 134.564L3.30586 140.698L14.7175 152.254C20.9939 158.61 26.2693 163.671 26.4406 163.499C26.6118 163.328 26.3496 160.277 25.8579 156.719ZM540.05 156.572C539.151 155.673 537.92 155.911 531.064 158.311C526.694 159.841 522.996 161.201 522.845 161.334C522.694 161.466 522.763 162.077 522.999 162.69C523.359 163.628 524.833 163.313 532.26 160.71C539.883 158.037 540.95 157.471 540.05 156.572ZM198.217 154.953C197.928 151.681 197.48 148.233 197.222 147.291C196.667 145.262 170.465 122.912 170.061 124.123C169.912 124.57 170.174 127.819 170.644 131.344C171.419 137.168 171.71 137.93 173.834 139.697C175.12 140.766 181.134 145.953 187.198 151.223C193.262 156.493 198.341 160.827 198.484 160.854C198.627 160.881 198.507 158.226 198.217 154.953ZM161.471 157.37L170.292 154.577L170.061 150.121C169.933 147.67 169.603 144.168 169.326 142.338L168.822 139.011L153.775 143.751C145.499 146.358 138.611 148.609 138.467 148.753C138.323 148.897 139.636 150.31 141.385 151.893C143.134 153.476 145.888 155.977 147.505 157.45C149.122 158.923 150.941 160.136 151.548 160.146C152.154 160.155 156.62 158.906 161.471 157.37ZM347.213 150.938L374.918 141.707L374.493 133.856C374.259 129.537 373.973 125.891 373.857 125.753C373.742 125.616 361.206 129.566 346 134.531C318.53 143.502 318.355 143.572 318.709 145.435C319.452 149.339 319.496 157.93 318.773 157.985C317.906 158.052 317.893 157.98 317.283 149.74L316.811 143.352L306.399 135.323C300.672 130.907 293.568 125.398 290.613 123.082L285.239 118.87L285.766 125.376C286.055 128.954 286.495 132.644 286.744 133.577C287.028 134.644 293.044 139.878 302.985 147.709C311.668 154.549 318.939 160.151 319.141 160.157C319.343 160.163 331.975 156.015 347.213 150.938ZM412.755 146.58L431.76 140.103L431.323 137.462C431.083 136.009 430.882 132.45 430.878 129.553L430.87 124.285L404.224 133.144C389.569 138.017 377.487 142.077 377.375 142.166C377.263 142.256 377.393 145.975 377.664 150.432L378.157 158.536L385.953 155.796C390.241 154.289 402.302 150.142 412.755 146.58ZM530.654 156.384L537.453 154.051V146.467V138.883L530.286 141.444C526.345 142.852 523.037 144.004 522.936 144.004C522.835 144.005 522.752 147.311 522.752 151.352C522.752 155.393 523 158.703 523.303 158.708C523.607 158.714 526.914 157.667 530.654 156.384ZM255.926 144.035C271.086 139.099 283.592 134.96 283.717 134.837C284.086 134.471 282.63 119.755 282.179 119.305C281.952 119.078 269.584 122.75 254.696 127.465C239.807 132.181 227.195 136.175 226.668 136.34C225.935 136.571 225.806 138.15 226.12 143.078C226.588 150.452 225.49 148.936 224.661 141.066L224.158 136.29L209.436 124.265C198.431 115.276 194.819 112.679 195.133 113.979C195.363 114.935 195.784 118.473 196.069 121.84L196.587 127.963L211.739 140.712C220.073 147.724 227.222 153.359 227.626 153.235C228.03 153.111 240.765 148.971 255.926 144.035ZM128.462 149.099C130.85 148.263 133.961 147.52 135.376 147.446C136.791 147.372 144.843 145.162 153.27 142.535L168.59 137.759L168.089 132.616C167.813 129.788 167.369 126.265 167.102 124.788L166.616 122.103L139.052 130.621C123.891 135.305 111.322 139.274 111.119 139.439C110.611 139.857 122.323 150.57 123.317 150.596C123.759 150.608 126.074 149.934 128.462 149.099ZM52.3148 140.313C65.8582 136.216 78.2107 132.467 79.7648 131.982L82.5905 131.101L70.3466 120.103C63.6125 114.054 57.6789 109.191 57.1607 109.295C56.0835 109.512 4.63758 124.735 3.27184 125.241C1.9955 125.714 25.211 148.437 26.5877 148.062C27.1941 147.897 38.7713 144.41 52.3148 140.313ZM494.739 138.86C508.642 134.012 520.136 130.045 520.282 130.045C520.428 130.045 520.547 126.408 520.547 121.963C520.547 117.518 520.258 113.881 519.904 113.881C519.551 113.881 517.814 114.407 516.045 115.051C514.276 115.694 502.74 119.657 490.409 123.857L467.99 131.494V136.573C467.99 139.367 467.742 141.906 467.439 142.216C467.136 142.526 466.883 140.493 466.876 137.698C466.87 134.903 466.595 132.191 466.265 131.671C465.694 130.772 432.163 107.177 431.897 107.487C431.827 107.569 431.981 111.167 432.239 115.483L432.707 123.33L449.981 135.495C459.482 142.186 467.751 147.663 468.358 147.667C468.964 147.673 480.836 143.708 494.739 138.86ZM92.6665 143.941C94.3257 143.444 95.6832 142.799 95.6832 142.509C95.6832 142.218 93.4828 140.049 90.7934 137.689L85.9036 133.398L86.3459 135.946C86.5892 137.348 87.0109 140.084 87.283 142.028C87.6223 144.452 88.0716 145.449 88.7136 145.203C89.2285 145.006 91.0072 144.438 92.6665 143.941ZM196.129 135.694C195.581 131.736 194.836 128.237 194.473 127.919C194.11 127.6 188.686 123.101 182.42 117.92C176.154 112.74 170.245 107.811 169.291 106.967L167.555 105.432L168.061 110.583C169.071 120.852 168.264 119.688 183.182 132.361C190.647 138.701 196.837 143.664 196.939 143.39C197.042 143.115 196.677 139.652 196.129 135.694ZM531.573 139.59L537.086 137.575L537.295 130.136C537.41 126.045 537.245 122.694 536.928 122.689C536.61 122.683 533.291 123.73 529.551 125.013L522.752 127.346V134.99C522.752 143.775 521.668 143.21 531.573 139.59ZM103.947 140.458C105.864 139.782 107.372 138.898 107.297 138.494C107.171 137.807 84.3331 116.82 83.7113 116.82C83.447 116.82 85.203 129.913 85.5882 130.814C85.6826 131.035 88.3431 133.597 91.5002 136.508C97.7221 142.244 98.3309 142.437 103.947 140.458ZM345.715 132.957C360.612 128.093 372.8 123.851 372.8 123.53C372.8 123.209 371.905 122.477 370.812 121.903C369.718 121.33 362.557 116.295 354.897 110.714L340.972 100.567L316.274 108.389C302.69 112.691 290.471 116.549 289.12 116.962C287.768 117.375 286.944 117.994 287.287 118.337C289.062 120.111 317.4 141.767 317.967 141.782C318.332 141.792 330.819 137.821 345.715 132.957ZM406.065 130.841L429.699 122.962L416.87 113.899C409.814 108.913 402.539 103.752 400.703 102.429L397.367 100.023L378.837 106.034C368.646 109.339 360.314 112.209 360.323 112.411C360.331 112.614 363.773 115.258 367.971 118.287L375.603 123.796L376.123 131.747L376.643 139.697L379.537 139.208C381.129 138.94 393.066 135.174 406.065 130.841ZM139.052 129.295C153.808 124.738 166.018 120.894 166.186 120.753C166.537 120.457 165.019 105.794 164.592 105.368C164.31 105.086 108.804 121.842 108.265 122.372C107.926 122.705 109.7 136.77 110.189 137.626C110.378 137.956 110.913 138.082 111.377 137.904C111.842 137.727 124.295 133.853 139.052 129.295ZM107.447 128.228L106.581 122.134L94.0351 111.019C87.1347 104.906 81.3888 100.004 81.2666 100.127C80.6903 100.703 83.2307 114.237 84.07 115.062C84.5951 115.579 90.1519 120.626 96.4182 126.279C104.022 133.138 107.895 136.185 108.062 135.439C108.2 134.824 107.923 131.579 107.447 128.228ZM250.045 127.351C280.948 117.505 280.969 117.498 280.528 116.784C280.308 116.428 273.744 111.195 265.942 105.155L251.755 94.172L224.622 102.572C209.699 107.192 197.206 111.06 196.861 111.166C196.516 111.273 202.766 116.729 210.75 123.29C222.41 132.872 225.571 135.125 226.814 134.739C227.665 134.475 238.119 131.15 250.045 127.351ZM494.274 120.859L519.822 112.168L517.061 110.592C515.542 109.726 507.741 104.636 499.726 99.2801C487.211 90.918 484.861 89.6068 483.084 89.9968C481.947 90.2466 470.216 94.0384 457.018 98.423L433.019 106.395L445.359 114.8C452.146 119.423 459.849 124.735 462.477 126.603C465.105 128.472 467.586 129.9 467.99 129.776C468.395 129.652 480.222 125.639 494.274 120.859ZM194.246 117.048C193.818 113.544 193.545 110.614 193.64 110.537C193.735 110.461 203.054 107.539 214.347 104.044C225.641 100.55 234.969 97.6027 235.076 97.4954C235.473 97.0988 223.679 88.1648 222.73 88.143C220.936 88.1016 169.215 103.952 169.388 104.49C169.481 104.781 175.18 109.7 182.053 115.422C191.046 122.909 194.615 125.488 194.787 124.623C194.919 123.961 194.675 120.553 194.246 117.048ZM530.272 123.332L536.718 121.027V113.364C536.718 106.135 536.638 105.725 535.304 106.149C534.526 106.395 531.161 107.514 527.826 108.634L521.762 110.671L521.919 115.766C522.098 121.546 522.699 125.636 523.371 125.636C523.621 125.636 526.727 124.599 530.272 123.332ZM430.789 113.397C430.604 105.927 430.669 105.538 432.202 104.971C433.087 104.644 433.81 104.252 433.81 104.098C433.81 103.945 430.342 101.439 426.104 98.5288L418.398 93.2379L408.74 96.2723L399.081 99.3067L401.561 101.058C402.924 102.021 409.829 106.926 416.904 111.958C423.979 116.99 430.041 121.135 430.376 121.168C430.71 121.201 430.897 117.704 430.789 113.397ZM136.702 112.123C151.783 107.524 164.228 103.642 164.358 103.495C164.488 103.348 164.152 99.9212 163.611 95.8803C163.069 91.8393 162.614 88.3316 162.6 88.0854C162.585 87.8392 149.756 91.49 134.09 96.1984C108.799 103.799 105.622 104.92 105.746 106.197C106.502 113.957 107.733 120.493 108.439 120.489C108.902 120.489 121.621 116.721 136.702 112.123ZM105.206 112.279C104.705 108.513 103.929 104.965 103.481 104.395C101.765 102.213 79.4046 82.8849 79.0291 83.2603C78.8116 83.4777 79.048 86.6865 79.5546 90.3912L80.4755 97.1268L93.041 108.349C99.952 114.522 105.721 119.471 105.862 119.349C106.002 119.226 105.707 116.045 105.206 112.279ZM283.079 108.306C282.633 104.314 282.048 100.659 281.777 100.185C281.263 99.2827 252.454 77.1448 251.795 77.1448C251.587 77.1448 251.578 77.7234 251.776 78.4306C251.973 79.1378 252.355 82.5904 252.623 86.1031L253.11 92.4896L268.294 104.233C276.644 110.692 283.569 115.884 283.683 115.771C283.796 115.658 283.524 112.298 283.079 108.306ZM310.65 108.332C324.012 104.068 336.005 100.245 337.3 99.837L339.655 99.0947L339.228 91.6097C338.993 87.4929 338.563 83.862 338.273 83.5409C337.786 83.002 331.341 84.9194 296.464 95.9785L283.71 100.022L284.204 106.768C284.724 113.867 285.126 116.085 285.892 116.085C286.147 116.085 297.288 112.596 310.65 108.332ZM376.843 104.808L395.219 98.7788L395.406 91.819C395.509 87.9912 395.305 84.4154 394.953 83.8728C394.444 83.0873 389.084 84.5626 368.672 91.1062C354.569 95.6272 342.943 99.4099 342.836 99.5121C342.595 99.7418 357.589 110.887 358.099 110.858C358.301 110.846 366.736 108.124 376.843 104.808ZM535.14 104.688C536.094 104.333 505.325 83.9165 502.786 83.22C501.445 82.852 486.734 87.445 486.734 88.2318C486.734 88.5004 494.016 93.5315 502.915 99.4119L519.096 110.104L526.621 107.581C530.759 106.194 534.593 104.892 535.14 104.688ZM449.795 97.9775C449.291 97.488 442.263 92.6034 434.178 87.1227L419.476 77.1581L419.244 81.376C419.116 83.696 419.218 86.9972 419.472 88.7121C419.916 91.7165 420.24 92.0414 428.365 97.6395L436.797 103.449L443.755 101.158C449.241 99.3519 450.518 98.6793 449.795 97.9775ZM132.34 95.0916C146.745 90.819 159.272 87.0994 160.177 86.826C161.616 86.3917 160.144 84.9535 148.547 75.4599L135.271 64.5911L107.942 72.4279C92.9121 76.7381 80.3897 80.472 80.1148 80.7253C79.5711 81.2266 104.348 102.86 105.466 102.86C105.842 102.86 117.935 99.3643 132.34 95.0916ZM182.053 98.4976C196.007 94.1847 196.019 94.1795 195.9 92.0918C195.62 87.1736 194.773 81.5539 194.312 81.5624C194.038 81.5683 187.363 83.5162 179.48 85.8928L165.146 90.214L165.271 92.6797C165.566 98.4883 166.405 102.859 167.221 102.837C167.697 102.824 174.371 100.872 182.053 98.4976ZM310.124 90.0033C324.92 85.3567 337.167 81.4131 337.341 81.2397C337.514 81.0664 336.219 80.0182 334.463 78.9104C332.706 77.8027 326.639 73.5422 320.979 69.4425C315.319 65.3427 309.799 61.4067 308.712 60.6956C306.759 59.417 306.453 59.4891 280.78 67.2671C266.504 71.5925 254.548 75.3804 254.211 75.6849C253.744 76.1066 281.891 98.3572 282.989 98.4353C283.118 98.4441 295.328 94.6499 310.124 90.0033ZM400.342 97.0192C400.579 96.6354 400.103 95.9625 399.283 95.5239C398.012 94.8443 397.792 94.9473 397.792 96.2218C397.792 97.7412 399.555 98.2925 400.342 97.0192ZM353.743 94.13C367.009 90.0296 393.665 81.515 393.867 81.3134C394.16 81.0201 363.16 59.8601 362.606 59.9753C359.174 60.6888 327.227 70.943 327.227 71.3311C327.227 71.6235 330.17 74.0139 333.767 76.6431L340.307 81.4232L340.843 89.2818L341.379 97.1404L344.097 96.7061C345.591 96.4671 349.932 95.3079 353.743 94.13ZM477.187 89.0085L501.068 81.0347L500.819 73.7631C500.683 69.7636 500.467 66.3854 500.339 66.2559C500.211 66.1265 489.325 69.5308 476.147 73.8211L452.186 81.6216V89.3019C452.186 93.5261 452.438 96.9823 452.746 96.9823C453.054 96.9823 464.053 93.394 477.187 89.0085ZM245.144 94.5574C247.906 93.6685 250.147 92.6823 250.125 92.3657C250.073 91.6341 223.569 71.0368 223.18 71.4257C222.561 72.0444 224.467 85.6432 225.287 86.4588C228.612 89.7662 237.444 96.1922 238.652 96.1838C239.461 96.1779 242.382 95.4463 245.144 94.5574ZM410.656 93.9956C413.486 93.1381 416.059 92.1927 416.375 91.8948C416.691 91.5969 410.763 87.0818 403.202 81.8612C385.981 69.9704 387.501 70.8336 387.501 72.947C387.501 74.2802 388.641 75.4765 392.262 77.9429L397.022 81.1859L397.04 86.1525C397.053 89.9758 397.353 91.3618 398.344 92.1744C402.571 95.6432 403.411 96.155 404.408 95.8699C405.014 95.6964 407.826 94.8531 410.656 93.9956ZM450.447 88.7655C450.177 84.6502 449.879 81.2245 449.785 81.1527C449.691 81.0809 442.585 76.3437 433.994 70.6256L418.374 60.2291L418.447 66.2991C418.487 69.6376 418.735 73.0972 418.998 73.987C419.306 75.0266 424.862 79.2792 434.545 85.8849C442.833 91.5389 449.912 96.1836 450.276 96.2063C450.657 96.23 450.73 93.082 450.447 88.7655ZM210.72 89.7151L222.481 86.1279L222.275 80.0224C222.162 76.6643 221.932 73.7798 221.765 73.6125C221.597 73.4452 216.067 74.9324 209.474 76.9175C199.071 80.0505 197.51 80.7159 197.653 81.9585C197.744 82.7459 198.039 85.6217 198.31 88.3493C198.581 91.077 198.838 93.3073 198.881 93.3055C198.924 93.3055 204.251 91.688 210.72 89.7151ZM251.156 83.941C250.886 80.4051 250.51 76.9528 250.319 76.2691C249.949 74.9391 249.223 75.1993 276.401 66.9325C283.013 64.9214 288.572 63.1262 288.755 62.9433C288.938 62.7605 286.38 60.636 283.07 58.2222L277.051 53.8335L268.878 56.2939C264.382 57.6471 252.68 61.149 242.873 64.0758C233.066 67.0026 225.134 69.6708 225.245 70.0052C225.504 70.7826 250.206 90.2375 251.03 90.3132C251.37 90.3445 251.427 87.4768 251.156 83.941ZM417.639 84.5839C417.639 75.3712 418.437 76.36 401.956 65.1566L387.134 55.0806L386.925 57.4796C386.81 58.7991 386.975 62.0945 387.292 64.8025L387.869 69.7263L402.203 79.6513C410.086 85.11 416.784 89.5895 417.087 89.6057C417.391 89.6216 417.639 87.3621 417.639 84.5839ZM191.332 80.794L194.271 80.0027L190.367 76.9655C188.22 75.2949 182.659 70.9144 178.01 67.2311C173.36 63.5479 169.154 60.2913 168.661 59.9942C168.003 59.5966 142.546 66.3268 141.454 67.1873C141.361 67.261 146.383 71.5158 152.615 76.6423C158.846 81.7689 164.14 86.5784 164.379 87.3301C164.784 88.606 165.597 88.4604 176.602 85.141C183.087 83.1853 189.715 81.2292 191.332 80.794ZM471.251 73.7963C481.99 70.3382 492.858 66.8352 495.401 66.0119L500.024 64.5152L483.888 54.2636L467.752 44.0122L449.127 49.8788C438.883 53.1054 428.087 56.465 425.134 57.3445C422.181 58.2239 419.916 59.0935 420.099 59.2767C421.175 60.3524 450.47 80.0234 451.036 80.0507C451.415 80.069 460.511 77.2544 471.251 73.7963ZM203.843 77.1982C206.412 76.4195 211.409 74.9116 214.946 73.8475C220.477 72.1837 221.379 71.6876 221.386 70.3042C221.393 68.8513 222.718 68.3082 235.078 64.6949L248.763 60.6945L248.272 54.8075C248.001 51.5698 247.686 48.8258 247.569 48.7098C247.453 48.5938 235.807 51.9267 221.689 56.1163L196.019 63.7337L196.092 66.2146C196.284 72.7681 197.281 78.6143 198.205 78.6143C198.737 78.6143 201.274 77.977 203.843 77.1982ZM195.176 75.1244C194.991 73.609 194.609 70.4086 194.327 68.0123L193.813 63.6555L180.969 53.5438C173.904 47.9824 168.062 43.4957 167.986 43.5734C167.909 43.6513 168.234 46.8558 168.706 50.6947L169.566 57.6747L182.057 67.7567C188.927 73.3019 194.765 77.8479 195.03 77.8591C195.295 77.8704 195.36 76.6397 195.176 75.1244ZM417.119 65.7566C416.761 59.4287 416.867 58.0389 417.712 58.0247C418.278 58.0152 425.622 55.7773 434.032 53.0518L449.323 48.0962L442.77 43.885C439.166 41.5689 435.758 39.6682 435.197 39.6613C433.897 39.6454 388.158 53.7999 388.477 54.1195C389.241 54.8826 416.626 73.3889 417.046 73.4261C417.327 73.4509 417.36 69.9996 417.119 65.7566ZM385.296 72.0018C385.296 71.5977 384.78 71.267 384.15 71.267C383.52 71.267 383.209 71.5977 383.458 72.0018C383.708 72.4059 384.224 72.7365 384.604 72.7365C384.985 72.7365 385.296 72.4059 385.296 72.0018ZM383.398 70.0863C384.336 69.7267 384.559 68.41 384.55 63.2902C384.544 59.7975 384.256 56.4936 383.91 55.9481C383.396 55.1381 382.105 55.3148 376.866 56.9122C365.372 60.4165 365.664 59.5587 373.981 65.3799C381.752 70.8188 381.638 70.7617 383.398 70.0863ZM335.006 66.7324C341.915 64.5785 344.636 63.4238 344.159 62.8489C342.91 61.3452 333.35 55.103 332.303 55.1077C330.696 55.1148 313.175 60.5878 313.026 61.1292C312.877 61.6671 323.56 69.6527 324.547 69.7412C324.892 69.772 329.599 68.4183 335.006 66.7324ZM220.674 54.7703C233.83 50.9124 245.022 47.7558 245.544 47.7558C247.529 47.7558 245.626 46.0972 233.104 36.9107L220.205 27.448L195.033 34.5719C181.189 38.49 169.708 41.8491 169.521 42.0365C168.892 42.6652 194.534 62.2922 195.651 62.0367C196.257 61.898 207.518 58.6282 220.674 54.7703ZM297.089 60.6636L302.602 58.8964L302.341 54.2446C302.198 51.6861 301.981 49.4861 301.859 49.356C301.528 49.0006 283.586 54.417 282.879 55.0859C282.542 55.4043 284.362 57.1818 286.922 59.0359C289.482 60.89 291.576 62.4124 291.576 62.4189C291.576 62.4254 294.057 61.6355 297.089 60.6636ZM355.867 60.2635C359.693 59.0697 363.542 58.2731 364.42 58.4934C365.298 58.7137 370.024 57.6551 374.921 56.141L383.826 53.3881L383.772 48.9189C383.741 46.4608 383.494 43.0975 383.22 41.4451L382.724 38.4408L358.256 45.9088L333.788 53.3769L340.247 57.9089C343.799 60.4015 347.202 62.4394 347.808 62.4374C348.415 62.4374 352.041 61.4573 355.867 60.2635ZM278.783 52.9406C280.333 53.5722 282.471 53.2123 290.176 51.0231C295.393 49.5409 299.919 48.091 300.234 47.8012C300.548 47.5113 294.795 43.028 287.449 37.8381L274.092 28.4019L260.782 32.2985C253.462 34.4415 245.571 36.7173 243.246 37.3557C240.922 37.9941 239.02 38.7029 239.02 38.9306C239.02 39.1583 241.287 41.0411 244.059 43.1144C249.354 47.0752 250.033 48.3384 250.055 54.2765C250.079 60.5887 249.331 60.4905 263.884 56.0907C274.677 52.8277 277.198 52.2948 278.783 52.9406ZM314.242 58.5549L316.326 57.6647L310.701 53.7391C307.608 51.58 304.996 49.9293 304.897 50.0705C304.799 50.2119 304.853 52.0632 305.017 54.1847C305.287 57.656 305.489 58.042 307.04 58.042C307.988 58.042 308.968 58.3726 309.218 58.7767C309.813 59.7395 311.66 59.658 314.242 58.5549ZM325.358 55.245L331.944 53.2053L318.172 43.5008C310.598 38.1633 304.244 33.7962 304.053 33.7962C303.55 33.7962 303.625 40.3568 304.173 44.354C304.627 47.6641 304.849 47.9172 311.34 52.5382C315.024 55.1608 318.204 57.3017 318.406 57.2957C318.608 57.2898 321.737 56.3669 325.358 55.245ZM395.219 50.0701L404.04 47.2728L404.254 40.8084C404.449 34.8941 404.356 34.3751 403.151 34.7109C402.427 34.9128 398.114 36.1786 393.566 37.5236L385.296 39.9692L385.306 44.781C385.315 48.7063 385.836 52.9583 386.301 52.8831C386.355 52.8742 390.368 51.6085 395.219 50.0701ZM358.099 44.5736L382.723 37.0136L382.475 29.7108C382.338 25.6943 382.109 22.2885 381.965 22.1426C381.821 21.9967 370.686 25.1799 357.221 29.2163L332.739 36.5552L333.004 42.1555C333.357 49.6552 331.898 49.5777 331.238 42.0618L330.739 36.3676L317.144 26.9471C302.144 16.5529 301.127 15.9675 301.73 18.0721C301.949 18.8405 302.346 22.1208 302.611 25.362L303.093 31.2549L317.916 41.701C326.069 47.4462 332.905 52.1438 333.107 52.1401C333.309 52.1342 344.556 48.7315 358.099 44.5736ZM395.05 35.598C398.999 34.4518 402.142 33.2764 402.033 32.9859C401.824 32.4277 386.387 22.131 384.91 21.5645C384.271 21.3193 384.127 23.1998 384.357 28.8005C384.723 37.7203 384.908 38.4808 386.591 38.0267C387.294 37.8371 391.1 36.7443 395.05 35.598ZM354.424 28.4427C365.946 24.9909 376.847 21.7764 378.649 21.2995C381.542 20.5339 381.757 20.342 380.487 19.6577C379.696 19.2315 373.024 14.9353 365.661 10.1106L352.274 1.3385L328.908 8.1127C316.057 11.8385 305.129 15.1044 304.624 15.37C303.568 15.9259 331.519 35.4677 332.716 35.0094C333.133 34.8494 342.902 31.8945 354.424 28.4427ZM656.716 174.745L637.421 162.232L637.432 154.404C637.438 150.099 637.687 146.232 637.984 145.811C638.281 145.391 644.312 142.937 651.387 140.359C658.462 137.782 665.197 135.28 666.354 134.801C668.329 133.983 667.871 133.784 658.803 131.53L649.149 129.131L649.619 126.465C651.102 118.061 652.775 110.739 653.327 110.243C653.675 109.93 659.066 109.151 665.306 108.51L676.653 107.346L703.448 113.9C718.186 117.504 730.389 120.599 730.567 120.777C730.851 121.061 728.317 135.003 727.395 138.23C727.13 139.157 724.997 139.752 718.174 140.802L709.297 142.168L717.174 146.912L725.05 151.657L724.528 160.137C724.24 164.802 723.937 168.693 723.853 168.785C723.717 168.935 678.525 186.423 676.747 187.013C676.342 187.148 667.329 181.627 656.716 174.745ZM675.644 177.57V169.991L657.451 158.487L639.259 146.983L639.047 154.073C638.896 159.132 639.106 161.422 639.782 162.07C640.636 162.888 675.022 185.125 675.46 185.142C675.561 185.148 675.644 181.739 675.644 177.57ZM700.048 176.603C712.298 171.903 722.414 167.979 722.529 167.884C722.644 167.789 722.94 164.389 723.187 160.329L723.637 152.947L700.929 161.549C678.982 169.862 678.205 170.223 677.754 172.323C677.209 174.865 676.961 185.149 677.445 185.149C677.626 185.149 687.798 181.303 700.048 176.603ZM694.079 162.462C703.548 158.874 713.445 155.183 716.072 154.261C718.7 153.338 721.118 152.353 721.444 152.072C722.398 151.251 707.064 142.538 704.628 142.516C703.443 142.505 695.487 140.736 686.947 138.584L671.421 134.671L656.442 140.07C648.204 143.04 641.169 145.568 640.809 145.69C640.449 145.811 645.411 149.182 651.835 153.18C658.259 157.178 666.493 162.366 670.131 164.709C673.77 167.051 676.773 168.972 676.805 168.977C676.838 168.982 684.611 166.05 694.079 162.462ZM703.762 140.147C704.439 138.332 706.775 124.916 706.466 124.62C705.961 124.139 654.862 111.632 654.574 111.92C654.13 112.364 651.153 127.854 651.462 128.112C651.815 128.406 701.38 140.901 702.579 140.998C703.041 141.035 703.573 140.652 703.762 140.147ZM717.004 139.695C721.761 138.953 725.778 138.214 725.93 138.053C726.337 137.621 729.35 122.499 729.082 122.232C728.782 121.931 708.794 124.58 708.427 124.969C708.106 125.309 705.781 138.599 705.781 140.093C705.781 141.344 706.616 141.314 717.004 139.695ZM720.115 121.629L725.996 120.783L701.332 114.733L676.668 108.684L667.519 109.699C662.487 110.258 658.866 110.929 659.473 111.191C660.079 111.452 671.16 114.276 684.097 117.465C709.13 123.636 707.492 123.447 720.115 121.629Z" fill="#D0C3B4"/>
<path d="M345.715 132.957C360.612 128.093 372.8 123.851 372.8 123.53C372.8 123.209 371.905 122.477 370.812 121.903C369.718 121.33 362.557 116.295 354.897 110.714L340.972 100.567L316.274 108.389C302.69 112.691 290.471 116.549 289.12 116.962C287.768 117.375 286.944 117.994 287.287 118.337C289.062 120.111 317.4 141.767 317.967 141.782C318.332 141.792 330.819 137.821 345.715 132.957Z" fill="#8EA65F"/>
<path d="M259.234 201.29C275.001 195.922 288.174 191.292 288.509 191.001C288.843 190.71 288.016 189.703 286.671 188.763C285.326 187.823 278.161 182.079 270.748 175.999C263.335 169.919 256.885 164.977 256.414 165.016C255.539 165.09 198.49 183.822 197.897 184.23C197.718 184.354 198.865 185.52 200.447 186.822C202.03 188.124 209.101 194.244 216.161 200.421C223.222 206.598 229.352 211.517 229.783 211.352C230.214 211.187 243.467 206.659 259.234 201.29Z" fill="#8EA65F"/>
<path d="M419.66 205.646C434.719 200.232 447.04 195.607 447.041 195.369C447.041 195.131 446.297 194.597 445.387 194.182C444.478 193.768 436.567 188.094 427.807 181.574L411.882 169.72L388.849 177.698C376.182 182.087 363.599 186.407 360.887 187.299L355.957 188.921L373.361 202.481C382.933 209.939 391.106 215.916 391.522 215.765C391.939 215.613 404.6 211.06 419.66 205.646Z" fill="#8EA65F"/>
<path d="M354.424 28.4427C365.946 24.9909 376.847 21.7764 378.649 21.2995C381.542 20.5339 381.757 20.342 380.487 19.6577C379.696 19.2315 373.024 14.9353 365.661 10.1106L352.274 1.3385L328.908 8.1127C316.057 11.8385 305.129 15.1044 304.624 15.37C303.568 15.9259 331.519 35.4677 332.716 35.0094C333.133 34.8494 342.902 31.8945 354.424 28.4427Z" fill="#8EA65F"/>
<defs>
<filter id="filter0_d_303_829" x="238.926" y="241.547" width="393.029" height="165.539" filterUnits="userSpaceOnUse" color-interpolation-filters="sRGB">
<feFlood flood-opacity="0" result="BackgroundImageFix"/>
<feColorMatrix in="SourceAlpha" type="matrix" values="0 0 0 0 0 0 0 0 0 0 0 0 0 0 0 0 0 0 127 0" result="hardAlpha"/>
<feOffset dy="4"/>
<feGaussianBlur stdDeviation="2"/>
<feComposite in2="hardAlpha" operator="out"/>
<feColorMatrix type="matrix" values="0 0 0 0 0 0 0 0 0 0 0 0 0 0 0 0 0 0 0.25 0"/>
<feBlend mode="normal" in2="BackgroundImageFix" result="effect1_dropShadow_303_829"/>
<feBlend mode="normal" in="SourceGraphic" in2="effect1_dropShadow_303_829" result="shape"/>
</filter>
</defs>
</svg>
