<svg width="833" height="214" viewBox="0 0 833 214" fill="none" xmlns="http://www.w3.org/2000/svg">
<path d="M0.898621 178.789H242.592" stroke="#D0C3B4"/>
<path d="M0.898621 147.734H242.592" stroke="#D0C3B4"/>
<path d="M0.898621 116.68H242.592" stroke="#D0C3B4"/>
<path d="M242.592 1.00024V212.173" stroke="#D0C3B4"/>
<path d="M241.693 164.038H832" stroke="#D0C3B4"/>
<path d="M241.693 132.983H832" stroke="#D0C3B4"/>
<path d="M508.544 67.5186L832 68.2949" stroke="#D0C3B4"/>
<path d="M508.544 180.342L832 181.118" stroke="#D0C3B4"/>
<path d="M506.747 1.00024V212.95" stroke="#D0C3B4"/>
<path d="M750.237 132.207V164.038" stroke="#D0C3B4"/>
<path d="M676.561 164.038V212.173" stroke="#D0C3B4"/>
<path d="M242.592 98.0464H508.544" stroke="#D0C3B4"/>
<path d="M240.795 66.9917H506.747" stroke="#D0C3B4"/>
<path d="M1.79706 35.937L504.95 35.937" stroke="#D0C3B4"/>
<path d="M93.4101 15.6145H95.2997V14.6282H90.3486V15.6145H92.248V21.7766H93.4101V15.6145ZM102.307 18.217C102.307 18.5784 102.238 18.9202 102.106 19.2424C101.975 19.5647 101.784 19.8528 101.54 20.1067C101.286 20.3606 101.003 20.5559 100.69 20.6877C100.378 20.8245 100.046 20.8879 99.6992 20.8879C99.3427 20.8879 99.0058 20.8245 98.6933 20.6877C98.3759 20.5559 98.0927 20.3606 97.8486 20.1067C97.5995 19.8528 97.4091 19.5647 97.2822 19.2424C97.1503 18.9202 97.0868 18.5784 97.0868 18.217C97.0868 17.8557 97.1503 17.509 97.2822 17.1819C97.4091 16.8596 97.5995 16.5715 97.8486 16.3176C98.0927 16.0637 98.3759 15.8733 98.6933 15.7366C99.0107 15.6047 99.3476 15.5364 99.6992 15.5364C100.051 15.5364 100.383 15.6047 100.7 15.7415C101.018 15.8782 101.296 16.0686 101.54 16.3176C101.784 16.5715 101.975 16.8645 102.106 17.1868C102.238 17.5139 102.307 17.8557 102.307 18.217ZM103.518 18.217C103.518 17.7141 103.42 17.2356 103.229 16.7815C103.039 16.3274 102.761 15.9172 102.399 15.5559C102.033 15.2043 101.618 14.9309 101.159 14.7454C100.7 14.5598 100.212 14.467 99.6992 14.467C99.1816 14.467 98.6884 14.5598 98.2294 14.7454C97.7656 14.9309 97.3505 15.2043 96.9892 15.5559C96.623 15.9172 96.3447 16.3225 96.1591 16.7717C95.9687 17.2258 95.8759 17.7092 95.8759 18.217C95.8759 18.7346 95.9687 19.2131 96.1591 19.6624C96.3447 20.1116 96.623 20.5168 96.9892 20.8684C97.3456 21.22 97.7558 21.4934 98.2245 21.6838C98.6933 21.8743 99.1816 21.967 99.6992 21.967C100.207 21.967 100.69 21.8743 101.154 21.6838C101.613 21.4983 102.028 21.2249 102.399 20.8684C102.761 20.5168 103.039 20.1116 103.229 19.6575C103.42 19.2083 103.518 18.7249 103.518 18.217ZM104.851 21.7766H108.61V20.7366H106.013V14.6282H104.851V21.7766ZM109.558 21.7766H113.547V20.7366H110.72V18.427H113.547V17.4065H110.72V15.6145H113.547V14.6282H109.558V21.7766ZM116.042 17.675V15.6243H116.252C116.838 15.6243 117.238 15.7073 117.453 15.8684C117.668 16.0295 117.78 16.3079 117.78 16.6985C117.78 17.0647 117.678 17.3186 117.477 17.4602C117.272 17.6067 116.867 17.675 116.252 17.675H116.042ZM115.969 18.5784H116.101L118.478 21.7766H119.792L117.331 18.5247C117.868 18.4612 118.278 18.2659 118.557 17.9436C118.83 17.6213 118.972 17.1721 118.972 16.5959C118.972 16.2737 118.908 15.9709 118.791 15.6975C118.669 15.4241 118.498 15.2043 118.278 15.0286C118.093 14.887 117.868 14.7844 117.604 14.7209C117.341 14.6624 116.975 14.6282 116.501 14.6282H114.88V21.7766H115.969V18.5784ZM121.994 18.969L122.726 17.3381C122.77 17.2258 122.814 17.1038 122.858 16.967C122.902 16.8303 122.946 16.6838 122.985 16.5276C123.029 16.6936 123.073 16.845 123.122 16.9817C123.166 17.1184 123.21 17.2356 123.254 17.3381L123.986 18.969H121.994ZM125.207 21.7766H126.433L122.976 14.345L119.514 21.7766H120.734L121.564 19.9358H124.396L125.207 21.7766ZM127.106 21.7766H128.176V16.8059C128.278 16.9524 128.386 17.094 128.503 17.2258C128.62 17.3625 128.737 17.4895 128.864 17.6067L133.498 22.0549V14.6282H132.424V19.5842C132.282 19.4084 132.15 19.2522 132.023 19.1106C131.896 18.9739 131.769 18.842 131.647 18.7151L127.106 14.345V21.7766ZM140.881 16.3665L140.944 15.1946C140.583 14.9504 140.217 14.7649 139.836 14.6428C139.455 14.5208 139.055 14.4573 138.635 14.4573C138.098 14.4573 137.604 14.55 137.145 14.7307C136.686 14.9114 136.276 15.175 135.925 15.5266C135.568 15.8782 135.295 16.2834 135.109 16.7424C134.924 17.2014 134.831 17.6946 134.831 18.217C134.831 18.7444 134.924 19.2375 135.109 19.7014C135.295 20.1653 135.563 20.5657 135.915 20.9075C136.267 21.259 136.672 21.5227 137.136 21.6985C137.6 21.8792 138.107 21.967 138.654 21.967C139.084 21.967 139.479 21.9133 139.851 21.801C140.217 21.6936 140.559 21.5227 140.871 21.2981V19.9846C140.519 20.2874 140.148 20.5168 139.768 20.6633C139.387 20.8147 138.981 20.8879 138.561 20.8879C137.834 20.8879 137.233 20.6389 136.755 20.136C136.276 19.6379 136.042 18.9983 136.042 18.2268C136.042 17.4309 136.286 16.7815 136.774 16.2786C137.263 15.7805 137.902 15.5266 138.684 15.5266C139.084 15.5266 139.47 15.5999 139.836 15.7366C140.202 15.8782 140.549 16.0881 140.881 16.3665ZM142.321 21.7766H146.31V20.7366H143.483V18.427H146.31V17.4065H143.483V15.6145H146.31V14.6282H142.321V21.7766ZM147.233 20.3459C147.351 20.8684 147.604 21.2688 147.995 21.5471C148.386 21.8303 148.884 21.967 149.494 21.967C150.217 21.967 150.793 21.7717 151.223 21.3713C151.647 20.9709 151.862 20.4338 151.862 19.7551C151.862 19.2913 151.73 18.9055 151.467 18.593C151.203 18.2805 150.715 17.9631 150.012 17.636C149.973 17.6213 149.924 17.5969 149.865 17.5676C149.055 17.1965 148.654 16.7961 148.654 16.3665C148.654 16.093 148.742 15.8782 148.928 15.7122C149.113 15.551 149.362 15.468 149.675 15.468C149.894 15.468 150.09 15.5217 150.261 15.6243C150.432 15.7317 150.588 15.8928 150.734 16.1174L151.643 15.6487C151.506 15.2678 151.257 14.9797 150.905 14.7747C150.549 14.5696 150.109 14.467 149.582 14.467C148.937 14.467 148.42 14.6477 148.024 15.009C147.629 15.3704 147.434 15.844 147.434 16.425C147.434 16.8743 147.56 17.2551 147.824 17.5676C148.088 17.8801 148.61 18.2268 149.401 18.6077C149.45 18.6321 149.528 18.6663 149.626 18.7151C150.319 19.0471 150.671 19.4182 150.671 19.8381C150.671 20.1604 150.568 20.4192 150.363 20.6096C150.158 20.8049 149.885 20.8977 149.543 20.8977C149.177 20.8977 148.879 20.8147 148.644 20.6487C148.41 20.4827 148.249 20.2385 148.161 19.9163L147.233 20.3459Z" fill="#D0C3B4"/>
<path d="M280.163 21.7766H281.232V16.8059C281.335 16.9524 281.442 17.094 281.559 17.2258C281.676 17.3625 281.794 17.4895 281.921 17.6067L286.554 22.0549V14.6282H285.48V19.5842C285.339 19.4084 285.207 19.2522 285.08 19.1106C284.953 18.9739 284.826 18.842 284.704 18.7151L280.163 14.345V21.7766ZM294.318 18.217C294.318 18.5784 294.25 18.9202 294.118 19.2424C293.986 19.5647 293.796 19.8528 293.551 20.1067C293.298 20.3606 293.014 20.5559 292.702 20.6877C292.389 20.8245 292.057 20.8879 291.711 20.8879C291.354 20.8879 291.017 20.8245 290.705 20.6877C290.387 20.5559 290.104 20.3606 289.86 20.1067C289.611 19.8528 289.421 19.5647 289.294 19.2424C289.162 18.9202 289.098 18.5784 289.098 18.217C289.098 17.8557 289.162 17.509 289.294 17.1819C289.421 16.8596 289.611 16.5715 289.86 16.3176C290.104 16.0637 290.387 15.8733 290.705 15.7366C291.022 15.6047 291.359 15.5364 291.711 15.5364C292.062 15.5364 292.394 15.6047 292.712 15.7415C293.029 15.8782 293.307 16.0686 293.551 16.3176C293.796 16.5715 293.986 16.8645 294.118 17.1868C294.25 17.5139 294.318 17.8557 294.318 18.217ZM295.529 18.217C295.529 17.7141 295.431 17.2356 295.241 16.7815C295.05 16.3274 294.772 15.9172 294.411 15.5559C294.045 15.2043 293.63 14.9309 293.171 14.7454C292.712 14.5598 292.223 14.467 291.711 14.467C291.193 14.467 290.7 14.5598 290.241 14.7454C289.777 14.9309 289.362 15.2043 289.001 15.5559C288.634 15.9172 288.356 16.3225 288.171 16.7717C287.98 17.2258 287.887 17.7092 287.887 18.217C287.887 18.7346 287.98 19.2131 288.171 19.6624C288.356 20.1116 288.634 20.5168 289.001 20.8684C289.357 21.22 289.767 21.4934 290.236 21.6838C290.705 21.8743 291.193 21.967 291.711 21.967C292.218 21.967 292.702 21.8743 293.166 21.6838C293.625 21.4983 294.04 21.2249 294.411 20.8684C294.772 20.5168 295.05 20.1116 295.241 19.6575C295.431 19.2083 295.529 18.7249 295.529 18.217ZM302.692 18.2463L303.483 21.7766H304.562L302.834 14.3254L300.773 18.8323C300.754 18.8811 300.724 18.9446 300.685 19.0276C300.539 19.345 300.431 19.6038 300.363 19.8088C300.265 19.5647 300.187 19.3596 300.119 19.1936C300.05 19.0276 300.002 18.9104 299.972 18.8372L297.863 14.3254L296.174 21.7766H297.243L298.009 18.2561C298.049 18.0803 298.083 17.9094 298.102 17.7434C298.122 17.5774 298.136 17.4211 298.141 17.2698C298.18 17.4163 298.229 17.5676 298.288 17.7141C298.346 17.8655 298.415 18.0217 298.493 18.178L300.363 22.0647L302.233 18.2561C302.311 18.0901 302.38 17.9241 302.433 17.7581C302.487 17.5969 302.531 17.4358 302.56 17.2698C302.58 17.4065 302.599 17.5823 302.629 17.7874C302.658 18.0413 302.677 18.1926 302.692 18.2463Z" fill="#D0C3B4"/>
<path d="M397.25 20.3459C397.367 20.8684 397.621 21.2688 398.012 21.5471C398.403 21.8303 398.901 21.967 399.511 21.967C400.234 21.967 400.81 21.7717 401.239 21.3713C401.664 20.9709 401.879 20.4338 401.879 19.7551C401.879 19.2913 401.747 18.9055 401.484 18.593C401.22 18.2805 400.732 17.9631 400.029 17.636C399.989 17.6213 399.941 17.5969 399.882 17.5676C399.072 17.1965 398.671 16.7961 398.671 16.3665C398.671 16.093 398.759 15.8782 398.945 15.7122C399.13 15.551 399.379 15.468 399.692 15.468C399.911 15.468 400.107 15.5217 400.278 15.6243C400.448 15.7317 400.605 15.8928 400.751 16.1174L401.659 15.6487C401.523 15.2678 401.274 14.9797 400.922 14.7747C400.566 14.5696 400.126 14.467 399.599 14.467C398.954 14.467 398.437 14.6477 398.041 15.009C397.646 15.3704 397.45 15.844 397.45 16.425C397.45 16.8743 397.577 17.2551 397.841 17.5676C398.105 17.8801 398.627 18.2268 399.418 18.6077C399.467 18.6321 399.545 18.6663 399.643 18.7151C400.336 19.0471 400.688 19.4182 400.688 19.8381C400.688 20.1604 400.585 20.4192 400.38 20.6096C400.175 20.8049 399.902 20.8977 399.56 20.8977C399.194 20.8977 398.896 20.8147 398.661 20.6487C398.427 20.4827 398.266 20.2385 398.178 19.9163L397.25 20.3459ZM403.168 21.7766H404.33V14.6282H403.168V21.7766ZM409.96 18.1145V19.0959H411.679V19.1985C411.679 19.7356 411.488 20.1555 411.108 20.4631C410.727 20.7756 410.204 20.927 409.54 20.927C408.759 20.927 408.119 20.678 407.631 20.175C407.143 19.6721 406.899 19.0178 406.899 18.2073C406.899 17.4163 407.143 16.7717 407.631 16.2737C408.119 15.7756 408.754 15.5266 409.53 15.5266C409.902 15.5266 410.243 15.595 410.546 15.7317C410.849 15.8684 411.117 16.0784 411.362 16.3567L412.211 15.717C411.86 15.2971 411.464 14.9797 411.02 14.7747C410.575 14.5696 410.072 14.467 409.511 14.467C408.974 14.467 408.476 14.5598 408.007 14.7356C407.538 14.9163 407.128 15.175 406.781 15.5168C406.42 15.8684 406.147 16.2688 405.961 16.7229C405.776 17.1819 405.688 17.6799 405.688 18.217C405.688 18.7493 405.776 19.2473 405.956 19.7112C406.137 20.1799 406.396 20.5852 406.738 20.927C407.079 21.2786 407.485 21.5374 407.944 21.7083C408.403 21.884 408.925 21.967 409.511 21.967C410.556 21.967 411.371 21.6887 411.947 21.1321C412.524 20.5754 412.812 19.7942 412.812 18.7883C412.812 18.7102 412.807 18.554 412.797 18.3196C412.792 18.2317 412.792 18.1633 412.792 18.1145H409.96ZM414.037 21.7766H415.107V16.8059C415.209 16.9524 415.317 17.094 415.434 17.2258C415.551 17.3625 415.668 17.4895 415.795 17.6067L420.429 22.0549V14.6282H419.355V19.5842C419.213 19.4084 419.081 19.2522 418.954 19.1106C418.827 18.9739 418.7 18.842 418.578 18.7151L414.037 14.345V21.7766ZM423.583 18.969L424.316 17.3381C424.36 17.2258 424.404 17.1038 424.447 16.967C424.491 16.8303 424.535 16.6838 424.574 16.5276C424.618 16.6936 424.662 16.845 424.711 16.9817C424.755 17.1184 424.799 17.2356 424.843 17.3381L425.575 18.969H423.583ZM426.796 21.7766H428.022L424.565 14.345L421.103 21.7766H422.323L423.154 19.9358H425.986L426.796 21.7766ZM431.005 15.6145H432.895V14.6282H427.944V15.6145H429.843V21.7766H431.005V15.6145ZM433.754 14.6282V19.0764C433.754 20.0481 433.993 20.7708 434.482 21.2493C434.965 21.7278 435.697 21.967 436.684 21.967C437.665 21.967 438.403 21.7278 438.891 21.2493C439.379 20.7708 439.623 20.0432 439.623 19.0764V14.6282H438.461V18.969C438.461 19.6135 438.31 20.1018 438.012 20.4241C437.714 20.7463 437.27 20.9075 436.684 20.9075C436.088 20.9075 435.644 20.7463 435.346 20.4241C435.048 20.1018 434.902 19.6135 434.902 18.969V14.6282H433.754ZM442.387 17.675V15.6243H442.597C443.183 15.6243 443.583 15.7073 443.798 15.8684C444.013 16.0295 444.125 16.3079 444.125 16.6985C444.125 17.0647 444.023 17.3186 443.822 17.4602C443.617 17.6067 443.212 17.675 442.597 17.675H442.387ZM442.314 18.5784H442.446L444.823 21.7766H446.137L443.676 18.5247C444.213 18.4612 444.623 18.2659 444.902 17.9436C445.175 17.6213 445.317 17.1721 445.317 16.5959C445.317 16.2737 445.253 15.9709 445.136 15.6975C445.014 15.4241 444.843 15.2043 444.623 15.0286C444.438 14.887 444.213 14.7844 443.949 14.7209C443.686 14.6624 443.32 14.6282 442.846 14.6282H441.225V21.7766H442.314V18.5784ZM446.83 21.7766H450.82V20.7366H447.992V18.427H450.82V17.4065H447.992V15.6145H450.82V14.6282H446.83V21.7766Z" fill="#D0C3B4"/>
<path d="M646.746 42.218H645.335L646.614 43.595C646.429 43.6926 646.248 43.761 646.063 43.8049C645.877 43.8489 645.687 43.8684 645.486 43.8684C644.734 43.8684 644.109 43.6145 643.602 43.1018C643.094 42.5891 642.845 41.9592 642.845 41.2073C642.845 40.8459 642.908 40.4993 643.04 40.177C643.167 39.8547 643.358 39.5715 643.607 39.3176C643.851 39.0637 644.134 38.8684 644.456 38.7317C644.774 38.595 645.106 38.5266 645.457 38.5266C645.799 38.5266 646.131 38.595 646.453 38.7317C646.771 38.8684 647.054 39.0637 647.308 39.3176C647.552 39.5715 647.742 39.8547 647.869 40.177C647.996 40.4993 648.065 40.8459 648.065 41.2073C648.065 41.5393 648.011 41.8518 647.913 42.135C647.811 42.4182 647.65 42.6917 647.435 42.9553L646.746 42.218ZM648.196 43.8049C648.548 43.4583 648.812 43.0627 648.997 42.6184C649.183 42.1741 649.276 41.7053 649.276 41.2073C649.276 40.6995 649.178 40.2209 648.987 39.7668C648.792 39.3176 648.519 38.9124 648.157 38.5559C647.796 38.2043 647.386 37.9358 646.927 37.7502C646.463 37.5647 645.975 37.467 645.457 37.467C644.935 37.467 644.442 37.5647 643.978 37.7502C643.514 37.9358 643.104 38.2043 642.747 38.5559C642.386 38.9075 642.108 39.3127 641.917 39.762C641.727 40.2161 641.634 40.6995 641.634 41.2073C641.634 41.72 641.727 42.2034 641.917 42.6526C642.108 43.1067 642.386 43.5071 642.747 43.8586C643.094 44.2004 643.499 44.469 643.968 44.6594C644.432 44.8547 644.905 44.9475 645.394 44.9475C645.75 44.9475 646.092 44.9084 646.424 44.8206C646.751 44.7375 647.073 44.6106 647.396 44.4348L648.328 45.4456H649.715L648.196 43.8049ZM650.579 37.6282V42.0764C650.579 43.0481 650.818 43.7708 651.307 44.2493C651.79 44.7278 652.523 44.967 653.509 44.967C654.49 44.967 655.228 44.7278 655.716 44.2493C656.204 43.7708 656.448 43.0432 656.448 42.0764V37.6282H655.286V41.969C655.286 42.6135 655.135 43.1018 654.837 43.4241C654.539 43.7463 654.095 43.9075 653.509 43.9075C652.913 43.9075 652.469 43.7463 652.171 43.4241C651.873 43.1018 651.727 42.6135 651.727 41.969V37.6282H650.579ZM659.559 41.969L660.291 40.3381C660.335 40.2258 660.379 40.1038 660.423 39.967C660.467 39.8303 660.511 39.6838 660.55 39.5276C660.594 39.6936 660.638 39.845 660.687 39.9817C660.731 40.1184 660.775 40.2356 660.818 40.3381L661.551 41.969H659.559ZM662.772 44.7766H663.997L660.54 37.345L657.078 44.7766H658.299L659.129 42.9358H661.961L662.772 44.7766ZM665.833 43.7268V38.6682H666.253H666.673C667.269 38.6682 667.708 38.7073 667.991 38.7756C668.275 38.8489 668.514 38.9709 668.719 39.137C668.987 39.3713 669.188 39.6594 669.324 40.0012C669.461 40.343 669.529 40.7434 669.529 41.1975C669.529 41.6565 669.461 42.0569 669.324 42.3987C669.188 42.7405 668.987 43.0286 668.719 43.2581C668.519 43.429 668.284 43.551 668.016 43.6194C667.747 43.6926 667.347 43.7268 666.81 43.7268H665.833ZM664.671 44.7766H666.238H666.551C667.391 44.7766 668.011 44.7278 668.411 44.6252C668.812 44.5227 669.168 44.3518 669.481 44.1077C669.891 43.7903 670.203 43.385 670.418 42.8967C670.633 42.4084 670.74 41.842 670.74 41.2073C670.74 40.5725 670.633 40.011 670.418 39.5129C670.203 39.0198 669.891 38.6145 669.481 38.2971C669.168 38.0579 668.802 37.887 668.387 37.7844C667.972 37.6819 667.254 37.6282 666.238 37.6282H664.671V44.7766ZM673.235 40.675V38.6243H673.445C674.031 38.6243 674.432 38.7073 674.647 38.8684C674.861 39.0295 674.974 39.3079 674.974 39.6985C674.974 40.0647 674.871 40.3186 674.671 40.4602C674.466 40.6067 674.061 40.675 673.445 40.675H673.235ZM673.162 41.5784H673.294L675.672 44.7766H676.985L674.525 41.5247C675.062 41.4612 675.472 41.2659 675.75 40.9436C676.024 40.6213 676.165 40.1721 676.165 39.5959C676.165 39.2737 676.102 38.9709 675.984 38.6975C675.862 38.4241 675.692 38.2043 675.472 38.0286C675.286 37.887 675.062 37.7844 674.798 37.7209C674.534 37.6624 674.168 37.6282 673.694 37.6282H672.073V44.7766H673.162V41.5784ZM679.188 41.969L679.92 40.3381C679.964 40.2258 680.008 40.1038 680.052 39.967C680.096 39.8303 680.14 39.6838 680.179 39.5276C680.223 39.6936 680.267 39.845 680.316 39.9817C680.359 40.1184 680.403 40.2356 680.447 40.3381L681.18 41.969H679.188ZM682.401 44.7766H683.626L680.169 37.345L676.707 44.7766H677.928L678.758 42.9358H681.59L682.401 44.7766ZM686.609 38.6145H688.499V37.6282H683.548V38.6145H685.447V44.7766H686.609V38.6145ZM689.407 44.7766H690.569V37.6282H689.407V44.7766ZM692.239 44.7766H693.401V41.1243L696.229 44.7766H697.728L694.559 40.8069L697.391 37.6282H695.97L693.401 40.5872V37.6282H692.239V44.7766Z" fill="white"/>
<path d="M641.848 97.7498C642.031 98.6664 642.123 99.5414 642.123 100.375C642.123 101.208 641.965 102.016 641.648 102.8C641.315 103.633 640.865 104.35 640.298 104.95C639.731 105.533 639.056 106.016 638.273 106.4C637.823 106.616 637.34 106.783 636.823 106.9C636.306 107.016 635.79 107.058 635.273 107.025C634.756 107.008 634.248 106.9 633.748 106.7C633.248 106.5 632.773 106.2 632.323 105.8C631.99 105.483 631.715 105.108 631.498 104.675C631.298 104.241 631.131 103.775 630.998 103.275C630.881 102.758 630.798 102.225 630.748 101.675C630.698 101.125 630.665 100.566 630.648 99.9998C630.415 100.483 630.165 101 629.898 101.55C629.631 102.1 629.348 102.658 629.048 103.225C628.765 103.775 628.473 104.325 628.173 104.875C627.89 105.408 627.606 105.908 627.323 106.375C626.94 107.025 626.531 107.491 626.098 107.775C625.681 108.058 625.281 108.158 624.898 108.075C624.515 108.025 624.181 107.783 623.898 107.35C623.615 106.933 623.423 106.333 623.323 105.55C623.24 104.833 623.14 104.025 623.023 103.125C622.923 102.225 622.831 101.283 622.748 100.3C622.665 99.3164 622.59 98.3248 622.523 97.3248C622.473 96.3081 622.448 95.3248 622.448 94.3748C622.448 94.0414 622.54 93.7998 622.723 93.6498C622.923 93.4831 623.14 93.3998 623.373 93.3998C623.606 93.3998 623.815 93.4831 623.998 93.6498C624.198 93.7998 624.298 94.0164 624.298 94.2998C624.315 95.0664 624.348 95.8831 624.398 96.7498C624.448 97.6164 624.506 98.4998 624.573 99.3998C624.656 100.3 624.74 101.191 624.823 102.075C624.923 102.958 625.031 103.8 625.148 104.6C625.181 104.85 625.231 105.05 625.298 105.2C625.365 105.35 625.448 105.425 625.548 105.425C625.715 105.425 625.94 105.208 626.223 104.775C626.44 104.408 626.681 103.975 626.948 103.475C627.215 102.958 627.49 102.416 627.773 101.85C628.056 101.283 628.331 100.708 628.598 100.125C628.881 99.5248 629.148 98.9664 629.398 98.4498C629.648 97.9164 629.873 97.4414 630.073 97.0248C630.273 96.6081 630.44 96.2748 630.573 96.0248C630.673 95.7914 630.831 95.6414 631.048 95.5748C631.265 95.4914 631.481 95.4831 631.698 95.5498C631.881 95.5831 632.04 95.6831 632.173 95.8498C632.306 95.9998 632.356 96.2081 632.323 96.4748C632.29 97.1081 632.273 97.8164 632.273 98.5998C632.29 99.3664 632.34 100.125 632.423 100.875C632.506 101.608 632.64 102.3 632.823 102.95C633.023 103.583 633.306 104.075 633.673 104.425C634.156 104.908 634.731 105.166 635.398 105.2C636.065 105.233 636.698 105.108 637.298 104.825C637.881 104.525 638.398 104.15 638.848 103.7C639.315 103.25 639.665 102.725 639.898 102.125C640.098 101.641 640.198 101.058 640.198 100.375C640.198 99.6914 640.14 98.9664 640.023 98.1998C639.89 97.4331 639.715 96.6998 639.498 95.9998C639.281 95.2998 639.056 94.6748 638.823 94.1248C638.606 93.5748 638.398 93.1248 638.198 92.7748C637.998 92.4248 637.856 92.2081 637.773 92.1248C637.523 91.8914 637.406 91.6498 637.423 91.3998C637.44 91.1331 637.54 90.9164 637.723 90.7498C637.89 90.5831 638.098 90.4831 638.348 90.4498C638.598 90.4164 638.84 90.5164 639.073 90.7498C639.29 90.9664 639.531 91.2998 639.798 91.7498C640.065 92.1998 640.323 92.7331 640.573 93.3498C640.84 93.9664 641.081 94.6498 641.298 95.3998C641.515 96.1498 641.698 96.9331 641.848 97.7498ZM651.455 103.7C651.771 103.316 651.863 102.916 651.73 102.5C651.613 102.083 651.363 101.741 650.98 101.475C650.73 101.475 650.43 101.483 650.08 101.5C649.746 101.5 649.43 101.491 649.13 101.475C648.663 101.475 648.288 101.4 648.005 101.25C647.738 101.083 647.646 100.875 647.73 100.625C647.646 100.575 647.555 100.566 647.455 100.6C647.371 100.633 647.263 100.675 647.13 100.725C646.78 100.958 646.413 101.333 646.03 101.85C645.646 102.366 645.405 102.95 645.305 103.6C645.155 104.4 645.205 104.983 645.455 105.35C645.721 105.75 646.163 105.95 646.78 105.95C647.263 105.966 647.696 105.941 648.08 105.875C648.48 105.791 648.83 105.683 649.13 105.55C649.563 105.366 649.98 105.108 650.38 104.775C650.78 104.441 651.138 104.083 651.455 103.7ZM654.78 100.65C654.78 100.783 654.746 100.916 654.68 101.05C654.613 101.183 654.513 101.283 654.38 101.35C654.096 101.433 653.721 101.475 653.255 101.475C653.355 101.608 653.446 101.791 653.53 102.025C653.63 102.258 653.68 102.525 653.68 102.825C653.696 103.125 653.646 103.45 653.53 103.8C653.43 104.15 653.23 104.5 652.93 104.85C652.013 105.933 651.013 106.716 649.93 107.2C649.463 107.416 648.971 107.566 648.455 107.65C647.938 107.733 647.388 107.783 646.805 107.8C645.288 107.833 644.246 107.366 643.68 106.4C643.23 105.616 643.146 104.558 643.43 103.225C643.53 102.725 643.68 102.25 643.88 101.8C644.096 101.333 644.355 100.908 644.655 100.525C644.955 100.141 645.288 99.7998 645.655 99.4998C646.021 99.1998 646.405 98.9498 646.805 98.7498C647.171 98.5664 647.555 98.4831 647.955 98.4998C648.355 98.4998 648.721 98.6581 649.055 98.9748C649.205 98.9248 649.371 98.8998 649.555 98.8998C649.738 98.8831 649.896 98.8914 650.03 98.9248C650.313 98.9581 650.613 99.0498 650.93 99.1998C651.246 99.3331 651.505 99.4914 651.705 99.6748H653.78C654.08 99.6748 654.321 99.7748 654.505 99.9748C654.705 100.175 654.796 100.4 654.78 100.65ZM662.88 103.7C663.197 103.316 663.289 102.916 663.155 102.5C663.039 102.083 662.789 101.741 662.405 101.475C662.155 101.475 661.855 101.483 661.505 101.5C661.172 101.5 660.855 101.491 660.555 101.475C660.089 101.475 659.714 101.4 659.43 101.25C659.164 101.083 659.072 100.875 659.155 100.625C659.072 100.575 658.98 100.566 658.88 100.6C658.797 100.633 658.689 100.675 658.555 100.725C658.205 100.958 657.839 101.333 657.455 101.85C657.072 102.366 656.83 102.95 656.73 103.6C656.58 104.4 656.63 104.983 656.88 105.35C657.147 105.75 657.589 105.95 658.205 105.95C658.689 105.966 659.122 105.941 659.505 105.875C659.905 105.791 660.255 105.683 660.555 105.55C660.989 105.366 661.405 105.108 661.805 104.775C662.205 104.441 662.564 104.083 662.88 103.7ZM666.205 100.65C666.205 100.783 666.172 100.916 666.105 101.05C666.039 101.183 665.939 101.283 665.805 101.35C665.522 101.433 665.147 101.475 664.68 101.475C664.78 101.608 664.872 101.791 664.955 102.025C665.055 102.258 665.105 102.525 665.105 102.825C665.122 103.125 665.072 103.45 664.955 103.8C664.855 104.15 664.655 104.5 664.355 104.85C663.439 105.933 662.439 106.716 661.355 107.2C660.889 107.416 660.397 107.566 659.88 107.65C659.364 107.733 658.814 107.783 658.23 107.8C656.714 107.833 655.672 107.366 655.105 106.4C654.655 105.616 654.572 104.558 654.855 103.225C654.955 102.725 655.105 102.25 655.305 101.8C655.522 101.333 655.78 100.908 656.08 100.525C656.38 100.141 656.714 99.7998 657.08 99.4998C657.447 99.1998 657.83 98.9498 658.23 98.7498C658.597 98.5664 658.98 98.4831 659.38 98.4998C659.78 98.4998 660.147 98.6581 660.48 98.9748C660.63 98.9248 660.797 98.8998 660.98 98.8998C661.164 98.8831 661.322 98.8914 661.455 98.9248C661.739 98.9581 662.039 99.0498 662.355 99.1998C662.672 99.3331 662.93 99.4914 663.13 99.6748H665.205C665.505 99.6748 665.747 99.7748 665.93 99.9748C666.13 100.175 666.222 100.4 666.205 100.65ZM678.91 102.225C678.943 102.691 678.843 103.05 678.61 103.3C678.393 103.533 678.143 103.65 677.86 103.65C677.66 103.65 677.46 103.6 677.26 103.5C677.077 103.4 676.927 103.233 676.81 103C676.627 102.716 676.41 102.425 676.16 102.125C675.927 101.808 675.66 101.525 675.36 101.275C675.077 101.025 674.768 100.825 674.435 100.675C674.102 100.525 673.768 100.45 673.435 100.45C673.135 100.45 672.802 100.516 672.435 100.65C672.068 100.766 671.702 100.925 671.335 101.125C670.968 101.325 670.61 101.558 670.26 101.825C669.91 102.091 669.602 102.358 669.335 102.625C669.152 102.808 669.018 103 668.935 103.2C668.852 103.4 668.81 103.575 668.81 103.725C668.827 103.991 668.96 104.233 669.21 104.45C669.46 104.666 669.827 104.841 670.31 104.975C670.577 105.058 670.927 105.133 671.36 105.2C671.793 105.25 672.277 105.275 672.81 105.275C673.343 105.258 673.902 105.216 674.485 105.15C675.068 105.066 675.652 104.925 676.235 104.725C676.502 104.641 676.735 104.658 676.935 104.775C677.152 104.891 677.31 105.058 677.41 105.275C677.493 105.508 677.493 105.741 677.41 105.975C677.327 106.208 677.093 106.391 676.71 106.525C676.027 106.758 675.352 106.916 674.685 107C674.018 107.083 673.377 107.125 672.76 107.125C672.16 107.125 671.61 107.091 671.11 107.025C670.61 106.975 670.185 106.908 669.835 106.825C668.818 106.575 668.043 106.183 667.51 105.65C666.993 105.116 666.727 104.508 666.71 103.825C666.677 103.091 667.018 102.341 667.735 101.575C668.052 101.225 668.435 100.875 668.885 100.525C669.352 100.175 669.843 99.8581 670.36 99.5748C670.877 99.2748 671.402 99.0331 671.935 98.8498C672.485 98.6498 673.002 98.5498 673.485 98.5498C673.885 98.5498 674.243 98.5998 674.56 98.6998C674.877 98.7831 675.168 98.8998 675.435 99.0498C675.718 99.1998 675.968 99.3664 676.185 99.5498C676.418 99.7331 676.635 99.9081 676.835 100.075C676.768 99.2248 676.693 98.3414 676.61 97.4248C676.527 96.4914 676.435 95.5748 676.335 94.6748C676.252 93.7748 676.16 92.9164 676.06 92.0998C675.96 91.2664 675.86 90.5248 675.76 89.8748C675.693 89.5414 675.743 89.2748 675.91 89.0748C676.093 88.8581 676.302 88.7331 676.535 88.6998C676.768 88.6498 676.993 88.6998 677.21 88.8498C677.443 88.9831 677.585 89.2331 677.635 89.5998C677.735 90.3331 677.852 91.2331 677.985 92.2998C678.118 93.3664 678.243 94.4831 678.36 95.6498C678.493 96.8164 678.602 97.9831 678.685 99.1498C678.785 100.3 678.86 101.325 678.91 102.225ZM689.829 104.35C689.846 104.55 689.779 104.75 689.629 104.95C689.496 105.15 689.262 105.266 688.929 105.3C688.696 105.333 688.371 105.416 687.954 105.55C687.554 105.666 687.121 105.808 686.654 105.975C686.204 106.141 685.737 106.3 685.254 106.45C684.787 106.616 684.379 106.741 684.029 106.825C682.979 107.075 682.154 107.066 681.554 106.8C680.971 106.55 680.546 105.941 680.279 104.975C680.196 104.658 680.146 104.291 680.129 103.875C680.129 103.441 680.146 103.066 680.179 102.75C680.212 102.316 680.271 101.891 680.354 101.475C680.454 101.058 680.562 100.683 680.679 100.35C680.579 100.316 680.529 100.25 680.529 100.15C680.529 100.05 680.546 99.9498 680.579 99.8498C680.646 99.6998 680.746 99.5164 680.879 99.2998C681.012 99.0664 681.146 98.8831 681.279 98.7498C681.446 98.6164 681.629 98.5414 681.829 98.5248C682.046 98.5081 682.246 98.5331 682.429 98.5998C682.662 98.6831 682.837 98.8164 682.954 98.9998C683.087 99.1664 683.096 99.3581 682.979 99.5748C682.796 99.9414 682.604 100.425 682.404 101.025C682.221 101.625 682.112 102.2 682.079 102.75C682.062 103.083 682.062 103.383 682.079 103.65C682.096 103.916 682.129 104.141 682.179 104.325C682.262 104.658 682.404 104.883 682.604 105C682.821 105.1 683.154 105.108 683.604 105.025C683.887 104.975 684.254 104.866 684.704 104.7C685.154 104.533 685.621 104.358 686.104 104.175C686.604 103.975 687.087 103.8 687.554 103.65C688.037 103.5 688.446 103.425 688.779 103.425C689.112 103.408 689.362 103.5 689.529 103.7C689.712 103.9 689.812 104.116 689.829 104.35ZM684.979 93.1498C685.179 93.2831 685.329 93.4581 685.429 93.6748C685.529 93.8748 685.579 94.0914 685.579 94.3248C685.579 94.5414 685.529 94.7664 685.429 94.9998C685.329 95.2164 685.171 95.3998 684.954 95.5498C684.671 95.7498 684.346 95.8414 683.979 95.8248C683.612 95.8081 683.279 95.6581 682.979 95.3748C682.696 95.0748 682.554 94.7081 682.554 94.2748C682.571 93.8248 682.787 93.4498 683.204 93.1498C683.454 92.9664 683.746 92.8748 684.079 92.8748C684.412 92.8748 684.712 92.9664 684.979 93.1498ZM699.707 106.875C699.624 107.075 699.482 107.241 699.282 107.375C699.099 107.525 698.891 107.575 698.657 107.525C697.907 107.358 697.107 107.083 696.257 106.7C695.407 106.316 694.582 105.9 693.782 105.45C692.982 104.983 692.249 104.508 691.582 104.025C690.916 103.541 690.407 103.116 690.057 102.75C690.041 102.95 690.024 103.183 690.007 103.45C690.007 103.7 689.999 103.958 689.982 104.225C689.982 104.475 689.974 104.716 689.957 104.95C689.957 105.183 689.957 105.375 689.957 105.525C689.924 105.825 689.824 106.05 689.657 106.2C689.491 106.35 689.291 106.425 689.057 106.425C688.841 106.425 688.632 106.35 688.432 106.2C688.249 106.05 688.157 105.825 688.157 105.525C688.124 104.791 688.116 103.95 688.132 103C688.149 102.05 688.232 101.066 688.382 100.05C688.499 99.2831 688.641 98.5164 688.807 97.7498C688.991 96.9831 689.216 96.2414 689.482 95.5248C689.749 94.8081 690.049 94.1331 690.382 93.4998C690.732 92.8498 691.132 92.2748 691.582 91.7748C691.766 91.5914 691.982 91.4998 692.232 91.4998C692.482 91.4831 692.699 91.5414 692.882 91.6748C693.049 91.8081 693.157 91.9831 693.207 92.1998C693.274 92.4164 693.224 92.6664 693.057 92.9498C692.391 93.8998 691.857 94.8581 691.457 95.8248C691.057 96.7914 690.749 97.8331 690.532 98.9498C690.749 98.7998 691.074 98.6414 691.507 98.4748C691.957 98.3081 692.449 98.1581 692.982 98.0248C693.532 97.8748 694.099 97.7498 694.682 97.6498C695.282 97.5498 695.849 97.4914 696.382 97.4748C696.966 97.4414 697.482 97.4664 697.932 97.5498C698.249 97.5831 698.466 97.6998 698.582 97.8998C698.716 98.0831 698.774 98.2831 698.757 98.4998C698.741 98.7664 698.632 98.9998 698.432 99.1998C698.249 99.3831 697.991 99.4331 697.657 99.3498C697.507 99.3164 697.324 99.3081 697.107 99.3248C696.891 99.3248 696.666 99.3248 696.432 99.3248C695.999 99.3581 695.549 99.4164 695.082 99.4998C694.616 99.5831 694.157 99.6831 693.707 99.7998C693.274 99.9164 692.866 100.041 692.482 100.175C692.099 100.308 691.782 100.441 691.532 100.575C691.299 100.675 691.157 100.816 691.107 101C691.074 101.166 691.157 101.35 691.357 101.55C691.691 101.833 692.157 102.183 692.757 102.6C693.374 103.016 694.041 103.433 694.757 103.85C695.491 104.266 696.232 104.65 696.982 105C697.732 105.35 698.424 105.583 699.057 105.7C699.391 105.783 699.599 105.941 699.682 106.175C699.782 106.408 699.791 106.641 699.707 106.875ZM720.025 95.1498C720.209 95.5331 720.092 95.9748 719.675 96.4748C719.209 97.0414 718.717 97.6831 718.2 98.3998C717.684 99.1164 717.159 99.8748 716.625 100.675C716.109 101.475 715.609 102.291 715.125 103.125C714.642 103.958 714.184 104.783 713.75 105.6C713.334 106.416 712.967 107.2 712.65 107.95C712.334 108.7 712.092 109.383 711.925 110C712.009 110.233 712.042 110.466 712.025 110.7C712.025 110.933 711.975 111.125 711.875 111.275C711.725 111.508 711.525 111.666 711.275 111.75C711.025 111.833 710.784 111.841 710.55 111.775C710.284 111.691 710.067 111.508 709.9 111.225C709.75 110.958 709.742 110.6 709.875 110.15C710.192 109 710.634 107.808 711.2 106.575C711.767 105.358 712.375 104.166 713.025 103C713.692 101.816 714.375 100.7 715.075 99.6498C715.792 98.5831 716.459 97.6414 717.075 96.8248C717.192 96.6581 717.234 96.5248 717.2 96.4248C717.167 96.3081 717.009 96.2498 716.725 96.2498C716.192 96.2331 715.684 96.2248 715.2 96.2248C714.734 96.2081 714.242 96.1998 713.725 96.1998C713.225 96.1998 712.684 96.2164 712.1 96.2498C711.517 96.2664 710.859 96.2998 710.125 96.3498C709.942 96.4831 709.75 96.5748 709.55 96.6248C709.367 96.6748 709.184 96.6914 709 96.6748C708.717 96.6914 708.45 96.6164 708.2 96.4498C707.967 96.2664 707.8 96.0581 707.7 95.8248C707.6 95.5748 707.617 95.3248 707.75 95.0748C707.884 94.8248 708.2 94.6581 708.7 94.5748C709.267 94.5081 709.967 94.4581 710.8 94.4248C711.65 94.3748 712.534 94.3498 713.45 94.3498C714.384 94.3498 715.309 94.3581 716.225 94.3748C717.142 94.3914 717.95 94.4248 718.65 94.4748C719.05 94.4914 719.359 94.5664 719.575 94.6998C719.792 94.8164 719.942 94.9664 720.025 95.1498Z" fill="white"/>
<path d="M605.426 150.832H602.706L603.614 149.777C604.356 148.933 604.84 148.288 605.069 147.844C605.299 147.399 605.416 146.96 605.416 146.521C605.416 145.91 605.216 145.427 604.815 145.07C604.415 144.719 603.873 144.538 603.184 144.538C602.457 144.538 601.881 144.733 601.451 145.114C601.021 145.495 600.806 146.008 600.806 146.647H601.925C601.949 146.315 602.066 146.052 602.281 145.847C602.491 145.642 602.76 145.539 603.087 145.539C603.448 145.539 603.736 145.642 603.946 145.847C604.156 146.052 604.264 146.33 604.264 146.682C604.264 146.931 604.185 147.204 604.034 147.507C603.878 147.81 603.639 148.161 603.306 148.562L600.636 151.76H605.426V150.832ZM611.471 150.832H608.751L609.659 149.777C610.401 148.933 610.885 148.288 611.114 147.844C611.344 147.399 611.461 146.96 611.461 146.521C611.461 145.91 611.261 145.427 610.86 145.07C610.46 144.719 609.918 144.538 609.229 144.538C608.502 144.538 607.926 144.733 607.496 145.114C607.066 145.495 606.851 146.008 606.851 146.647H607.97C607.994 146.315 608.111 146.052 608.326 145.847C608.536 145.642 608.805 145.539 609.132 145.539C609.493 145.539 609.781 145.642 609.991 145.847C610.201 146.052 610.308 146.33 610.308 146.682C610.308 146.931 610.23 147.204 610.079 147.507C609.923 147.81 609.683 148.161 609.351 148.562L606.681 151.76H611.471V150.832ZM616.016 144.45L612.515 152.688H613.346L616.847 144.45H616.016ZM619.493 151.76H620.553V144.68H618.463L618.014 145.598H619.493V151.76ZM623.355 149.851C623.375 150.495 623.595 151.003 624.014 151.384C624.434 151.765 624.986 151.95 625.675 151.95C626.431 151.95 627.032 151.765 627.476 151.394C627.921 151.022 628.145 150.515 628.145 149.88C628.145 149.362 628.023 148.942 627.789 148.625C627.555 148.312 627.208 148.112 626.759 148.029C627.139 147.971 627.442 147.805 627.657 147.521C627.872 147.238 627.984 146.877 627.984 146.438C627.984 145.856 627.789 145.393 627.408 145.051C627.027 144.709 626.51 144.538 625.855 144.538C625.177 144.538 624.649 144.704 624.268 145.026C623.888 145.354 623.678 145.822 623.648 146.428H624.698C624.708 146.125 624.81 145.891 625.006 145.725C625.201 145.559 625.474 145.471 625.826 145.471C626.148 145.471 626.407 145.563 626.602 145.744C626.798 145.925 626.895 146.169 626.895 146.472C626.895 146.818 626.788 147.082 626.573 147.258C626.358 147.434 626.036 147.521 625.616 147.521C625.592 147.521 625.557 147.521 625.509 147.517C625.46 147.517 625.426 147.512 625.406 147.512V148.449C625.431 148.449 625.47 148.449 625.518 148.444C625.567 148.444 625.601 148.439 625.626 148.439C626.104 148.439 626.466 148.552 626.71 148.767C626.954 148.981 627.076 149.304 627.076 149.729C627.076 150.139 626.954 150.451 626.72 150.666C626.485 150.881 626.148 150.988 625.719 150.988C625.333 150.988 625.03 150.891 624.806 150.695C624.581 150.5 624.469 150.241 624.469 149.909V149.851H623.355ZM632.442 144.45L628.941 152.688H629.771L633.272 144.45H632.442ZM638.277 150.832H635.557L636.466 149.777C637.208 148.933 637.691 148.288 637.921 147.844C638.15 147.399 638.267 146.96 638.267 146.521C638.267 145.91 638.067 145.427 637.667 145.07C637.266 144.719 636.724 144.538 636.036 144.538C635.308 144.538 634.732 144.733 634.303 145.114C633.873 145.495 633.658 146.008 633.658 146.647H634.776C634.801 146.315 634.918 146.052 635.133 145.847C635.343 145.642 635.611 145.539 635.938 145.539C636.3 145.539 636.588 145.642 636.798 145.847C637.008 146.052 637.115 146.33 637.115 146.682C637.115 146.931 637.037 147.204 636.886 147.507C636.729 147.81 636.49 148.161 636.158 148.562L633.487 151.76H638.277V150.832ZM644.913 148.317C644.913 147.106 644.688 146.174 644.249 145.52C643.805 144.865 643.175 144.538 642.354 144.538C641.544 144.538 640.909 144.865 640.455 145.515C639.996 146.169 639.771 147.077 639.771 148.239C639.771 149.416 639.996 150.329 640.445 150.979C640.894 151.628 641.529 151.95 642.34 151.95C643.14 151.95 643.765 151.633 644.224 150.988C644.683 150.344 644.913 149.455 644.913 148.317ZM642.32 150.949C641.871 150.949 641.529 150.72 641.29 150.251C641.051 149.787 640.933 149.118 640.933 148.249C640.933 147.355 641.051 146.677 641.295 146.218C641.534 145.759 641.89 145.529 642.364 145.529C642.813 145.529 643.16 145.764 643.394 146.223C643.629 146.682 643.751 147.351 643.751 148.229C643.751 149.138 643.629 149.816 643.389 150.271C643.15 150.725 642.794 150.949 642.32 150.949ZM650.367 150.832H647.647L648.556 149.777C649.298 148.933 649.781 148.288 650.011 147.844C650.24 147.399 650.357 146.96 650.357 146.521C650.357 145.91 650.157 145.427 649.757 145.07C649.356 144.719 648.814 144.538 648.126 144.538C647.398 144.538 646.822 144.733 646.392 145.114C645.963 145.495 645.748 146.008 645.748 146.647H646.866C646.89 146.315 647.008 146.052 647.223 145.847C647.432 145.642 647.701 145.539 648.028 145.539C648.389 145.539 648.678 145.642 648.888 145.847C649.098 146.052 649.205 146.33 649.205 146.682C649.205 146.931 649.127 147.204 648.975 147.507C648.819 147.81 648.58 148.161 648.248 148.562L645.577 151.76H650.367V150.832ZM651.871 149.851C651.89 150.495 652.11 151.003 652.53 151.384C652.95 151.765 653.502 151.95 654.19 151.95C654.947 151.95 655.548 151.765 655.992 151.394C656.436 151.022 656.661 150.515 656.661 149.88C656.661 149.362 656.539 148.942 656.305 148.625C656.07 148.312 655.723 148.112 655.274 148.029C655.655 147.971 655.958 147.805 656.173 147.521C656.388 147.238 656.5 146.877 656.5 146.438C656.5 145.856 656.305 145.393 655.924 145.051C655.543 144.709 655.025 144.538 654.371 144.538C653.692 144.538 653.165 144.704 652.784 145.026C652.403 145.354 652.193 145.822 652.164 146.428H653.214C653.223 146.125 653.326 145.891 653.521 145.725C653.717 145.559 653.99 145.471 654.342 145.471C654.664 145.471 654.923 145.563 655.118 145.744C655.313 145.925 655.411 146.169 655.411 146.472C655.411 146.818 655.304 147.082 655.089 147.258C654.874 147.434 654.552 147.521 654.132 147.521C654.107 147.521 654.073 147.521 654.024 147.517C653.975 147.517 653.941 147.512 653.922 147.512V148.449C653.946 148.449 653.985 148.449 654.034 148.444C654.083 148.444 654.117 148.439 654.141 148.439C654.62 148.439 654.981 148.552 655.225 148.767C655.47 148.981 655.592 149.304 655.592 149.729C655.592 150.139 655.47 150.451 655.235 150.666C655.001 150.881 654.664 150.988 654.234 150.988C653.848 150.988 653.546 150.891 653.321 150.695C653.097 150.5 652.984 150.241 652.984 149.909V149.851H651.871Z" fill="#D0C3B4"/>
<path d="M787.564 148.952L788.296 147.321C788.34 147.209 788.384 147.087 788.428 146.95C788.472 146.813 788.516 146.667 788.555 146.511C788.599 146.677 788.643 146.828 788.691 146.965C788.735 147.102 788.779 147.219 788.823 147.321L789.556 148.952H787.564ZM790.776 151.76H792.002L788.545 144.328L785.083 151.76H786.304L787.134 149.919H789.966L790.776 151.76ZM795.444 146.931C795.435 147.067 795.425 147.194 795.42 147.312C795.415 147.434 795.415 147.541 795.415 147.639V149.499H793.623L795.444 146.931ZM795.415 151.76H796.475V150.31H797.344V149.499H796.475V144.538H796.148L791.987 150.31H795.415V151.76Z" fill="#D0C3B4"/>
<path d="M725.809 199.895H729.798V198.854H726.971V196.545H729.798V195.524H726.971V193.732H729.798V192.746H725.809V199.895ZM736.868 194.484L736.932 193.312C736.57 193.068 736.204 192.883 735.823 192.761C735.442 192.639 735.042 192.575 734.622 192.575C734.085 192.575 733.592 192.668 733.133 192.849C732.674 193.029 732.264 193.293 731.912 193.645C731.556 193.996 731.282 194.401 731.097 194.86C730.911 195.319 730.818 195.812 730.818 196.335C730.818 196.862 730.911 197.355 731.097 197.819C731.282 198.283 731.551 198.684 731.902 199.025C732.254 199.377 732.659 199.641 733.123 199.816C733.587 199.997 734.095 200.085 734.642 200.085C735.071 200.085 735.467 200.031 735.838 199.919C736.204 199.812 736.546 199.641 736.858 199.416V198.103C736.507 198.405 736.136 198.635 735.755 198.781C735.374 198.933 734.969 199.006 734.549 199.006C733.821 199.006 733.221 198.757 732.742 198.254C732.264 197.756 732.029 197.116 732.029 196.345C732.029 195.549 732.273 194.899 732.762 194.396C733.25 193.898 733.89 193.645 734.671 193.645C735.071 193.645 735.457 193.718 735.823 193.854C736.189 193.996 736.536 194.206 736.868 194.484ZM738.309 199.895H739.471V196.423H742.986V199.895H744.148V192.746H742.986V195.383H739.471V192.746H738.309V199.895ZM745.789 199.895H749.778V198.854H746.951V196.545H749.778V195.524H746.951V193.732H749.778V192.746H745.789V199.895ZM751.111 199.895H754.871V198.854H752.273V192.746H751.111V199.895ZM755.818 199.895H759.578V198.854H756.98V192.746H755.818V199.895ZM760.525 199.895H764.515V198.854H761.687V196.545H764.515V195.524H761.687V193.732H764.515V192.746H760.525V199.895ZM770.686 199.895H771.746V192.814H769.656L769.207 193.732H770.686V199.895ZM777.591 192.585L774.09 200.822H774.92L778.421 192.585H777.591ZM781.067 199.895H782.127V192.814H780.037L779.588 193.732H781.067V199.895Z" fill="#D0C3B4"/>
<path fill-rule="evenodd" clip-rule="evenodd" d="M460.68 171.177C460.398 171.618 458.815 172.267 457.162 172.618C453.511 173.395 448.086 179.137 447.271 183.086C446.692 185.884 446.494 185.97 440.622 185.97C436.846 185.97 434.805 186.342 435.199 186.958C435.546 187.502 438.291 187.947 441.299 187.947C446.429 187.947 446.808 188.115 447.413 190.665C448.391 194.794 452.026 198.481 457.249 200.642C461.65 202.463 462.268 202.492 466.701 201.078C471.957 199.401 476.304 195.137 477.205 190.774L477.788 187.947H487.862C500.946 187.947 501.111 186.132 488.061 185.758C478.284 185.479 478.178 185.449 477.448 182.798C476.065 177.771 472.726 174.493 466.857 172.397C463.74 171.285 460.961 170.735 460.68 171.177ZM394.395 174.286C382.613 175.835 371.046 177.373 368.692 177.704C364.642 178.275 364.394 178.501 364.101 181.891L363.792 185.476L357.926 185.772C350.155 186.165 350.364 187.947 358.182 187.947H364.302V191.266V194.586L372.208 195.648C376.557 196.234 388.147 197.801 397.965 199.132C407.784 200.462 416.162 201.356 416.582 201.117C417.002 200.876 417.347 194.283 417.347 186.464C417.347 178.645 417.002 172.073 416.582 171.858C416.162 171.645 406.177 172.737 394.395 174.286ZM416.106 185.418C416.265 191.911 416.195 197.729 415.95 198.349C415.625 199.167 410.388 198.858 396.788 197.219C370.805 194.087 366.342 193.123 366.342 190.64C366.342 189.55 367.146 188.069 368.127 187.346C369.828 186.096 369.828 186.031 368.127 186.002C366.795 185.978 366.342 185.144 366.342 182.713V179.456L385.979 177.15C396.78 175.881 406.534 174.473 407.656 174.021C408.778 173.568 411.074 173.292 412.757 173.406L415.817 173.614L416.106 185.418ZM461.212 176.03C461.212 177.022 460.043 178.577 458.614 179.484C457.186 180.39 455.506 182.221 454.881 183.551C454.146 185.114 452.899 185.97 451.356 185.97C446.718 185.97 449.182 179.653 455.328 175.792C459.722 173.03 461.212 173.09 461.212 176.03ZM469.349 175.576C473.675 178.223 475.493 180.693 475.493 183.928C475.493 187.003 472.173 186.464 469.496 182.955C468.231 181.296 466.078 179.528 464.714 179.025C461.535 177.854 461.333 173.12 464.463 173.12C464.941 173.12 467.139 174.225 469.349 175.576ZM466.321 182.021C468.26 183.026 468.692 188.045 467.056 190.566C466.172 191.928 459.141 192.097 457.507 190.795C456.04 189.627 456.42 184.532 458.123 182.544C459.607 180.81 463.508 180.562 466.321 182.021ZM461.467 184.693C459.687 185.326 459.873 187.617 461.76 188.319C462.669 188.657 463.584 188.257 463.936 187.37C464.654 185.555 463.269 184.052 461.467 184.693ZM378.583 186.958C378.583 187.502 380.163 187.947 382.094 187.947C384.025 187.947 385.887 187.502 386.234 186.958C386.615 186.361 385.224 185.97 382.724 185.97C380.447 185.97 378.583 186.415 378.583 186.958ZM395.925 186.958C395.925 187.535 399.325 187.947 404.086 187.947C408.847 187.947 412.247 187.535 412.247 186.958C412.247 186.382 408.847 185.97 404.086 185.97C399.325 185.97 395.925 186.382 395.925 186.958ZM421.428 186.958C421.428 187.502 423.007 187.947 424.938 187.947C426.869 187.947 428.732 187.502 429.078 186.958C429.459 186.361 428.068 185.97 425.568 185.97C423.291 185.97 421.428 186.415 421.428 186.958ZM454.956 190.174C455.633 191.399 457.546 193.157 459.209 194.082C462.198 195.744 463.147 198.156 461.256 199.288C458.223 201.105 448.988 193.506 448.974 189.183C448.967 187.023 453.643 187.798 454.956 190.174ZM475.493 189.848C475.493 193.77 466.076 201.227 463.848 199.069C462.364 197.631 463.458 194.742 465.814 193.873C467.224 193.354 468.904 191.808 469.549 190.438C471.004 187.343 475.493 186.897 475.493 189.848Z" fill="#D0C3B4"/>
<path d="M831.843 1H2.54425V213H831.843V1Z" stroke="#D0C3B4"/>
<path d="M341.425 0.999756V212.949" stroke="#D0C3B4"/>
</svg>
