<svg width="1920" height="1080" viewBox="0 0 1920 1080" fill="none" xmlns="http://www.w3.org/2000/svg">
<path fill-rule="evenodd" clip-rule="evenodd" d="M1698.03 27.6926H1698.69V12.3804H1698.03V27.6926ZM1889.7 198.082V198.733H1904.85V198.082H1889.7ZM1889.7 368.145V368.797H1904.85V368.145H1889.7ZM1889.7 538.208V538.86H1904.85V538.208H1889.7ZM1889.7 708.272V708.923H1904.85V708.272H1889.7ZM1889.7 878.335V878.987H1904.85V878.335H1889.7ZM1698.69 1051.33H1698.03V1061.43H1698.69V1051.33ZM1513.28 1051.33H1512.62V1061.76H1513.28V1051.33ZM1327.86 1051.33H1327.2V1062.08H1327.86V1051.33ZM1142.45 1051.33H1141.79V1062.41H1142.45V1051.33ZM957.036 1051.33H956.377V1062.73H957.036V1051.33ZM771.623 1051.33H770.964V1063.06H771.623V1051.33ZM586.209 1051.33H585.551V1063.38H586.209V1051.33ZM400.796 1051.33H400.137V1063.71H400.796V1051.33ZM215.383 1051.33H214.724V1064.04H215.383V1051.33ZM29.6398 878.987V878.335H14.82V878.987H29.6398ZM29.6398 708.923V708.272H14.82V708.923H29.6398ZM29.6398 538.86V538.208H14.82V538.86H29.6398ZM29.6398 368.797V368.145H14.82V368.797H29.6398ZM29.6398 198.733V198.082H14.82V198.733H29.6398ZM1513.28 27.6926H1512.62V12.7062H1513.28V27.6926ZM1327.86 27.6926V13.032H1327.2V27.6926H1327.86ZM1142.45 27.6926V13.3577H1141.79V27.6926H1142.45ZM957.036 27.6926V13.6835H956.377V27.6926H957.036ZM771.623 27.6926V14.0093H770.964V27.6926H771.623ZM586.209 27.6926V14.3351H585.551V27.6926H586.209ZM400.796 27.6926V14.6609H400.137V27.6926H400.796ZM215.383 27.6926V14.9867H214.724V27.6926H215.383Z" fill="#D0C3B4"/>
<path opacity="0.1" d="M1918.68 2.93237H1.31738V1078.7H1918.68V2.93237Z" stroke="#D0C3B4"/>
<path opacity="0.8" d="M1.31738 28.0183H1919.34" stroke="#D0C3B4"/>
<path opacity="0.8" d="M3.29333 1051H1919.34" stroke="#D0C3B4"/>
<path opacity="0.8" d="M29.6398 -0.000244141V1078.05" stroke="#D0C3B4"/>
<path opacity="0.8" d="M1889.7 2.28076V1078.05" stroke="#D0C3B4"/>
<path d="M122.26 9.74414V19.2218H121.1V10.9474H121.044L118.705 12.4838V11.3176L121.1 9.74414H122.26Z" fill="#D0C3B4"/>
<path d="M122.26 1057.49V1066.97H121.1V1058.69H121.044L118.705 1060.23V1059.07L121.1 1057.49H122.26Z" fill="#D0C3B4"/>
<path d="M303.976 19.2216V18.3887L307.139 14.9641C307.51 14.5631 307.815 14.2144 308.056 13.9183C308.295 13.619 308.473 13.3382 308.589 13.076C308.707 12.8107 308.766 12.533 308.766 12.2431C308.766 11.9098 308.685 11.6214 308.523 11.3776C308.364 11.1339 308.146 10.9458 307.869 10.8131C307.591 10.6804 307.279 10.6141 306.933 10.6141C306.565 10.6141 306.244 10.6897 305.969 10.8408C305.698 10.989 305.487 11.1972 305.337 11.4656C305.191 11.734 305.118 12.0487 305.118 12.4097H304.013C304.013 11.8543 304.143 11.3669 304.402 10.9473C304.661 10.5277 305.013 10.2007 305.459 9.96623C305.908 9.73172 306.412 9.6145 306.97 9.6145C307.531 9.6145 308.029 9.73172 308.463 9.96623C308.896 10.2007 309.236 10.5169 309.482 10.9149C309.729 11.3129 309.852 11.7556 309.852 12.2431C309.852 12.5917 309.788 12.9326 309.66 13.2658C309.536 13.5959 309.317 13.9645 309.005 14.3718C308.696 14.776 308.268 15.2696 307.719 15.8526L305.566 18.1295V18.2035H310.02V19.2216H303.976Z" fill="#D0C3B4"/>
<path d="M303.976 1066.97V1066.14L307.139 1062.71C307.51 1062.31 307.815 1061.96 308.056 1061.67C308.295 1061.37 308.473 1061.09 308.589 1060.82C308.707 1060.56 308.766 1060.28 308.766 1059.99C308.766 1059.66 308.685 1059.37 308.523 1059.12C308.364 1058.88 308.146 1058.69 307.869 1058.56C307.591 1058.43 307.279 1058.36 306.933 1058.36C306.565 1058.36 306.244 1058.44 305.969 1058.59C305.698 1058.74 305.487 1058.94 305.337 1059.22C305.191 1059.48 305.118 1059.8 305.118 1060.16H304.013C304.013 1059.6 304.143 1059.12 304.402 1058.69C304.661 1058.28 305.013 1057.95 305.459 1057.72C305.908 1057.48 306.412 1057.36 306.97 1057.36C307.531 1057.36 308.029 1057.48 308.463 1057.72C308.896 1057.95 309.236 1058.26 309.482 1058.66C309.729 1059.06 309.852 1059.5 309.852 1059.99C309.852 1060.34 309.788 1060.68 309.66 1061.01C309.536 1061.35 309.317 1061.71 309.005 1062.12C308.696 1062.53 308.268 1063.01 307.719 1063.6L305.566 1065.87V1065.95H310.02V1066.97H303.976Z" fill="#D0C3B4"/>
<path d="M492.297 19.3512C491.68 19.3512 491.129 19.2463 490.646 19.0365C490.166 18.8267 489.784 18.5352 489.5 18.1619C489.219 17.7855 489.066 17.3489 489.041 16.8522H490.22C490.245 17.1577 490.351 17.4215 490.538 17.6436C490.726 17.8626 490.971 18.0323 491.273 18.1527C491.575 18.2729 491.91 18.3331 492.279 18.3331C492.69 18.3331 493.055 18.2622 493.373 18.1203C493.691 17.9784 493.941 17.7809 494.122 17.5279C494.303 17.2749 494.393 16.9818 494.393 16.6486C494.393 16.3 494.306 15.9931 494.131 15.7277C493.956 15.4593 493.701 15.2495 493.364 15.0984C493.027 14.9472 492.615 14.8716 492.129 14.8716H491.362V13.8535H492.129C492.509 13.8535 492.843 13.7856 493.13 13.6499C493.42 13.5141 493.646 13.3229 493.808 13.076C493.973 12.8292 494.056 12.5392 494.056 12.206C494.056 11.8851 493.985 11.6059 493.841 11.3684C493.697 11.1309 493.495 10.9458 493.233 10.8131C492.974 10.6804 492.669 10.6141 492.316 10.6141C491.986 10.6141 491.673 10.6742 491.38 10.7946C491.09 10.9118 490.853 11.083 490.67 11.3082C490.486 11.5304 490.386 11.7988 490.37 12.1135H489.247C489.266 11.6168 489.417 11.1818 489.701 10.8085C489.985 10.432 490.356 10.139 490.814 9.92915C491.276 9.71941 491.783 9.6145 492.335 9.6145C492.927 9.6145 493.436 9.73329 493.86 9.97085C494.284 10.2053 494.61 10.5154 494.838 10.901C495.065 11.2867 495.179 11.7032 495.179 12.1505C495.179 12.6842 495.037 13.1392 494.753 13.5157C494.473 13.892 494.091 14.1527 493.607 14.2978V14.3718C494.212 14.4705 494.685 14.7251 495.025 15.1354C495.364 15.5426 495.534 16.047 495.534 16.6486C495.534 17.1639 495.393 17.6266 495.109 18.0369C494.828 18.4442 494.444 18.765 493.958 18.9995C493.471 19.234 492.918 19.3512 492.297 19.3512Z" fill="#D0C3B4"/>
<path d="M492.297 1067.1C491.68 1067.1 491.129 1067 490.646 1066.79C490.166 1066.57 489.784 1066.28 489.5 1065.91C489.219 1065.54 489.066 1065.1 489.041 1064.6H490.22C490.245 1064.9 490.351 1065.17 490.538 1065.39C490.726 1065.61 490.971 1065.78 491.273 1065.9C491.575 1066.02 491.91 1066.08 492.279 1066.08C492.69 1066.08 493.055 1066.01 493.373 1065.87C493.691 1065.72 493.941 1065.53 494.122 1065.27C494.303 1065.02 494.393 1064.73 494.393 1064.4C494.393 1064.05 494.306 1063.74 494.131 1063.48C493.956 1063.21 493.701 1062.99 493.364 1062.84C493.027 1062.69 492.615 1062.62 492.129 1062.62H491.362V1061.6H492.129C492.509 1061.6 492.843 1061.53 493.13 1061.4C493.42 1061.26 493.646 1061.07 493.808 1060.82C493.973 1060.58 494.056 1060.28 494.056 1059.95C494.056 1059.63 493.985 1059.35 493.841 1059.12C493.697 1058.88 493.495 1058.69 493.233 1058.56C492.974 1058.43 492.669 1058.36 492.316 1058.36C491.986 1058.36 491.673 1058.42 491.38 1058.54C491.09 1058.66 490.853 1058.83 490.67 1059.06C490.486 1059.28 490.386 1059.55 490.37 1059.86H489.247C489.266 1059.37 489.417 1058.93 489.701 1058.56C489.985 1058.18 490.356 1057.89 490.814 1057.68C491.276 1057.47 491.783 1057.36 492.335 1057.36C492.927 1057.36 493.436 1057.48 493.86 1057.72C494.284 1057.95 494.61 1058.26 494.838 1058.65C495.065 1059.03 495.179 1059.45 495.179 1059.9C495.179 1060.43 495.037 1060.89 494.753 1061.26C494.473 1061.64 494.091 1061.9 493.607 1062.04V1062.12C494.212 1062.22 494.685 1062.47 495.025 1062.88C495.364 1063.29 495.534 1063.8 495.534 1064.4C495.534 1064.91 495.393 1065.37 495.109 1065.78C494.828 1066.19 494.444 1066.51 493.958 1066.75C493.471 1066.98 492.918 1067.1 492.297 1067.1Z" fill="#D0C3B4"/>
<path d="M673.917 17.2781V16.3341L678.132 9.74414H678.824V11.2066H678.356L675.175 16.186V16.26H680.846V17.2781H673.917ZM678.428 19.2218V16.9912V16.5516V9.74414H679.535V19.2218H678.428Z" fill="#D0C3B4"/>
<path d="M673.917 1065.03V1064.08L678.132 1057.49H678.824V1058.95H678.356L675.175 1063.93V1064H680.846V1065.03H673.917ZM678.428 1066.97V1064.74V1064.3V1057.49H679.535V1066.97H678.428Z" fill="#D0C3B4"/>
<path d="M862.222 19.3514C861.675 19.3514 861.181 19.2433 860.74 19.0274C860.298 18.8115 859.949 18.5152 859.679 18.1389C859.416 17.7625 859.271 17.3337 859.244 16.8523H860.371C860.41 17.2812 860.608 17.636 860.957 17.9168C861.313 18.1944 861.734 18.3333 862.222 18.3333C862.617 18.3333 862.966 18.2422 863.269 18.0602C863.578 17.8782 863.822 17.6283 863.993 17.3105C864.171 16.9896 864.263 16.6271 864.263 16.223C864.263 15.8096 864.171 15.4409 863.987 15.117C863.802 14.7899 863.559 14.5323 863.236 14.3441C862.92 14.1559 862.557 14.0603 862.149 14.0572C861.853 14.0541 861.556 14.0989 861.247 14.1914C860.937 14.2809 860.68 14.3966 860.483 14.5385L859.396 14.4089L859.976 9.74414H864.955V10.7622H860.95L860.614 13.5574H860.667C860.865 13.4032 861.115 13.2751 861.411 13.1733C861.708 13.0715 862.011 13.0206 862.334 13.0206C862.92 13.0206 863.44 13.1594 863.901 13.4371C864.362 13.7117 864.724 14.0881 864.988 14.5663C865.251 15.0444 865.383 15.5905 865.383 16.2045C865.383 16.8091 865.245 17.349 864.975 17.8242C864.705 18.2962 864.329 18.6695 863.848 18.9441C863.374 19.2156 862.828 19.3514 862.222 19.3514Z" fill="#D0C3B4"/>
<path d="M862.222 1067.1C861.675 1067.1 861.181 1066.99 860.74 1066.77C860.298 1066.56 859.949 1066.27 859.679 1065.89C859.416 1065.51 859.271 1065.08 859.244 1064.6H860.371C860.41 1065.03 860.608 1065.39 860.957 1065.67C861.313 1065.94 861.734 1066.08 862.222 1066.08C862.617 1066.08 862.966 1065.99 863.269 1065.81C863.578 1065.63 863.822 1065.37 863.993 1065.06C864.171 1064.73 864.263 1064.38 864.263 1063.97C864.263 1063.55 864.171 1063.19 863.987 1062.86C863.802 1062.54 863.559 1062.28 863.236 1062.09C862.92 1061.91 862.557 1061.81 862.149 1061.8C861.853 1061.8 861.556 1061.85 861.247 1061.94C860.937 1062.03 860.68 1062.14 860.483 1062.28L859.396 1062.15L859.976 1057.49H864.955V1058.51H860.95L860.614 1061.31H860.667C860.865 1061.15 861.115 1061.02 861.411 1060.92C861.708 1060.82 862.011 1060.77 862.334 1060.77C862.92 1060.77 863.44 1060.91 863.901 1061.18C864.362 1061.46 864.724 1061.83 864.988 1062.32C865.251 1062.79 865.383 1063.34 865.383 1063.95C865.383 1064.56 865.245 1065.1 864.975 1065.57C864.705 1066.04 864.329 1066.41 863.848 1066.69C863.374 1066.96 862.828 1067.1 862.222 1067.1Z" fill="#D0C3B4"/>
<path d="M1047.5 19.3512C1047.1 19.3451 1046.71 19.271 1046.32 19.1291C1045.92 18.9872 1045.56 18.7481 1045.24 18.4118C1044.91 18.0724 1044.65 17.6143 1044.46 17.0373C1044.26 16.4574 1044.16 15.7293 1044.16 14.8531C1044.16 14.0139 1044.24 13.2704 1044.4 12.6225C1044.56 11.9715 1044.79 11.424 1045.09 10.9797C1045.4 10.5323 1045.76 10.193 1046.19 9.9616C1046.62 9.73016 1047.1 9.6145 1047.64 9.6145C1048.18 9.6145 1048.66 9.72091 1049.08 9.93378C1049.5 10.1436 1049.84 10.4367 1050.1 10.8131C1050.37 11.1894 1050.54 11.6229 1050.62 12.1135H1049.48C1049.37 11.6877 1049.16 11.3345 1048.86 11.0537C1048.56 10.773 1048.15 10.6326 1047.64 10.6326C1046.9 10.6326 1046.32 10.9519 1045.89 11.5906C1045.47 12.2292 1045.25 13.1254 1045.25 14.2793H1045.32C1045.49 14.017 1045.71 13.7933 1045.94 13.6082C1046.19 13.42 1046.46 13.275 1046.75 13.1732C1047.04 13.0714 1047.35 13.0205 1047.68 13.0205C1048.23 13.0205 1048.73 13.1563 1049.19 13.4278C1049.64 13.6962 1050.01 14.0679 1050.28 14.543C1050.55 15.015 1050.69 15.5565 1050.69 16.1673C1050.69 16.7535 1050.56 17.2904 1050.3 17.7778C1050.03 18.2622 1049.66 18.6478 1049.18 18.9348C1048.7 19.2186 1048.14 19.3574 1047.5 19.3512ZM1047.5 18.3331C1047.89 18.3331 1048.24 18.2359 1048.55 18.0416C1048.87 17.8472 1049.11 17.5865 1049.29 17.2595C1049.48 16.9324 1049.57 16.5684 1049.57 16.1673C1049.57 15.7756 1049.48 15.4192 1049.3 15.0984C1049.13 14.7744 1048.89 14.5168 1048.58 14.3255C1048.27 14.1342 1047.92 14.0386 1047.53 14.0386C1047.23 14.0386 1046.96 14.0972 1046.7 14.2144C1046.45 14.3286 1046.23 14.4859 1046.03 14.6865C1045.84 14.887 1045.69 15.1169 1045.58 15.376C1045.47 15.6321 1045.42 15.902 1045.42 16.1859C1045.42 16.5623 1045.51 16.9139 1045.69 17.241C1045.86 17.568 1046.11 17.8318 1046.42 18.0323C1046.74 18.2329 1047.09 18.3331 1047.5 18.3331Z" fill="#D0C3B4"/>
<path d="M1047.5 1067.1C1047.1 1067.09 1046.71 1067.02 1046.32 1066.88C1045.92 1066.73 1045.56 1066.49 1045.24 1066.16C1044.91 1065.82 1044.65 1065.36 1044.46 1064.79C1044.26 1064.21 1044.16 1063.48 1044.16 1062.6C1044.16 1061.76 1044.24 1061.02 1044.4 1060.37C1044.56 1059.72 1044.79 1059.17 1045.09 1058.73C1045.4 1058.28 1045.76 1057.94 1046.19 1057.71C1046.62 1057.48 1047.1 1057.36 1047.64 1057.36C1048.18 1057.36 1048.66 1057.47 1049.08 1057.68C1049.5 1057.89 1049.84 1058.19 1050.1 1058.56C1050.37 1058.94 1050.54 1059.37 1050.62 1059.86H1049.48C1049.37 1059.44 1049.16 1059.08 1048.86 1058.8C1048.56 1058.52 1048.15 1058.38 1047.64 1058.38C1046.9 1058.38 1046.32 1058.7 1045.89 1059.34C1045.47 1059.98 1045.25 1060.87 1045.25 1062.02H1045.32C1045.49 1061.76 1045.71 1061.54 1045.94 1061.35C1046.19 1061.17 1046.46 1061.02 1046.75 1060.92C1047.04 1060.82 1047.35 1060.77 1047.68 1060.77C1048.23 1060.77 1048.73 1060.9 1049.19 1061.18C1049.64 1061.44 1050.01 1061.82 1050.28 1062.29C1050.55 1062.76 1050.69 1063.31 1050.69 1063.91C1050.69 1064.5 1050.56 1065.04 1050.3 1065.52C1050.03 1066.01 1049.66 1066.4 1049.18 1066.68C1048.7 1066.97 1048.14 1067.11 1047.5 1067.1ZM1047.5 1066.08C1047.89 1066.08 1048.24 1065.99 1048.55 1065.79C1048.87 1065.59 1049.11 1065.33 1049.29 1065.01C1049.48 1064.68 1049.57 1064.32 1049.57 1063.91C1049.57 1063.52 1049.48 1063.16 1049.3 1062.84C1049.13 1062.52 1048.89 1062.26 1048.58 1062.08C1048.27 1061.88 1047.92 1061.79 1047.53 1061.79C1047.23 1061.79 1046.96 1061.85 1046.7 1061.96C1046.45 1062.08 1046.23 1062.23 1046.03 1062.43C1045.84 1062.64 1045.69 1062.86 1045.58 1063.12C1045.47 1063.38 1045.42 1063.65 1045.42 1063.93C1045.42 1064.31 1045.51 1064.66 1045.69 1064.99C1045.86 1065.31 1046.11 1065.58 1046.42 1065.78C1046.74 1065.98 1047.09 1066.08 1047.5 1066.08Z" fill="#D0C3B4"/>
<path d="M1229.7 19.2218L1233.98 10.8363V10.7622H1229.04V9.74414H1235.18V10.8178L1230.91 19.2218H1229.7Z" fill="#D0C3B4"/>
<path d="M1229.7 1066.97L1233.98 1058.58V1058.51H1229.04V1057.49H1235.18V1058.56L1230.91 1066.97H1229.7Z" fill="#D0C3B4"/>
<path d="M1417.55 19.3512C1416.91 19.3512 1416.34 19.2386 1415.85 19.0134C1415.36 18.7851 1414.98 18.4719 1414.7 18.0739C1414.42 17.6729 1414.29 17.2163 1414.29 16.7042C1414.29 16.3031 1414.37 15.9329 1414.53 15.5935C1414.69 15.251 1414.92 14.9657 1415.19 14.7374C1415.48 14.506 1415.79 14.3595 1416.14 14.2978V14.2422C1415.69 14.125 1415.32 13.8705 1415.05 13.4787C1414.78 13.0837 1414.65 12.6349 1414.65 12.132C1414.65 11.6507 1414.77 11.2203 1415.02 10.8408C1415.27 10.4614 1415.61 10.1621 1416.04 9.94303C1416.49 9.72403 1416.99 9.6145 1417.55 9.6145C1418.11 9.6145 1418.6 9.72403 1419.03 9.94303C1419.48 10.1621 1419.82 10.4614 1420.07 10.8408C1420.32 11.2203 1420.44 11.6507 1420.45 12.132C1420.44 12.6349 1420.31 13.0837 1420.04 13.4787C1419.76 13.8705 1419.4 14.125 1418.96 14.2422V14.2978C1419.3 14.3595 1419.61 14.506 1419.89 14.7374C1420.17 14.9657 1420.38 15.251 1420.55 15.5935C1420.72 15.9329 1420.8 16.3031 1420.81 16.7042C1420.8 17.2163 1420.66 17.6729 1420.38 18.0739C1420.11 18.4719 1419.73 18.7851 1419.24 19.0134C1418.75 19.2386 1418.19 19.3512 1417.55 19.3512ZM1417.55 18.3331C1417.98 18.3331 1418.36 18.2637 1418.67 18.1249C1418.99 17.986 1419.23 17.7901 1419.4 17.5372C1419.57 17.2842 1419.66 16.988 1419.67 16.6486C1419.66 16.2908 1419.57 15.9745 1419.38 15.7C1419.2 15.4254 1418.95 15.2094 1418.63 15.0521C1418.32 14.8947 1417.95 14.816 1417.55 14.816C1417.14 14.816 1416.78 14.8947 1416.45 15.0521C1416.14 15.2094 1415.89 15.4254 1415.7 15.7C1415.52 15.9745 1415.43 16.2908 1415.43 16.6486C1415.43 16.988 1415.52 17.2842 1415.68 17.5372C1415.85 17.7901 1416.1 17.986 1416.42 18.1249C1416.74 18.2637 1417.11 18.3331 1417.55 18.3331ZM1417.55 13.835C1417.9 13.835 1418.2 13.7671 1418.46 13.6314C1418.73 13.4956 1418.94 13.3059 1419.09 13.0622C1419.25 12.8184 1419.32 12.533 1419.32 12.206C1419.32 11.8851 1419.25 11.6059 1419.1 11.3684C1418.95 11.1277 1418.74 10.9426 1418.47 10.8131C1418.21 10.6804 1417.9 10.6141 1417.55 10.6141C1417.19 10.6141 1416.87 10.6804 1416.61 10.8131C1416.34 10.9426 1416.14 11.1277 1415.99 11.3684C1415.84 11.6059 1415.77 11.8851 1415.77 12.206C1415.77 12.533 1415.84 12.8184 1415.99 13.0622C1416.14 13.3059 1416.35 13.4956 1416.62 13.6314C1416.89 13.7671 1417.2 13.835 1417.55 13.835Z" fill="#D0C3B4"/>
<path d="M1417.55 1067.1C1416.91 1067.1 1416.34 1066.99 1415.85 1066.76C1415.36 1066.53 1414.98 1066.22 1414.7 1065.82C1414.42 1065.42 1414.29 1064.96 1414.29 1064.45C1414.29 1064.05 1414.37 1063.68 1414.53 1063.34C1414.69 1063 1414.92 1062.71 1415.19 1062.49C1415.48 1062.25 1415.79 1062.11 1416.14 1062.04V1061.99C1415.69 1061.87 1415.32 1061.62 1415.05 1061.23C1414.78 1060.83 1414.65 1060.38 1414.65 1059.88C1414.65 1059.4 1414.77 1058.97 1415.02 1058.59C1415.27 1058.21 1415.61 1057.91 1416.04 1057.69C1416.49 1057.47 1416.99 1057.36 1417.55 1057.36C1418.11 1057.36 1418.6 1057.47 1419.03 1057.69C1419.48 1057.91 1419.82 1058.21 1420.07 1058.59C1420.32 1058.97 1420.44 1059.4 1420.45 1059.88C1420.44 1060.38 1420.31 1060.83 1420.04 1061.23C1419.76 1061.62 1419.4 1061.87 1418.96 1061.99V1062.04C1419.3 1062.11 1419.61 1062.25 1419.89 1062.49C1420.17 1062.71 1420.38 1063 1420.55 1063.34C1420.72 1063.68 1420.8 1064.05 1420.81 1064.45C1420.8 1064.96 1420.66 1065.42 1420.38 1065.82C1420.11 1066.22 1419.73 1066.53 1419.24 1066.76C1418.75 1066.99 1418.19 1067.1 1417.55 1067.1ZM1417.55 1066.08C1417.98 1066.08 1418.36 1066.01 1418.67 1065.87C1418.99 1065.73 1419.23 1065.54 1419.4 1065.28C1419.57 1065.03 1419.66 1064.73 1419.67 1064.4C1419.66 1064.04 1419.57 1063.72 1419.38 1063.45C1419.2 1063.17 1418.95 1062.96 1418.63 1062.8C1418.32 1062.64 1417.95 1062.56 1417.55 1062.56C1417.14 1062.56 1416.78 1062.64 1416.45 1062.8C1416.14 1062.96 1415.89 1063.17 1415.7 1063.45C1415.52 1063.72 1415.43 1064.04 1415.43 1064.4C1415.43 1064.73 1415.52 1065.03 1415.68 1065.28C1415.85 1065.54 1416.1 1065.73 1416.42 1065.87C1416.74 1066.01 1417.11 1066.08 1417.55 1066.08ZM1417.55 1061.58C1417.9 1061.58 1418.2 1061.52 1418.46 1061.38C1418.73 1061.24 1418.94 1061.05 1419.09 1060.81C1419.25 1060.56 1419.32 1060.28 1419.32 1059.95C1419.32 1059.63 1419.25 1059.35 1419.1 1059.12C1418.95 1058.88 1418.74 1058.69 1418.47 1058.56C1418.21 1058.43 1417.9 1058.36 1417.55 1058.36C1417.19 1058.36 1416.87 1058.43 1416.61 1058.56C1416.34 1058.69 1416.14 1058.88 1415.99 1059.12C1415.84 1059.35 1415.77 1059.63 1415.77 1059.95C1415.77 1060.28 1415.84 1060.56 1415.99 1060.81C1416.14 1061.05 1416.35 1061.24 1416.62 1061.38C1416.89 1061.52 1417.2 1061.58 1417.55 1061.58Z" fill="#D0C3B4"/>
<path d="M1602.62 9.61469C1603.01 9.61775 1603.4 9.69184 1603.8 9.83682C1604.18 9.98179 1604.55 10.2224 1604.87 10.5587C1605.19 10.8919 1605.46 11.347 1605.65 11.9239C1605.84 12.5008 1605.94 13.2243 1605.94 14.0943C1605.94 14.9366 1605.86 15.6847 1605.7 16.3388C1605.54 16.9897 1605.31 17.5389 1605.01 17.9862C1604.71 18.4336 1604.34 18.773 1603.91 19.0043C1603.49 19.2357 1603.01 19.3514 1602.47 19.3514C1601.93 19.3514 1601.45 19.2465 1601.03 19.0367C1600.61 18.8238 1600.27 18.5292 1600 18.1528C1599.73 17.7734 1599.57 17.3337 1599.49 16.8339H1600.63C1600.73 17.2689 1600.94 17.6284 1601.25 17.9122C1601.55 18.1929 1601.96 18.3333 1602.47 18.3333C1603.2 18.3333 1603.79 18.014 1604.22 17.3754C1604.65 16.7368 1604.86 15.8343 1604.86 14.6682H1604.78C1604.61 14.9273 1604.4 15.151 1604.16 15.3392C1603.92 15.5274 1603.66 15.6724 1603.36 15.7742C1603.07 15.876 1602.76 15.9269 1602.43 15.9269C1601.88 15.9269 1601.37 15.7927 1600.92 15.5243C1600.46 15.2528 1600.09 14.8811 1599.82 14.409C1599.55 13.9339 1599.42 13.3909 1599.42 12.78C1599.42 12.2 1599.55 11.6694 1599.81 11.1881C1600.07 10.7037 1600.44 10.3181 1600.92 10.0312C1601.4 9.74423 1601.96 9.60544 1602.62 9.61469ZM1602.62 10.6328C1602.22 10.6328 1601.87 10.7299 1601.55 10.9243C1601.24 11.1156 1600.99 11.3747 1600.81 11.7018C1600.63 12.0257 1600.54 12.3852 1600.54 12.78C1600.54 13.1749 1600.63 13.5344 1600.8 13.8583C1600.98 14.1792 1601.22 14.4352 1601.52 14.6265C1601.83 14.8147 1602.18 14.9088 1602.58 14.9088C1602.87 14.9088 1603.15 14.8517 1603.41 14.7376C1603.66 14.6204 1603.88 14.4614 1604.07 14.2609C1604.27 14.0573 1604.42 13.8274 1604.53 13.5714C1604.64 13.3122 1604.69 13.0423 1604.69 12.7615C1604.69 12.3913 1604.6 12.0443 1604.42 11.7203C1604.24 11.3964 1603.99 11.1341 1603.68 10.9336C1603.37 10.7331 1603.01 10.6328 1602.62 10.6328Z" fill="#D0C3B4"/>
<path d="M1602.62 1057.37C1603.01 1057.37 1603.4 1057.44 1603.8 1057.59C1604.18 1057.73 1604.55 1057.97 1604.87 1058.3C1605.19 1058.64 1605.46 1059.09 1605.65 1059.67C1605.84 1060.25 1605.94 1060.97 1605.94 1061.84C1605.94 1062.68 1605.86 1063.43 1605.7 1064.09C1605.54 1064.73 1605.31 1065.29 1605.01 1065.73C1604.71 1066.18 1604.34 1066.52 1603.91 1066.75C1603.49 1066.98 1603.01 1067.1 1602.47 1067.1C1601.93 1067.1 1601.45 1067 1601.03 1066.79C1600.61 1066.57 1600.27 1066.28 1600 1065.9C1599.73 1065.52 1599.57 1065.08 1599.49 1064.58H1600.63C1600.73 1065.01 1600.94 1065.37 1601.25 1065.66C1601.55 1065.94 1601.96 1066.08 1602.47 1066.08C1603.2 1066.08 1603.79 1065.76 1604.22 1065.13C1604.65 1064.49 1604.86 1063.58 1604.86 1062.41H1604.78C1604.61 1062.68 1604.4 1062.9 1604.16 1063.09C1603.92 1063.27 1603.66 1063.42 1603.36 1063.52C1603.07 1063.63 1602.76 1063.67 1602.43 1063.67C1601.88 1063.67 1601.37 1063.54 1600.92 1063.27C1600.46 1063 1600.09 1062.63 1599.82 1062.15C1599.55 1061.68 1599.42 1061.14 1599.42 1060.53C1599.42 1059.95 1599.55 1059.42 1599.81 1058.94C1600.07 1058.45 1600.44 1058.07 1600.92 1057.78C1601.4 1057.49 1601.96 1057.35 1602.62 1057.37ZM1602.62 1058.38C1602.22 1058.38 1601.87 1058.48 1601.55 1058.67C1601.24 1058.86 1600.99 1059.12 1600.81 1059.45C1600.63 1059.78 1600.54 1060.13 1600.54 1060.53C1600.54 1060.92 1600.63 1061.28 1600.8 1061.61C1600.98 1061.93 1601.22 1062.18 1601.52 1062.38C1601.83 1062.56 1602.18 1062.66 1602.58 1062.66C1602.87 1062.66 1603.15 1062.6 1603.41 1062.49C1603.66 1062.37 1603.88 1062.21 1604.07 1062.01C1604.27 1061.8 1604.42 1061.57 1604.53 1061.32C1604.64 1061.06 1604.69 1060.79 1604.69 1060.51C1604.69 1060.14 1604.6 1059.79 1604.42 1059.47C1604.24 1059.14 1603.99 1058.88 1603.68 1058.68C1603.37 1058.48 1603.01 1058.38 1602.62 1058.38Z" fill="#D0C3B4"/>
<path d="M1788.02 9.74404V19.2216H1786.86V10.9473H1786.8L1784.46 12.4837V11.3175L1786.86 9.74404H1788.02ZM1793.9 19.3512C1793.19 19.3512 1792.59 19.1615 1792.09 18.782C1791.6 18.3995 1791.22 17.8457 1790.96 17.1207C1790.7 16.3925 1790.57 15.5133 1790.57 14.4829C1790.57 13.4586 1790.7 12.584 1790.96 11.8589C1791.22 11.1309 1791.61 10.5755 1792.1 10.193C1792.6 9.80731 1793.2 9.6145 1793.9 9.6145C1794.6 9.6145 1795.19 9.80731 1795.69 10.193C1796.18 10.5755 1796.57 11.1309 1796.83 11.8589C1797.09 12.584 1797.23 13.4586 1797.23 14.4829C1797.23 15.5133 1797.09 16.3925 1796.84 17.1207C1796.57 17.8457 1796.19 18.3995 1795.7 18.782C1795.2 19.1615 1794.6 19.3512 1793.9 19.3512ZM1793.9 18.3331C1794.6 18.3331 1795.14 17.9999 1795.53 17.3336C1795.91 16.6671 1796.11 15.7169 1796.11 14.4829C1796.11 13.6622 1796.01 12.9634 1795.84 12.3865C1795.66 11.8096 1795.41 11.3699 1795.08 11.0676C1794.76 10.7653 1794.36 10.6141 1793.9 10.6141C1793.21 10.6141 1792.66 10.9519 1792.27 11.6276C1791.88 12.3001 1791.69 13.2519 1791.69 14.4829C1791.69 15.3035 1791.78 16.0007 1791.95 16.5746C1792.13 17.1484 1792.38 17.585 1792.71 17.8842C1793.04 18.1835 1793.43 18.3331 1793.9 18.3331Z" fill="#D0C3B4"/>
<path d="M1788.02 1057.49V1066.97H1786.86V1058.69H1786.8L1784.46 1060.23V1059.07L1786.86 1057.49H1788.02ZM1793.9 1067.1C1793.19 1067.1 1792.59 1066.91 1792.09 1066.53C1791.6 1066.15 1791.22 1065.59 1790.96 1064.87C1790.7 1064.14 1790.57 1063.26 1790.57 1062.23C1790.57 1061.21 1790.7 1060.33 1790.96 1059.61C1791.22 1058.88 1791.61 1058.32 1792.1 1057.94C1792.6 1057.55 1793.2 1057.36 1793.9 1057.36C1794.6 1057.36 1795.19 1057.55 1795.69 1057.94C1796.18 1058.32 1796.57 1058.88 1796.83 1059.61C1797.09 1060.33 1797.23 1061.21 1797.23 1062.23C1797.23 1063.26 1797.09 1064.14 1796.84 1064.87C1796.57 1065.59 1796.19 1066.15 1795.7 1066.53C1795.2 1066.91 1794.6 1067.1 1793.9 1067.1ZM1793.9 1066.08C1794.6 1066.08 1795.14 1065.74 1795.53 1065.08C1795.91 1064.41 1796.11 1063.46 1796.11 1062.23C1796.11 1061.41 1796.01 1060.71 1795.84 1060.13C1795.66 1059.55 1795.41 1059.12 1795.08 1058.82C1794.76 1058.51 1794.36 1058.36 1793.9 1058.36C1793.21 1058.36 1792.66 1058.7 1792.27 1059.38C1791.88 1060.05 1791.69 1061 1791.69 1062.23C1791.69 1063.05 1791.78 1063.75 1791.95 1064.32C1792.13 1064.9 1792.38 1065.33 1792.71 1065.63C1793.04 1065.93 1793.43 1066.08 1793.9 1066.08Z" fill="#D0C3B4"/>
<path d="M11.0401 285.068V275.591H14.3895C15.0569 275.591 15.6073 275.705 16.0409 275.933C16.4743 276.158 16.7972 276.462 17.0092 276.844C17.2213 277.224 17.3273 277.645 17.3273 278.108C17.3273 278.515 17.254 278.851 17.1074 279.116C16.964 279.382 16.7738 279.592 16.5367 279.746C16.3028 279.9 16.0487 280.014 15.7743 280.088V280.181C16.0674 280.199 16.3621 280.302 16.6584 280.487C16.9546 280.672 17.2026 280.937 17.4022 281.282C17.6018 281.628 17.7016 282.05 17.7016 282.55C17.7016 283.026 17.5924 283.453 17.3741 283.832C17.1558 284.212 16.8112 284.513 16.3402 284.735C15.8694 284.957 15.2565 285.068 14.5018 285.068H11.0401ZM12.2002 284.05H14.5018C15.2596 284.05 15.7976 283.905 16.1157 283.615C16.4369 283.322 16.5976 282.967 16.5976 282.55C16.5976 282.23 16.5149 281.933 16.3496 281.662C16.1843 281.387 15.9489 281.168 15.6432 281.005C15.3376 280.838 14.9758 280.755 14.558 280.755H12.2002V284.05ZM12.2002 279.755H14.3521C14.7014 279.755 15.0164 279.687 15.2971 279.552C15.5809 279.416 15.8054 279.224 15.9707 278.978C16.1391 278.731 16.2233 278.441 16.2233 278.108C16.2233 277.691 16.0767 277.338 15.7836 277.048C15.4904 276.755 15.0257 276.608 14.3895 276.608H12.2002V279.755Z" fill="#D0C3B4"/>
<path d="M1900.74 285.068V275.591H1904.09C1904.76 275.591 1905.31 275.705 1905.74 275.933C1906.17 276.158 1906.5 276.462 1906.71 276.844C1906.93 277.224 1907.03 277.645 1907.03 278.108C1907.03 278.515 1906.96 278.851 1906.81 279.116C1906.67 279.382 1906.48 279.592 1906.24 279.746C1906 279.9 1905.75 280.014 1905.48 280.088V280.181C1905.77 280.199 1906.06 280.302 1906.36 280.487C1906.66 280.672 1906.91 280.937 1907.1 281.282C1907.3 281.628 1907.41 282.05 1907.41 282.55C1907.41 283.026 1907.29 283.453 1907.08 283.832C1906.86 284.212 1906.51 284.513 1906.04 284.735C1905.57 284.957 1904.96 285.068 1904.21 285.068H1900.74ZM1901.9 284.05H1904.21C1904.96 284.05 1905.5 283.905 1905.82 283.615C1906.14 283.322 1906.3 282.967 1906.3 282.55C1906.3 282.23 1906.21 281.933 1906.05 281.662C1905.88 281.387 1905.65 281.168 1905.34 281.005C1905.04 280.838 1904.68 280.755 1904.26 280.755H1901.9V284.05ZM1901.9 279.755H1904.05C1904.4 279.755 1904.72 279.687 1905 279.552C1905.29 279.416 1905.51 279.224 1905.67 278.978C1905.84 278.731 1905.92 278.441 1905.92 278.108C1905.92 277.691 1905.78 277.338 1905.48 277.048C1905.19 276.755 1904.73 276.608 1904.09 276.608H1901.9V279.755Z" fill="#D0C3B4"/>
<path d="M11.4331 113.702H10.2168L13.7346 104.224H14.9322L18.4501 113.702H17.2338L14.3708 105.724H14.2959L11.4331 113.702ZM11.8821 109.999H16.7847V111.018H11.8821V109.999Z" fill="#D0C3B4"/>
<path d="M1901.14 113.702H1899.92L1903.43 104.224H1904.63L1908.15 113.702H1906.93L1904.07 105.724H1903.99L1901.14 113.702ZM1901.58 109.999H1906.48V111.018H1901.58V109.999Z" fill="#D0C3B4"/>
<path d="M18.7495 449.919H17.5893C17.5207 449.588 17.4006 449.298 17.2291 449.049C17.0607 448.799 16.8549 448.589 16.6116 448.419C16.3715 448.247 16.1049 448.117 15.8117 448.03C15.5185 447.944 15.2129 447.901 14.8948 447.901C14.3147 447.901 13.7892 448.046 13.3183 448.336C12.8505 448.626 12.4778 449.053 12.2002 449.618C11.9258 450.183 11.7886 450.875 11.7886 451.696C11.7886 452.517 11.9258 453.209 12.2002 453.774C12.4778 454.338 12.8505 454.765 13.3183 455.056C13.7892 455.346 14.3147 455.49 14.8948 455.49C15.2129 455.49 15.5185 455.447 15.8117 455.361C16.1049 455.275 16.3715 455.146 16.6116 454.977C16.8549 454.804 17.0607 454.593 17.2291 454.343C17.4006 454.09 17.5207 453.8 17.5893 453.473H18.7495C18.6621 453.957 18.5031 454.391 18.2723 454.773C18.0415 455.156 17.7546 455.481 17.4116 455.75C17.0685 456.015 16.6834 456.217 16.2561 456.356C15.832 456.495 15.3782 456.564 14.8948 456.564C14.0777 456.564 13.3511 456.367 12.7149 455.972C12.0787 455.577 11.5781 455.015 11.2132 454.288C10.8483 453.559 10.6659 452.695 10.6659 451.696C10.6659 450.696 10.8483 449.832 11.2132 449.104C11.5781 448.376 12.0787 447.815 12.7149 447.42C13.3511 447.025 14.0777 446.828 14.8948 446.828C15.3782 446.828 15.832 446.897 16.2561 447.036C16.6834 447.174 17.0685 447.378 17.4116 447.647C17.7546 447.912 18.0415 448.236 18.2723 448.618C18.5031 448.998 18.6621 449.431 18.7495 449.919Z" fill="#D0C3B4"/>
<path d="M1908.45 449.919H1907.29C1907.22 449.588 1907.1 449.298 1906.93 449.049C1906.76 448.799 1906.56 448.589 1906.31 448.419C1906.08 448.247 1905.81 448.117 1905.52 448.03C1905.22 447.944 1904.92 447.901 1904.59 447.901C1904.01 447.901 1903.49 448.046 1903.02 448.336C1902.55 448.626 1902.18 449.053 1901.9 449.618C1901.63 450.183 1901.49 450.875 1901.49 451.696C1901.49 452.517 1901.63 453.209 1901.9 453.774C1902.18 454.338 1902.55 454.765 1903.02 455.056C1903.49 455.346 1904.01 455.49 1904.59 455.49C1904.92 455.49 1905.22 455.447 1905.52 455.361C1905.81 455.275 1906.08 455.146 1906.31 454.977C1906.56 454.804 1906.76 454.593 1906.93 454.343C1907.1 454.09 1907.22 453.8 1907.29 453.473H1908.45C1908.36 453.957 1908.2 454.391 1907.97 454.773C1907.74 455.156 1907.46 455.481 1907.11 455.75C1906.77 456.015 1906.39 456.217 1905.96 456.356C1905.54 456.495 1905.08 456.564 1904.59 456.564C1903.78 456.564 1903.05 456.367 1902.41 455.972C1901.78 455.577 1901.28 455.015 1900.91 454.288C1900.55 453.559 1900.37 452.695 1900.37 451.696C1900.37 450.696 1900.55 449.832 1900.91 449.104C1901.28 448.376 1901.78 447.815 1902.41 447.42C1903.05 447.025 1903.78 446.828 1904.59 446.828C1905.08 446.828 1905.54 446.897 1905.96 447.036C1906.39 447.174 1906.77 447.378 1907.11 447.647C1907.46 447.912 1907.74 448.236 1907.97 448.618C1908.2 448.998 1908.36 449.431 1908.45 449.919Z" fill="#D0C3B4"/>
<path d="M13.9966 627.801H11.0401V618.324H14.1276C15.0569 618.324 15.8522 618.513 16.5133 618.893C17.1745 619.269 17.6813 619.811 18.0337 620.517C18.3861 621.221 18.5623 622.062 18.5623 623.044C18.5623 624.031 18.3845 624.881 18.029 625.593C17.6735 626.303 17.1558 626.849 16.4759 627.232C15.7961 627.611 14.9696 627.801 13.9966 627.801ZM12.2002 626.783H13.9218C14.7139 626.783 15.3704 626.631 15.8912 626.329C16.412 626.027 16.8002 625.597 17.056 625.038C17.3117 624.48 17.4396 623.815 17.4396 623.044C17.4396 622.279 17.3133 621.62 17.0607 621.068C16.8081 620.512 16.4307 620.087 15.9286 619.79C15.4265 619.491 14.8012 619.342 14.0527 619.342H12.2002V626.783Z" fill="#D0C3B4"/>
<path d="M1903.7 627.801H1900.74V618.324H1903.83C1904.76 618.324 1905.56 618.513 1906.21 618.893C1906.87 619.269 1907.38 619.811 1907.74 620.517C1908.08 621.221 1908.26 622.062 1908.26 623.044C1908.26 624.031 1908.08 624.881 1907.73 625.593C1907.37 626.303 1906.86 626.849 1906.17 627.232C1905.5 627.611 1904.67 627.801 1903.7 627.801ZM1901.9 626.783H1903.63C1904.42 626.783 1905.07 626.631 1905.59 626.329C1906.12 626.027 1906.5 625.597 1906.75 625.038C1907.01 624.48 1907.14 623.815 1907.14 623.044C1907.14 622.279 1907.02 621.62 1906.76 621.068C1906.51 620.512 1906.14 620.087 1905.63 619.79C1905.13 619.491 1904.5 619.342 1903.76 619.342H1901.9V626.783Z" fill="#D0C3B4"/>
<path d="M11.0401 799.167V789.687H16.8221V790.71H12.2002V793.909H16.5227V794.925H12.2002V798.151H16.8969V799.167H11.0401Z" fill="#D0C3B4"/>
<path d="M1900.74 799.167V789.687H1906.52V790.71H1901.9V793.909H1906.23V794.925H1901.9V798.151H1906.6V799.167H1900.74Z" fill="#D0C3B4"/>
<path d="M11.0401 970.534V961.053H16.7847V962.076H12.2002V965.276H16.3543V966.292H12.2002V970.534H11.0401Z" fill="#D0C3B4"/>
<path d="M1900.74 970.534V961.053H1906.48V962.076H1901.9V965.276H1906.06V966.292H1901.9V970.534H1900.74Z" fill="#D0C3B4"/>
<path d="M1838 114H1009V196H1838V114Z" stroke="#D0C3B4"/>
<path d="M1009 130H1838" stroke="#D0C3B4"/>
<path d="M1009 147H1838" stroke="#D0C3B4"/>
<path d="M1073.23 196V130" stroke="#D0C3B4"/>
<path d="M1121.99 196V163V130" stroke="#D0C3B4"/>
<path d="M1610.83 196V130" stroke="#D0C3B4"/>
<path d="M1707.17 196V130" stroke="#D0C3B4"/>
<path d="M1032.83 140H1036.12V139.376H1033.92L1036.09 135.711H1033.2V136.303H1035.02L1032.83 140ZM1040.4 137.864C1040.4 138.081 1040.36 138.286 1040.28 138.479C1040.2 138.673 1040.08 138.846 1039.94 138.998C1039.79 139.15 1039.62 139.268 1039.43 139.347C1039.24 139.429 1039.04 139.467 1038.83 139.467C1038.62 139.467 1038.42 139.429 1038.23 139.347C1038.04 139.268 1037.87 139.15 1037.72 138.998C1037.57 138.846 1037.46 138.673 1037.38 138.479C1037.3 138.286 1037.27 138.081 1037.27 137.864C1037.27 137.647 1037.3 137.439 1037.38 137.243C1037.46 137.05 1037.57 136.877 1037.72 136.725C1037.87 136.572 1038.04 136.458 1038.23 136.376C1038.42 136.297 1038.62 136.256 1038.83 136.256C1039.04 136.256 1039.24 136.297 1039.43 136.379C1039.63 136.461 1039.79 136.575 1039.94 136.725C1040.08 136.877 1040.2 137.053 1040.28 137.246C1040.36 137.442 1040.4 137.647 1040.4 137.864ZM1041.13 137.864C1041.13 137.562 1041.07 137.275 1040.95 137.003C1040.84 136.73 1040.67 136.484 1040.45 136.268C1040.23 136.057 1039.99 135.893 1039.71 135.781C1039.43 135.67 1039.14 135.614 1038.83 135.614C1038.52 135.614 1038.23 135.67 1037.95 135.781C1037.67 135.893 1037.42 136.057 1037.21 136.268C1036.99 136.484 1036.82 136.728 1036.71 136.997C1036.6 137.27 1036.54 137.56 1036.54 137.864C1036.54 138.175 1036.6 138.462 1036.71 138.731C1036.82 139.001 1036.99 139.244 1037.21 139.455C1037.42 139.666 1037.67 139.83 1037.95 139.944C1038.23 140.059 1038.52 140.114 1038.83 140.114C1039.14 140.114 1039.43 140.059 1039.71 139.944C1039.98 139.833 1040.23 139.669 1040.45 139.455C1040.67 139.244 1040.84 139.001 1040.95 138.729C1041.07 138.459 1041.13 138.169 1041.13 137.864ZM1041.92 140H1042.57V137.018C1042.63 137.105 1042.69 137.19 1042.76 137.27C1042.83 137.352 1042.9 137.428 1042.98 137.498L1045.76 140.167V135.711H1045.12V138.685C1045.03 138.579 1044.95 138.485 1044.88 138.4C1044.8 138.318 1044.72 138.239 1044.65 138.163L1041.92 135.541V140ZM1046.75 140H1049.14V139.376H1047.44V137.99H1049.14V137.378H1047.44V136.303H1049.14V135.711H1046.75V140Z" fill="#D0C3B4"/>
<path d="M1093.07 137.539V136.309H1093.2C1093.55 136.309 1093.79 136.358 1093.92 136.455C1094.05 136.552 1094.11 136.719 1094.11 136.953C1094.11 137.173 1094.05 137.325 1093.93 137.41C1093.81 137.498 1093.57 137.539 1093.2 137.539H1093.07ZM1093.03 138.081H1093.11L1094.53 140H1095.32L1093.84 138.049C1094.17 138.011 1094.41 137.894 1094.58 137.7C1094.74 137.507 1094.83 137.237 1094.83 136.892C1094.83 136.698 1094.79 136.517 1094.72 136.353C1094.65 136.188 1094.54 136.057 1094.41 135.951C1094.3 135.866 1094.17 135.805 1094.01 135.767C1093.85 135.731 1093.63 135.711 1093.35 135.711H1092.37V140H1093.03V138.081ZM1095.74 140H1098.13V139.376H1096.43V137.99H1098.13V137.378H1096.43V136.303H1098.13V135.711H1095.74V140ZM1100.29 140.167L1102.21 135.711H1101.49L1100.53 137.996C1100.47 138.119 1100.43 138.236 1100.39 138.351C1100.35 138.468 1100.32 138.579 1100.29 138.685C1100.27 138.585 1100.24 138.477 1100.2 138.365C1100.17 138.254 1100.12 138.131 1100.06 137.996L1099.1 135.711H1098.38L1100.29 140.167Z" fill="#D0C3B4"/>
<path d="M1652.86 139.37V136.335H1653.11H1653.36C1653.72 136.335 1653.98 136.358 1654.15 136.399C1654.32 136.443 1654.47 136.517 1654.59 136.616C1654.75 136.757 1654.87 136.93 1654.95 137.135C1655.03 137.34 1655.08 137.58 1655.08 137.853C1655.08 138.128 1655.03 138.368 1654.95 138.573C1654.87 138.778 1654.75 138.951 1654.59 139.089C1654.47 139.191 1654.33 139.265 1654.17 139.306C1654.01 139.35 1653.77 139.37 1653.44 139.37H1652.86ZM1652.16 140H1653.1H1653.29C1653.79 140 1654.16 139.971 1654.4 139.909C1654.64 139.848 1654.86 139.745 1655.05 139.599C1655.29 139.408 1655.48 139.165 1655.61 138.872C1655.74 138.579 1655.8 138.239 1655.8 137.858C1655.8 137.478 1655.74 137.141 1655.61 136.842C1655.48 136.546 1655.29 136.303 1655.05 136.112C1654.86 135.969 1654.64 135.866 1654.39 135.805C1654.14 135.743 1653.71 135.711 1653.1 135.711H1652.16V140ZM1657.51 138.315L1657.95 137.337C1657.97 137.27 1658 137.196 1658.03 137.114C1658.05 137.032 1658.08 136.944 1658.1 136.851C1658.13 136.95 1658.15 137.041 1658.18 137.123C1658.21 137.205 1658.24 137.275 1658.26 137.337L1658.7 138.315H1657.51ZM1659.43 140H1660.17L1658.1 135.541L1656.02 140H1656.75L1657.25 138.896H1658.95L1659.43 140ZM1661.96 136.303H1663.09V135.711H1660.12V136.303H1661.26V140H1661.96V136.303ZM1663.63 140H1666.02V139.376H1664.32V137.99H1666.02V137.378H1664.32V136.303H1666.02V135.711H1663.63V140Z" fill="#D0C3B4"/>
<path d="M1758.24 138.315L1758.68 137.337C1758.71 137.27 1758.74 137.196 1758.76 137.114C1758.79 137.032 1758.81 136.944 1758.84 136.851C1758.86 136.95 1758.89 137.041 1758.92 137.123C1758.95 137.205 1758.97 137.275 1759 137.337L1759.44 138.315H1758.24ZM1760.17 140H1760.91L1758.83 135.541L1756.75 140H1757.49L1757.99 138.896H1759.68L1760.17 140ZM1762.01 137.504V136.309H1762.19C1762.56 136.309 1762.81 136.355 1762.95 136.449C1763.08 136.543 1763.15 136.704 1763.15 136.933C1763.15 137.146 1763.09 137.296 1762.96 137.378C1762.83 137.463 1762.57 137.504 1762.19 137.504H1762.01ZM1761.96 138.075H1762.23H1762.37C1762.68 138.075 1762.91 138.061 1763.05 138.025C1763.2 137.993 1763.33 137.938 1763.44 137.858C1763.58 137.762 1763.68 137.627 1763.76 137.454C1763.83 137.284 1763.87 137.097 1763.87 136.892C1763.87 136.689 1763.83 136.505 1763.76 136.335C1763.68 136.165 1763.58 136.03 1763.44 135.931C1763.33 135.854 1763.2 135.799 1763.05 135.764C1762.91 135.729 1762.68 135.711 1762.37 135.711H1761.31V140H1761.96V138.075ZM1765.2 137.504V136.309H1765.38C1765.75 136.309 1766 136.355 1766.14 136.449C1766.28 136.543 1766.35 136.704 1766.35 136.933C1766.35 137.146 1766.28 137.296 1766.15 137.378C1766.02 137.463 1765.77 137.504 1765.38 137.504H1765.2ZM1765.16 138.075H1765.42H1765.56C1765.87 138.075 1766.1 138.061 1766.25 138.025C1766.39 137.993 1766.52 137.938 1766.63 137.858C1766.77 137.762 1766.87 137.627 1766.95 137.454C1767.03 137.284 1767.06 137.097 1767.06 136.892C1767.06 136.689 1767.03 136.505 1766.95 136.335C1766.87 136.165 1766.77 136.03 1766.63 135.931C1766.52 135.854 1766.39 135.799 1766.25 135.764C1766.1 135.729 1765.87 135.711 1765.56 135.711H1764.5V140H1765.16V138.075ZM1768.39 137.539V136.309H1768.52C1768.87 136.309 1769.11 136.358 1769.24 136.455C1769.37 136.552 1769.44 136.719 1769.44 136.953C1769.44 137.173 1769.38 137.325 1769.26 137.41C1769.13 137.498 1768.89 137.539 1768.52 137.539H1768.39ZM1768.35 138.081H1768.43L1769.86 140H1770.64L1769.17 138.049C1769.49 138.011 1769.74 137.894 1769.9 137.7C1770.07 137.507 1770.15 137.237 1770.15 136.892C1770.15 136.698 1770.11 136.517 1770.04 136.353C1769.97 136.188 1769.87 136.057 1769.74 135.951C1769.63 135.866 1769.49 135.805 1769.33 135.767C1769.17 135.731 1768.95 135.711 1768.67 135.711H1767.7V140H1768.35V138.081ZM1774.73 137.864C1774.73 138.081 1774.69 138.286 1774.61 138.479C1774.53 138.673 1774.42 138.846 1774.27 138.998C1774.12 139.15 1773.95 139.268 1773.76 139.347C1773.57 139.429 1773.38 139.467 1773.17 139.467C1772.95 139.467 1772.75 139.429 1772.56 139.347C1772.37 139.268 1772.2 139.15 1772.06 138.998C1771.91 138.846 1771.79 138.673 1771.72 138.479C1771.64 138.286 1771.6 138.081 1771.6 137.864C1771.6 137.647 1771.64 137.439 1771.72 137.243C1771.79 137.05 1771.91 136.877 1772.06 136.725C1772.2 136.572 1772.37 136.458 1772.56 136.376C1772.75 136.297 1772.96 136.256 1773.17 136.256C1773.38 136.256 1773.58 136.297 1773.77 136.379C1773.96 136.461 1774.13 136.575 1774.27 136.725C1774.42 136.877 1774.53 137.053 1774.61 137.246C1774.69 137.442 1774.73 137.647 1774.73 137.864ZM1775.46 137.864C1775.46 137.562 1775.4 137.275 1775.29 137.003C1775.17 136.73 1775 136.484 1774.79 136.268C1774.57 136.057 1774.32 135.893 1774.04 135.781C1773.77 135.67 1773.47 135.614 1773.17 135.614C1772.86 135.614 1772.56 135.67 1772.29 135.781C1772.01 135.893 1771.76 136.057 1771.54 136.268C1771.32 136.484 1771.15 136.728 1771.04 136.997C1770.93 137.27 1770.87 137.56 1770.87 137.864C1770.87 138.175 1770.93 138.462 1771.04 138.731C1771.15 139.001 1771.32 139.244 1771.54 139.455C1771.75 139.666 1772 139.83 1772.28 139.944C1772.56 140.059 1772.86 140.114 1773.17 140.114C1773.47 140.114 1773.76 140.059 1774.04 139.944C1774.32 139.833 1774.56 139.669 1774.79 139.455C1775 139.244 1775.17 139.001 1775.29 138.729C1775.4 138.459 1775.46 138.169 1775.46 137.864ZM1776.24 135.711V138.38C1776.24 138.963 1776.38 139.396 1776.68 139.684C1776.97 139.971 1777.41 140.114 1778 140.114C1778.59 140.114 1779.03 139.971 1779.32 139.684C1779.62 139.396 1779.76 138.96 1779.76 138.38V135.711H1779.06V138.315C1779.06 138.702 1778.97 138.995 1778.8 139.188C1778.62 139.382 1778.35 139.479 1778 139.479C1777.64 139.479 1777.37 139.382 1777.2 139.188C1777.02 138.995 1776.93 138.702 1776.93 138.315V135.711H1776.24ZM1782.09 140.167L1784 135.711H1783.28L1782.32 137.996C1782.27 138.119 1782.22 138.236 1782.18 138.351C1782.14 138.468 1782.11 138.579 1782.09 138.685C1782.06 138.585 1782.03 138.477 1782 138.365C1781.96 138.254 1781.91 138.131 1781.86 137.996L1780.9 135.711H1780.17L1782.09 140.167ZM1784.43 140H1786.83V139.376H1785.13V137.99H1786.83V137.378H1785.13V136.303H1786.83V135.711H1784.43V140Z" fill="#D0C3B4"/>
<path d="M1348.46 139.37V136.335H1348.71H1348.96C1349.32 136.335 1349.58 136.358 1349.75 136.399C1349.92 136.443 1350.06 136.517 1350.19 136.616C1350.35 136.757 1350.47 136.93 1350.55 137.135C1350.63 137.34 1350.67 137.58 1350.67 137.853C1350.67 138.128 1350.63 138.368 1350.55 138.573C1350.47 138.778 1350.35 138.951 1350.19 139.089C1350.07 139.191 1349.93 139.265 1349.77 139.306C1349.6 139.35 1349.36 139.37 1349.04 139.37H1348.46ZM1347.76 140H1348.7H1348.89C1349.39 140 1349.76 139.971 1350 139.909C1350.24 139.848 1350.46 139.745 1350.65 139.599C1350.89 139.408 1351.08 139.165 1351.21 138.872C1351.34 138.579 1351.4 138.239 1351.4 137.858C1351.4 137.478 1351.34 137.141 1351.21 136.842C1351.08 136.546 1350.89 136.303 1350.65 136.112C1350.46 135.969 1350.24 135.866 1349.99 135.805C1349.74 135.743 1349.31 135.711 1348.7 135.711H1347.76V140ZM1352.2 140H1354.59V139.376H1352.9V137.99H1354.59V137.378H1352.9V136.303H1354.59V135.711H1352.2V140ZM1355.15 139.142C1355.22 139.455 1355.37 139.695 1355.6 139.862C1355.84 140.032 1356.14 140.114 1356.5 140.114C1356.94 140.114 1357.28 139.997 1357.54 139.757C1357.8 139.517 1357.93 139.194 1357.93 138.787C1357.93 138.509 1357.85 138.277 1357.69 138.09C1357.53 137.902 1357.24 137.712 1356.81 137.516C1356.79 137.507 1356.76 137.492 1356.73 137.475C1356.24 137.252 1356 137.012 1356 136.754C1356 136.59 1356.05 136.461 1356.16 136.361C1356.28 136.265 1356.43 136.215 1356.61 136.215C1356.74 136.215 1356.86 136.247 1356.96 136.309C1357.07 136.373 1357.16 136.47 1357.25 136.604L1357.79 136.323C1357.71 136.095 1357.56 135.922 1357.35 135.799C1357.14 135.676 1356.87 135.614 1356.56 135.614C1356.17 135.614 1355.86 135.723 1355.62 135.939C1355.39 136.156 1355.27 136.44 1355.27 136.789C1355.27 137.059 1355.34 137.287 1355.5 137.475C1355.66 137.662 1355.97 137.87 1356.45 138.099C1356.48 138.113 1356.52 138.134 1356.58 138.163C1357 138.362 1357.21 138.585 1357.21 138.837C1357.21 139.03 1357.15 139.186 1357.03 139.3C1356.9 139.417 1356.74 139.473 1356.53 139.473C1356.31 139.473 1356.14 139.423 1355.99 139.323C1355.85 139.224 1355.76 139.077 1355.7 138.884L1355.15 139.142ZM1362.13 136.754L1362.17 136.051C1361.95 135.904 1361.73 135.793 1361.5 135.72C1361.27 135.646 1361.03 135.608 1360.78 135.608C1360.46 135.608 1360.16 135.664 1359.89 135.772C1359.61 135.881 1359.37 136.039 1359.16 136.25C1358.94 136.461 1358.78 136.704 1358.67 136.979C1358.56 137.255 1358.5 137.551 1358.5 137.864C1358.5 138.181 1358.56 138.477 1358.67 138.755C1358.78 139.033 1358.94 139.273 1359.15 139.479C1359.36 139.689 1359.6 139.848 1359.88 139.953C1360.16 140.062 1360.47 140.114 1360.79 140.114C1361.05 140.114 1361.29 140.082 1361.51 140.015C1361.73 139.95 1361.94 139.848 1362.12 139.713V138.925C1361.91 139.106 1361.69 139.244 1361.46 139.332C1361.23 139.423 1360.99 139.467 1360.74 139.467C1360.3 139.467 1359.94 139.317 1359.65 139.016C1359.37 138.717 1359.23 138.333 1359.23 137.87C1359.23 137.393 1359.37 137.003 1359.67 136.701C1359.96 136.402 1360.34 136.25 1360.81 136.25C1361.05 136.25 1361.28 136.294 1361.5 136.376C1361.72 136.461 1361.93 136.587 1362.13 136.754ZM1363.69 137.539V136.309H1363.82C1364.17 136.309 1364.41 136.358 1364.54 136.455C1364.67 136.552 1364.73 136.719 1364.73 136.953C1364.73 137.173 1364.67 137.325 1364.55 137.41C1364.43 137.498 1364.19 137.539 1363.82 137.539H1363.69ZM1363.65 138.081H1363.73L1365.15 140H1365.94L1364.46 138.049C1364.79 138.011 1365.03 137.894 1365.2 137.7C1365.36 137.507 1365.45 137.237 1365.45 136.892C1365.45 136.698 1365.41 136.517 1365.34 136.353C1365.27 136.188 1365.16 136.057 1365.03 135.951C1364.92 135.866 1364.79 135.805 1364.63 135.767C1364.47 135.731 1364.25 135.711 1363.97 135.711H1362.99V140H1363.65V138.081ZM1366.37 140H1367.07V135.711H1366.37V140ZM1368.77 137.504V136.309H1368.94C1369.31 136.309 1369.56 136.355 1369.7 136.449C1369.84 136.543 1369.91 136.704 1369.91 136.933C1369.91 137.146 1369.85 137.296 1369.72 137.378C1369.59 137.463 1369.33 137.504 1368.94 137.504H1368.77ZM1368.72 138.075H1368.98H1369.12C1369.43 138.075 1369.66 138.061 1369.81 138.025C1369.96 137.993 1370.09 137.938 1370.2 137.858C1370.33 137.762 1370.44 137.627 1370.51 137.454C1370.59 137.284 1370.63 137.097 1370.63 136.892C1370.63 136.689 1370.59 136.505 1370.51 136.335C1370.44 136.165 1370.33 136.03 1370.2 135.931C1370.09 135.854 1369.96 135.799 1369.81 135.764C1369.66 135.729 1369.43 135.711 1369.12 135.711H1368.07V140H1368.72V138.075ZM1372.65 136.303H1373.78V135.711H1370.81V136.303H1371.95V140H1372.65V136.303ZM1374.33 140H1375.02V135.711H1374.33V140ZM1379.7 137.864C1379.7 138.081 1379.65 138.286 1379.58 138.479C1379.5 138.673 1379.38 138.846 1379.24 138.998C1379.08 139.15 1378.91 139.268 1378.73 139.347C1378.54 139.429 1378.34 139.467 1378.13 139.467C1377.92 139.467 1377.72 139.429 1377.53 139.347C1377.34 139.268 1377.17 139.15 1377.02 138.998C1376.87 138.846 1376.76 138.673 1376.68 138.479C1376.6 138.286 1376.56 138.081 1376.56 137.864C1376.56 137.647 1376.6 137.439 1376.68 137.243C1376.76 137.05 1376.87 136.877 1377.02 136.725C1377.17 136.572 1377.34 136.458 1377.53 136.376C1377.72 136.297 1377.92 136.256 1378.13 136.256C1378.34 136.256 1378.54 136.297 1378.73 136.379C1378.92 136.461 1379.09 136.575 1379.24 136.725C1379.38 136.877 1379.5 137.053 1379.58 137.246C1379.65 137.442 1379.7 137.647 1379.7 137.864ZM1380.42 137.864C1380.42 137.562 1380.36 137.275 1380.25 137.003C1380.14 136.73 1379.97 136.484 1379.75 136.268C1379.53 136.057 1379.28 135.893 1379.01 135.781C1378.73 135.67 1378.44 135.614 1378.13 135.614C1377.82 135.614 1377.52 135.67 1377.25 135.781C1376.97 135.893 1376.72 136.057 1376.51 136.268C1376.29 136.484 1376.12 136.728 1376.01 136.997C1375.89 137.27 1375.84 137.56 1375.84 137.864C1375.84 138.175 1375.89 138.462 1376.01 138.731C1376.12 139.001 1376.29 139.244 1376.51 139.455C1376.72 139.666 1376.97 139.83 1377.25 139.944C1377.53 140.059 1377.82 140.114 1378.13 140.114C1378.44 140.114 1378.73 140.059 1379 139.944C1379.28 139.833 1379.53 139.669 1379.75 139.455C1379.97 139.244 1380.14 139.001 1380.25 138.729C1380.36 138.459 1380.42 138.169 1380.42 137.864ZM1381.22 140H1381.86V137.018C1381.93 137.105 1381.99 137.19 1382.06 137.27C1382.13 137.352 1382.2 137.428 1382.28 137.498L1385.06 140.167V135.711H1384.41V138.685C1384.33 138.579 1384.25 138.485 1384.17 138.4C1384.1 138.318 1384.02 138.239 1383.95 138.163L1381.22 135.541V140Z" fill="#D0C3B4"/>
<path d="M1006.9 952.789H1248.59" stroke="#D0C3B4"/>
<path d="M1006.9 921.734H1248.59" stroke="#D0C3B4"/>
<path d="M1006.9 890.68H1248.59" stroke="#D0C3B4"/>
<path d="M1248.59 775V986.173" stroke="#D0C3B4"/>
<path d="M1247.69 938.038H1838" stroke="#D0C3B4"/>
<path d="M1247.69 906.983H1838" stroke="#D0C3B4"/>
<path d="M1514.54 841.519L1838 842.295" stroke="#D0C3B4"/>
<path d="M1514.54 954.342L1838 955.118" stroke="#D0C3B4"/>
<path d="M1512.75 775V986.95" stroke="#D0C3B4"/>
<path d="M1756.24 906.207V938.038" stroke="#D0C3B4"/>
<path d="M1682.56 938.038V986.173" stroke="#D0C3B4"/>
<path d="M1248.59 872.046H1514.54" stroke="#D0C3B4"/>
<path d="M1246.79 840.992H1512.75" stroke="#D0C3B4"/>
<path d="M1007.8 809.937L1510.95 809.937" stroke="#D0C3B4"/>
<path d="M1099.41 789.615H1101.3V788.628H1096.35V789.615H1098.25V795.777H1099.41V789.615ZM1108.31 792.217C1108.31 792.578 1108.24 792.92 1108.11 793.242C1107.97 793.565 1107.78 793.853 1107.54 794.107C1107.29 794.361 1107 794.556 1106.69 794.688C1106.38 794.824 1106.05 794.888 1105.7 794.888C1105.34 794.888 1105.01 794.824 1104.69 794.688C1104.38 794.556 1104.09 794.361 1103.85 794.107C1103.6 793.853 1103.41 793.565 1103.28 793.242C1103.15 792.92 1103.09 792.578 1103.09 792.217C1103.09 791.856 1103.15 791.509 1103.28 791.182C1103.41 790.86 1103.6 790.572 1103.85 790.318C1104.09 790.064 1104.38 789.873 1104.69 789.737C1105.01 789.605 1105.35 789.536 1105.7 789.536C1106.05 789.536 1106.38 789.605 1106.7 789.741C1107.02 789.878 1107.3 790.069 1107.54 790.318C1107.78 790.572 1107.97 790.865 1108.11 791.187C1108.24 791.514 1108.31 791.856 1108.31 792.217ZM1109.52 792.217C1109.52 791.714 1109.42 791.236 1109.23 790.781C1109.04 790.327 1108.76 789.917 1108.4 789.556C1108.03 789.204 1107.62 788.931 1107.16 788.745C1106.7 788.56 1106.21 788.467 1105.7 788.467C1105.18 788.467 1104.69 788.56 1104.23 788.745C1103.77 788.931 1103.35 789.204 1102.99 789.556C1102.62 789.917 1102.34 790.323 1102.16 790.772C1101.97 791.226 1101.88 791.709 1101.88 792.217C1101.88 792.735 1101.97 793.213 1102.16 793.662C1102.34 794.112 1102.62 794.517 1102.99 794.868C1103.35 795.22 1103.76 795.493 1104.22 795.684C1104.69 795.874 1105.18 795.967 1105.7 795.967C1106.21 795.967 1106.69 795.874 1107.15 795.684C1107.61 795.498 1108.03 795.225 1108.4 794.868C1108.76 794.517 1109.04 794.112 1109.23 793.657C1109.42 793.208 1109.52 792.725 1109.52 792.217ZM1110.85 795.777H1114.61V794.737H1112.01V788.628H1110.85V795.777ZM1115.56 795.777H1119.55V794.737H1116.72V792.427H1119.55V791.406H1116.72V789.615H1119.55V788.628H1115.56V795.777ZM1122.04 791.675V789.624H1122.25C1122.84 789.624 1123.24 789.707 1123.45 789.868C1123.67 790.03 1123.78 790.308 1123.78 790.698C1123.78 791.065 1123.68 791.319 1123.48 791.46C1123.27 791.607 1122.87 791.675 1122.25 791.675H1122.04ZM1121.97 792.578H1122.1L1124.48 795.777H1125.79L1123.33 792.525C1123.87 792.461 1124.28 792.266 1124.56 791.944C1124.83 791.621 1124.97 791.172 1124.97 790.596C1124.97 790.274 1124.91 789.971 1124.79 789.698C1124.67 789.424 1124.5 789.204 1124.28 789.029C1124.09 788.887 1123.87 788.784 1123.6 788.721C1123.34 788.662 1122.97 788.628 1122.5 788.628H1120.88V795.777H1121.97V792.578ZM1127.99 792.969L1128.73 791.338C1128.77 791.226 1128.81 791.104 1128.86 790.967C1128.9 790.83 1128.95 790.684 1128.99 790.528C1129.03 790.694 1129.07 790.845 1129.12 790.982C1129.17 791.118 1129.21 791.236 1129.25 791.338L1129.99 792.969H1127.99ZM1131.21 795.777H1132.43L1128.98 788.345L1125.51 795.777H1126.73L1127.56 793.936H1130.4L1131.21 795.777ZM1133.11 795.777H1134.18V790.806C1134.28 790.952 1134.39 791.094 1134.5 791.226C1134.62 791.363 1134.74 791.49 1134.86 791.607L1139.5 796.055V788.628H1138.42V793.584C1138.28 793.408 1138.15 793.252 1138.02 793.111C1137.9 792.974 1137.77 792.842 1137.65 792.715L1133.11 788.345V795.777ZM1146.88 790.366L1146.94 789.195C1146.58 788.95 1146.22 788.765 1145.84 788.643C1145.46 788.521 1145.05 788.457 1144.63 788.457C1144.1 788.457 1143.6 788.55 1143.15 788.731C1142.69 788.911 1142.28 789.175 1141.92 789.527C1141.57 789.878 1141.29 790.283 1141.11 790.742C1140.92 791.201 1140.83 791.695 1140.83 792.217C1140.83 792.744 1140.92 793.238 1141.11 793.701C1141.29 794.165 1141.56 794.566 1141.91 794.907C1142.27 795.259 1142.67 795.523 1143.14 795.698C1143.6 795.879 1144.11 795.967 1144.65 795.967C1145.08 795.967 1145.48 795.913 1145.85 795.801C1146.22 795.694 1146.56 795.523 1146.87 795.298V793.985C1146.52 794.287 1146.15 794.517 1145.77 794.663C1145.39 794.815 1144.98 794.888 1144.56 794.888C1143.83 794.888 1143.23 794.639 1142.75 794.136C1142.28 793.638 1142.04 792.998 1142.04 792.227C1142.04 791.431 1142.29 790.781 1142.77 790.279C1143.26 789.781 1143.9 789.527 1144.68 789.527C1145.08 789.527 1145.47 789.6 1145.84 789.737C1146.2 789.878 1146.55 790.088 1146.88 790.366ZM1148.32 795.777H1152.31V794.737H1149.48V792.427H1152.31V791.406H1149.48V789.615H1152.31V788.628H1148.32V795.777ZM1153.23 794.346C1153.35 794.868 1153.6 795.269 1154 795.547C1154.39 795.83 1154.88 795.967 1155.49 795.967C1156.22 795.967 1156.79 795.772 1157.22 795.371C1157.65 794.971 1157.86 794.434 1157.86 793.755C1157.86 793.291 1157.73 792.906 1157.47 792.593C1157.2 792.281 1156.71 791.963 1156.01 791.636C1155.97 791.621 1155.92 791.597 1155.87 791.568C1155.05 791.197 1154.65 790.796 1154.65 790.366C1154.65 790.093 1154.74 789.878 1154.93 789.712C1155.11 789.551 1155.36 789.468 1155.67 789.468C1155.89 789.468 1156.09 789.522 1156.26 789.624C1156.43 789.732 1156.59 789.893 1156.73 790.117L1157.64 789.649C1157.51 789.268 1157.26 788.98 1156.91 788.775C1156.55 788.57 1156.11 788.467 1155.58 788.467C1154.94 788.467 1154.42 788.648 1154.02 789.009C1153.63 789.37 1153.43 789.844 1153.43 790.425C1153.43 790.874 1153.56 791.255 1153.82 791.568C1154.09 791.88 1154.61 792.227 1155.4 792.608C1155.45 792.632 1155.53 792.666 1155.63 792.715C1156.32 793.047 1156.67 793.418 1156.67 793.838C1156.67 794.16 1156.57 794.419 1156.36 794.61C1156.16 794.805 1155.88 794.898 1155.54 794.898C1155.18 794.898 1154.88 794.815 1154.64 794.649C1154.41 794.483 1154.25 794.239 1154.16 793.916L1153.23 794.346Z" fill="#D0C3B4"/>
<path d="M1286.16 795.777H1287.23V790.806C1287.33 790.952 1287.44 791.094 1287.56 791.226C1287.68 791.363 1287.79 791.49 1287.92 791.607L1292.55 796.055V788.628H1291.48V793.584C1291.34 793.408 1291.21 793.252 1291.08 793.111C1290.95 792.974 1290.83 792.842 1290.7 792.715L1286.16 788.345V795.777ZM1300.32 792.217C1300.32 792.578 1300.25 792.92 1300.12 793.242C1299.99 793.565 1299.8 793.853 1299.55 794.107C1299.3 794.361 1299.01 794.556 1298.7 794.688C1298.39 794.824 1298.06 794.888 1297.71 794.888C1297.35 794.888 1297.02 794.824 1296.7 794.688C1296.39 794.556 1296.1 794.361 1295.86 794.107C1295.61 793.853 1295.42 793.565 1295.29 793.242C1295.16 792.92 1295.1 792.578 1295.1 792.217C1295.1 791.856 1295.16 791.509 1295.29 791.182C1295.42 790.86 1295.61 790.572 1295.86 790.318C1296.1 790.064 1296.39 789.873 1296.7 789.737C1297.02 789.605 1297.36 789.536 1297.71 789.536C1298.06 789.536 1298.39 789.605 1298.71 789.741C1299.03 789.878 1299.31 790.069 1299.55 790.318C1299.8 790.572 1299.99 790.865 1300.12 791.187C1300.25 791.514 1300.32 791.856 1300.32 792.217ZM1301.53 792.217C1301.53 791.714 1301.43 791.236 1301.24 790.781C1301.05 790.327 1300.77 789.917 1300.41 789.556C1300.04 789.204 1299.63 788.931 1299.17 788.745C1298.71 788.56 1298.22 788.467 1297.71 788.467C1297.19 788.467 1296.7 788.56 1296.24 788.745C1295.78 788.931 1295.36 789.204 1295 789.556C1294.63 789.917 1294.36 790.323 1294.17 790.772C1293.98 791.226 1293.89 791.709 1293.89 792.217C1293.89 792.735 1293.98 793.213 1294.17 793.662C1294.36 794.112 1294.63 794.517 1295 794.868C1295.36 795.22 1295.77 795.493 1296.24 795.684C1296.7 795.874 1297.19 795.967 1297.71 795.967C1298.22 795.967 1298.7 795.874 1299.17 795.684C1299.62 795.498 1300.04 795.225 1300.41 794.868C1300.77 794.517 1301.05 794.112 1301.24 793.657C1301.43 793.208 1301.53 792.725 1301.53 792.217ZM1308.69 792.246L1309.48 795.777H1310.56L1308.83 788.325L1306.77 792.832C1306.75 792.881 1306.72 792.945 1306.69 793.028C1306.54 793.345 1306.43 793.604 1306.36 793.809C1306.27 793.565 1306.19 793.36 1306.12 793.194C1306.05 793.028 1306 792.91 1305.97 792.837L1303.86 788.325L1302.17 795.777H1303.24L1304.01 792.256C1304.05 792.08 1304.08 791.909 1304.1 791.743C1304.12 791.577 1304.14 791.421 1304.14 791.27C1304.18 791.416 1304.23 791.568 1304.29 791.714C1304.35 791.865 1304.41 792.022 1304.49 792.178L1306.36 796.065L1308.23 792.256C1308.31 792.09 1308.38 791.924 1308.43 791.758C1308.49 791.597 1308.53 791.436 1308.56 791.27C1308.58 791.406 1308.6 791.582 1308.63 791.787C1308.66 792.041 1308.68 792.193 1308.69 792.246Z" fill="#D0C3B4"/>
<path d="M1403.25 794.346C1403.37 794.868 1403.62 795.269 1404.01 795.547C1404.4 795.83 1404.9 795.967 1405.51 795.967C1406.23 795.967 1406.81 795.772 1407.24 795.371C1407.66 794.971 1407.88 794.434 1407.88 793.755C1407.88 793.291 1407.75 792.906 1407.48 792.593C1407.22 792.281 1406.73 791.963 1406.03 791.636C1405.99 791.621 1405.94 791.597 1405.88 791.568C1405.07 791.197 1404.67 790.796 1404.67 790.366C1404.67 790.093 1404.76 789.878 1404.94 789.712C1405.13 789.551 1405.38 789.468 1405.69 789.468C1405.91 789.468 1406.11 789.522 1406.28 789.624C1406.45 789.732 1406.6 789.893 1406.75 790.117L1407.66 789.649C1407.52 789.268 1407.27 788.98 1406.92 788.775C1406.57 788.57 1406.13 788.467 1405.6 788.467C1404.95 788.467 1404.44 788.648 1404.04 789.009C1403.65 789.37 1403.45 789.844 1403.45 790.425C1403.45 790.874 1403.58 791.255 1403.84 791.568C1404.1 791.88 1404.63 792.227 1405.42 792.608C1405.47 792.632 1405.55 792.666 1405.64 792.715C1406.34 793.047 1406.69 793.418 1406.69 793.838C1406.69 794.16 1406.59 794.419 1406.38 794.61C1406.18 794.805 1405.9 794.898 1405.56 794.898C1405.19 794.898 1404.9 794.815 1404.66 794.649C1404.43 794.483 1404.27 794.239 1404.18 793.916L1403.25 794.346ZM1409.17 795.777H1410.33V788.628H1409.17V795.777ZM1415.96 792.115V793.096H1417.68V793.198C1417.68 793.736 1417.49 794.156 1417.11 794.463C1416.73 794.776 1416.2 794.927 1415.54 794.927C1414.76 794.927 1414.12 794.678 1413.63 794.175C1413.14 793.672 1412.9 793.018 1412.9 792.207C1412.9 791.416 1413.14 790.772 1413.63 790.274C1414.12 789.776 1414.75 789.527 1415.53 789.527C1415.9 789.527 1416.24 789.595 1416.55 789.732C1416.85 789.868 1417.12 790.078 1417.36 790.357L1418.21 789.717C1417.86 789.297 1417.46 788.98 1417.02 788.775C1416.58 788.57 1416.07 788.467 1415.51 788.467C1414.97 788.467 1414.48 788.56 1414.01 788.736C1413.54 788.916 1413.13 789.175 1412.78 789.517C1412.42 789.868 1412.15 790.269 1411.96 790.723C1411.78 791.182 1411.69 791.68 1411.69 792.217C1411.69 792.749 1411.78 793.247 1411.96 793.711C1412.14 794.18 1412.4 794.585 1412.74 794.927C1413.08 795.279 1413.48 795.537 1413.94 795.708C1414.4 795.884 1414.93 795.967 1415.51 795.967C1416.56 795.967 1417.37 795.689 1417.95 795.132C1418.52 794.575 1418.81 793.794 1418.81 792.788C1418.81 792.71 1418.81 792.554 1418.8 792.32C1418.79 792.232 1418.79 792.163 1418.79 792.115H1415.96ZM1420.04 795.777H1421.11V790.806C1421.21 790.952 1421.32 791.094 1421.43 791.226C1421.55 791.363 1421.67 791.49 1421.8 791.607L1426.43 796.055V788.628H1425.35V793.584C1425.21 793.408 1425.08 793.252 1424.95 793.111C1424.83 792.974 1424.7 792.842 1424.58 792.715L1420.04 788.345V795.777ZM1429.58 792.969L1430.32 791.338C1430.36 791.226 1430.4 791.104 1430.45 790.967C1430.49 790.83 1430.54 790.684 1430.57 790.528C1430.62 790.694 1430.66 790.845 1430.71 790.982C1430.76 791.118 1430.8 791.236 1430.84 791.338L1431.58 792.969H1429.58ZM1432.8 795.777H1434.02L1430.56 788.345L1427.1 795.777H1428.32L1429.15 793.936H1431.99L1432.8 795.777ZM1437.01 789.615H1438.89V788.628H1433.94V789.615H1435.84V795.777H1437.01V789.615ZM1439.75 788.628V793.076C1439.75 794.048 1439.99 794.771 1440.48 795.249C1440.97 795.728 1441.7 795.967 1442.68 795.967C1443.67 795.967 1444.4 795.728 1444.89 795.249C1445.38 794.771 1445.62 794.043 1445.62 793.076V788.628H1444.46V792.969C1444.46 793.614 1444.31 794.102 1444.01 794.424C1443.71 794.746 1443.27 794.907 1442.68 794.907C1442.09 794.907 1441.64 794.746 1441.35 794.424C1441.05 794.102 1440.9 793.614 1440.9 792.969V788.628H1439.75ZM1448.39 791.675V789.624H1448.6C1449.18 789.624 1449.58 789.707 1449.8 789.868C1450.01 790.03 1450.13 790.308 1450.13 790.698C1450.13 791.065 1450.02 791.319 1449.82 791.46C1449.62 791.607 1449.21 791.675 1448.6 791.675H1448.39ZM1448.31 792.578H1448.45L1450.82 795.777H1452.14L1449.68 792.525C1450.21 792.461 1450.62 792.266 1450.9 791.944C1451.18 791.621 1451.32 791.172 1451.32 790.596C1451.32 790.274 1451.25 789.971 1451.14 789.698C1451.01 789.424 1450.84 789.204 1450.62 789.029C1450.44 788.887 1450.21 788.784 1449.95 788.721C1449.69 788.662 1449.32 788.628 1448.85 788.628H1447.22V795.777H1448.31V792.578ZM1452.83 795.777H1456.82V794.737H1453.99V792.427H1456.82V791.406H1453.99V789.615H1456.82V788.628H1452.83V795.777Z" fill="#D0C3B4"/>
<path d="M1652.75 816.218H1651.34L1652.61 817.595C1652.43 817.693 1652.25 817.761 1652.06 817.805C1651.88 817.849 1651.69 817.868 1651.49 817.868C1650.73 817.868 1650.11 817.615 1649.6 817.102C1649.09 816.589 1648.84 815.959 1648.84 815.207C1648.84 814.846 1648.91 814.499 1649.04 814.177C1649.17 813.855 1649.36 813.572 1649.61 813.318C1649.85 813.064 1650.13 812.868 1650.46 812.732C1650.77 812.595 1651.11 812.527 1651.46 812.527C1651.8 812.527 1652.13 812.595 1652.45 812.732C1652.77 812.868 1653.05 813.064 1653.31 813.318C1653.55 813.572 1653.74 813.855 1653.87 814.177C1654 814.499 1654.06 814.846 1654.06 815.207C1654.06 815.539 1654.01 815.852 1653.91 816.135C1653.81 816.418 1653.65 816.692 1653.43 816.955L1652.75 816.218ZM1654.2 817.805C1654.55 817.458 1654.81 817.063 1655 816.618C1655.18 816.174 1655.28 815.705 1655.28 815.207C1655.28 814.699 1655.18 814.221 1654.99 813.767C1654.79 813.318 1654.52 812.912 1654.16 812.556C1653.8 812.204 1653.39 811.936 1652.93 811.75C1652.46 811.565 1651.97 811.467 1651.46 811.467C1650.93 811.467 1650.44 811.565 1649.98 811.75C1649.51 811.936 1649.1 812.204 1648.75 812.556C1648.39 812.907 1648.11 813.313 1647.92 813.762C1647.73 814.216 1647.63 814.699 1647.63 815.207C1647.63 815.72 1647.73 816.203 1647.92 816.653C1648.11 817.107 1648.39 817.507 1648.75 817.859C1649.09 818.2 1649.5 818.469 1649.97 818.659C1650.43 818.855 1650.91 818.948 1651.39 818.948C1651.75 818.948 1652.09 818.908 1652.42 818.821C1652.75 818.738 1653.07 818.611 1653.4 818.435L1654.33 819.446H1655.71L1654.2 817.805ZM1656.58 811.628V816.076C1656.58 817.048 1656.82 817.771 1657.31 818.249C1657.79 818.728 1658.52 818.967 1659.51 818.967C1660.49 818.967 1661.23 818.728 1661.72 818.249C1662.2 817.771 1662.45 817.043 1662.45 816.076V811.628H1661.29V815.969C1661.29 816.614 1661.13 817.102 1660.84 817.424C1660.54 817.746 1660.09 817.907 1659.51 817.907C1658.91 817.907 1658.47 817.746 1658.17 817.424C1657.87 817.102 1657.73 816.614 1657.73 815.969V811.628H1656.58ZM1665.56 815.969L1666.29 814.338C1666.34 814.226 1666.38 814.104 1666.42 813.967C1666.47 813.83 1666.51 813.684 1666.55 813.528C1666.59 813.694 1666.64 813.845 1666.69 813.982C1666.73 814.118 1666.77 814.236 1666.82 814.338L1667.55 815.969H1665.56ZM1668.77 818.777H1670L1666.54 811.345L1663.08 818.777H1664.3L1665.13 816.936H1667.96L1668.77 818.777ZM1671.83 817.727V812.668H1672.25H1672.67C1673.27 812.668 1673.71 812.707 1673.99 812.776C1674.27 812.849 1674.51 812.971 1674.72 813.137C1674.99 813.371 1675.19 813.659 1675.32 814.001C1675.46 814.343 1675.53 814.743 1675.53 815.198C1675.53 815.656 1675.46 816.057 1675.32 816.399C1675.19 816.74 1674.99 817.029 1674.72 817.258C1674.52 817.429 1674.28 817.551 1674.02 817.619C1673.75 817.693 1673.35 817.727 1672.81 817.727H1671.83ZM1670.67 818.777H1672.24H1672.55C1673.39 818.777 1674.01 818.728 1674.41 818.625C1674.81 818.523 1675.17 818.352 1675.48 818.108C1675.89 817.79 1676.2 817.385 1676.42 816.897C1676.63 816.408 1676.74 815.842 1676.74 815.207C1676.74 814.573 1676.63 814.011 1676.42 813.513C1676.2 813.02 1675.89 812.615 1675.48 812.297C1675.17 812.058 1674.8 811.887 1674.39 811.784C1673.97 811.682 1673.25 811.628 1672.24 811.628H1670.67V818.777ZM1679.24 814.675V812.624H1679.45C1680.03 812.624 1680.43 812.707 1680.65 812.868C1680.86 813.03 1680.97 813.308 1680.97 813.698C1680.97 814.065 1680.87 814.319 1680.67 814.46C1680.47 814.607 1680.06 814.675 1679.45 814.675H1679.24ZM1679.16 815.578H1679.29L1681.67 818.777H1682.99L1680.52 815.525C1681.06 815.461 1681.47 815.266 1681.75 814.944C1682.02 814.621 1682.17 814.172 1682.17 813.596C1682.17 813.274 1682.1 812.971 1681.98 812.698C1681.86 812.424 1681.69 812.204 1681.47 812.029C1681.29 811.887 1681.06 811.784 1680.8 811.721C1680.53 811.662 1680.17 811.628 1679.69 811.628H1678.07V818.777H1679.16V815.578ZM1685.19 815.969L1685.92 814.338C1685.96 814.226 1686.01 814.104 1686.05 813.967C1686.1 813.83 1686.14 813.684 1686.18 813.528C1686.22 813.694 1686.27 813.845 1686.32 813.982C1686.36 814.118 1686.4 814.236 1686.45 814.338L1687.18 815.969H1685.19ZM1688.4 818.777H1689.63L1686.17 811.345L1682.71 818.777H1683.93L1684.76 816.936H1687.59L1688.4 818.777ZM1692.61 812.615H1694.5V811.628H1689.55V812.615H1691.45V818.777H1692.61V812.615ZM1695.41 818.777H1696.57V811.628H1695.41V818.777ZM1698.24 818.777H1699.4V815.124L1702.23 818.777H1703.73L1700.56 814.807L1703.39 811.628H1701.97L1699.4 814.587V811.628H1698.24V818.777Z" fill="white"/>
<path d="M1647.85 871.75C1648.03 872.666 1648.12 873.541 1648.12 874.375C1648.12 875.208 1647.96 876.016 1647.65 876.8C1647.31 877.633 1646.86 878.35 1646.3 878.95C1645.73 879.533 1645.06 880.016 1644.27 880.4C1643.82 880.616 1643.34 880.783 1642.82 880.9C1642.31 881.016 1641.79 881.058 1641.27 881.025C1640.76 881.008 1640.25 880.9 1639.75 880.7C1639.25 880.5 1638.77 880.2 1638.32 879.8C1637.99 879.483 1637.71 879.108 1637.5 878.675C1637.3 878.241 1637.13 877.775 1637 877.275C1636.88 876.758 1636.8 876.225 1636.75 875.675C1636.7 875.125 1636.66 874.566 1636.65 874C1636.41 874.483 1636.16 875 1635.9 875.55C1635.63 876.1 1635.35 876.658 1635.05 877.225C1634.76 877.775 1634.47 878.325 1634.17 878.875C1633.89 879.408 1633.61 879.908 1633.32 880.375C1632.94 881.025 1632.53 881.491 1632.1 881.775C1631.68 882.058 1631.28 882.158 1630.9 882.075C1630.51 882.025 1630.18 881.783 1629.9 881.35C1629.61 880.933 1629.42 880.333 1629.32 879.55C1629.24 878.833 1629.14 878.025 1629.02 877.125C1628.92 876.225 1628.83 875.283 1628.75 874.3C1628.66 873.316 1628.59 872.325 1628.52 871.325C1628.47 870.308 1628.45 869.325 1628.45 868.375C1628.45 868.041 1628.54 867.8 1628.72 867.65C1628.92 867.483 1629.14 867.4 1629.37 867.4C1629.61 867.4 1629.81 867.483 1630 867.65C1630.2 867.8 1630.3 868.016 1630.3 868.3C1630.31 869.066 1630.35 869.883 1630.4 870.75C1630.45 871.616 1630.51 872.5 1630.57 873.4C1630.66 874.3 1630.74 875.191 1630.82 876.075C1630.92 876.958 1631.03 877.8 1631.15 878.6C1631.18 878.85 1631.23 879.05 1631.3 879.2C1631.36 879.35 1631.45 879.425 1631.55 879.425C1631.71 879.425 1631.94 879.208 1632.22 878.775C1632.44 878.408 1632.68 877.975 1632.95 877.475C1633.21 876.958 1633.49 876.416 1633.77 875.85C1634.06 875.283 1634.33 874.708 1634.6 874.125C1634.88 873.525 1635.15 872.966 1635.4 872.45C1635.65 871.916 1635.87 871.441 1636.07 871.025C1636.27 870.608 1636.44 870.275 1636.57 870.025C1636.67 869.791 1636.83 869.641 1637.05 869.575C1637.26 869.491 1637.48 869.483 1637.7 869.55C1637.88 869.583 1638.04 869.683 1638.17 869.85C1638.31 870 1638.36 870.208 1638.32 870.475C1638.29 871.108 1638.27 871.816 1638.27 872.6C1638.29 873.366 1638.34 874.125 1638.42 874.875C1638.51 875.608 1638.64 876.3 1638.82 876.95C1639.02 877.583 1639.31 878.075 1639.67 878.425C1640.16 878.908 1640.73 879.166 1641.4 879.2C1642.06 879.233 1642.7 879.108 1643.3 878.825C1643.88 878.525 1644.4 878.15 1644.85 877.7C1645.31 877.25 1645.66 876.725 1645.9 876.125C1646.1 875.641 1646.2 875.058 1646.2 874.375C1646.2 873.691 1646.14 872.966 1646.02 872.2C1645.89 871.433 1645.71 870.7 1645.5 870C1645.28 869.3 1645.06 868.675 1644.82 868.125C1644.61 867.575 1644.4 867.125 1644.2 866.775C1644 866.425 1643.86 866.208 1643.77 866.125C1643.52 865.891 1643.41 865.65 1643.42 865.4C1643.44 865.133 1643.54 864.916 1643.72 864.75C1643.89 864.583 1644.1 864.483 1644.35 864.45C1644.6 864.416 1644.84 864.516 1645.07 864.75C1645.29 864.966 1645.53 865.3 1645.8 865.75C1646.06 866.2 1646.32 866.733 1646.57 867.35C1646.84 867.966 1647.08 868.65 1647.3 869.4C1647.51 870.15 1647.7 870.933 1647.85 871.75ZM1657.45 877.7C1657.77 877.316 1657.86 876.916 1657.73 876.5C1657.61 876.083 1657.36 875.741 1656.98 875.475C1656.73 875.475 1656.43 875.483 1656.08 875.5C1655.75 875.5 1655.43 875.491 1655.13 875.475C1654.66 875.475 1654.29 875.4 1654 875.25C1653.74 875.083 1653.65 874.875 1653.73 874.625C1653.65 874.575 1653.55 874.566 1653.45 874.6C1653.37 874.633 1653.26 874.675 1653.13 874.725C1652.78 874.958 1652.41 875.333 1652.03 875.85C1651.65 876.366 1651.4 876.95 1651.3 877.6C1651.15 878.4 1651.2 878.983 1651.45 879.35C1651.72 879.75 1652.16 879.95 1652.78 879.95C1653.26 879.966 1653.7 879.941 1654.08 879.875C1654.48 879.791 1654.83 879.683 1655.13 879.55C1655.56 879.366 1655.98 879.108 1656.38 878.775C1656.78 878.441 1657.14 878.083 1657.45 877.7ZM1660.78 874.65C1660.78 874.783 1660.75 874.916 1660.68 875.05C1660.61 875.183 1660.51 875.283 1660.38 875.35C1660.1 875.433 1659.72 875.475 1659.25 875.475C1659.35 875.608 1659.45 875.791 1659.53 876.025C1659.63 876.258 1659.68 876.525 1659.68 876.825C1659.7 877.125 1659.65 877.45 1659.53 877.8C1659.43 878.15 1659.23 878.5 1658.93 878.85C1658.01 879.933 1657.01 880.716 1655.93 881.2C1655.46 881.416 1654.97 881.566 1654.45 881.65C1653.94 881.733 1653.39 881.783 1652.8 881.8C1651.29 881.833 1650.25 881.366 1649.68 880.4C1649.23 879.616 1649.15 878.558 1649.43 877.225C1649.53 876.725 1649.68 876.25 1649.88 875.8C1650.1 875.333 1650.35 874.908 1650.65 874.525C1650.95 874.141 1651.29 873.8 1651.65 873.5C1652.02 873.2 1652.4 872.95 1652.8 872.75C1653.17 872.566 1653.55 872.483 1653.95 872.5C1654.35 872.5 1654.72 872.658 1655.05 872.975C1655.2 872.925 1655.37 872.9 1655.55 872.9C1655.74 872.883 1655.9 872.891 1656.03 872.925C1656.31 872.958 1656.61 873.05 1656.93 873.2C1657.25 873.333 1657.5 873.491 1657.7 873.675H1659.78C1660.08 873.675 1660.32 873.775 1660.5 873.975C1660.7 874.175 1660.8 874.4 1660.78 874.65ZM1668.88 877.7C1669.2 877.316 1669.29 876.916 1669.16 876.5C1669.04 876.083 1668.79 875.741 1668.41 875.475C1668.16 875.475 1667.86 875.483 1667.51 875.5C1667.17 875.5 1666.86 875.491 1666.56 875.475C1666.09 875.475 1665.71 875.4 1665.43 875.25C1665.16 875.083 1665.07 874.875 1665.16 874.625C1665.07 874.575 1664.98 874.566 1664.88 874.6C1664.8 874.633 1664.69 874.675 1664.56 874.725C1664.21 874.958 1663.84 875.333 1663.46 875.85C1663.07 876.366 1662.83 876.95 1662.73 877.6C1662.58 878.4 1662.63 878.983 1662.88 879.35C1663.15 879.75 1663.59 879.95 1664.21 879.95C1664.69 879.966 1665.12 879.941 1665.51 879.875C1665.91 879.791 1666.26 879.683 1666.56 879.55C1666.99 879.366 1667.41 879.108 1667.81 878.775C1668.21 878.441 1668.56 878.083 1668.88 877.7ZM1672.21 874.65C1672.21 874.783 1672.17 874.916 1672.11 875.05C1672.04 875.183 1671.94 875.283 1671.81 875.35C1671.52 875.433 1671.15 875.475 1670.68 875.475C1670.78 875.608 1670.87 875.791 1670.96 876.025C1671.06 876.258 1671.11 876.525 1671.11 876.825C1671.12 877.125 1671.07 877.45 1670.96 877.8C1670.86 878.15 1670.66 878.5 1670.36 878.85C1669.44 879.933 1668.44 880.716 1667.36 881.2C1666.89 881.416 1666.4 881.566 1665.88 881.65C1665.36 881.733 1664.81 881.783 1664.23 881.8C1662.71 881.833 1661.67 881.366 1661.11 880.4C1660.66 879.616 1660.57 878.558 1660.86 877.225C1660.96 876.725 1661.11 876.25 1661.31 875.8C1661.52 875.333 1661.78 874.908 1662.08 874.525C1662.38 874.141 1662.71 873.8 1663.08 873.5C1663.45 873.2 1663.83 872.95 1664.23 872.75C1664.6 872.566 1664.98 872.483 1665.38 872.5C1665.78 872.5 1666.15 872.658 1666.48 872.975C1666.63 872.925 1666.8 872.9 1666.98 872.9C1667.16 872.883 1667.32 872.891 1667.46 872.925C1667.74 872.958 1668.04 873.05 1668.36 873.2C1668.67 873.333 1668.93 873.491 1669.13 873.675H1671.21C1671.51 873.675 1671.75 873.775 1671.93 873.975C1672.13 874.175 1672.22 874.4 1672.21 874.65ZM1684.91 876.225C1684.94 876.691 1684.84 877.05 1684.61 877.3C1684.39 877.533 1684.14 877.65 1683.86 877.65C1683.66 877.65 1683.46 877.6 1683.26 877.5C1683.08 877.4 1682.93 877.233 1682.81 877C1682.63 876.716 1682.41 876.425 1682.16 876.125C1681.93 875.808 1681.66 875.525 1681.36 875.275C1681.08 875.025 1680.77 874.825 1680.44 874.675C1680.1 874.525 1679.77 874.45 1679.44 874.45C1679.14 874.45 1678.8 874.516 1678.44 874.65C1678.07 874.766 1677.7 874.925 1677.34 875.125C1676.97 875.325 1676.61 875.558 1676.26 875.825C1675.91 876.091 1675.6 876.358 1675.34 876.625C1675.15 876.808 1675.02 877 1674.94 877.2C1674.85 877.4 1674.81 877.575 1674.81 877.725C1674.83 877.991 1674.96 878.233 1675.21 878.45C1675.46 878.666 1675.83 878.841 1676.31 878.975C1676.58 879.058 1676.93 879.133 1677.36 879.2C1677.79 879.25 1678.28 879.275 1678.81 879.275C1679.34 879.258 1679.9 879.216 1680.49 879.15C1681.07 879.066 1681.65 878.925 1682.24 878.725C1682.5 878.641 1682.74 878.658 1682.94 878.775C1683.15 878.891 1683.31 879.058 1683.41 879.275C1683.49 879.508 1683.49 879.741 1683.41 879.975C1683.33 880.208 1683.09 880.391 1682.71 880.525C1682.03 880.758 1681.35 880.916 1680.69 881C1680.02 881.083 1679.38 881.125 1678.76 881.125C1678.16 881.125 1677.61 881.091 1677.11 881.025C1676.61 880.975 1676.19 880.908 1675.84 880.825C1674.82 880.575 1674.04 880.183 1673.51 879.65C1672.99 879.116 1672.73 878.508 1672.71 877.825C1672.68 877.091 1673.02 876.341 1673.74 875.575C1674.05 875.225 1674.44 874.875 1674.89 874.525C1675.35 874.175 1675.84 873.858 1676.36 873.575C1676.88 873.275 1677.4 873.033 1677.94 872.85C1678.49 872.65 1679 872.55 1679.49 872.55C1679.89 872.55 1680.24 872.6 1680.56 872.7C1680.88 872.783 1681.17 872.9 1681.44 873.05C1681.72 873.2 1681.97 873.366 1682.19 873.55C1682.42 873.733 1682.64 873.908 1682.84 874.075C1682.77 873.225 1682.69 872.341 1682.61 871.425C1682.53 870.491 1682.44 869.575 1682.34 868.675C1682.25 867.775 1682.16 866.916 1682.06 866.1C1681.96 865.266 1681.86 864.525 1681.76 863.875C1681.69 863.541 1681.74 863.275 1681.91 863.075C1682.09 862.858 1682.3 862.733 1682.54 862.7C1682.77 862.65 1682.99 862.7 1683.21 862.85C1683.44 862.983 1683.59 863.233 1683.64 863.6C1683.74 864.333 1683.85 865.233 1683.99 866.3C1684.12 867.366 1684.24 868.483 1684.36 869.65C1684.49 870.816 1684.6 871.983 1684.69 873.15C1684.79 874.3 1684.86 875.325 1684.91 876.225ZM1695.83 878.35C1695.85 878.55 1695.78 878.75 1695.63 878.95C1695.5 879.15 1695.26 879.266 1694.93 879.3C1694.7 879.333 1694.37 879.416 1693.95 879.55C1693.55 879.666 1693.12 879.808 1692.65 879.975C1692.2 880.141 1691.74 880.3 1691.25 880.45C1690.79 880.616 1690.38 880.741 1690.03 880.825C1688.98 881.075 1688.15 881.066 1687.55 880.8C1686.97 880.55 1686.55 879.941 1686.28 878.975C1686.2 878.658 1686.15 878.291 1686.13 877.875C1686.13 877.441 1686.15 877.066 1686.18 876.75C1686.21 876.316 1686.27 875.891 1686.35 875.475C1686.45 875.058 1686.56 874.683 1686.68 874.35C1686.58 874.316 1686.53 874.25 1686.53 874.15C1686.53 874.05 1686.55 873.95 1686.58 873.85C1686.65 873.7 1686.75 873.516 1686.88 873.3C1687.01 873.066 1687.15 872.883 1687.28 872.75C1687.45 872.616 1687.63 872.541 1687.83 872.525C1688.05 872.508 1688.25 872.533 1688.43 872.6C1688.66 872.683 1688.84 872.816 1688.95 873C1689.09 873.166 1689.1 873.358 1688.98 873.575C1688.8 873.941 1688.6 874.425 1688.4 875.025C1688.22 875.625 1688.11 876.2 1688.08 876.75C1688.06 877.083 1688.06 877.383 1688.08 877.65C1688.1 877.916 1688.13 878.141 1688.18 878.325C1688.26 878.658 1688.4 878.883 1688.6 879C1688.82 879.1 1689.15 879.108 1689.6 879.025C1689.89 878.975 1690.25 878.866 1690.7 878.7C1691.15 878.533 1691.62 878.358 1692.1 878.175C1692.6 877.975 1693.09 877.8 1693.55 877.65C1694.04 877.5 1694.45 877.425 1694.78 877.425C1695.11 877.408 1695.36 877.5 1695.53 877.7C1695.71 877.9 1695.81 878.116 1695.83 878.35ZM1690.98 867.15C1691.18 867.283 1691.33 867.458 1691.43 867.675C1691.53 867.875 1691.58 868.091 1691.58 868.325C1691.58 868.541 1691.53 868.766 1691.43 869C1691.33 869.216 1691.17 869.4 1690.95 869.55C1690.67 869.75 1690.35 869.841 1689.98 869.825C1689.61 869.808 1689.28 869.658 1688.98 869.375C1688.7 869.075 1688.55 868.708 1688.55 868.275C1688.57 867.825 1688.79 867.45 1689.2 867.15C1689.45 866.966 1689.75 866.875 1690.08 866.875C1690.41 866.875 1690.71 866.966 1690.98 867.15ZM1705.71 880.875C1705.62 881.075 1705.48 881.241 1705.28 881.375C1705.1 881.525 1704.89 881.575 1704.66 881.525C1703.91 881.358 1703.11 881.083 1702.26 880.7C1701.41 880.316 1700.58 879.9 1699.78 879.45C1698.98 878.983 1698.25 878.508 1697.58 878.025C1696.92 877.541 1696.41 877.116 1696.06 876.75C1696.04 876.95 1696.02 877.183 1696.01 877.45C1696.01 877.7 1696 877.958 1695.98 878.225C1695.98 878.475 1695.97 878.716 1695.96 878.95C1695.96 879.183 1695.96 879.375 1695.96 879.525C1695.92 879.825 1695.82 880.05 1695.66 880.2C1695.49 880.35 1695.29 880.425 1695.06 880.425C1694.84 880.425 1694.63 880.35 1694.43 880.2C1694.25 880.05 1694.16 879.825 1694.16 879.525C1694.12 878.791 1694.12 877.95 1694.13 877C1694.15 876.05 1694.23 875.066 1694.38 874.05C1694.5 873.283 1694.64 872.516 1694.81 871.75C1694.99 870.983 1695.22 870.241 1695.48 869.525C1695.75 868.808 1696.05 868.133 1696.38 867.5C1696.73 866.85 1697.13 866.275 1697.58 865.775C1697.77 865.591 1697.98 865.5 1698.23 865.5C1698.48 865.483 1698.7 865.541 1698.88 865.675C1699.05 865.808 1699.16 865.983 1699.21 866.2C1699.27 866.416 1699.22 866.666 1699.06 866.95C1698.39 867.9 1697.86 868.858 1697.46 869.825C1697.06 870.791 1696.75 871.833 1696.53 872.95C1696.75 872.8 1697.07 872.641 1697.51 872.475C1697.96 872.308 1698.45 872.158 1698.98 872.025C1699.53 871.875 1700.1 871.75 1700.68 871.65C1701.28 871.55 1701.85 871.491 1702.38 871.475C1702.97 871.441 1703.48 871.466 1703.93 871.55C1704.25 871.583 1704.47 871.7 1704.58 871.9C1704.72 872.083 1704.77 872.283 1704.76 872.5C1704.74 872.766 1704.63 873 1704.43 873.2C1704.25 873.383 1703.99 873.433 1703.66 873.35C1703.51 873.316 1703.32 873.308 1703.11 873.325C1702.89 873.325 1702.67 873.325 1702.43 873.325C1702 873.358 1701.55 873.416 1701.08 873.5C1700.62 873.583 1700.16 873.683 1699.71 873.8C1699.27 873.916 1698.87 874.041 1698.48 874.175C1698.1 874.308 1697.78 874.441 1697.53 874.575C1697.3 874.675 1697.16 874.816 1697.11 875C1697.07 875.166 1697.16 875.35 1697.36 875.55C1697.69 875.833 1698.16 876.183 1698.76 876.6C1699.37 877.016 1700.04 877.433 1700.76 877.85C1701.49 878.266 1702.23 878.65 1702.98 879C1703.73 879.35 1704.42 879.583 1705.06 879.7C1705.39 879.783 1705.6 879.941 1705.68 880.175C1705.78 880.408 1705.79 880.641 1705.71 880.875ZM1726.03 869.15C1726.21 869.533 1726.09 869.975 1725.68 870.475C1725.21 871.041 1724.72 871.683 1724.2 872.4C1723.68 873.116 1723.16 873.875 1722.63 874.675C1722.11 875.475 1721.61 876.291 1721.13 877.125C1720.64 877.958 1720.18 878.783 1719.75 879.6C1719.33 880.416 1718.97 881.2 1718.65 881.95C1718.33 882.7 1718.09 883.383 1717.93 884C1718.01 884.233 1718.04 884.466 1718.03 884.7C1718.03 884.933 1717.98 885.125 1717.88 885.275C1717.73 885.508 1717.53 885.666 1717.28 885.75C1717.03 885.833 1716.78 885.841 1716.55 885.775C1716.28 885.691 1716.07 885.508 1715.9 885.225C1715.75 884.958 1715.74 884.6 1715.88 884.15C1716.19 883 1716.63 881.808 1717.2 880.575C1717.77 879.358 1718.38 878.166 1719.03 877C1719.69 875.816 1720.38 874.7 1721.08 873.65C1721.79 872.583 1722.46 871.641 1723.08 870.825C1723.19 870.658 1723.23 870.525 1723.2 870.425C1723.17 870.308 1723.01 870.25 1722.73 870.25C1722.19 870.233 1721.68 870.225 1721.2 870.225C1720.73 870.208 1720.24 870.2 1719.73 870.2C1719.23 870.2 1718.68 870.216 1718.1 870.25C1717.52 870.266 1716.86 870.3 1716.13 870.35C1715.94 870.483 1715.75 870.575 1715.55 870.625C1715.37 870.675 1715.18 870.691 1715 870.675C1714.72 870.691 1714.45 870.616 1714.2 870.45C1713.97 870.266 1713.8 870.058 1713.7 869.825C1713.6 869.575 1713.62 869.325 1713.75 869.075C1713.88 868.825 1714.2 868.658 1714.7 868.575C1715.27 868.508 1715.97 868.458 1716.8 868.425C1717.65 868.375 1718.53 868.35 1719.45 868.35C1720.38 868.35 1721.31 868.358 1722.23 868.375C1723.14 868.391 1723.95 868.425 1724.65 868.475C1725.05 868.491 1725.36 868.566 1725.58 868.7C1725.79 868.816 1725.94 868.966 1726.03 869.15Z" fill="white"/>
<path d="M1611.43 924.832H1608.71L1609.61 923.777C1610.36 922.933 1610.84 922.288 1611.07 921.844C1611.3 921.399 1611.42 920.96 1611.42 920.521C1611.42 919.91 1611.22 919.427 1610.82 919.07C1610.41 918.719 1609.87 918.538 1609.18 918.538C1608.46 918.538 1607.88 918.733 1607.45 919.114C1607.02 919.495 1606.81 920.008 1606.81 920.647H1607.92C1607.95 920.315 1608.07 920.052 1608.28 919.847C1608.49 919.642 1608.76 919.539 1609.09 919.539C1609.45 919.539 1609.74 919.642 1609.95 919.847C1610.16 920.052 1610.26 920.33 1610.26 920.682C1610.26 920.931 1610.19 921.204 1610.03 921.507C1609.88 921.81 1609.64 922.161 1609.31 922.562L1606.64 925.76H1611.43V924.832ZM1617.47 924.832H1614.75L1615.66 923.777C1616.4 922.933 1616.88 922.288 1617.11 921.844C1617.34 921.399 1617.46 920.96 1617.46 920.521C1617.46 919.91 1617.26 919.427 1616.86 919.07C1616.46 918.719 1615.92 918.538 1615.23 918.538C1614.5 918.538 1613.93 918.733 1613.5 919.114C1613.07 919.495 1612.85 920.008 1612.85 920.647H1613.97C1613.99 920.315 1614.11 920.052 1614.33 919.847C1614.54 919.642 1614.8 919.539 1615.13 919.539C1615.49 919.539 1615.78 919.642 1615.99 919.847C1616.2 920.052 1616.31 920.33 1616.31 920.682C1616.31 920.931 1616.23 921.204 1616.08 921.507C1615.92 921.81 1615.68 922.161 1615.35 922.562L1612.68 925.76H1617.47V924.832ZM1622.02 918.45L1618.52 926.688H1619.35L1622.85 918.45H1622.02ZM1625.49 925.76H1626.55V918.68H1624.46L1624.01 919.598H1625.49V925.76ZM1629.36 923.851C1629.37 924.495 1629.59 925.003 1630.01 925.384C1630.43 925.765 1630.99 925.95 1631.67 925.95C1632.43 925.95 1633.03 925.765 1633.48 925.394C1633.92 925.022 1634.15 924.515 1634.15 923.88C1634.15 923.362 1634.02 922.942 1633.79 922.625C1633.55 922.312 1633.21 922.112 1632.76 922.029C1633.14 921.971 1633.44 921.805 1633.66 921.521C1633.87 921.238 1633.98 920.877 1633.98 920.438C1633.98 919.856 1633.79 919.393 1633.41 919.051C1633.03 918.709 1632.51 918.538 1631.86 918.538C1631.18 918.538 1630.65 918.704 1630.27 919.026C1629.89 919.354 1629.68 919.822 1629.65 920.428H1630.7C1630.71 920.125 1630.81 919.891 1631.01 919.725C1631.2 919.559 1631.47 919.471 1631.83 919.471C1632.15 919.471 1632.41 919.563 1632.6 919.744C1632.8 919.925 1632.9 920.169 1632.9 920.472C1632.9 920.818 1632.79 921.082 1632.57 921.258C1632.36 921.434 1632.04 921.521 1631.62 921.521C1631.59 921.521 1631.56 921.521 1631.51 921.517C1631.46 921.517 1631.43 921.512 1631.41 921.512V922.449C1631.43 922.449 1631.47 922.449 1631.52 922.444C1631.57 922.444 1631.6 922.439 1631.63 922.439C1632.1 922.439 1632.47 922.552 1632.71 922.767C1632.95 922.981 1633.08 923.304 1633.08 923.729C1633.08 924.139 1632.95 924.451 1632.72 924.666C1632.49 924.881 1632.15 924.988 1631.72 924.988C1631.33 924.988 1631.03 924.891 1630.81 924.695C1630.58 924.5 1630.47 924.241 1630.47 923.909V923.851H1629.36ZM1638.44 918.45L1634.94 926.688H1635.77L1639.27 918.45H1638.44ZM1644.28 924.832H1641.56L1642.47 923.777C1643.21 922.933 1643.69 922.288 1643.92 921.844C1644.15 921.399 1644.27 920.96 1644.27 920.521C1644.27 919.91 1644.07 919.427 1643.67 919.07C1643.27 918.719 1642.72 918.538 1642.04 918.538C1641.31 918.538 1640.73 918.733 1640.3 919.114C1639.87 919.495 1639.66 920.008 1639.66 920.647H1640.78C1640.8 920.315 1640.92 920.052 1641.13 919.847C1641.34 919.642 1641.61 919.539 1641.94 919.539C1642.3 919.539 1642.59 919.642 1642.8 919.847C1643.01 920.052 1643.12 920.33 1643.12 920.682C1643.12 920.931 1643.04 921.204 1642.89 921.507C1642.73 921.81 1642.49 922.161 1642.16 922.562L1639.49 925.76H1644.28V924.832ZM1650.91 922.317C1650.91 921.106 1650.69 920.174 1650.25 919.52C1649.8 918.865 1649.17 918.538 1648.35 918.538C1647.54 918.538 1646.91 918.865 1646.45 919.515C1646 920.169 1645.77 921.077 1645.77 922.239C1645.77 923.416 1646 924.329 1646.45 924.979C1646.89 925.628 1647.53 925.95 1648.34 925.95C1649.14 925.95 1649.77 925.633 1650.22 924.988C1650.68 924.344 1650.91 923.455 1650.91 922.317ZM1648.32 924.949C1647.87 924.949 1647.53 924.72 1647.29 924.251C1647.05 923.787 1646.93 923.118 1646.93 922.249C1646.93 921.355 1647.05 920.677 1647.29 920.218C1647.53 919.759 1647.89 919.529 1648.36 919.529C1648.81 919.529 1649.16 919.764 1649.39 920.223C1649.63 920.682 1649.75 921.351 1649.75 922.229C1649.75 923.138 1649.63 923.816 1649.39 924.271C1649.15 924.725 1648.79 924.949 1648.32 924.949ZM1656.37 924.832H1653.65L1654.56 923.777C1655.3 922.933 1655.78 922.288 1656.01 921.844C1656.24 921.399 1656.36 920.96 1656.36 920.521C1656.36 919.91 1656.16 919.427 1655.76 919.07C1655.36 918.719 1654.81 918.538 1654.13 918.538C1653.4 918.538 1652.82 918.733 1652.39 919.114C1651.96 919.495 1651.75 920.008 1651.75 920.647H1652.87C1652.89 920.315 1653.01 920.052 1653.22 919.847C1653.43 919.642 1653.7 919.539 1654.03 919.539C1654.39 919.539 1654.68 919.642 1654.89 919.847C1655.1 920.052 1655.2 920.33 1655.2 920.682C1655.2 920.931 1655.13 921.204 1654.98 921.507C1654.82 921.81 1654.58 922.161 1654.25 922.562L1651.58 925.76H1656.37V924.832ZM1657.87 923.851C1657.89 924.495 1658.11 925.003 1658.53 925.384C1658.95 925.765 1659.5 925.95 1660.19 925.95C1660.95 925.95 1661.55 925.765 1661.99 925.394C1662.44 925.022 1662.66 924.515 1662.66 923.88C1662.66 923.362 1662.54 922.942 1662.3 922.625C1662.07 922.312 1661.72 922.112 1661.27 922.029C1661.66 921.971 1661.96 921.805 1662.17 921.521C1662.39 921.238 1662.5 920.877 1662.5 920.438C1662.5 919.856 1662.3 919.393 1661.92 919.051C1661.54 918.709 1661.03 918.538 1660.37 918.538C1659.69 918.538 1659.16 918.704 1658.78 919.026C1658.4 919.354 1658.19 919.822 1658.16 920.428H1659.21C1659.22 920.125 1659.33 919.891 1659.52 919.725C1659.72 919.559 1659.99 919.471 1660.34 919.471C1660.66 919.471 1660.92 919.563 1661.12 919.744C1661.31 919.925 1661.41 920.169 1661.41 920.472C1661.41 920.818 1661.3 921.082 1661.09 921.258C1660.87 921.434 1660.55 921.521 1660.13 921.521C1660.11 921.521 1660.07 921.521 1660.02 921.517C1659.98 921.517 1659.94 921.512 1659.92 921.512V922.449C1659.95 922.449 1659.99 922.449 1660.03 922.444C1660.08 922.444 1660.12 922.439 1660.14 922.439C1660.62 922.439 1660.98 922.552 1661.23 922.767C1661.47 922.981 1661.59 923.304 1661.59 923.729C1661.59 924.139 1661.47 924.451 1661.24 924.666C1661 924.881 1660.66 924.988 1660.23 924.988C1659.85 924.988 1659.55 924.891 1659.32 924.695C1659.1 924.5 1658.98 924.241 1658.98 923.909V923.851H1657.87Z" fill="#D0C3B4"/>
<path d="M1793.56 922.952L1794.3 921.321C1794.34 921.209 1794.38 921.087 1794.43 920.95C1794.47 920.813 1794.52 920.667 1794.55 920.511C1794.6 920.677 1794.64 920.828 1794.69 920.965C1794.74 921.102 1794.78 921.219 1794.82 921.321L1795.56 922.952H1793.56ZM1796.78 925.76H1798L1794.54 918.328L1791.08 925.76H1792.3L1793.13 923.919H1795.97L1796.78 925.76ZM1801.44 920.931C1801.43 921.067 1801.42 921.194 1801.42 921.312C1801.42 921.434 1801.42 921.541 1801.42 921.639V923.499H1799.62L1801.44 920.931ZM1801.42 925.76H1802.47V924.31H1803.34V923.499H1802.47V918.538H1802.15L1797.99 924.31H1801.42V925.76Z" fill="#D0C3B4"/>
<path d="M1731.81 973.895H1735.8V972.854H1732.97V970.545H1735.8V969.524H1732.97V967.732H1735.8V966.746H1731.81V973.895ZM1742.87 968.484L1742.93 967.312C1742.57 967.068 1742.2 966.883 1741.82 966.761C1741.44 966.639 1741.04 966.575 1740.62 966.575C1740.08 966.575 1739.59 966.668 1739.13 966.849C1738.67 967.029 1738.26 967.293 1737.91 967.645C1737.56 967.996 1737.28 968.401 1737.1 968.86C1736.91 969.319 1736.82 969.812 1736.82 970.335C1736.82 970.862 1736.91 971.355 1737.1 971.819C1737.28 972.283 1737.55 972.684 1737.9 973.025C1738.25 973.377 1738.66 973.641 1739.12 973.816C1739.59 973.997 1740.09 974.085 1740.64 974.085C1741.07 974.085 1741.47 974.031 1741.84 973.919C1742.2 973.812 1742.55 973.641 1742.86 973.416V972.103C1742.51 972.405 1742.14 972.635 1741.75 972.781C1741.37 972.933 1740.97 973.006 1740.55 973.006C1739.82 973.006 1739.22 972.757 1738.74 972.254C1738.26 971.756 1738.03 971.116 1738.03 970.345C1738.03 969.549 1738.27 968.899 1738.76 968.396C1739.25 967.898 1739.89 967.645 1740.67 967.645C1741.07 967.645 1741.46 967.718 1741.82 967.854C1742.19 967.996 1742.54 968.206 1742.87 968.484ZM1744.31 973.895H1745.47V970.423H1748.99V973.895H1750.15V966.746H1748.99V969.383H1745.47V966.746H1744.31V973.895ZM1751.79 973.895H1755.78V972.854H1752.95V970.545H1755.78V969.524H1752.95V967.732H1755.78V966.746H1751.79V973.895ZM1757.11 973.895H1760.87V972.854H1758.27V966.746H1757.11V973.895ZM1761.82 973.895H1765.58V972.854H1762.98V966.746H1761.82V973.895ZM1766.53 973.895H1770.51V972.854H1767.69V970.545H1770.51V969.524H1767.69V967.732H1770.51V966.746H1766.53V973.895ZM1776.69 973.895H1777.75V966.814H1775.66L1775.21 967.732H1776.69V973.895ZM1783.59 966.585L1780.09 974.822H1780.92L1784.42 966.585H1783.59ZM1787.07 973.895H1788.13V966.814H1786.04L1785.59 967.732H1787.07V973.895Z" fill="#D0C3B4"/>
<path fill-rule="evenodd" clip-rule="evenodd" d="M1466.68 945.177C1466.4 945.618 1464.82 946.267 1463.16 946.618C1459.51 947.395 1454.09 953.137 1453.27 957.086C1452.69 959.884 1452.49 959.97 1446.62 959.97C1442.85 959.97 1440.81 960.342 1441.2 960.958C1441.55 961.502 1444.29 961.947 1447.3 961.947C1452.43 961.947 1452.81 962.115 1453.41 964.665C1454.39 968.794 1458.03 972.481 1463.25 974.642C1467.65 976.463 1468.27 976.492 1472.7 975.078C1477.96 973.401 1482.3 969.137 1483.2 964.774L1483.79 961.947H1493.86C1506.95 961.947 1507.11 960.132 1494.06 959.758C1484.28 959.479 1484.18 959.449 1483.45 956.798C1482.07 951.771 1478.73 948.493 1472.86 946.397C1469.74 945.285 1466.96 944.735 1466.68 945.177ZM1400.4 948.286C1388.61 949.835 1377.05 951.373 1374.69 951.704C1370.64 952.275 1370.39 952.501 1370.1 955.891L1369.79 959.476L1363.93 959.772C1356.16 960.165 1356.36 961.947 1364.18 961.947H1370.3V965.266V968.586L1378.21 969.648C1382.56 970.234 1394.15 971.801 1403.97 973.132C1413.78 974.462 1422.16 975.356 1422.58 975.117C1423 974.876 1423.35 968.283 1423.35 960.464C1423.35 952.645 1423 946.073 1422.58 945.858C1422.16 945.645 1412.18 946.737 1400.4 948.286ZM1422.11 959.418C1422.26 965.911 1422.19 971.729 1421.95 972.349C1421.63 973.167 1416.39 972.858 1402.79 971.219C1376.81 968.087 1372.34 967.123 1372.34 964.64C1372.34 963.55 1373.15 962.069 1374.13 961.346C1375.83 960.096 1375.83 960.031 1374.13 960.002C1372.8 959.978 1372.34 959.144 1372.34 956.713V953.456L1391.98 951.15C1402.78 949.881 1412.53 948.473 1413.66 948.021C1414.78 947.568 1417.07 947.292 1418.76 947.406L1421.82 947.614L1422.11 959.418ZM1467.21 950.03C1467.21 951.022 1466.04 952.577 1464.61 953.484C1463.19 954.39 1461.51 956.221 1460.88 957.551C1460.15 959.114 1458.9 959.97 1457.36 959.97C1452.72 959.97 1455.18 953.653 1461.33 949.792C1465.72 947.03 1467.21 947.09 1467.21 950.03ZM1475.35 949.576C1479.68 952.223 1481.49 954.693 1481.49 957.928C1481.49 961.003 1478.17 960.464 1475.5 956.955C1474.23 955.296 1472.08 953.528 1470.71 953.025C1467.53 951.854 1467.33 947.12 1470.46 947.12C1470.94 947.12 1473.14 948.225 1475.35 949.576ZM1472.32 956.021C1474.26 957.026 1474.69 962.045 1473.06 964.566C1472.17 965.928 1465.14 966.097 1463.51 964.795C1462.04 963.627 1462.42 958.532 1464.12 956.544C1465.61 954.81 1469.51 954.562 1472.32 956.021ZM1467.47 958.693C1465.69 959.326 1465.87 961.617 1467.76 962.319C1468.67 962.657 1469.58 962.257 1469.94 961.37C1470.65 959.555 1469.27 958.052 1467.47 958.693ZM1384.58 960.958C1384.58 961.502 1386.16 961.947 1388.09 961.947C1390.02 961.947 1391.89 961.502 1392.23 960.958C1392.61 960.361 1391.22 959.97 1388.72 959.97C1386.45 959.97 1384.58 960.415 1384.58 960.958ZM1401.93 960.958C1401.93 961.535 1405.33 961.947 1410.09 961.947C1414.85 961.947 1418.25 961.535 1418.25 960.958C1418.25 960.382 1414.85 959.97 1410.09 959.97C1405.33 959.97 1401.93 960.382 1401.93 960.958ZM1427.43 960.958C1427.43 961.502 1429.01 961.947 1430.94 961.947C1432.87 961.947 1434.73 961.502 1435.08 960.958C1435.46 960.361 1434.07 959.97 1431.57 959.97C1429.29 959.97 1427.43 960.415 1427.43 960.958ZM1460.96 964.174C1461.63 965.399 1463.55 967.157 1465.21 968.082C1468.2 969.744 1469.15 972.156 1467.26 973.288C1464.22 975.105 1454.99 967.506 1454.97 963.183C1454.97 961.023 1459.64 961.798 1460.96 964.174ZM1481.49 963.848C1481.49 967.77 1472.08 975.227 1469.85 973.069C1468.36 971.631 1469.46 968.742 1471.81 967.873C1473.22 967.354 1474.9 965.808 1475.55 964.438C1477 961.343 1481.49 960.897 1481.49 963.848Z" fill="#D0C3B4"/>
<path d="M1837.84 775H1008.54V987H1837.84V775Z" stroke="#D0C3B4"/>
<path d="M1347.43 775V986.949" stroke="#D0C3B4"/>
<path d="M1275.12 164.84C1274.4 163.54 1272.96 162.72 1271.44 162.72C1269.18 162.72 1267.58 164.3 1267.58 166.54C1267.58 167.74 1268.14 168.62 1269.14 169.24L1271.86 170.68C1273.16 171.32 1274.9 172.04 1274.9 173.74C1274.9 175.74 1273.16 177.3 1271.18 177.3C1269.36 177.3 1268.18 176.18 1267.54 174.58L1266.7 174.96C1267.4 176.9 1269.04 178.2 1271.14 178.2C1273.58 178.2 1275.86 176.32 1275.86 173.82C1275.86 172.46 1275.28 171.54 1274.14 170.82L1271.26 169.32C1270.04 168.74 1268.54 168.08 1268.54 166.5C1268.54 164.92 1269.76 163.62 1271.38 163.62C1272.8 163.62 1273.76 164.32 1274.44 165.4L1275.12 164.84ZM1289.48 172.04C1289.48 173.4 1289.48 174.84 1288.7 175.84C1287.96 176.8 1286.48 177.3 1285.32 177.3C1284.16 177.3 1282.68 176.8 1281.94 175.84C1281.16 174.84 1281.16 173.4 1281.16 172.04L1281.16 162.92H1280.2L1280.2 172.32C1280.2 173.86 1280.2 175.18 1281.22 176.44C1282.24 177.6 1283.8 178.2 1285.32 178.2C1286.84 178.2 1288.4 177.6 1289.42 176.44C1290.44 175.18 1290.44 173.86 1290.44 172.32L1290.44 162.92H1289.48L1289.48 172.04ZM1298.06 170.86C1300.56 170.9 1302.38 169.54 1302.38 166.92C1302.38 165.64 1301.94 164.44 1300.86 163.68C1299.84 162.94 1298.64 162.92 1297.42 162.92H1295.54L1295.54 178H1296.5L1296.5 170.86H1296.98L1301.9 178H1303L1298.06 170.86ZM1296.5 169.96L1296.5 163.82H1297.12C1298 163.82 1299.02 163.78 1299.82 164.16C1300.9 164.64 1301.42 165.76 1301.42 166.88C1301.42 167.78 1301.08 168.68 1300.36 169.26C1299.6 169.92 1298.66 169.96 1297.72 169.96H1296.5ZM1305.69 171.16L1305.69 172.06H1309.49L1309.49 171.16H1305.69ZM1328.34 178H1329.26L1326.02 162.42L1320.46 176.14L1314.92 162.42L1311.68 178H1312.6L1315.18 165.52H1315.22L1320.46 178.5L1325.72 165.52H1325.76L1328.34 178ZM1340.27 163.82L1340.27 162.92H1333.07L1333.07 178H1340.27L1340.27 177.1H1334.03L1334.03 170.2H1340.11L1340.11 169.3H1334.03L1334.03 163.82H1340.27ZM1352.86 164.84C1352.14 163.54 1350.7 162.72 1349.18 162.72C1346.92 162.72 1345.32 164.3 1345.32 166.54C1345.32 167.74 1345.88 168.62 1346.88 169.24L1349.6 170.68C1350.9 171.32 1352.64 172.04 1352.64 173.74C1352.64 175.74 1350.9 177.3 1348.92 177.3C1347.1 177.3 1345.92 176.18 1345.28 174.58L1344.44 174.96C1345.14 176.9 1346.78 178.2 1348.88 178.2C1351.32 178.2 1353.6 176.32 1353.6 173.82C1353.6 172.46 1353.02 171.54 1351.88 170.82L1349 169.32C1347.78 168.74 1346.28 168.08 1346.28 166.5C1346.28 164.92 1347.5 163.62 1349.12 163.62C1350.54 163.62 1351.5 164.32 1352.18 165.4L1352.86 164.84ZM1367.22 172.04C1367.22 173.4 1367.22 174.84 1366.44 175.84C1365.7 176.8 1364.22 177.3 1363.06 177.3C1361.9 177.3 1360.42 176.8 1359.68 175.84C1358.9 174.84 1358.9 173.4 1358.9 172.04L1358.9 162.92H1357.94L1357.94 172.32C1357.94 173.86 1357.94 175.18 1358.96 176.44C1359.98 177.6 1361.54 178.2 1363.06 178.2C1364.58 178.2 1366.14 177.6 1367.16 176.44C1368.18 175.18 1368.18 173.86 1368.18 172.32L1368.18 162.92H1367.22L1367.22 172.04ZM1375.8 170.86C1378.3 170.9 1380.12 169.54 1380.12 166.92C1380.12 165.64 1379.68 164.44 1378.6 163.68C1377.58 162.94 1376.38 162.92 1375.16 162.92H1373.28L1373.28 178H1374.24L1374.24 170.86H1374.72L1379.64 178H1380.74L1375.8 170.86ZM1374.24 169.96L1374.24 163.82H1374.86C1375.74 163.82 1376.76 163.78 1377.56 164.16C1378.64 164.64 1379.16 165.76 1379.16 166.88C1379.16 167.78 1378.82 168.68 1378.1 169.26C1377.34 169.92 1376.4 169.96 1375.46 169.96H1374.24ZM1392.25 163.82L1392.25 162.92H1385.05L1385.05 178H1392.25L1392.25 177.1H1386.01L1386.01 170.2H1392.09L1392.09 169.3H1386.01L1386.01 163.82H1392.25ZM1412.58 163.82L1412.58 162.92H1405.38L1405.38 178H1412.58L1412.58 177.1H1406.34L1406.34 170.2H1412.42L1412.42 169.3H1406.34L1406.34 163.82H1412.58ZM1431.13 162.92H1430.17L1430.17 176.08L1417.51 162.72L1417.51 178H1418.47L1418.47 165.04L1431.13 178.5L1431.13 162.92ZM1445.52 162.92H1444.56L1444.56 178H1449.36L1449.36 177.1H1445.52L1445.52 162.92ZM1454.06 162.92H1453.1L1453.1 178H1454.06L1454.06 162.92ZM1467.08 170.74L1467.08 171.64H1472.48C1472.42 173.28 1471.94 174.54 1470.64 175.64C1469.4 176.64 1467.82 177.3 1466.2 177.3C1462.44 177.3 1459.36 174.18 1459.36 170.46C1459.36 166.84 1462.52 163.62 1466.2 163.62C1468.64 163.62 1470.68 164.86 1472.02 166.86L1472.8 166.24C1471.22 164.08 1469 162.72 1466.26 162.72C1461.94 162.72 1458.4 166.2 1458.4 170.52C1458.4 174.68 1461.96 178.2 1466.14 178.2C1468.26 178.2 1470.42 177.32 1471.86 175.76C1473.2 174.3 1473.48 172.64 1473.44 170.74H1467.08ZM1491.41 162.92H1490.45L1490.45 176.08L1477.79 162.72L1477.79 178H1478.75L1478.75 165.04L1491.41 178.5L1491.41 162.92ZM1503.84 163.82L1503.84 162.92H1496.64L1496.64 178H1503.84L1503.84 177.1H1497.6L1497.6 170.2H1503.68L1503.68 169.3H1497.6L1497.6 163.82H1503.84Z" fill="white"/>
</svg>
