<svg width="831" height="84" viewBox="0 0 831 84" fill="none" xmlns="http://www.w3.org/2000/svg">
<path d="M830 1H1V83H830V1Z" stroke="#D0C3B4"/>
<path d="M1 17H830" stroke="#D0C3B4"/>
<path d="M1 34H830" stroke="#D0C3B4"/>
<path d="M65.2267 83V17" stroke="#D0C3B4"/>
<path d="M113.991 83V50V17" stroke="#D0C3B4"/>
<path d="M602.828 83V17" stroke="#D0C3B4"/>
<path d="M699.168 83V17" stroke="#D0C3B4"/>
<path d="M24.8311 27H28.1152V26.376H25.9238L28.0889 22.7109H25.1973V23.3027H27.0166L24.8311 27ZM32.3984 24.8643C32.3984 25.0811 32.3574 25.2861 32.2783 25.4795C32.1992 25.6729 32.085 25.8457 31.9385 25.998C31.7861 26.1504 31.6162 26.2676 31.4287 26.3467C31.2412 26.4287 31.042 26.4668 30.834 26.4668C30.6201 26.4668 30.418 26.4287 30.2305 26.3467C30.04 26.2676 29.8701 26.1504 29.7236 25.998C29.5742 25.8457 29.46 25.6729 29.3838 25.4795C29.3047 25.2861 29.2666 25.0811 29.2666 24.8643C29.2666 24.6475 29.3047 24.4395 29.3838 24.2432C29.46 24.0498 29.5742 23.877 29.7236 23.7246C29.8701 23.5723 30.04 23.458 30.2305 23.376C30.4209 23.2969 30.6231 23.2559 30.834 23.2559C31.0449 23.2559 31.2442 23.2969 31.4346 23.3789C31.625 23.4609 31.792 23.5752 31.9385 23.7246C32.085 23.877 32.1992 24.0527 32.2783 24.2461C32.3574 24.4424 32.3984 24.6475 32.3984 24.8643ZM33.125 24.8643C33.125 24.5625 33.0664 24.2754 32.9522 24.0029C32.8379 23.7305 32.6709 23.4844 32.4541 23.2676C32.2344 23.0566 31.9854 22.8926 31.71 22.7812C31.4346 22.6699 31.1416 22.6143 30.834 22.6143C30.5234 22.6143 30.2275 22.6699 29.9522 22.7812C29.6738 22.8926 29.4248 23.0566 29.208 23.2676C28.9883 23.4844 28.8213 23.7275 28.71 23.9971C28.5957 24.2695 28.54 24.5596 28.54 24.8643C28.54 25.1748 28.5957 25.4619 28.71 25.7314C28.8213 26.001 28.9883 26.2441 29.208 26.4551C29.4219 26.666 29.668 26.8301 29.9492 26.9443C30.2305 27.0586 30.5234 27.1143 30.834 27.1143C31.1387 27.1143 31.4287 27.0586 31.707 26.9443C31.9824 26.833 32.2315 26.6689 32.4541 26.4551C32.6709 26.2441 32.8379 26.001 32.9522 25.7285C33.0664 25.459 33.125 25.1689 33.125 24.8643ZM33.9248 27H34.5664V24.0176C34.6279 24.1055 34.6924 24.1904 34.7627 24.2695C34.833 24.3516 34.9033 24.4277 34.9795 24.498L37.7598 27.167V22.7109H37.1152V25.6846C37.0303 25.5791 36.9512 25.4854 36.875 25.4004C36.7988 25.3184 36.7227 25.2393 36.6494 25.1631L33.9248 22.541V27ZM38.7471 27H41.1406V26.376H39.4443V24.9902H41.1406V24.3779H39.4443V23.3027H41.1406V22.7109H38.7471V27Z" fill="#D0C3B4"/>
<path d="M85.071 24.5391V23.3086H85.197C85.5485 23.3086 85.7888 23.3584 85.9177 23.4551C86.0466 23.5518 86.114 23.7188 86.114 23.9531C86.114 24.1729 86.0524 24.3252 85.9323 24.4102C85.8093 24.498 85.5661 24.5391 85.197 24.5391H85.071ZM85.027 25.0811H85.1061L86.5329 27H87.321L85.8444 25.0488C86.1667 25.0107 86.4128 24.8936 86.5798 24.7002C86.7438 24.5068 86.8288 24.2373 86.8288 23.8916C86.8288 23.6982 86.7907 23.5166 86.7204 23.3525C86.6472 23.1885 86.5446 23.0566 86.4128 22.9512C86.3015 22.8662 86.1667 22.8047 86.0085 22.7666C85.8503 22.7314 85.6306 22.7109 85.3464 22.7109H84.3737V27H85.027V25.0811ZM87.737 27H90.1306V26.376H88.4343V24.9902H90.1306V24.3779H88.4343V23.3027H90.1306V22.7109H87.737V27ZM92.2927 27.167L94.2058 22.7109H93.485L92.527 24.9961C92.4743 25.1191 92.4274 25.2363 92.3893 25.3506C92.3483 25.4678 92.3161 25.5791 92.2927 25.6846C92.2692 25.585 92.2399 25.4766 92.2048 25.3652C92.1667 25.2539 92.1198 25.1309 92.0641 24.9961L91.1032 22.7109H90.3796L92.2927 27.167Z" fill="#D0C3B4"/>
<path d="M644.857 26.3701V23.335H645.109H645.361C645.719 23.335 645.982 23.3584 646.152 23.3994C646.322 23.4434 646.466 23.5166 646.589 23.6162C646.75 23.7568 646.87 23.9297 646.952 24.1348C647.034 24.3398 647.075 24.5801 647.075 24.8525C647.075 25.1279 647.034 25.3682 646.952 25.5732C646.87 25.7783 646.75 25.9512 646.589 26.0889C646.469 26.1914 646.328 26.2646 646.167 26.3057C646.006 26.3496 645.765 26.3701 645.443 26.3701H644.857ZM644.16 27H645.1H645.288C645.792 27 646.164 26.9707 646.404 26.9092C646.644 26.8477 646.858 26.7451 647.046 26.5986C647.292 26.4082 647.479 26.165 647.608 25.8721C647.737 25.5791 647.802 25.2393 647.802 24.8584C647.802 24.4775 647.737 24.1406 647.608 23.8418C647.479 23.5459 647.292 23.3027 647.046 23.1123C646.858 22.9688 646.639 22.8662 646.389 22.8047C646.14 22.7432 645.71 22.7109 645.1 22.7109H644.16V27ZM649.507 25.3154L649.946 24.3369C649.973 24.2695 649.999 24.1963 650.025 24.1143C650.052 24.0322 650.078 23.9443 650.101 23.8506C650.128 23.9502 650.154 24.041 650.183 24.123C650.21 24.2051 650.236 24.2754 650.263 24.3369L650.702 25.3154H649.507ZM651.434 27H652.17L650.096 22.541L648.018 27H648.751L649.249 25.8955H650.948L651.434 27ZM653.96 23.3027H655.094V22.7109H652.123V23.3027H653.263V27H653.96V23.3027ZM655.627 27H658.02V26.376H656.324V24.9902H658.02V24.3779H656.324V23.3027H658.02V22.7109H655.627V27Z" fill="#D0C3B4"/>
<path d="M750.243 25.3154L750.683 24.3369C750.709 24.2695 750.735 24.1963 750.762 24.1143C750.788 24.0322 750.815 23.9443 750.838 23.8506C750.864 23.9502 750.891 24.041 750.92 24.123C750.946 24.2051 750.973 24.2754 750.999 24.3369L751.439 25.3154H750.243ZM752.171 27H752.906L750.832 22.541L748.755 27H749.487L749.985 25.8955H751.685L752.171 27ZM754.008 24.5039V23.3086H754.187C754.556 23.3086 754.808 23.3555 754.945 23.4492C755.083 23.543 755.153 23.7041 755.153 23.9326C755.153 24.1465 755.089 24.2959 754.96 24.3779C754.831 24.4629 754.573 24.5039 754.187 24.5039H754.008ZM753.964 25.0752H754.228H754.365C754.676 25.0752 754.907 25.0605 755.054 25.0254C755.2 24.9932 755.329 24.9375 755.441 24.8584C755.575 24.7617 755.681 24.627 755.757 24.4541C755.833 24.2842 755.871 24.0967 755.871 23.8916C755.871 23.6895 755.833 23.5049 755.757 23.335C755.681 23.165 755.575 23.0303 755.441 22.9307C755.329 22.8545 755.2 22.7988 755.054 22.7637C754.907 22.7285 754.676 22.7109 754.365 22.7109H753.311V27H753.964V25.0752ZM757.201 24.5039V23.3086H757.38C757.749 23.3086 758.001 23.3555 758.139 23.4492C758.276 23.543 758.347 23.7041 758.347 23.9326C758.347 24.1465 758.282 24.2959 758.153 24.3779C758.025 24.4629 757.767 24.5039 757.38 24.5039H757.201ZM757.157 25.0752H757.421H757.559C757.869 25.0752 758.101 25.0605 758.247 25.0254C758.394 24.9932 758.523 24.9375 758.634 24.8584C758.769 24.7617 758.874 24.627 758.95 24.4541C759.026 24.2842 759.065 24.0967 759.065 23.8916C759.065 23.6895 759.026 23.5049 758.95 23.335C758.874 23.165 758.769 23.0303 758.634 22.9307C758.523 22.8545 758.394 22.7988 758.247 22.7637C758.101 22.7285 757.869 22.7109 757.559 22.7109H756.504V27H757.157V25.0752ZM760.395 24.5391V23.3086H760.521C760.872 23.3086 761.112 23.3584 761.241 23.4551C761.37 23.5518 761.438 23.7188 761.438 23.9531C761.438 24.1729 761.376 24.3252 761.256 24.4102C761.133 24.498 760.89 24.5391 760.521 24.5391H760.395ZM760.351 25.0811H760.43L761.857 27H762.645L761.168 25.0488C761.49 25.0107 761.736 24.8936 761.903 24.7002C762.067 24.5068 762.152 24.2373 762.152 23.8916C762.152 23.6982 762.114 23.5166 762.044 23.3525C761.971 23.1885 761.868 23.0566 761.736 22.9512C761.625 22.8662 761.49 22.8047 761.332 22.7666C761.174 22.7314 760.954 22.7109 760.67 22.7109H759.697V27H760.351V25.0811ZM766.732 24.8643C766.732 25.0811 766.691 25.2861 766.611 25.4795C766.532 25.6729 766.418 25.8457 766.272 25.998C766.119 26.1504 765.949 26.2676 765.762 26.3467C765.574 26.4287 765.375 26.4668 765.167 26.4668C764.953 26.4668 764.751 26.4287 764.564 26.3467C764.373 26.2676 764.203 26.1504 764.057 25.998C763.907 25.8457 763.793 25.6729 763.717 25.4795C763.638 25.2861 763.6 25.0811 763.6 24.8643C763.6 24.6475 763.638 24.4395 763.717 24.2432C763.793 24.0498 763.907 23.877 764.057 23.7246C764.203 23.5723 764.373 23.458 764.564 23.376C764.754 23.2969 764.956 23.2559 765.167 23.2559C765.378 23.2559 765.577 23.2969 765.768 23.3789C765.958 23.4609 766.125 23.5752 766.272 23.7246C766.418 23.877 766.532 24.0527 766.611 24.2461C766.691 24.4424 766.732 24.6475 766.732 24.8643ZM767.458 24.8643C767.458 24.5625 767.4 24.2754 767.285 24.0029C767.171 23.7305 767.004 23.4844 766.787 23.2676C766.567 23.0566 766.318 22.8926 766.043 22.7812C765.768 22.6699 765.475 22.6143 765.167 22.6143C764.857 22.6143 764.561 22.6699 764.285 22.7812C764.007 22.8926 763.758 23.0566 763.541 23.2676C763.321 23.4844 763.154 23.7275 763.043 23.9971C762.929 24.2695 762.873 24.5596 762.873 24.8643C762.873 25.1748 762.929 25.4619 763.043 25.7314C763.154 26.001 763.321 26.2441 763.541 26.4551C763.755 26.666 764.001 26.8301 764.282 26.9443C764.564 27.0586 764.857 27.1143 765.167 27.1143C765.472 27.1143 765.762 27.0586 766.04 26.9443C766.316 26.833 766.565 26.6689 766.787 26.4551C767.004 26.2441 767.171 26.001 767.285 25.7285C767.4 25.459 767.458 25.1689 767.458 24.8643ZM768.24 22.7109V25.3799C768.24 25.9629 768.384 26.3965 768.677 26.6836C768.967 26.9707 769.406 27.1143 769.998 27.1143C770.587 27.1143 771.029 26.9707 771.322 26.6836C771.615 26.3965 771.762 25.96 771.762 25.3799V22.7109H771.065V25.3154C771.065 25.7021 770.974 25.9951 770.795 26.1885C770.616 26.3818 770.35 26.4785 769.998 26.4785C769.641 26.4785 769.374 26.3818 769.195 26.1885C769.017 25.9951 768.929 25.7021 768.929 25.3154V22.7109H768.24ZM774.085 27.167L775.998 22.7109H775.277L774.319 24.9961C774.267 25.1191 774.22 25.2363 774.182 25.3506C774.141 25.4678 774.108 25.5791 774.085 25.6846C774.062 25.585 774.032 25.4766 773.997 25.3652C773.959 25.2539 773.912 25.1309 773.857 24.9961L772.896 22.7109H772.172L774.085 27.167ZM776.432 27H778.825V26.376H777.129V24.9902H778.825V24.3779H777.129V23.3027H778.825V22.7109H776.432V27Z" fill="#D0C3B4"/>
<path d="M340.457 26.3701V23.335H340.709H340.96C341.318 23.335 341.582 23.3584 341.751 23.3994C341.921 23.4434 342.065 23.5166 342.188 23.6162C342.349 23.7568 342.469 23.9297 342.551 24.1348C342.633 24.3398 342.674 24.5801 342.674 24.8525C342.674 25.1279 342.633 25.3682 342.551 25.5732C342.469 25.7783 342.349 25.9512 342.188 26.0889C342.068 26.1914 341.927 26.2646 341.766 26.3057C341.605 26.3496 341.365 26.3701 341.042 26.3701H340.457ZM339.759 27H340.7H340.887C341.391 27 341.763 26.9707 342.003 26.9092C342.244 26.8477 342.458 26.7451 342.645 26.5986C342.891 26.4082 343.079 26.165 343.208 25.8721C343.336 25.5791 343.401 25.2393 343.401 24.8584C343.401 24.4775 343.336 24.1406 343.208 23.8418C343.079 23.5459 342.891 23.3027 342.645 23.1123C342.458 22.9688 342.238 22.8662 341.989 22.8047C341.74 22.7432 341.309 22.7109 340.7 22.7109H339.759V27ZM344.201 27H346.594V26.376H344.898V24.9902H346.594V24.3779H344.898V23.3027H346.594V22.7109H344.201V27ZM347.148 26.1416C347.218 26.4551 347.371 26.6953 347.605 26.8623C347.839 27.0322 348.138 27.1143 348.504 27.1143C348.938 27.1143 349.284 26.9971 349.542 26.7568C349.796 26.5166 349.925 26.1943 349.925 25.7871C349.925 25.5088 349.846 25.2773 349.688 25.0898C349.53 24.9023 349.237 24.7119 348.815 24.5156C348.792 24.5068 348.762 24.4922 348.727 24.4746C348.241 24.252 348.001 24.0117 348.001 23.7539C348.001 23.5898 348.053 23.4609 348.165 23.3613C348.276 23.2646 348.425 23.2148 348.613 23.2148C348.745 23.2148 348.862 23.2471 348.964 23.3086C349.067 23.373 349.161 23.4697 349.249 23.6045L349.793 23.3232C349.711 23.0947 349.562 22.9219 349.351 22.7988C349.137 22.6758 348.874 22.6143 348.557 22.6143C348.17 22.6143 347.86 22.7227 347.623 22.9395C347.385 23.1562 347.268 23.4404 347.268 23.7891C347.268 24.0586 347.344 24.2871 347.502 24.4746C347.661 24.6621 347.974 24.8701 348.449 25.0986C348.478 25.1133 348.525 25.1338 348.584 25.1631C349 25.3623 349.21 25.585 349.21 25.8369C349.21 26.0303 349.149 26.1855 349.026 26.2998C348.903 26.417 348.739 26.4727 348.534 26.4727C348.314 26.4727 348.135 26.4229 347.995 26.3232C347.854 26.2236 347.757 26.0771 347.705 25.8838L347.148 26.1416ZM354.129 23.7539L354.167 23.0508C353.951 22.9043 353.731 22.793 353.502 22.7197C353.274 22.6465 353.034 22.6084 352.782 22.6084C352.459 22.6084 352.164 22.6641 351.888 22.7725C351.613 22.8809 351.367 23.0391 351.156 23.25C350.942 23.4609 350.778 23.7041 350.667 23.9795C350.555 24.2549 350.5 24.5508 350.5 24.8643C350.5 25.1807 350.555 25.4766 350.667 25.7549C350.778 26.0332 350.939 26.2734 351.15 26.4785C351.361 26.6895 351.604 26.8477 351.882 26.9531C352.161 27.0615 352.465 27.1143 352.793 27.1143C353.051 27.1143 353.289 27.082 353.511 27.0146C353.731 26.9502 353.936 26.8477 354.124 26.7129V25.9248C353.913 26.1064 353.69 26.2441 353.461 26.332C353.233 26.4229 352.99 26.4668 352.738 26.4668C352.301 26.4668 351.941 26.3174 351.654 26.0156C351.367 25.7168 351.226 25.333 351.226 24.8701C351.226 24.3926 351.373 24.0029 351.666 23.7012C351.959 23.4023 352.342 23.25 352.811 23.25C353.051 23.25 353.283 23.2939 353.502 23.376C353.722 23.4609 353.93 23.5869 354.129 23.7539ZM355.691 24.5391V23.3086H355.817C356.168 23.3086 356.409 23.3584 356.538 23.4551C356.667 23.5518 356.734 23.7188 356.734 23.9531C356.734 24.1729 356.672 24.3252 356.552 24.4102C356.429 24.498 356.186 24.5391 355.817 24.5391H355.691ZM355.647 25.0811H355.726L357.153 27H357.941L356.464 25.0488C356.787 25.0107 357.033 24.8936 357.2 24.7002C357.364 24.5068 357.449 24.2373 357.449 23.8916C357.449 23.6982 357.411 23.5166 357.34 23.3525C357.267 23.1885 357.165 23.0566 357.033 22.9512C356.921 22.8662 356.787 22.8047 356.628 22.7666C356.47 22.7314 356.251 22.7109 355.966 22.7109H354.994V27H355.647V25.0811ZM358.369 27H359.066V22.7109H358.369V27ZM360.765 24.5039V23.3086H360.944C361.313 23.3086 361.565 23.3555 361.703 23.4492C361.84 23.543 361.911 23.7041 361.911 23.9326C361.911 24.1465 361.846 24.2959 361.717 24.3779C361.588 24.4629 361.331 24.5039 360.944 24.5039H360.765ZM360.721 25.0752H360.985H361.123C361.433 25.0752 361.665 25.0605 361.811 25.0254C361.958 24.9932 362.086 24.9375 362.198 24.8584C362.333 24.7617 362.438 24.627 362.514 24.4541C362.59 24.2842 362.628 24.0967 362.628 23.8916C362.628 23.6895 362.59 23.5049 362.514 23.335C362.438 23.165 362.333 23.0303 362.198 22.9307C362.086 22.8545 361.958 22.7988 361.811 22.7637C361.665 22.7285 361.433 22.7109 361.123 22.7109H360.068V27H360.721V25.0752ZM364.647 23.3027H365.781V22.7109H362.81V23.3027H363.95V27H364.647V23.3027ZM366.326 27H367.023V22.7109H366.326V27ZM371.696 24.8643C371.696 25.0811 371.655 25.2861 371.576 25.4795C371.497 25.6729 371.382 25.8457 371.236 25.998C371.084 26.1504 370.914 26.2676 370.726 26.3467C370.539 26.4287 370.339 26.4668 370.131 26.4668C369.917 26.4668 369.715 26.4287 369.528 26.3467C369.337 26.2676 369.167 26.1504 369.021 25.998C368.872 25.8457 368.757 25.6729 368.681 25.4795C368.602 25.2861 368.564 25.0811 368.564 24.8643C368.564 24.6475 368.602 24.4395 368.681 24.2432C368.757 24.0498 368.872 23.877 369.021 23.7246C369.167 23.5723 369.337 23.458 369.528 23.376C369.718 23.2969 369.92 23.2559 370.131 23.2559C370.342 23.2559 370.542 23.2969 370.732 23.3789C370.922 23.4609 371.089 23.5752 371.236 23.7246C371.382 23.877 371.497 24.0527 371.576 24.2461C371.655 24.4424 371.696 24.6475 371.696 24.8643ZM372.422 24.8643C372.422 24.5625 372.364 24.2754 372.25 24.0029C372.135 23.7305 371.968 23.4844 371.751 23.2676C371.532 23.0566 371.283 22.8926 371.007 22.7812C370.732 22.6699 370.439 22.6143 370.131 22.6143C369.821 22.6143 369.525 22.6699 369.25 22.7812C368.971 22.8926 368.722 23.0566 368.505 23.2676C368.286 23.4844 368.119 23.7275 368.007 23.9971C367.893 24.2695 367.837 24.5596 367.837 24.8643C367.837 25.1748 367.893 25.4619 368.007 25.7314C368.119 26.001 368.286 26.2441 368.505 26.4551C368.719 26.666 368.965 26.8301 369.247 26.9443C369.528 27.0586 369.821 27.1143 370.131 27.1143C370.436 27.1143 370.726 27.0586 371.004 26.9443C371.28 26.833 371.529 26.6689 371.751 26.4551C371.968 26.2441 372.135 26.001 372.25 25.7285C372.364 25.459 372.422 25.1689 372.422 24.8643ZM373.222 27H373.864V24.0176C373.925 24.1055 373.99 24.1904 374.06 24.2695C374.13 24.3516 374.201 24.4277 374.277 24.498L377.057 27.167V22.7109H376.413V25.6846C376.328 25.5791 376.249 25.4854 376.172 25.4004C376.096 25.3184 376.02 25.2393 375.947 25.1631L373.222 22.541V27Z" fill="#D0C3B4"/>
</svg>
