<svg width="1920" height="1080" viewBox="0 0 1920 1080" fill="none" xmlns="http://www.w3.org/2000/svg">
<path fill-rule="evenodd" clip-rule="evenodd" d="M1698.03 27.6926H1698.69V12.3804H1698.03V27.6926ZM1889.7 198.082V198.733H1904.85V198.082H1889.7ZM1889.7 368.145V368.797H1904.85V368.145H1889.7ZM1889.7 538.208V538.86H1904.85V538.208H1889.7ZM1889.7 708.272V708.923H1904.85V708.272H1889.7ZM1889.7 878.335V878.987H1904.85V878.335H1889.7ZM1698.69 1051.33H1698.03V1061.43H1698.69V1051.33ZM1513.28 1051.33H1512.62V1061.76H1513.28V1051.33ZM1327.86 1051.33H1327.2V1062.08H1327.86V1051.33ZM1142.45 1051.33H1141.79V1062.41H1142.45V1051.33ZM957.036 1051.33H956.377V1062.73H957.036V1051.33ZM771.623 1051.33H770.964V1063.06H771.623V1051.33ZM586.209 1051.33H585.551V1063.38H586.209V1051.33ZM400.796 1051.33H400.137V1063.71H400.796V1051.33ZM215.383 1051.33H214.724V1064.04H215.383V1051.33ZM29.6398 878.987V878.335H14.82V878.987H29.6398ZM29.6398 708.923V708.272H14.82V708.923H29.6398ZM29.6398 538.86V538.208H14.82V538.86H29.6398ZM29.6398 368.797V368.145H14.82V368.797H29.6398ZM29.6398 198.733V198.082H14.82V198.733H29.6398ZM1513.28 27.6926H1512.62V12.7062H1513.28V27.6926ZM1327.86 27.6926V13.032H1327.2V27.6926H1327.86ZM1142.45 27.6926V13.3577H1141.79V27.6926H1142.45ZM957.036 27.6926V13.6835H956.377V27.6926H957.036ZM771.623 27.6926V14.0093H770.964V27.6926H771.623ZM586.209 27.6926V14.3351H585.551V27.6926H586.209ZM400.796 27.6926V14.6609H400.137V27.6926H400.796ZM215.383 27.6926V14.9867H214.724V27.6926H215.383Z" fill="#D0C3B4"/>
<path opacity="0.1" d="M1918.68 2.93237H1.31738V1078.7H1918.68V2.93237Z" stroke="#D0C3B4"/>
<path opacity="0.8" d="M1.31738 28.0183H1919.34" stroke="#D0C3B4"/>
<path opacity="0.8" d="M3.29333 1051H1919.34" stroke="#D0C3B4"/>
<path opacity="0.8" d="M29.6398 -0.000244141V1078.05" stroke="#D0C3B4"/>
<path opacity="0.8" d="M1889.7 2.28076V1078.05" stroke="#D0C3B4"/>
<path d="M122.26 9.74414V19.2218H121.1V10.9474H121.044L118.705 12.4838V11.3176L121.1 9.74414H122.26Z" fill="#D0C3B4"/>
<path d="M122.26 1057.49V1066.97H121.1V1058.69H121.044L118.705 1060.23V1059.07L121.1 1057.49H122.26Z" fill="#D0C3B4"/>
<path d="M303.976 19.2216V18.3887L307.139 14.9641C307.51 14.5631 307.815 14.2144 308.056 13.9183C308.295 13.619 308.473 13.3382 308.589 13.076C308.707 12.8107 308.766 12.533 308.766 12.2431C308.766 11.9098 308.685 11.6214 308.523 11.3776C308.364 11.1339 308.146 10.9458 307.869 10.8131C307.591 10.6804 307.279 10.6141 306.933 10.6141C306.565 10.6141 306.244 10.6897 305.969 10.8408C305.698 10.989 305.487 11.1972 305.337 11.4656C305.191 11.734 305.118 12.0487 305.118 12.4097H304.013C304.013 11.8543 304.143 11.3669 304.402 10.9473C304.661 10.5277 305.013 10.2007 305.459 9.96623C305.908 9.73172 306.412 9.6145 306.97 9.6145C307.531 9.6145 308.029 9.73172 308.463 9.96623C308.896 10.2007 309.236 10.5169 309.482 10.9149C309.729 11.3129 309.852 11.7556 309.852 12.2431C309.852 12.5917 309.788 12.9326 309.66 13.2658C309.536 13.5959 309.317 13.9645 309.005 14.3718C308.696 14.776 308.268 15.2696 307.719 15.8526L305.566 18.1295V18.2035H310.02V19.2216H303.976Z" fill="#D0C3B4"/>
<path d="M303.976 1066.97V1066.14L307.139 1062.71C307.51 1062.31 307.815 1061.96 308.056 1061.67C308.295 1061.37 308.473 1061.09 308.589 1060.82C308.707 1060.56 308.766 1060.28 308.766 1059.99C308.766 1059.66 308.685 1059.37 308.523 1059.12C308.364 1058.88 308.146 1058.69 307.869 1058.56C307.591 1058.43 307.279 1058.36 306.933 1058.36C306.565 1058.36 306.244 1058.44 305.969 1058.59C305.698 1058.74 305.487 1058.94 305.337 1059.22C305.191 1059.48 305.118 1059.8 305.118 1060.16H304.013C304.013 1059.6 304.143 1059.12 304.402 1058.69C304.661 1058.28 305.013 1057.95 305.459 1057.72C305.908 1057.48 306.412 1057.36 306.97 1057.36C307.531 1057.36 308.029 1057.48 308.463 1057.72C308.896 1057.95 309.236 1058.26 309.482 1058.66C309.729 1059.06 309.852 1059.5 309.852 1059.99C309.852 1060.34 309.788 1060.68 309.66 1061.01C309.536 1061.35 309.317 1061.71 309.005 1062.12C308.696 1062.53 308.268 1063.01 307.719 1063.6L305.566 1065.87V1065.95H310.02V1066.97H303.976Z" fill="#D0C3B4"/>
<path d="M492.297 19.3512C491.68 19.3512 491.129 19.2463 490.646 19.0365C490.166 18.8267 489.784 18.5352 489.5 18.1619C489.219 17.7855 489.066 17.3489 489.041 16.8522H490.22C490.245 17.1577 490.351 17.4215 490.538 17.6436C490.726 17.8626 490.971 18.0323 491.273 18.1527C491.575 18.2729 491.91 18.3331 492.279 18.3331C492.69 18.3331 493.055 18.2622 493.373 18.1203C493.691 17.9784 493.941 17.7809 494.122 17.5279C494.303 17.2749 494.393 16.9818 494.393 16.6486C494.393 16.3 494.306 15.9931 494.131 15.7277C493.956 15.4593 493.701 15.2495 493.364 15.0984C493.027 14.9472 492.615 14.8716 492.129 14.8716H491.362V13.8535H492.129C492.509 13.8535 492.843 13.7856 493.13 13.6499C493.42 13.5141 493.646 13.3229 493.808 13.076C493.973 12.8292 494.056 12.5392 494.056 12.206C494.056 11.8851 493.985 11.6059 493.841 11.3684C493.697 11.1309 493.495 10.9458 493.233 10.8131C492.974 10.6804 492.669 10.6141 492.316 10.6141C491.986 10.6141 491.673 10.6742 491.38 10.7946C491.09 10.9118 490.853 11.083 490.67 11.3082C490.486 11.5304 490.386 11.7988 490.37 12.1135H489.247C489.266 11.6168 489.417 11.1818 489.701 10.8085C489.985 10.432 490.356 10.139 490.814 9.92915C491.276 9.71941 491.783 9.6145 492.335 9.6145C492.927 9.6145 493.436 9.73329 493.86 9.97085C494.284 10.2053 494.61 10.5154 494.838 10.901C495.065 11.2867 495.179 11.7032 495.179 12.1505C495.179 12.6842 495.037 13.1392 494.753 13.5157C494.473 13.892 494.091 14.1527 493.607 14.2978V14.3718C494.212 14.4705 494.685 14.7251 495.025 15.1354C495.364 15.5426 495.534 16.047 495.534 16.6486C495.534 17.1639 495.393 17.6266 495.109 18.0369C494.828 18.4442 494.444 18.765 493.958 18.9995C493.471 19.234 492.918 19.3512 492.297 19.3512Z" fill="#D0C3B4"/>
<path d="M492.297 1067.1C491.68 1067.1 491.129 1067 490.646 1066.79C490.166 1066.57 489.784 1066.28 489.5 1065.91C489.219 1065.54 489.066 1065.1 489.041 1064.6H490.22C490.245 1064.9 490.351 1065.17 490.538 1065.39C490.726 1065.61 490.971 1065.78 491.273 1065.9C491.575 1066.02 491.91 1066.08 492.279 1066.08C492.69 1066.08 493.055 1066.01 493.373 1065.87C493.691 1065.72 493.941 1065.53 494.122 1065.27C494.303 1065.02 494.393 1064.73 494.393 1064.4C494.393 1064.05 494.306 1063.74 494.131 1063.48C493.956 1063.21 493.701 1062.99 493.364 1062.84C493.027 1062.69 492.615 1062.62 492.129 1062.62H491.362V1061.6H492.129C492.509 1061.6 492.843 1061.53 493.13 1061.4C493.42 1061.26 493.646 1061.07 493.808 1060.82C493.973 1060.58 494.056 1060.28 494.056 1059.95C494.056 1059.63 493.985 1059.35 493.841 1059.12C493.697 1058.88 493.495 1058.69 493.233 1058.56C492.974 1058.43 492.669 1058.36 492.316 1058.36C491.986 1058.36 491.673 1058.42 491.38 1058.54C491.09 1058.66 490.853 1058.83 490.67 1059.06C490.486 1059.28 490.386 1059.55 490.37 1059.86H489.247C489.266 1059.37 489.417 1058.93 489.701 1058.56C489.985 1058.18 490.356 1057.89 490.814 1057.68C491.276 1057.47 491.783 1057.36 492.335 1057.36C492.927 1057.36 493.436 1057.48 493.86 1057.72C494.284 1057.95 494.61 1058.26 494.838 1058.65C495.065 1059.03 495.179 1059.45 495.179 1059.9C495.179 1060.43 495.037 1060.89 494.753 1061.26C494.473 1061.64 494.091 1061.9 493.607 1062.04V1062.12C494.212 1062.22 494.685 1062.47 495.025 1062.88C495.364 1063.29 495.534 1063.8 495.534 1064.4C495.534 1064.91 495.393 1065.37 495.109 1065.78C494.828 1066.19 494.444 1066.51 493.958 1066.75C493.471 1066.98 492.918 1067.1 492.297 1067.1Z" fill="#D0C3B4"/>
<path d="M673.917 17.2781V16.3341L678.132 9.74414H678.824V11.2066H678.356L675.175 16.186V16.26H680.846V17.2781H673.917ZM678.428 19.2218V16.9912V16.5516V9.74414H679.535V19.2218H678.428Z" fill="#D0C3B4"/>
<path d="M673.917 1065.03V1064.08L678.132 1057.49H678.824V1058.95H678.356L675.175 1063.93V1064H680.846V1065.03H673.917ZM678.428 1066.97V1064.74V1064.3V1057.49H679.535V1066.97H678.428Z" fill="#D0C3B4"/>
<path d="M862.222 19.3514C861.675 19.3514 861.181 19.2433 860.74 19.0274C860.298 18.8115 859.949 18.5152 859.679 18.1389C859.416 17.7625 859.271 17.3337 859.244 16.8523H860.371C860.41 17.2812 860.608 17.636 860.957 17.9168C861.313 18.1944 861.734 18.3333 862.222 18.3333C862.617 18.3333 862.966 18.2422 863.269 18.0602C863.578 17.8782 863.822 17.6283 863.993 17.3105C864.171 16.9896 864.263 16.6271 864.263 16.223C864.263 15.8096 864.171 15.4409 863.987 15.117C863.802 14.7899 863.559 14.5323 863.236 14.3441C862.92 14.1559 862.557 14.0603 862.149 14.0572C861.853 14.0541 861.556 14.0989 861.247 14.1914C860.937 14.2809 860.68 14.3966 860.483 14.5385L859.396 14.4089L859.976 9.74414H864.955V10.7622H860.95L860.614 13.5574H860.667C860.865 13.4032 861.115 13.2751 861.411 13.1733C861.708 13.0715 862.011 13.0206 862.334 13.0206C862.92 13.0206 863.44 13.1594 863.901 13.4371C864.362 13.7117 864.724 14.0881 864.988 14.5663C865.251 15.0444 865.383 15.5905 865.383 16.2045C865.383 16.8091 865.245 17.349 864.975 17.8242C864.705 18.2962 864.329 18.6695 863.848 18.9441C863.374 19.2156 862.828 19.3514 862.222 19.3514Z" fill="#D0C3B4"/>
<path d="M862.222 1067.1C861.675 1067.1 861.181 1066.99 860.74 1066.77C860.298 1066.56 859.949 1066.27 859.679 1065.89C859.416 1065.51 859.271 1065.08 859.244 1064.6H860.371C860.41 1065.03 860.608 1065.39 860.957 1065.67C861.313 1065.94 861.734 1066.08 862.222 1066.08C862.617 1066.08 862.966 1065.99 863.269 1065.81C863.578 1065.63 863.822 1065.37 863.993 1065.06C864.171 1064.73 864.263 1064.38 864.263 1063.97C864.263 1063.55 864.171 1063.19 863.987 1062.86C863.802 1062.54 863.559 1062.28 863.236 1062.09C862.92 1061.91 862.557 1061.81 862.149 1061.8C861.853 1061.8 861.556 1061.85 861.247 1061.94C860.937 1062.03 860.68 1062.14 860.483 1062.28L859.396 1062.15L859.976 1057.49H864.955V1058.51H860.95L860.614 1061.31H860.667C860.865 1061.15 861.115 1061.02 861.411 1060.92C861.708 1060.82 862.011 1060.77 862.334 1060.77C862.92 1060.77 863.44 1060.91 863.901 1061.18C864.362 1061.46 864.724 1061.83 864.988 1062.32C865.251 1062.79 865.383 1063.34 865.383 1063.95C865.383 1064.56 865.245 1065.1 864.975 1065.57C864.705 1066.04 864.329 1066.41 863.848 1066.69C863.374 1066.96 862.828 1067.1 862.222 1067.1Z" fill="#D0C3B4"/>
<path d="M1047.5 19.3512C1047.1 19.3451 1046.71 19.271 1046.32 19.1291C1045.92 18.9872 1045.56 18.7481 1045.24 18.4118C1044.91 18.0724 1044.65 17.6143 1044.46 17.0373C1044.26 16.4574 1044.16 15.7293 1044.16 14.8531C1044.16 14.0139 1044.24 13.2704 1044.4 12.6225C1044.56 11.9715 1044.79 11.424 1045.09 10.9797C1045.4 10.5323 1045.76 10.193 1046.19 9.9616C1046.62 9.73016 1047.1 9.6145 1047.64 9.6145C1048.18 9.6145 1048.66 9.72091 1049.08 9.93378C1049.5 10.1436 1049.84 10.4367 1050.1 10.8131C1050.37 11.1894 1050.54 11.6229 1050.62 12.1135H1049.48C1049.37 11.6877 1049.16 11.3345 1048.86 11.0537C1048.56 10.773 1048.15 10.6326 1047.64 10.6326C1046.9 10.6326 1046.32 10.9519 1045.89 11.5906C1045.47 12.2292 1045.25 13.1254 1045.25 14.2793H1045.32C1045.49 14.017 1045.71 13.7933 1045.94 13.6082C1046.19 13.42 1046.46 13.275 1046.75 13.1732C1047.04 13.0714 1047.35 13.0205 1047.68 13.0205C1048.23 13.0205 1048.73 13.1563 1049.19 13.4278C1049.64 13.6962 1050.01 14.0679 1050.28 14.543C1050.55 15.015 1050.69 15.5565 1050.69 16.1673C1050.69 16.7535 1050.56 17.2904 1050.3 17.7778C1050.03 18.2622 1049.66 18.6478 1049.18 18.9348C1048.7 19.2186 1048.14 19.3574 1047.5 19.3512ZM1047.5 18.3331C1047.89 18.3331 1048.24 18.2359 1048.55 18.0416C1048.87 17.8472 1049.11 17.5865 1049.29 17.2595C1049.48 16.9324 1049.57 16.5684 1049.57 16.1673C1049.57 15.7756 1049.48 15.4192 1049.3 15.0984C1049.13 14.7744 1048.89 14.5168 1048.58 14.3255C1048.27 14.1342 1047.92 14.0386 1047.53 14.0386C1047.23 14.0386 1046.96 14.0972 1046.7 14.2144C1046.45 14.3286 1046.23 14.4859 1046.03 14.6865C1045.84 14.887 1045.69 15.1169 1045.58 15.376C1045.47 15.6321 1045.42 15.902 1045.42 16.1859C1045.42 16.5623 1045.51 16.9139 1045.69 17.241C1045.86 17.568 1046.11 17.8318 1046.42 18.0323C1046.74 18.2329 1047.09 18.3331 1047.5 18.3331Z" fill="#D0C3B4"/>
<path d="M1047.5 1067.1C1047.1 1067.09 1046.71 1067.02 1046.32 1066.88C1045.92 1066.73 1045.56 1066.49 1045.24 1066.16C1044.91 1065.82 1044.65 1065.36 1044.46 1064.79C1044.26 1064.21 1044.16 1063.48 1044.16 1062.6C1044.16 1061.76 1044.24 1061.02 1044.4 1060.37C1044.56 1059.72 1044.79 1059.17 1045.09 1058.73C1045.4 1058.28 1045.76 1057.94 1046.19 1057.71C1046.62 1057.48 1047.1 1057.36 1047.64 1057.36C1048.18 1057.36 1048.66 1057.47 1049.08 1057.68C1049.5 1057.89 1049.84 1058.19 1050.1 1058.56C1050.37 1058.94 1050.54 1059.37 1050.62 1059.86H1049.48C1049.37 1059.44 1049.16 1059.08 1048.86 1058.8C1048.56 1058.52 1048.15 1058.38 1047.64 1058.38C1046.9 1058.38 1046.32 1058.7 1045.89 1059.34C1045.47 1059.98 1045.25 1060.87 1045.25 1062.02H1045.32C1045.49 1061.76 1045.71 1061.54 1045.94 1061.35C1046.19 1061.17 1046.46 1061.02 1046.75 1060.92C1047.04 1060.82 1047.35 1060.77 1047.68 1060.77C1048.23 1060.77 1048.73 1060.9 1049.19 1061.18C1049.64 1061.44 1050.01 1061.82 1050.28 1062.29C1050.55 1062.76 1050.69 1063.31 1050.69 1063.91C1050.69 1064.5 1050.56 1065.04 1050.3 1065.52C1050.03 1066.01 1049.66 1066.4 1049.18 1066.68C1048.7 1066.97 1048.14 1067.11 1047.5 1067.1ZM1047.5 1066.08C1047.89 1066.08 1048.24 1065.99 1048.55 1065.79C1048.87 1065.59 1049.11 1065.33 1049.29 1065.01C1049.48 1064.68 1049.57 1064.32 1049.57 1063.91C1049.57 1063.52 1049.48 1063.16 1049.3 1062.84C1049.13 1062.52 1048.89 1062.26 1048.58 1062.08C1048.27 1061.88 1047.92 1061.79 1047.53 1061.79C1047.23 1061.79 1046.96 1061.85 1046.7 1061.96C1046.45 1062.08 1046.23 1062.23 1046.03 1062.43C1045.84 1062.64 1045.69 1062.86 1045.58 1063.12C1045.47 1063.38 1045.42 1063.65 1045.42 1063.93C1045.42 1064.31 1045.51 1064.66 1045.69 1064.99C1045.86 1065.31 1046.11 1065.58 1046.42 1065.78C1046.74 1065.98 1047.09 1066.08 1047.5 1066.08Z" fill="#D0C3B4"/>
<path d="M1229.7 19.2218L1233.98 10.8363V10.7622H1229.04V9.74414H1235.18V10.8178L1230.91 19.2218H1229.7Z" fill="#D0C3B4"/>
<path d="M1229.7 1066.97L1233.98 1058.58V1058.51H1229.04V1057.49H1235.18V1058.56L1230.91 1066.97H1229.7Z" fill="#D0C3B4"/>
<path d="M1417.55 19.3512C1416.91 19.3512 1416.34 19.2386 1415.85 19.0134C1415.36 18.7851 1414.98 18.4719 1414.7 18.0739C1414.42 17.6729 1414.29 17.2163 1414.29 16.7042C1414.29 16.3031 1414.37 15.9329 1414.53 15.5935C1414.69 15.251 1414.92 14.9657 1415.19 14.7374C1415.48 14.506 1415.79 14.3595 1416.14 14.2978V14.2422C1415.69 14.125 1415.32 13.8705 1415.05 13.4787C1414.78 13.0837 1414.65 12.6349 1414.65 12.132C1414.65 11.6507 1414.77 11.2203 1415.02 10.8408C1415.27 10.4614 1415.61 10.1621 1416.04 9.94303C1416.49 9.72403 1416.99 9.6145 1417.55 9.6145C1418.11 9.6145 1418.6 9.72403 1419.03 9.94303C1419.48 10.1621 1419.82 10.4614 1420.07 10.8408C1420.32 11.2203 1420.44 11.6507 1420.45 12.132C1420.44 12.6349 1420.31 13.0837 1420.04 13.4787C1419.76 13.8705 1419.4 14.125 1418.96 14.2422V14.2978C1419.3 14.3595 1419.61 14.506 1419.89 14.7374C1420.17 14.9657 1420.38 15.251 1420.55 15.5935C1420.72 15.9329 1420.8 16.3031 1420.81 16.7042C1420.8 17.2163 1420.66 17.6729 1420.38 18.0739C1420.11 18.4719 1419.73 18.7851 1419.24 19.0134C1418.75 19.2386 1418.19 19.3512 1417.55 19.3512ZM1417.55 18.3331C1417.98 18.3331 1418.36 18.2637 1418.67 18.1249C1418.99 17.986 1419.23 17.7901 1419.4 17.5372C1419.57 17.2842 1419.66 16.988 1419.67 16.6486C1419.66 16.2908 1419.57 15.9745 1419.38 15.7C1419.2 15.4254 1418.95 15.2094 1418.63 15.0521C1418.32 14.8947 1417.95 14.816 1417.55 14.816C1417.14 14.816 1416.78 14.8947 1416.45 15.0521C1416.14 15.2094 1415.89 15.4254 1415.7 15.7C1415.52 15.9745 1415.43 16.2908 1415.43 16.6486C1415.43 16.988 1415.52 17.2842 1415.68 17.5372C1415.85 17.7901 1416.1 17.986 1416.42 18.1249C1416.74 18.2637 1417.11 18.3331 1417.55 18.3331ZM1417.55 13.835C1417.9 13.835 1418.2 13.7671 1418.46 13.6314C1418.73 13.4956 1418.94 13.3059 1419.09 13.0622C1419.25 12.8184 1419.32 12.533 1419.32 12.206C1419.32 11.8851 1419.25 11.6059 1419.1 11.3684C1418.95 11.1277 1418.74 10.9426 1418.47 10.8131C1418.21 10.6804 1417.9 10.6141 1417.55 10.6141C1417.19 10.6141 1416.87 10.6804 1416.61 10.8131C1416.34 10.9426 1416.14 11.1277 1415.99 11.3684C1415.84 11.6059 1415.77 11.8851 1415.77 12.206C1415.77 12.533 1415.84 12.8184 1415.99 13.0622C1416.14 13.3059 1416.35 13.4956 1416.62 13.6314C1416.89 13.7671 1417.2 13.835 1417.55 13.835Z" fill="#D0C3B4"/>
<path d="M1417.55 1067.1C1416.91 1067.1 1416.34 1066.99 1415.85 1066.76C1415.36 1066.53 1414.98 1066.22 1414.7 1065.82C1414.42 1065.42 1414.29 1064.96 1414.29 1064.45C1414.29 1064.05 1414.37 1063.68 1414.53 1063.34C1414.69 1063 1414.92 1062.71 1415.19 1062.49C1415.48 1062.25 1415.79 1062.11 1416.14 1062.04V1061.99C1415.69 1061.87 1415.32 1061.62 1415.05 1061.23C1414.78 1060.83 1414.65 1060.38 1414.65 1059.88C1414.65 1059.4 1414.77 1058.97 1415.02 1058.59C1415.27 1058.21 1415.61 1057.91 1416.04 1057.69C1416.49 1057.47 1416.99 1057.36 1417.55 1057.36C1418.11 1057.36 1418.6 1057.47 1419.03 1057.69C1419.48 1057.91 1419.82 1058.21 1420.07 1058.59C1420.32 1058.97 1420.44 1059.4 1420.45 1059.88C1420.44 1060.38 1420.31 1060.83 1420.04 1061.23C1419.76 1061.62 1419.4 1061.87 1418.96 1061.99V1062.04C1419.3 1062.11 1419.61 1062.25 1419.89 1062.49C1420.17 1062.71 1420.38 1063 1420.55 1063.34C1420.72 1063.68 1420.8 1064.05 1420.81 1064.45C1420.8 1064.96 1420.66 1065.42 1420.38 1065.82C1420.11 1066.22 1419.73 1066.53 1419.24 1066.76C1418.75 1066.99 1418.19 1067.1 1417.55 1067.1ZM1417.55 1066.08C1417.98 1066.08 1418.36 1066.01 1418.67 1065.87C1418.99 1065.73 1419.23 1065.54 1419.4 1065.28C1419.57 1065.03 1419.66 1064.73 1419.67 1064.4C1419.66 1064.04 1419.57 1063.72 1419.38 1063.45C1419.2 1063.17 1418.95 1062.96 1418.63 1062.8C1418.32 1062.64 1417.95 1062.56 1417.55 1062.56C1417.14 1062.56 1416.78 1062.64 1416.45 1062.8C1416.14 1062.96 1415.89 1063.17 1415.7 1063.45C1415.52 1063.72 1415.43 1064.04 1415.43 1064.4C1415.43 1064.73 1415.52 1065.03 1415.68 1065.28C1415.85 1065.54 1416.1 1065.73 1416.42 1065.87C1416.74 1066.01 1417.11 1066.08 1417.55 1066.08ZM1417.55 1061.58C1417.9 1061.58 1418.2 1061.52 1418.46 1061.38C1418.73 1061.24 1418.94 1061.05 1419.09 1060.81C1419.25 1060.56 1419.32 1060.28 1419.32 1059.95C1419.32 1059.63 1419.25 1059.35 1419.1 1059.12C1418.95 1058.88 1418.74 1058.69 1418.47 1058.56C1418.21 1058.43 1417.9 1058.36 1417.55 1058.36C1417.19 1058.36 1416.87 1058.43 1416.61 1058.56C1416.34 1058.69 1416.14 1058.88 1415.99 1059.12C1415.84 1059.35 1415.77 1059.63 1415.77 1059.95C1415.77 1060.28 1415.84 1060.56 1415.99 1060.81C1416.14 1061.05 1416.35 1061.24 1416.62 1061.38C1416.89 1061.52 1417.2 1061.58 1417.55 1061.58Z" fill="#D0C3B4"/>
<path d="M1602.62 9.61469C1603.01 9.61775 1603.4 9.69184 1603.8 9.83682C1604.18 9.98179 1604.55 10.2224 1604.87 10.5587C1605.19 10.8919 1605.46 11.347 1605.65 11.9239C1605.84 12.5008 1605.94 13.2243 1605.94 14.0943C1605.94 14.9366 1605.86 15.6847 1605.7 16.3388C1605.54 16.9897 1605.31 17.5389 1605.01 17.9862C1604.71 18.4336 1604.34 18.773 1603.91 19.0043C1603.49 19.2357 1603.01 19.3514 1602.47 19.3514C1601.93 19.3514 1601.45 19.2465 1601.03 19.0367C1600.61 18.8238 1600.27 18.5292 1600 18.1528C1599.73 17.7734 1599.57 17.3337 1599.49 16.8339H1600.63C1600.73 17.2689 1600.94 17.6284 1601.25 17.9122C1601.55 18.1929 1601.96 18.3333 1602.47 18.3333C1603.2 18.3333 1603.79 18.014 1604.22 17.3754C1604.65 16.7368 1604.86 15.8343 1604.86 14.6682H1604.78C1604.61 14.9273 1604.4 15.151 1604.16 15.3392C1603.92 15.5274 1603.66 15.6724 1603.36 15.7742C1603.07 15.876 1602.76 15.9269 1602.43 15.9269C1601.88 15.9269 1601.37 15.7927 1600.92 15.5243C1600.46 15.2528 1600.09 14.8811 1599.82 14.409C1599.55 13.9339 1599.42 13.3909 1599.42 12.78C1599.42 12.2 1599.55 11.6694 1599.81 11.1881C1600.07 10.7037 1600.44 10.3181 1600.92 10.0312C1601.4 9.74423 1601.96 9.60544 1602.62 9.61469ZM1602.62 10.6328C1602.22 10.6328 1601.87 10.7299 1601.55 10.9243C1601.24 11.1156 1600.99 11.3747 1600.81 11.7018C1600.63 12.0257 1600.54 12.3852 1600.54 12.78C1600.54 13.1749 1600.63 13.5344 1600.8 13.8583C1600.98 14.1792 1601.22 14.4352 1601.52 14.6265C1601.83 14.8147 1602.18 14.9088 1602.58 14.9088C1602.87 14.9088 1603.15 14.8517 1603.41 14.7376C1603.66 14.6204 1603.88 14.4614 1604.07 14.2609C1604.27 14.0573 1604.42 13.8274 1604.53 13.5714C1604.64 13.3122 1604.69 13.0423 1604.69 12.7615C1604.69 12.3913 1604.6 12.0443 1604.42 11.7203C1604.24 11.3964 1603.99 11.1341 1603.68 10.9336C1603.37 10.7331 1603.01 10.6328 1602.62 10.6328Z" fill="#D0C3B4"/>
<path d="M1602.62 1057.37C1603.01 1057.37 1603.4 1057.44 1603.8 1057.59C1604.18 1057.73 1604.55 1057.97 1604.87 1058.3C1605.19 1058.64 1605.46 1059.09 1605.65 1059.67C1605.84 1060.25 1605.94 1060.97 1605.94 1061.84C1605.94 1062.68 1605.86 1063.43 1605.7 1064.09C1605.54 1064.73 1605.31 1065.29 1605.01 1065.73C1604.71 1066.18 1604.34 1066.52 1603.91 1066.75C1603.49 1066.98 1603.01 1067.1 1602.47 1067.1C1601.93 1067.1 1601.45 1067 1601.03 1066.79C1600.61 1066.57 1600.27 1066.28 1600 1065.9C1599.73 1065.52 1599.57 1065.08 1599.49 1064.58H1600.63C1600.73 1065.01 1600.94 1065.37 1601.25 1065.66C1601.55 1065.94 1601.96 1066.08 1602.47 1066.08C1603.2 1066.08 1603.79 1065.76 1604.22 1065.13C1604.65 1064.49 1604.86 1063.58 1604.86 1062.41H1604.78C1604.61 1062.68 1604.4 1062.9 1604.16 1063.09C1603.92 1063.27 1603.66 1063.42 1603.36 1063.52C1603.07 1063.63 1602.76 1063.67 1602.43 1063.67C1601.88 1063.67 1601.37 1063.54 1600.92 1063.27C1600.46 1063 1600.09 1062.63 1599.82 1062.15C1599.55 1061.68 1599.42 1061.14 1599.42 1060.53C1599.42 1059.95 1599.55 1059.42 1599.81 1058.94C1600.07 1058.45 1600.44 1058.07 1600.92 1057.78C1601.4 1057.49 1601.96 1057.35 1602.62 1057.37ZM1602.62 1058.38C1602.22 1058.38 1601.87 1058.48 1601.55 1058.67C1601.24 1058.86 1600.99 1059.12 1600.81 1059.45C1600.63 1059.78 1600.54 1060.13 1600.54 1060.53C1600.54 1060.92 1600.63 1061.28 1600.8 1061.61C1600.98 1061.93 1601.22 1062.18 1601.52 1062.38C1601.83 1062.56 1602.18 1062.66 1602.58 1062.66C1602.87 1062.66 1603.15 1062.6 1603.41 1062.49C1603.66 1062.37 1603.88 1062.21 1604.07 1062.01C1604.27 1061.8 1604.42 1061.57 1604.53 1061.32C1604.64 1061.06 1604.69 1060.79 1604.69 1060.51C1604.69 1060.14 1604.6 1059.79 1604.42 1059.47C1604.24 1059.14 1603.99 1058.88 1603.68 1058.68C1603.37 1058.48 1603.01 1058.38 1602.62 1058.38Z" fill="#D0C3B4"/>
<path d="M1788.02 9.74404V19.2216H1786.86V10.9473H1786.8L1784.46 12.4837V11.3175L1786.86 9.74404H1788.02ZM1793.9 19.3512C1793.19 19.3512 1792.59 19.1615 1792.09 18.782C1791.6 18.3995 1791.22 17.8457 1790.96 17.1207C1790.7 16.3925 1790.57 15.5133 1790.57 14.4829C1790.57 13.4586 1790.7 12.584 1790.96 11.8589C1791.22 11.1309 1791.61 10.5755 1792.1 10.193C1792.6 9.80731 1793.2 9.6145 1793.9 9.6145C1794.6 9.6145 1795.19 9.80731 1795.69 10.193C1796.18 10.5755 1796.57 11.1309 1796.83 11.8589C1797.09 12.584 1797.23 13.4586 1797.23 14.4829C1797.23 15.5133 1797.09 16.3925 1796.84 17.1207C1796.57 17.8457 1796.19 18.3995 1795.7 18.782C1795.2 19.1615 1794.6 19.3512 1793.9 19.3512ZM1793.9 18.3331C1794.6 18.3331 1795.14 17.9999 1795.53 17.3336C1795.91 16.6671 1796.11 15.7169 1796.11 14.4829C1796.11 13.6622 1796.01 12.9634 1795.84 12.3865C1795.66 11.8096 1795.41 11.3699 1795.08 11.0676C1794.76 10.7653 1794.36 10.6141 1793.9 10.6141C1793.21 10.6141 1792.66 10.9519 1792.27 11.6276C1791.88 12.3001 1791.69 13.2519 1791.69 14.4829C1791.69 15.3035 1791.78 16.0007 1791.95 16.5746C1792.13 17.1484 1792.38 17.585 1792.71 17.8842C1793.04 18.1835 1793.43 18.3331 1793.9 18.3331Z" fill="#D0C3B4"/>
<path d="M1788.02 1057.49V1066.97H1786.86V1058.69H1786.8L1784.46 1060.23V1059.07L1786.86 1057.49H1788.02ZM1793.9 1067.1C1793.19 1067.1 1792.59 1066.91 1792.09 1066.53C1791.6 1066.15 1791.22 1065.59 1790.96 1064.87C1790.7 1064.14 1790.57 1063.26 1790.57 1062.23C1790.57 1061.21 1790.7 1060.33 1790.96 1059.61C1791.22 1058.88 1791.61 1058.32 1792.1 1057.94C1792.6 1057.55 1793.2 1057.36 1793.9 1057.36C1794.6 1057.36 1795.19 1057.55 1795.69 1057.94C1796.18 1058.32 1796.57 1058.88 1796.83 1059.61C1797.09 1060.33 1797.23 1061.21 1797.23 1062.23C1797.23 1063.26 1797.09 1064.14 1796.84 1064.87C1796.57 1065.59 1796.19 1066.15 1795.7 1066.53C1795.2 1066.91 1794.6 1067.1 1793.9 1067.1ZM1793.9 1066.08C1794.6 1066.08 1795.14 1065.74 1795.53 1065.08C1795.91 1064.41 1796.11 1063.46 1796.11 1062.23C1796.11 1061.41 1796.01 1060.71 1795.84 1060.13C1795.66 1059.55 1795.41 1059.12 1795.08 1058.82C1794.76 1058.51 1794.36 1058.36 1793.9 1058.36C1793.21 1058.36 1792.66 1058.7 1792.27 1059.38C1791.88 1060.05 1791.69 1061 1791.69 1062.23C1791.69 1063.05 1791.78 1063.75 1791.95 1064.32C1792.13 1064.9 1792.38 1065.33 1792.71 1065.63C1793.04 1065.93 1793.43 1066.08 1793.9 1066.08Z" fill="#D0C3B4"/>
<path d="M11.0401 285.068V275.591H14.3895C15.0569 275.591 15.6073 275.705 16.0409 275.933C16.4743 276.158 16.7972 276.462 17.0092 276.844C17.2213 277.224 17.3273 277.645 17.3273 278.108C17.3273 278.515 17.254 278.851 17.1074 279.116C16.964 279.382 16.7738 279.592 16.5367 279.746C16.3028 279.9 16.0487 280.014 15.7743 280.088V280.181C16.0674 280.199 16.3621 280.302 16.6584 280.487C16.9546 280.672 17.2026 280.937 17.4022 281.282C17.6018 281.628 17.7016 282.05 17.7016 282.55C17.7016 283.026 17.5924 283.453 17.3741 283.832C17.1558 284.212 16.8112 284.513 16.3402 284.735C15.8694 284.957 15.2565 285.068 14.5018 285.068H11.0401ZM12.2002 284.05H14.5018C15.2596 284.05 15.7976 283.905 16.1157 283.615C16.4369 283.322 16.5976 282.967 16.5976 282.55C16.5976 282.23 16.5149 281.933 16.3496 281.662C16.1843 281.387 15.9489 281.168 15.6432 281.005C15.3376 280.838 14.9758 280.755 14.558 280.755H12.2002V284.05ZM12.2002 279.755H14.3521C14.7014 279.755 15.0164 279.687 15.2971 279.552C15.5809 279.416 15.8054 279.224 15.9707 278.978C16.1391 278.731 16.2233 278.441 16.2233 278.108C16.2233 277.691 16.0767 277.338 15.7836 277.048C15.4904 276.755 15.0257 276.608 14.3895 276.608H12.2002V279.755Z" fill="#D0C3B4"/>
<path d="M1900.74 285.068V275.591H1904.09C1904.76 275.591 1905.31 275.705 1905.74 275.933C1906.17 276.158 1906.5 276.462 1906.71 276.844C1906.93 277.224 1907.03 277.645 1907.03 278.108C1907.03 278.515 1906.96 278.851 1906.81 279.116C1906.67 279.382 1906.48 279.592 1906.24 279.746C1906 279.9 1905.75 280.014 1905.48 280.088V280.181C1905.77 280.199 1906.06 280.302 1906.36 280.487C1906.66 280.672 1906.91 280.937 1907.1 281.282C1907.3 281.628 1907.41 282.05 1907.41 282.55C1907.41 283.026 1907.29 283.453 1907.08 283.832C1906.86 284.212 1906.51 284.513 1906.04 284.735C1905.57 284.957 1904.96 285.068 1904.21 285.068H1900.74ZM1901.9 284.05H1904.21C1904.96 284.05 1905.5 283.905 1905.82 283.615C1906.14 283.322 1906.3 282.967 1906.3 282.55C1906.3 282.23 1906.21 281.933 1906.05 281.662C1905.88 281.387 1905.65 281.168 1905.34 281.005C1905.04 280.838 1904.68 280.755 1904.26 280.755H1901.9V284.05ZM1901.9 279.755H1904.05C1904.4 279.755 1904.72 279.687 1905 279.552C1905.29 279.416 1905.51 279.224 1905.67 278.978C1905.84 278.731 1905.92 278.441 1905.92 278.108C1905.92 277.691 1905.78 277.338 1905.48 277.048C1905.19 276.755 1904.73 276.608 1904.09 276.608H1901.9V279.755Z" fill="#D0C3B4"/>
<path d="M11.4331 113.702H10.2168L13.7346 104.224H14.9322L18.4501 113.702H17.2338L14.3708 105.724H14.2959L11.4331 113.702ZM11.8821 109.999H16.7847V111.018H11.8821V109.999Z" fill="#D0C3B4"/>
<path d="M1901.14 113.702H1899.92L1903.43 104.224H1904.63L1908.15 113.702H1906.93L1904.07 105.724H1903.99L1901.14 113.702ZM1901.58 109.999H1906.48V111.018H1901.58V109.999Z" fill="#D0C3B4"/>
<path d="M18.7495 449.919H17.5893C17.5207 449.588 17.4006 449.298 17.2291 449.049C17.0607 448.799 16.8549 448.589 16.6116 448.419C16.3715 448.247 16.1049 448.117 15.8117 448.03C15.5185 447.944 15.2129 447.901 14.8948 447.901C14.3147 447.901 13.7892 448.046 13.3183 448.336C12.8505 448.626 12.4778 449.053 12.2002 449.618C11.9258 450.183 11.7886 450.875 11.7886 451.696C11.7886 452.517 11.9258 453.209 12.2002 453.774C12.4778 454.338 12.8505 454.765 13.3183 455.056C13.7892 455.346 14.3147 455.49 14.8948 455.49C15.2129 455.49 15.5185 455.447 15.8117 455.361C16.1049 455.275 16.3715 455.146 16.6116 454.977C16.8549 454.804 17.0607 454.593 17.2291 454.343C17.4006 454.09 17.5207 453.8 17.5893 453.473H18.7495C18.6621 453.957 18.5031 454.391 18.2723 454.773C18.0415 455.156 17.7546 455.481 17.4116 455.75C17.0685 456.015 16.6834 456.217 16.2561 456.356C15.832 456.495 15.3782 456.564 14.8948 456.564C14.0777 456.564 13.3511 456.367 12.7149 455.972C12.0787 455.577 11.5781 455.015 11.2132 454.288C10.8483 453.559 10.6659 452.695 10.6659 451.696C10.6659 450.696 10.8483 449.832 11.2132 449.104C11.5781 448.376 12.0787 447.815 12.7149 447.42C13.3511 447.025 14.0777 446.828 14.8948 446.828C15.3782 446.828 15.832 446.897 16.2561 447.036C16.6834 447.174 17.0685 447.378 17.4116 447.647C17.7546 447.912 18.0415 448.236 18.2723 448.618C18.5031 448.998 18.6621 449.431 18.7495 449.919Z" fill="#D0C3B4"/>
<path d="M1908.45 449.919H1907.29C1907.22 449.588 1907.1 449.298 1906.93 449.049C1906.76 448.799 1906.56 448.589 1906.31 448.419C1906.08 448.247 1905.81 448.117 1905.52 448.03C1905.22 447.944 1904.92 447.901 1904.59 447.901C1904.01 447.901 1903.49 448.046 1903.02 448.336C1902.55 448.626 1902.18 449.053 1901.9 449.618C1901.63 450.183 1901.49 450.875 1901.49 451.696C1901.49 452.517 1901.63 453.209 1901.9 453.774C1902.18 454.338 1902.55 454.765 1903.02 455.056C1903.49 455.346 1904.01 455.49 1904.59 455.49C1904.92 455.49 1905.22 455.447 1905.52 455.361C1905.81 455.275 1906.08 455.146 1906.31 454.977C1906.56 454.804 1906.76 454.593 1906.93 454.343C1907.1 454.09 1907.22 453.8 1907.29 453.473H1908.45C1908.36 453.957 1908.2 454.391 1907.97 454.773C1907.74 455.156 1907.46 455.481 1907.11 455.75C1906.77 456.015 1906.39 456.217 1905.96 456.356C1905.54 456.495 1905.08 456.564 1904.59 456.564C1903.78 456.564 1903.05 456.367 1902.41 455.972C1901.78 455.577 1901.28 455.015 1900.91 454.288C1900.55 453.559 1900.37 452.695 1900.37 451.696C1900.37 450.696 1900.55 449.832 1900.91 449.104C1901.28 448.376 1901.78 447.815 1902.41 447.42C1903.05 447.025 1903.78 446.828 1904.59 446.828C1905.08 446.828 1905.54 446.897 1905.96 447.036C1906.39 447.174 1906.77 447.378 1907.11 447.647C1907.46 447.912 1907.74 448.236 1907.97 448.618C1908.2 448.998 1908.36 449.431 1908.45 449.919Z" fill="#D0C3B4"/>
<path d="M13.9966 627.801H11.0401V618.324H14.1276C15.0569 618.324 15.8522 618.513 16.5133 618.893C17.1745 619.269 17.6813 619.811 18.0337 620.517C18.3861 621.221 18.5623 622.062 18.5623 623.044C18.5623 624.031 18.3845 624.881 18.029 625.593C17.6735 626.303 17.1558 626.849 16.4759 627.232C15.7961 627.611 14.9696 627.801 13.9966 627.801ZM12.2002 626.783H13.9218C14.7139 626.783 15.3704 626.631 15.8912 626.329C16.412 626.027 16.8002 625.597 17.056 625.038C17.3117 624.48 17.4396 623.815 17.4396 623.044C17.4396 622.279 17.3133 621.62 17.0607 621.068C16.8081 620.512 16.4307 620.087 15.9286 619.79C15.4265 619.491 14.8012 619.342 14.0527 619.342H12.2002V626.783Z" fill="#D0C3B4"/>
<path d="M1903.7 627.801H1900.74V618.324H1903.83C1904.76 618.324 1905.56 618.513 1906.21 618.893C1906.87 619.269 1907.38 619.811 1907.74 620.517C1908.08 621.221 1908.26 622.062 1908.26 623.044C1908.26 624.031 1908.08 624.881 1907.73 625.593C1907.37 626.303 1906.86 626.849 1906.17 627.232C1905.5 627.611 1904.67 627.801 1903.7 627.801ZM1901.9 626.783H1903.63C1904.42 626.783 1905.07 626.631 1905.59 626.329C1906.12 626.027 1906.5 625.597 1906.75 625.038C1907.01 624.48 1907.14 623.815 1907.14 623.044C1907.14 622.279 1907.02 621.62 1906.76 621.068C1906.51 620.512 1906.14 620.087 1905.63 619.79C1905.13 619.491 1904.5 619.342 1903.76 619.342H1901.9V626.783Z" fill="#D0C3B4"/>
<path d="M11.0401 799.167V789.687H16.8221V790.71H12.2002V793.909H16.5227V794.925H12.2002V798.151H16.8969V799.167H11.0401Z" fill="#D0C3B4"/>
<path d="M1900.74 799.167V789.687H1906.52V790.71H1901.9V793.909H1906.23V794.925H1901.9V798.151H1906.6V799.167H1900.74Z" fill="#D0C3B4"/>
<path d="M11.0401 970.534V961.053H16.7847V962.076H12.2002V965.276H16.3543V966.292H12.2002V970.534H11.0401Z" fill="#D0C3B4"/>
<path d="M1900.74 970.534V961.053H1906.48V962.076H1901.9V965.276H1906.06V966.292H1901.9V970.534H1900.74Z" fill="#D0C3B4"/>
</svg>
