<svg width="183" height="183" viewBox="0 0 183 183" fill="none" xmlns="http://www.w3.org/2000/svg">
<path opacity="0.7" d="M0.5 181.535V0.5H181.97V181.535H0.5Z" stroke="#8EA365"/>
<path d="M137.5 168.5L14.5 84.5" stroke="#FEFEFE" stroke-width="3" stroke-linecap="round"/>
<path d="M43.2494 58.0178C43.2592 57.8801 43.1555 57.7605 43.0178 57.7506L40.7735 57.5903C40.6358 57.5805 40.5162 57.6842 40.5064 57.8219C40.4965 57.9596 40.6002 58.0792 40.7379 58.0891L42.7328 58.2316L42.5903 60.2265C42.5805 60.3642 42.6842 60.4838 42.8219 60.4936C42.9596 60.5035 43.0792 60.3998 43.0891 60.2621L43.2494 58.0178ZM13.1637 84.1889L43.1637 58.1889L42.8363 57.8111L12.8363 83.8111L13.1637 84.1889Z" fill="#FEFEFE"/>
<path opacity="0.7" d="M13.5 169.53V14.5H168.903V169.53H13.5Z" stroke="#8EA365"/>
</svg>
