<svg width="183" height="183" viewBox="0 0 183 183" fill="none" xmlns="http://www.w3.org/2000/svg">
<path opacity="0.7" d="M0.5 0.5H181.97V181.535H0.5V0.5Z" stroke="#8EA365"/>
<path opacity="0.7" d="M13.5 14.5H168.903V169.53H13.5V14.5Z" stroke="#8EA365"/>
<path d="M139 170.488L13 84.4883" stroke="#FEFEFE"/>
<path d="M32.8696 156.962C33.2316 157.17 33.6936 157.045 33.9017 156.683L37.2924 150.785C37.5005 150.423 37.3758 149.961 37.0139 149.753C36.6519 149.545 36.1899 149.67 35.9818 150.032L32.9678 155.274L27.7252 152.26C27.3633 152.052 26.9012 152.177 26.6931 152.539C26.485 152.901 26.6098 153.363 26.9717 153.571L32.8696 156.962ZM13.4929 86.0251L13.691 86.7593L15.1506 86.3653L14.9524 85.6311L13.4929 86.0251ZM14.88 91.1642L15.2763 92.6325L16.7359 92.2385L16.3396 90.7702L14.88 91.1642ZM16.4653 97.0374L16.8617 98.5057L18.3212 98.1117L17.9249 96.6434L16.4653 97.0374ZM18.0506 102.911L18.447 104.379L19.9065 103.985L19.5102 102.517L18.0506 102.911ZM19.6359 108.784L20.0323 110.252L21.4918 109.858L21.0955 108.39L19.6359 108.784ZM21.2213 114.657L21.6176 116.125L23.0772 115.731L22.6808 114.263L21.2213 114.657ZM22.8066 120.53L23.2029 121.998L24.6625 121.604L24.2661 120.136L22.8066 120.53ZM24.3919 126.403L24.7882 127.872L26.2478 127.478L25.8515 126.009L24.3919 126.403ZM25.9772 132.277L26.3735 133.745L27.8331 133.351L27.4368 131.883L25.9772 132.277ZM27.5625 138.15L27.9588 139.618L29.4184 139.224L29.0221 137.756L27.5625 138.15ZM29.1478 144.023L29.5441 145.491L31.0037 145.097L30.6074 143.629L29.1478 144.023ZM30.7331 149.896L31.1294 151.364L32.589 150.97L32.1927 149.502L30.7331 149.896ZM32.3184 155.769L32.5166 156.504L33.9762 156.11L33.778 155.375L32.3184 155.769Z" fill="#FEFEFE"/>
<path d="M104.786 75.141C105.044 74.8132 104.988 74.3379 104.66 74.0793L99.3186 69.8664C98.9908 69.6078 98.5155 69.664 98.257 69.9918C97.9985 70.3196 98.0546 70.7949 98.3824 71.0534L103.131 74.7983L99.3857 79.5464C99.1272 79.8742 99.1833 80.3495 99.5111 80.6081C99.8389 80.8666 100.314 80.8104 100.573 80.4826L104.786 75.141ZM13.8912 86.1014L14.6444 86.0125L14.4671 84.5111L13.7138 84.6001L13.8912 86.1014ZM19.1639 85.4786L20.6704 85.3006L20.493 83.7992L18.9865 83.9772L19.1639 85.4786ZM25.1899 84.7667L26.6964 84.5887L26.519 83.0874L25.0125 83.2653L25.1899 84.7667ZM31.2159 84.0548L32.7224 83.8769L32.545 82.3755L31.0385 82.5535L31.2159 84.0548ZM37.2418 83.343L38.7483 83.165L38.571 81.6637L37.0645 81.8416L37.2418 83.343ZM43.2678 82.6311L44.7743 82.4532L44.597 80.9518L43.0905 81.1298L43.2678 82.6311ZM49.2938 81.9193L50.8003 81.7413L50.6229 80.2399L49.1164 80.4179L49.2938 81.9193ZM55.3198 81.2074L56.8263 81.0294L56.6489 79.5281L55.1424 79.706L55.3198 81.2074ZM61.3458 80.4955L62.8523 80.3176L62.6749 78.8162L61.1684 78.9942L61.3458 80.4955ZM67.3717 79.7837L68.8782 79.6057L68.7009 78.1043L67.1944 78.2823L67.3717 79.7837ZM73.3977 79.0718L74.9042 78.8939L74.7269 77.3925L73.2204 77.5705L73.3977 79.0718ZM79.4237 78.36L80.9302 78.182L80.7528 76.6806L79.2464 76.8586L79.4237 78.36ZM85.4497 77.6481L86.9562 77.4701L86.7788 75.9688L85.2723 76.1467L85.4497 77.6481ZM91.4757 76.9362L92.9822 76.7583L92.8048 75.2569L91.2983 75.4349L91.4757 76.9362ZM97.5016 76.2244L99.0081 76.0464L98.8308 74.545L97.3243 74.723L97.5016 76.2244ZM103.528 75.5125L104.281 75.4235L104.104 73.9222L103.35 74.0111L103.528 75.5125Z" fill="#FEFEFE"/>
<path d="M76.6391 33.0747C76.6803 32.6593 76.377 32.289 75.9615 32.2478L69.1917 31.5756C68.7762 31.5343 68.406 31.8377 68.3648 32.2531C68.3235 32.6685 68.6269 33.0388 69.0423 33.08L75.06 33.6775L74.4624 39.6952C74.4212 40.1106 74.7245 40.4808 75.14 40.5221C75.5554 40.5633 75.9256 40.26 75.9668 39.8445L76.6391 33.0747ZM13.8626 84.7968L14.4636 84.3044L13.5055 83.135L12.9045 83.6274L13.8626 84.7968ZM18.0696 81.3498L19.2716 80.365L18.3134 79.1956L17.1114 80.1804L18.0696 81.3498ZM22.8775 77.4104L24.0795 76.4256L23.1214 75.2562L21.9194 76.241L22.8775 77.4104ZM27.6855 73.4711L28.8875 72.4862L27.9293 71.3168L26.7273 72.3017L27.6855 73.4711ZM32.4934 69.5317L33.6954 68.5468L32.7372 67.3774L31.5353 68.3623L32.4934 69.5317ZM37.3014 65.5923L38.5033 64.6074L37.5452 63.438L36.3432 64.4229L37.3014 65.5923ZM42.1093 61.6529L43.3113 60.668L42.3531 59.4986L41.1512 60.4835L42.1093 61.6529ZM46.9173 57.7135L48.1192 56.7286L47.1611 55.5592L45.9591 56.5441L46.9173 57.7135ZM51.7252 53.7741L52.9272 52.7892L51.969 51.6198L50.767 52.6047L51.7252 53.7741ZM56.5331 49.8347L57.7351 48.8499L56.777 47.6804L55.575 48.6653L56.5331 49.8347ZM61.3411 45.8953L62.5431 44.9105L61.5849 43.7411L60.3829 44.7259L61.3411 45.8953ZM66.149 41.9559L67.351 40.9711L66.3929 39.8017L65.1909 40.7865L66.149 41.9559ZM70.957 38.0165L72.159 37.0317L71.2008 35.8623L69.9988 36.8471L70.957 38.0165ZM75.7649 34.0771L76.3659 33.5847L75.4078 32.4153L74.8068 32.9077L75.7649 34.0771Z" fill="#FEFEFE"/>
</svg>
