<svg width="183" height="183" viewBox="0 0 183 183" fill="none" xmlns="http://www.w3.org/2000/svg">
<path opacity="0.7" d="M0.5 0.5H181.97V181.535H0.5V0.5Z" stroke="#8EA365"/>
<path opacity="0.7" d="M13.5 14.5H168.903V169.53H13.5V14.5Z" stroke="#8EA365"/>
<path d="M137.5 168.5L14.5 84.5" stroke="#FEFEFE" stroke-width="1.5"/>
<path d="M44.2494 59.0178C44.2592 58.8801 44.1555 58.7605 44.0178 58.7506L41.7735 58.5903C41.6358 58.5805 41.5162 58.6842 41.5064 58.8219C41.4965 58.9596 41.6002 59.0792 41.7379 59.0891L43.7328 59.2316L43.5903 61.2265C43.5805 61.3642 43.6842 61.4838 43.8219 61.4936C43.9596 61.5035 44.0792 61.3998 44.0891 61.2621L44.2494 59.0178ZM14.1637 85.1889L44.1637 59.1889L43.8363 58.8111L13.8363 84.8111L14.1637 85.1889Z" fill="#FEFEFE"/>
</svg>
