<?xml version="1.0" encoding="UTF-8" standalone="no"?>
<!-- Created with Inkscape (http://www.inkscape.org/) -->

<svg
   width="90.365356mm"
   height="71.502029mm"
   viewBox="0 0 90.365356 71.502029"
   version="1.1"
   id="svg1"
   xml:space="preserve"
   xmlns:inkscape="http://www.inkscape.org/namespaces/inkscape"
   xmlns:sodipodi="http://sodipodi.sourceforge.net/DTD/sodipodi-0.dtd"
   xmlns="http://www.w3.org/2000/svg"
   xmlns:svg="http://www.w3.org/2000/svg"><sodipodi:namedview
     id="namedview1"
     pagecolor="#ffffff"
     bordercolor="#000000"
     borderopacity="0.25"
     inkscape:showpageshadow="2"
     inkscape:pageopacity="0.0"
     inkscape:pagecheckerboard="0"
     inkscape:deskcolor="#d1d1d1"
     inkscape:document-units="mm" /><defs
     id="defs1" /><g
     inkscape:label="Calque 1"
     inkscape:groupmode="layer"
     id="layer1"
     transform="translate(-56.186128,-149.64036)"><text
       xml:space="preserve"
       style="font-size:7.14646px;line-height:0;font-family:'Cormorant Garamond';-inkscape-font-specification:'Cormorant Garamond';text-align:center;letter-spacing:0.53407px;text-anchor:middle;fill:none;stroke:#000000;stroke-width:0.506442;stroke-linecap:square;stroke-dasharray:none"
       x="101.39765"
       y="159.26347"
       id="text1"><tspan
         sodipodi:role="line"
         id="tspan1"
         x="101.39765"
         y="159.26347"
         style="font-style:normal;font-variant:normal;font-weight:normal;font-stretch:normal;font-size:5.10461px;line-height:3.56047px;font-family:Cyberpunks;-inkscape-font-specification:Cyberpunks;text-align:center;text-anchor:middle;stroke-width:0.506442;stroke-dasharray:none"> </tspan><tspan
         style="font-style:normal;font-variant:normal;font-weight:normal;font-stretch:normal;font-size:8.16739px;line-height:3.54132px;font-family:Cyberpunks;-inkscape-font-specification:Cyberpunks;stroke-width:0.506442;stroke-dasharray:none"
         id="tspan8"
         sodipodi:role="line"
         x="101.39765"
         y="163.78448">saumons</tspan><tspan
         style="font-style:normal;font-variant:normal;font-weight:normal;font-stretch:normal;font-size:7.14646px;line-height:3.54132px;font-family:Cyberpunks;-inkscape-font-specification:Cyberpunks;text-align:center;text-anchor:middle;stroke-width:0.506442;stroke-dasharray:none"
         sodipodi:role="line"
         id="tspan10"
         x="101.39765"
         y="167.00243"> </tspan><tspan
         sodipodi:role="line"
         x="101.39765"
         y="168.38907"
         style="font-style:normal;font-variant:normal;font-weight:normal;font-stretch:normal;font-size:8.16739px;line-height:3.54132px;font-family:Cyberpunks;-inkscape-font-specification:Cyberpunks;text-align:center;text-anchor:middle;stroke-width:0.506442;stroke-dasharray:none"
         id="tspan5" /></text><path
       id="path5"
       style="fill:#000000"
       d="m 97.276567,188.9911 -0.63924,-0.77153 c -0.93986,-1.13459 -1.55099,-2.67192 -2.05466,-5.16764 -0.36485,-1.80783 -0.64545,-2.47615 -1.51515,-3.61115 -1.06898,-1.39507 -1.34832,-1.54679 -3.16105,-1.71411 -1.34783,-0.12441 -1.02017,0.21035 0.5824,0.5948 1.80728,0.43356 2.6984,1.72557 3.40031,4.92786 0.85214,3.88771 2.02466,6.10066 4.50153,8.49819 1.16126,1.12409 1.23998,1.36598 0.27699,0.8506 -0.86158,-0.4611 -0.56795,-0.0757 0.35915,0.47129 0.86715,0.51163 13.043183,6.15259 13.280323,6.15259 0.0685,0 1.8139,0.78217 3.87884,1.73788 4.24792,1.96606 5.96825,3.04734 6.32054,3.97392 v 5.1e-4 c 0.13344,0.35098 0.322,0.63821 0.4191,0.63821 0.2705,0 -0.1251,-3.20706 -0.44287,-3.58996 -0.15389,-0.18541 -0.77897,-0.4171 -1.38906,-0.5147 -0.89802,-0.14365 -9.03525,-3.36069 -9.41648,-3.72277 -0.25598,-0.24311 2.45291,-2.36591 5.02398,-3.93723 4.03284,-2.46469 7.38405,-5.7221 7.38405,-7.17682 0,-0.0952 -0.80368,0.51762 -1.78594,1.36167 -2.97933,2.56008 -3.24924,2.97591 -0.52917,0.81546 1.7408,-1.38265 1.57864,-0.7806 -0.23668,0.8785 -1.37642,1.25801 -4.30951,3.01104 -4.78575,2.86029 -0.11164,-0.0353 -0.7984,0.34029 -1.52601,0.83509 -1.18782,0.80779 -1.25756,0.82797 -0.68161,0.19534 0.93209,-1.02388 0.41683,-0.8631 -1.00149,0.31264 -0.67504,0.55959 -1.5845,1.23762 -2.02106,1.50637 l -0.79375,0.48834 0.79375,-0.87333 0.79375,-0.87385 -1.69447,1.08727 c -2.02418,1.29882 -2.52253,1.38745 -1.464,0.25993 l 0.77722,-0.82785 -1.17202,0.72863 -1.17202,0.72864 -1.67794,-0.82734 c -2.24808,-1.10858 -2.5138,-1.70124 -1.50172,-3.35122 0.41862,-0.6824 1.20767,-1.74624 1.75339,-2.36419 1.2599,-1.4267 2.50035,-4.14871 2.72903,-5.98878 0.31647,-2.54656 1.90647,-5.24152 3.11557,-5.28082 0.31448,-0.0102 0.80966,-0.11326 1.10071,-0.22944 0.36592,-0.14606 0.0999,-0.21249 -0.86196,-0.21549 -1.28617,-0.004 -1.44798,0.0679 -2.14923,0.95705 -1.27953,1.62241 -1.88338,2.9903 -1.8836,4.26537 -2.3e-4,1.2793 -1.0031,3.67385 -2.20039,5.25394 l -0.67024,0.88418 c 0.0433,-2.57554 -1.7547,-0.0608 -0.86519,-0.15293 0.0375,0.60958 -0.0594,1.18693 -0.21498,1.28313 -0.0264,-0.45617 -1.24778,-0.0502 -1.27382,-0.50643 0,0 2.85641,-3.14764 -1.16219,2.76676 -0.21311,0 -0.26167,-0.69833 -0.16537,-2.38642 -0.53717,-0.74017 0.56149,-1.32579 -0.87176,1.85725 -0.13694,0 -0.24908,-1.01204 -0.24908,-2.24896 -0.0153,-0.33253 -0.970342,0.21026 -0.991153,-0.12196 -0.319287,-0.70032 8.012953,1.42716 -1.16013,0.14366 0.578231,-0.18242 -0.667344,-2.56079 -1.1094,-0.86044 z m 26.543933,-7.53651 c 0,-0.22954 -0.26524,-0.75408 -0.58911,-1.16582 -0.32545,-0.41375 -0.6509,-1.28775 -0.7276,-1.95389 -0.12035,-1.04552 -0.22615,-1.21487 -0.79995,-1.27847 -0.57229,-0.0634 -0.59905,-0.0351 -0.19844,0.21136 0.60788,0.37399 0.68386,2.70782 0.0806,2.47633 -0.21033,-0.0807 -0.50946,-0.46397 -0.66455,-0.85163 -0.22093,-0.55238 -0.25817,-0.57586 -0.17157,-0.10903 0.0608,0.32762 0.003,0.52911 -0.12919,0.44751 -0.74011,-0.45741 0.16306,-3.53418 1.49396,-5.08909 0.50143,-0.5858 0.91209,-1.1769 0.91209,-1.3131 0,-0.13621 0.46203,-0.96223 1.02681,-1.83606 0.90424,-1.39902 0.95398,-1.55467 0.4191,-1.30225 -0.33408,0.15766 -0.55569,0.36977 -0.49299,0.47129 0.0922,0.14915 -0.91894,1.86255 -1.35858,2.30219 -0.0609,0.0609 -0.32214,-0.0493 -0.58032,-0.24495 -0.40022,-0.30326 -0.42048,-0.30123 -0.1385,0.015 0.46427,0.52055 0.421,1.15017 -0.0661,0.96324 -0.21828,-0.0838 -0.39688,-0.0288 -0.39688,0.12196 0,0.15639 -0.25561,0.20357 -0.59531,0.11007 -0.57627,-0.15858 -0.57942,-0.15057 -0.0863,0.24391 0.49739,0.3979 0.48802,0.45122 -0.39687,2.25723 -0.87333,1.7824 -1.52807,2.49568 -1.16117,1.26504 0.15768,-0.52888 0.13779,-0.54698 -0.18035,-0.16381 -0.19695,0.23716 -0.71531,0.52124 -1.15187,0.63096 l -0.79375,0.19948 0.85679,0.23564 c 0.47136,0.12977 1.12621,0.6007 1.45521,1.04645 0.32901,0.44575 0.98694,0.97325 1.46193,1.17202 1.14062,0.47733 1.32017,1.04417 0.62735,1.98127 -0.76066,1.02878 -0.7136,1.28156 0.0966,0.52039 0.36381,-0.34175 0.66139,-0.51124 0.66146,-0.37673 6e-5,0.1345 -0.9822,1.17355 -2.18281,2.30891 l -2.18281,2.06447 2.08618,-1.60145 c 1.14751,-0.8807 2.25144,-1.60145 2.45308,-1.60145 0.45737,0 1.00663,1.15279 0.80253,1.68465 -0.0835,0.21753 -0.76502,0.88014 -1.51412,1.47226 -1.41443,1.11805 -1.55425,1.40081 -0.31264,0.63148 1.26155,-0.78163 2.17351,-1.75405 2.17351,-2.31768 0,-0.59455 0.99088,-1.0516 3.175,-1.46451 0.65484,-0.1238 1.52563,-0.35462 1.93528,-0.51263 0.40966,-0.15802 1.04109,-0.28732 1.40353,-0.28732 h 0.6594 l -0.71882,0.61856 c -0.74386,0.63984 -0.69209,1.22654 0.10955,1.24334 0.32422,0.007 0.26638,0.10951 -0.20981,0.3731 -0.40261,0.22287 -0.81783,0.27726 -1.07228,0.14108 -0.28559,-0.15284 -0.50841,-0.0728 -0.71365,0.2558 -0.3324,0.53226 -1.91774,0.88659 -1.93064,0.43149 -0.004,-0.1567 -0.1429,-0.0471 -0.30747,0.24392 -0.16457,0.29104 -0.47244,0.63246 -0.68471,0.75861 -0.30704,0.18248 -0.31675,0.27242 -0.046,0.43976 0.2686,0.166 0.21262,0.56357 -0.26614,1.88723 -0.9569,2.6455 -3.02762,6.82446 -4.37699,8.83305 -0.67981,1.01192 -1.29709,1.93669 -1.37149,2.05517 -0.30361,0.48345 3.11631,-1.46382 5.32629,-3.03289 18.43482,-26.85901 0.367,-10.50274 -0.64647,-15.61146 z m -42.577343,17.62063 h 5.1e-4 c 1.07963,0.65644 2.05344,1.19641 2.1637,1.19941 -1.139642,-2.75856 -6.343351,-10.18914 -6.05648,-12.77183 0.0682,-0.26107 -0.0442,-0.79684 -0.2496,-1.19062 -0.3132,-0.60027 -0.3743,-0.63073 -0.3793,-0.18707 -0.003,0.29108 -0.0931,0.4101 -0.19999,0.26458 -0.10692,-0.14552 -0.43243,-0.30533 -0.72347,-0.35553 -0.71073,-0.12261 -1.18663,-0.54194 -1.20923,-1.06557 -0.0143,-0.33136 -0.071,-0.30896 -0.24598,0.0982 -0.12506,0.29104 -0.23578,0.38404 -0.24598,0.20671 -0.0102,-0.1773 -0.19002,-0.25662 -0.39946,-0.17622 -0.20945,0.0804 -0.59639,0.021 -0.85989,-0.13229 -0.44626,-0.25952 -0.44729,-0.2798 -0.016,-0.2868 0.66385,-0.0115 0.58262,-0.95282 -0.12506,-1.44849 l -0.58808,-0.41186 h 0.67283 c 0.37026,0 1.20047,0.16759 1.84485,0.37207 0.64439,0.20449 1.91482,0.59143 2.82308,0.85989 1.33651,0.39504 1.65165,0.59267 1.65365,1.03715 0.003,0.6331 0.74332,1.36031 2.25154,2.21123 l 1.05833,0.59738 -1.19062,-1.0759 c -0.65484,-0.59156 -1.27993,-1.07914 -1.38907,-1.08314 -0.23873,-0.01 -0.26148,-0.86001 -0.0382,-1.44177 0.29518,-0.76923 1.35608,-0.43106 3.31815,1.0573 l 1.94561,1.47536 -2.23087,-2.10271 c -2.19806,-2.07221 -2.22716,-2.11616 -1.9761,-2.99155 0.14552,-0.50741 0.55023,-1.05458 0.94361,-1.27538 0.6143,-0.34475 0.75652,-0.33838 1.31465,0.0589 1.63279,1.16227 1.89483,1.25825 0.96169,0.35192 -0.90982,-0.88372 -0.96238,-1.01361 -0.66817,-1.65933 0.17554,-0.38528 0.64404,-0.83675 1.04076,-1.00356 0.69024,-0.29022 0.69885,-0.31716 0.20464,-0.6258 -0.40941,-0.25572 -0.51813,-0.25361 -0.52813,0.0103 -0.007,0.18314 -0.17722,-0.0244 -0.37879,-0.46096 l -0.36639,-0.79375 0.13281,0.92605 c 0.10225,0.71201 -0.0937,0.44221 -0.84801,-1.16789 -0.946,-2.01918 -0.96322,-2.10736 -0.48214,-2.46497 0.45701,-0.33972 0.43448,-0.35494 -0.2682,-0.18242 -0.54237,0.13316 -0.71252,0.1006 -0.58136,-0.11162 0.11936,-0.19318 0.0389,-0.24401 -0.22531,-0.14262 -0.50008,0.1919 -0.55328,-0.43576 -0.0796,-0.9369 0.27227,-0.28801 0.23133,-0.29925 -0.22996,-0.0625 -0.49989,0.25655 -0.65579,0.14756 -1.44694,-1.01182 -1.05676,-1.5486 -1.36564,-1.5758 -0.39274,-0.0346 0.37431,0.59294 0.68058,1.19507 0.68058,1.33842 0,0.14335 0.35468,0.66493 0.78858,1.1591 1.63976,1.86759 2.68344,5.19809 1.74201,5.55935 -0.20888,0.0802 -0.43779,0.004 -0.50849,-0.17002 -0.0707,-0.17372 -0.13785,-0.0484 -0.14935,0.27906 -0.0349,0.9959 -0.47126,0.66532 -0.65732,-0.49816 -0.13457,-0.84157 -0.0694,-1.21038 0.28215,-1.59887 0.43353,-0.47909 0.43307,-0.49608 -0.0114,-0.32557 -0.53338,0.20468 -0.95705,1.14937 -0.95705,2.13372 0,0.36775 -0.23812,0.97156 -0.52916,1.34152 -0.29104,0.37 -0.53454,0.92417 -0.54054,1.23197 -19.358048,-5.15623 -2.487183,9.77364 2.1487,17.4785 z m 43.908013,-33.61243 c -0.21317,-0.006 -0.45388,0.0747 -0.84284,0.23926 -0.48672,0.2059 -1.12283,0.64866 -1.41387,0.98392 -0.49035,0.56483 -0.4518,0.558 0.52452,-0.0956 1.1234,-0.75207 2.21078,-0.90685 2.72955,-0.38809 0.17462,0.1746 0.31781,0.23699 0.31781,0.13849 0,-0.0985 -0.28664,-0.36647 -0.63666,-0.59582 -0.27972,-0.18328 -0.46534,-0.27619 -0.67851,-0.28216 z m -47.466353,0.20154 c -0.58961,0.002 -1.07481,0.16455 -1.17151,0.48524 -0.0966,0.32025 -0.0519,0.33306 0.231,0.0661 0.59947,-0.56554 1.69014,-0.36597 2.84272,0.51986 0.60854,0.46771 1.10639,0.94396 1.10639,1.05834 0,0.11436 0.12191,0.20774 0.27078,0.20774 0.47171,0 -0.55401,-1.29135 -1.48053,-1.86397 -0.51492,-0.31827 -1.20925,-0.4757 -1.79885,-0.47336 z m 47.448263,0.74983 c -0.76391,0 -1.31258,0.83447 -1.31258,1.99677 0,0.83337 0.69071,0.85588 1.59319,0.0522 0.36691,-0.32666 0.55109,-0.50447 0.40979,-0.39533 -0.36835,0.28453 -1.14952,0.24444 -1.34307,-0.0687 -0.28437,-0.46011 0.147,-1.32033 0.66198,-1.32033 0.27084,0 0.67928,0.18731 0.90795,0.41599 0.22868,0.22871 0.416,0.31182 0.416,0.18501 0,-0.44782 -0.64342,-0.86558 -1.33326,-0.86558 z m -47.184203,0.0346 c -0.071,0.002 -0.14931,0.008 -0.23616,0.0171 -0.44126,0.0443 -0.93379,0.29619 -1.09399,0.55966 -0.23945,0.39384 -0.15916,0.59387 0.45114,1.12448 0.80248,0.6977 2.03605,0.87199 2.03605,0.28783 0,-0.19657 -0.13306,-0.73887 -0.29559,-1.20509 -0.22392,-0.64233 -0.36433,-0.80098 -0.86145,-0.78393 z m -0.44803,0.22996 c 0.56668,0 1.20414,0.90119 0.93999,1.3286 -0.24063,0.38936 -1.07885,0.31164 -1.449,-0.13436 -0.43487,-0.52399 -0.14914,-1.19424 0.50901,-1.19424 z m 43.039233,2.38125 c -0.0617,0 -0.80032,1.10136 -1.64176,2.44739 -3.08028,4.92763 -5.86557,8.16599 -7.3148,8.50491 -0.40018,0.0936 -0.7276,0.30208 -0.7276,0.46302 0,0.43244 1.49803,0.0669 2.33629,-0.56999 0.93691,-0.71188 2.27095,-2.4175 4.66897,-5.96914 1.74703,-2.58751 3.00433,-4.87619 2.6789,-4.87619 z m -38.188363,0.12609 c -0.0101,-0.003 -0.0181,-0.002 -0.0238,0.003 -0.0543,0.0453 0.0969,0.44213 0.49816,1.23455 0.81273,1.60508 3.85357,6.18457 5.13405,7.73183 0.58711,0.70944 1.48231,1.57264 1.98903,1.91823 0.94379,0.64371 2.12131,0.84189 2.12131,0.35708 0,-0.14916 -0.36446,-0.34394 -0.80977,-0.43304 -0.44531,-0.0891 -1.14819,-0.50018 -1.56166,-0.91364 -1.50583,-1.50584 -3.99034,-4.79253 -5.5857,-7.3887 -0.96788,-1.57499 -1.61048,-2.46589 -1.76165,-2.50889 z m -2.92541,0.42271 c -0.10282,-0.003 -0.25658,0.0768 -0.39119,0.21239 -0.25936,0.26131 -0.22878,0.29139 0.14831,0.1478 0.26092,-0.0994 0.40758,-0.24717 0.32608,-0.32867 -0.0204,-0.0203 -0.0489,-0.0305 -0.0832,-0.0315 z m 0.0419,0.53692 c -0.0601,-0.0213 -0.0381,0.079 0.0517,0.31471 0.0994,0.26092 0.24716,0.40806 0.32866,0.3266 0.0815,-0.0815 -5e-5,-0.29492 -0.18087,-0.47439 -0.098,-0.0973 -0.16342,-0.15415 -0.19947,-0.16692 z m 38.426603,9.08061 c -0.271,0.12631 -1.48419,2.10208 -1.4795,2.44843 0.002,0.1196 0.37508,-0.35148 0.82992,-1.04696 0.45484,-0.69549 0.7655,-1.32585 0.6904,-1.40095 -0.009,-0.009 -0.0228,-0.009 -0.0408,-5.2e-4 z m 0.65009,0.54932 -0.74931,0.85318 c -0.41214,0.46922 -1.02109,1.3622 -1.35341,1.98438 -0.56188,1.05199 -0.56551,1.08482 -0.0501,0.46974 0.30482,-0.3638 0.91376,-1.25678 1.3534,-1.98438 z m -34.164843,0.16537 c -0.0835,0.0307 0.50309,0.75351 1.57974,1.88515 0.65763,0.69122 1.23805,1.25678 1.28985,1.25678 0.23097,0 -1.05887,-1.55149 -2.0898,-2.51355 -0.42545,-0.39702 -0.6698,-0.59479 -0.75396,-0.62528 -0.0116,-0.004 -0.0203,-0.005 -0.0258,-0.003 z m 38.330473,0.49558 c 0.31588,0 0.46375,0.42368 0.71676,2.05052 0.18698,1.20227 0.0471,1.43245 -0.38293,0.6289 -0.42137,-0.7873 -0.65703,-2.67942 -0.33383,-2.67942 z m -2.77709,0.1328 -0.56999,0.50385 c -0.31357,0.27721 -0.56999,0.60463 -0.56999,0.7276 0,0.38809 0.18896,0.24641 0.67179,-0.50384 z m -39.891103,0.031 c 0.095,-0.0402 0.093,0.254 0.009,0.97978 -0.0809,0.70175 -0.27517,1.47567 -0.4315,1.7198 -0.21557,0.33668 -0.2485,0.13572 -0.13694,-0.83199 0.0809,-0.70174 0.27464,-1.47566 0.43098,-1.7198 0.0539,-0.0842 0.0965,-0.13441 0.12816,-0.14779 z m 12.00598,0.39842 c -0.0919,-0.004 -0.19647,0.013 -0.29197,0.0512 -0.21107,0.0845 -0.14854,0.1475 0.15968,0.1602 0.27887,0.0115 0.43517,-0.0511 0.34727,-0.13901 -0.044,-0.044 -0.12306,-0.0686 -0.21498,-0.0724 z m -30.268951,1.84899 c -0.109916,-0.004 -0.214924,0.004 -0.313159,0.0243 -0.39179,0.0815 -0.334276,0.17399 0.30334,0.48679 0.43317,0.2125 0.899039,0.70301 1.035079,1.08985 0.20544,0.58416 0.105665,0.92389 -0.589111,2.0066 -0.937696,1.46129 -1.104096,3.01522 -0.45682,4.26692 0.43824,0.84746 2.021994,2.33496 3.593582,3.37499 0.59858,0.39612 1.26693,1.06573 1.48518,1.48776 0.36907,0.7137 0.3613,0.77681 -0.11059,0.90021 -0.49663,0.12986 -0.49675,0.15309 -0.017,1.09399 0.59809,1.17321 0.61858,1.87098 0.078,2.64273 -1.28698,1.83741 -3.200546,-0.63603 -2.41122,-3.1166 0.18776,-0.59008 0.11112,-0.55691 -0.712622,0.30592 -1.562632,1.63679 -1.853109,3.53624 -0.865063,5.65805 0.811356,1.74239 1.705875,2.45889 5.099945,4.08399 1.54505,0.73978 3.1099,1.58167 3.47731,1.87069 2.3011,1.81004 2.60874,4.48551 0.51573,4.48551 -1.06457,0 -1.65584,-0.37969 -2.04225,-1.31258 -0.26585,-0.64155 -0.26677,-0.8845 -0.004,-1.20096 0.44513,-0.53639 -0.10328,-0.52049 -0.64233,0.0186 -0.98569,0.98569 -0.62343,2.89659 0.79943,4.21525 0.59351,0.55005 0.97653,0.66094 2.27583,0.66094 1.64726,0 2.66377,0.37712 3.49539,1.29605 h 5.2e-4 c 0.27687,0.30594 0.53619,0.55604 0.57619,0.55604 0.04,0 -0.23057,-0.74414 -0.60099,-1.65365 -0.78296,-1.92238 -1.93529,-6.2899 -1.93529,-7.33547 0,-0.58098 -0.19924,-0.80958 -1.03508,-1.18649 -1.22583,-0.55279 -2.52502,-1.83212 -2.91713,-2.87218 -0.32104,-0.85142 -0.34171,-2.70839 -0.0388,-3.48402 0.17047,-0.43646 0.23602,-0.35897 0.38964,0.45992 0.30196,1.60957 1.72732,2.04802 2.40399,0.73949 0.49981,-0.96658 0.50732,-2.11281 0.0264,-3.91966 -0.44716,-1.67976 -1.24744,-3.08653 -3.01016,-5.29012 -0.77522,-0.96911 -1.28021,-1.84685 -1.21801,-2.11666 0.19126,-0.82998 -1.09489,-1.91616 -2.2686,-1.91616 -0.30722,0 -0.85048,-0.29188 -1.20767,-0.64906 -0.53475,-0.53476 -0.64958,-0.91112 -0.64958,-2.1301 0,-0.81421 -0.17306,-1.8148 -0.38447,-2.22364 -0.361721,-0.69948 -1.356044,-1.29003 -2.125451,-1.31723 z m 79.174494,0.0238 c -0.77329,-0.0287 -1.97817,0.63824 -2.35954,1.33842 -0.17752,0.32591 -0.30532,1.28796 -0.28422,2.13785 0.0326,1.30938 -0.0587,1.64262 -0.59893,2.18281 -0.35065,0.35065 -0.88678,0.63718 -1.19166,0.63718 -0.75958,0 -2.01611,0.68187 -2.21589,1.20251 -0.0904,0.23556 -0.16433,0.65641 -0.16433,0.93482 0,0.27841 -0.60911,1.25088 -1.3534,2.16111 -0.74428,0.91024 -1.71093,2.40545 -2.14819,3.3228 -1.3448,2.82123 -1.23907,6.13659 0.20257,6.34586 0.8093,0.11748 1.51474,-0.554 1.54874,-1.47381 0.0383,-1.03837 0.39732,-0.71266 0.60152,0.5457 0.35736,2.20211 -0.86251,4.34781 -3.02669,5.32371 -0.987,0.44508 -1.02946,0.51953 -1.34049,2.35954 -0.26475,1.56622 -1.24445,4.7866 -2.26808,7.45588 -0.18992,0.49522 -0.17164,0.4932 0.28474,-0.0372 0.79941,-0.92907 2.07348,-1.41768 3.71553,-1.42368 1.05996,-0.004 1.70375,-0.14725 2.08101,-0.46302 1.45351,-1.21647 1.96003,-3.27819 1.05214,-4.2814 -0.59284,-0.65504 -1.06345,-0.71954 -0.71572,-0.0982 0.32311,0.57736 -0.12099,1.86549 -0.7612,2.20813 -0.91052,0.48731 -2.06292,0.30635 -2.52336,-0.39636 -0.40328,-0.61545 -0.39342,-0.72959 0.16072,-1.8743 0.71363,-1.47415 2.20732,-2.61638 4.98212,-3.80959 2.70921,-1.16495 4.1272,-2.18403 4.90565,-3.52485 1.25668,-2.16445 1.1225,-4.42581 -0.36174,-6.08696 -0.88697,-0.9927 -1.18852,-0.87946 -0.7798,0.293 0.65948,1.89178 -1.45182,3.89751 -2.51095,2.38539 -0.55334,-0.79003 -0.53339,-1.47911 0.078,-2.67839 0.49114,-0.96329 0.49114,-0.98237 0,-0.98237 -0.27535,0 -0.50023,-0.0652 -0.50023,-0.14521 0,-0.56619 0.94287,-1.72049 2.02417,-2.47789 2.89619,-2.02868 3.79666,-3.24323 3.79666,-5.12165 0,-0.87323 -0.1928,-1.41107 -0.78651,-2.19573 -1.14734,-1.51636 -0.97485,-2.74037 0.4718,-3.34863 0.67459,-0.28362 0.68129,-0.30408 0.13385,-0.39998 -0.0474,-0.008 -0.0968,-0.0136 -0.14832,-0.0155 z m -69.315143,0.21084 c 0.34318,0 1.38182,0.80672 1.38182,1.07332 0,0.28322 -1.14203,0.34263 -1.41128,0.0734 -0.24494,-0.24493 -0.22173,-1.1467 0.0295,-1.1467 z m 59.519883,0.045 c 0.0911,0.009 0.0765,0.16515 0.0289,0.50178 -0.0623,0.4415 -0.28738,0.67165 -0.71572,0.73225 -0.76828,0.10871 -0.66323,-0.40025 0.20102,-0.9741 0.21704,-0.14412 0.35556,-0.23281 0.43976,-0.25477 0.0175,-0.005 0.033,-0.006 0.046,-0.005 z m -53.012793,4.18837 c -0.1106,0 0.14928,0.27076 0.57774,0.60152 0.42845,0.33076 1.25258,1.06293 1.83142,1.62677 2.20222,2.14523 4.91885,3.89956 9.40717,6.07508 5.17709,2.50934 4.75424,2.31564 4.75424,2.17558 0,-0.1577 -2.30639,-1.58917 -4.10105,-2.54507 -0.87308,-0.46502 -2.30187,-1.32543 -3.175,-1.91202 -0.87308,-0.58659 -1.76609,-1.06874 -1.98437,-1.07074 -0.52628,-0.006 -2.98016,-1.67855 -4.63021,-3.15588 -1.26949,-1.13661 -2.25245,-1.79524 -2.67994,-1.79524 z m 39.813593,2.64584 c -0.0728,0 -0.41167,0.29764 -0.75344,0.66145 -0.34178,0.3638 -0.56218,0.66146 -0.48938,0.66146 0.0728,0 0.41219,-0.29766 0.75396,-0.66146 0.34178,-0.36381 0.56166,-0.66145 0.48886,-0.66145 z m -33.993793,0.14934 c -0.041,-0.004 -0.0722,0.002 -0.0894,0.0191 -0.0688,0.0688 0.0505,0.23566 0.26458,0.37104 0.62282,0.39388 0.93806,0.29183 0.37363,-0.12093 -0.21169,-0.15479 -0.42579,-0.25691 -0.54881,-0.26923 z m 11.69851,0.23564 c -0.0613,0.0125 -0.0723,0.0634 -0.0202,0.1478 0.0889,0.14386 0.27389,0.26148 0.41083,0.26148 0.38058,0 0.29662,-0.18946 -0.16175,-0.36535 -0.0589,-0.0226 -0.10979,-0.0372 -0.15141,-0.0434 -0.0312,-0.005 -0.0571,-0.005 -0.0775,-5.2e-4 z m -7.54166,0.44339 c -0.0317,0.0168 0.0452,0.11978 0.20981,0.31936 0.19972,0.24211 0.46761,0.43977 0.59531,0.43977 0.40415,0 0.25291,-0.2347 -0.36277,-0.56276 -0.2699,-0.14382 -0.41062,-0.21318 -0.44235,-0.19637 z m -1.18029,0.49454 c -0.14552,0 -0.0334,0.17496 0.24908,0.38861 0.28247,0.21366 0.63273,0.38861 0.77825,0.38861 0.14552,0 0.0334,-0.17495 -0.24908,-0.38861 -0.28247,-0.21365 -0.63273,-0.38861 -0.77825,-0.38861 z m 2.64842,0.53795 c -0.16408,0.005 -0.067,0.18323 0.21549,0.39688 v -5.2e-4 c 0.65978,0.49944 0.83063,0.49569 0.41238,-0.008 -0.18116,-0.21829 -0.46379,-0.39309 -0.62787,-0.38809 z m -0.7922,0.58033 c -0.0263,-0.007 -0.044,-0.007 -0.0517,5.2e-4 -0.068,0.068 0.50311,0.55098 1.26918,1.07332 1.50215,1.02423 1.52549,1.03752 1.52549,0.87333 0,-0.19588 -2.34805,-1.84344 -2.74299,-1.94717 z m 1.43092,4.20181 c -0.23233,-0.009 -0.17068,0.1818 0.19741,0.57361 l 0.56534,0.60151 -3.36362,1.2914 c -1.84985,0.71035 -4.46006,1.7987 -5.80068,2.41845 -2.88626,1.3343 -3.51252,2.09495 -3.51452,4.26538 -0.001,1.50933 0.37408,2.07914 0.61754,0.93741 0.27112,-1.27141 1.13255,-2.33189 2.79517,-3.44217 1.66828,-1.11404 5.23727,-2.62814 6.72414,-2.85254 l 0.84233,-0.12712 -0.94051,0.37 c -1.24297,0.48914 -3.16053,1.47252 -3.16053,1.62057 0,0.0646 0.54542,-0.11669 1.21233,-0.40256 0.86627,-0.37134 1.81341,-0.51986 3.31607,-0.51986 2.25342,0 3.61908,0.40835 4.69222,1.40198 0.57638,0.53368 3.21479,4.23823 3.21479,4.51394 0,0.16501 -5.17846,3.65086 -6.54585,4.40645 -0.61683,0.34085 -1.07839,0.66258 -1.02629,0.71468 0.11957,0.11957 3.75432,-1.48047 5.85235,-2.57607 0.87313,-0.45596 1.34938,-0.63209 1.05833,-0.39171 -0.71246,0.58847 -3.3755,2.14279 -6.74687,3.93775 -4.51467,2.40366 -2.7187,1.6978 2.95072,-1.15962 2.88818,-1.45565 5.25136,-2.59741 5.25136,-2.53731 0,0.20262 -3.5551,2.44032 -5.88698,3.70571 -1.27326,0.69095 -2.3151,1.30713 -2.3151,1.36943 0,0.14117 4.5057,-2.14574 7.0776,-3.59255 1.05503,-0.59349 1.91823,-1.0334 1.91823,-0.9772 0,0.0562 -0.74414,0.67596 -1.65364,1.37666 -2.62784,2.02455 -2.68438,2.19345 -0.19844,0.59325 l 1.19062,-0.76636 -0.92604,0.82423 c -1.3846,1.23217 -5.20899,3.79678 -7.01817,4.70669 -1.62411,0.81683 -3.78508,1.51643 -4.00493,1.29657 -0.0669,-0.0669 1.13592,-0.72215 2.67271,-1.45625 1.53678,-0.73411 2.79414,-1.39267 2.79414,-1.46347 0,-0.0708 -1.04179,0.3206 -2.3151,0.86971 -1.27331,0.54911 -2.63949,1.07739 -3.03599,1.17409 -0.52708,0.12855 -0.78097,0.40625 -0.9431,1.0325 -0.45147,1.74381 -3.06492,2.08061 -5.23637,0.67489 -1.63216,-1.05661 -1.63284,-1.05749 -1.24333,-1.19683 0.20752,-0.0742 0.088,-0.32131 -0.33383,-0.69143 -1.1619,-1.01939 -2.97725,-7.21123 -3.06545,-10.45517 -0.032,-1.17578 -0.045,-1.15305 -0.27233,0.48627 -0.42035,3.03091 0.2259,7.09999 1.61747,10.18646 0.81879,1.81603 1.05437,2.04827 3.12797,3.08095 h 5.2e-4 c 2.16407,1.07753 4.69111,0.92479 6.1066,-0.36949 0.38393,-0.35106 1.47206,-0.96509 2.41794,-1.36477 3.69717,-1.56221 9.35672,-5.45264 11.691283,-8.03672 l 0.94413,-1.04541 2.281,2.21536 c 3.98681,3.87193 8.10144,6.57554 11.67422,7.67137 0.87312,0.2678 2.00422,0.76669 2.51354,1.10898 0.77985,0.5241 1.13489,0.59708 2.24896,0.46095 0.7276,-0.0889 1.95965,-0.48644 2.73782,-0.88315 1.54545,-0.78791 1.30045,-0.34987 3.2122,-5.74849 1.00033,-2.82482 1.59686,-5.82708 1.56166,-7.85998 l -0.0289,-1.66502 -0.37104,2.04639 c -0.204,1.12533 -0.90466,3.56611 -1.55701,5.42396 -1.14481,3.26035 -1.79666,4.30361 -2.68924,4.30361 -0.21074,0 -0.31825,0.10547 -0.23875,0.2341 0.18378,0.29737 -1.31059,0.92929 -1.7756,0.75085 -0.19184,-0.0736 -0.64037,0.0227 -0.99684,0.21395 -0.57697,0.30955 -0.4489,0.33556 1.16582,0.23461 0.99761,-0.0624 1.92034,-0.17944 2.05052,-0.25994 0.43755,-0.27042 0.2417,0.5926 -0.22634,0.99736 -1.55224,1.34236 -4.42562,1.25563 -5.60793,-0.16898 -0.18912,-0.22787 -0.59732,-0.41658 -0.90692,-0.41858 -1.04809,-0.008 -4.82633,-1.7308 -7.06623,-3.22151 -1.22551,-0.81558 -3.20074,-2.35839 -4.3894,-3.42822 -2.03524,-1.83173 -12.288183,-12.68677 -12.478833,-13.21159 -0.0485,-0.1336 0.11983,-0.16323 0.37414,-0.0656 0.9716,0.37283 0.0481,-0.46428 -1.22215,-1.10794 -0.80789,-0.40942 -1.33397,-0.61909 -1.56631,-0.62839 z m 6.13865,3.49281 c -0.0816,-0.0156 0.058,0.11035 0.42788,0.43253 0.67407,0.58721 0.95928,0.70197 0.69918,0.28112 -0.0895,-0.14474 -0.42379,-0.38963 -0.74311,-0.54415 -0.20628,-0.0998 -0.33499,-0.16013 -0.38395,-0.1695 z m 1.31671,0.1881 c -0.0401,0.006 -0.0579,0.0413 -0.0579,0.10129 0,0.21928 9.682293,9.25815 11.353323,10.59883 1.89151,1.51764 3.01297,2.16406 4.65397,2.68305 1.237,0.39118 1.66048,0.41162 2.38125,0.11523 0.42456,-0.17457 0.45072,-0.24734 0.1323,-0.36897 -0.21828,-0.0834 -1.05172,-0.39171 -1.85209,-0.68523 -0.80036,-0.29352 -2.34818,-1.0585 -3.43958,-1.69963 -2.11731,-1.24379 -7.90176,-5.93242 -11.018453,-8.93124 -1.38518,-1.33279 -1.97883,-1.84103 -2.15284,-1.81333 z m -0.41393,1.43712 c -0.0176,0.0441 0.56101,0.67965 1.54099,1.68259 1.306653,1.33726 2.426763,2.43138 2.489263,2.43138 0.19258,0 -2.686083,-2.98933 -3.806493,-3.95274 -0.14552,-0.12509 -0.2179,-0.17592 -0.22376,-0.16123 z m 12.081953,3.05822 c -0.11926,0.001 0.79552,0.51809 2.03244,1.14773 2.51502,1.28024 2.84996,1.39906 2.3952,0.85111 -0.29433,-0.35464 -3.94931,-2.00484 -4.42764,-1.99884 z m 2.16473,2.08256 0.66146,0.53898 c 0.63686,0.51918 1.05833,0.68893 1.05833,0.42581 0,-0.069 -0.38696,-0.3144 -0.8599,-0.54518 z m 3.00757,0.56482 c -0.16278,-0.011 0.78065,0.72697 2.01951,1.54823 1.75459,1.16313 1.71979,1.14342 1.71979,0.971 0,-0.11815 -2.62937,-1.94047 -3.43958,-2.38384 -0.16529,-0.0905 -0.26216,-0.13286 -0.29972,-0.13539 z m -0.47129,0.85834 c -0.0106,0.016 0.1118,0.11634 0.35812,0.31368 h 5.1e-4 c 0.53949,0.43219 0.67696,0.49078 0.67696,0.28836 0,-0.0676 -0.26789,-0.25268 -0.59531,-0.41135 -0.28582,-0.13851 -0.42967,-0.20667 -0.44028,-0.19069 z m -36.636533,1.19941 c -0.23653,-0.0627 0.0725,2.94634 0.3943,3.54759 0.1401,0.26179 0.35769,0.47594 0.48369,0.47594 0.25789,0 -0.43796,-3.35473 -0.82321,-3.96875 -0.0208,-0.0331 -0.039,-0.0506 -0.0548,-0.0548 z m 47.855483,0.68162 c -0.0833,0.0474 -0.26194,0.42905 -0.524,1.21801 -0.24661,0.74247 -0.83518,1.92473 -1.30793,2.62723 -0.67299,1.00006 -0.75718,1.25065 -0.38912,1.15445 0.78371,-0.20495 1.22174,-0.90475 1.83296,-2.9285 0.37302,-1.23506 0.5001,-2.00271 0.41806,-2.07119 -0.008,-0.007 -0.0181,-0.007 -0.03,0 z m -2.06344,3.07733 c -0.0553,0 -0.3159,0.23813 -0.57929,0.52917 -0.26341,0.291 -0.3459,0.52916 -0.18294,0.52916 0.16295,0 0.42405,-0.23816 0.57981,-0.52916 0.15581,-0.29104 0.23772,-0.52917 0.18242,-0.52917 z m -37.957373,1.09347 c -0.0268,-0.002 -0.0625,8.4e-4 -0.10697,0.007 -0.21323,0.0307 -0.62932,0.15488 -1.25006,0.37103 -0.64018,0.22294 -1.53319,0.34177 -1.98437,0.26407 l -0.82011,-0.14159 0.79375,0.38189 c 1.10005,0.52886 1.43375,0.49746 2.64584,-0.24909 0.66721,-0.41091 0.9098,-0.62163 0.72192,-0.63355 z m -6.39134,0.38809 c -0.0125,0.005 -0.0191,0.0156 -0.0191,0.0326 0,0.36409 1.09418,1.3261 1.85208,1.62832 0.36373,0.14503 0.6912,0.27161 0.7276,0.28061 0.0363,0.009 0.0661,-0.10253 0.0661,-0.24805 0,-0.14552 -0.17487,-0.26458 -0.38809,-0.26458 -0.21322,0 -0.80853,-0.3695 -1.32292,-0.82114 -0.45008,-0.39519 -0.82812,-0.64259 -0.9157,-0.60772 z m 42.135413,0.12713 c -0.12986,0.002 -0.39577,0.13036 -0.73174,0.38447 -0.41111,0.31096 -0.43096,0.38861 -0.0987,0.38861 0.22828,0 0.56351,-0.1786 0.74466,-0.39688 0.20953,-0.25267 0.21564,-0.37784 0.0858,-0.3762 z m -5.90662,0.28835 -0.66146,0.008 0.66146,0.21188 c 0.3638,0.11651 0.89958,0.2151 1.19063,0.2191 l 0.52916,0.008 -0.52916,-0.22737 c -0.29105,-0.12512 -0.82683,-0.22363 -1.19063,-0.21963 z m -1.85983,0.43098 c -0.23732,0.006 0.0522,0.18802 0.88625,0.4961 0.4625,0.17083 1.19848,0.30624 1.63504,0.30024 0.546,-0.007 0.62858,-0.0522 0.26458,-0.14418 -0.291,-0.0736 -1.09798,-0.28114 -1.79317,-0.46147 -0.51795,-0.13435 -0.85031,-0.19429 -0.9927,-0.19069 z m 8.50542,0.0532 c -0.14552,0 -0.33798,0.11906 -0.42788,0.26458 -0.0899,0.14552 -0.0447,0.26459 0.10077,0.26459 0.14552,0 0.3385,-0.11907 0.4284,-0.26459 0.0899,-0.14552 0.0442,-0.26458 -0.10129,-0.26458 z m -42.057383,1.08985 c -0.0663,0.006 0.0453,0.10483 0.339,0.34417 0.57936,0.47206 1.20613,0.55162 1.20613,0.15348 0,-0.14552 -0.16879,-0.26458 -0.37517,-0.26458 -0.20638,0 -0.59333,-0.0689 -0.8599,-0.15348 -0.16632,-0.0528 -0.2703,-0.0831 -0.31006,-0.0796 z m 4.43332,0.53072 c -0.0919,-0.004 -0.19647,0.013 -0.29197,0.0512 -0.21107,0.0845 -0.14854,0.14698 0.15968,0.15968 0.27887,0.0115 0.43517,-0.0511 0.34727,-0.13901 -0.044,-0.044 -0.12306,-0.068 -0.21498,-0.0718 z m 36.203993,1.82315 c -0.40018,-0.002 -0.7276,0.11493 -0.7276,0.26045 0,0.3345 0.54067,0.3345 1.05833,0 0.30927,-0.19983 0.23626,-0.25745 -0.33073,-0.26045 z"
       sodipodi:nodetypes="ccssssssssssccsssssssssssssccccssccccssssscsscccccccccccccsssscscsssscsscssssssssccssssscccssssssssccsssssssssssscccccccssssssccscssscccccscccsssssssccccssssssssssssssssssscccsssssssssscsssssssssssssssssssscssscsscsssssssssscssssssscsssscscsssscscsscsssssssssssssssssssssssscscssscsssssssssscssssscscsssssssssssssccsssssssssssssssssscsssssssssssscsssscsssssssssssssssssssssssssssscccscsssssssccscsssccssssssssssssscsssscsssssscsssssssccsscccssssscccsssssscsscssssssssssssssssssssssssssssssccsscssssssccssssssssssscssssssssscsccsssssscssssssscsccscccssscssssssssssssssssssscsscsscsssscssccscccscssccssssssssssssssccsscccssc" /><text
       xml:space="preserve"
       style="font-style:normal;font-variant:normal;font-weight:normal;font-stretch:normal;font-size:8.16739px;font-family:Cyberpunks;-inkscape-font-specification:Cyberpunks;text-align:center;text-anchor:middle;fill:none;stroke:#000000;stroke-width:0.506442;stroke-linecap:square;stroke-dasharray:none"
       x="101.13062"
       y="155.87556"
       id="text9"><tspan
         sodipodi:role="line"
         id="tspan9"
         style="font-size:8.16739px;stroke-width:0.506442;stroke-dasharray:none"
         x="101.13062"
         y="155.87556">Les</tspan></text><text
       xml:space="preserve"
       style="font-style:normal;font-variant:normal;font-weight:normal;font-stretch:normal;font-size:8.16739px;line-height:3.54132px;font-family:Cyberpunks;-inkscape-font-specification:Cyberpunks;text-align:center;text-anchor:middle;fill:none;stroke:#000000;stroke-width:0.506442;stroke-linecap:square;stroke-dasharray:none"
       x="101.13062"
       y="172.88979"
       id="text11"><tspan
         sodipodi:role="line"
         id="tspan11"
         style="stroke-width:0.506442;stroke-dasharray:none"
         x="101.13062"
         y="172.88979">collés</tspan></text><path
       style="fill:#000000;stroke-width:0.147455"
       d="m 67.845642,181.2583 c -0.686807,-0.14433 -1.678219,-0.73512 -2.775982,-1.65423 -0.502064,-0.42035 -1.287468,-1.16251 -1.287468,-1.21657 0,-0.0242 0.05067,-0.15604 0.112619,-0.29312 0.155749,-0.34468 0.300049,-0.81751 0.381443,-1.24989 0.102206,-0.54292 0.101624,-2.15952 -9.14e-4,-2.55973 -0.03991,-0.15576 -0.08489,-0.29082 -0.09995,-0.30013 -0.01506,-0.009 -0.04816,0.32881 -0.07355,0.75137 -0.04767,0.79349 -0.150768,1.60086 -0.282437,2.21183 -0.09233,0.42842 -0.307096,1.1119 -0.349389,1.1119 -0.01697,0 -0.08436,-0.0609 -0.149747,-0.13541 l -0.118887,-0.1354 0.135758,-0.40104 c 0.415717,-1.22806 0.60681,-2.40863 0.48802,-3.01499 -0.0375,-0.19143 -0.03024,-0.21604 -0.218794,0.74127 -0.170353,0.8649 -0.331939,1.48052 -0.512245,1.95159 l -0.137689,0.35973 -0.143068,-0.0714 c -0.07869,-0.0393 -0.380078,-0.18425 -0.669758,-0.32214 -0.572139,-0.27233 -1.177977,-0.65492 -1.638596,-1.03477 -0.230825,-0.19036 -0.312102,-0.23657 -0.384941,-0.21887 -0.229241,0.0557 -0.317229,0.065 -0.316127,0.0333 5.71e-4,-0.0188 0.150966,-0.23604 0.33403,-0.4828 0.326731,-0.44043 0.573685,-0.88029 0.624265,-1.11191 0.03288,-0.15057 0.04004,-0.15788 -0.585159,0.59785 -0.396452,0.47923 -0.658136,0.83246 -0.867851,1.17144 -0.01831,0.0296 -0.532494,0.20228 -0.550042,0.18473 -0.04431,-0.0443 0.178047,-0.3195 0.514539,-0.6368 0.398599,-0.37587 0.681511,-0.72446 0.87908,-1.08313 l 0.128939,-0.23409 -0.346783,0.33505 c -0.19073,0.18427 -0.531126,0.49346 -0.756433,0.68707 -0.527477,0.45328 -0.946952,0.89652 -1.032964,1.09147 -0.05014,0.11365 -0.108963,0.17179 -0.224369,0.22179 -0.08603,0.0373 -0.164854,0.0593 -0.175171,0.049 -0.01032,-0.0103 0.03126,-0.11084 0.0924,-0.22339 0.155324,-0.28595 0.616277,-0.76326 1.145033,-1.18567 0.442478,-0.35348 0.834438,-0.71959 0.803513,-0.75052 -0.0087,-0.009 -0.0848,0.0276 -0.169072,0.0809 -0.08427,0.0532 -0.328067,0.18446 -0.541777,0.29171 -1.075792,0.53985 -1.721438,1.17025 -1.909278,1.86419 -0.04286,0.15836 -0.100384,0.27802 -0.150506,0.31311 -0.196787,0.13777 -0.811933,0.48696 -0.82856,0.47034 -0.02452,-0.0245 0.230247,-0.52693 0.428196,-0.84445 0.509694,-0.81757 1.263291,-1.56108 2.060658,-2.03306 0.190213,-0.1126 0.345816,-0.21501 0.345788,-0.2276 -2.9e-5,-0.0126 -0.128668,-0.27744 -0.285865,-0.58857 -0.501295,-0.99221 -0.843687,-2.3159 -0.845173,-3.26744 -1.48e-4,-0.11266 -0.01103,-0.20483 -0.02411,-0.20483 -0.01308,0 -0.122811,0.0905 -0.243838,0.20119 -0.23489,0.21476 -0.735731,0.5641 -0.765726,0.5341 -0.0099,-0.01 0.01,-0.15545 0.04422,-0.32339 0.03425,-0.16793 0.09086,-0.50863 0.125809,-0.75709 l 0.06354,-0.45176 0.19507,-0.1485 c 0.10729,-0.0817 0.274075,-0.17193 0.370634,-0.20058 0.160619,-0.0476 0.177863,-0.065 0.202577,-0.20404 0.01486,-0.0836 0.02802,-0.219 0.02926,-0.30093 l 0.0022,-0.14896 -0.107288,0.077 c -0.150939,0.10828 -0.396605,0.34618 -0.570607,0.55257 -0.124083,0.14717 -0.14465,0.15979 -0.127206,0.078 0.03109,-0.14574 0.03662,-0.91474 0.009,-1.24846 -0.01333,-0.16093 -0.04392,-0.49264 -0.06799,-0.73713 l -0.04375,-0.44453 0.09304,-0.0706 c 0.196994,-0.14939 0.750667,-0.4375 1.188882,-0.61861 l 0.457434,-0.18905 0.225953,-0.44163 c 0.124276,-0.24289 0.220278,-0.4473 0.213339,-0.45424 -0.02381,-0.0238 -0.432075,0.17376 -0.705063,0.34118 -0.419987,0.25758 -0.706719,0.48871 -1.119315,0.90228 -0.434555,0.43557 -0.37882,0.46569 -0.477285,-0.2579 -0.104295,-0.76643 -0.134406,-0.66713 0.281435,-0.92801 0.459827,-0.28847 1.201046,-0.65751 1.529743,-0.76163 0.287867,-0.0912 0.582298,-0.15132 0.902654,-0.18438 l 0.219906,-0.0227 0.271107,-0.39764 c 0.149108,-0.2187 0.285425,-0.4222 0.302923,-0.45221 0.02639,-0.0453 -0.0041,-0.0498 -0.178898,-0.0268 -0.498109,0.0657 -1.238234,0.3898 -1.92792,0.84423 -0.460538,0.30344 -1.047451,0.76231 -1.265282,0.98924 -0.214959,0.22394 -0.23625,0.19871 -0.235722,-0.27934 7.42e-4,-0.65625 0.134191,-1.04 0.471417,-1.35543 0.478292,-0.44739 1.72416,-0.81979 3.522795,-1.05298 l 0.463893,-0.0601 0.659241,-0.67995 c 1.761559,-1.81689 3.756313,-3.27215 6.352362,-4.63431 2.138144,-1.1219 4.94663,-2.1722 7.373683,-2.75757 0.886431,-0.21379 1.13278,-0.25093 1.498611,-0.22593 0.392859,0.0268 0.655884,0.11693 0.783195,0.26823 0.143073,0.17004 0.159727,0.29019 0.08016,0.57839 -0.20038,0.72587 -0.230383,0.91427 -0.233047,1.46337 -0.0021,0.41918 0.01348,0.59837 0.06672,0.77053 0.03815,0.12338 0.0873,0.22433 0.109226,0.22433 0.152721,0 0.516623,-0.30302 0.749627,-0.62422 0.08561,-0.11802 0.210245,-0.27321 0.276961,-0.34487 0.139823,-0.15017 0.446985,-0.31838 0.581376,-0.31838 0.220953,0 0.368156,0.38456 0.327925,0.85669 -0.09046,1.06165 -1.386261,3.15193 -3.423258,5.52213 -0.480891,0.55956 -1.389162,1.56043 -1.540097,1.69712 l -0.1077,0.0975 0.02712,-0.11704 c 0.07877,-0.33987 0.416541,-0.9067 0.798949,-1.34075 0.120343,-0.13659 0.2575,-0.29633 0.304793,-0.35497 l 0.08599,-0.10662 -0.378594,0.11385 c -0.871711,0.26214 -1.898483,0.40899 -2.571624,0.3678 -0.577947,-0.0353 -0.604655,-0.0799 -0.08107,-0.13507 2.603306,-0.27452 4.66829,-1.6369 5.747082,-3.79165 0.18615,-0.37181 0.384312,-0.85692 0.359982,-0.88124 -0.0071,-0.007 -0.08454,0.0785 -0.171972,0.19028 -0.511498,0.65408 -1.490323,1.62184 -2.217467,2.1924 -0.830496,0.65164 -1.988489,1.31095 -2.872839,1.63566 -0.80931,0.29716 -1.774232,0.48055 -2.299392,0.43701 -1.131216,-0.0938 -1.804664,-0.6507 -2.008708,-1.66118 -0.117728,-0.58302 -0.02973,-1.53016 0.213968,-2.30307 0.04398,-0.13947 0.08019,-0.26463 0.08046,-0.27812 2.95e-4,-0.0135 -0.107743,0.0128 -0.240044,0.0585 -0.286274,0.0988 -0.336298,0.16603 -0.497515,0.66826 -0.252269,0.78589 -0.378043,1.65405 -0.341952,2.36036 0.05747,1.12485 0.528966,1.73476 1.575527,2.03809 0.261839,0.0759 0.395039,0.0882 0.954995,0.0882 0.357895,0 0.630019,0.011 0.60472,0.0244 -0.0253,0.0134 -0.212781,0.0561 -0.41663,0.0947 -0.534009,0.10121 -1.359714,0.0936 -1.769442,-0.0163 -0.82909,-0.2224 -1.384576,-0.7695 -1.609659,-1.58536 -0.09876,-0.35796 -0.117092,-1.2746 -0.03586,-1.79264 0.05755,-0.367 0.210854,-1.032 0.278625,-1.20861 0.03577,-0.0932 -0.03976,-0.0759 -0.394423,0.0903 -0.192079,0.09 -0.332847,0.18118 -0.346378,0.22433 -0.07814,0.24921 -0.188399,1.09621 -0.207533,1.59425 -0.06297,1.639 0.397547,2.63958 1.431704,3.11073 0.583446,0.26581 1.481493,0.4051 2.204302,0.34192 1.187532,-0.10382 2.080394,-0.37367 3.359051,-1.01522 l 0.745098,-0.37384 -0.10698,0.23617 c -0.05884,0.12989 -0.188133,0.49073 -0.287319,0.80187 -0.09919,0.31114 -0.19322,0.58531 -0.208963,0.60926 -0.01574,0.0239 -0.237442,0.26428 -0.492662,0.53406 l -0.464038,0.49051 -0.163404,0.51932 c -0.350533,1.11405 -0.749139,2.0115 -1.183715,2.66511 -0.323642,0.48675 -0.90491,1.06951 -0.670495,0.6722 0.148482,-0.25166 0.556257,-1.26899 0.821927,-2.05058 0.148824,-0.43783 0.270589,-0.81288 0.270589,-0.83344 0,-0.0206 -0.149229,0.0985 -0.33162,0.26449 -0.264616,0.24088 -0.331621,0.32385 -0.331621,0.41062 0,0.44287 -0.534725,2.28588 -0.723856,2.49487 -0.05653,0.0625 -0.404604,0.1697 -0.439043,0.13526 -0.0071,-0.007 0.02502,-0.0874 0.07145,-0.17844 0.20402,-0.39992 0.78564,-2.11162 0.734784,-2.16247 -0.0082,-0.008 -0.11632,0.0825 -0.240231,0.20155 l -0.225294,0.21651 -0.03444,0.35619 c -0.04213,0.43574 -0.0872,0.64391 -0.237602,1.09746 -0.150934,0.45516 -0.175478,0.49251 -0.256382,0.39014 -0.06301,-0.0797 -0.05999,-0.40794 0.01073,-1.16717 l 0.02514,-0.26985 -0.756888,0.66334 c -0.925824,0.81139 -1.996598,1.70581 -2.814885,2.35127 -0.33796,0.26658 -0.614473,0.50609 -0.614473,0.53224 0,0.0668 0.794984,0.76704 1.20191,1.05874 0.425925,0.30531 1.102375,0.64592 1.509576,0.76012 0.408899,0.11466 1.134715,0.12496 1.471206,0.0209 0.372869,-0.11534 0.672133,-0.35293 1.095286,-0.86958 0.643506,-0.78568 1.124106,-1.23836 1.729029,-1.62858 0.342385,-0.22087 0.891885,-0.4979 1.068931,-0.53891 0.188069,-0.0436 0.420681,0.026 0.550114,0.1646 0.110665,0.11846 0.362249,0.71732 0.332796,0.79217 -0.0092,0.0233 -0.03775,-0.0146 -0.06348,-0.0844 -0.05565,-0.15085 -0.07756,-0.15272 -0.509642,-0.0437 -0.563429,0.14215 -1.078029,0.41994 -1.616798,0.87277 -0.301883,0.25373 -0.955812,1.02539 -0.955812,1.12789 0,0.01 0.162397,-0.0929 0.360881,-0.22785 0.889236,-0.60467 1.628013,-0.89379 2.496909,-0.97718 l 0.263345,-0.0253 2.94e-4,0.10972 c 1.48e-4,0.0603 -0.03793,0.29581 -0.08467,0.52324 l -0.08497,0.41351 -0.354243,0.0628 c -0.812507,0.14406 -1.60353,0.4612 -2.064438,0.8277 -0.12521,0.0996 -0.221771,0.18536 -0.214579,0.19067 0.0072,0.005 0.179864,-0.005 0.383713,-0.0219 0.299792,-0.0255 1.696257,-0.0435 1.931202,-0.0248 0.07214,0.006 0.07255,-0.0371 -0.0068,0.7134 l -0.06596,0.62423 -0.626881,-0.0143 c -0.59223,-0.0135 -1.188031,0.0367 -1.306906,0.11017 -0.03372,0.0208 0.01964,0.0538 0.158544,0.098 0.460663,0.14645 0.779366,0.27439 1.285963,0.51626 l 0.530399,0.25323 0.0845,0.42825 c 0.09859,0.4997 0.294012,1.05004 0.536056,1.50965 0.0945,0.17944 0.171826,0.33439 0.171826,0.34431 0,0.0483 -1.850558,-0.98446 -2.282331,-1.27364 -0.08583,-0.0575 -0.223481,-0.14524 -0.305888,-0.195 l -0.149832,-0.0905 0.07812,0.15167 c 0.337768,0.65575 1.130242,1.4581 2.001107,2.02604 0.381573,0.24884 1.356979,0.74631 1.868264,0.95283 0.284346,0.11486 0.522214,0.24777 0.777653,0.43452 0.202404,0.14799 0.351632,0.26893 0.331622,0.26879 -0.09855,-5.8e-4 -0.709994,-0.16905 -1.109275,-0.30535 -1.025523,-0.35006 -1.514663,-0.61627 -2.431361,-1.32325 -1.418894,-1.09428 -2.41309,-1.62343 -3.149537,-1.67628 -0.344717,-0.0247 -1.061737,0.0501 -1.208799,0.12613 -0.15854,0.082 -0.379348,0.34871 -0.425115,0.51354 -0.02277,0.082 -0.04149,0.27635 -0.04161,0.43192 -1.48e-4,0.20349 -0.01421,0.28285 -0.05009,0.28285 -0.09258,0 -0.627878,-0.27661 -0.870872,-0.45 -0.132703,-0.0947 -0.337579,-0.27859 -0.455281,-0.40866 l -0.214005,-0.23648 -0.42326,0.0111 -0.42326,0.0111 0.389221,0.25739 c 0.704633,0.46597 1.079511,0.66371 1.696197,0.89467 0.321855,0.12055 0.324037,0.12476 0.255152,0.49195 l -0.02501,0.1333 -0.202855,-0.023 c -0.811249,-0.0917 -1.500945,-0.38407 -2.084117,-0.88337 -0.254625,-0.218 -0.541026,-0.53635 -0.704623,-0.78322 -0.0832,-0.12556 -0.117577,-0.14631 -0.242381,-0.14631 -0.07998,0 -0.228926,-0.0114 -0.33098,-0.0254 -0.175125,-0.024 -0.18327,-0.0212 -0.144945,0.0504 0.09497,0.17744 0.649999,0.76443 0.950349,1.00506 0.394818,0.31631 1.05621,0.65141 1.515039,0.7676 0.192246,0.0487 0.517666,0.0926 0.774285,0.1046 l 0.442665,0.0206 -0.02054,0.10269 c -0.01129,0.0565 -0.05852,0.20421 -0.104952,0.3283 -0.09894,0.26446 -0.0617,0.26258 -0.740333,0.0372 -1.016996,-0.3377 -1.860926,-0.85371 -2.598551,-1.58885 -0.259754,-0.25887 -0.542743,-0.57602 -0.628866,-0.70476 l -0.156586,-0.23409 -0.385504,-0.069 c -0.212027,-0.038 -0.400164,-0.0687 -0.418082,-0.0683 -0.103505,0.002 0.81136,0.97833 1.261526,1.3458 0.869573,0.70983 1.955979,1.22645 3.091874,1.47027 0.230671,0.0495 0.419402,0.10393 0.419402,0.12091 0,0.063 -0.336823,0.36455 -0.486307,0.43535 -0.177719,0.0842 -0.583,0.11385 -0.8342,0.0611 z m -0.476677,-3.69214 0.242999,-0.0254 -0.617665,-0.20527 c -0.736201,-0.24467 -1.371982,-0.52117 -1.824211,-0.79335 -0.181897,-0.10947 -0.339675,-0.19904 -0.350621,-0.19904 -0.01094,0 -0.03874,0.0746 -0.06177,0.16582 -0.06646,0.26319 -0.23825,0.65226 -0.342926,0.77666 -0.05285,0.0628 -0.08952,0.12051 -0.08148,0.12822 0.01963,0.0189 0.908331,0.0972 1.536161,0.13551 0.682855,0.0416 1.206149,0.0475 1.499515,0.0169 z m 3.833347,-0.25227 c 0.611048,-0.0665 0.60864,-0.0982 -0.0094,-0.12388 -2.272045,-0.0945 -4.471411,-1.0924 -6.160243,-2.79507 -0.245661,-0.24768 -0.434413,-0.41842 -0.419451,-0.37942 0.126623,0.32997 0.261387,1.18602 0.261387,1.66037 v 0.18283 l 0.243838,0.14092 c 1.164376,0.67292 2.546035,1.1273 3.942476,1.29652 0.546866,0.0663 1.613975,0.0751 2.141409,0.0177 z m -8.417636,-0.27828 c 0.01008,-0.0483 0.06397,-0.31602 0.119746,-0.59497 0.113005,-0.56521 0.326187,-1.40013 0.447416,-1.75229 0.04369,-0.1269 0.07074,-0.23942 0.06011,-0.25005 -0.0273,-0.0273 -0.459847,0.88704 -0.606552,1.28218 -0.06739,0.18151 -0.16417,0.51274 -0.215064,0.73607 l -0.09254,0.40606 0.105752,0.12757 c 0.126979,0.15319 0.157037,0.16072 0.181126,0.0454 z m 1.83112,-0.71971 c 0.08256,-0.3638 0.08294,-1.00151 7.42e-4,-1.3358 -0.03461,-0.14084 -0.07411,-0.26841 -0.08778,-0.28347 -0.01367,-0.0151 -0.01901,0.27977 -0.01185,0.65519 0.01199,0.62921 -0.02024,1.01001 -0.130102,1.53749 -0.04785,0.22972 0.17117,-0.31883 0.228941,-0.57341 z m -2.238115,0.29618 c 0,-0.32757 0.259918,-1.15713 0.543016,-1.73309 0.105175,-0.21399 0.18638,-0.39403 0.180454,-0.4001 -0.0059,-0.006 -0.12652,0.12543 -0.267987,0.29222 -0.296284,0.34932 -0.533387,0.74612 -0.715054,1.19668 -0.07001,0.17364 -0.142477,0.32076 -0.161039,0.32695 -0.05144,0.0171 -0.348679,-0.3524 -0.467189,-0.58082 -0.146066,-0.28154 -0.168311,-0.66447 -0.0525,-0.9037 0.183991,-0.38008 0.76431,-0.83896 1.525511,-1.20627 0.369461,-0.17829 1.48278,-0.57705 1.61107,-0.57705 0.0284,0 0.181724,-0.14337 0.340712,-0.31859 0.293716,-0.32371 0.880654,-0.83 1.575506,-1.35902 1.973238,-1.50233 3.211469,-2.66683 4.708471,-4.42811 0.865109,-1.01784 2.171014,-2.72133 2.10345,-2.74385 -0.153262,-0.0511 -1.913728,0.32329 -2.442401,0.5194 -0.367692,0.13639 -0.514367,0.26562 -0.812169,0.71556 -0.595666,0.9 -1.179042,1.39246 -1.957033,1.65207 -0.217054,0.0724 -0.354929,0.0902 -0.699497,0.0902 -0.517003,-4e-5 -0.864471,-0.0794 -1.295212,-0.29577 -0.166592,-0.0837 -0.323132,-0.15217 -0.347863,-0.15217 -0.130243,0 -1.311364,0.90223 -2.103443,1.60677 -1.121514,0.99756 -1.894515,1.97445 -2.417735,3.05543 -0.379901,0.78488 -0.604708,1.57628 -0.604708,2.12881 0,0.22729 4.42e-4,0.22807 0.126795,0.24722 0.06974,0.0106 0.309677,0.0292 0.533199,0.0414 0.503637,0.0275 0.648586,0.11056 0.383635,0.21983 -0.173196,0.0714 -0.439005,0.32298 -0.614313,0.58136 -0.170892,0.25186 -0.429316,0.75403 -0.429316,0.83424 0,0.0683 0.201672,0.2384 0.936341,0.78973 0.629948,0.47274 0.747432,0.55585 0.790037,0.55882 0.01609,0.001 0.02926,-0.07 0.02926,-0.15813 z m 8.895235,-0.50316 c 0.449202,-0.0457 0.908405,-0.11887 0.886176,-0.1411 -0.0089,-0.009 -0.233926,1.1e-4 -0.499979,0.0201 -2.226673,0.1673 -4.51857,-0.78516 -6.226729,-2.58769 l -0.388956,-0.41044 -0.09888,0.10634 c -0.05438,0.0585 -0.128364,0.15288 -0.164405,0.20977 l -0.06553,0.10343 0.385638,0.38563 c 0.941506,0.94151 1.938854,1.56987 3.110047,1.95943 0.987006,0.32829 2.079151,0.45472 3.062614,0.35454 z m -0.253592,-1.34025 c 0.150205,-0.0331 0.378438,-0.0959 0.507185,-0.13959 l 0.234086,-0.0794 -0.175565,0.0182 c -0.09656,0.01 -0.34235,0.038 -0.546199,0.0622 -0.688926,0.0819 -1.578679,-0.0203 -2.194347,-0.25201 -0.924311,-0.3479 -1.802754,-1.05178 -2.3679,-1.89734 -0.136247,-0.20385 -0.268086,-0.36877 -0.292976,-0.3665 -0.0561,0.005 -0.723806,0.52687 -0.723806,0.56557 0,0.0911 0.936466,0.85074 1.454213,1.17962 0.742008,0.47133 1.743924,0.8548 2.505727,0.95905 0.373873,0.0512 1.267578,0.0234 1.599582,-0.0498 z m -10.873415,-2.60008 c 0.650422,-1.87866 2.175235,-3.92214 4.158094,-5.57247 0.256961,-0.21387 0.295265,-0.26017 0.234085,-0.2829 -0.06409,-0.0238 -0.05866,-0.0337 0.04389,-0.0802 0.091,-0.0412 0.31234,-0.0497 0.994863,-0.0381 2.169456,0.0371 2.178379,0.0368 2.428633,-0.0861 0.123383,-0.0606 0.224331,-0.12385 0.224331,-0.14059 0,-0.0167 -0.09217,-0.006 -0.204824,0.025 -0.1739,0.0471 -0.363866,0.0483 -1.258207,0.008 -1.521042,-0.068 -2.411415,0.0199 -2.796272,0.27616 -0.200797,0.13367 -1.272894,1.20773 -1.674329,1.67739 -1.428075,1.67079 -2.340829,3.52342 -2.436957,4.94634 l -0.02034,0.30107 0.09611,-0.35113 c 0.05286,-0.19312 0.147774,-0.50036 0.210922,-0.68275 z m -0.871342,-0.91684 c 0.300583,-0.7344 0.901907,-1.79846 1.477203,-2.61395 1.361173,-1.92947 3.155694,-3.66741 5.371273,-5.20192 0.375511,-0.26009 0.712554,-0.49523 0.748983,-0.52253 0.06191,-0.0464 0.06064,-0.0668 -0.01951,-0.31216 -0.04716,-0.14439 -0.101864,-0.26289 -0.121568,-0.26335 -0.01971,-4.5e-4 -0.221603,0.12514 -0.448663,0.2791 -1.995521,1.35309 -3.960139,3.15979 -5.178548,4.76231 -0.929179,1.22209 -1.567055,2.4669 -1.870305,3.64985 -0.187974,0.73327 -0.181717,0.76713 0.04113,0.22265 z m -0.19695,-2.02176 c 0.307869,-0.74702 0.661878,-1.36696 1.2516,-2.19177 1.310464,-1.83289 3.391752,-3.7352 5.798545,-5.29992 l 0.530849,-0.34512 0.02658,-0.35213 c 0.01462,-0.19367 0.01686,-0.36184 0.005,-0.37371 -0.0314,-0.0314 -1.172381,0.74259 -1.885234,1.27885 -2.792702,2.10085 -4.75532,4.34325 -5.547656,6.3385 -0.164812,0.41502 -0.416523,1.39118 -0.336692,1.30571 0.0083,-0.009 0.07901,-0.17113 0.157016,-0.36041 z m -1.675722,-1.15606 c 0.08664,-0.0848 0.279585,-0.22088 0.42876,-0.30236 l 0.271226,-0.14814 0.104559,-0.36088 c 0.05751,-0.19848 0.09346,-0.36032 0.0799,-0.35964 -0.02786,0.001 -0.07748,0.0383 -0.313351,0.23284 -0.288662,0.23812 -0.858582,1.00501 -0.794501,1.06909 0.04009,0.0401 0.0616,0.0275 0.223407,-0.13091 z m 10.678445,-1.23566 c 0.578944,-0.17002 0.946972,-0.5059 1.454153,-1.32713 0.170403,-0.27591 0.369087,-0.57627 0.441521,-0.66747 l 0.1317,-0.16581 h -0.475931 c -0.412429,0 -0.493277,0.0107 -0.605946,0.0804 -0.19788,0.1223 -0.321531,0.14705 -1.166115,0.23341 -2.316875,0.2369 -3.827281,0.60639 -4.370137,1.06906 l -0.117043,0.0998 0.260776,-0.11427 c 0.907234,-0.39756 1.763917,-0.57009 3.991771,-0.8039 0.805261,-0.0845 1.247493,-0.16347 1.511801,-0.26991 0.123381,-0.0497 0.224331,-0.0829 0.224331,-0.0738 0,0.009 -0.03759,0.0904 -0.08352,0.18078 -0.44664,0.8784 -1.258872,1.4565 -2.073934,1.47611 l -0.202904,0.005 0.175565,0.0318 c 0.292489,0.053 0.718708,-0.0272 1.089387,-0.20489 0.25868,-0.12402 0.393594,-0.22253 0.633979,-0.46292 0.167955,-0.16795 0.305371,-0.29681 0.305371,-0.28635 0,0.0723 -0.298917,0.46053 -0.486527,0.63184 -0.598907,0.54688 -1.284724,0.65008 -2.185945,0.32893 -0.421016,-0.15002 -0.760776,-0.22504 -0.760776,-0.16798 0,0.0159 0.153617,0.1015 0.341373,0.19031 0.304674,0.14412 0.614321,0.23846 0.965602,0.29421 0.200468,0.0318 0.783606,-0.013 1.001449,-0.077 z m -1.450113,-1.02537 c 1.343838,-0.0358 1.5136,-0.0583 1.931202,-0.25547 0.232015,-0.10955 0.440997,-0.27543 0.399596,-0.31717 -0.01626,-0.0164 -0.14702,0.0184 -0.290584,0.0774 -0.143564,0.059 -0.419942,0.14055 -0.614174,0.18131 -0.33123,0.0695 -0.600662,0.0945 -2.072047,0.19214 -0.560785,0.0372 -0.809477,0.0836 -0.895053,0.16675 -0.02535,0.0247 0.01565,0.0293 0.117042,0.0134 0.08583,-0.0135 0.726639,-0.0397 1.424018,-0.0583 z m -5.891142,-1.3662 c 1.544565,-1.65891 3.598138,-3.30126 5.719513,-4.5742 l 0.511455,-0.3069 0.04423,-0.24314 c 0.02433,-0.13372 0.05552,-0.29281 0.06931,-0.35352 0.02442,-0.10751 0.013,-0.10305 -0.438477,0.17104 -2.779502,1.68743 -5.137323,3.73669 -6.371737,5.53788 -0.245454,0.35815 -0.470747,0.72796 -0.470464,0.77224 9.6e-5,0.0151 0.101046,-0.0866 0.224331,-0.22604 0.123286,-0.13947 0.443612,-0.48928 0.711834,-0.77736 z m 5.088163,0.65439 0.465276,-0.079 0.510226,-0.36026 c 0.280624,-0.19814 0.619953,-0.42609 0.754064,-0.50655 0.134112,-0.0805 0.243839,-0.15362 0.243839,-0.16256 0,-0.009 -0.08339,-0.10863 -0.185317,-0.22153 -0.101925,-0.11289 -0.220589,-0.25404 -0.263697,-0.31366 l -0.07838,-0.10841 -0.701904,0.61462 c -0.806157,0.70591 -1.400758,1.27967 -1.287265,1.24215 0.04283,-0.0142 0.287256,-0.0613 0.543157,-0.10478 z m 6.545124,-3.54577 c 0.366523,-0.0779 0.717702,-0.20634 1.137752,-0.41611 0.250786,-0.12525 0.26537,-0.13971 0.240256,-0.2383 -0.06575,-0.25815 -0.09195,-0.83627 -0.05734,-1.2653 0.09115,-1.12989 0.378234,-1.94446 1.041674,-2.95566 0.791129,-1.20582 1.537356,-1.93884 2.308979,-2.26812 l 0.256918,-0.10963 -0.234085,-1.4e-4 c -0.686497,-3.8e-4 -1.553099,0.72809 -2.590984,2.17799 -0.536601,0.74961 -0.879836,1.53046 -1.040277,2.3666 -0.0715,0.3726 -0.09488,1.14191 -0.04562,1.50063 l 0.02947,0.21458 -0.09431,-0.11337 c -0.237172,-0.28513 -0.294638,-1.02838 -0.163779,-2.11828 0.08167,-0.68017 0.09097,-1.05688 0.02897,-1.17234 -0.04117,-0.0767 -0.07782,-0.0877 -0.289605,-0.0872 -0.451142,0.001 -1.161938,0.22563 -1.423875,0.44984 -0.197191,0.16879 -0.41361,0.60778 -0.493591,1.00122 -0.08587,0.4224 -0.0804,1.05445 0.01169,1.35033 0.101396,0.32578 0.215069,0.46845 0.464072,0.58245 0.188298,0.0862 0.248332,0.0949 0.530224,0.0764 0.174836,-0.0115 0.361776,-0.0324 0.41542,-0.0466 0.09578,-0.0253 0.09613,-0.0246 0.01951,0.0401 -0.282601,0.23835 -0.885025,0.32323 -1.267962,0.17864 -0.294313,-0.11112 -0.470097,-0.26741 -0.604043,-0.53703 -0.103994,-0.20934 -0.114713,-0.27048 -0.128933,-0.73551 -0.0132,-0.43174 -5.71e-4,-0.58035 0.08474,-0.9991 0.05514,-0.27056 0.112088,-0.52276 0.126553,-0.56046 0.02213,-0.0577 0.01144,-0.064 -0.06739,-0.0397 -0.122095,0.0376 -0.104474,0.0106 -0.215546,0.33001 -0.182586,0.52503 -0.251837,0.92432 -0.274261,1.58134 -0.04032,1.18152 0.135612,1.56437 0.82422,1.79357 0.441961,0.14711 0.844586,0.15235 1.471149,0.0192 z m 3.0471,-2.59811 c 0.263231,-0.13269 1.159058,-0.69441 1.796828,-1.12668 0.438256,-0.29705 0.497585,-0.34998 0.474351,-0.42318 -0.196732,-0.61984 -0.184086,-1.2209 0.04236,-2.01318 0.109246,-0.38224 0.122721,-0.72403 0.03356,-0.85132 -0.07726,-0.11031 -0.271829,-0.11461 -0.597634,-0.0132 -0.713462,0.22206 -1.003622,0.62378 -1.482664,2.05277 -0.315383,0.94079 -0.47046,1.58536 -0.499827,2.07751 -0.01312,0.21994 -0.01185,0.39989 0.0028,0.39989 0.01467,0 0.11827,-0.0461 0.23021,-0.1026 z m 0.145005,-0.49675 c 0,-0.0712 0.177103,-0.93742 0.254259,-1.24362 0.265216,-1.05253 0.712664,-1.95894 1.097894,-2.22403 0.305597,-0.2103 0.521675,-0.24059 0.622164,-0.0872 0.06036,0.0921 0.05916,0.1247 -0.01897,0.51693 -0.04586,0.23025 -0.100841,0.67319 -0.122183,0.98433 -0.03466,0.50535 -0.05124,0.59112 -0.155378,0.80392 -0.194738,0.39793 -0.719631,0.85775 -1.335444,1.16987 -0.288878,0.14641 -0.342348,0.15888 -0.342348,0.0798 z m -1.373048,-1.92667 c 0.276371,-0.12832 0.438343,-0.49407 0.355417,-0.80258 -0.08989,-0.33441 -0.513129,-0.58879 -0.832775,-0.50053 -0.07998,0.0221 -0.203027,0.0841 -0.273429,0.13779 -0.340377,0.25962 -0.343926,0.83997 -0.0067,1.0958 0.233625,0.17723 0.47734,0.1996 0.757488,0.0695 z m -0.499633,-0.29363 c -0.05364,-0.0267 -0.129058,-0.11285 -0.167588,-0.1915 -0.0634,-0.1294 -0.06461,-0.156 -0.01283,-0.27995 0.115359,-0.27609 0.435794,-0.32572 0.628025,-0.0973 0.165554,0.19675 0.110108,0.45549 -0.123176,0.57479 -0.109719,0.0561 -0.202893,0.0544 -0.324433,-0.006 z m 0.46039,-0.30482 c 0.01403,-0.12069 -0.07625,-0.20746 -0.181205,-0.17415 -0.171495,0.0544 -0.11377,0.30778 0.0654,0.28706 0.07899,-0.009 0.106899,-0.0363 0.1158,-0.11291 z"
       id="path11" /><path
       style="fill:#000000;stroke-width:0.147455"
       d="m 134.89198,181.2583 c 0.68681,-0.14433 1.67822,-0.73512 2.77598,-1.65423 0.50207,-0.42035 1.28747,-1.16251 1.28747,-1.21657 0,-0.0242 -0.0507,-0.15604 -0.11262,-0.29312 -0.15575,-0.34468 -0.30005,-0.81751 -0.38144,-1.24989 -0.10221,-0.54292 -0.10163,-2.15952 9.1e-4,-2.55973 0.0399,-0.15576 0.0849,-0.29082 0.1,-0.30013 0.0151,-0.009 0.0482,0.32881 0.0735,0.75137 0.0477,0.79349 0.15077,1.60086 0.28244,2.21183 0.0923,0.42842 0.30709,1.1119 0.34939,1.1119 0.017,0 0.0844,-0.0609 0.14974,-0.13541 l 0.11889,-0.1354 -0.13576,-0.40104 c -0.41571,-1.22806 -0.60681,-2.40863 -0.48802,-3.01499 0.0375,-0.19143 0.0302,-0.21604 0.2188,0.74127 0.17035,0.8649 0.33194,1.48052 0.51224,1.95159 l 0.13769,0.35973 0.14307,-0.0714 c 0.0787,-0.0393 0.38008,-0.18425 0.66976,-0.32214 0.57214,-0.27233 1.17797,-0.65492 1.63859,-1.03477 0.23083,-0.19036 0.31211,-0.23657 0.38494,-0.21887 0.22925,0.0557 0.31723,0.065 0.31613,0.0333 -5.7e-4,-0.0188 -0.15096,-0.23604 -0.33403,-0.4828 -0.32673,-0.44043 -0.57368,-0.88029 -0.62426,-1.11191 -0.0329,-0.15057 -0.04,-0.15788 0.58516,0.59785 0.39645,0.47923 0.65813,0.83246 0.86785,1.17144 0.0183,0.0296 0.53249,0.20228 0.55004,0.18473 0.0443,-0.0443 -0.17805,-0.3195 -0.51454,-0.6368 -0.3986,-0.37587 -0.68151,-0.72446 -0.87908,-1.08313 l -0.12894,-0.23409 0.34678,0.33505 c 0.19073,0.18427 0.53113,0.49346 0.75644,0.68707 0.52747,0.45328 0.94695,0.89652 1.03296,1.09147 0.0501,0.11365 0.10896,0.17179 0.22437,0.22179 0.086,0.0373 0.16485,0.0593 0.17517,0.049 0.0103,-0.0103 -0.0313,-0.11084 -0.0924,-0.22339 -0.15532,-0.28595 -0.61628,-0.76326 -1.14503,-1.18567 -0.44248,-0.35348 -0.83444,-0.71959 -0.80352,-0.75052 0.009,-0.009 0.0848,0.0276 0.16908,0.0809 0.0843,0.0532 0.32806,0.18446 0.54177,0.29171 1.0758,0.53985 1.72144,1.17025 1.90928,1.86419 0.0429,0.15836 0.10039,0.27802 0.15051,0.31311 0.19678,0.13777 0.81193,0.48696 0.82856,0.47034 0.0245,-0.0245 -0.23025,-0.52693 -0.4282,-0.84445 -0.50969,-0.81757 -1.26329,-1.56108 -2.06066,-2.03306 -0.19021,-0.1126 -0.34581,-0.21501 -0.34578,-0.2276 2e-5,-0.0126 0.12866,-0.27744 0.28586,-0.58857 0.5013,-0.99221 0.84369,-2.3159 0.84517,-3.26744 1.5e-4,-0.11266 0.011,-0.20483 0.0241,-0.20483 0.0131,0 0.12281,0.0905 0.24384,0.20119 0.23489,0.21476 0.73573,0.5641 0.76573,0.5341 0.01,-0.01 -0.01,-0.15545 -0.0442,-0.32339 -0.0343,-0.16793 -0.0909,-0.50863 -0.12581,-0.75709 l -0.0635,-0.45176 -0.19507,-0.1485 c -0.10729,-0.0817 -0.27408,-0.17193 -0.37064,-0.20058 -0.16061,-0.0476 -0.17786,-0.065 -0.20257,-0.20404 -0.0149,-0.0836 -0.028,-0.219 -0.0293,-0.30093 l -0.002,-0.14896 0.10729,0.077 c 0.15093,0.10828 0.3966,0.34618 0.5706,0.55257 0.12409,0.14717 0.14465,0.15979 0.12721,0.078 -0.0311,-0.14574 -0.0366,-0.91474 -0.009,-1.24846 0.0133,-0.16093 0.0439,-0.49264 0.068,-0.73713 l 0.0438,-0.44453 -0.093,-0.0706 c -0.197,-0.14939 -0.75067,-0.4375 -1.18888,-0.61861 l -0.45744,-0.18905 -0.22595,-0.44163 c -0.12428,-0.24289 -0.22028,-0.4473 -0.21334,-0.45424 0.0238,-0.0238 0.43208,0.17376 0.70506,0.34118 0.41999,0.25758 0.70672,0.48871 1.11932,0.90228 0.43455,0.43557 0.37882,0.46569 0.47728,-0.2579 0.1043,-0.76643 0.13441,-0.66713 -0.28143,-0.92801 -0.45983,-0.28847 -1.20105,-0.65751 -1.52974,-0.76163 -0.28787,-0.0912 -0.5823,-0.15132 -0.90266,-0.18438 l -0.2199,-0.0227 -0.27111,-0.39764 c -0.14911,-0.2187 -0.28543,-0.4222 -0.30292,-0.45221 -0.0264,-0.0453 0.004,-0.0498 0.17889,-0.0268 0.49811,0.0657 1.23824,0.3898 1.92792,0.84423 0.46054,0.30344 1.04745,0.76231 1.26529,0.98924 0.21495,0.22394 0.23625,0.19871 0.23572,-0.27934 -7.4e-4,-0.65625 -0.13419,-1.04 -0.47142,-1.35543 -0.47829,-0.44739 -1.72416,-0.81979 -3.52279,-1.05298 l -0.4639,-0.0601 -0.65924,-0.67995 c -1.76156,-1.81689 -3.75631,-3.27215 -6.35236,-4.63431 -2.13814,-1.1219 -4.94663,-2.1722 -7.37368,-2.75757 -0.88643,-0.21379 -1.13278,-0.25093 -1.49861,-0.22593 -0.39286,0.0268 -0.65589,0.11693 -0.7832,0.26823 -0.14307,0.17004 -0.15973,0.29019 -0.0802,0.57839 0.20038,0.72587 0.23038,0.91427 0.23305,1.46337 0.002,0.41918 -0.0135,0.59837 -0.0667,0.77053 -0.0381,0.12338 -0.0873,0.22433 -0.10923,0.22433 -0.15272,0 -0.51662,-0.30302 -0.74963,-0.62422 -0.0856,-0.11802 -0.21024,-0.27321 -0.27696,-0.34487 -0.13982,-0.15017 -0.44698,-0.31838 -0.58137,-0.31838 -0.22096,0 -0.36816,0.38456 -0.32793,0.85669 0.0905,1.06165 1.38626,3.15193 3.42326,5.52213 0.48089,0.55956 1.38916,1.56043 1.5401,1.69712 l 0.1077,0.0975 -0.0271,-0.11704 c -0.0788,-0.33987 -0.41654,-0.9067 -0.79895,-1.34075 -0.12034,-0.13659 -0.2575,-0.29633 -0.30479,-0.35497 l -0.086,-0.10662 0.37859,0.11385 c 0.87171,0.26214 1.89848,0.40899 2.57162,0.3678 0.57795,-0.0353 0.60466,-0.0799 0.0811,-0.13507 -2.6033,-0.27452 -4.66829,-1.6369 -5.74708,-3.79165 -0.18615,-0.37181 -0.38431,-0.85692 -0.35998,-0.88124 0.007,-0.007 0.0845,0.0785 0.17197,0.19028 0.5115,0.65408 1.49032,1.62184 2.21747,2.1924 0.83049,0.65164 1.98849,1.31095 2.87284,1.63566 0.80931,0.29716 1.77423,0.48055 2.29939,0.43701 1.13122,-0.0938 1.80466,-0.6507 2.00871,-1.66118 0.11773,-0.58302 0.0297,-1.53016 -0.21397,-2.30307 -0.044,-0.13947 -0.0802,-0.26463 -0.0805,-0.27812 -3e-4,-0.0135 0.10774,0.0128 0.24004,0.0585 0.28628,0.0988 0.3363,0.16603 0.49752,0.66826 0.25227,0.78589 0.37804,1.65405 0.34195,2.36036 -0.0575,1.12485 -0.52897,1.73476 -1.57553,2.03809 -0.26184,0.0759 -0.39504,0.0882 -0.95499,0.0882 -0.3579,0 -0.63002,0.011 -0.60472,0.0244 0.0253,0.0134 0.21278,0.0561 0.41663,0.0947 0.53401,0.10121 1.35971,0.0936 1.76944,-0.0163 0.82909,-0.2224 1.38458,-0.7695 1.60966,-1.58536 0.0988,-0.35796 0.11709,-1.2746 0.0359,-1.79264 -0.0575,-0.367 -0.21085,-1.032 -0.27863,-1.20861 -0.0358,-0.0932 0.0398,-0.0759 0.39443,0.0903 0.19208,0.09 0.33284,0.18118 0.34638,0.22433 0.0781,0.24921 0.18839,1.09621 0.20753,1.59425 0.063,1.639 -0.39755,2.63958 -1.43171,3.11073 -0.58344,0.26581 -1.48149,0.4051 -2.2043,0.34192 -1.18753,-0.10382 -2.08039,-0.37367 -3.35905,-1.01522 l -0.7451,-0.37384 0.10698,0.23617 c 0.0588,0.12989 0.18814,0.49073 0.28732,0.80187 0.0992,0.31114 0.19322,0.58531 0.20897,0.60926 0.0157,0.0239 0.23744,0.26428 0.49266,0.53406 l 0.46404,0.49051 0.1634,0.51932 c 0.35053,1.11405 0.74914,2.0115 1.18371,2.66511 0.32365,0.48675 0.90491,1.06951 0.6705,0.6722 -0.14848,-0.25166 -0.55626,-1.26899 -0.82193,-2.05058 -0.14882,-0.43783 -0.27059,-0.81288 -0.27059,-0.83344 0,-0.0206 0.14923,0.0985 0.33162,0.26449 0.26462,0.24088 0.33162,0.32385 0.33162,0.41062 0,0.44287 0.53473,2.28588 0.72386,2.49487 0.0565,0.0625 0.4046,0.1697 0.43904,0.13526 0.007,-0.007 -0.025,-0.0874 -0.0715,-0.17844 -0.20402,-0.39992 -0.78564,-2.11162 -0.73478,-2.16247 0.008,-0.008 0.11632,0.0825 0.24023,0.20155 l 0.22529,0.21651 0.0344,0.35619 c 0.0421,0.43574 0.0872,0.64391 0.23761,1.09746 0.15093,0.45516 0.17547,0.49251 0.25638,0.39014 0.063,-0.0797 0.06,-0.40794 -0.0107,-1.16717 l -0.0251,-0.26985 0.75689,0.66334 c 0.92582,0.81139 1.99659,1.70581 2.81488,2.35127 0.33796,0.26658 0.61447,0.50609 0.61447,0.53224 0,0.0668 -0.79498,0.76704 -1.20191,1.05874 -0.42592,0.30531 -1.10237,0.64592 -1.50957,0.76012 -0.4089,0.11466 -1.13472,0.12496 -1.47121,0.0209 -0.37287,-0.11534 -0.67213,-0.35293 -1.09528,-0.86958 -0.64351,-0.78568 -1.12411,-1.23836 -1.72903,-1.62858 -0.34239,-0.22087 -0.89189,-0.4979 -1.06893,-0.53891 -0.18807,-0.0436 -0.42068,0.026 -0.55012,0.1646 -0.11066,0.11846 -0.36225,0.71732 -0.33279,0.79217 0.009,0.0233 0.0377,-0.0146 0.0635,-0.0844 0.0557,-0.15085 0.0776,-0.15272 0.50964,-0.0437 0.56343,0.14215 1.07803,0.41994 1.6168,0.87277 0.30188,0.25373 0.95581,1.02539 0.95581,1.12789 0,0.01 -0.1624,-0.0929 -0.36088,-0.22785 -0.88924,-0.60467 -1.62802,-0.89379 -2.49691,-0.97718 l -0.26335,-0.0253 -2.9e-4,0.10972 c -1.5e-4,0.0603 0.0379,0.29581 0.0847,0.52324 l 0.085,0.41351 0.35424,0.0628 c 0.81251,0.14406 1.60353,0.4612 2.06444,0.8277 0.12521,0.0996 0.22177,0.18536 0.21458,0.19067 -0.007,0.005 -0.17986,-0.005 -0.38371,-0.0219 -0.2998,-0.0255 -1.69626,-0.0435 -1.93121,-0.0248 -0.0721,0.006 -0.0726,-0.0371 0.007,0.7134 l 0.066,0.62423 0.62689,-0.0143 c 0.59223,-0.0135 1.18803,0.0367 1.3069,0.11017 0.0337,0.0208 -0.0196,0.0538 -0.15854,0.098 -0.46067,0.14645 -0.77937,0.27439 -1.28597,0.51626 l -0.53039,0.25323 -0.0845,0.42825 c -0.0986,0.4997 -0.29402,1.05004 -0.53606,1.50965 -0.0945,0.17944 -0.17183,0.33439 -0.17183,0.34431 0,0.0483 1.85056,-0.98446 2.28233,-1.27364 0.0858,-0.0575 0.22349,-0.14524 0.30589,-0.195 l 0.14983,-0.0905 -0.0781,0.15167 c -0.33776,0.65575 -1.13024,1.4581 -2.0011,2.02604 -0.38158,0.24884 -1.35698,0.74631 -1.86827,0.95283 -0.28434,0.11486 -0.52221,0.24777 -0.77765,0.43452 -0.2024,0.14799 -0.35163,0.26893 -0.33162,0.26879 0.0986,-5.8e-4 0.70999,-0.16905 1.10927,-0.30535 1.02553,-0.35006 1.51467,-0.61627 2.43136,-1.32325 1.4189,-1.09428 2.41309,-1.62343 3.14954,-1.67628 0.34472,-0.0247 1.06174,0.0501 1.2088,0.12613 0.15854,0.082 0.37935,0.34871 0.42512,0.51354 0.0228,0.082 0.0415,0.27635 0.0416,0.43192 1.4e-4,0.20349 0.0142,0.28285 0.0501,0.28285 0.0926,0 0.62787,-0.27661 0.87087,-0.45 0.1327,-0.0947 0.33758,-0.27859 0.45528,-0.40866 l 0.214,-0.23648 0.42326,0.0111 0.42326,0.0111 -0.38922,0.25739 c -0.70463,0.46597 -1.07951,0.66371 -1.69619,0.89467 -0.32186,0.12055 -0.32404,0.12476 -0.25516,0.49195 l 0.025,0.1333 0.20286,-0.023 c 0.81125,-0.0917 1.50094,-0.38407 2.08412,-0.88337 0.25462,-0.218 0.54102,-0.53635 0.70462,-0.78322 0.0832,-0.12556 0.11758,-0.14631 0.24238,-0.14631 0.08,0 0.22893,-0.0114 0.33098,-0.0254 0.17512,-0.024 0.18327,-0.0212 0.14494,0.0504 -0.095,0.17744 -0.64999,0.76443 -0.95034,1.00506 -0.39482,0.31631 -1.05621,0.65141 -1.51504,0.7676 -0.19225,0.0487 -0.51767,0.0926 -0.77429,0.1046 l -0.44266,0.0206 0.0205,0.10269 c 0.0113,0.0565 0.0585,0.20421 0.10495,0.3283 0.0989,0.26446 0.0617,0.26258 0.74033,0.0372 1.017,-0.3377 1.86093,-0.85371 2.59855,-1.58885 0.25976,-0.25887 0.54275,-0.57602 0.62887,-0.70476 l 0.15658,-0.23409 0.38551,-0.069 c 0.21203,-0.038 0.40016,-0.0687 0.41808,-0.0683 0.10351,0.002 -0.81136,0.97833 -1.26153,1.3458 -0.86957,0.70983 -1.95597,1.22645 -3.09187,1.47027 -0.23067,0.0495 -0.4194,0.10393 -0.4194,0.12091 0,0.063 0.33682,0.36455 0.48631,0.43535 0.17771,0.0842 0.583,0.11385 0.8342,0.0611 z m 0.47668,-3.69214 -0.243,-0.0254 0.61766,-0.20527 c 0.7362,-0.24467 1.37198,-0.52117 1.82421,-0.79335 0.1819,-0.10947 0.33968,-0.19904 0.35062,-0.19904 0.0109,0 0.0387,0.0746 0.0618,0.16582 0.0665,0.26319 0.23825,0.65226 0.34293,0.77666 0.0529,0.0628 0.0895,0.12051 0.0815,0.12822 -0.0196,0.0189 -0.90833,0.0972 -1.53616,0.13551 -0.68286,0.0416 -1.20615,0.0475 -1.49952,0.0169 z m -3.83335,-0.25227 c -0.61105,-0.0665 -0.60864,-0.0982 0.009,-0.12388 2.27204,-0.0945 4.47141,-1.0924 6.16024,-2.79507 0.24566,-0.24768 0.43442,-0.41842 0.41945,-0.37942 -0.12662,0.32997 -0.26138,1.18602 -0.26138,1.66037 v 0.18283 l -0.24384,0.14092 c -1.16438,0.67292 -2.54604,1.1273 -3.94248,1.29652 -0.54686,0.0663 -1.61397,0.0751 -2.14141,0.0177 z m 8.41764,-0.27828 c -0.0101,-0.0483 -0.064,-0.31602 -0.11975,-0.59497 -0.11301,-0.56521 -0.32619,-1.40013 -0.44742,-1.75229 -0.0437,-0.1269 -0.0707,-0.23942 -0.0601,-0.25005 0.0273,-0.0273 0.45985,0.88704 0.60656,1.28218 0.0674,0.18151 0.16417,0.51274 0.21506,0.73607 l 0.0925,0.40606 -0.10575,0.12757 c -0.12698,0.15319 -0.15704,0.16072 -0.18113,0.0454 z m -1.83112,-0.71971 c -0.0826,-0.3638 -0.0829,-1.00151 -7.5e-4,-1.3358 0.0346,-0.14084 0.0741,-0.26841 0.0878,-0.28347 0.0137,-0.0151 0.019,0.27977 0.0119,0.65519 -0.012,0.62921 0.0202,1.01001 0.13011,1.53749 0.0478,0.22972 -0.17117,-0.31883 -0.22895,-0.57341 z m 2.23811,0.29618 c 0,-0.32757 -0.25992,-1.15713 -0.54302,-1.73309 -0.10517,-0.21399 -0.18638,-0.39403 -0.18045,-0.4001 0.006,-0.006 0.12652,0.12543 0.26799,0.29222 0.29628,0.34932 0.53338,0.74612 0.71505,1.19668 0.07,0.17364 0.14248,0.32076 0.16104,0.32695 0.0514,0.0171 0.34868,-0.3524 0.46719,-0.58082 0.14607,-0.28154 0.16831,-0.66447 0.0525,-0.9037 -0.18399,-0.38008 -0.76431,-0.83896 -1.52551,-1.20627 -0.36946,-0.17829 -1.48278,-0.57705 -1.61107,-0.57705 -0.0284,0 -0.18173,-0.14337 -0.34071,-0.31859 -0.29372,-0.32371 -0.88066,-0.83 -1.57551,-1.35902 -1.97324,-1.50233 -3.21147,-2.66683 -4.70847,-4.42811 -0.86511,-1.01784 -2.17101,-2.72133 -2.10345,-2.74385 0.15326,-0.0511 1.91373,0.32329 2.4424,0.5194 0.36769,0.13639 0.51437,0.26562 0.81217,0.71556 0.59567,0.9 1.17904,1.39246 1.95703,1.65207 0.21706,0.0724 0.35493,0.0902 0.6995,0.0902 0.517,-4e-5 0.86447,-0.0794 1.29521,-0.29577 0.16659,-0.0837 0.32313,-0.15217 0.34786,-0.15217 0.13025,0 1.31137,0.90223 2.10345,1.60677 1.12151,0.99756 1.89451,1.97445 2.41773,3.05543 0.3799,0.78488 0.60471,1.57628 0.60471,2.12881 0,0.22729 -4.4e-4,0.22807 -0.12679,0.24722 -0.0697,0.0106 -0.30968,0.0292 -0.5332,0.0414 -0.50364,0.0275 -0.64859,0.11056 -0.38364,0.21983 0.1732,0.0714 0.43901,0.32298 0.61431,0.58136 0.1709,0.25186 0.42932,0.75403 0.42932,0.83424 0,0.0683 -0.20167,0.2384 -0.93634,0.78973 -0.62995,0.47274 -0.74743,0.55585 -0.79004,0.55882 -0.0161,0.001 -0.0293,-0.07 -0.0293,-0.15813 z m -8.89523,-0.50316 c -0.44921,-0.0457 -0.90841,-0.11887 -0.88618,-0.1411 0.009,-0.009 0.23393,1.1e-4 0.49998,0.0201 2.22667,0.1673 4.51857,-0.78516 6.22673,-2.58769 l 0.38895,-0.41044 0.0989,0.10634 c 0.0544,0.0585 0.12837,0.15288 0.16441,0.20977 l 0.0655,0.10343 -0.38564,0.38563 c -0.94151,0.94151 -1.93885,1.56987 -3.11005,1.95943 -0.987,0.32829 -2.07915,0.45472 -3.06261,0.35454 z m 0.25359,-1.34025 c -0.15021,-0.0331 -0.37844,-0.0959 -0.50719,-0.13959 l -0.23408,-0.0794 0.17556,0.0182 c 0.0966,0.01 0.34235,0.038 0.5462,0.0622 0.68893,0.0819 1.57868,-0.0203 2.19435,-0.25201 0.92431,-0.3479 1.80275,-1.05178 2.3679,-1.89734 0.13624,-0.20385 0.26808,-0.36877 0.29297,-0.3665 0.0561,0.005 0.72381,0.52687 0.72381,0.56557 0,0.0911 -0.93647,0.85074 -1.45421,1.17962 -0.74201,0.47133 -1.74393,0.8548 -2.50573,0.95905 -0.37387,0.0512 -1.26758,0.0234 -1.59958,-0.0498 z m 10.87341,-2.60008 c -0.65042,-1.87866 -2.17523,-3.92214 -4.15809,-5.57247 -0.25696,-0.21387 -0.29527,-0.26017 -0.23409,-0.2829 0.0641,-0.0238 0.0587,-0.0337 -0.0439,-0.0802 -0.091,-0.0412 -0.31234,-0.0497 -0.99486,-0.0381 -2.16946,0.0371 -2.17838,0.0368 -2.42863,-0.0861 -0.12339,-0.0606 -0.22433,-0.12385 -0.22433,-0.14059 0,-0.0167 0.0922,-0.006 0.20482,0.025 0.1739,0.0471 0.36387,0.0483 1.25821,0.008 1.52104,-0.068 2.41141,0.0199 2.79627,0.27616 0.2008,0.13367 1.27289,1.20773 1.67433,1.67739 1.42807,1.67079 2.34083,3.52342 2.43696,4.94634 l 0.0203,0.30107 -0.0961,-0.35113 c -0.0529,-0.19312 -0.14778,-0.50036 -0.21093,-0.68275 z m 0.87134,-0.91684 c -0.30058,-0.7344 -0.9019,-1.79846 -1.4772,-2.61395 -1.36117,-1.92947 -3.15569,-3.66741 -5.37127,-5.20192 -0.37551,-0.26009 -0.71256,-0.49523 -0.74898,-0.52253 -0.0619,-0.0464 -0.0606,-0.0668 0.0195,-0.31216 0.0472,-0.14439 0.10186,-0.26289 0.12156,-0.26335 0.0197,-4.5e-4 0.22161,0.12514 0.44867,0.2791 1.99552,1.35309 3.96014,3.15979 5.17854,4.76231 0.92918,1.22209 1.56706,2.4669 1.87031,3.64985 0.18797,0.73327 0.18172,0.76713 -0.0411,0.22265 z m 0.19695,-2.02176 c -0.30786,-0.74702 -0.66187,-1.36696 -1.2516,-2.19177 -1.31046,-1.83289 -3.39175,-3.7352 -5.79854,-5.29992 l -0.53085,-0.34512 -0.0266,-0.35213 c -0.0146,-0.19367 -0.0169,-0.36184 -0.005,-0.37371 0.0314,-0.0314 1.17238,0.74259 1.88523,1.27885 2.79271,2.10085 4.75532,4.34325 5.54766,6.3385 0.16481,0.41502 0.41652,1.39118 0.33669,1.30571 -0.008,-0.009 -0.079,-0.17113 -0.15701,-0.36041 z m 1.67573,-1.15606 c -0.0866,-0.0848 -0.27959,-0.22088 -0.42876,-0.30236 l -0.27123,-0.14814 -0.10456,-0.36088 c -0.0575,-0.19848 -0.0935,-0.36032 -0.0799,-0.35964 0.0279,0.001 0.0775,0.0383 0.31335,0.23284 0.28866,0.23812 0.85858,1.00501 0.7945,1.06909 -0.0401,0.0401 -0.0616,0.0275 -0.2234,-0.13091 z m -10.67845,-1.23566 c -0.57894,-0.17002 -0.94697,-0.5059 -1.45415,-1.32713 -0.1704,-0.27591 -0.36909,-0.57627 -0.44152,-0.66747 l -0.1317,-0.16581 h 0.47593 c 0.41243,0 0.49328,0.0107 0.60594,0.0804 0.19788,0.1223 0.32154,0.14705 1.16612,0.23341 2.31687,0.2369 3.82728,0.60639 4.37014,1.06906 l 0.11704,0.0998 -0.26078,-0.11427 c -0.90723,-0.39756 -1.76391,-0.57009 -3.99177,-0.8039 -0.80526,-0.0845 -1.24749,-0.16347 -1.5118,-0.26991 -0.12338,-0.0497 -0.22433,-0.0829 -0.22433,-0.0738 0,0.009 0.0376,0.0904 0.0835,0.18078 0.44664,0.8784 1.25887,1.4565 2.07393,1.47611 l 0.20291,0.005 -0.17557,0.0318 c -0.29249,0.053 -0.7187,-0.0272 -1.08938,-0.20489 -0.25868,-0.12402 -0.3936,-0.22253 -0.63398,-0.46292 -0.16796,-0.16795 -0.30537,-0.29681 -0.30537,-0.28635 0,0.0723 0.29891,0.46053 0.48652,0.63184 0.59891,0.54688 1.28473,0.65008 2.18595,0.32893 0.42101,-0.15002 0.76077,-0.22504 0.76077,-0.16798 0,0.0159 -0.15361,0.1015 -0.34137,0.19031 -0.30467,0.14412 -0.61432,0.23846 -0.9656,0.29421 -0.20047,0.0318 -0.78361,-0.013 -1.00145,-0.077 z m 1.45011,-1.02537 c -1.34383,-0.0358 -1.5136,-0.0583 -1.9312,-0.25547 -0.23201,-0.10955 -0.44099,-0.27543 -0.39959,-0.31717 0.0163,-0.0164 0.14702,0.0184 0.29058,0.0774 0.14356,0.059 0.41994,0.14055 0.61417,0.18131 0.33123,0.0695 0.60067,0.0945 2.07205,0.19214 0.56079,0.0372 0.80948,0.0836 0.89505,0.16675 0.0254,0.0247 -0.0157,0.0293 -0.11704,0.0134 -0.0858,-0.0135 -0.72664,-0.0397 -1.42402,-0.0583 z m 5.89115,-1.3662 c -1.54457,-1.65891 -3.59814,-3.30126 -5.71952,-4.5742 l -0.51145,-0.3069 -0.0442,-0.24314 c -0.0243,-0.13372 -0.0555,-0.29281 -0.0693,-0.35352 -0.0244,-0.10751 -0.013,-0.10305 0.43848,0.17104 2.7795,1.68743 5.13732,3.73669 6.37173,5.53788 0.24546,0.35815 0.47075,0.72796 0.47047,0.77224 -1e-4,0.0151 -0.10105,-0.0866 -0.22433,-0.22604 -0.12329,-0.13947 -0.44362,-0.48928 -0.71184,-0.77736 z m -5.08817,0.65439 -0.46527,-0.079 -0.51023,-0.36026 c -0.28062,-0.19814 -0.61995,-0.42609 -0.75406,-0.50655 -0.13411,-0.0805 -0.24384,-0.15362 -0.24384,-0.16256 0,-0.009 0.0834,-0.10863 0.18532,-0.22153 0.10192,-0.11289 0.22058,-0.25404 0.26369,-0.31366 l 0.0784,-0.10841 0.70191,0.61462 c 0.80615,0.70591 1.40075,1.27967 1.28726,1.24215 -0.0428,-0.0142 -0.28725,-0.0613 -0.54316,-0.10478 z m -6.54512,-3.54577 c -0.36652,-0.0779 -0.7177,-0.20634 -1.13775,-0.41611 -0.25079,-0.12525 -0.26537,-0.13971 -0.24026,-0.2383 0.0658,-0.25815 0.0919,-0.83627 0.0573,-1.2653 -0.0911,-1.12989 -0.37823,-1.94446 -1.04167,-2.95566 -0.79113,-1.20582 -1.53736,-1.93884 -2.30898,-2.26812 l -0.25692,-0.10963 0.23409,-1.4e-4 c 0.68649,-3.8e-4 1.55309,0.72809 2.59098,2.17799 0.5366,0.74961 0.87984,1.53046 1.04028,2.3666 0.0715,0.3726 0.0949,1.14191 0.0456,1.50063 l -0.0295,0.21458 0.0943,-0.11337 c 0.23717,-0.28513 0.29463,-1.02838 0.16378,-2.11828 -0.0817,-0.68017 -0.091,-1.05688 -0.029,-1.17234 0.0412,-0.0767 0.0778,-0.0877 0.2896,-0.0872 0.45114,0.001 1.16194,0.22563 1.42388,0.44984 0.19719,0.16879 0.41361,0.60778 0.49359,1.00122 0.0859,0.4224 0.0804,1.05445 -0.0117,1.35033 -0.1014,0.32578 -0.21507,0.46845 -0.46408,0.58245 -0.18829,0.0862 -0.24833,0.0949 -0.53022,0.0764 -0.17484,-0.0115 -0.36178,-0.0324 -0.41542,-0.0466 -0.0958,-0.0253 -0.0961,-0.0246 -0.0195,0.0401 0.2826,0.23835 0.88503,0.32323 1.26796,0.17864 0.29432,-0.11112 0.4701,-0.26741 0.60405,-0.53703 0.10399,-0.20934 0.11471,-0.27048 0.12893,-0.73551 0.0132,-0.43174 5.7e-4,-0.58035 -0.0847,-0.9991 -0.0551,-0.27056 -0.11209,-0.52276 -0.12655,-0.56046 -0.0221,-0.0577 -0.0114,-0.064 0.0674,-0.0397 0.12209,0.0376 0.10447,0.0106 0.21554,0.33001 0.18259,0.52503 0.25184,0.92432 0.27426,1.58134 0.0403,1.18152 -0.13561,1.56437 -0.82422,1.79357 -0.44196,0.14711 -0.84458,0.15235 -1.47115,0.0192 z m -3.0471,-2.59811 c -0.26323,-0.13269 -1.15906,-0.69441 -1.79683,-1.12668 -0.43825,-0.29705 -0.49758,-0.34998 -0.47435,-0.42318 0.19673,-0.61984 0.18409,-1.2209 -0.0424,-2.01318 -0.10925,-0.38224 -0.12272,-0.72403 -0.0336,-0.85132 0.0773,-0.11031 0.27183,-0.11461 0.59763,-0.0132 0.71347,0.22206 1.00363,0.62378 1.48267,2.05277 0.31538,0.94079 0.47046,1.58536 0.49983,2.07751 0.0131,0.21994 0.0119,0.39989 -0.003,0.39989 -0.0147,0 -0.11827,-0.0461 -0.23021,-0.1026 z m -0.14501,-0.49675 c 0,-0.0712 -0.1771,-0.93742 -0.25425,-1.24362 -0.26522,-1.05253 -0.71267,-1.95894 -1.0979,-2.22403 -0.3056,-0.2103 -0.52167,-0.24059 -0.62216,-0.0872 -0.0604,0.0921 -0.0592,0.1247 0.019,0.51693 0.0459,0.23025 0.10084,0.67319 0.12218,0.98433 0.0347,0.50535 0.0512,0.59112 0.15538,0.80392 0.19474,0.39793 0.71963,0.85775 1.33544,1.16987 0.28888,0.14641 0.34235,0.15888 0.34235,0.0798 z m 1.37305,-1.92667 c -0.27637,-0.12832 -0.43834,-0.49407 -0.35541,-0.80258 0.0899,-0.33441 0.51312,-0.58879 0.83277,-0.50053 0.08,0.0221 0.20303,0.0841 0.27343,0.13779 0.34038,0.25962 0.34393,0.83997 0.007,1.0958 -0.23363,0.17723 -0.47734,0.1996 -0.75749,0.0695 z m 0.49964,-0.29363 c 0.0536,-0.0267 0.12905,-0.11285 0.16758,-0.1915 0.0634,-0.1294 0.0646,-0.156 0.0128,-0.27995 -0.11536,-0.27609 -0.43579,-0.32572 -0.62802,-0.0973 -0.16556,0.19675 -0.11011,0.45549 0.12317,0.57479 0.10972,0.0561 0.2029,0.0544 0.32444,-0.006 z m -0.46039,-0.30482 c -0.014,-0.12069 0.0763,-0.20746 0.1812,-0.17415 0.1715,0.0544 0.11377,0.30778 -0.0654,0.28706 -0.079,-0.009 -0.1069,-0.0363 -0.1158,-0.11291 z"
       id="path12" /></g></svg>
