<svg width="1574" height="963" viewBox="0 0 1574 963" fill="none" xmlns="http://www.w3.org/2000/svg">
<rect opacity="0.1" x="0.54126" y="0.5" width="1543.43" height="787.115" stroke="#D0C3B4"/>
<path d="M1220.26 657.52H326.53L124.959 883.507H1419.56L1220.26 657.52Z" fill="#332D2A" stroke="#D0C3B4"/>
<path d="M1220.26 621.18H326.53L124.959 847.167H1419.56L1220.26 621.18Z" fill="#332D2A" stroke="#D0C3B4"/>
<rect x="160.663" y="40.2463" width="242.021" height="485.042" stroke="#D0C3B4"/>
<rect x="174.29" y="52.7385" width="242.021" height="485.042" fill="#1B1A1A" stroke="#D0C3B4"/>
<rect x="1138.43" y="47.0603" width="242.021" height="485.042" stroke="#D0C3B4"/>
<rect x="1128.21" y="59.552" width="242.021" height="485.042" fill="#1B1A1A" stroke="#D0C3B4"/>
<rect x="536.551" y="58.4163" width="471.415" height="245.428" stroke="#D0C3B4"/>
<rect x="544" y="68.137" width="30.8156" height="29.2015" fill="white"/>
<rect x="544" y="101.665" width="30.8156" height="28.1199" fill="#8EA365"/>
<rect x="544" y="134.111" width="30.8156" height="29.2015" fill="#8EA365"/>
<rect x="544" y="167.638" width="30.8156" height="29.2015" fill="white"/>
<rect x="544" y="200.084" width="30.8156" height="29.2015" fill="#8EA365"/>
<rect x="544" y="233.612" width="30.8156" height="29.2015" fill="#8EA365"/>
<rect x="544" y="267.139" width="30.8156" height="28.1199" fill="white"/>
<rect x="577.098" y="68.137" width="29.6743" height="29.2015" fill="#8EA365"/>
<rect x="577.098" y="101.665" width="29.6743" height="28.1199" fill="white"/>
<rect x="577.098" y="134.111" width="29.6743" height="29.2015" fill="#8EA365"/>
<rect x="577.098" y="167.638" width="29.6743" height="29.2015" fill="#8EA365"/>
<rect x="577.098" y="200.084" width="29.6743" height="29.2015" fill="#8EA365"/>
<rect x="577.098" y="233.612" width="29.6743" height="29.2015" fill="white"/>
<rect x="577.098" y="267.139" width="29.6743" height="28.1199" fill="#8EA365"/>
<rect x="609.055" y="68.137" width="30.8156" height="29.2015" fill="#8EA365"/>
<rect x="609.055" y="101.665" width="30.8156" height="28.1199" fill="#8EA365"/>
<rect x="609.055" y="134.111" width="30.8156" height="29.2015" fill="#8EA365"/>
<rect x="609.055" y="167.638" width="30.8156" height="29.2015" fill="white"/>
<rect x="609.055" y="200.084" width="30.8156" height="29.2015" fill="#8EA365"/>
<rect x="609.055" y="233.612" width="30.8156" height="29.2015" fill="#8EA365"/>
<rect x="609.055" y="267.139" width="30.8156" height="28.1199" fill="#8EA365"/>
<rect x="642.153" y="68.137" width="30.8156" height="29.2015" fill="white"/>
<rect x="642.153" y="101.665" width="30.8156" height="28.1199" fill="#8EA365"/>
<rect x="642.153" y="134.111" width="30.8156" height="29.2015" fill="white"/>
<rect x="642.153" y="167.638" width="30.8156" height="29.2015" fill="#8EA365"/>
<rect x="642.153" y="200.084" width="30.8156" height="29.2015" fill="white"/>
<rect x="642.153" y="233.612" width="30.8156" height="29.2015" fill="#8EA365"/>
<rect x="642.153" y="267.139" width="30.8156" height="28.1199" fill="white"/>
<rect x="675.252" y="68.137" width="30.8156" height="29.2015" fill="#8EA365"/>
<rect x="675.252" y="101.665" width="30.8156" height="28.1199" fill="#8EA365"/>
<rect x="675.252" y="134.111" width="30.8156" height="29.2015" fill="#8EA365"/>
<rect x="675.252" y="167.638" width="30.8156" height="29.2015" fill="white"/>
<rect x="675.252" y="200.084" width="30.8156" height="29.2015" fill="#8EA365"/>
<rect x="675.252" y="233.612" width="30.8156" height="29.2015" fill="#8EA365"/>
<rect x="675.252" y="267.139" width="30.8156" height="28.1199" fill="#8EA365"/>
<rect x="708.35" y="68.137" width="29.6743" height="29.2015" fill="#8EA365"/>
<rect x="708.35" y="101.665" width="29.6743" height="28.1199" fill="white"/>
<rect x="708.35" y="134.111" width="29.6743" height="29.2015" fill="#8EA365"/>
<rect x="708.35" y="167.638" width="29.6743" height="29.2015" fill="#8EA365"/>
<rect x="708.35" y="200.084" width="29.6743" height="29.2015" fill="#8EA365"/>
<rect x="708.35" y="233.612" width="29.6743" height="29.2015" fill="white"/>
<rect x="708.35" y="267.139" width="29.6743" height="28.1199" fill="#8EA365"/>
<rect x="740.307" y="68.137" width="30.8156" height="29.2015" fill="white"/>
<rect x="740.307" y="101.665" width="30.8156" height="28.1199" fill="#8EA365"/>
<rect x="740.307" y="134.111" width="30.8156" height="29.2015" fill="#8EA365"/>
<rect x="740.307" y="167.638" width="30.8156" height="29.2015" fill="white"/>
<rect x="740.307" y="200.084" width="30.8156" height="29.2015" fill="#8EA365"/>
<rect x="740.307" y="233.612" width="30.8156" height="29.2015" fill="#8EA365"/>
<rect x="740.307" y="267.139" width="30.8156" height="28.1199" fill="white"/>
<rect x="774.529" y="68.137" width="30.8156" height="29.2015" fill="white"/>
<rect x="774.529" y="101.665" width="30.8156" height="28.1199" fill="#8EA365"/>
<rect x="774.529" y="134.111" width="30.8156" height="29.2015" fill="#8EA365"/>
<rect x="774.529" y="167.638" width="30.8156" height="29.2015" fill="white"/>
<rect x="774.529" y="200.084" width="30.8156" height="29.2015" fill="#8EA365"/>
<rect x="774.529" y="233.612" width="30.8156" height="29.2015" fill="#8EA365"/>
<rect x="774.529" y="267.139" width="30.8156" height="28.1199" fill="white"/>
<rect x="807.628" y="68.137" width="29.6743" height="29.2015" fill="#8EA365"/>
<rect x="807.628" y="101.665" width="29.6743" height="28.1199" fill="white"/>
<rect x="807.628" y="134.111" width="29.6743" height="29.2015" fill="#8EA365"/>
<rect x="807.628" y="167.638" width="29.6743" height="29.2015" fill="#8EA365"/>
<rect x="807.628" y="200.084" width="29.6743" height="29.2015" fill="#8EA365"/>
<rect x="807.628" y="233.612" width="29.6743" height="29.2015" fill="white"/>
<rect x="807.628" y="267.139" width="29.6743" height="28.1199" fill="#8EA365"/>
<rect x="839.585" y="68.137" width="30.8156" height="29.2015" fill="#8EA365"/>
<rect x="839.585" y="101.665" width="30.8156" height="28.1199" fill="#8EA365"/>
<rect x="839.585" y="134.111" width="30.8156" height="29.2015" fill="#8EA365"/>
<rect x="839.585" y="167.638" width="30.8156" height="29.2015" fill="white"/>
<rect x="839.585" y="200.084" width="30.8156" height="29.2015" fill="#8EA365"/>
<rect x="839.585" y="233.612" width="30.8156" height="29.2015" fill="#8EA365"/>
<rect x="839.585" y="267.139" width="30.8156" height="28.1199" fill="#8EA365"/>
<rect x="872.683" y="68.137" width="30.8156" height="29.2015" fill="white"/>
<rect x="872.683" y="101.665" width="30.8156" height="28.1199" fill="#8EA365"/>
<rect x="872.683" y="134.111" width="30.8156" height="29.2015" fill="white"/>
<rect x="872.683" y="167.638" width="30.8156" height="29.2015" fill="#8EA365"/>
<rect x="872.683" y="200.084" width="30.8156" height="29.2015" fill="white"/>
<rect x="872.683" y="233.612" width="30.8156" height="29.2015" fill="#8EA365"/>
<rect x="872.683" y="267.139" width="30.8156" height="28.1199" fill="white"/>
<rect x="905.781" y="68.137" width="30.8156" height="29.2015" fill="#8EA365"/>
<rect x="905.781" y="101.665" width="30.8156" height="28.1199" fill="#8EA365"/>
<rect x="905.781" y="134.111" width="30.8156" height="29.2015" fill="#8EA365"/>
<rect x="905.781" y="167.638" width="30.8156" height="29.2015" fill="white"/>
<rect x="905.781" y="200.084" width="30.8156" height="29.2015" fill="#8EA365"/>
<rect x="905.781" y="233.612" width="30.8156" height="29.2015" fill="#8EA365"/>
<rect x="905.781" y="267.139" width="30.8156" height="28.1199" fill="#8EA365"/>
<rect x="938.879" y="68.137" width="29.6743" height="29.2015" fill="#8EA365"/>
<rect x="938.879" y="101.665" width="29.6743" height="28.1199" fill="white"/>
<rect x="938.879" y="134.111" width="29.6743" height="29.2015" fill="#8EA365"/>
<rect x="938.879" y="167.638" width="29.6743" height="29.2015" fill="#8EA365"/>
<rect x="938.879" y="200.084" width="29.6743" height="29.2015" fill="#8EA365"/>
<rect x="938.879" y="233.612" width="29.6743" height="29.2015" fill="white"/>
<rect x="938.879" y="267.139" width="29.6743" height="28.1199" fill="#8EA365"/>
<rect x="970.836" y="68.137" width="30.8156" height="29.2015" fill="white"/>
<rect x="970.836" y="101.665" width="30.8156" height="28.1199" fill="#8EA365"/>
<rect x="970.836" y="134.111" width="30.8156" height="29.2015" fill="#8EA365"/>
<rect x="970.836" y="167.638" width="30.8156" height="29.2015" fill="white"/>
<rect x="970.836" y="200.084" width="30.8156" height="29.2015" fill="#8EA365"/>
<rect x="970.836" y="233.612" width="30.8156" height="29.2015" fill="#8EA365"/>
<rect x="970.836" y="267.139" width="30.8156" height="28.1199" fill="white"/>
<path d="M594.127 383.175L613.164 670.253M594.127 383.175L565.042 437.63M594.127 383.175L606.818 359.913V347.753M613.164 670.253L616.337 726.823M613.164 670.253L556.191 707.79M613.164 670.253L648.065 682.942M475.144 761.187L556.191 707.79M677.15 693.515L648.065 682.942M616.337 726.823L556.191 707.79M616.337 726.823L648.065 682.942" stroke="#D0C3B4" stroke-width="4" stroke-linecap="round" stroke-linejoin="round"/>
<path d="M932.037 727.88L911.942 732.639M932.037 727.88L933.728 686.114M932.037 727.88L997.081 712.548M911.942 732.639L933.728 686.114M911.942 732.639L860.119 833.089M933.728 686.114L934.263 672.897M997.081 712.548L934.263 672.897M997.081 712.548L1086.45 768.061M934.263 672.897L947.901 367.315V342.995" stroke="#D0C3B4" stroke-width="4" stroke-linecap="round" stroke-linejoin="round"/>
<path d="M975.4 403.265L960.593 625.314M960.593 625.314L957.25 654.921M960.593 625.314L975.4 638.341M960.593 625.314L942.085 636.858M902.953 661.265L942.085 636.858M1013.47 671.839L975.4 638.341M953.19 690.872L957.25 654.921M957.25 654.921L975.4 638.341M957.25 654.921L942.085 636.858" stroke="#D0C3B4" stroke-width="4" stroke-linecap="round" stroke-linejoin="round"/>
<path d="M998.139 501.073L987.034 645.934M987.034 645.934L1012.42 670.782M987.034 645.934L950.546 666.552M987.034 645.934L956.891 643.819" stroke="#D0C3B4" stroke-width="4" stroke-linecap="round" stroke-linejoin="round"/>
<path d="M647.008 718.893L621.625 806.655" stroke="#D0C3B4" stroke-width="3" stroke-linecap="round" stroke-linejoin="round"/>
<path d="M910.356 721.007L933.624 801.897" stroke="#D0C3B4" stroke-width="3" stroke-linecap="round" stroke-linejoin="round"/>
<path d="M947.097 386.039C947.701 378.216 938.294 375.257 933.515 374.755C939.396 374.438 948.512 373.861 953.206 373.327C953.885 372.72 954.615 372.401 955.397 372.499C957.174 372.72 955.94 373.016 953.206 373.327C948.642 377.411 946.44 394.552 947.097 386.039Z" fill="#D0C3B4"/>
<path d="M919.161 380.532C938.622 379.263 963.229 374.364 973.1 372.073V368.372H983.676V372.073C1004.3 374.188 1043.86 378.84 1037.09 380.532C1030.32 382.224 991.609 383.352 973.1 383.704C947.012 383.176 899.701 381.801 919.161 380.532Z" fill="#332D2A" stroke="#D0C3B4" stroke-linecap="round" stroke-linejoin="round"/>
<path d="M982.619 400.622C980.504 401.468 979.27 403.794 978.917 404.852L976.802 411.725H972.572L970.985 402.737C970.456 401.68 968.976 399.565 967.283 399.565C965.168 399.565 966.226 395.864 966.226 394.278C966.226 393.009 964.463 392.34 963.582 392.163C947.894 389.696 916.835 384.55 918.104 383.704C919.373 382.858 959.175 384.057 978.917 384.762C999.717 385.643 1041 387.617 1039.73 388.462C1038.14 389.52 998.483 392.163 994.253 392.163C990.868 392.163 986.497 394.63 984.734 395.864C984.911 397.098 984.734 399.776 982.619 400.622Z" fill="#332D2A" stroke="#D0C3B4" stroke-linecap="round" stroke-linejoin="round"/>
<path fill-rule="evenodd" clip-rule="evenodd" d="M752.719 537.951L756.047 444.962C688.628 448.051 637.801 441.964 620.814 438.535C619.579 451.355 619.509 465.492 619.38 478.62C619.222 494.724 620.734 510.203 621.658 533.261C668.434 551.017 729.403 543.818 752.719 537.951Z" fill="#332D2A"/>
<path d="M620.814 438.535C637.801 441.964 688.628 448.051 756.047 444.962C745.119 439.809 726.913 436.936 696.066 435.409C665.218 433.882 629.736 435.68 620.814 438.535Z" fill="white"/>
<path d="M620.814 438.535C637.801 441.964 688.628 448.051 756.047 444.962M620.814 438.535C629.736 435.68 665.218 433.882 696.066 435.409C726.913 436.936 745.119 439.809 756.047 444.962M620.814 438.535C619.579 451.355 619.509 465.492 619.38 478.62C619.222 494.724 620.734 510.203 621.658 533.261C668.434 551.017 729.403 543.818 752.719 537.951M756.047 444.962C754.648 484.06 754.099 499.382 752.719 537.951M756.047 444.962L752.719 537.951" stroke="white" stroke-linecap="round" stroke-linejoin="round"/>
<path fill-rule="evenodd" clip-rule="evenodd" d="M901.468 536.574C902.365 496.541 901.274 478.061 898.489 438.717C831.428 446.449 785.112 445.087 767.933 442.691C769.1 481.026 769.518 494.766 774.553 538.514C822.419 553.692 878.598 544.201 901.468 536.574Z" fill="#332D2A"/>
<path d="M767.933 442.691C785.112 445.087 831.428 446.449 898.489 438.717C887.239 434.135 858.326 433.26 827.445 433.762C796.563 434.264 776.643 439.143 767.933 442.691Z" fill="white"/>
<path d="M767.933 442.691C785.112 445.087 831.428 446.449 898.489 438.717M767.933 442.691C769.1 481.026 769.518 494.766 774.553 538.514C822.419 553.692 878.598 544.201 901.468 536.574C902.365 496.541 901.274 478.061 898.489 438.717M767.933 442.691C776.643 439.143 796.563 434.264 827.445 433.762C858.326 433.26 887.239 434.135 898.489 438.717" stroke="white" stroke-linecap="round" stroke-linejoin="round"/>
<path d="M768.851 459.355C785.128 462.384 830.856 466.056 883.548 456.516" stroke="#D0C3B4"/>
<path d="M972.227 463.642C982.274 468.295 1015.06 475.168 1037.27 465.123C1029.19 461.897 1019.29 458.432 1005.01 458.25C990.735 458.068 976.457 460.364 972.227 463.642Z" fill="white"/>
<path d="M1037.27 465.123C1015.06 475.168 982.274 468.295 972.227 463.642V501.074C1006.69 511.969 1018.23 509.533 1035.68 503.717L1037.27 465.123Z" fill="#332D2A"/>
<path d="M972.227 463.642C982.274 468.295 1015.06 475.168 1037.27 465.123M972.227 463.642C972.227 469.881 972.227 492.615 972.227 501.074M972.227 463.642C976.457 460.364 990.735 458.068 1005.01 458.25C1019.29 458.432 1029.19 461.897 1037.27 465.123M972.227 463.642V501.074M1037.27 465.123L1035.68 503.717C1018.23 509.533 1006.69 511.969 972.227 501.074" stroke="white" stroke-linecap="round" stroke-linejoin="round"/>
<path fill-rule="evenodd" clip-rule="evenodd" d="M995.575 479.902C996.509 461.223 996.771 455.963 999.196 426.272C935.622 435.307 901.517 429.467 884.043 426.475C883.639 426.406 883.244 426.338 882.858 426.272C882.858 444.803 883.228 453.263 883.611 462.007C884.02 471.359 884.444 481.038 884.444 503.717C931.826 520.344 971.169 512.176 994.437 502.131C994.936 492.703 995.287 485.664 995.575 479.902Z" fill="#332D2A"/>
<path d="M942.613 418.069C911.731 417.632 891.671 422.991 882.858 426.272C883.244 426.338 883.639 426.406 884.043 426.475C901.517 429.467 935.622 435.307 999.196 426.272C988.091 421.35 973.496 418.507 942.613 418.069Z" fill="white"/>
<path d="M882.858 426.272C891.671 422.991 911.731 417.632 942.613 418.069C973.496 418.507 988.091 421.35 999.196 426.272M882.858 426.272C883.244 426.338 883.639 426.406 884.043 426.475C901.517 429.467 935.622 435.307 999.196 426.272M882.858 426.272C882.858 444.803 883.228 453.263 883.611 462.007C884.02 471.359 884.444 481.038 884.444 503.717C931.826 520.344 971.169 512.176 994.437 502.131C994.936 492.703 995.287 485.664 995.575 479.902C996.509 461.223 996.771 455.963 999.196 426.272" stroke="white" stroke-linecap="round" stroke-linejoin="round"/>
<path d="M893.992 654.393C893.992 723.342 840.921 779.192 775.509 779.192C710.097 779.192 657.026 723.342 657.026 654.393C657.026 585.443 710.097 529.594 775.509 529.594C840.921 529.594 893.992 585.443 893.992 654.393Z" fill="#332D2A" stroke="#D0C3B4" stroke-linecap="round" stroke-linejoin="round"/>
<path d="M750.126 572.446L763.875 530.151C776.567 529.623 773.923 529.094 786.614 530.151C791.373 545.483 797.719 563.458 800.363 571.389C782.172 567.582 759.292 570.331 750.126 572.446Z" fill="#D0C3B4"/>
<path d="M913.128 694.241C913.128 763.132 853.014 819.04 778.781 819.04C704.548 819.04 644.434 763.132 644.434 694.241C644.434 625.35 704.548 569.442 778.781 569.442C853.014 569.442 913.128 625.35 913.128 694.241Z" fill="#332D2A" stroke="#D0C3B4" stroke-linecap="round" stroke-linejoin="round"/>
<path d="M906.896 694.995C906.896 760.539 849.702 813.734 779.072 813.734C708.441 813.734 651.248 760.539 651.248 694.995C651.248 629.451 708.441 576.256 779.072 576.256C849.702 576.256 906.896 629.451 906.896 694.995Z" fill="#332D2A" stroke="#D0C3B4" stroke-linecap="round" stroke-linejoin="round"/>
<path fill-rule="evenodd" clip-rule="evenodd" d="M597.92 542.741C597.174 523.758 596.425 504.709 595.791 476.441C580.212 489.336 463.508 493.647 459.018 482.089C460.38 500.277 462.354 516.951 464.525 535.295C467.165 557.604 470.098 582.382 472.578 615.354C520.466 637.44 577.152 618.246 600.022 608.084C599.401 580.386 598.662 561.596 597.92 542.741Z" fill="#332D2A"/>
<path d="M459.018 482.089C463.508 493.647 580.212 489.336 595.791 476.441C584.535 469.836 564.791 471.949 533.903 472.031C503.014 472.114 467.727 477.323 459.018 482.089Z" fill="white"/>
<path d="M459.018 482.089C463.508 493.647 580.212 489.336 595.791 476.441M459.018 482.089C467.727 477.323 503.014 472.114 533.903 472.031C564.791 471.949 584.535 469.836 595.791 476.441M459.018 482.089C460.38 500.277 462.354 516.951 464.525 535.295C467.165 557.604 470.098 582.382 472.578 615.354C520.466 637.44 577.152 618.246 600.022 608.084C599.401 580.386 598.662 561.596 597.92 542.741C597.174 523.758 596.425 504.709 595.791 476.441" stroke="white" stroke-linecap="round" stroke-linejoin="round"/>
<path d="M649.123 501.747C633.259 514.29 517.978 511.118 513.747 499.462C515.863 539.829 514.805 575.625 517.978 635.793C565.359 658.946 626.032 645.44 649.123 635.793V501.747Z" fill="#332D2A"/>
<path d="M513.747 499.462C517.978 511.118 633.259 514.29 649.123 501.747C638.018 494.893 619.721 491.694 588.839 491.085C557.956 490.475 522.561 494.893 513.747 499.462Z" fill="white"/>
<path d="M513.747 499.462C517.978 511.118 633.259 514.29 649.123 501.747M513.747 499.462C515.863 539.829 514.805 575.625 517.978 635.793C565.359 658.946 626.032 645.44 649.123 635.793M513.747 499.462C522.561 494.893 557.956 490.475 588.839 491.085C619.721 491.694 638.018 494.893 649.123 501.747M649.123 501.747C649.123 558.107 649.123 580.195 649.123 635.793M649.123 501.747V635.793" stroke="white" stroke-linecap="round" stroke-linejoin="round"/>
<path d="M686.66 356.563C686.641 357.161 686.215 357.838 685.158 358.565C684.115 359.283 682.555 359.98 680.506 360.638C676.414 361.952 670.49 363.076 663.15 363.949C648.48 365.696 628.247 366.437 605.932 365.752C583.617 365.068 563.467 363.089 548.931 360.446C541.66 359.124 535.815 357.64 531.811 356.078C529.806 355.295 528.293 354.504 527.295 353.724C526.285 352.933 525.901 352.231 525.919 351.633C525.937 351.035 526.364 350.358 527.421 349.63C528.464 348.912 530.024 348.216 532.073 347.558C536.164 346.243 542.089 345.12 549.428 344.246C564.099 342.499 584.332 341.759 606.647 342.443C628.962 343.128 649.112 345.107 663.647 347.749C670.919 349.071 676.764 350.556 680.768 352.118C682.773 352.9 684.286 353.691 685.283 354.472C686.294 355.263 686.678 355.965 686.66 356.563Z" fill="#332D2A" stroke="#D0C3B4" stroke-linecap="round" stroke-linejoin="round"/>
<path d="M461.668 507.051C471.888 509.89 492.897 512.729 515.61 512.729" stroke="#D0C3B4"/>
<path d="M1056.24 343.519C1056.36 344.66 1055.85 345.915 1054.59 347.284C1053.34 348.65 1051.39 350.07 1048.8 351.517C1043.62 354.409 1035.95 357.348 1026.36 360.161C1007.18 365.786 980.365 370.881 950.477 374.107C920.589 377.332 893.309 378.076 873.367 376.675C863.392 375.974 855.278 374.738 849.598 373.018C846.756 372.158 844.553 371.185 843.036 370.118C841.515 369.049 840.745 367.932 840.622 366.792C840.498 365.651 841.013 364.395 842.27 363.026C843.525 361.66 845.469 360.24 848.062 358.793C853.244 355.901 860.907 352.962 870.502 350.149C889.686 344.525 916.496 339.43 946.384 336.204C976.272 332.978 1003.55 332.234 1023.49 333.636C1033.47 334.337 1041.58 335.573 1047.26 337.292C1050.1 338.152 1052.31 339.125 1053.82 340.192C1055.35 341.261 1056.12 342.378 1056.24 343.519Z" fill="#332D2A" stroke="#D0C3B4" stroke-linecap="round" stroke-linejoin="round"/>
<path d="M949.462 353.762L933.625 355.737C934.173 354.169 936.444 350.804 941.137 349.888C945.831 348.973 948.643 352.089 949.462 353.762Z" fill="#D0C3B4"/>
<path d="M616.361 354.311L603.052 353.62C604.803 352.353 609.286 350.095 613.209 351.201C617.132 352.307 616.945 353.735 616.361 354.311Z" fill="#D0C3B4"/>
<path d="M598.563 375.138C600.198 371.938 599.116 367.739 598.186 365.724C601.306 365.964 606.222 366.264 608.939 366.221C609.735 365.763 610.349 365.559 610.677 365.724C611.342 366.056 610.507 366.196 608.939 366.221C606.233 367.776 601.424 372.257 598.563 375.138C598.202 375.846 597.708 376.504 597.05 377.08C595.399 378.524 596.449 377.268 598.563 375.138Z" fill="#D0C3B4"/>
<path d="M766.58 532.035L755.792 568.942" stroke="#332D2A"/>
<path d="M515.042 524.085C537.754 530.331 596.352 539.076 649.044 524.085" stroke="#D0C3B4"/>
<path d="M620.086 454.245C640.716 459.355 696.74 467.645 755.792 459.923" stroke="#D0C3B4"/>
<path d="M1036.86 476.957C1031.93 479.986 1016.87 485.134 995.974 481.5" stroke="#D0C3B4"/>
<path d="M810.567 711.219L823.361 698.423L810.58 685.64V666.991H791.935L779.058 654.113L766.182 666.991H747.851V685.256L734.783 698.326L747.893 711.438V729.73H766.182L779.14 742.691L792.099 729.73H810.567V711.219ZM820.932 698.416L810.56 708.79V703.706H794.274L788.985 698.423L794.39 693.016H810.58V688.069L820.932 698.416ZM808.852 710.505L804.962 714.395L795.989 705.421H808.845V710.505H808.852ZM784.546 711.294L779.14 705.887L773.913 711.116V703.706H766.202L771.581 698.326L766.271 693.016H773.879V685.729L779.065 690.916L784.567 685.414V693.016H791.969L786.563 698.423L791.852 703.706H784.546V711.294ZM796.106 691.301L804.955 682.443L808.858 686.347V691.294H796.106V691.301ZM808.865 668.707V683.925L804.962 680.021L793.684 691.301H786.282V683.698L797.457 672.515L793.65 668.707H808.865ZM786.282 681.27V668.707H791.228L795.035 672.515L786.282 681.27ZM779.058 656.535L789.513 666.991H784.567V682.985L779.065 688.488L773.879 683.3V666.991H768.61L779.058 656.535ZM772.157 681.585L763.088 672.515L766.895 668.707H772.164V681.585H772.157ZM749.567 668.707H764.467L760.659 672.515L772.157 684.014V691.301H764.549L753.175 679.925L749.567 683.534V668.707ZM749.567 685.963L753.175 682.347L762.121 691.294H749.567V685.963ZM737.205 698.326L747.851 687.678V693.016H763.836L769.145 698.326L763.767 703.706H747.893V709.016L737.205 698.326ZM762.059 705.421L753.175 714.306L749.601 710.731V705.421H762.059ZM749.608 728.015V713.153L753.182 716.728L764.487 705.421H772.198V712.831L760.742 724.289L764.467 728.015H749.608ZM772.198 715.253V728.015H766.888L763.163 724.289L772.198 715.253ZM779.14 740.262L768.61 729.73H773.92V713.538L779.147 708.309L784.553 713.716V729.723H789.678L779.14 740.262ZM786.261 715.438L795.111 724.289L791.386 728.015H786.261V715.438ZM793.814 728.015L797.539 724.289L786.261 713.009V705.421H793.567L804.962 716.817L808.852 712.927V728.008H793.814V728.015Z" fill="#D0C3B4"/>
<path opacity="0.3" d="M311.452 301.833L318.013 295.271L311.459 288.716V279.152H301.897L295.294 272.548L288.69 279.152H279.29V288.519L272.588 295.221L279.311 301.945V311.326H288.69L295.336 317.972L301.981 311.326H311.452V301.833ZM316.768 295.267L311.448 300.587V297.98H303.097L300.384 295.271L303.156 292.498H311.459V289.961L316.768 295.267ZM310.572 301.467L308.578 303.462L303.976 298.86H310.569V301.467H310.572ZM298.108 301.871L295.336 299.099L292.655 301.78V297.98H288.701L291.459 295.221L288.736 292.498H292.638V288.761L295.297 291.421L298.119 288.599V292.498H301.915L299.142 295.271L301.855 297.98H298.108V301.871ZM304.036 291.618L308.574 287.076L310.576 289.078V291.615H304.036V291.618ZM310.579 280.032V287.836L308.578 285.834L302.794 291.618H298.998V287.72L304.729 281.985L302.776 280.032H310.579ZM298.998 286.474V280.032H301.535L303.487 281.985L298.998 286.474ZM295.294 273.79L300.655 279.152H298.119V287.354L295.297 290.176L292.638 287.516V279.152H289.936L295.294 273.79ZM291.755 286.636L287.104 281.985L289.056 280.032H291.758V286.636H291.755ZM280.17 280.032H287.811L285.858 281.985L291.755 287.882V291.618H287.853L282.02 285.785L280.17 287.635V280.032ZM280.17 288.881L282.02 287.027L286.608 291.615H280.17V288.881ZM273.83 295.221L279.29 289.761V292.498H287.487L290.21 295.221L287.452 297.98H279.311V300.703L273.83 295.221ZM286.576 298.86L282.02 303.416L280.187 301.583V298.86H286.576ZM280.191 310.446V302.825L282.024 304.658L287.821 298.86H291.776V302.66L285.901 308.536L287.811 310.446H280.191ZM291.776 303.902V310.446H289.053L287.142 308.536L291.776 303.902ZM295.336 316.727L289.936 311.326H292.659V303.022L295.339 300.341L298.112 303.114V311.322H300.74L295.336 316.727ZM298.988 303.997L303.526 308.536L301.616 310.446H298.988V303.997ZM302.861 310.446L304.771 308.536L298.988 302.751V298.86H302.734L308.578 304.704L310.572 302.709V310.443H302.861V310.446Z" fill="#D0C3B4"/>
<path opacity="0.3" d="M1265.37 301.833L1271.93 295.271L1265.37 288.716V279.152H1255.81L1249.21 272.548L1242.61 279.152H1233.21V288.519L1226.5 295.221L1233.23 301.945V311.326H1242.61L1249.25 317.972L1255.9 311.326H1265.37V301.833ZM1270.68 295.267L1265.36 300.587V297.98H1257.01L1254.3 295.271L1257.07 292.498H1265.37V289.961L1270.68 295.267ZM1264.49 301.467L1262.49 303.462L1257.89 298.86H1264.48V301.467H1264.49ZM1252.02 301.871L1249.25 299.099L1246.57 301.78V297.98H1242.62L1245.37 295.221L1242.65 292.498H1246.55V288.761L1249.21 291.421L1252.03 288.599V292.498H1255.83L1253.06 295.271L1255.77 297.98H1252.02V301.871ZM1257.95 291.618L1262.49 287.076L1264.49 289.078V291.615H1257.95V291.618ZM1264.49 280.032V287.836L1262.49 285.834L1256.71 291.618H1252.91V287.72L1258.64 281.985L1256.69 280.032H1264.49ZM1252.91 286.474V280.032H1255.45L1257.4 281.985L1252.91 286.474ZM1249.21 273.79L1254.57 279.152H1252.03V287.354L1249.21 290.176L1246.55 287.516V279.152H1243.85L1249.21 273.79ZM1245.67 286.636L1241.02 281.985L1242.97 280.032H1245.67V286.636H1245.67ZM1234.08 280.032H1241.73L1239.77 281.985L1245.67 287.882V291.618H1241.77L1235.94 285.785L1234.08 287.635V280.032ZM1234.08 288.881L1235.94 287.027L1240.52 291.615H1234.08V288.881ZM1227.75 295.221L1233.21 289.761V292.498H1241.4L1244.12 295.221L1241.37 297.98H1233.23V300.703L1227.75 295.221ZM1240.49 298.86L1235.94 303.416L1234.1 301.583V298.86H1240.49ZM1234.11 310.446V302.825L1235.94 304.658L1241.74 298.86H1245.69V302.66L1239.82 308.536L1241.73 310.446H1234.11ZM1245.69 303.902V310.446H1242.97L1241.06 308.536L1245.69 303.902ZM1249.25 316.727L1243.85 311.326H1246.57V303.022L1249.25 300.341L1252.03 303.114V311.322H1254.65L1249.25 316.727ZM1252.9 303.997L1257.44 308.536L1255.53 310.446H1252.9V303.997ZM1256.78 310.446L1258.69 308.536L1252.9 302.751V298.86H1256.65L1262.49 304.704L1264.49 302.709V310.443H1256.78V310.446Z" fill="#D0C3B4"/>
</svg>
