<svg width="1394" height="816" viewBox="0 0 1394 816" fill="none" xmlns="http://www.w3.org/2000/svg">
<rect x="17.5" y="37.5002" width="1359" height="693" stroke="#D0C3B4"/>
<path d="M1152.5 686H240.786L127 815H1267L1152.5 686Z" stroke="#D0C3B4"/>
<path d="M1152.5 654H240.786L127 783H1267L1152.5 654Z" fill="#332D2A" stroke="#D0C3B4"/>
<rect x="194.5" y="83.5002" width="213" height="213" stroke="#D0C3B4"/>
<rect x="206.5" y="94.5002" width="213" height="213" fill="#1B1A1A" stroke="#D0C3B4"/>
<rect x="992.5" y="78.5002" width="213" height="213" stroke="#D0C3B4"/>
<rect x="983.5" y="89.5002" width="213" height="213" fill="#1B1A1A" stroke="#D0C3B4"/>
<path d="M522.149 672H870.85L908 764H485L522.149 672Z" stroke="#D0C3B4"/>
<path d="M522.149 643H870.85L908 755H485L522.149 643Z" fill="#332D2A" stroke="#D0C3B4"/>
<path d="M241 654.5L211.5 686.5V632.5L241 599V654.5Z" stroke="#D0C3B4"/>
<path d="M1152 654.5L1181.5 686.5V632.5L1152 599V654.5Z" stroke="#D0C3B4"/>
<path d="M1180.5 631.5H212L241 598.5H1152L1180.5 631.5Z" fill="#332D2A" stroke="#D0C3B4"/>
<path d="M343.5 461.5L265.5 465L285.5 476.5L373.5 471.5L343.5 461.5Z" stroke="#D0C3B4"/>
<path d="M285.5 476V620L372.5 616V471.5L285.5 476Z" fill="#332D2A" stroke="#D0C3B4"/>
<path d="M355.5 566.5C355.5 580.298 344.092 591.5 330 591.5C322.908 591.5 316.538 589.525 311.948 585.439C307.366 581.362 304.5 575.132 304.5 566.5C304.5 552.702 315.908 541.5 330 541.5C345.712 541.5 355.5 552.681 355.5 566.5Z" stroke="#D0C3B4"/>
<path d="M345.5 505.5C345.5 513.77 338.575 520.5 330 520.5C325.668 520.5 321.797 519.308 319.016 516.864C316.246 514.428 314.5 510.699 314.5 505.5C314.5 497.231 321.425 490.5 330 490.5C339.564 490.5 345.5 497.21 345.5 505.5Z" stroke="#D0C3B4"/>
<path d="M264 608V465L285.5 476V620.5L264 608Z" fill="#332D2A" stroke="#D0C3B4"/>
<path d="M1065 461.5L1143 465L1123 476.5L1035 471.5L1065 461.5Z" stroke="#D0C3B4"/>
<path d="M1123 476V620L1036 616V471.5L1123 476Z" fill="#332D2A" stroke="#D0C3B4"/>
<path d="M1053 566.5C1053 580.298 1064.41 591.5 1078.5 591.5C1085.59 591.5 1091.96 589.525 1096.55 585.439C1101.13 581.362 1104 575.132 1104 566.5C1104 552.702 1092.59 541.5 1078.5 541.5C1062.79 541.5 1053 552.681 1053 566.5Z" stroke="#D0C3B4"/>
<path d="M1063 505.5C1063 513.77 1069.92 520.5 1078.5 520.5C1082.83 520.5 1086.7 519.308 1089.48 516.864C1092.25 514.428 1094 510.699 1094 505.5C1094 497.231 1087.08 490.5 1078.5 490.5C1068.94 490.5 1063 497.21 1063 505.5Z" stroke="#D0C3B4"/>
<path d="M1144.5 608V465L1123 476V620.5L1144.5 608Z" fill="#332D2A" stroke="#D0C3B4"/>
<rect x="539.5" y="370.5" width="314" height="177" rx="5.5" fill="#332D2A" stroke="#D0C3B4"/>
<mask id="path-24-inside-1_252_4860" fill="white">
<path d="M679 548H715V595H679V548Z"/>
</mask>
<path d="M679 548H715V595H679V548Z" fill="#332D2A"/>
<path d="M714 548V595H716V548H714ZM680 595V548H678V595H680Z" fill="#D0C3B4" mask="url(#path-24-inside-1_252_4860)"/>
<path d="M662.295 620.5L678.833 605.5H714.453L731.665 620.5H662.295Z" stroke="#D0C3B4"/>
<path d="M662.073 614.5L678.873 594.5H714.413L731.899 614.5H662.073Z" fill="#332D2A" stroke="#D0C3B4"/>
<path d="M547.5 672L534 718.5" stroke="#D0C3B4"/>
<path d="M571.5 672L560.5 719" stroke="#D0C3B4"/>
<path d="M538.017 682.686C538.162 682.287 538.543 682.023 538.968 682.028L550.847 682.163C551.537 682.171 552.011 682.857 551.776 683.505L550.742 686.346C550.596 686.745 550.215 687.008 549.79 687.003L537.911 686.868C537.222 686.861 536.747 686.174 536.983 685.526L538.017 682.686Z" fill="#D0C3B4"/>
<path d="M558.017 700.833C558.162 700.434 558.543 700.17 558.968 700.175L570.847 700.31C571.537 700.318 572.011 701.004 571.776 701.652L570.742 704.493C570.596 704.892 570.215 705.156 569.79 705.151L557.911 705.016C557.222 705.008 556.747 704.321 556.983 703.674L558.017 700.833Z" fill="#D0C3B4"/>
<path d="M680.5 659C680.5 660.131 679.717 661.246 678.257 662.105C676.808 662.957 674.774 663.5 672.5 663.5C670.226 663.5 668.192 662.957 666.743 662.105C665.283 661.246 664.5 660.131 664.5 659C664.5 657.869 665.283 656.755 666.743 655.896C668.192 655.043 670.226 654.5 672.5 654.5C674.774 654.5 676.808 655.043 678.257 655.896C679.717 656.755 680.5 657.869 680.5 659Z" stroke="#D0C3B4"/>
<path d="M706.5 659C706.5 660.131 705.717 661.246 704.257 662.105C702.808 662.957 700.774 663.5 698.5 663.5C696.226 663.5 694.192 662.957 692.743 662.105C691.283 661.246 690.5 660.131 690.5 659C690.5 657.869 691.283 656.755 692.743 655.896C694.192 655.043 696.226 654.5 698.5 654.5C700.774 654.5 702.808 655.043 704.257 655.896C705.717 656.755 706.5 657.869 706.5 659Z" stroke="#D0C3B4"/>
<path d="M732.5 659C732.5 660.131 731.717 661.246 730.257 662.105C728.808 662.957 726.774 663.5 724.5 663.5C722.226 663.5 720.192 662.957 718.743 662.105C717.283 661.246 716.5 660.131 716.5 659C716.5 657.869 717.283 656.755 718.743 655.896C720.192 655.043 722.226 654.5 724.5 654.5C726.774 654.5 728.808 655.043 730.257 655.896C731.717 656.755 732.5 657.869 732.5 659Z" stroke="#D0C3B4"/>
<rect x="465.5" y="88.5002" width="213" height="216" stroke="#D0C3B4"/>
<g opacity="0.2">
<rect x="472" y="97.0002" width="27.1357" height="25.7143" fill="#D0C3B4"/>
<rect x="472" y="126.524" width="27.1357" height="24.7619" fill="#D0C3B4"/>
<rect x="472" y="155.095" width="27.1357" height="25.7143" fill="#D0C3B4"/>
<rect x="472" y="184.619" width="27.1357" height="25.7143" fill="#D0C3B4"/>
<rect x="472" y="213.191" width="27.1357" height="25.7143" fill="#D0C3B4"/>
<rect x="472" y="242.715" width="27.1357" height="25.7143" fill="#D0C3B4"/>
<rect x="472" y="272.238" width="27.1357" height="24.7619" fill="#D0C3B4"/>
<rect x="501.146" y="97.0002" width="26.1307" height="25.7143" fill="#D0C3B4"/>
<rect x="501.146" y="126.524" width="26.1307" height="24.7619" fill="#D0C3B4"/>
<rect x="501.146" y="155.095" width="26.1307" height="25.7143" fill="#D0C3B4"/>
<rect x="501.146" y="184.619" width="26.1307" height="25.7143" fill="#D0C3B4"/>
<rect x="501.146" y="213.191" width="26.1307" height="25.7143" fill="#D0C3B4"/>
<rect x="501.146" y="242.715" width="26.1307" height="25.7143" fill="#D0C3B4"/>
<rect x="501.146" y="272.238" width="26.1307" height="24.7619" fill="#D0C3B4"/>
<rect x="529.286" y="97.0002" width="27.1357" height="25.7143" fill="#D0C3B4"/>
<rect x="529.286" y="126.524" width="27.1357" height="24.7619" fill="#D0C3B4"/>
<rect x="529.286" y="155.095" width="27.1357" height="25.7143" fill="#D0C3B4"/>
<rect x="529.286" y="184.619" width="27.1357" height="25.7143" fill="#D0C3B4"/>
<rect x="529.286" y="213.191" width="27.1357" height="25.7143" fill="#D0C3B4"/>
<rect x="529.286" y="242.715" width="27.1357" height="25.7143" fill="#D0C3B4"/>
<rect x="529.286" y="272.238" width="27.1357" height="24.7619" fill="#D0C3B4"/>
<rect x="558.432" y="97.0002" width="27.1357" height="25.7143" fill="#D0C3B4"/>
<rect x="558.432" y="126.524" width="27.1357" height="24.7619" fill="#D0C3B4"/>
<rect x="558.432" y="155.095" width="27.1357" height="25.7143" fill="#D0C3B4"/>
<rect x="558.432" y="184.619" width="27.1357" height="25.7143" fill="#D0C3B4"/>
<rect x="558.432" y="213.191" width="27.1357" height="25.7143" fill="#D0C3B4"/>
<rect x="558.432" y="242.715" width="27.1357" height="25.7143" fill="#D0C3B4"/>
<rect x="558.432" y="272.238" width="27.1357" height="24.7619" fill="#D0C3B4"/>
<rect x="587.578" y="97.0002" width="27.1357" height="25.7143" fill="#D0C3B4"/>
<rect x="587.578" y="126.524" width="27.1357" height="24.7619" fill="#D0C3B4"/>
<rect x="587.578" y="155.095" width="27.1357" height="25.7143" fill="#D0C3B4"/>
<rect x="587.578" y="184.619" width="27.1357" height="25.7143" fill="#D0C3B4"/>
<rect x="587.578" y="213.191" width="27.1357" height="25.7143" fill="#D0C3B4"/>
<rect x="587.578" y="242.715" width="27.1357" height="25.7143" fill="#D0C3B4"/>
<rect x="587.578" y="272.238" width="27.1357" height="24.7619" fill="#D0C3B4"/>
<rect x="616.724" y="97.0002" width="26.1307" height="25.7143" fill="#D0C3B4"/>
<rect x="616.724" y="126.524" width="26.1307" height="24.7619" fill="#D0C3B4"/>
<rect x="616.724" y="155.095" width="26.1307" height="25.7143" fill="#D0C3B4"/>
<rect x="616.724" y="184.619" width="26.1307" height="25.7143" fill="#D0C3B4"/>
<rect x="616.724" y="213.191" width="26.1307" height="25.7143" fill="#D0C3B4"/>
<rect x="616.724" y="242.715" width="26.1307" height="25.7143" fill="#D0C3B4"/>
<rect x="616.724" y="272.238" width="26.1307" height="24.7619" fill="#D0C3B4"/>
<rect x="644.864" y="97.0002" width="27.1357" height="25.7143" fill="#D0C3B4"/>
<rect x="644.864" y="126.524" width="27.1357" height="24.7619" fill="#D0C3B4"/>
<rect x="644.864" y="155.095" width="27.1357" height="25.7143" fill="#D0C3B4"/>
<rect x="644.864" y="184.619" width="27.1357" height="25.7143" fill="#D0C3B4"/>
<rect x="644.864" y="213.191" width="27.1357" height="25.7143" fill="#D0C3B4"/>
<rect x="644.864" y="242.715" width="27.1357" height="25.7143" fill="#D0C3B4"/>
<rect x="644.864" y="272.238" width="27.1357" height="24.7619" fill="#D0C3B4"/>
</g>
<rect x="724.5" y="88.5002" width="213" height="216" stroke="#D0C3B4"/>
<g opacity="0.2">
<rect x="731" y="97.0002" width="27.1357" height="25.7143" fill="#D0C3B4"/>
<rect x="731" y="126.524" width="27.1357" height="24.7619" fill="#D0C3B4"/>
<rect x="731" y="155.095" width="27.1357" height="25.7143" fill="#D0C3B4"/>
<rect x="731" y="184.619" width="27.1357" height="25.7143" fill="#D0C3B4"/>
<rect x="731" y="213.191" width="27.1357" height="25.7143" fill="#D0C3B4"/>
<rect x="731" y="242.715" width="27.1357" height="25.7143" fill="#D0C3B4"/>
<rect x="731" y="272.238" width="27.1357" height="24.7619" fill="#D0C3B4"/>
<rect x="760.146" y="97.0002" width="26.1307" height="25.7143" fill="#D0C3B4"/>
<rect x="760.146" y="126.524" width="26.1307" height="24.7619" fill="#D0C3B4"/>
<rect x="760.146" y="155.095" width="26.1307" height="25.7143" fill="#D0C3B4"/>
<rect x="760.146" y="184.619" width="26.1307" height="25.7143" fill="#D0C3B4"/>
<rect x="760.146" y="213.191" width="26.1307" height="25.7143" fill="#D0C3B4"/>
<rect x="760.146" y="242.715" width="26.1307" height="25.7143" fill="#D0C3B4"/>
<rect x="760.146" y="272.238" width="26.1307" height="24.7619" fill="#D0C3B4"/>
<rect x="788.286" y="97.0002" width="27.1357" height="25.7143" fill="#D0C3B4"/>
<rect x="788.286" y="126.524" width="27.1357" height="24.7619" fill="#D0C3B4"/>
<rect x="788.286" y="155.095" width="27.1357" height="25.7143" fill="#D0C3B4"/>
<rect x="788.286" y="184.619" width="27.1357" height="25.7143" fill="#D0C3B4"/>
<rect x="788.286" y="213.191" width="27.1357" height="25.7143" fill="#D0C3B4"/>
<rect x="788.286" y="242.715" width="27.1357" height="25.7143" fill="#D0C3B4"/>
<rect x="788.286" y="272.238" width="27.1357" height="24.7619" fill="#D0C3B4"/>
<rect x="817.432" y="97.0002" width="27.1357" height="25.7143" fill="#D0C3B4"/>
<rect x="817.432" y="126.524" width="27.1357" height="24.7619" fill="#D0C3B4"/>
<rect x="817.432" y="155.095" width="27.1357" height="25.7143" fill="#D0C3B4"/>
<rect x="817.432" y="184.619" width="27.1357" height="25.7143" fill="#D0C3B4"/>
<rect x="817.432" y="213.191" width="27.1357" height="25.7143" fill="#D0C3B4"/>
<rect x="817.432" y="242.715" width="27.1357" height="25.7143" fill="#D0C3B4"/>
<rect x="817.432" y="272.238" width="27.1357" height="24.7619" fill="#D0C3B4"/>
<rect x="846.578" y="97.0002" width="27.1357" height="25.7143" fill="#D0C3B4"/>
<rect x="846.578" y="126.524" width="27.1357" height="24.7619" fill="#D0C3B4"/>
<rect x="846.578" y="155.095" width="27.1357" height="25.7143" fill="#D0C3B4"/>
<rect x="846.578" y="184.619" width="27.1357" height="25.7143" fill="#D0C3B4"/>
<rect x="846.578" y="213.191" width="27.1357" height="25.7143" fill="#D0C3B4"/>
<rect x="846.578" y="242.715" width="27.1357" height="25.7143" fill="#D0C3B4"/>
<rect x="846.578" y="272.238" width="27.1357" height="24.7619" fill="#D0C3B4"/>
<rect x="875.724" y="97.0002" width="26.1307" height="25.7143" fill="#D0C3B4"/>
<rect x="875.724" y="126.524" width="26.1307" height="24.7619" fill="#D0C3B4"/>
<rect x="875.724" y="155.095" width="26.1307" height="25.7143" fill="#D0C3B4"/>
<rect x="875.724" y="184.619" width="26.1307" height="25.7143" fill="#D0C3B4"/>
<rect x="875.724" y="213.191" width="26.1307" height="25.7143" fill="#D0C3B4"/>
<rect x="875.724" y="242.715" width="26.1307" height="25.7143" fill="#D0C3B4"/>
<rect x="875.724" y="272.238" width="26.1307" height="24.7619" fill="#D0C3B4"/>
<rect x="903.864" y="97.0002" width="27.1357" height="25.7143" fill="#D0C3B4"/>
<rect x="903.864" y="126.524" width="27.1357" height="24.7619" fill="#D0C3B4"/>
<rect x="903.864" y="155.095" width="27.1357" height="25.7143" fill="#D0C3B4"/>
<rect x="903.864" y="184.619" width="27.1357" height="25.7143" fill="#D0C3B4"/>
<rect x="903.864" y="213.191" width="27.1357" height="25.7143" fill="#D0C3B4"/>
<rect x="903.864" y="242.715" width="27.1357" height="25.7143" fill="#D0C3B4"/>
<rect x="903.864" y="272.238" width="27.1357" height="24.7619" fill="#D0C3B4"/>
</g>
<path d="M54.9985 7.90454L55.0171 6.54077C54.4048 6.06763 53.7368 5.71509 52.9946 5.47388C52.2524 5.23267 51.4546 5.11206 50.5918 5.11206C49.6177 5.11206 48.6807 5.28833 47.7808 5.64087C46.8809 5.99341 46.1108 6.48511 45.48 7.10669C44.8213 7.74683 44.3203 8.50757 43.9678 9.37964C43.6152 10.261 43.4482 11.2073 43.4482 12.2185C43.4482 13.2576 43.6152 14.2039 43.9585 15.0667C44.2925 15.9387 44.7935 16.6995 45.4614 17.3489C46.1016 17.989 46.8716 18.4807 47.7715 18.8333C48.6621 19.1858 49.6084 19.3621 50.5918 19.3621C51.3154 19.3621 52.0576 19.26 52.7998 19.0374C53.542 18.8147 54.2563 18.4993 54.9243 18.0911V16.6438C54.2563 17.1633 53.5605 17.5623 52.8184 17.822C52.0762 18.0911 51.3154 18.2209 50.5361 18.2209C49.729 18.2209 48.9775 18.0818 48.2725 17.7942C47.5674 17.5159 46.9458 17.0984 46.4077 16.551C45.8511 15.9944 45.4429 15.3635 45.1738 14.6399C44.9048 13.9255 44.7749 13.1184 44.7749 12.2185C44.7749 10.4373 45.3223 8.98071 46.417 7.86743C47.5117 6.75415 48.9404 6.19751 50.7031 6.19751C51.4824 6.19751 52.2246 6.33667 52.9297 6.61499C53.6348 6.89331 54.3213 7.32935 54.9985 7.90454ZM64.2852 18.2581C63.4595 18.2581 62.6987 18.1189 61.9937 17.822C61.2886 17.5251 60.6484 17.0891 60.0825 16.5139C59.5073 15.9387 59.0806 15.28 58.7837 14.5564C58.4868 13.8328 58.3384 13.0535 58.3384 12.2371C58.3384 11.4207 58.4868 10.6506 58.7837 9.927C59.0806 9.20337 59.5073 8.55396 60.0825 7.96021C60.6577 7.39429 61.2979 6.95825 62.0122 6.66138C62.7173 6.3645 63.478 6.21606 64.2852 6.21606C65.0923 6.21606 65.853 6.3645 66.5767 6.66138C67.3003 6.95825 67.9404 7.39429 68.5063 7.96021C69.0723 8.54468 69.5083 9.20337 69.8052 9.927C70.1021 10.6506 70.2505 11.4207 70.2505 12.2371C70.2505 13.0535 70.0928 13.8235 69.7959 14.5564C69.499 15.2893 69.063 15.9387 68.5063 16.5139C67.9312 17.0891 67.2817 17.5159 66.5674 17.8127C65.8438 18.1096 65.083 18.2581 64.2852 18.2581ZM71.5586 12.2371C71.5586 11.2722 71.373 10.3538 71.0112 9.49097C70.6494 8.62817 70.1206 7.84888 69.4341 7.16235C68.7476 6.49438 67.9683 5.99341 67.0962 5.64087C66.2241 5.28833 65.2871 5.11206 64.2852 5.11206C63.2832 5.11206 62.3555 5.28833 61.4834 5.63159C60.6113 5.98413 59.832 6.49438 59.1548 7.16235C58.459 7.84888 57.9302 8.62817 57.5684 9.49097C57.2065 10.3538 57.0303 11.2722 57.0303 12.2371C57.0303 13.2019 57.2065 14.1111 57.5684 14.9646C57.9302 15.8181 58.459 16.5881 59.1548 17.2747C59.8413 17.9612 60.6299 18.4807 61.502 18.8333C62.374 19.1858 63.3018 19.3621 64.2852 19.3621C65.2593 19.3621 66.187 19.1858 67.0684 18.8333C67.9404 18.4807 68.729 17.9612 69.4341 17.2747C70.1206 16.6067 70.6401 15.8367 71.0112 14.9739C71.373 14.1111 71.5586 13.2019 71.5586 12.2371ZM74.2954 19.0002H80.1865V17.8406H75.5293V5.41821H74.2954V19.0002ZM82.144 19.0002H88.0352V17.8406H83.3779V5.41821H82.144V19.0002ZM89.9927 19.0002H96.7188V17.8406H91.2266V11.9866H96.7188V10.8269H91.2266V6.57788H96.7188V5.41821H89.9927V19.0002ZM110.663 7.90454L110.681 6.54077C110.069 6.06763 109.401 5.71509 108.659 5.47388C107.917 5.23267 107.119 5.11206 106.256 5.11206C105.282 5.11206 104.345 5.28833 103.445 5.64087C102.545 5.99341 101.775 6.48511 101.144 7.10669C100.485 7.74683 99.9844 8.50757 99.6318 9.37964C99.2793 10.261 99.1123 11.2073 99.1123 12.2185C99.1123 13.2576 99.2793 14.2039 99.6226 15.0667C99.9565 15.9387 100.458 16.6995 101.125 17.3489C101.766 17.989 102.536 18.4807 103.436 18.8333C104.326 19.1858 105.272 19.3621 106.256 19.3621C106.979 19.3621 107.722 19.26 108.464 19.0374C109.206 18.8147 109.92 18.4993 110.588 18.0911V16.6438C109.92 17.1633 109.225 17.5623 108.482 17.822C107.74 18.0911 106.979 18.2209 106.2 18.2209C105.393 18.2209 104.642 18.0818 103.937 17.7942C103.231 17.5159 102.61 17.0984 102.072 16.551C101.515 15.9944 101.107 15.3635 100.838 14.6399C100.569 13.9255 100.439 13.1184 100.439 12.2185C100.439 10.4373 100.986 8.98071 102.081 7.86743C103.176 6.75415 104.604 6.19751 106.367 6.19751C107.146 6.19751 107.889 6.33667 108.594 6.61499C109.299 6.89331 109.985 7.32935 110.663 7.90454ZM115.747 19.0002H116.98V6.57788H120.729V5.41821H112.008V6.57788H115.747V19.0002ZM122.779 19.0002H124.013V5.41821H122.779V19.0002ZM130.859 19.5291L136.352 5.41821H134.997L130.878 16.4768L126.963 5.41821H125.543L130.859 19.5291ZM137.864 19.0002H139.098V5.41821H137.864V19.0002ZM144.896 19.0002H146.13V6.57788H149.878V5.41821H141.157V6.57788H144.896V19.0002ZM151.928 19.0002H158.654V17.8406H153.162V11.9866H158.654V10.8269H153.162V6.57788H158.654V5.41821H151.928V19.0002ZM154.025 4.08228H154.897L157.522 0.835205H156.001L154.025 4.08228ZM216.424 19.0002H217.658V11.9866H225.052V19.0002H226.286V5.41821H225.052V10.929H217.658V5.41821H216.424V19.0002ZM236.287 18.2581C235.461 18.2581 234.701 18.1189 233.996 17.822C233.291 17.5251 232.65 17.0891 232.084 16.5139C231.509 15.9387 231.083 15.28 230.786 14.5564C230.489 13.8328 230.34 13.0535 230.34 12.2371C230.34 11.4207 230.489 10.6506 230.786 9.927C231.083 9.20337 231.509 8.55396 232.084 7.96021C232.66 7.39429 233.3 6.95825 234.014 6.66138C234.719 6.3645 235.48 6.21606 236.287 6.21606C237.094 6.21606 237.855 6.3645 238.579 6.66138C239.302 6.95825 239.942 7.39429 240.508 7.96021C241.074 8.54468 241.51 9.20337 241.807 9.927C242.104 10.6506 242.252 11.4207 242.252 12.2371C242.252 13.0535 242.095 13.8235 241.798 14.5564C241.501 15.2893 241.065 15.9387 240.508 16.5139C239.933 17.0891 239.284 17.5159 238.569 17.8127C237.846 18.1096 237.085 18.2581 236.287 18.2581ZM243.561 12.2371C243.561 11.2722 243.375 10.3538 243.013 9.49097C242.651 8.62817 242.123 7.84888 241.436 7.16235C240.75 6.49438 239.97 5.99341 239.098 5.64087C238.226 5.28833 237.289 5.11206 236.287 5.11206C235.285 5.11206 234.357 5.28833 233.485 5.63159C232.613 5.98413 231.834 6.49438 231.157 7.16235C230.461 7.84888 229.932 8.62817 229.57 9.49097C229.208 10.3538 229.032 11.2722 229.032 12.2371C229.032 13.2019 229.208 14.1111 229.57 14.9646C229.932 15.8181 230.461 16.5881 231.157 17.2747C231.843 17.9612 232.632 18.4807 233.504 18.8333C234.376 19.1858 235.304 19.3621 236.287 19.3621C237.261 19.3621 238.189 19.1858 239.07 18.8333C239.942 18.4807 240.731 17.9612 241.436 17.2747C242.123 16.6067 242.642 15.8367 243.013 14.9739C243.375 14.1111 243.561 13.2019 243.561 12.2371ZM252.495 19.5291L257.337 8.62817L258.349 19.0002H259.62L257.875 4.84302L252.476 16.9314L247.271 4.84302L245.425 19.0002H246.696L247.726 8.62817L252.495 19.5291ZM262.18 19.0002H268.906V17.8406H263.414V11.9866H268.906V10.8269H263.414V6.57788H268.906V5.41821H262.18V19.0002ZM276.375 16.718C276.727 17.5994 277.228 18.2581 277.859 18.7034C278.49 19.1487 279.26 19.3621 280.15 19.3621C281.375 19.3621 282.34 19.0095 283.054 18.2952C283.759 17.5808 284.121 16.616 284.121 15.3914C284.121 14.4915 283.926 13.7585 283.537 13.1926C283.147 12.6267 282.368 12.0237 281.217 11.3835C281.069 11.3093 280.846 11.1887 280.568 11.0403C278.991 10.2239 278.211 9.33325 278.211 8.37769C278.211 7.70972 278.406 7.18091 278.805 6.79126C279.195 6.40161 279.733 6.19751 280.401 6.19751C280.893 6.19751 281.319 6.29956 281.681 6.50366C282.043 6.70776 282.321 7.00464 282.525 7.39429L283.481 6.81909C283.166 6.2439 282.748 5.81714 282.247 5.52954C281.746 5.24194 281.152 5.09351 280.475 5.09351C279.436 5.09351 278.583 5.39966 277.933 6.00269C277.284 6.61499 276.959 7.39429 276.959 8.35913C276.959 9.13843 277.182 9.79712 277.636 10.3445C278.082 10.9011 278.991 11.532 280.364 12.2556C281.431 12.8308 282.126 13.3318 282.451 13.7585C282.776 14.1946 282.943 14.7419 282.943 15.3914C282.943 16.2913 282.702 16.9963 282.219 17.4973C281.737 18.0076 281.06 18.2581 280.206 18.2581C279.52 18.2581 278.935 18.0818 278.453 17.7107C277.97 17.3396 277.627 16.8201 277.432 16.1521L276.375 16.718ZM289.289 19.0002H290.522V6.57788H294.271V5.41821H285.55V6.57788H289.289V19.0002ZM296.265 5.41821V13.8884C296.265 15.7253 296.673 17.0984 297.49 18.0076C298.306 18.9167 299.54 19.3621 301.21 19.3621C302.861 19.3621 304.104 18.9167 304.921 18.0076C305.737 17.0984 306.146 15.7253 306.146 13.8884V5.41821H304.912V14.2874C304.912 15.6326 304.605 16.6345 303.993 17.2839C303.381 17.9333 302.453 18.2581 301.21 18.2581C299.948 18.2581 299.011 17.9333 298.399 17.2839C297.787 16.6345 297.48 15.6326 297.48 14.2874V5.41821H296.265ZM310.71 17.9333V6.43872H311.814H312.046C313.604 6.43872 314.69 6.52222 315.321 6.67993C315.942 6.84692 316.471 7.11597 316.907 7.50562C317.482 8.01587 317.909 8.66528 318.206 9.45386C318.503 10.2517 318.651 11.1609 318.651 12.2C318.651 13.2205 318.503 14.1204 318.215 14.9089C317.918 15.7068 317.492 16.3655 316.926 16.8943C316.518 17.2747 316.017 17.5437 315.432 17.7014C314.838 17.8591 313.846 17.9333 312.445 17.9333H310.71ZM309.476 19.0002H311.591H312.009C313.679 19.0002 314.894 18.9075 315.655 18.7126C316.406 18.5271 317.074 18.2024 317.668 17.7478C318.41 17.1819 318.976 16.4211 319.375 15.4749C319.765 14.5286 319.969 13.4431 319.969 12.2185C319.969 11.0032 319.765 9.91772 319.375 8.97144C318.976 8.02515 318.401 7.25513 317.649 6.6521C317.074 6.20679 316.397 5.88208 315.608 5.69653C314.811 5.51099 313.475 5.41821 311.591 5.41821H309.476V19.0002ZM322.724 19.0002H323.958V5.41821H322.724V19.0002ZM333.959 18.2581C333.133 18.2581 332.373 18.1189 331.667 17.822C330.962 17.5251 330.322 17.0891 329.756 16.5139C329.181 15.9387 328.754 15.28 328.458 14.5564C328.161 13.8328 328.012 13.0535 328.012 12.2371C328.012 11.4207 328.161 10.6506 328.458 9.927C328.754 9.20337 329.181 8.55396 329.756 7.96021C330.332 7.39429 330.972 6.95825 331.686 6.66138C332.391 6.3645 333.152 6.21606 333.959 6.21606C334.766 6.21606 335.527 6.3645 336.25 6.66138C336.974 6.95825 337.614 7.39429 338.18 7.96021C338.746 8.54468 339.182 9.20337 339.479 9.927C339.776 10.6506 339.924 11.4207 339.924 12.2371C339.924 13.0535 339.767 13.8235 339.47 14.5564C339.173 15.2893 338.737 15.9387 338.18 16.5139C337.605 17.0891 336.956 17.5159 336.241 17.8127C335.518 18.1096 334.757 18.2581 333.959 18.2581ZM341.232 12.2371C341.232 11.2722 341.047 10.3538 340.685 9.49097C340.323 8.62817 339.794 7.84888 339.108 7.16235C338.421 6.49438 337.642 5.99341 336.77 5.64087C335.898 5.28833 334.961 5.11206 333.959 5.11206C332.957 5.11206 332.029 5.28833 331.157 5.63159C330.285 5.98413 329.506 6.49438 328.829 7.16235C328.133 7.84888 327.604 8.62817 327.242 9.49097C326.88 10.3538 326.704 11.2722 326.704 12.2371C326.704 13.2019 326.88 14.1111 327.242 14.9646C327.604 15.8181 328.133 16.5881 328.829 17.2747C329.515 17.9612 330.304 18.4807 331.176 18.8333C332.048 19.1858 332.976 19.3621 333.959 19.3621C334.933 19.3621 335.861 19.1858 336.742 18.8333C337.614 18.4807 338.403 17.9612 339.108 17.2747C339.794 16.6067 340.314 15.8367 340.685 14.9739C341.047 14.1111 341.232 13.2019 341.232 12.2371ZM397.667 16.718C398.019 17.5994 398.52 18.2581 399.151 18.7034C399.782 19.1487 400.552 19.3621 401.442 19.3621C402.667 19.3621 403.632 19.0095 404.346 18.2952C405.051 17.5808 405.413 16.616 405.413 15.3914C405.413 14.4915 405.218 13.7585 404.829 13.1926C404.439 12.6267 403.66 12.0237 402.509 11.3835C402.361 11.3093 402.138 11.1887 401.86 11.0403C400.283 10.2239 399.503 9.33325 399.503 8.37769C399.503 7.70972 399.698 7.18091 400.097 6.79126C400.487 6.40161 401.025 6.19751 401.693 6.19751C402.185 6.19751 402.611 6.29956 402.973 6.50366C403.335 6.70776 403.613 7.00464 403.817 7.39429L404.773 6.81909C404.458 6.2439 404.04 5.81714 403.539 5.52954C403.038 5.24194 402.444 5.09351 401.767 5.09351C400.728 5.09351 399.875 5.39966 399.225 6.00269C398.576 6.61499 398.251 7.39429 398.251 8.35913C398.251 9.13843 398.474 9.79712 398.928 10.3445C399.374 10.9011 400.283 11.532 401.656 12.2556C402.723 12.8308 403.418 13.3318 403.743 13.7585C404.068 14.1946 404.235 14.7419 404.235 15.3914C404.235 16.2913 403.994 16.9963 403.511 17.4973C403.029 18.0076 402.352 18.2581 401.498 18.2581C400.812 18.2581 400.227 18.0818 399.745 17.7107C399.262 17.3396 398.919 16.8201 398.724 16.1521L397.667 16.718ZM409.783 13.3411L412.195 7.4314L414.514 13.3411H409.783ZM406.313 19.0002H407.565L409.365 14.3987H414.913L416.648 19.0002H417.993L412.278 4.88013L406.313 19.0002ZM419.524 19.0002H425.415V17.8406H420.758V5.41821H419.524V19.0002ZM427.373 19.0002H433.264V17.8406H428.606V5.41821H427.373V19.0002ZM435.221 19.0002H441.947V17.8406H436.455V11.9866H441.947V10.8269H436.455V6.57788H441.947V5.41821H435.221V19.0002ZM451.688 17.9333V6.43872H452.792H453.024C454.583 6.43872 455.668 6.52222 456.299 6.67993C456.921 6.84692 457.45 7.11597 457.886 7.50562C458.461 8.01587 458.888 8.66528 459.185 9.45386C459.481 10.2517 459.63 11.1609 459.63 12.2C459.63 13.2205 459.481 14.1204 459.194 14.9089C458.897 15.7068 458.47 16.3655 457.904 16.8943C457.496 17.2747 456.995 17.5437 456.411 17.7014C455.817 17.8591 454.824 17.9333 453.423 17.9333H451.688ZM450.455 19.0002H452.57H452.987C454.657 19.0002 455.873 18.9075 456.633 18.7126C457.385 18.5271 458.053 18.2024 458.646 17.7478C459.389 17.1819 459.955 16.4211 460.354 15.4749C460.743 14.5286 460.947 13.4431 460.947 12.2185C460.947 11.0032 460.743 9.91772 460.354 8.97144C459.955 8.02515 459.379 7.25513 458.628 6.6521C458.053 6.20679 457.375 5.88208 456.587 5.69653C455.789 5.51099 454.453 5.41821 452.57 5.41821H450.455V19.0002ZM463.703 19.0002H470.429V17.8406H464.937V11.9866H470.429V10.8269H464.937V6.57788H470.429V5.41821H463.703V19.0002ZM480.17 6.49438H481.413C482.526 6.49438 483.324 6.69849 483.797 7.08813C484.261 7.48706 484.502 8.15503 484.502 9.08276C484.502 9.97339 484.271 10.595 483.816 10.9661C483.361 11.3372 482.563 11.5134 481.413 11.5134H480.17V6.49438ZM487.184 19.0002L482.304 12.5247C483.398 12.5247 484.261 12.2278 484.892 11.6155C485.523 11.0125 485.838 10.1775 485.838 9.11987C485.838 7.87671 485.467 6.94897 484.734 6.33667C484.001 5.72437 482.897 5.41821 481.432 5.41821H478.936V19.0002H480.17V12.5247H480.912L485.681 19.0002H487.184ZM488.974 19.0002H495.7V17.8406H490.208V11.9866H495.7V10.8269H490.208V6.57788H495.7V5.41821H488.974V19.0002ZM491.071 4.08228H491.943L494.568 0.835205H493.047L491.071 4.08228ZM498.734 19.0002H499.968V12.905H501.396C502.955 12.905 504.105 12.6082 504.829 12.0051C505.553 11.4021 505.915 10.4558 505.915 9.15698C505.915 8.50757 505.794 7.90454 505.562 7.36646C505.321 6.82837 504.996 6.41089 504.569 6.09546C504.226 5.85425 503.827 5.68726 503.363 5.57593C502.899 5.47388 502.185 5.41821 501.211 5.41821H498.734V19.0002ZM499.968 11.8196V6.49438H500.812C501.795 6.49438 502.5 6.55005 502.918 6.66138C503.326 6.77271 503.66 6.96753 503.901 7.23657C504.133 7.50562 504.31 7.81177 504.43 8.14575C504.542 8.47974 504.606 8.85083 504.606 9.24976C504.606 10.2053 504.347 10.8733 503.827 11.2537C503.308 11.634 502.306 11.8196 500.812 11.8196H499.968ZM508.234 19.0002H514.96V17.8406H509.468V11.9866H514.96V10.8269H509.468V6.57788H514.96V5.41821H508.234V19.0002ZM510.331 4.08228H511.203L513.828 0.835205H512.307L510.331 4.08228ZM520.406 19.0002H521.64V6.57788H525.388V5.41821H516.667V6.57788H520.406V19.0002ZM527.438 19.0002H528.672V5.41821H527.438V19.0002ZM534.47 19.0002H535.704V6.57788H539.452V5.41821H530.731V6.57788H534.47V19.0002ZM541.502 19.0002H542.736V5.41821H541.502V19.0002ZM552.737 18.2581C551.912 18.2581 551.151 18.1189 550.446 17.822C549.741 17.5251 549.101 17.0891 548.535 16.5139C547.959 15.9387 547.533 15.28 547.236 14.5564C546.939 13.8328 546.791 13.0535 546.791 12.2371C546.791 11.4207 546.939 10.6506 547.236 9.927C547.533 9.20337 547.959 8.55396 548.535 7.96021C549.11 7.39429 549.75 6.95825 550.464 6.66138C551.169 6.3645 551.93 6.21606 552.737 6.21606C553.544 6.21606 554.305 6.3645 555.029 6.66138C555.752 6.95825 556.393 7.39429 556.958 7.96021C557.524 8.54468 557.96 9.20337 558.257 9.927C558.554 10.6506 558.703 11.4207 558.703 12.2371C558.703 13.0535 558.545 13.8235 558.248 14.5564C557.951 15.2893 557.515 15.9387 556.958 16.5139C556.383 17.0891 555.734 17.5159 555.02 17.8127C554.296 18.1096 553.535 18.2581 552.737 18.2581ZM560.011 12.2371C560.011 11.2722 559.825 10.3538 559.463 9.49097C559.102 8.62817 558.573 7.84888 557.886 7.16235C557.2 6.49438 556.42 5.99341 555.548 5.64087C554.676 5.28833 553.739 5.11206 552.737 5.11206C551.735 5.11206 550.808 5.28833 549.936 5.63159C549.063 5.98413 548.284 6.49438 547.607 7.16235C546.911 7.84888 546.382 8.62817 546.021 9.49097C545.659 10.3538 545.482 11.2722 545.482 12.2371C545.482 13.2019 545.659 14.1111 546.021 14.9646C546.382 15.8181 546.911 16.5881 547.607 17.2747C548.293 17.9612 549.082 18.4807 549.954 18.8333C550.826 19.1858 551.754 19.3621 552.737 19.3621C553.711 19.3621 554.639 19.1858 555.521 18.8333C556.393 18.4807 557.181 17.9612 557.886 17.2747C558.573 16.6067 559.092 15.8367 559.463 14.9739C559.825 14.1111 560.011 13.2019 560.011 12.2371ZM562.748 19.0002H563.907V8.01587L573.519 19.3992V5.41821H572.368V16.2078L562.748 4.84302V19.0002ZM630.602 16.718C630.955 17.5994 631.456 18.2581 632.086 18.7034C632.717 19.1487 633.487 19.3621 634.378 19.3621C635.603 19.3621 636.567 19.0095 637.282 18.2952C637.987 17.5808 638.349 16.616 638.349 15.3914C638.349 14.4915 638.154 13.7585 637.764 13.1926C637.375 12.6267 636.595 12.0237 635.445 11.3835C635.296 11.3093 635.074 11.1887 634.795 11.0403C633.218 10.2239 632.439 9.33325 632.439 8.37769C632.439 7.70972 632.634 7.18091 633.033 6.79126C633.422 6.40161 633.96 6.19751 634.628 6.19751C635.12 6.19751 635.547 6.29956 635.909 6.50366C636.271 6.70776 636.549 7.00464 636.753 7.39429L637.708 6.81909C637.393 6.2439 636.976 5.81714 636.475 5.52954C635.974 5.24194 635.38 5.09351 634.703 5.09351C633.664 5.09351 632.81 5.39966 632.161 6.00269C631.511 6.61499 631.187 7.39429 631.187 8.35913C631.187 9.13843 631.409 9.79712 631.864 10.3445C632.309 10.9011 633.218 11.532 634.591 12.2556C635.658 12.8308 636.354 13.3318 636.679 13.7585C637.003 14.1946 637.17 14.7419 637.17 15.3914C637.17 16.2913 636.929 16.9963 636.447 17.4973C635.964 18.0076 635.287 18.2581 634.434 18.2581C633.747 18.2581 633.163 18.0818 632.68 17.7107C632.198 17.3396 631.854 16.8201 631.66 16.1521L630.602 16.718ZM642.718 13.3411L645.13 7.4314L647.45 13.3411H642.718ZM639.249 19.0002H640.501L642.301 14.3987H647.849L649.583 19.0002H650.929L645.214 4.88013L639.249 19.0002ZM652.459 19.0002H658.351V17.8406H653.693V5.41821H652.459V19.0002ZM660.308 19.0002H666.199V17.8406H661.542V5.41821H660.308V19.0002ZM668.157 19.0002H674.883V17.8406H669.391V11.9866H674.883V10.8269H669.391V6.57788H674.883V5.41821H668.157V19.0002ZM684.624 17.9333V6.43872H685.728H685.96C687.519 6.43872 688.604 6.52222 689.235 6.67993C689.856 6.84692 690.385 7.11597 690.821 7.50562C691.396 8.01587 691.823 8.66528 692.12 9.45386C692.417 10.2517 692.565 11.1609 692.565 12.2C692.565 13.2205 692.417 14.1204 692.129 14.9089C691.833 15.7068 691.406 16.3655 690.84 16.8943C690.432 17.2747 689.931 17.5437 689.346 17.7014C688.752 17.8591 687.76 17.9333 686.359 17.9333H684.624ZM683.39 19.0002H685.505H685.923C687.593 19.0002 688.808 18.9075 689.569 18.7126C690.32 18.5271 690.988 18.2024 691.582 17.7478C692.324 17.1819 692.89 16.4211 693.289 15.4749C693.679 14.5286 693.883 13.4431 693.883 12.2185C693.883 11.0032 693.679 9.91772 693.289 8.97144C692.89 8.02515 692.315 7.25513 691.563 6.6521C690.988 6.20679 690.311 5.88208 689.522 5.69653C688.725 5.51099 687.389 5.41821 685.505 5.41821H683.39V19.0002ZM696.638 19.0002H703.364V17.8406H697.872V11.9866H703.364V10.8269H697.872V6.57788H703.364V5.41821H696.638V19.0002ZM705.359 16.718C705.711 17.5994 706.212 18.2581 706.843 18.7034C707.474 19.1487 708.244 19.3621 709.135 19.3621C710.359 19.3621 711.324 19.0095 712.039 18.2952C712.744 17.5808 713.105 16.616 713.105 15.3914C713.105 14.4915 712.911 13.7585 712.521 13.1926C712.131 12.6267 711.352 12.0237 710.202 11.3835C710.053 11.3093 709.831 11.1887 709.552 11.0403C707.975 10.2239 707.196 9.33325 707.196 8.37769C707.196 7.70972 707.391 7.18091 707.79 6.79126C708.179 6.40161 708.717 6.19751 709.385 6.19751C709.877 6.19751 710.304 6.29956 710.666 6.50366C711.027 6.70776 711.306 7.00464 711.51 7.39429L712.465 6.81909C712.15 6.2439 711.732 5.81714 711.231 5.52954C710.73 5.24194 710.137 5.09351 709.459 5.09351C708.42 5.09351 707.567 5.39966 706.917 6.00269C706.268 6.61499 705.943 7.39429 705.943 8.35913C705.943 9.13843 706.166 9.79712 706.621 10.3445C707.066 10.9011 707.975 11.532 709.348 12.2556C710.415 12.8308 711.111 13.3318 711.436 13.7585C711.76 14.1946 711.927 14.7419 711.927 15.3914C711.927 16.2913 711.686 16.9963 711.204 17.4973C710.721 18.0076 710.044 18.2581 709.19 18.2581C708.504 18.2581 707.919 18.0818 707.437 17.7107C706.955 17.3396 706.611 16.8201 706.417 16.1521L705.359 16.718ZM721.334 19.0002H722.568V11.9866H727.856V10.8269H722.568V6.57788H728.061V5.41821H721.334V19.0002ZM730.853 19.0002H737.579V17.8406H732.087V11.9866H737.579V10.8269H732.087V6.57788H737.579V5.41821H730.853V19.0002ZM731.521 4.08228H732.375L734.184 1.76294L735.974 4.08228H736.828L734.852 0.835205H733.497L731.521 4.08228ZM743.025 19.0002H744.259V6.57788H748.007V5.41821H739.286V6.57788H743.025V19.0002ZM750.057 19.0002H756.783V17.8406H751.291V11.9866H756.783V10.8269H751.291V6.57788H756.783V5.41821H750.057V19.0002ZM758.778 16.718C759.13 17.5994 759.631 18.2581 760.262 18.7034C760.893 19.1487 761.663 19.3621 762.554 19.3621C763.778 19.3621 764.743 19.0095 765.458 18.2952C766.163 17.5808 766.524 16.616 766.524 15.3914C766.524 14.4915 766.33 13.7585 765.94 13.1926C765.55 12.6267 764.771 12.0237 763.621 11.3835C763.472 11.3093 763.25 11.1887 762.971 11.0403C761.394 10.2239 760.615 9.33325 760.615 8.37769C760.615 7.70972 760.81 7.18091 761.208 6.79126C761.598 6.40161 762.136 6.19751 762.804 6.19751C763.296 6.19751 763.723 6.29956 764.084 6.50366C764.446 6.70776 764.725 7.00464 764.929 7.39429L765.884 6.81909C765.569 6.2439 765.151 5.81714 764.65 5.52954C764.149 5.24194 763.556 5.09351 762.878 5.09351C761.839 5.09351 760.986 5.39966 760.336 6.00269C759.687 6.61499 759.362 7.39429 759.362 8.35913C759.362 9.13843 759.585 9.79712 760.04 10.3445C760.485 10.9011 761.394 11.532 762.767 12.2556C763.834 12.8308 764.53 13.3318 764.854 13.7585C765.179 14.1946 765.346 14.7419 765.346 15.3914C765.346 16.2913 765.105 16.9963 764.623 17.4973C764.14 18.0076 763.463 18.2581 762.609 18.2581C761.923 18.2581 761.338 18.0818 760.856 17.7107C760.374 17.3396 760.03 16.8201 759.835 16.1521L758.778 16.718ZM822.977 16.718C823.33 17.5994 823.831 18.2581 824.461 18.7034C825.092 19.1487 825.862 19.3621 826.753 19.3621C827.978 19.3621 828.942 19.0095 829.657 18.2952C830.362 17.5808 830.724 16.616 830.724 15.3914C830.724 14.4915 830.529 13.7585 830.139 13.1926C829.75 12.6267 828.97 12.0237 827.82 11.3835C827.671 11.3093 827.449 11.1887 827.17 11.0403C825.593 10.2239 824.814 9.33325 824.814 8.37769C824.814 7.70972 825.009 7.18091 825.408 6.79126C825.797 6.40161 826.335 6.19751 827.003 6.19751C827.495 6.19751 827.922 6.29956 828.284 6.50366C828.646 6.70776 828.924 7.00464 829.128 7.39429L830.083 6.81909C829.768 6.2439 829.351 5.81714 828.85 5.52954C828.349 5.24194 827.755 5.09351 827.078 5.09351C826.039 5.09351 825.185 5.39966 824.536 6.00269C823.886 6.61499 823.562 7.39429 823.562 8.35913C823.562 9.13843 823.784 9.79712 824.239 10.3445C824.684 10.9011 825.593 11.532 826.966 12.2556C828.033 12.8308 828.729 13.3318 829.054 13.7585C829.378 14.1946 829.545 14.7419 829.545 15.3914C829.545 16.2913 829.304 16.9963 828.822 17.4973C828.339 18.0076 827.662 18.2581 826.809 18.2581C826.122 18.2581 825.538 18.0818 825.055 17.7107C824.573 17.3396 824.229 16.8201 824.035 16.1521L822.977 16.718ZM835.891 19.0002H837.125V6.57788H840.873V5.41821H832.152V6.57788H835.891V19.0002ZM842.868 5.41821V13.8884C842.868 15.7253 843.276 17.0984 844.092 18.0076C844.909 18.9167 846.143 19.3621 847.812 19.3621C849.464 19.3621 850.707 18.9167 851.523 18.0076C852.34 17.0984 852.748 15.7253 852.748 13.8884V5.41821H851.514V14.2874C851.514 15.6326 851.208 16.6345 850.596 17.2839C849.983 17.9333 849.056 18.2581 847.812 18.2581C846.551 18.2581 845.614 17.9333 845.001 17.2839C844.389 16.6345 844.083 15.6326 844.083 14.2874V5.41821H842.868ZM857.312 17.9333V6.43872H858.417H858.648C860.207 6.43872 861.292 6.52222 861.923 6.67993C862.545 6.84692 863.074 7.11597 863.51 7.50562C864.085 8.01587 864.512 8.66528 864.809 9.45386C865.105 10.2517 865.254 11.1609 865.254 12.2C865.254 13.2205 865.105 14.1204 864.818 14.9089C864.521 15.7068 864.094 16.3655 863.528 16.8943C863.12 17.2747 862.619 17.5437 862.035 17.7014C861.441 17.8591 860.448 17.9333 859.047 17.9333H857.312ZM856.079 19.0002H858.194H858.611C860.281 19.0002 861.497 18.9075 862.257 18.7126C863.009 18.5271 863.677 18.2024 864.271 17.7478C865.013 17.1819 865.579 16.4211 865.978 15.4749C866.367 14.5286 866.571 13.4431 866.571 12.2185C866.571 11.0032 866.367 9.91772 865.978 8.97144C865.579 8.02515 865.003 7.25513 864.252 6.6521C863.677 6.20679 863 5.88208 862.211 5.69653C861.413 5.51099 860.077 5.41821 858.194 5.41821H856.079V19.0002ZM869.327 19.0002H870.561V5.41821H869.327V19.0002ZM880.562 18.2581C879.736 18.2581 878.975 18.1189 878.27 17.822C877.565 17.5251 876.925 17.0891 876.359 16.5139C875.784 15.9387 875.357 15.28 875.06 14.5564C874.763 13.8328 874.615 13.0535 874.615 12.2371C874.615 11.4207 874.763 10.6506 875.06 9.927C875.357 9.20337 875.784 8.55396 876.359 7.96021C876.934 7.39429 877.574 6.95825 878.289 6.66138C878.994 6.3645 879.754 6.21606 880.562 6.21606C881.369 6.21606 882.129 6.3645 882.853 6.66138C883.577 6.95825 884.217 7.39429 884.783 7.96021C885.349 8.54468 885.785 9.20337 886.082 9.927C886.378 10.6506 886.527 11.4207 886.527 12.2371C886.527 13.0535 886.369 13.8235 886.072 14.5564C885.775 15.2893 885.339 15.9387 884.783 16.5139C884.208 17.0891 883.558 17.5159 882.844 17.8127C882.12 18.1096 881.359 18.2581 880.562 18.2581ZM887.835 12.2371C887.835 11.2722 887.649 10.3538 887.288 9.49097C886.926 8.62817 886.397 7.84888 885.71 7.16235C885.024 6.49438 884.245 5.99341 883.373 5.64087C882.5 5.28833 881.563 5.11206 880.562 5.11206C879.56 5.11206 878.632 5.28833 877.76 5.63159C876.888 5.98413 876.108 6.49438 875.431 7.16235C874.735 7.84888 874.207 8.62817 873.845 9.49097C873.483 10.3538 873.307 11.2722 873.307 12.2371C873.307 13.2019 873.483 14.1111 873.845 14.9646C874.207 15.8181 874.735 16.5881 875.431 17.2747C876.118 17.9612 876.906 18.4807 877.778 18.8333C878.65 19.1858 879.578 19.3621 880.562 19.3621C881.536 19.3621 882.463 19.1858 883.345 18.8333C884.217 18.4807 885.005 17.9612 885.71 17.2747C886.397 16.6067 886.917 15.8367 887.288 14.9739C887.649 14.1111 887.835 13.2019 887.835 12.2371ZM897.279 17.9333V6.43872H898.383H898.615C900.174 6.43872 901.259 6.52222 901.89 6.67993C902.512 6.84692 903.041 7.11597 903.477 7.50562C904.052 8.01587 904.479 8.66528 904.775 9.45386C905.072 10.2517 905.221 11.1609 905.221 12.2C905.221 13.2205 905.072 14.1204 904.785 14.9089C904.488 15.7068 904.061 16.3655 903.495 16.8943C903.087 17.2747 902.586 17.5437 902.001 17.7014C901.408 17.8591 900.415 17.9333 899.014 17.9333H897.279ZM896.045 19.0002H898.161H898.578C900.248 19.0002 901.463 18.9075 902.224 18.7126C902.976 18.5271 903.644 18.2024 904.237 17.7478C904.979 17.1819 905.545 16.4211 905.944 15.4749C906.334 14.5286 906.538 13.4431 906.538 12.2185C906.538 11.0032 906.334 9.91772 905.944 8.97144C905.545 8.02515 904.97 7.25513 904.219 6.6521C903.644 6.20679 902.966 5.88208 902.178 5.69653C901.38 5.51099 900.044 5.41821 898.161 5.41821H896.045V19.0002ZM909.331 5.69653H908.533V10.8269H909.331V5.69653ZM911.947 19.0002H918.673V17.8406H913.181V11.9866H918.673V10.8269H913.181V6.57788H918.673V5.41821H911.947V19.0002ZM921.707 19.0002H922.866V8.01587L932.478 19.3992V5.41821H931.327V16.2078L921.707 4.84302V19.0002ZM937.098 6.49438H938.341C939.454 6.49438 940.252 6.69849 940.725 7.08813C941.189 7.48706 941.43 8.15503 941.43 9.08276C941.43 9.97339 941.198 10.595 940.744 10.9661C940.289 11.3372 939.491 11.5134 938.341 11.5134H937.098V6.49438ZM944.111 19.0002L939.231 12.5247C940.326 12.5247 941.189 12.2278 941.82 11.6155C942.451 11.0125 942.766 10.1775 942.766 9.11987C942.766 7.87671 942.395 6.94897 941.662 6.33667C940.929 5.72437 939.825 5.41821 938.359 5.41821H935.864V19.0002H937.098V12.5247H937.84L942.608 19.0002H944.111ZM945.902 19.0002H952.628V17.8406H947.136V11.9866H952.628V10.8269H947.136V6.57788H952.628V5.41821H945.902V19.0002ZM966.794 8.83228L967.694 8.05298C967.156 7.08813 966.405 6.3645 965.421 5.86353C964.438 5.36255 963.25 5.11206 961.877 5.11206C960.857 5.11206 959.938 5.28833 959.113 5.63159C958.287 5.98413 957.545 6.50366 956.896 7.19946C956.283 7.84888 955.819 8.60034 955.504 9.47241C955.179 10.3445 955.021 11.2629 955.021 12.2371C955.021 14.3708 955.652 16.0872 956.933 17.3953C958.204 18.7126 959.874 19.3621 961.933 19.3621C964.002 19.3621 965.625 18.7498 966.813 17.5251C967.991 16.3005 968.585 14.6121 968.585 12.4412V12.2927H962.545V13.3596H967.23C967.203 14.8069 966.711 15.9851 965.755 16.8757C964.8 17.7756 963.566 18.2209 962.044 18.2209C961.237 18.2209 960.495 18.0911 959.827 17.8127C959.15 17.5344 958.538 17.1262 958 16.5696C957.461 16.0129 957.044 15.3821 956.766 14.6584C956.487 13.9441 956.348 13.1833 956.348 12.3669C956.348 10.5579 956.877 9.08276 957.935 7.94165C958.992 6.80981 960.356 6.23462 962.044 6.23462C963.046 6.23462 963.956 6.45728 964.763 6.89331C965.561 7.33862 966.238 7.97876 966.794 8.83228ZM971.192 19.0002H972.426V5.41821H971.192V19.0002ZM974.773 16.718C975.125 17.5994 975.626 18.2581 976.257 18.7034C976.888 19.1487 977.658 19.3621 978.549 19.3621C979.773 19.3621 980.738 19.0095 981.453 18.2952C982.158 17.5808 982.52 16.616 982.52 15.3914C982.52 14.4915 982.325 13.7585 981.935 13.1926C981.545 12.6267 980.766 12.0237 979.616 11.3835C979.467 11.3093 979.245 11.1887 978.966 11.0403C977.389 10.2239 976.61 9.33325 976.61 8.37769C976.61 7.70972 976.805 7.18091 977.204 6.79126C977.593 6.40161 978.131 6.19751 978.799 6.19751C979.291 6.19751 979.718 6.29956 980.08 6.50366C980.441 6.70776 980.72 7.00464 980.924 7.39429L981.879 6.81909C981.564 6.2439 981.146 5.81714 980.646 5.52954C980.145 5.24194 979.551 5.09351 978.874 5.09351C977.834 5.09351 976.981 5.39966 976.332 6.00269C975.682 6.61499 975.357 7.39429 975.357 8.35913C975.357 9.13843 975.58 9.79712 976.035 10.3445C976.48 10.9011 977.389 11.532 978.762 12.2556C979.829 12.8308 980.525 13.3318 980.85 13.7585C981.174 14.1946 981.341 14.7419 981.341 15.3914C981.341 16.2913 981.1 16.9963 980.618 17.4973C980.135 18.0076 979.458 18.2581 978.604 18.2581C977.918 18.2581 977.333 18.0818 976.851 17.7107C976.369 17.3396 976.025 16.8201 975.831 16.1521L974.773 16.718ZM987.687 19.0002H988.921V6.57788H992.669V5.41821H983.948V6.57788H987.687V19.0002ZM995.953 6.49438H997.196C998.31 6.49438 999.107 6.69849 999.581 7.08813C1000.04 7.48706 1000.29 8.15503 1000.29 9.08276C1000.29 9.97339 1000.05 10.595 999.599 10.9661C999.145 11.3372 998.347 11.5134 997.196 11.5134H995.953V6.49438ZM1002.97 19.0002L998.087 12.5247C999.182 12.5247 1000.04 12.2278 1000.68 11.6155C1001.31 11.0125 1001.62 10.1775 1001.62 9.11987C1001.62 7.87671 1001.25 6.94897 1000.52 6.33667C999.785 5.72437 998.681 5.41821 997.215 5.41821H994.719V19.0002H995.953V12.5247H996.695L1001.46 19.0002H1002.97ZM1004.76 19.0002H1011.48V17.8406H1005.99V11.9866H1011.48V10.8269H1005.99V6.57788H1011.48V5.41821H1004.76V19.0002ZM1020.71 19.5291L1025.56 8.62817L1026.57 19.0002H1027.84L1026.1 4.84302L1020.7 16.9314L1015.49 4.84302L1013.65 19.0002H1014.92L1015.95 8.62817L1020.71 19.5291ZM1030.4 19.0002H1037.13V17.8406H1031.63V11.9866H1037.13V10.8269H1031.63V6.57788H1037.13V5.41821H1030.4V19.0002ZM1040.16 19.0002H1041.32V8.01587L1050.93 19.3992V5.41821H1049.78V16.2078L1040.16 4.84302V19.0002ZM1056.73 19.0002H1057.96V6.57788H1061.71V5.41821H1052.99V6.57788H1056.73V19.0002ZM1118.5 19.0002H1119.73V11.9866H1127.13V19.0002H1128.36V5.41821H1127.13V10.929H1119.73V5.41821H1118.5V19.0002ZM1138.36 18.2581C1137.53 18.2581 1136.77 18.1189 1136.07 17.822C1135.36 17.5251 1134.72 17.0891 1134.16 16.5139C1133.58 15.9387 1133.16 15.28 1132.86 14.5564C1132.56 13.8328 1132.41 13.0535 1132.41 12.2371C1132.41 11.4207 1132.56 10.6506 1132.86 9.927C1133.16 9.20337 1133.58 8.55396 1134.16 7.96021C1134.73 7.39429 1135.37 6.95825 1136.09 6.66138C1136.79 6.3645 1137.55 6.21606 1138.36 6.21606C1139.17 6.21606 1139.93 6.3645 1140.65 6.66138C1141.38 6.95825 1142.02 7.39429 1142.58 7.96021C1143.15 8.54468 1143.58 9.20337 1143.88 9.927C1144.18 10.6506 1144.33 11.4207 1144.33 12.2371C1144.33 13.0535 1144.17 13.8235 1143.87 14.5564C1143.57 15.2893 1143.14 15.9387 1142.58 16.5139C1142.01 17.0891 1141.36 17.5159 1140.64 17.8127C1139.92 18.1096 1139.16 18.2581 1138.36 18.2581ZM1145.63 12.2371C1145.63 11.2722 1145.45 10.3538 1145.09 9.49097C1144.72 8.62817 1144.2 7.84888 1143.51 7.16235C1142.82 6.49438 1142.04 5.99341 1141.17 5.64087C1140.3 5.28833 1139.36 5.11206 1138.36 5.11206C1137.36 5.11206 1136.43 5.28833 1135.56 5.63159C1134.69 5.98413 1133.91 6.49438 1133.23 7.16235C1132.53 7.84888 1132.01 8.62817 1131.64 9.49097C1131.28 10.3538 1131.11 11.2722 1131.11 12.2371C1131.11 13.2019 1131.28 14.1111 1131.64 14.9646C1132.01 15.8181 1132.53 16.5881 1133.23 17.2747C1133.92 17.9612 1134.71 18.4807 1135.58 18.8333C1136.45 19.1858 1137.38 19.3621 1138.36 19.3621C1139.33 19.3621 1140.26 19.1858 1141.14 18.8333C1142.02 18.4807 1142.8 17.9612 1143.51 17.2747C1144.2 16.6067 1144.72 15.8367 1145.09 14.9739C1145.45 14.1111 1145.63 13.2019 1145.63 12.2371ZM1154.57 19.5291L1159.41 8.62817L1160.42 19.0002H1161.69L1159.95 4.84302L1154.55 16.9314L1149.34 4.84302L1147.5 19.0002H1148.77L1149.8 8.62817L1154.57 19.5291ZM1164.25 19.0002H1170.98V17.8406H1165.49V11.9866H1170.98V10.8269H1165.49V6.57788H1170.98V5.41821H1164.25V19.0002ZM1190.4 7.90454L1190.42 6.54077C1189.8 6.06763 1189.14 5.71509 1188.39 5.47388C1187.65 5.23267 1186.85 5.11206 1185.99 5.11206C1185.02 5.11206 1184.08 5.28833 1183.18 5.64087C1182.28 5.99341 1181.51 6.48511 1180.88 7.10669C1180.22 7.74683 1179.72 8.50757 1179.37 9.37964C1179.01 10.261 1178.85 11.2073 1178.85 12.2185C1178.85 13.2576 1179.01 14.2039 1179.36 15.0667C1179.69 15.9387 1180.19 16.6995 1180.86 17.3489C1181.5 17.989 1182.27 18.4807 1183.17 18.8333C1184.06 19.1858 1185.01 19.3621 1185.99 19.3621C1186.71 19.3621 1187.46 19.26 1188.2 19.0374C1188.94 18.8147 1189.65 18.4993 1190.32 18.0911V16.6438C1189.65 17.1633 1188.96 17.5623 1188.22 17.822C1187.47 18.0911 1186.71 18.2209 1185.93 18.2209C1185.13 18.2209 1184.38 18.0818 1183.67 17.7942C1182.97 17.5159 1182.34 17.0984 1181.81 16.551C1181.25 15.9944 1180.84 15.3635 1180.57 14.6399C1180.3 13.9255 1180.17 13.1184 1180.17 12.2185C1180.17 10.4373 1180.72 8.98071 1181.82 7.86743C1182.91 6.75415 1184.34 6.19751 1186.1 6.19751C1186.88 6.19751 1187.62 6.33667 1188.33 6.61499C1189.03 6.89331 1189.72 7.32935 1190.4 7.90454ZM1193.07 19.0002H1194.3V5.41821H1193.07V19.0002ZM1197.69 19.0002H1198.85V8.01587L1208.46 19.3992V5.41821H1207.31V16.2078L1197.69 4.84302V19.0002ZM1211.85 19.0002H1218.57V17.8406H1213.08V11.9866H1218.57V10.8269H1213.08V6.57788H1218.57V5.41821H1211.85V19.0002ZM1213.94 4.08228H1214.81L1217.44 0.835205H1215.92L1213.94 4.08228ZM1227.8 19.5291L1232.65 8.62817L1233.66 19.0002H1234.93L1233.18 4.84302L1227.78 16.9314L1222.58 4.84302L1220.73 19.0002H1222L1223.03 8.62817L1227.8 19.5291ZM1239.1 13.3411L1241.52 7.4314L1243.83 13.3411H1239.1ZM1235.63 19.0002H1236.89L1238.69 14.3987H1244.23L1245.97 19.0002H1247.31L1241.6 4.88013L1235.63 19.0002ZM1307.04 19.5291L1312.53 5.41821H1311.18L1307.06 16.4768L1303.14 5.41821H1301.73L1307.04 19.5291ZM1320.66 18.2581C1319.83 18.2581 1319.07 18.1189 1318.37 17.822C1317.66 17.5251 1317.02 17.0891 1316.46 16.5139C1315.88 15.9387 1315.46 15.28 1315.16 14.5564C1314.86 13.8328 1314.71 13.0535 1314.71 12.2371C1314.71 11.4207 1314.86 10.6506 1315.16 9.927C1315.46 9.20337 1315.88 8.55396 1316.46 7.96021C1317.03 7.39429 1317.67 6.95825 1318.39 6.66138C1319.09 6.3645 1319.85 6.21606 1320.66 6.21606C1321.47 6.21606 1322.23 6.3645 1322.95 6.66138C1323.68 6.95825 1324.32 7.39429 1324.88 7.96021C1325.45 8.54468 1325.88 9.20337 1326.18 9.927C1326.48 10.6506 1326.63 11.4207 1326.63 12.2371C1326.63 13.0535 1326.47 13.8235 1326.17 14.5564C1325.87 15.2893 1325.44 15.9387 1324.88 16.5139C1324.31 17.0891 1323.66 17.5159 1322.94 17.8127C1322.22 18.1096 1321.46 18.2581 1320.66 18.2581ZM1327.93 12.2371C1327.93 11.2722 1327.75 10.3538 1327.39 9.49097C1327.02 8.62817 1326.5 7.84888 1325.81 7.16235C1325.12 6.49438 1324.34 5.99341 1323.47 5.64087C1322.6 5.28833 1321.66 5.11206 1320.66 5.11206C1319.66 5.11206 1318.73 5.28833 1317.86 5.63159C1316.99 5.98413 1316.21 6.49438 1315.53 7.16235C1314.83 7.84888 1314.31 8.62817 1313.94 9.49097C1313.58 10.3538 1313.41 11.2722 1313.41 12.2371C1313.41 13.2019 1313.58 14.1111 1313.94 14.9646C1314.31 15.8181 1314.83 16.5881 1315.53 17.2747C1316.22 17.9612 1317 18.4807 1317.88 18.8333C1318.75 19.1858 1319.68 19.3621 1320.66 19.3621C1321.63 19.3621 1322.56 19.1858 1323.44 18.8333C1324.32 18.4807 1325.1 17.9612 1325.81 17.2747C1326.5 16.6067 1327.02 15.8367 1327.39 14.9739C1327.75 14.1111 1327.93 13.2019 1327.93 12.2371ZM1330.61 5.41821V13.8884C1330.61 15.7253 1331.02 17.0984 1331.84 18.0076C1332.66 18.9167 1333.89 19.3621 1335.56 19.3621C1337.21 19.3621 1338.45 18.9167 1339.27 18.0076C1340.09 17.0984 1340.5 15.7253 1340.5 13.8884V5.41821H1339.26V14.2874C1339.26 15.6326 1338.96 16.6345 1338.34 17.2839C1337.73 17.9333 1336.8 18.2581 1335.56 18.2581C1334.3 18.2581 1333.36 17.9333 1332.75 17.2839C1332.14 16.6345 1331.83 15.6326 1331.83 14.2874V5.41821H1330.61ZM1342.79 16.718C1343.14 17.5994 1343.64 18.2581 1344.27 18.7034C1344.9 19.1487 1345.67 19.3621 1346.56 19.3621C1347.79 19.3621 1348.75 19.0095 1349.47 18.2952C1350.17 17.5808 1350.53 16.616 1350.53 15.3914C1350.53 14.4915 1350.34 13.7585 1349.95 13.1926C1349.56 12.6267 1348.78 12.0237 1347.63 11.3835C1347.48 11.3093 1347.26 11.1887 1346.98 11.0403C1345.4 10.2239 1344.62 9.33325 1344.62 8.37769C1344.62 7.70972 1344.82 7.18091 1345.22 6.79126C1345.61 6.40161 1346.15 6.19751 1346.81 6.19751C1347.3 6.19751 1347.73 6.29956 1348.09 6.50366C1348.46 6.70776 1348.73 7.00464 1348.94 7.39429L1349.89 6.81909C1349.58 6.2439 1349.16 5.81714 1348.66 5.52954C1348.16 5.24194 1347.56 5.09351 1346.89 5.09351C1345.85 5.09351 1344.99 5.39966 1344.35 6.00269C1343.7 6.61499 1343.37 7.39429 1343.37 8.35913C1343.37 9.13843 1343.59 9.79712 1344.05 10.3445C1344.49 10.9011 1345.4 11.532 1346.78 12.2556C1347.84 12.8308 1348.54 13.3318 1348.86 13.7585C1349.19 14.1946 1349.35 14.7419 1349.35 15.3914C1349.35 16.2913 1349.11 16.9963 1348.63 17.4973C1348.15 18.0076 1347.47 18.2581 1346.62 18.2581C1345.93 18.2581 1345.35 18.0818 1344.86 17.7107C1344.38 17.3396 1344.04 16.8201 1343.84 16.1521L1342.79 16.718Z" fill="#D0C3B4"/>
</svg>
