<svg width="154" height="1077" viewBox="0 0 154 1077" fill="none" xmlns="http://www.w3.org/2000/svg">
<rect x="154" width="4.33009" height="4.27778" transform="rotate(90 154 0)" fill="#D0C3B4"/>
<rect x="154" y="19.4854" width="4.33009" height="4.27778" transform="rotate(90 154 19.4854)" fill="#D0C3B4"/>
<rect x="154" y="38.9709" width="4.33009" height="4.27778" transform="rotate(90 154 38.9709)" fill="#D0C3B4"/>
<rect x="154" y="58.4563" width="4.33009" height="4.27778" transform="rotate(90 154 58.4563)" fill="#D0C3B4"/>
<rect x="154" y="77.9417" width="4.33009" height="4.27778" transform="rotate(90 154 77.9417)" fill="#D0C3B4"/>
<rect x="154" y="97.427" width="4.33009" height="4.27778" transform="rotate(90 154 97.427)" fill="#D0C3B4"/>
<rect x="154" y="116.913" width="4.33009" height="4.27778" transform="rotate(90 154 116.913)" fill="#D0C3B4"/>
<rect x="154" y="136.398" width="4.33009" height="4.27778" transform="rotate(90 154 136.398)" fill="#D0C3B4"/>
<rect x="154" y="155.883" width="4.33009" height="4.27778" transform="rotate(90 154 155.883)" fill="#D0C3B4"/>
<rect x="154" y="175.369" width="4.33009" height="4.27778" transform="rotate(90 154 175.369)" fill="#D0C3B4"/>
<rect x="154" y="194.854" width="4.33009" height="4.27778" transform="rotate(90 154 194.854)" fill="#D0C3B4"/>
<rect x="154" y="214.34" width="4.33009" height="4.27778" transform="rotate(90 154 214.34)" fill="#D0C3B4"/>
<rect x="154" y="233.825" width="4.33009" height="4.27778" transform="rotate(90 154 233.825)" fill="#D0C3B4"/>
<rect x="154" y="253.31" width="4.33009" height="4.27778" transform="rotate(90 154 253.31)" fill="#D0C3B4"/>
<rect x="154" y="272.796" width="4.33009" height="4.27778" transform="rotate(90 154 272.796)" fill="#D0C3B4"/>
<rect x="154" y="292.281" width="4.33009" height="4.27778" transform="rotate(90 154 292.281)" fill="#D0C3B4"/>
<rect x="154" y="311.767" width="4.33009" height="4.27778" transform="rotate(90 154 311.767)" fill="#D0C3B4"/>
<rect x="154" y="331.252" width="4.33009" height="4.27778" transform="rotate(90 154 331.252)" fill="#D0C3B4"/>
<rect x="154" y="350.738" width="4.33009" height="4.27778" transform="rotate(90 154 350.738)" fill="#D0C3B4"/>
<rect x="154" y="370.223" width="4.33009" height="4.27778" transform="rotate(90 154 370.223)" fill="#D0C3B4"/>
<rect x="154" y="389.708" width="4.33009" height="4.27778" transform="rotate(90 154 389.708)" fill="#D0C3B4"/>
<rect x="154" y="409.194" width="4.33009" height="4.27778" transform="rotate(90 154 409.194)" fill="#D0C3B4"/>
<rect x="154" y="428.679" width="4.33009" height="4.27778" transform="rotate(90 154 428.679)" fill="#D0C3B4"/>
<rect x="154" y="448.165" width="4.33009" height="4.27778" transform="rotate(90 154 448.165)" fill="#D0C3B4"/>
<rect x="154" y="467.65" width="4.33009" height="4.27778" transform="rotate(90 154 467.65)" fill="#D0C3B4"/>
<rect x="154" y="487.135" width="4.33009" height="4.27778" transform="rotate(90 154 487.135)" fill="#D0C3B4"/>
<rect x="154" y="506.621" width="4.33009" height="4.27778" transform="rotate(90 154 506.621)" fill="#D0C3B4"/>
<rect x="154" y="526.106" width="4.33009" height="4.27778" transform="rotate(90 154 526.106)" fill="#D0C3B4"/>
<rect x="154" y="545.592" width="4.33009" height="4.27778" transform="rotate(90 154 545.592)" fill="#D0C3B4"/>
<rect x="154" y="565.077" width="4.33009" height="4.27778" transform="rotate(90 154 565.077)" fill="#D0C3B4"/>
<rect x="154" y="584.562" width="4.33009" height="4.27778" transform="rotate(90 154 584.562)" fill="#D0C3B4"/>
<rect x="154" y="604.048" width="4.33009" height="4.27778" transform="rotate(90 154 604.048)" fill="#D0C3B4"/>
<rect x="154" y="623.533" width="4.33009" height="4.27778" transform="rotate(90 154 623.533)" fill="#D0C3B4"/>
<rect x="154" y="643.019" width="4.33009" height="4.27778" transform="rotate(90 154 643.019)" fill="#D0C3B4"/>
<rect x="154" y="662.504" width="4.33009" height="4.27778" transform="rotate(90 154 662.504)" fill="#D0C3B4"/>
<rect x="154" y="681.99" width="4.33009" height="4.27778" transform="rotate(90 154 681.99)" fill="#D0C3B4"/>
<rect x="154" y="701.475" width="4.33009" height="4.27778" transform="rotate(90 154 701.475)" fill="#D0C3B4"/>
<rect x="154" y="720.96" width="4.33009" height="4.27778" transform="rotate(90 154 720.96)" fill="#D0C3B4"/>
<rect x="154" y="740.446" width="4.33009" height="4.27778" transform="rotate(90 154 740.446)" fill="#D0C3B4"/>
<rect x="154" y="759.931" width="4.33009" height="4.27778" transform="rotate(90 154 759.931)" fill="#D0C3B4"/>
<rect x="154" y="779.417" width="4.33009" height="4.27778" transform="rotate(90 154 779.417)" fill="#D0C3B4"/>
<rect x="154" y="798.902" width="4.33009" height="4.27778" transform="rotate(90 154 798.902)" fill="#D0C3B4"/>
<rect x="154" y="818.387" width="4.33009" height="4.27778" transform="rotate(90 154 818.387)" fill="#D0C3B4"/>
<rect x="154" y="837.873" width="4.33009" height="4.27778" transform="rotate(90 154 837.873)" fill="#D0C3B4"/>
<rect x="154" y="857.358" width="4.33009" height="4.27778" transform="rotate(90 154 857.358)" fill="#D0C3B4"/>
<rect x="154" y="876.844" width="4.33009" height="4.27778" transform="rotate(90 154 876.844)" fill="#D0C3B4"/>
<rect x="154" y="896.329" width="4.33009" height="4.27778" transform="rotate(90 154 896.329)" fill="#D0C3B4"/>
<rect x="154" y="915.814" width="4.33009" height="4.27778" transform="rotate(90 154 915.814)" fill="#D0C3B4"/>
<rect x="154" y="935.3" width="4.33009" height="4.27778" transform="rotate(90 154 935.3)" fill="#D0C3B4"/>
<rect x="154" y="954.785" width="4.33009" height="4.27778" transform="rotate(90 154 954.785)" fill="#D0C3B4"/>
<rect x="154" y="974.271" width="4.33009" height="4.27778" transform="rotate(90 154 974.271)" fill="#D0C3B4"/>
<rect x="154" y="993.756" width="4.33009" height="4.27778" transform="rotate(90 154 993.756)" fill="#D0C3B4"/>
<rect x="154" y="1013.24" width="4.33009" height="4.27778" transform="rotate(90 154 1013.24)" fill="#D0C3B4"/>
<rect x="154" y="1032.73" width="4.33009" height="4.27778" transform="rotate(90 154 1032.73)" fill="#D0C3B4"/>
<rect x="154" y="1052.21" width="4.33009" height="4.27778" transform="rotate(90 154 1052.21)" fill="#D0C3B4"/>
<rect x="154" y="1071.7" width="4.33009" height="4.27778" transform="rotate(90 154 1071.7)" fill="#D0C3B4"/>
<rect x="139.028" width="4.33009" height="4.27778" transform="rotate(90 139.028 0)" fill="#D0C3B4"/>
<rect x="139.028" y="19.4854" width="4.33009" height="4.27778" transform="rotate(90 139.028 19.4854)" fill="#D0C3B4"/>
<rect x="139.028" y="38.9709" width="4.33009" height="4.27778" transform="rotate(90 139.028 38.9709)" fill="#D0C3B4"/>
<rect x="139.028" y="58.4563" width="4.33009" height="4.27778" transform="rotate(90 139.028 58.4563)" fill="#D0C3B4"/>
<rect x="139.028" y="77.9417" width="4.33009" height="4.27778" transform="rotate(90 139.028 77.9417)" fill="#D0C3B4"/>
<rect x="139.028" y="97.427" width="4.33009" height="4.27778" transform="rotate(90 139.028 97.427)" fill="#D0C3B4"/>
<rect x="139.028" y="116.912" width="4.33009" height="4.27778" transform="rotate(90 139.028 116.912)" fill="#D0C3B4"/>
<rect x="139.028" y="136.398" width="4.33009" height="4.27778" transform="rotate(90 139.028 136.398)" fill="#D0C3B4"/>
<rect x="139.028" y="155.883" width="4.33009" height="4.27778" transform="rotate(90 139.028 155.883)" fill="#D0C3B4"/>
<rect x="139.028" y="175.369" width="4.33009" height="4.27778" transform="rotate(90 139.028 175.369)" fill="#D0C3B4"/>
<rect x="139.028" y="194.854" width="4.33009" height="4.27778" transform="rotate(90 139.028 194.854)" fill="#D0C3B4"/>
<rect x="139.028" y="214.34" width="4.33009" height="4.27778" transform="rotate(90 139.028 214.34)" fill="#D0C3B4"/>
<rect x="139.028" y="233.825" width="4.33009" height="4.27778" transform="rotate(90 139.028 233.825)" fill="#D0C3B4"/>
<rect x="139.028" y="253.31" width="4.33009" height="4.27778" transform="rotate(90 139.028 253.31)" fill="#D0C3B4"/>
<rect x="139.028" y="272.796" width="4.33009" height="4.27778" transform="rotate(90 139.028 272.796)" fill="#D0C3B4"/>
<rect x="139.028" y="292.281" width="4.33009" height="4.27778" transform="rotate(90 139.028 292.281)" fill="#D0C3B4"/>
<rect x="139.028" y="311.767" width="4.33009" height="4.27778" transform="rotate(90 139.028 311.767)" fill="#D0C3B4"/>
<rect x="139.028" y="331.252" width="4.33009" height="4.27778" transform="rotate(90 139.028 331.252)" fill="#D0C3B4"/>
<rect x="139.028" y="350.737" width="4.33009" height="4.27778" transform="rotate(90 139.028 350.737)" fill="#D0C3B4"/>
<rect x="139.028" y="370.223" width="4.33009" height="4.27778" transform="rotate(90 139.028 370.223)" fill="#D0C3B4"/>
<rect x="139.028" y="389.708" width="4.33009" height="4.27778" transform="rotate(90 139.028 389.708)" fill="#D0C3B4"/>
<rect x="139.028" y="409.194" width="4.33009" height="4.27778" transform="rotate(90 139.028 409.194)" fill="#D0C3B4"/>
<rect x="139.028" y="428.679" width="4.33009" height="4.27778" transform="rotate(90 139.028 428.679)" fill="#D0C3B4"/>
<rect x="139.028" y="448.165" width="4.33009" height="4.27778" transform="rotate(90 139.028 448.165)" fill="#D0C3B4"/>
<rect x="139.028" y="467.65" width="4.33009" height="4.27778" transform="rotate(90 139.028 467.65)" fill="#D0C3B4"/>
<rect x="139.028" y="487.135" width="4.33009" height="4.27778" transform="rotate(90 139.028 487.135)" fill="#D0C3B4"/>
<rect x="139.028" y="506.621" width="4.33009" height="4.27778" transform="rotate(90 139.028 506.621)" fill="#D0C3B4"/>
<rect x="139.028" y="526.106" width="4.33009" height="4.27778" transform="rotate(90 139.028 526.106)" fill="#D0C3B4"/>
<rect x="139.028" y="545.592" width="4.33009" height="4.27778" transform="rotate(90 139.028 545.592)" fill="#D0C3B4"/>
<rect x="139.028" y="565.077" width="4.33009" height="4.27778" transform="rotate(90 139.028 565.077)" fill="#D0C3B4"/>
<rect x="139.028" y="584.562" width="4.33009" height="4.27778" transform="rotate(90 139.028 584.562)" fill="#D0C3B4"/>
<rect x="139.028" y="604.048" width="4.33009" height="4.27778" transform="rotate(90 139.028 604.048)" fill="#D0C3B4"/>
<rect x="139.028" y="623.533" width="4.33009" height="4.27778" transform="rotate(90 139.028 623.533)" fill="#D0C3B4"/>
<rect x="139.028" y="643.019" width="4.33009" height="4.27778" transform="rotate(90 139.028 643.019)" fill="#D0C3B4"/>
<rect x="139.028" y="662.504" width="4.33009" height="4.27778" transform="rotate(90 139.028 662.504)" fill="#D0C3B4"/>
<rect x="139.028" y="681.99" width="4.33009" height="4.27778" transform="rotate(90 139.028 681.99)" fill="#D0C3B4"/>
<rect x="139.028" y="701.475" width="4.33009" height="4.27778" transform="rotate(90 139.028 701.475)" fill="#D0C3B4"/>
<rect x="139.028" y="720.96" width="4.33009" height="4.27778" transform="rotate(90 139.028 720.96)" fill="#D0C3B4"/>
<rect x="139.028" y="740.446" width="4.33009" height="4.27778" transform="rotate(90 139.028 740.446)" fill="#D0C3B4"/>
<rect x="139.028" y="759.931" width="4.33009" height="4.27778" transform="rotate(90 139.028 759.931)" fill="#D0C3B4"/>
<rect x="139.028" y="779.417" width="4.33009" height="4.27778" transform="rotate(90 139.028 779.417)" fill="#D0C3B4"/>
<rect x="139.028" y="798.902" width="4.33009" height="4.27778" transform="rotate(90 139.028 798.902)" fill="#D0C3B4"/>
<rect x="139.028" y="818.387" width="4.33009" height="4.27778" transform="rotate(90 139.028 818.387)" fill="#D0C3B4"/>
<rect x="139.028" y="837.873" width="4.33009" height="4.27778" transform="rotate(90 139.028 837.873)" fill="#D0C3B4"/>
<rect x="139.028" y="857.358" width="4.33009" height="4.27778" transform="rotate(90 139.028 857.358)" fill="#D0C3B4"/>
<rect x="139.028" y="876.844" width="4.33009" height="4.27778" transform="rotate(90 139.028 876.844)" fill="#D0C3B4"/>
<rect x="139.028" y="896.329" width="4.33009" height="4.27778" transform="rotate(90 139.028 896.329)" fill="#D0C3B4"/>
<rect x="139.028" y="915.814" width="4.33009" height="4.27778" transform="rotate(90 139.028 915.814)" fill="#D0C3B4"/>
<rect x="139.028" y="935.3" width="4.33009" height="4.27778" transform="rotate(90 139.028 935.3)" fill="#D0C3B4"/>
<rect x="139.028" y="954.785" width="4.33009" height="4.27778" transform="rotate(90 139.028 954.785)" fill="#D0C3B4"/>
<rect x="139.028" y="974.271" width="4.33009" height="4.27778" transform="rotate(90 139.028 974.271)" fill="#D0C3B4"/>
<rect x="139.028" y="993.756" width="4.33009" height="4.27778" transform="rotate(90 139.028 993.756)" fill="#D0C3B4"/>
<rect x="139.028" y="1013.24" width="4.33009" height="4.27778" transform="rotate(90 139.028 1013.24)" fill="#D0C3B4"/>
<rect x="139.028" y="1032.73" width="4.33009" height="4.27778" transform="rotate(90 139.028 1032.73)" fill="#D0C3B4"/>
<rect x="139.028" y="1052.21" width="4.33009" height="4.27778" transform="rotate(90 139.028 1052.21)" fill="#D0C3B4"/>
<rect x="139.028" y="1071.7" width="4.33009" height="4.27778" transform="rotate(90 139.028 1071.7)" fill="#D0C3B4"/>
<rect x="124.056" width="4.33009" height="4.27778" transform="rotate(90 124.056 0)" fill="#D0C3B4"/>
<rect x="124.056" y="19.4854" width="4.33009" height="4.27778" transform="rotate(90 124.056 19.4854)" fill="#D0C3B4"/>
<rect x="124.056" y="38.9709" width="4.33009" height="4.27778" transform="rotate(90 124.056 38.9709)" fill="#D0C3B4"/>
<rect x="124.056" y="58.4563" width="4.33009" height="4.27778" transform="rotate(90 124.056 58.4563)" fill="#D0C3B4"/>
<rect x="124.056" y="77.9417" width="4.33009" height="4.27778" transform="rotate(90 124.056 77.9417)" fill="#D0C3B4"/>
<rect x="124.056" y="97.427" width="4.33009" height="4.27778" transform="rotate(90 124.056 97.427)" fill="#D0C3B4"/>
<rect x="124.056" y="116.913" width="4.33009" height="4.27778" transform="rotate(90 124.056 116.913)" fill="#D0C3B4"/>
<rect x="124.056" y="136.398" width="4.33009" height="4.27778" transform="rotate(90 124.056 136.398)" fill="#D0C3B4"/>
<rect x="124.056" y="155.883" width="4.33009" height="4.27778" transform="rotate(90 124.056 155.883)" fill="#D0C3B4"/>
<rect x="124.056" y="175.369" width="4.33009" height="4.27778" transform="rotate(90 124.056 175.369)" fill="#D0C3B4"/>
<rect x="124.056" y="194.854" width="4.33009" height="4.27778" transform="rotate(90 124.056 194.854)" fill="#D0C3B4"/>
<rect x="124.056" y="214.34" width="4.33009" height="4.27778" transform="rotate(90 124.056 214.34)" fill="#D0C3B4"/>
<rect x="124.056" y="233.825" width="4.33009" height="4.27778" transform="rotate(90 124.056 233.825)" fill="#D0C3B4"/>
<rect x="124.056" y="253.31" width="4.33009" height="4.27778" transform="rotate(90 124.056 253.31)" fill="#D0C3B4"/>
<rect x="124.056" y="272.796" width="4.33009" height="4.27778" transform="rotate(90 124.056 272.796)" fill="#D0C3B4"/>
<rect x="124.056" y="292.281" width="4.33009" height="4.27778" transform="rotate(90 124.056 292.281)" fill="#D0C3B4"/>
<rect x="124.056" y="311.767" width="4.33009" height="4.27778" transform="rotate(90 124.056 311.767)" fill="#D0C3B4"/>
<rect x="124.056" y="331.252" width="4.33009" height="4.27778" transform="rotate(90 124.056 331.252)" fill="#D0C3B4"/>
<rect x="124.056" y="350.737" width="4.33009" height="4.27778" transform="rotate(90 124.056 350.737)" fill="#D0C3B4"/>
<rect x="124.056" y="370.223" width="4.33009" height="4.27778" transform="rotate(90 124.056 370.223)" fill="#D0C3B4"/>
<rect x="124.056" y="389.708" width="4.33009" height="4.27778" transform="rotate(90 124.056 389.708)" fill="#D0C3B4"/>
<rect x="124.056" y="409.194" width="4.33009" height="4.27778" transform="rotate(90 124.056 409.194)" fill="#D0C3B4"/>
<rect x="124.056" y="428.679" width="4.33009" height="4.27778" transform="rotate(90 124.056 428.679)" fill="#D0C3B4"/>
<rect x="124.056" y="448.165" width="4.33009" height="4.27778" transform="rotate(90 124.056 448.165)" fill="#D0C3B4"/>
<rect x="124.056" y="467.65" width="4.33009" height="4.27778" transform="rotate(90 124.056 467.65)" fill="#D0C3B4"/>
<rect x="124.056" y="487.135" width="4.33009" height="4.27778" transform="rotate(90 124.056 487.135)" fill="#D0C3B4"/>
<rect x="124.056" y="506.621" width="4.33009" height="4.27778" transform="rotate(90 124.056 506.621)" fill="#D0C3B4"/>
<rect x="124.056" y="526.106" width="4.33009" height="4.27778" transform="rotate(90 124.056 526.106)" fill="#D0C3B4"/>
<rect x="124.056" y="545.592" width="4.33009" height="4.27778" transform="rotate(90 124.056 545.592)" fill="#D0C3B4"/>
<rect x="124.056" y="565.077" width="4.33009" height="4.27778" transform="rotate(90 124.056 565.077)" fill="#D0C3B4"/>
<rect x="124.056" y="584.562" width="4.33009" height="4.27778" transform="rotate(90 124.056 584.562)" fill="#D0C3B4"/>
<rect x="124.056" y="604.048" width="4.33009" height="4.27778" transform="rotate(90 124.056 604.048)" fill="#D0C3B4"/>
<rect x="124.056" y="623.533" width="4.33009" height="4.27778" transform="rotate(90 124.056 623.533)" fill="#D0C3B4"/>
<rect x="124.056" y="643.019" width="4.33009" height="4.27778" transform="rotate(90 124.056 643.019)" fill="#D0C3B4"/>
<rect x="124.056" y="662.504" width="4.33009" height="4.27778" transform="rotate(90 124.056 662.504)" fill="#D0C3B4"/>
<rect x="124.056" y="681.99" width="4.33009" height="4.27778" transform="rotate(90 124.056 681.99)" fill="#D0C3B4"/>
<rect x="124.056" y="701.475" width="4.33009" height="4.27778" transform="rotate(90 124.056 701.475)" fill="#D0C3B4"/>
<rect x="124.056" y="720.96" width="4.33009" height="4.27778" transform="rotate(90 124.056 720.96)" fill="#D0C3B4"/>
<rect x="124.056" y="740.446" width="4.33009" height="4.27778" transform="rotate(90 124.056 740.446)" fill="#D0C3B4"/>
<rect x="124.056" y="759.931" width="4.33009" height="4.27778" transform="rotate(90 124.056 759.931)" fill="#D0C3B4"/>
<rect x="124.056" y="779.417" width="4.33009" height="4.27778" transform="rotate(90 124.056 779.417)" fill="#D0C3B4"/>
<rect x="124.056" y="798.902" width="4.33009" height="4.27778" transform="rotate(90 124.056 798.902)" fill="#D0C3B4"/>
<rect x="124.056" y="818.387" width="4.33009" height="4.27778" transform="rotate(90 124.056 818.387)" fill="#D0C3B4"/>
<rect x="124.056" y="837.873" width="4.33009" height="4.27778" transform="rotate(90 124.056 837.873)" fill="#D0C3B4"/>
<rect x="124.056" y="857.358" width="4.33009" height="4.27778" transform="rotate(90 124.056 857.358)" fill="#D0C3B4"/>
<rect x="124.056" y="876.844" width="4.33009" height="4.27778" transform="rotate(90 124.056 876.844)" fill="#D0C3B4"/>
<rect x="124.056" y="896.329" width="4.33009" height="4.27778" transform="rotate(90 124.056 896.329)" fill="#D0C3B4"/>
<rect x="124.056" y="915.814" width="4.33009" height="4.27778" transform="rotate(90 124.056 915.814)" fill="#D0C3B4"/>
<rect x="124.056" y="935.3" width="4.33009" height="4.27778" transform="rotate(90 124.056 935.3)" fill="#D0C3B4"/>
<rect x="124.056" y="954.785" width="4.33009" height="4.27778" transform="rotate(90 124.056 954.785)" fill="#D0C3B4"/>
<rect x="124.056" y="974.271" width="4.33009" height="4.27778" transform="rotate(90 124.056 974.271)" fill="#D0C3B4"/>
<rect x="124.056" y="993.756" width="4.33009" height="4.27778" transform="rotate(90 124.056 993.756)" fill="#D0C3B4"/>
<rect x="124.056" y="1013.24" width="4.33009" height="4.27778" transform="rotate(90 124.056 1013.24)" fill="#D0C3B4"/>
<rect x="124.056" y="1032.73" width="4.33009" height="4.27778" transform="rotate(90 124.056 1032.73)" fill="#D0C3B4"/>
<rect x="124.056" y="1052.21" width="4.33009" height="4.27778" transform="rotate(90 124.056 1052.21)" fill="#D0C3B4"/>
<rect x="124.056" y="1071.7" width="4.33009" height="4.27778" transform="rotate(90 124.056 1071.7)" fill="#D0C3B4"/>
<rect x="109.083" width="4.33009" height="4.27778" transform="rotate(90 109.083 0)" fill="#D0C3B4"/>
<rect x="109.083" y="19.4854" width="4.33009" height="4.27778" transform="rotate(90 109.083 19.4854)" fill="#D0C3B4"/>
<rect x="109.083" y="38.9709" width="4.33009" height="4.27778" transform="rotate(90 109.083 38.9709)" fill="#D0C3B4"/>
<rect x="109.083" y="58.4563" width="4.33009" height="4.27778" transform="rotate(90 109.083 58.4563)" fill="#D0C3B4"/>
<rect x="109.083" y="77.9417" width="4.33009" height="4.27778" transform="rotate(90 109.083 77.9417)" fill="#D0C3B4"/>
<rect x="109.083" y="97.427" width="4.33009" height="4.27778" transform="rotate(90 109.083 97.427)" fill="#D0C3B4"/>
<rect x="109.083" y="116.913" width="4.33009" height="4.27778" transform="rotate(90 109.083 116.913)" fill="#D0C3B4"/>
<rect x="109.083" y="136.398" width="4.33009" height="4.27778" transform="rotate(90 109.083 136.398)" fill="#D0C3B4"/>
<rect x="109.083" y="155.883" width="4.33009" height="4.27778" transform="rotate(90 109.083 155.883)" fill="#D0C3B4"/>
<rect x="109.083" y="175.369" width="4.33009" height="4.27778" transform="rotate(90 109.083 175.369)" fill="#D0C3B4"/>
<rect x="109.083" y="194.854" width="4.33009" height="4.27778" transform="rotate(90 109.083 194.854)" fill="#D0C3B4"/>
<rect x="109.083" y="214.34" width="4.33009" height="4.27778" transform="rotate(90 109.083 214.34)" fill="#D0C3B4"/>
<rect x="109.083" y="233.825" width="4.33009" height="4.27778" transform="rotate(90 109.083 233.825)" fill="#D0C3B4"/>
<rect x="109.083" y="253.31" width="4.33009" height="4.27778" transform="rotate(90 109.083 253.31)" fill="#D0C3B4"/>
<rect x="109.083" y="272.796" width="4.33009" height="4.27778" transform="rotate(90 109.083 272.796)" fill="#D0C3B4"/>
<rect x="109.083" y="292.281" width="4.33009" height="4.27778" transform="rotate(90 109.083 292.281)" fill="#D0C3B4"/>
<rect x="109.083" y="311.767" width="4.33009" height="4.27778" transform="rotate(90 109.083 311.767)" fill="#D0C3B4"/>
<rect x="109.083" y="331.252" width="4.33009" height="4.27778" transform="rotate(90 109.083 331.252)" fill="#D0C3B4"/>
<rect x="109.083" y="350.737" width="4.33009" height="4.27778" transform="rotate(90 109.083 350.737)" fill="#D0C3B4"/>
<rect x="109.083" y="370.223" width="4.33009" height="4.27778" transform="rotate(90 109.083 370.223)" fill="#D0C3B4"/>
<rect x="109.083" y="389.708" width="4.33009" height="4.27778" transform="rotate(90 109.083 389.708)" fill="#D0C3B4"/>
<rect x="109.083" y="409.194" width="4.33009" height="4.27778" transform="rotate(90 109.083 409.194)" fill="#D0C3B4"/>
<rect x="109.083" y="428.679" width="4.33009" height="4.27778" transform="rotate(90 109.083 428.679)" fill="#D0C3B4"/>
<rect x="109.083" y="448.165" width="4.33009" height="4.27778" transform="rotate(90 109.083 448.165)" fill="#D0C3B4"/>
<rect x="109.083" y="467.65" width="4.33009" height="4.27778" transform="rotate(90 109.083 467.65)" fill="#D0C3B4"/>
<rect x="109.083" y="487.135" width="4.33009" height="4.27778" transform="rotate(90 109.083 487.135)" fill="#D0C3B4"/>
<rect x="109.083" y="506.621" width="4.33009" height="4.27778" transform="rotate(90 109.083 506.621)" fill="#D0C3B4"/>
<rect x="109.083" y="526.106" width="4.33009" height="4.27778" transform="rotate(90 109.083 526.106)" fill="#D0C3B4"/>
<rect x="109.083" y="545.592" width="4.33009" height="4.27778" transform="rotate(90 109.083 545.592)" fill="#D0C3B4"/>
<rect x="109.083" y="565.077" width="4.33009" height="4.27778" transform="rotate(90 109.083 565.077)" fill="#D0C3B4"/>
<rect x="109.083" y="584.562" width="4.33009" height="4.27778" transform="rotate(90 109.083 584.562)" fill="#D0C3B4"/>
<rect x="109.083" y="604.048" width="4.33009" height="4.27778" transform="rotate(90 109.083 604.048)" fill="#D0C3B4"/>
<rect x="109.083" y="623.533" width="4.33009" height="4.27778" transform="rotate(90 109.083 623.533)" fill="#D0C3B4"/>
<rect x="109.083" y="643.019" width="4.33009" height="4.27778" transform="rotate(90 109.083 643.019)" fill="#D0C3B4"/>
<rect x="109.083" y="662.504" width="4.33009" height="4.27778" transform="rotate(90 109.083 662.504)" fill="#D0C3B4"/>
<rect x="109.083" y="681.99" width="4.33009" height="4.27778" transform="rotate(90 109.083 681.99)" fill="#D0C3B4"/>
<rect x="109.083" y="701.475" width="4.33009" height="4.27778" transform="rotate(90 109.083 701.475)" fill="#D0C3B4"/>
<rect x="109.083" y="720.96" width="4.33009" height="4.27778" transform="rotate(90 109.083 720.96)" fill="#D0C3B4"/>
<rect x="109.083" y="740.446" width="4.33009" height="4.27778" transform="rotate(90 109.083 740.446)" fill="#D0C3B4"/>
<rect x="109.083" y="759.931" width="4.33009" height="4.27778" transform="rotate(90 109.083 759.931)" fill="#D0C3B4"/>
<rect x="109.083" y="779.417" width="4.33009" height="4.27778" transform="rotate(90 109.083 779.417)" fill="#D0C3B4"/>
<rect x="109.083" y="798.902" width="4.33009" height="4.27778" transform="rotate(90 109.083 798.902)" fill="#D0C3B4"/>
<rect x="109.083" y="818.387" width="4.33009" height="4.27778" transform="rotate(90 109.083 818.387)" fill="#D0C3B4"/>
<rect x="109.083" y="837.873" width="4.33009" height="4.27778" transform="rotate(90 109.083 837.873)" fill="#D0C3B4"/>
<rect x="109.083" y="857.358" width="4.33009" height="4.27778" transform="rotate(90 109.083 857.358)" fill="#D0C3B4"/>
<rect x="109.083" y="876.844" width="4.33009" height="4.27778" transform="rotate(90 109.083 876.844)" fill="#D0C3B4"/>
<rect x="109.083" y="896.329" width="4.33009" height="4.27778" transform="rotate(90 109.083 896.329)" fill="#D0C3B4"/>
<rect x="109.083" y="915.814" width="4.33009" height="4.27778" transform="rotate(90 109.083 915.814)" fill="#D0C3B4"/>
<rect x="109.083" y="935.3" width="4.33009" height="4.27778" transform="rotate(90 109.083 935.3)" fill="#D0C3B4"/>
<rect x="109.083" y="954.785" width="4.33009" height="4.27778" transform="rotate(90 109.083 954.785)" fill="#D0C3B4"/>
<rect x="109.083" y="974.271" width="4.33009" height="4.27778" transform="rotate(90 109.083 974.271)" fill="#D0C3B4"/>
<rect x="109.083" y="993.756" width="4.33009" height="4.27778" transform="rotate(90 109.083 993.756)" fill="#D0C3B4"/>
<rect x="109.083" y="1013.24" width="4.33009" height="4.27778" transform="rotate(90 109.083 1013.24)" fill="#D0C3B4"/>
<rect x="109.083" y="1032.73" width="4.33009" height="4.27778" transform="rotate(90 109.083 1032.73)" fill="#D0C3B4"/>
<rect x="109.083" y="1052.21" width="4.33009" height="4.27778" transform="rotate(90 109.083 1052.21)" fill="#D0C3B4"/>
<rect x="109.083" y="1071.7" width="4.33009" height="4.27778" transform="rotate(90 109.083 1071.7)" fill="#D0C3B4"/>
<rect x="94.1112" width="4.33009" height="4.27778" transform="rotate(90 94.1112 0)" fill="#D0C3B4"/>
<rect x="94.1112" y="19.4854" width="4.33009" height="4.27778" transform="rotate(90 94.1112 19.4854)" fill="#D0C3B4"/>
<rect x="94.1112" y="38.9709" width="4.33009" height="4.27778" transform="rotate(90 94.1112 38.9709)" fill="#D0C3B4"/>
<rect x="94.1112" y="58.4563" width="4.33009" height="4.27778" transform="rotate(90 94.1112 58.4563)" fill="#D0C3B4"/>
<rect x="94.1112" y="77.9417" width="4.33009" height="4.27778" transform="rotate(90 94.1112 77.9417)" fill="#D0C3B4"/>
<rect x="94.1112" y="97.427" width="4.33009" height="4.27778" transform="rotate(90 94.1112 97.427)" fill="#D0C3B4"/>
<rect x="94.1112" y="116.913" width="4.33009" height="4.27778" transform="rotate(90 94.1112 116.913)" fill="#D0C3B4"/>
<rect x="94.1112" y="136.398" width="4.33009" height="4.27778" transform="rotate(90 94.1112 136.398)" fill="#D0C3B4"/>
<rect x="94.1112" y="155.883" width="4.33009" height="4.27778" transform="rotate(90 94.1112 155.883)" fill="#D0C3B4"/>
<rect x="94.1112" y="175.369" width="4.33009" height="4.27778" transform="rotate(90 94.1112 175.369)" fill="#D0C3B4"/>
<rect x="94.1112" y="194.854" width="4.33009" height="4.27778" transform="rotate(90 94.1112 194.854)" fill="#D0C3B4"/>
<rect x="94.1112" y="214.34" width="4.33009" height="4.27778" transform="rotate(90 94.1112 214.34)" fill="#D0C3B4"/>
<rect x="94.1112" y="233.825" width="4.33009" height="4.27778" transform="rotate(90 94.1112 233.825)" fill="#D0C3B4"/>
<rect x="94.1112" y="253.31" width="4.33009" height="4.27778" transform="rotate(90 94.1112 253.31)" fill="#D0C3B4"/>
<rect x="94.1112" y="272.796" width="4.33009" height="4.27778" transform="rotate(90 94.1112 272.796)" fill="#D0C3B4"/>
<rect x="94.1112" y="292.281" width="4.33009" height="4.27778" transform="rotate(90 94.1112 292.281)" fill="#D0C3B4"/>
<rect x="94.1112" y="311.767" width="4.33009" height="4.27778" transform="rotate(90 94.1112 311.767)" fill="#D0C3B4"/>
<rect x="94.1112" y="331.252" width="4.33009" height="4.27778" transform="rotate(90 94.1112 331.252)" fill="#D0C3B4"/>
<rect x="94.1112" y="350.737" width="4.33009" height="4.27778" transform="rotate(90 94.1112 350.737)" fill="#D0C3B4"/>
<rect x="94.1112" y="370.223" width="4.33009" height="4.27778" transform="rotate(90 94.1112 370.223)" fill="#D0C3B4"/>
<rect x="94.1112" y="389.708" width="4.33009" height="4.27778" transform="rotate(90 94.1112 389.708)" fill="#D0C3B4"/>
<rect x="94.1112" y="409.194" width="4.33009" height="4.27778" transform="rotate(90 94.1112 409.194)" fill="#D0C3B4"/>
<rect x="94.1112" y="428.679" width="4.33009" height="4.27778" transform="rotate(90 94.1112 428.679)" fill="#D0C3B4"/>
<rect x="94.1112" y="448.165" width="4.33009" height="4.27778" transform="rotate(90 94.1112 448.165)" fill="#D0C3B4"/>
<rect x="94.1112" y="467.65" width="4.33009" height="4.27778" transform="rotate(90 94.1112 467.65)" fill="#D0C3B4"/>
<rect x="94.1112" y="487.135" width="4.33009" height="4.27778" transform="rotate(90 94.1112 487.135)" fill="#D0C3B4"/>
<rect x="94.1112" y="506.621" width="4.33009" height="4.27778" transform="rotate(90 94.1112 506.621)" fill="#D0C3B4"/>
<rect x="94.1112" y="526.106" width="4.33009" height="4.27778" transform="rotate(90 94.1112 526.106)" fill="#D0C3B4"/>
<rect x="94.1112" y="545.592" width="4.33009" height="4.27778" transform="rotate(90 94.1112 545.592)" fill="#D0C3B4"/>
<rect x="94.1112" y="565.077" width="4.33009" height="4.27778" transform="rotate(90 94.1112 565.077)" fill="#D0C3B4"/>
<rect x="94.1112" y="584.562" width="4.33009" height="4.27778" transform="rotate(90 94.1112 584.562)" fill="#D0C3B4"/>
<rect x="94.1112" y="604.048" width="4.33009" height="4.27778" transform="rotate(90 94.1112 604.048)" fill="#D0C3B4"/>
<rect x="94.1112" y="623.533" width="4.33009" height="4.27778" transform="rotate(90 94.1112 623.533)" fill="#D0C3B4"/>
<rect x="94.1112" y="643.019" width="4.33009" height="4.27778" transform="rotate(90 94.1112 643.019)" fill="#D0C3B4"/>
<rect x="94.1112" y="662.504" width="4.33009" height="4.27778" transform="rotate(90 94.1112 662.504)" fill="#D0C3B4"/>
<rect x="94.1112" y="681.99" width="4.33009" height="4.27778" transform="rotate(90 94.1112 681.99)" fill="#D0C3B4"/>
<rect x="94.1112" y="701.475" width="4.33009" height="4.27778" transform="rotate(90 94.1112 701.475)" fill="#D0C3B4"/>
<rect x="94.1111" y="720.96" width="4.33009" height="4.27778" transform="rotate(90 94.1111 720.96)" fill="#D0C3B4"/>
<rect x="94.1111" y="740.446" width="4.33009" height="4.27778" transform="rotate(90 94.1111 740.446)" fill="#D0C3B4"/>
<rect x="94.1111" y="759.931" width="4.33009" height="4.27778" transform="rotate(90 94.1111 759.931)" fill="#D0C3B4"/>
<rect x="94.1111" y="779.417" width="4.33009" height="4.27778" transform="rotate(90 94.1111 779.417)" fill="#D0C3B4"/>
<rect x="94.1111" y="798.902" width="4.33009" height="4.27778" transform="rotate(90 94.1111 798.902)" fill="#D0C3B4"/>
<rect x="94.1111" y="818.387" width="4.33009" height="4.27778" transform="rotate(90 94.1111 818.387)" fill="#D0C3B4"/>
<rect x="94.1111" y="837.873" width="4.33009" height="4.27778" transform="rotate(90 94.1111 837.873)" fill="#D0C3B4"/>
<rect x="94.1111" y="857.358" width="4.33009" height="4.27778" transform="rotate(90 94.1111 857.358)" fill="#D0C3B4"/>
<rect x="94.1111" y="876.844" width="4.33009" height="4.27778" transform="rotate(90 94.1111 876.844)" fill="#D0C3B4"/>
<rect x="94.1111" y="896.329" width="4.33009" height="4.27778" transform="rotate(90 94.1111 896.329)" fill="#D0C3B4"/>
<rect x="94.1111" y="915.814" width="4.33009" height="4.27778" transform="rotate(90 94.1111 915.814)" fill="#D0C3B4"/>
<rect x="94.1111" y="935.3" width="4.33009" height="4.27778" transform="rotate(90 94.1111 935.3)" fill="#D0C3B4"/>
<rect x="94.1111" y="954.785" width="4.33009" height="4.27778" transform="rotate(90 94.1111 954.785)" fill="#D0C3B4"/>
<rect x="94.1111" y="974.271" width="4.33009" height="4.27778" transform="rotate(90 94.1111 974.271)" fill="#D0C3B4"/>
<rect x="94.1111" y="993.756" width="4.33009" height="4.27778" transform="rotate(90 94.1111 993.756)" fill="#D0C3B4"/>
<rect x="94.1111" y="1013.24" width="4.33009" height="4.27778" transform="rotate(90 94.1111 1013.24)" fill="#D0C3B4"/>
<rect x="94.1111" y="1032.73" width="4.33009" height="4.27778" transform="rotate(90 94.1111 1032.73)" fill="#D0C3B4"/>
<rect x="94.1111" y="1052.21" width="4.33009" height="4.27778" transform="rotate(90 94.1111 1052.21)" fill="#D0C3B4"/>
<rect x="94.1111" y="1071.7" width="4.33009" height="4.27778" transform="rotate(90 94.1111 1071.7)" fill="#D0C3B4"/>
<rect x="79.1388" width="4.33009" height="4.27778" transform="rotate(90 79.1388 0)" fill="#D0C3B4"/>
<rect x="79.1388" y="19.4854" width="4.33009" height="4.27778" transform="rotate(90 79.1388 19.4854)" fill="#D0C3B4"/>
<rect x="79.1388" y="38.9709" width="4.33009" height="4.27778" transform="rotate(90 79.1388 38.9709)" fill="#D0C3B4"/>
<rect x="79.1388" y="58.4563" width="4.33009" height="4.27778" transform="rotate(90 79.1388 58.4563)" fill="#D0C3B4"/>
<rect x="79.1388" y="77.9417" width="4.33009" height="4.27778" transform="rotate(90 79.1388 77.9417)" fill="#D0C3B4"/>
<rect x="79.1388" y="97.427" width="4.33009" height="4.27778" transform="rotate(90 79.1388 97.427)" fill="#D0C3B4"/>
<rect x="79.1388" y="116.913" width="4.33009" height="4.27778" transform="rotate(90 79.1388 116.913)" fill="#D0C3B4"/>
<rect x="79.1388" y="136.398" width="4.33009" height="4.27778" transform="rotate(90 79.1388 136.398)" fill="#D0C3B4"/>
<rect x="79.1388" y="155.883" width="4.33009" height="4.27778" transform="rotate(90 79.1388 155.883)" fill="#D0C3B4"/>
<rect x="79.1388" y="175.369" width="4.33009" height="4.27778" transform="rotate(90 79.1388 175.369)" fill="#D0C3B4"/>
<rect x="79.1388" y="194.854" width="4.33009" height="4.27778" transform="rotate(90 79.1388 194.854)" fill="#D0C3B4"/>
<rect x="79.1388" y="214.34" width="4.33009" height="4.27778" transform="rotate(90 79.1388 214.34)" fill="#D0C3B4"/>
<rect x="79.1388" y="233.825" width="4.33009" height="4.27778" transform="rotate(90 79.1388 233.825)" fill="#D0C3B4"/>
<rect x="79.1388" y="253.31" width="4.33009" height="4.27778" transform="rotate(90 79.1388 253.31)" fill="#D0C3B4"/>
<rect x="79.1388" y="272.796" width="4.33009" height="4.27778" transform="rotate(90 79.1388 272.796)" fill="#D0C3B4"/>
<rect x="79.1388" y="292.281" width="4.33009" height="4.27778" transform="rotate(90 79.1388 292.281)" fill="#D0C3B4"/>
<rect x="79.1388" y="311.767" width="4.33009" height="4.27778" transform="rotate(90 79.1388 311.767)" fill="#D0C3B4"/>
<rect x="79.1388" y="331.252" width="4.33009" height="4.27778" transform="rotate(90 79.1388 331.252)" fill="#D0C3B4"/>
<rect x="79.1388" y="350.737" width="4.33009" height="4.27778" transform="rotate(90 79.1388 350.737)" fill="#D0C3B4"/>
<rect x="79.1388" y="370.223" width="4.33009" height="4.27778" transform="rotate(90 79.1388 370.223)" fill="#D0C3B4"/>
<rect x="79.1388" y="389.708" width="4.33009" height="4.27778" transform="rotate(90 79.1388 389.708)" fill="#D0C3B4"/>
<rect x="79.1388" y="409.194" width="4.33009" height="4.27778" transform="rotate(90 79.1388 409.194)" fill="#D0C3B4"/>
<rect x="79.1388" y="428.679" width="4.33009" height="4.27778" transform="rotate(90 79.1388 428.679)" fill="#D0C3B4"/>
<rect x="79.1388" y="448.165" width="4.33009" height="4.27778" transform="rotate(90 79.1388 448.165)" fill="#D0C3B4"/>
<rect x="79.1388" y="467.65" width="4.33009" height="4.27778" transform="rotate(90 79.1388 467.65)" fill="#D0C3B4"/>
<rect x="79.1388" y="487.135" width="4.33009" height="4.27778" transform="rotate(90 79.1388 487.135)" fill="#D0C3B4"/>
<rect x="79.1388" y="506.621" width="4.33009" height="4.27778" transform="rotate(90 79.1388 506.621)" fill="#D0C3B4"/>
<rect x="79.1388" y="526.106" width="4.33009" height="4.27778" transform="rotate(90 79.1388 526.106)" fill="#D0C3B4"/>
<rect x="79.1388" y="545.592" width="4.33009" height="4.27778" transform="rotate(90 79.1388 545.592)" fill="#D0C3B4"/>
<rect x="79.1388" y="565.077" width="4.33009" height="4.27778" transform="rotate(90 79.1388 565.077)" fill="#D0C3B4"/>
<rect x="79.1388" y="584.562" width="4.33009" height="4.27778" transform="rotate(90 79.1388 584.562)" fill="#D0C3B4"/>
<rect x="79.1388" y="604.048" width="4.33009" height="4.27778" transform="rotate(90 79.1388 604.048)" fill="#D0C3B4"/>
<rect x="79.1388" y="623.533" width="4.33009" height="4.27778" transform="rotate(90 79.1388 623.533)" fill="#D0C3B4"/>
<rect x="79.1388" y="643.019" width="4.33009" height="4.27778" transform="rotate(90 79.1388 643.019)" fill="#D0C3B4"/>
<rect x="79.1388" y="662.504" width="4.33009" height="4.27778" transform="rotate(90 79.1388 662.504)" fill="#D0C3B4"/>
<rect x="79.1388" y="681.99" width="4.33009" height="4.27778" transform="rotate(90 79.1388 681.99)" fill="#D0C3B4"/>
<rect x="79.1388" y="701.475" width="4.33009" height="4.27778" transform="rotate(90 79.1388 701.475)" fill="#D0C3B4"/>
<rect x="79.1388" y="720.96" width="4.33009" height="4.27778" transform="rotate(90 79.1388 720.96)" fill="#D0C3B4"/>
<rect x="79.1388" y="740.446" width="4.33009" height="4.27778" transform="rotate(90 79.1388 740.446)" fill="#D0C3B4"/>
<rect x="79.1388" y="759.931" width="4.33009" height="4.27778" transform="rotate(90 79.1388 759.931)" fill="#D0C3B4"/>
<rect x="79.1388" y="779.417" width="4.33009" height="4.27778" transform="rotate(90 79.1388 779.417)" fill="#D0C3B4"/>
<rect x="79.1388" y="798.902" width="4.33009" height="4.27778" transform="rotate(90 79.1388 798.902)" fill="#D0C3B4"/>
<rect x="79.1388" y="818.387" width="4.33009" height="4.27778" transform="rotate(90 79.1388 818.387)" fill="#D0C3B4"/>
<rect x="79.1388" y="837.873" width="4.33009" height="4.27778" transform="rotate(90 79.1388 837.873)" fill="#D0C3B4"/>
<rect x="79.1388" y="857.358" width="4.33009" height="4.27778" transform="rotate(90 79.1388 857.358)" fill="#D0C3B4"/>
<rect x="79.1388" y="876.844" width="4.33009" height="4.27778" transform="rotate(90 79.1388 876.844)" fill="#D0C3B4"/>
<rect x="79.1388" y="896.329" width="4.33009" height="4.27778" transform="rotate(90 79.1388 896.329)" fill="#D0C3B4"/>
<rect x="79.1388" y="915.814" width="4.33009" height="4.27778" transform="rotate(90 79.1388 915.814)" fill="#D0C3B4"/>
<rect x="79.1388" y="935.3" width="4.33009" height="4.27778" transform="rotate(90 79.1388 935.3)" fill="#D0C3B4"/>
<rect x="79.1388" y="954.785" width="4.33009" height="4.27778" transform="rotate(90 79.1388 954.785)" fill="#D0C3B4"/>
<rect x="79.1388" y="974.271" width="4.33009" height="4.27778" transform="rotate(90 79.1388 974.271)" fill="#D0C3B4"/>
<rect x="79.1388" y="993.756" width="4.33009" height="4.27778" transform="rotate(90 79.1388 993.756)" fill="#D0C3B4"/>
<rect x="79.1388" y="1013.24" width="4.33009" height="4.27778" transform="rotate(90 79.1388 1013.24)" fill="#D0C3B4"/>
<rect x="79.1388" y="1032.73" width="4.33009" height="4.27778" transform="rotate(90 79.1388 1032.73)" fill="#D0C3B4"/>
<rect x="79.1388" y="1052.21" width="4.33009" height="4.27778" transform="rotate(90 79.1388 1052.21)" fill="#D0C3B4"/>
<rect x="79.1388" y="1071.7" width="4.33009" height="4.27778" transform="rotate(90 79.1388 1071.7)" fill="#D0C3B4"/>
<rect x="64.1665" width="4.33009" height="4.27778" transform="rotate(90 64.1665 0)" fill="#D0C3B4"/>
<rect x="64.1665" y="19.4854" width="4.33009" height="4.27778" transform="rotate(90 64.1665 19.4854)" fill="#D0C3B4"/>
<rect x="64.1665" y="38.9709" width="4.33009" height="4.27778" transform="rotate(90 64.1665 38.9709)" fill="#D0C3B4"/>
<rect x="64.1665" y="58.4563" width="4.33009" height="4.27778" transform="rotate(90 64.1665 58.4563)" fill="#D0C3B4"/>
<rect x="64.1665" y="77.9417" width="4.33009" height="4.27778" transform="rotate(90 64.1665 77.9417)" fill="#D0C3B4"/>
<rect x="64.1665" y="97.427" width="4.33009" height="4.27778" transform="rotate(90 64.1665 97.427)" fill="#D0C3B4"/>
<rect x="64.1665" y="116.913" width="4.33009" height="4.27778" transform="rotate(90 64.1665 116.913)" fill="#D0C3B4"/>
<rect x="64.1665" y="136.398" width="4.33009" height="4.27778" transform="rotate(90 64.1665 136.398)" fill="#D0C3B4"/>
<rect x="64.1665" y="155.883" width="4.33009" height="4.27778" transform="rotate(90 64.1665 155.883)" fill="#D0C3B4"/>
<rect x="64.1665" y="175.369" width="4.33009" height="4.27778" transform="rotate(90 64.1665 175.369)" fill="#D0C3B4"/>
<rect x="64.1665" y="194.854" width="4.33009" height="4.27778" transform="rotate(90 64.1665 194.854)" fill="#D0C3B4"/>
<rect x="64.1665" y="214.34" width="4.33009" height="4.27778" transform="rotate(90 64.1665 214.34)" fill="#D0C3B4"/>
<rect x="64.1665" y="233.825" width="4.33009" height="4.27778" transform="rotate(90 64.1665 233.825)" fill="#D0C3B4"/>
<rect x="64.1665" y="253.31" width="4.33009" height="4.27778" transform="rotate(90 64.1665 253.31)" fill="#D0C3B4"/>
<rect x="64.1665" y="272.796" width="4.33009" height="4.27778" transform="rotate(90 64.1665 272.796)" fill="#D0C3B4"/>
<rect x="64.1665" y="292.281" width="4.33009" height="4.27778" transform="rotate(90 64.1665 292.281)" fill="#D0C3B4"/>
<rect x="64.1665" y="311.767" width="4.33009" height="4.27778" transform="rotate(90 64.1665 311.767)" fill="#D0C3B4"/>
<rect x="64.1665" y="331.252" width="4.33009" height="4.27778" transform="rotate(90 64.1665 331.252)" fill="#D0C3B4"/>
<rect x="64.1665" y="350.737" width="4.33009" height="4.27778" transform="rotate(90 64.1665 350.737)" fill="#D0C3B4"/>
<rect x="64.1665" y="370.223" width="4.33009" height="4.27778" transform="rotate(90 64.1665 370.223)" fill="#D0C3B4"/>
<rect x="64.1665" y="389.708" width="4.33009" height="4.27778" transform="rotate(90 64.1665 389.708)" fill="#D0C3B4"/>
<rect x="64.1665" y="409.194" width="4.33009" height="4.27778" transform="rotate(90 64.1665 409.194)" fill="#D0C3B4"/>
<rect x="64.1665" y="428.679" width="4.33009" height="4.27778" transform="rotate(90 64.1665 428.679)" fill="#D0C3B4"/>
<rect x="64.1665" y="448.165" width="4.33009" height="4.27778" transform="rotate(90 64.1665 448.165)" fill="#D0C3B4"/>
<rect x="64.1665" y="467.65" width="4.33009" height="4.27778" transform="rotate(90 64.1665 467.65)" fill="#D0C3B4"/>
<rect x="64.1665" y="487.135" width="4.33009" height="4.27778" transform="rotate(90 64.1665 487.135)" fill="#D0C3B4"/>
<rect x="64.1665" y="506.621" width="4.33009" height="4.27778" transform="rotate(90 64.1665 506.621)" fill="#D0C3B4"/>
<rect x="64.1665" y="526.106" width="4.33009" height="4.27778" transform="rotate(90 64.1665 526.106)" fill="#D0C3B4"/>
<rect x="64.1665" y="545.592" width="4.33009" height="4.27778" transform="rotate(90 64.1665 545.592)" fill="#D0C3B4"/>
<rect x="64.1665" y="565.077" width="4.33009" height="4.27778" transform="rotate(90 64.1665 565.077)" fill="#D0C3B4"/>
<rect x="64.1665" y="584.562" width="4.33009" height="4.27778" transform="rotate(90 64.1665 584.562)" fill="#D0C3B4"/>
<rect x="64.1665" y="604.048" width="4.33009" height="4.27778" transform="rotate(90 64.1665 604.048)" fill="#D0C3B4"/>
<rect x="64.1665" y="623.533" width="4.33009" height="4.27778" transform="rotate(90 64.1665 623.533)" fill="#D0C3B4"/>
<rect x="64.1665" y="643.019" width="4.33009" height="4.27778" transform="rotate(90 64.1665 643.019)" fill="#D0C3B4"/>
<rect x="64.1665" y="662.504" width="4.33009" height="4.27778" transform="rotate(90 64.1665 662.504)" fill="#D0C3B4"/>
<rect x="64.1665" y="681.99" width="4.33009" height="4.27778" transform="rotate(90 64.1665 681.99)" fill="#D0C3B4"/>
<rect x="64.1665" y="701.475" width="4.33009" height="4.27778" transform="rotate(90 64.1665 701.475)" fill="#D0C3B4"/>
<rect x="64.1665" y="720.96" width="4.33009" height="4.27778" transform="rotate(90 64.1665 720.96)" fill="#D0C3B4"/>
<rect x="64.1665" y="740.446" width="4.33009" height="4.27778" transform="rotate(90 64.1665 740.446)" fill="#D0C3B4"/>
<rect x="64.1665" y="759.931" width="4.33009" height="4.27778" transform="rotate(90 64.1665 759.931)" fill="#D0C3B4"/>
<rect x="64.1665" y="779.417" width="4.33009" height="4.27778" transform="rotate(90 64.1665 779.417)" fill="#D0C3B4"/>
<rect x="64.1665" y="798.902" width="4.33009" height="4.27778" transform="rotate(90 64.1665 798.902)" fill="#D0C3B4"/>
<rect x="64.1665" y="818.387" width="4.33009" height="4.27778" transform="rotate(90 64.1665 818.387)" fill="#D0C3B4"/>
<rect x="64.1665" y="837.873" width="4.33009" height="4.27778" transform="rotate(90 64.1665 837.873)" fill="#D0C3B4"/>
<rect x="64.1665" y="857.358" width="4.33009" height="4.27778" transform="rotate(90 64.1665 857.358)" fill="#D0C3B4"/>
<rect x="64.1665" y="876.844" width="4.33009" height="4.27778" transform="rotate(90 64.1665 876.844)" fill="#D0C3B4"/>
<rect x="64.1664" y="896.329" width="4.33009" height="4.27778" transform="rotate(90 64.1664 896.329)" fill="#D0C3B4"/>
<rect x="64.1664" y="915.814" width="4.33009" height="4.27778" transform="rotate(90 64.1664 915.814)" fill="#D0C3B4"/>
<rect x="64.1664" y="935.3" width="4.33009" height="4.27778" transform="rotate(90 64.1664 935.3)" fill="#D0C3B4"/>
<rect x="64.1664" y="954.785" width="4.33009" height="4.27778" transform="rotate(90 64.1664 954.785)" fill="#D0C3B4"/>
<rect x="64.1664" y="974.271" width="4.33009" height="4.27778" transform="rotate(90 64.1664 974.271)" fill="#D0C3B4"/>
<rect x="64.1664" y="993.756" width="4.33009" height="4.27778" transform="rotate(90 64.1664 993.756)" fill="#D0C3B4"/>
<rect x="64.1664" y="1013.24" width="4.33009" height="4.27778" transform="rotate(90 64.1664 1013.24)" fill="#D0C3B4"/>
<rect x="64.1664" y="1032.73" width="4.33009" height="4.27778" transform="rotate(90 64.1664 1032.73)" fill="#D0C3B4"/>
<rect x="64.1664" y="1052.21" width="4.33009" height="4.27778" transform="rotate(90 64.1664 1052.21)" fill="#D0C3B4"/>
<rect x="64.1664" y="1071.7" width="4.33009" height="4.27778" transform="rotate(90 64.1664 1071.7)" fill="#D0C3B4"/>
<rect x="49.1947" width="4.33009" height="4.27778" transform="rotate(90 49.1947 0)" fill="#D0C3B4"/>
<rect x="49.1947" y="19.4854" width="4.33009" height="4.27778" transform="rotate(90 49.1947 19.4854)" fill="#D0C3B4"/>
<rect x="49.1947" y="38.9709" width="4.33009" height="4.27778" transform="rotate(90 49.1947 38.9709)" fill="#D0C3B4"/>
<rect x="49.1947" y="58.4563" width="4.33009" height="4.27778" transform="rotate(90 49.1947 58.4563)" fill="#D0C3B4"/>
<rect x="49.1947" y="77.9417" width="4.33009" height="4.27778" transform="rotate(90 49.1947 77.9417)" fill="#D0C3B4"/>
<rect x="49.1947" y="97.427" width="4.33009" height="4.27778" transform="rotate(90 49.1947 97.427)" fill="#D0C3B4"/>
<rect x="49.1947" y="116.913" width="4.33009" height="4.27778" transform="rotate(90 49.1947 116.913)" fill="#D0C3B4"/>
<rect x="49.1947" y="136.398" width="4.33009" height="4.27778" transform="rotate(90 49.1947 136.398)" fill="#D0C3B4"/>
<rect x="49.1947" y="155.883" width="4.33009" height="4.27778" transform="rotate(90 49.1947 155.883)" fill="#D0C3B4"/>
<rect x="49.1947" y="175.369" width="4.33009" height="4.27778" transform="rotate(90 49.1947 175.369)" fill="#D0C3B4"/>
<rect x="49.1947" y="194.854" width="4.33009" height="4.27778" transform="rotate(90 49.1947 194.854)" fill="#D0C3B4"/>
<rect x="49.1947" y="214.34" width="4.33009" height="4.27778" transform="rotate(90 49.1947 214.34)" fill="#D0C3B4"/>
<rect x="49.1947" y="233.825" width="4.33009" height="4.27778" transform="rotate(90 49.1947 233.825)" fill="#D0C3B4"/>
<rect x="49.1947" y="253.31" width="4.33009" height="4.27778" transform="rotate(90 49.1947 253.31)" fill="#D0C3B4"/>
<rect x="49.1947" y="272.796" width="4.33009" height="4.27778" transform="rotate(90 49.1947 272.796)" fill="#D0C3B4"/>
<rect x="49.1947" y="292.281" width="4.33009" height="4.27778" transform="rotate(90 49.1947 292.281)" fill="#D0C3B4"/>
<rect x="49.1947" y="311.767" width="4.33009" height="4.27778" transform="rotate(90 49.1947 311.767)" fill="#D0C3B4"/>
<rect x="49.1947" y="331.252" width="4.33009" height="4.27778" transform="rotate(90 49.1947 331.252)" fill="#D0C3B4"/>
<rect x="49.1947" y="350.737" width="4.33009" height="4.27778" transform="rotate(90 49.1947 350.737)" fill="#D0C3B4"/>
<rect x="49.1947" y="370.223" width="4.33009" height="4.27778" transform="rotate(90 49.1947 370.223)" fill="#D0C3B4"/>
<rect x="49.1947" y="389.708" width="4.33009" height="4.27778" transform="rotate(90 49.1947 389.708)" fill="#D0C3B4"/>
<rect x="49.1947" y="409.194" width="4.33009" height="4.27778" transform="rotate(90 49.1947 409.194)" fill="#D0C3B4"/>
<rect x="49.1947" y="428.679" width="4.33009" height="4.27778" transform="rotate(90 49.1947 428.679)" fill="#D0C3B4"/>
<rect x="49.1947" y="448.165" width="4.33009" height="4.27778" transform="rotate(90 49.1947 448.165)" fill="#D0C3B4"/>
<rect x="49.1947" y="467.65" width="4.33009" height="4.27778" transform="rotate(90 49.1947 467.65)" fill="#D0C3B4"/>
<rect x="49.1947" y="487.135" width="4.33009" height="4.27778" transform="rotate(90 49.1947 487.135)" fill="#D0C3B4"/>
<rect x="49.1947" y="506.621" width="4.33009" height="4.27778" transform="rotate(90 49.1947 506.621)" fill="#D0C3B4"/>
<rect x="49.1947" y="526.106" width="4.33009" height="4.27778" transform="rotate(90 49.1947 526.106)" fill="#D0C3B4"/>
<rect x="49.1947" y="545.592" width="4.33009" height="4.27778" transform="rotate(90 49.1947 545.592)" fill="#D0C3B4"/>
<rect x="49.1947" y="565.077" width="4.33009" height="4.27778" transform="rotate(90 49.1947 565.077)" fill="#D0C3B4"/>
<rect x="49.1947" y="584.562" width="4.33009" height="4.27778" transform="rotate(90 49.1947 584.562)" fill="#D0C3B4"/>
<rect x="49.1947" y="604.048" width="4.33009" height="4.27778" transform="rotate(90 49.1947 604.048)" fill="#D0C3B4"/>
<rect x="49.1947" y="623.533" width="4.33009" height="4.27778" transform="rotate(90 49.1947 623.533)" fill="#D0C3B4"/>
<rect x="49.1947" y="643.019" width="4.33009" height="4.27778" transform="rotate(90 49.1947 643.019)" fill="#D0C3B4"/>
<rect x="49.1947" y="662.504" width="4.33009" height="4.27778" transform="rotate(90 49.1947 662.504)" fill="#D0C3B4"/>
<rect x="49.1947" y="681.99" width="4.33009" height="4.27778" transform="rotate(90 49.1947 681.99)" fill="#D0C3B4"/>
<rect x="49.1947" y="701.475" width="4.33009" height="4.27778" transform="rotate(90 49.1947 701.475)" fill="#D0C3B4"/>
<rect x="49.1947" y="720.96" width="4.33009" height="4.27778" transform="rotate(90 49.1947 720.96)" fill="#D0C3B4"/>
<rect x="49.1947" y="740.446" width="4.33009" height="4.27778" transform="rotate(90 49.1947 740.446)" fill="#D0C3B4"/>
<rect x="49.1947" y="759.931" width="4.33009" height="4.27778" transform="rotate(90 49.1947 759.931)" fill="#D0C3B4"/>
<rect x="49.1947" y="779.417" width="4.33009" height="4.27778" transform="rotate(90 49.1947 779.417)" fill="#D0C3B4"/>
<rect x="49.1947" y="798.902" width="4.33009" height="4.27778" transform="rotate(90 49.1947 798.902)" fill="#D0C3B4"/>
<rect x="49.1947" y="818.387" width="4.33009" height="4.27778" transform="rotate(90 49.1947 818.387)" fill="#D0C3B4"/>
<rect x="49.1947" y="837.873" width="4.33009" height="4.27778" transform="rotate(90 49.1947 837.873)" fill="#D0C3B4"/>
<rect x="49.1947" y="857.358" width="4.33009" height="4.27778" transform="rotate(90 49.1947 857.358)" fill="#D0C3B4"/>
<rect x="49.1947" y="876.844" width="4.33009" height="4.27778" transform="rotate(90 49.1947 876.844)" fill="#D0C3B4"/>
<rect x="49.1947" y="896.329" width="4.33009" height="4.27778" transform="rotate(90 49.1947 896.329)" fill="#D0C3B4"/>
<rect x="49.1947" y="915.814" width="4.33009" height="4.27778" transform="rotate(90 49.1947 915.814)" fill="#D0C3B4"/>
<rect x="49.1947" y="935.3" width="4.33009" height="4.27778" transform="rotate(90 49.1947 935.3)" fill="#D0C3B4"/>
<rect x="49.1947" y="954.785" width="4.33009" height="4.27778" transform="rotate(90 49.1947 954.785)" fill="#D0C3B4"/>
<rect x="49.1947" y="974.271" width="4.33009" height="4.27778" transform="rotate(90 49.1947 974.271)" fill="#D0C3B4"/>
<rect x="49.1947" y="993.756" width="4.33009" height="4.27778" transform="rotate(90 49.1947 993.756)" fill="#D0C3B4"/>
<rect x="49.1947" y="1013.24" width="4.33009" height="4.27778" transform="rotate(90 49.1947 1013.24)" fill="#D0C3B4"/>
<rect x="49.1947" y="1032.73" width="4.33009" height="4.27778" transform="rotate(90 49.1947 1032.73)" fill="#D0C3B4"/>
<rect x="49.1947" y="1052.21" width="4.33009" height="4.27778" transform="rotate(90 49.1947 1052.21)" fill="#D0C3B4"/>
<rect x="49.1947" y="1071.7" width="4.33009" height="4.27778" transform="rotate(90 49.1947 1071.7)" fill="#D0C3B4"/>
<rect x="34.2224" width="4.33009" height="4.27778" transform="rotate(90 34.2224 0)" fill="#D0C3B4"/>
<rect x="34.2223" y="19.4854" width="4.33009" height="4.27778" transform="rotate(90 34.2223 19.4854)" fill="#D0C3B4"/>
<rect x="34.2223" y="38.9709" width="4.33009" height="4.27778" transform="rotate(90 34.2223 38.9709)" fill="#D0C3B4"/>
<rect x="34.2223" y="58.4563" width="4.33009" height="4.27778" transform="rotate(90 34.2223 58.4563)" fill="#D0C3B4"/>
<rect x="34.2223" y="77.9417" width="4.33009" height="4.27778" transform="rotate(90 34.2223 77.9417)" fill="#D0C3B4"/>
<rect x="34.2223" y="97.427" width="4.33009" height="4.27778" transform="rotate(90 34.2223 97.427)" fill="#D0C3B4"/>
<rect x="34.2223" y="116.913" width="4.33009" height="4.27778" transform="rotate(90 34.2223 116.913)" fill="#D0C3B4"/>
<rect x="34.2223" y="136.398" width="4.33009" height="4.27778" transform="rotate(90 34.2223 136.398)" fill="#D0C3B4"/>
<rect x="34.2223" y="155.883" width="4.33009" height="4.27778" transform="rotate(90 34.2223 155.883)" fill="#D0C3B4"/>
<rect x="34.2223" y="175.369" width="4.33009" height="4.27778" transform="rotate(90 34.2223 175.369)" fill="#D0C3B4"/>
<rect x="34.2223" y="194.854" width="4.33009" height="4.27778" transform="rotate(90 34.2223 194.854)" fill="#D0C3B4"/>
<rect x="34.2223" y="214.34" width="4.33009" height="4.27778" transform="rotate(90 34.2223 214.34)" fill="#D0C3B4"/>
<rect x="34.2223" y="233.825" width="4.33009" height="4.27778" transform="rotate(90 34.2223 233.825)" fill="#D0C3B4"/>
<rect x="34.2223" y="253.31" width="4.33009" height="4.27778" transform="rotate(90 34.2223 253.31)" fill="#D0C3B4"/>
<rect x="34.2223" y="272.796" width="4.33009" height="4.27778" transform="rotate(90 34.2223 272.796)" fill="#D0C3B4"/>
<rect x="34.2223" y="292.281" width="4.33009" height="4.27778" transform="rotate(90 34.2223 292.281)" fill="#D0C3B4"/>
<rect x="34.2223" y="311.767" width="4.33009" height="4.27778" transform="rotate(90 34.2223 311.767)" fill="#D0C3B4"/>
<rect x="34.2223" y="331.252" width="4.33009" height="4.27778" transform="rotate(90 34.2223 331.252)" fill="#D0C3B4"/>
<rect x="34.2223" y="350.737" width="4.33009" height="4.27778" transform="rotate(90 34.2223 350.737)" fill="#D0C3B4"/>
<rect x="34.2223" y="370.223" width="4.33009" height="4.27778" transform="rotate(90 34.2223 370.223)" fill="#D0C3B4"/>
<rect x="34.2223" y="389.708" width="4.33009" height="4.27778" transform="rotate(90 34.2223 389.708)" fill="#D0C3B4"/>
<rect x="34.2223" y="409.194" width="4.33009" height="4.27778" transform="rotate(90 34.2223 409.194)" fill="#D0C3B4"/>
<rect x="34.2223" y="428.679" width="4.33009" height="4.27778" transform="rotate(90 34.2223 428.679)" fill="#D0C3B4"/>
<rect x="34.2223" y="448.165" width="4.33009" height="4.27778" transform="rotate(90 34.2223 448.165)" fill="#D0C3B4"/>
<rect x="34.2223" y="467.65" width="4.33009" height="4.27778" transform="rotate(90 34.2223 467.65)" fill="#D0C3B4"/>
<rect x="34.2223" y="487.135" width="4.33009" height="4.27778" transform="rotate(90 34.2223 487.135)" fill="#D0C3B4"/>
<rect x="34.2223" y="506.621" width="4.33009" height="4.27778" transform="rotate(90 34.2223 506.621)" fill="#D0C3B4"/>
<rect x="34.2223" y="526.106" width="4.33009" height="4.27778" transform="rotate(90 34.2223 526.106)" fill="#D0C3B4"/>
<rect x="34.2223" y="545.592" width="4.33009" height="4.27778" transform="rotate(90 34.2223 545.592)" fill="#D0C3B4"/>
<rect x="34.2223" y="565.077" width="4.33009" height="4.27778" transform="rotate(90 34.2223 565.077)" fill="#D0C3B4"/>
<rect x="34.2223" y="584.562" width="4.33009" height="4.27778" transform="rotate(90 34.2223 584.562)" fill="#D0C3B4"/>
<rect x="34.2223" y="604.048" width="4.33009" height="4.27778" transform="rotate(90 34.2223 604.048)" fill="#D0C3B4"/>
<rect x="34.2223" y="623.533" width="4.33009" height="4.27778" transform="rotate(90 34.2223 623.533)" fill="#D0C3B4"/>
<rect x="34.2223" y="643.019" width="4.33009" height="4.27778" transform="rotate(90 34.2223 643.019)" fill="#D0C3B4"/>
<rect x="34.2223" y="662.504" width="4.33009" height="4.27778" transform="rotate(90 34.2223 662.504)" fill="#D0C3B4"/>
<rect x="34.2223" y="681.99" width="4.33009" height="4.27778" transform="rotate(90 34.2223 681.99)" fill="#D0C3B4"/>
<rect x="34.2223" y="701.475" width="4.33009" height="4.27778" transform="rotate(90 34.2223 701.475)" fill="#D0C3B4"/>
<rect x="34.2223" y="720.96" width="4.33009" height="4.27778" transform="rotate(90 34.2223 720.96)" fill="#D0C3B4"/>
<rect x="34.2223" y="740.446" width="4.33009" height="4.27778" transform="rotate(90 34.2223 740.446)" fill="#D0C3B4"/>
<rect x="34.2223" y="759.931" width="4.33009" height="4.27778" transform="rotate(90 34.2223 759.931)" fill="#D0C3B4"/>
<rect x="34.2223" y="779.417" width="4.33009" height="4.27778" transform="rotate(90 34.2223 779.417)" fill="#D0C3B4"/>
<rect x="34.2223" y="798.902" width="4.33009" height="4.27778" transform="rotate(90 34.2223 798.902)" fill="#D0C3B4"/>
<rect x="34.2223" y="818.387" width="4.33009" height="4.27778" transform="rotate(90 34.2223 818.387)" fill="#D0C3B4"/>
<rect x="34.2223" y="837.873" width="4.33009" height="4.27778" transform="rotate(90 34.2223 837.873)" fill="#D0C3B4"/>
<rect x="34.2223" y="857.358" width="4.33009" height="4.27778" transform="rotate(90 34.2223 857.358)" fill="#D0C3B4"/>
<rect x="34.2223" y="876.844" width="4.33009" height="4.27778" transform="rotate(90 34.2223 876.844)" fill="#D0C3B4"/>
<rect x="34.2223" y="896.329" width="4.33009" height="4.27778" transform="rotate(90 34.2223 896.329)" fill="#D0C3B4"/>
<rect x="34.2223" y="915.814" width="4.33009" height="4.27778" transform="rotate(90 34.2223 915.814)" fill="#D0C3B4"/>
<rect x="34.2223" y="935.3" width="4.33009" height="4.27778" transform="rotate(90 34.2223 935.3)" fill="#D0C3B4"/>
<rect x="34.2223" y="954.785" width="4.33009" height="4.27778" transform="rotate(90 34.2223 954.785)" fill="#D0C3B4"/>
<rect x="34.2223" y="974.271" width="4.33009" height="4.27778" transform="rotate(90 34.2223 974.271)" fill="#D0C3B4"/>
<rect x="34.2223" y="993.756" width="4.33009" height="4.27778" transform="rotate(90 34.2223 993.756)" fill="#D0C3B4"/>
<rect x="34.2223" y="1013.24" width="4.33009" height="4.27778" transform="rotate(90 34.2223 1013.24)" fill="#D0C3B4"/>
<rect x="34.2223" y="1032.73" width="4.33009" height="4.27778" transform="rotate(90 34.2223 1032.73)" fill="#D0C3B4"/>
<rect x="34.2223" y="1052.21" width="4.33009" height="4.27778" transform="rotate(90 34.2223 1052.21)" fill="#D0C3B4"/>
<rect x="34.2223" y="1071.7" width="4.33009" height="4.27778" transform="rotate(90 34.2223 1071.7)" fill="#D0C3B4"/>
<rect x="19.25" width="4.33009" height="4.27778" transform="rotate(90 19.25 0)" fill="#D0C3B4"/>
<rect x="19.25" y="19.4854" width="4.33009" height="4.27778" transform="rotate(90 19.25 19.4854)" fill="#D0C3B4"/>
<rect x="19.25" y="38.9709" width="4.33009" height="4.27778" transform="rotate(90 19.25 38.9709)" fill="#D0C3B4"/>
<rect x="19.25" y="58.4563" width="4.33009" height="4.27778" transform="rotate(90 19.25 58.4563)" fill="#D0C3B4"/>
<rect x="19.25" y="77.9417" width="4.33009" height="4.27778" transform="rotate(90 19.25 77.9417)" fill="#D0C3B4"/>
<rect x="19.25" y="97.427" width="4.33009" height="4.27778" transform="rotate(90 19.25 97.427)" fill="#D0C3B4"/>
<rect x="19.25" y="116.913" width="4.33009" height="4.27778" transform="rotate(90 19.25 116.913)" fill="#D0C3B4"/>
<rect x="19.25" y="136.398" width="4.33009" height="4.27778" transform="rotate(90 19.25 136.398)" fill="#D0C3B4"/>
<rect x="19.25" y="155.883" width="4.33009" height="4.27778" transform="rotate(90 19.25 155.883)" fill="#D0C3B4"/>
<rect x="19.25" y="175.369" width="4.33009" height="4.27778" transform="rotate(90 19.25 175.369)" fill="#D0C3B4"/>
<rect x="19.25" y="194.854" width="4.33009" height="4.27778" transform="rotate(90 19.25 194.854)" fill="#D0C3B4"/>
<rect x="19.25" y="214.34" width="4.33009" height="4.27778" transform="rotate(90 19.25 214.34)" fill="#D0C3B4"/>
<rect x="19.25" y="233.825" width="4.33009" height="4.27778" transform="rotate(90 19.25 233.825)" fill="#D0C3B4"/>
<rect x="19.25" y="253.31" width="4.33009" height="4.27778" transform="rotate(90 19.25 253.31)" fill="#D0C3B4"/>
<rect x="19.25" y="272.796" width="4.33009" height="4.27778" transform="rotate(90 19.25 272.796)" fill="#D0C3B4"/>
<rect x="19.25" y="292.281" width="4.33009" height="4.27778" transform="rotate(90 19.25 292.281)" fill="#D0C3B4"/>
<rect x="19.25" y="311.767" width="4.33009" height="4.27778" transform="rotate(90 19.25 311.767)" fill="#D0C3B4"/>
<rect x="19.25" y="331.252" width="4.33009" height="4.27778" transform="rotate(90 19.25 331.252)" fill="#D0C3B4"/>
<rect x="19.25" y="350.737" width="4.33009" height="4.27778" transform="rotate(90 19.25 350.737)" fill="#D0C3B4"/>
<rect x="19.25" y="370.223" width="4.33009" height="4.27778" transform="rotate(90 19.25 370.223)" fill="#D0C3B4"/>
<rect x="19.25" y="389.708" width="4.33009" height="4.27778" transform="rotate(90 19.25 389.708)" fill="#D0C3B4"/>
<rect x="19.25" y="409.194" width="4.33009" height="4.27778" transform="rotate(90 19.25 409.194)" fill="#D0C3B4"/>
<rect x="19.25" y="428.679" width="4.33009" height="4.27778" transform="rotate(90 19.25 428.679)" fill="#D0C3B4"/>
<rect x="19.25" y="448.165" width="4.33009" height="4.27778" transform="rotate(90 19.25 448.165)" fill="#D0C3B4"/>
<rect x="19.25" y="467.65" width="4.33009" height="4.27778" transform="rotate(90 19.25 467.65)" fill="#D0C3B4"/>
<rect x="19.25" y="487.135" width="4.33009" height="4.27778" transform="rotate(90 19.25 487.135)" fill="#D0C3B4"/>
<rect x="19.25" y="506.621" width="4.33009" height="4.27778" transform="rotate(90 19.25 506.621)" fill="#D0C3B4"/>
<rect x="19.25" y="526.106" width="4.33009" height="4.27778" transform="rotate(90 19.25 526.106)" fill="#D0C3B4"/>
<rect x="19.25" y="545.592" width="4.33009" height="4.27778" transform="rotate(90 19.25 545.592)" fill="#D0C3B4"/>
<rect x="19.25" y="565.077" width="4.33009" height="4.27778" transform="rotate(90 19.25 565.077)" fill="#D0C3B4"/>
<rect x="19.25" y="584.562" width="4.33009" height="4.27778" transform="rotate(90 19.25 584.562)" fill="#D0C3B4"/>
<rect x="19.25" y="604.048" width="4.33009" height="4.27778" transform="rotate(90 19.25 604.048)" fill="#D0C3B4"/>
<rect x="19.25" y="623.533" width="4.33009" height="4.27778" transform="rotate(90 19.25 623.533)" fill="#D0C3B4"/>
<rect x="19.25" y="643.019" width="4.33009" height="4.27778" transform="rotate(90 19.25 643.019)" fill="#D0C3B4"/>
<rect x="19.25" y="662.504" width="4.33009" height="4.27778" transform="rotate(90 19.25 662.504)" fill="#D0C3B4"/>
<rect x="19.25" y="681.99" width="4.33009" height="4.27778" transform="rotate(90 19.25 681.99)" fill="#D0C3B4"/>
<rect x="19.25" y="701.475" width="4.33009" height="4.27778" transform="rotate(90 19.25 701.475)" fill="#D0C3B4"/>
<rect x="19.25" y="720.96" width="4.33009" height="4.27778" transform="rotate(90 19.25 720.96)" fill="#D0C3B4"/>
<rect x="19.25" y="740.446" width="4.33009" height="4.27778" transform="rotate(90 19.25 740.446)" fill="#D0C3B4"/>
<rect x="19.25" y="759.931" width="4.33009" height="4.27778" transform="rotate(90 19.25 759.931)" fill="#D0C3B4"/>
<rect x="19.25" y="779.417" width="4.33009" height="4.27778" transform="rotate(90 19.25 779.417)" fill="#D0C3B4"/>
<rect x="19.25" y="798.902" width="4.33009" height="4.27778" transform="rotate(90 19.25 798.902)" fill="#D0C3B4"/>
<rect x="19.25" y="818.387" width="4.33009" height="4.27778" transform="rotate(90 19.25 818.387)" fill="#D0C3B4"/>
<rect x="19.25" y="837.873" width="4.33009" height="4.27778" transform="rotate(90 19.25 837.873)" fill="#D0C3B4"/>
<rect x="19.25" y="857.358" width="4.33009" height="4.27778" transform="rotate(90 19.25 857.358)" fill="#D0C3B4"/>
<rect x="19.25" y="876.844" width="4.33009" height="4.27778" transform="rotate(90 19.25 876.844)" fill="#D0C3B4"/>
<rect x="19.25" y="896.329" width="4.33009" height="4.27778" transform="rotate(90 19.25 896.329)" fill="#D0C3B4"/>
<rect x="19.25" y="915.814" width="4.33009" height="4.27778" transform="rotate(90 19.25 915.814)" fill="#D0C3B4"/>
<rect x="19.25" y="935.3" width="4.33009" height="4.27778" transform="rotate(90 19.25 935.3)" fill="#D0C3B4"/>
<rect x="19.25" y="954.785" width="4.33009" height="4.27778" transform="rotate(90 19.25 954.785)" fill="#D0C3B4"/>
<rect x="19.25" y="974.271" width="4.33009" height="4.27778" transform="rotate(90 19.25 974.271)" fill="#D0C3B4"/>
<rect x="19.25" y="993.756" width="4.33009" height="4.27778" transform="rotate(90 19.25 993.756)" fill="#D0C3B4"/>
<rect x="19.25" y="1013.24" width="4.33009" height="4.27778" transform="rotate(90 19.25 1013.24)" fill="#D0C3B4"/>
<rect x="19.25" y="1032.73" width="4.33009" height="4.27778" transform="rotate(90 19.25 1032.73)" fill="#D0C3B4"/>
<rect x="19.25" y="1052.21" width="4.33009" height="4.27778" transform="rotate(90 19.25 1052.21)" fill="#D0C3B4"/>
<rect x="19.25" y="1071.7" width="4.33009" height="4.27778" transform="rotate(90 19.25 1071.7)" fill="#D0C3B4"/>
<rect x="4.27759" width="4.33009" height="4.27778" transform="rotate(90 4.27759 0)" fill="#D0C3B4"/>
<rect x="4.27759" y="19.4854" width="4.33009" height="4.27778" transform="rotate(90 4.27759 19.4854)" fill="#D0C3B4"/>
<rect x="4.27759" y="38.9709" width="4.33009" height="4.27778" transform="rotate(90 4.27759 38.9709)" fill="#D0C3B4"/>
<rect x="4.27759" y="58.4563" width="4.33009" height="4.27778" transform="rotate(90 4.27759 58.4563)" fill="#D0C3B4"/>
<rect x="4.27759" y="77.9417" width="4.33009" height="4.27778" transform="rotate(90 4.27759 77.9417)" fill="#D0C3B4"/>
<rect x="4.27759" y="97.427" width="4.33009" height="4.27778" transform="rotate(90 4.27759 97.427)" fill="#D0C3B4"/>
<rect x="4.27759" y="116.913" width="4.33009" height="4.27778" transform="rotate(90 4.27759 116.913)" fill="#D0C3B4"/>
<rect x="4.27759" y="136.398" width="4.33009" height="4.27778" transform="rotate(90 4.27759 136.398)" fill="#D0C3B4"/>
<rect x="4.27759" y="155.883" width="4.33009" height="4.27778" transform="rotate(90 4.27759 155.883)" fill="#D0C3B4"/>
<rect x="4.27759" y="175.369" width="4.33009" height="4.27778" transform="rotate(90 4.27759 175.369)" fill="#D0C3B4"/>
<rect x="4.27759" y="194.854" width="4.33009" height="4.27778" transform="rotate(90 4.27759 194.854)" fill="#D0C3B4"/>
<rect x="4.27759" y="214.34" width="4.33009" height="4.27778" transform="rotate(90 4.27759 214.34)" fill="#D0C3B4"/>
<rect x="4.27759" y="233.825" width="4.33009" height="4.27778" transform="rotate(90 4.27759 233.825)" fill="#D0C3B4"/>
<rect x="4.27759" y="253.31" width="4.33009" height="4.27778" transform="rotate(90 4.27759 253.31)" fill="#D0C3B4"/>
<rect x="4.27759" y="272.796" width="4.33009" height="4.27778" transform="rotate(90 4.27759 272.796)" fill="#D0C3B4"/>
<rect x="4.27759" y="292.281" width="4.33009" height="4.27778" transform="rotate(90 4.27759 292.281)" fill="#D0C3B4"/>
<rect x="4.27759" y="311.767" width="4.33009" height="4.27778" transform="rotate(90 4.27759 311.767)" fill="#D0C3B4"/>
<rect x="4.27759" y="331.252" width="4.33009" height="4.27778" transform="rotate(90 4.27759 331.252)" fill="#D0C3B4"/>
<rect x="4.27759" y="350.737" width="4.33009" height="4.27778" transform="rotate(90 4.27759 350.737)" fill="#D0C3B4"/>
<rect x="4.27759" y="370.223" width="4.33009" height="4.27778" transform="rotate(90 4.27759 370.223)" fill="#D0C3B4"/>
<rect x="4.27759" y="389.708" width="4.33009" height="4.27778" transform="rotate(90 4.27759 389.708)" fill="#D0C3B4"/>
<rect x="4.27759" y="409.194" width="4.33009" height="4.27778" transform="rotate(90 4.27759 409.194)" fill="#D0C3B4"/>
<rect x="4.27759" y="428.679" width="4.33009" height="4.27778" transform="rotate(90 4.27759 428.679)" fill="#D0C3B4"/>
<rect x="4.27759" y="448.165" width="4.33009" height="4.27778" transform="rotate(90 4.27759 448.165)" fill="#D0C3B4"/>
<rect x="4.27759" y="467.65" width="4.33009" height="4.27778" transform="rotate(90 4.27759 467.65)" fill="#D0C3B4"/>
<rect x="4.27759" y="487.135" width="4.33009" height="4.27778" transform="rotate(90 4.27759 487.135)" fill="#D0C3B4"/>
<rect x="4.27759" y="506.621" width="4.33009" height="4.27778" transform="rotate(90 4.27759 506.621)" fill="#D0C3B4"/>
<rect x="4.27759" y="526.106" width="4.33009" height="4.27778" transform="rotate(90 4.27759 526.106)" fill="#D0C3B4"/>
<rect x="4.27759" y="545.592" width="4.33009" height="4.27778" transform="rotate(90 4.27759 545.592)" fill="#D0C3B4"/>
<rect x="4.27759" y="565.077" width="4.33009" height="4.27778" transform="rotate(90 4.27759 565.077)" fill="#D0C3B4"/>
<rect x="4.27759" y="584.562" width="4.33009" height="4.27778" transform="rotate(90 4.27759 584.562)" fill="#D0C3B4"/>
<rect x="4.27759" y="604.048" width="4.33009" height="4.27778" transform="rotate(90 4.27759 604.048)" fill="#D0C3B4"/>
<rect x="4.27759" y="623.533" width="4.33009" height="4.27778" transform="rotate(90 4.27759 623.533)" fill="#D0C3B4"/>
<rect x="4.27759" y="643.019" width="4.33009" height="4.27778" transform="rotate(90 4.27759 643.019)" fill="#D0C3B4"/>
<rect x="4.27759" y="662.504" width="4.33009" height="4.27778" transform="rotate(90 4.27759 662.504)" fill="#D0C3B4"/>
<rect x="4.27759" y="681.99" width="4.33009" height="4.27778" transform="rotate(90 4.27759 681.99)" fill="#D0C3B4"/>
<rect x="4.27759" y="701.475" width="4.33009" height="4.27778" transform="rotate(90 4.27759 701.475)" fill="#D0C3B4"/>
<rect x="4.27759" y="720.96" width="4.33009" height="4.27778" transform="rotate(90 4.27759 720.96)" fill="#D0C3B4"/>
<rect x="4.27759" y="740.446" width="4.33009" height="4.27778" transform="rotate(90 4.27759 740.446)" fill="#D0C3B4"/>
<rect x="4.27759" y="759.931" width="4.33009" height="4.27778" transform="rotate(90 4.27759 759.931)" fill="#D0C3B4"/>
<rect x="4.27759" y="779.417" width="4.33009" height="4.27778" transform="rotate(90 4.27759 779.417)" fill="#D0C3B4"/>
<rect x="4.27759" y="798.902" width="4.33009" height="4.27778" transform="rotate(90 4.27759 798.902)" fill="#D0C3B4"/>
<rect x="4.27759" y="818.387" width="4.33009" height="4.27778" transform="rotate(90 4.27759 818.387)" fill="#D0C3B4"/>
<rect x="4.27759" y="837.873" width="4.33009" height="4.27778" transform="rotate(90 4.27759 837.873)" fill="#D0C3B4"/>
<rect x="4.27759" y="857.358" width="4.33009" height="4.27778" transform="rotate(90 4.27759 857.358)" fill="#D0C3B4"/>
<rect x="4.27759" y="876.844" width="4.33009" height="4.27778" transform="rotate(90 4.27759 876.844)" fill="#D0C3B4"/>
<rect x="4.27759" y="896.329" width="4.33009" height="4.27778" transform="rotate(90 4.27759 896.329)" fill="#D0C3B4"/>
<rect x="4.27759" y="915.814" width="4.33009" height="4.27778" transform="rotate(90 4.27759 915.814)" fill="#D0C3B4"/>
<rect x="4.27759" y="935.3" width="4.33009" height="4.27778" transform="rotate(90 4.27759 935.3)" fill="#D0C3B4"/>
<rect x="4.27759" y="954.785" width="4.33009" height="4.27778" transform="rotate(90 4.27759 954.785)" fill="#D0C3B4"/>
<rect x="4.27759" y="974.271" width="4.33009" height="4.27778" transform="rotate(90 4.27759 974.271)" fill="#D0C3B4"/>
<rect x="4.27759" y="993.756" width="4.33009" height="4.27778" transform="rotate(90 4.27759 993.756)" fill="#D0C3B4"/>
<rect x="4.27759" y="1013.24" width="4.33009" height="4.27778" transform="rotate(90 4.27759 1013.24)" fill="#D0C3B4"/>
<rect x="4.27759" y="1032.73" width="4.33009" height="4.27778" transform="rotate(90 4.27759 1032.73)" fill="#D0C3B4"/>
<rect x="4.27759" y="1052.21" width="4.33009" height="4.27778" transform="rotate(90 4.27759 1052.21)" fill="#D0C3B4"/>
<rect x="4.27759" y="1071.7" width="4.33009" height="4.27778" transform="rotate(90 4.27759 1071.7)" fill="#D0C3B4"/>
</svg>
