<?xml version="1.0" encoding="UTF-8" standalone="no"?>
<!-- Created with Inkscape (http://www.inkscape.org/) -->

<svg
   version="1.1"
   id="svg854"
   width="1920"
   height="1080"
   viewBox="0 0 1920 1080"
   sodipodi:docname="web_template_quadratik.svg"
   inkscape:version="1.2 (dc2aeda, 2022-05-15)"
   xml:space="preserve"
   xmlns:inkscape="http://www.inkscape.org/namespaces/inkscape"
   xmlns:sodipodi="http://sodipodi.sourceforge.net/DTD/sodipodi-0.dtd"
   xmlns="http://www.w3.org/2000/svg"
   xmlns:svg="http://www.w3.org/2000/svg"><defs
     id="defs858"><linearGradient
       id="linearGradient3615"
       inkscape:swatch="solid"><stop
         style="stop-color:#d35f5f;stop-opacity:1;"
         offset="0"
         id="stop3613" /></linearGradient><linearGradient
       id="linearGradient15189"
       inkscape:swatch="solid"><stop
         style="stop-color:#000000;stop-opacity:1;"
         offset="0"
         id="stop15187" /></linearGradient><linearGradient
       id="linearGradient15165"
       inkscape:swatch="solid"><stop
         style="stop-color:#000000;stop-opacity:1;"
         offset="0"
         id="stop15163" /></linearGradient></defs><sodipodi:namedview
     id="namedview856"
     pagecolor="#505050"
     bordercolor="#ffffff"
     borderopacity="1"
     inkscape:pageshadow="0"
     inkscape:pageopacity="0"
     inkscape:pagecheckerboard="1"
     showgrid="true"
     units="px"
     inkscape:zoom="0.81804674"
     inkscape:cx="861.80895"
     inkscape:cy="2856.805"
     inkscape:window-width="2560"
     inkscape:window-height="1381"
     inkscape:window-x="1680"
     inkscape:window-y="0"
     inkscape:window-maximized="1"
     inkscape:current-layer="layer10"
     inkscape:document-units="mm"
     inkscape:snap-grids="false"
     inkscape:snap-page="true"
     showguides="false"
     inkscape:guide-bbox="true"
     inkscape:lockguides="true"
     inkscape:showpageshadow="0"
     inkscape:deskcolor="#505050"><sodipodi:guide
       position="-0.47111511,1080.0346"
       orientation="1,0"
       id="guide32320"
       inkscape:locked="true" /><sodipodi:guide
       position="1920,1080"
       orientation="1,0"
       id="guide32322"
       inkscape:locked="true" /><sodipodi:guide
       position="0,1080"
       orientation="0,1920"
       id="guide32389"
       inkscape:locked="true" /><sodipodi:guide
       position="1920,0"
       orientation="0,-1920"
       id="guide32393"
       inkscape:locked="true" /><inkscape:grid
       type="xygrid"
       id="grid32435"
       originx="960"
       originy="540"
       spacingx="47.9"
       spacingy="54"
       empspacing="5"
       color="#3f3fff"
       opacity="0.04705882"
       empcolor="#3f3fff"
       empopacity="0.16862745"
       visible="true"
       snapvisiblegridlinesonly="true" /><sodipodi:guide
       position="959.375,1217.5"
       orientation="1,0"
       id="guide32439"
       inkscape:locked="true" /></sodipodi:namedview><g
     inkscape:groupmode="layer"
     inkscape:label="L'espace"
     id="g860"
     style="display:inline"><g
       id="g6440"
       transform="matrix(0.03602732,0,0,-0.03602732,92.478454,1076.0793)"
       style="display:inline"
       inkscape:label="ondes"><g
         id="g6442"
         transform="scale(3.06748)"><path
           d="m 4548.87,701.096 c -84.27,0 -166.29,6.65 -245.12,19.853 -165.31,27.71 -318.07,84.597 -453.98,169.096 -146.08,90.792 -274.2,214.505 -380.8,367.695 -214.34,307.91 -321.56,676.65 -425.24,1033.26 -20.37,70.02 -41.43,142.43 -62.83,212.68 -145.93,478.83 -330.88,898.26 -565.44,1282.26 -467.9,766 -1125.95,1419.73 -1903.007,1890.5 -898.639,544.42 -1864.843,815.62 -2720.643,763.59 -502.99,-30.54 -1167.57,-321.3 -1464.59,-817.9 -176.27,-294.7 -190.48,-621.71 -41.08,-945.72 l -2.96,-1.37 c -78.34,169.91 -112.47,340.24 -101.42,506.27 10.14,152.31 58.12,301.2 142.65,442.52 134.45,224.77 356.16,423.99 641.17,576.1 263.36,140.57 556.72,227 826.03,243.36 447.85,27.19 924.16,-33.15 1415.731,-179.4 445.57,-132.58 885.2405,-329.29 1306.8,-584.68 777.509,-471.03 1435.929,-1125.12 1904.099,-1891.58 234.71,-384.25 419.77,-803.91 565.78,-1283 21.41,-70.29 42.47,-142.7 62.83,-212.75 103.62,-356.32 210.76,-724.8 424.79,-1032.28 206.98,-297.378 487.11,-477.526 832.64,-535.424 478.5,-80.228 1059.56,87.532 1554.3,448.674 712.99,520.46 1207.8,1278.02 1686.3,2010.6 83.88,128.42 170.6,261.2 256.46,389.41 222.92,332.95 524.83,764.37 883.59,1148.73 366.75,392.86 739.44,681.5 1139.41,882.45 244.76,122.97 504.26,205.83 771.06,246.29 246.5,37.33 507.4,39.68 775.4,6.95 459.9,-56.17 955.3,-214.84 1514.5,-485.06 1101.3,-532.06 2201.3,-1177.87 3269.6,-1919.52 1015.5,-704.94 2011.3,-1502.57 2959.9,-2370.77 l -2.1,-2.38 C 17146.2,2879.23 15050.5,4322.5 12883.9,5369.29 11659.9,5960.68 10688.1,6034.36 9825.8,5601.1 8948.5,5160.35 8335.62,4364.94 7804.05,3571.07 7718.21,3442.85 7631.5,3310.07 7547.62,3181.7 7068.95,2448.85 6573.99,1691.03 5860.5,1170.24 5629.96,1001.93 5370.59,870.649 5110.51,790.583 4973.1,748.301 4836.47,720.656 4704.44,708.431 c -52.55,-4.89 -104.48,-7.335 -155.57,-7.335"
           style="fill:#0e0e0e;fill-opacity:1;fill-rule:nonzero;stroke:none"
           id="path6444" /></g><g
         id="g6446"
         transform="scale(3.06748)"><path
           d="m 4719.96,885.97 c 386.6,19.854 785.53,168.41 1127.76,389.41 738.2,478.7 1268.8,1217.97 1781.92,1932.92 21.12,29.47 42.25,58.91 63.37,88.28 46.39,64.58 101.39,140.96 157.56,217.99 251.83,345.47 556.61,747.42 907.62,1109.25 373.46,384.97 746.57,670.65 1140.6,873.36 242.11,124.43 498.01,212.09 760.51,260.53 243.3,44.89 500.3,57.61 763.9,37.72 455.5,-34.32 945.2,-164.46 1497.2,-397.88 538.2,-227.22 980.6,-441.11 1392.2,-673.12 583.1,-329 1138.6,-708.04 1605.1,-1035.45 1084.4,-763.39 2148.5,-1630.19 3162.6,-2576.34 l -2.2,-2.38 c -1014,946.05 -2077.9,1812.75 -3162.3,2576.05 -466.4,327.37 -1021.8,706.38 -1604.8,1035.28 -411.5,231.95 -853.8,445.77 -1391.9,672.96 -1202.4,508.5 -2161.7,540.18 -3018.81,99.76 -889.58,-457.67 -1523.1,-1262.86 -2047.11,-1981.66 -56.14,-77.03 -111.14,-153.42 -157.53,-217.96 -21.12,-29.41 -42.21,-58.81 -63.37,-88.28 C 7118.99,2491.23 6588.23,1751.66 5849.48,1272.64 5666.34,1154.37 5471.39,1060.45 5270.12,993.42 5082.76,931.056 4898.09,895.033 4719.96,885.97 Z m -88.71,-2.281 c -214.89,0 -413.95,40.913 -591.85,121.661 -198.37,90.04 -369.58,229.57 -508.82,414.71 -12.32,16.36 -24.55,33.35 -36.35,50.4 -212,306.57 -323.99,670.51 -432.28,1022.5 -21.9,71.13 -44.53,144.71 -67.5,216.1 -136.68,425.1 -301.3,799.78 -503.25,1145.37 -24.87,42.54 -50.64,85.18 -76.61,126.72 -474.79,759.41 -1138.17,1404.86 -1918.412,1866.57 -905.126,535.13 -1874.068,795.13 -2728.338,732.05 -499.32,-37.26 -1160.85,-332.79 -1459.14,-825.54 -178.61,-295.07 -198.82,-622.76 -58.52,-947.69 l -2.96,-1.3 c -73.58,170.3 -103.77,340.96 -89.81,507.19 12.84,152.7 62.78,301.91 148.52,443.49 135.81,224.39 356.84,423.8 639.22,576.76 260.96,141.32 553.04,230.24 822.45,250.34 447.31,33.03 924.14,-21.54 1417.25,-162.19 446.659,-127.4 888.4134,-319.28 1312.988,-570.3 780.692,-461.98 1444.452,-1107.82 1919.512,-1867.66 25.99,-41.56 51.78,-84.2 76.66,-126.78 202.08,-345.82 366.79,-720.69 503.54,-1146.05 22.98,-71.4 45.62,-144.97 67.51,-216.14 108.22,-351.72 220.14,-715.44 431.84,-1021.59 11.81,-17.01 24,-33.96 36.29,-50.3 287.79,-382.62 683.23,-538.289 1099.07,-538.289 2.29,0 4.54,0 6.82,0 -2.61,0 -5.22,-0.032 -7.83,-0.032"
           style="fill:#0e0e0e;fill-opacity:1;fill-rule:nonzero;stroke:none"
           id="path6448" /></g><g
         id="g6450"
         transform="scale(3.06748)"><path
           d="m 4722.11,1062.11 c -25.85,0 -51.54,0.55 -77.07,1.69 -214.7,9.49 -413.4,58.75 -590.54,146.48 -193.75,95.94 -361.6,238.04 -498.88,422.39 -12.2,16.43 -24.35,33.42 -36.09,50.53 -209.65,305.07 -326.28,664.13 -439.08,1011.39 -23.51,72.37 -47.82,147.22 -72.45,219.85 -143.43,423.67 -312.39,795.38 -516.5,1136.31 -25.25,42.15 -51.42,84.43 -77.78,125.64 C 1932.04,4929.15 1263.34,5566.35 479.897,6019 c -911.592,525.86 -1883.267,774.64 -2736.027,700.49 -480.12,-42.42 -1139.71,-321.09 -1453.33,-832.65 -181.19,-295.55 -207.56,-624.09 -76.28,-950.16 l -3.03,-1.24 c -68.75,170.83 -95.03,341.88 -78.08,508.43 15.58,153.13 67.61,302.76 154.62,444.7 137.22,223.83 357.59,423.38 637.23,577.02 258.52,142.02 549.23,233.35 818.59,257.15 446.78,38.84 924.13,-9.93 1418.77,-144.98 C -389.886,6455.52 53.9466,6268.49 481.527,6021.84 1265.42,5568.9 1934.51,4931.37 2416.46,4178.15 c 26.39,-41.24 52.57,-83.52 77.84,-125.74 204.23,-341.13 373.27,-713.03 516.79,-1136.93 24.63,-72.63 48.95,-147.51 72.46,-219.88 112.72,-347.03 229.3,-705.86 438.65,-1010.57 11.74,-17.05 23.87,-34 36.03,-50.4 557.81,-749.084 1546.38,-668.659 2278.6,-256.69 769.07,436.48 1340.58,1161.89 1893.28,1863.45 l 5.67,7.2 c 53.53,68 108.89,138.29 163.98,207.7 581.39,732.22 1220.38,1484.7 2073.53,1934.06 239.51,125.9 491.81,218.35 749.91,274.78 240.1,52.49 493.3,75.53 752.5,68.49 451.8,-12.29 935.8,-113.93 1479.8,-310.74 571.6,-206.13 1001.8,-395.63 1394.8,-614.41 560,-312.34 1102.4,-707.03 1581,-1055.26 1065.5,-779.5 2113.4,-1657.58 3114.5,-2609.89 l -2.3,-2.35 c -1001,952.18 -2048.7,1830.19 -3114.1,2609.63 -478.5,348.17 -1020.9,742.79 -1580.6,1055.03 -392.9,218.68 -823,408.12 -1394.4,614.19 -1179.1,426.63 -2125.9,416.36 -2979.61,-32.34 C 9122.2,4938.38 8483.47,4186.2 7902.34,3454.26 c -55.1,-69.4 -110.45,-139.69 -163.98,-207.69 l -5.7,-7.2 C 7457.25,2889.76 7172.42,2528.26 6864.88,2205.39 6519.25,1842.52 6183.5,1570.93 5838.46,1375.1 5477.39,1171.97 5084.13,1062.11 4722.11,1062.11"
           style="fill:#0e0e0e;fill-opacity:1;fill-rule:nonzero;stroke:none"
           id="path6452" /></g><g
         id="g6454"
         transform="scale(3.06748)"><path
           d="m 19009,1171.68 c -988,958.31 -2019.6,1847.6 -3066,2643.17 -44.3,33.45 -88.8,67.06 -133.3,100.77 -453.3,343.02 -922,697.7 -1423.2,974.02 -486.2,267.32 -979,430.78 -1396.9,555.41 -1153.6,346.14 -2087.9,293.89 -2940.3,-164.4 -875.04,-471.86 -1553.05,-1255.27 -2097.83,-1884.77 -32.7,-37.79 -65.33,-75.63 -98.03,-113.48 -24.13,-27.97 -48.25,-55.94 -72.41,-83.92 -310.22,-358.76 -592.34,-679.58 -904.12,-972.26 -356.16,-334.38 -699.44,-579.27 -1049.5,-748.69 -328.12,-158.8 -678.57,-242.84 -1004.57,-242.84 -59.39,0 -117.91,2.77 -175.42,8.41 -209.94,20.57 -404.3,78.37 -577.67,171.8 -189.18,101.95 -353.74,246.79 -489.1,430.42 -12.09,16.47 -24.15,33.48 -35.82,50.6 -207.21,303.47 -328.36,657.51 -445.54,999.87 -25.24,73.74 -51.34,150.03 -77.74,224.06 -150.3,422.3 -323.58,791.01 -529.75,1127.18 -25.65,41.83 -52.21,83.75 -78.95,124.57 -488.57,746.18 -1162.6,1375.06 -1949.23,1818.68 -918.054,516.55 -1892.44,754.12 -2743.71,668.94 -581.95,-59.38 -1177.04,-404.45 -1447.13,-839.17 -184.03,-296.17 -216.66,-625.79 -94.44,-953.26 l -3.07,-1.11 c -63.99,171.41 -86.29,342.99 -66.28,509.93 18.42,153.71 72.57,303.83 161.02,446.16 138.68,223.22 358.3,422.7 635.13,576.92 256.04,142.63 545.28,236.31 814.44,263.78 446.26,44.65 924.11,1.66 1420.288,-127.77 C -411.285,6617.61 34.6286,6435.4 465.225,6193.15 1252.3,5749.27 1926.72,5119.99 2415.58,4373.39 c 26.75,-40.85 53.33,-82.81 79,-124.63 206.29,-336.37 379.66,-705.3 530.04,-1127.83 26.41,-74.04 52.51,-150.32 77.76,-224.09 117.1,-342.17 238.21,-695.98 445.12,-999.1 11.67,-17.05 23.7,-34.03 35.76,-50.46 582.37,-790.06 1572.1,-691.38 2242.72,-366.82 800.1,387.19 1412.36,1095.36 1952.58,1720.18 24.15,27.93 48.28,55.9 72.43,83.87 32.67,37.89 65.33,75.74 98,113.52 310.97,359.32 618.06,708.5 955.67,1030.26 388.23,370.04 762.15,649.81 1143.04,855.23 237,127.43 485.8,224.67 739.5,289.03 237,60.11 486.3,93.53 740.8,99.23 448.9,10.14 927.4,-63.01 1462.5,-223.6 418.1,-124.66 911.1,-288.22 1397.6,-555.67 501.4,-276.45 970.2,-631.2 1423.6,-974.28 44.5,-33.71 88.9,-67.32 133.2,-100.77 1046.6,-795.67 2078.2,-1685.03 3066.3,-2643.44 l -2.2,-2.34"
           style="fill:#0e0e0e;fill-opacity:1;fill-rule:nonzero;stroke:none"
           id="path6456" /></g><g
         id="g6458"
         transform="scale(3.06748)"><path
           d="m 18974.4,1202.39 c -993.6,982.76 -2008.9,1883.33 -3017.8,2676.75 -60.4,47.47 -122.2,96.4 -181.9,143.7 -427.7,338.78 -870,689.1 -1350.4,950.81 -479.7,260.48 -976.7,397.23 -1399.5,496.66 -1125.5,267.26 -2047.4,173.04 -2901,-296.49 C 9309.55,4724.36 8671.67,4048.5 8054.78,3394.9 l -67.71,-71.75 C 7933.57,3266.46 7878.25,3207.84 7823.71,3150.4 7206.2,2500.55 6588,1891.49 5816.36,1579.96 c -187.25,-75.6 -379.56,-128.02 -571.57,-155.8 -206.2,-29.82 -406.49,-30.25 -595.34,-1.2 -205.12,31.52 -395.05,97.73 -564.6,196.8 -184.46,107.78 -345.69,255.23 -479.19,438.21 -12.03,16.56 -24,33.61 -35.57,50.7 -204.6,301.64 -330.16,650.5 -451.57,987.84 -27.1,75.27 -55.12,153.12 -83.42,228.72 -157.26,421.03 -334.88,786.77 -543,1118.12 -26.01,41.4 -52.96,82.93 -80.12,123.49 -495.45,739.56 -1174.81,1360.17 -1964.633,1794.76 -924.513,507.19 -1901.637,733.55 -2751.397,637.35 -576.63,-66.68 -1168.99,-414.2 -1440.52,-845.11 -187.09,-296.92 -226.18,-627.81 -113.05,-956.91 l -3.07,-1.04 c -59.2,172.19 -77.49,344.38 -54.37,511.85 21.32,154.36 77.75,305.04 167.72,447.83 140.18,222.46 359.06,421.78 632.94,576.44 253.51,143.14 541.16,239.1 809.98,270.18 445.73,50.46 924.09,13.26 1421.798,-110.56 C -432.68,6779.7 15.3118,6602.33 448.919,6364.43 1239.2,5929.61 1918.95,5308.65 2414.69,4568.63 c 27.17,-40.55 54.15,-82.12 80.17,-123.55 208.24,-331.51 385.96,-697.45 543.29,-1118.71 28.31,-75.59 56.34,-153.48 83.44,-228.75 121.34,-337.18 246.81,-685.81 451.21,-987.13 11.54,-17.05 23.5,-34.07 35.5,-50.59 568.31,-779.05 1512.61,-757.17 2206.82,-476.91 771.06,311.27 1388.96,920.1 2006.21,1569.66 54.54,57.44 109.86,116.06 163.36,172.75 l 67.71,71.75 c 302.82,320.82 615.94,652.55 955.99,961.18 385.14,349.53 749.48,617.21 1113.81,818.35 234.6,129.04 479.8,231.04 728.9,303.25 234.2,67.87 479.6,111.62 729.3,130.04 447,32.93 919.7,-11.7 1445.2,-136.46 423,-99.5 920.2,-236.35 1400.2,-496.99 480.7,-261.84 923.1,-612.26 1350.9,-951.14 59.7,-47.3 121.5,-96.2 181.9,-143.7 1009,-793.45 2024.4,-1694.12 3018.1,-2676.98 l -2.3,-2.31"
           style="fill:#0e0e0e;fill-opacity:1;fill-rule:nonzero;stroke:none"
           id="path6460" /></g><g
         id="g6462"
         transform="scale(3.06748)"><path
           d="m 18939.9,1233.1 c -985.2,993.68 -1984.3,1905.56 -2969.7,2710.29 -74.1,60.51 -150,123.36 -223.5,184.19 -404.7,335.1 -823.1,681.64 -1284.7,930.11 -477.4,255.98 -976.6,364.99 -1402,437.89 -1094.3,190.45 -2003.7,54.24 -2861.7,-428.59 C 9449.47,4643.9 8834.63,4044.26 8240.04,3464.34 c -62.56,-61.03 -127.24,-124.11 -190.32,-185.24 -74.03,-71.78 -130.59,-126.32 -183.37,-176.79 -282.64,-270.15 -619.24,-581.19 -972.43,-839.87 -374.28,-274.13 -730.37,-463.86 -1088.64,-580.05 -188.36,-61.09 -379.86,-99.6 -569.1,-114.49 -203.2,-15.98 -399.94,-4.24 -584.71,34.91 -200.2,42.41 -385.76,117.04 -551.5,221.78 -179.75,113.61 -337.64,263.67 -469.27,446.03 -11.87,16.53 -23.77,33.61 -35.31,50.76 -201.93,299.66 -331.71,643.1 -457.18,975.23 -29.1,77 -59.19,156.68 -89.56,234 -164.35,419.86 -346.29,782.63 -556.24,1109.02 -26.41,41.05 -53.76,82.25 -81.3,122.42 -502.33,732.94 -1187.02,1345.3 -1980.04,1770.83 -930.955,497.85 -1910.82,713 -2759.09,605.8 -482.68,-62.34 -1113.11,-349.46 -1433.43,-850.4 -190.45,-297.83 -236.13,-630.22 -132.1,-961.21 l -3.13,-0.98 c -54.38,173.07 -68.62,346.08 -42.28,514.14 24.32,155.14 83.13,306.47 174.77,449.81 141.68,221.55 359.71,420.56 630.58,575.51 250.94,143.57 536.89,241.71 805.17,276.36 445.22,56.26 924.09,24.86 1423.328,-93.34 C -454.079,6941.78 -4.00369,6769.24 432.612,6535.75 1226.09,6109.96 1911.17,5497.27 2413.8,4763.9 c 27.55,-40.22 54.92,-81.43 81.35,-122.51 210.07,-326.58 392.11,-689.52 556.53,-1109.57 30.38,-77.39 60.47,-157.03 89.58,-234.07 125.42,-331.96 255.11,-675.21 456.84,-974.54 11.54,-17.12 23.4,-34.17 35.23,-50.7 472.84,-655.03 1284.38,-874.49 2170.94,-587.03 802.9,260.38 1457.84,843.86 2059.83,1419.18 52.78,50.47 109.34,105.01 183.37,176.79 63.05,61.13 127.76,124.21 190.32,185.23 292.69,285.48 595.38,580.68 918.18,857.09 365.06,312.6 705.5,556.65 1040.73,746.08 232.3,130.73 474,237.53 718.3,317.46 231.5,75.73 473,129.85 717.8,160.82 445.9,56.4 912.9,40.26 1427.8,-49.32 425.6,-72.96 925.1,-182.04 1403,-438.25 461.9,-248.6 880.4,-595.24 1285.2,-930.47 73.4,-60.79 149.3,-123.68 223.4,-184.15 985.5,-804.83 1984.8,-1716.78 2970,-2710.56 l -2.3,-2.28"
           style="fill:#0e0e0e;fill-opacity:1;fill-rule:nonzero;stroke:none"
           id="path6464" /></g><g
         id="g6466"
         transform="scale(3.06748)"><path
           d="m 18905.3,1263.8 c -976.5,1004.67 -1959.5,1927.87 -2921.6,2743.88 -81.8,69.41 -165.9,142.27 -247.2,212.72 -387.2,335.58 -787.7,682.58 -1236.7,921.31 -477.8,252.91 -978.1,333.59 -1404.5,379.17 -1044.8,114.65 -1968,-68.76 -2822.5,-560.69 -680.41,-393.52 -1263.66,-919.91 -1827.7,-1428.96 -113.91,-102.82 -231.73,-209.16 -346.25,-310.51 -70.02,-62.04 -132.13,-116.51 -189.83,-166.49 -268.33,-232.34 -625.27,-530.21 -1006.65,-773.6 -383.25,-244.56 -745.73,-406.75 -1108.14,-495.78 -395.28,-97.11 -789.77,-97.83 -1140.84,-2.12 -195.14,53.24 -376.27,136.24 -538.32,246.75 -174.97,119.28 -329.52,271.95 -459.34,453.79 -11.77,16.56 -23.57,33.68 -35.04,50.83 -199.09,297.37 -332.85,635.18 -462.23,961.83 -31.29,79.02 -63.64,160.72 -96.26,240.1 -171.55,418.74 -357.83,778.55 -569.49,1099.92 -26.81,40.68 -54.56,81.5 -82.47,121.34 -509.22,726.32 -1199.23,1330.37 -1995.444,1746.87 -937.391,488.5 -1919.986,692.44 -2766.786,574.25 -573.89,-81.84 -1146.9,-425.42 -1425.8,-854.97 -194.1,-298.91 -246.55,-633.03 -151.72,-966.23 l -3.13,-0.91 c -49.55,174.14 -59.65,348 -30.02,516.84 27.38,156.02 88.64,308.13 182.14,452.06 143.17,220.51 360.36,419.04 628.05,574.15 248.33,143.88 532.45,244.13 800.03,282.28 444.7,62.07 924.08,36.45 1424.836,-76.13 452.129,-101.65 904.2874,-269.35 1343.906,-498.45 796.678,-416.72 1487.088,-1021.15 1996.618,-1747.9 27.92,-39.84 55.69,-80.69 82.51,-121.41 211.78,-321.56 398.16,-681.53 569.79,-1100.48 32.62,-79.41 64.98,-161.1 96.27,-240.13 129.32,-326.49 263.01,-664.13 461.9,-961.21 11.48,-17.15 23.25,-34.2 34.98,-50.76 464.68,-650.82 1262.83,-911.43 2135.07,-697.15 795.18,195.37 1485.72,725.22 2113.46,1268.66 57.67,50.01 119.77,104.46 189.8,166.49 114.49,101.36 232.31,207.66 346.21,310.48 564.18,509.18 1147.55,1035.71 1828.29,1429.35 230.2,132.59 468.4,244.18 707.8,331.74 228.9,83.72 466.5,148.17 706.2,191.56 445.7,80.68 907.1,93.04 1410.4,37.81 426.8,-45.57 927.5,-126.32 1405.7,-379.53 449.4,-238.89 849.9,-586.01 1237.4,-921.73 81.2,-70.41 165.3,-143.28 247.1,-212.68 962.2,-816.08 1945.2,-1739.34 2921.8,-2744.07 l -2.3,-2.29"
           style="fill:#0e0e0e;fill-opacity:1;fill-rule:nonzero;stroke:none"
           id="path6468" /></g><g
         id="g6470"
         transform="scale(3.06748)"><path
           d="m 18870.7,1294.51 c -967.8,1015.75 -1934.6,1950.2 -2873.4,2777.46 -86.3,75.99 -175,156.51 -260.8,234.36 -373.2,338.42 -759,688.38 -1199,919.39 -479.7,250.75 -980.5,302.69 -1407,320.42 -1005.3,44.89 -1915.6,-181.74 -2783.2,-692.78 -608.44,-360.1 -1150.81,-815.85 -1675.34,-1256.57 -180.34,-151.52 -350.71,-294.67 -523.98,-434.46 -70.48,-56.89 -134.67,-107.97 -196.29,-156.22 -397.55,-310.81 -728.31,-535.55 -1040.95,-707.22 -392.21,-215.42 -761.04,-350.03 -1127.6,-411.58 -142.2,-23.89 -283.88,-35.76 -422.98,-35.76 -246.59,0 -485.19,37.29 -704.85,111.17 -397.52,133.69 -725.41,380.37 -974.54,733.2 -11.74,16.73 -23.44,33.84 -34.82,50.92 -196.02,294.77 -333.56,626.61 -466.57,947.52 -33.7,81.31 -68.54,165.35 -103.63,247.05 -178.89,417.77 -369.51,774.57 -582.74,1090.82 -27.2,40.33 -55.34,80.82 -83.64,120.27 -516.1,719.71 -1211.44,1315.5 -2010.848,1722.95 -943.812,479.11 -1929.132,671.84 -2774.472,542.68 -576.28,-89.87 -1132.75,-426.97 -1417.65,-858.79 -198.01,-300.14 -257.44,-636.28 -171.83,-972.03 l -3.16,-0.78 c -44.7,175.32 -50.63,350.26 -17.61,519.91 30.55,157.06 94.45,310.06 189.9,454.69 144.68,219.29 360.91,417.19 625.36,572.3 245.64,144.08 527.8,246.33 794.49,287.93 444.19,67.86 924.08,48.04 1426.359,-58.92 453.221,-96.52 907.4601,-259.39 1350.087,-484.08 799.874,-407.68 1495.624,-1003.81 2012.024,-1723.97 28.32,-39.48 56.47,-79.97 83.69,-120.33 213.35,-316.42 404.07,-673.42 583.04,-1091.35 35.1,-81.73 69.94,-165.8 103.64,-247.11 132.97,-320.75 270.44,-652.42 466.3,-946.96 11.31,-17.05 23.02,-34.17 34.72,-50.86 465.3,-658.91 1230.42,-953.16 2099.21,-807.27 827,138.87 1559.55,643.2 2167.05,1118.18 61.62,48.21 125.81,99.3 196.26,156.18 173.26,139.76 343.6,282.87 523.94,434.43 524.6,440.79 1067.1,896.63 1675.73,1256.86 228.6,134.64 463.2,251.02 697.3,345.95 226.8,91.93 460.5,166.75 694.7,222.33 446.7,105.99 902.3,146.87 1393.1,124.96 426.8,-17.73 928,-69.73 1408.4,-320.78 440.3,-231.24 826.3,-581.33 1199.6,-919.88 85.8,-77.85 174.5,-158.34 260.8,-234.33 938.9,-827.32 1905.7,-1761.83 2873.6,-2777.65 l -2.4,-2.25"
           style="fill:#0e0e0e;fill-opacity:1;fill-rule:nonzero;stroke:none"
           id="path6472" /></g><g
         id="g6474"
         transform="scale(3.06748)"><path
           d="m 18836.2,1325.22 c -972.7,1041.38 -1896.8,1960.86 -2825.3,2811 -88.6,81.15 -175.8,163.95 -268.2,251.64 -360.9,342.82 -734.2,697.32 -1167.4,921.9 -485.8,250.63 -1008.5,271.49 -1409.6,261.68 -959.4,-20.47 -1857,-290.3 -2743.9,-824.91 -532.17,-322.32 -1023.48,-709.38 -1498.59,-1083.72 -249.72,-196.71 -485.58,-382.53 -726.1,-558.83 -71.4,-52.39 -137.74,-100.12 -202.77,-145.95 -402.94,-283.46 -744.62,-487.11 -1075.22,-640.85 -401.3,-186.61 -776.5,-293.7 -1147.06,-327.41 -190.38,-17.31 -379.46,-14.05 -561.96,9.69 -193.25,25.13 -379.27,73.35 -552.86,143.31 -384.78,154.98 -704.88,412.65 -951.47,765.8 -11.6,16.76 -23.24,33.91 -34.52,50.99 -192.73,291.77 -333.73,617.25 -470.09,932 -36.38,83.98 -74,170.82 -111.86,255.26 -186.37,416.85 -381.32,770.69 -595.99,1081.73 -27.6,39.97 -56.13,80.07 -84.81,119.19 -522.97,713.09 -1223.64,1300.6 -2026.259,1699 C -358.552,7412.93 -1122.51,7604 -1823.05,7604 c -198.05,0 -390.87,-15.25 -576.86,-46.13 -569.32,-96.36 -1122.32,-434.65 -1408.88,-861.84 -202.25,-301.57 -268.85,-639.96 -192.6,-978.58 l -3.16,-0.71 c -39.81,176.69 -41.47,352.83 -4.96,523.49 33.87,158.24 100.48,312.18 198.02,457.62 146.17,217.92 361.43,415 622.47,569.94 246.43,146.27 519.11,247.69 788.57,293.29 443.66,73.66 924.07,59.63 1427.868,-41.71 454.32,-91.39 910.6382,-249.42 1356.271,-469.7 803.081,-398.64 1504.161,-986.49 2027.451,-1700.01 28.69,-39.15 57.24,-79.25 84.86,-119.28 214.78,-311.2 409.82,-665.21 596.28,-1082.23 37.87,-84.43 75.49,-171.31 111.88,-255.29 136.3,-314.62 277.23,-639.97 469.8,-931.51 11.27,-17.05 22.88,-34.2 34.49,-50.92 461.06,-660.38 1213.11,-994.76 2063.32,-917.4 860.34,78.24 1638.7,558.25 2220.71,967.67 65,45.8 131.31,93.53 202.7,145.88 240.49,176.3 476.32,362.09 726.01,558.8 475.21,374.38 966.59,761.54 1498.91,1083.95 456.6,275.24 904.7,475.83 1369.9,613.27 448.7,132.52 898.6,201.93 1375.7,212.1 272.2,6.65 494.2,-4.92 698.8,-36.48 264.1,-40.75 497.1,-114.56 712.3,-225.59 433.6,-224.78 807,-579.44 1168.2,-922.39 92.3,-87.69 179.5,-170.5 268.1,-251.6 928.5,-850.21 1852.7,-1769.76 2825.4,-2811.2 l -2.3,-2.22"
           style="fill:#0e0e0e;fill-opacity:1;fill-rule:nonzero;stroke:none"
           id="path6476" /></g><g
         id="g6478"
         transform="scale(3.06748)"><path
           d="m 18801.6,1355.93 c -963.7,1052.79 -1872.1,1983.26 -2777.1,2844.58 -89.5,85.22 -177.8,173.01 -271.3,265.95 -350.2,348.23 -712.2,708.33 -1140.1,927.31 -489.8,249.49 -1012,239.51 -1412.1,202.97 -905.5,-79.87 -1790.2,-392.9 -2704.7,-957.04 -450.6,-279.25 -879.66,-598.9 -1294.56,-908.01 -327.95,-244.34 -637.75,-475.15 -955.5,-686.1 -71.85,-47.73 -142.24,-93.37 -209.23,-135.62 -403.78,-254.41 -766.72,-442.28 -1109.54,-574.41 -410.53,-158.17 -792.08,-237.78 -1166.46,-243.32 -190.48,-2.81 -378.81,14.41 -559.65,51.21 -189.57,38.6 -372,98.94 -542.23,179.4 -371.58,175.61 -683.92,444.24 -928.32,798.37 -11.48,16.73 -23.02,33.91 -34.26,51.09 -189.15,288.21 -333.21,606.81 -472.51,914.92 -39.42,87.17 -80.19,177.31 -121.18,264.97 -194.02,416.07 -393.3,766.91 -609.24,1072.64 -28,39.64 -56.93,79.38 -85.98,118.11 -529.86,706.5 -1235.86,1285.73 -2041.672,1675.08 -956.624,460.3 -1947.408,630.62 -2789.848,479.56 -561.97,-102.53 -1111.26,-441.68 -1399.41,-864.02 -206.82,-303.15 -280.82,-644.1 -214.02,-985.98 l -3.2,-0.62 c -34.82,178.23 -32.14,355.73 7.99,527.54 37.23,159.52 106.73,314.59 206.55,460.9 147.61,216.38 361.76,412.46 619.29,567.07 243.59,146.24 514.08,249.4 782.22,298.32 443.16,79.46 924.06,71.22 1429.387,-24.49 455.422,-86.27 913.82,-239.47 1362.458,-455.34 C 1173.67,6831.39 1880.08,6251.8 2410.24,5544.9 c 29.08,-38.76 58.03,-78.53 86.04,-118.17 216.06,-305.89 415.43,-656.93 609.53,-1073.13 41,-87.69 81.77,-177.87 121.2,-265.04 139.27,-308 283.26,-626.47 472.24,-914.49 11.28,-17.15 22.79,-34.3 34.27,-51.02 465.88,-675.08 1185.92,-1040.04 2027.42,-1027.55 682.81,10.1 1405.49,269.79 2274.31,817.21 66.99,42.25 137.34,87.86 209.16,135.59 317.72,210.92 627.45,441.69 955.41,686 414.93,309.14 844.08,628.82 1294.78,908.2 461.1,284.4 901.9,499.73 1347.8,658.23 451.7,160.59 896,258.48 1358.3,299.23 400.6,36.61 923.3,46.56 1413.8,-203.29 428.4,-219.2 790.7,-579.5 1141,-927.89 93.5,-92.95 181.7,-180.74 271.2,-265.92 905.1,-861.36 1813.5,-1791.89 2777.3,-2844.71 l -2.4,-2.22"
           style="fill:#0e0e0e;fill-opacity:1;fill-rule:nonzero;stroke:none"
           id="path6480" /></g><g
         id="g6482"
         transform="scale(3.06748)"><path
           d="m 18767,1386.64 c -954.7,1064.26 -1847.3,2005.68 -2728.9,2878.16 -89.5,88.54 -177.9,180.6 -271.4,278.04 -340.3,354.46 -692.2,720.98 -1115.9,934.94 -494.4,248.57 -1015.7,207.66 -1414.5,144.25 -852,-132.84 -1699,-478.92 -2665.5,-1089.13 -362.5,-229.9 -716.8,-482.09 -1059.39,-726 -416.11,-296.21 -809.1,-576.01 -1216.08,-819.7 -73.32,-43.94 -145.88,-86.09 -215.68,-125.31 -410.99,-230.65 -785.14,-396.74 -1143.84,-507.88 -200.91,-62.23 -399.25,-107.32 -589.5,-133.98 -202.94,-28.46 -403.59,-36.97 -596.39,-25.3 -391.16,23.7 -757.52,127.43 -1088.9,308.3 -357.82,195.31 -662.37,474.85 -905.17,830.84 -11.41,16.82 -22.86,34.04 -34.04,51.15 -185.07,283.98 -331.67,595.02 -473.47,895.78 -42.93,91.06 -87.32,185.2 -131.93,276.81 -201.82,415.39 -405.44,763.26 -622.49,1063.54 -28.41,39.29 -57.73,78.67 -87.15,117.04 -536.73,699.85 -1248.06,1270.82 -2057.076,1651.13 -963.007,450.88 -1956.524,609.98 -2797.534,448 -900.51,-176.13 -1778,-937.19 -1625.43,-1859.59 l -3.2,-0.55 c -38.17,230.74 -15.84,458.09 66.41,675.72 75.14,198.77 198.4,385.8 366.39,555.91 156.19,158.17 343.54,294.74 556.9,405.91 202.92,105.73 423.64,183.82 638.3,225.81 442.65,85.25 924.07,82.8 1430.91,-7.29 456.52,-81.15 916.998,-229.51 1368.637,-440.97 809.493,-380.53 1521.233,-951.81 2058.283,-1652.09 29.44,-38.41 58.78,-77.82 87.2,-117.14 217.16,-300.4 420.88,-648.44 622.78,-1064.03 44.62,-91.57 89.01,-185.75 131.94,-276.8 141.76,-300.71 288.3,-611.61 473.27,-895.4 11.15,-17.11 22.59,-34.29 34,-51.11 466.61,-684.15 1173.9,-1088.19 1991.57,-1137.71 692.23,-41.89 1453.7,176.17 2327.93,666.74 69.8,39.18 142.33,81.33 215.62,125.28 406.85,243.62 799.81,523.39 1215.85,819.56 342.62,243.91 696.88,496.14 1059.48,726.07 967,610.47 1814.4,956.71 2666.7,1089.62 268.1,42.61 490,56.2 698.5,42.8 266.5,-17.11 501.3,-78.4 718.1,-187.35 424.2,-214.24 776.2,-580.96 1116.7,-935.62 93.6,-97.44 181.9,-189.44 271.4,-277.98 881.6,-872.5 1774.3,-1813.99 2729.1,-2878.29 l -2.5,-2.18"
           style="fill:#0e0e0e;fill-opacity:1;fill-rule:nonzero;stroke:none"
           id="path6484" /></g><g
         id="g6486"
         transform="scale(3.06748)"><path
           d="m 18732.4,1417.35 c -945.6,1075.83 -1822.5,2028.27 -2680.7,2911.7 -88.8,91.41 -176.6,187.19 -269.5,288.58 -331,361.24 -673.4,734.8 -1093.6,944.19 -505.2,250.63 -1050.7,168.84 -1417.1,85.51 -994.5,-223.34 -1885.6,-742.69 -2626.2,-1221.26 -266.2,-172.71 -531.7,-355.67 -788.49,-532.59 -515.08,-354.91 -1001.64,-690.14 -1512.35,-964.63 -75.11,-40.43 -149.86,-79.12 -222.14,-115.05 -419.04,-207.95 -804.4,-352.3 -1178.13,-441.24 -423.63,-100.83 -829.18,-126.19 -1205.35,-75.34 -386.44,52.26 -748.43,182.14 -1075.87,386.05 -343.44,213.86 -640.23,504.29 -882.09,863.22 -11.31,16.85 -22.65,34.1 -33.77,51.25 -180.47,278.79 -328.94,581.29 -472.54,873.84 -47.06,95.84 -95.72,194.98 -144.61,291.41 -212.72,420.61 -414.73,755.67 -635.74,1054.45 -28.78,38.92 -58.5,77.91 -88.32,115.96 C 1862.29,6626.67 1145.64,7189.35 333.417,7560.61 -635.967,8002.05 -1632.22,8149.94 -2471.81,7977.05 -3375.53,7788.48 -4235.1,7037.74 -4109.2,6107.84 l -3.26,-0.43 c -31.23,230.72 -4.2,457.8 80.33,674.94 77.42,198.97 201.43,386.21 368.51,556.51 155.83,158.82 342.27,296.41 554.07,408.96 201.7,107.18 422,187.55 637.08,232.43 442.14,91.04 924.08,94.38 1432.42,9.92 457.626,-76.03 920.183,-219.56 1374.823,-426.59 812.697,-371.48 1529.767,-934.49 2073.697,-1628.16 29.83,-38.08 59.57,-77.1 88.37,-116.03 221.12,-298.97 423.22,-634.16 636.03,-1054.93 48.9,-96.47 97.57,-195.6 144.64,-291.45 143.53,-292.45 291.99,-594.88 472.34,-873.48 11.11,-17.15 22.46,-34.39 33.74,-51.22 470.19,-697.77 1164.76,-1140.93 1955.71,-1247.86 709.37,-95.91 1488.38,72.99 2381.56,516.29 72.27,35.89 146.99,74.59 222.03,114.98 510.59,274.39 997.04,609.59 1512.09,964.44 256.82,176.95 522.32,359.9 788.52,532.65 498,321.79 912.3,559.54 1303.7,748.2 460.8,222.07 893.7,376.95 1323.6,473.52 262,59.59 490.4,86.55 698.2,82.47 267.6,-5.28 503.4,-60.31 721,-168.28 420.8,-209.65 763.3,-583.44 1094.6,-944.91 92.9,-101.35 180.7,-197.1 269.4,-288.48 858.3,-883.49 1735.2,-1835.96 2680.9,-2911.83 l -2.5,-2.15"
           style="fill:#0e0e0e;fill-opacity:1;fill-rule:nonzero;stroke:none"
           id="path6488" /></g><g
         id="g6490"
         transform="scale(3.06748)"><path
           d="m 18697.9,1448.09 c -936.5,1087.44 -1797.7,2050.84 -2632.7,2945.25 -87.5,93.79 -174.2,192.86 -265.9,297.77 -322.3,368.51 -655.6,749.6 -1072.9,954.72 -510.8,250.08 -1054.8,135.06 -1419.7,26.83 -901,-265.07 -1704.6,-769.78 -2586.9,-1353.42 -159.2,-105.62 -320.1,-214.7 -475.8,-320.16 C 9645.4,3593.4 9026.35,3173.9 8393.56,2870.46 c -76.88,-36.9 -153.78,-72.14 -228.6,-104.74 -421.84,-183.57 -829.73,-309.6 -1212.36,-374.57 -433.41,-73.62 -845.51,-70.71 -1224.81,8.57 -381.06,79.67 -738.65,235.73 -1062.86,463.83 -328.12,230.88 -617.15,532.2 -859.04,895.59 -11.18,16.92 -22.46,34.16 -33.48,51.34 -175.03,272.21 -324.44,564.86 -468.92,847.9 -52.06,101.97 -105.89,207.4 -159.97,309.99 -221.03,420.18 -427.25,752.34 -648.99,1045.39 -29.13,38.46 -59.24,77.13 -89.5,114.88 -550.47,686.64 -1272.45,1241.04 -2087.887,1603.26 -975.748,431.98 -1974.723,568.67 -2812.913,384.88 -875.04,-193.95 -1750.51,-918.35 -1649.39,-1878.8 l -3.26,-0.36 c -24.28,230.74 7.4,457.56 94.19,674.19 79.77,199.19 204.5,386.62 370.69,557.1 306.64,314.51 739.3,551.81 1187.06,651.06 441.65,96.83 924.09,105.96 1433.94,27.13 458.726,-70.92 923.366,-209.62 1381.005,-412.22 815.915,-362.43 1538.315,-917.15 2089.115,-1604.22 30.27,-37.75 60.4,-76.45 89.54,-114.95 221.85,-293.17 428.17,-625.46 649.28,-1045.81 54.09,-102.62 107.92,-208.05 159.99,-310.02 144.45,-282.97 293.82,-575.56 468.76,-847.64 11.01,-17.14 22.26,-34.39 33.48,-51.27 483.91,-727.05 1147.78,-1196.65 1919.81,-1358.06 714.85,-149.43 1534.16,-26.37 2435.22,365.81 74.78,32.6 151.66,67.81 228.49,104.68 632.57,303.34 1251.52,722.77 1850.05,1128.35 155.7,105.49 316.6,214.57 475.8,320.23 386.2,255.45 835.6,548.53 1281.6,793.16 466.5,255.94 893.8,439.31 1306.2,560.65 259.6,77.03 488,117 698.1,122.15 264.9,6.52 508.4,-43.68 723.9,-149.17 187,-91.9 375.1,-229.05 575.3,-419.34 176.7,-167.99 340.3,-355.18 498.7,-536.17 91.7,-104.87 178.3,-203.95 265.8,-297.7 835,-894.42 1696.2,-1857.88 2632.7,-2945.35 l -2.4,-2.12"
           style="display:inline;fill:#0e0e0e;fill-opacity:1;fill-rule:nonzero;stroke:none"
           id="path6492" /></g><g
         id="g6494"
         transform="scale(3.06748)"><path
           d="m 18663.3,1478.8 c -927.3,1099.21 -1772.7,2073.59 -2584.5,2978.83 -85.9,95.84 -171.1,197.91 -261.2,305.95 -313.9,376.17 -638.5,765.15 -1053.5,966.26 -387.8,187.35 -853,176.92 -1422.2,-31.85 -795.8,-290.3 -1507.2,-775.91 -2260.4,-1290.01 -93.8,-64.03 -190.7,-130.21 -287.2,-195.57 -37.8,-25.66 -75.6,-51.35 -113.4,-77.07 -717.65,-487.99 -1459.73,-992.6 -2238.22,-1323.23 -78.69,-33.45 -157.78,-65.23 -235.08,-94.44 -431.1,-162.77 -850.5,-266.38 -1246.52,-307.91 -443.46,-46.49 -862.14,-15.39 -1244.38,92.49 -375.09,105.81 -728.28,288.05 -1049.75,541.65 -311.59,245.73 -592.86,557.94 -836.03,927.89 -11.08,16.92 -22.26,34.23 -33.25,51.41 -168.34,263.7 -317.29,544.55 -461.32,816.14 -58.36,109.99 -118.66,223.73 -179.28,334.44 -229.55,419.89 -439.99,749.18 -662.24,1036.26 -29.53,38.14 -60.03,76.45 -90.66,113.81 -557.35,680.04 -1284.66,1226.17 -2103.303,1579.34 -982.09,422.51 -1983.797,547.99 -2820.607,353.32 -858.99,-201.49 -1733.19,-931.81 -1661.37,-1888.43 l -3.26,-0.22 c -17.31,230.74 19.04,457.31 108.03,673.41 82.12,199.43 207.57,387.06 372.88,557.68 305.3,315.18 736.49,556.01 1182.98,660.74 441.13,102.62 924.09,117.54 1435.45,44.35 459.837,-65.83 926.556,-199.68 1387.186,-397.85 819.124,-353.38 1546.854,-899.83 2104.524,-1580.26 30.66,-37.42 61.19,-75.73 90.73,-113.9 222.36,-287.21 432.88,-616.63 662.52,-1036.68 60.63,-110.71 120.97,-224.49 179.29,-334.48 143.99,-271.56 292.91,-552.34 461.22,-815.91 10.96,-17.18 22.14,-34.46 33.22,-51.38 494.45,-752.28 1145.89,-1259.96 1883.92,-1468.21 728.61,-205.57 1565.98,-133.13 2488.88,215.36 77.23,29.18 156.29,60.93 234.95,94.38 778.2,330.5 1520.11,835.02 2237.59,1322.94 37.9,25.69 75.6,51.41 113.4,77.07 96.5,65.36 193.5,131.54 287.3,195.56 753.4,514.24 1464.9,999.94 2261.1,1290.38 257.2,94.31 485.5,147.25 697.9,161.79 266,18.22 510.5,-25.53 726.9,-130.07 185.8,-90.08 371.6,-227.85 568,-421.2 173.3,-170.59 332.5,-361.4 486.5,-545.92 90.1,-108.03 175.3,-210.04 261.2,-305.85 811.8,-905.27 1657.2,-1879.68 2584.5,-2978.92 l -2.5,-2.09"
           style="fill:#0e0e0e;fill-opacity:1;fill-rule:nonzero;stroke:none"
           id="path6496" /></g><g
         id="g6498"
         transform="scale(3.06748)"><path
           d="m 18628.7,1509.51 c -846.3,1024.29 -1699.6,2037.79 -2536.3,3012.4 -85.1,98.65 -169.5,204.6 -258.9,316.81 -290.6,364.93 -620.1,778.52 -1031.6,975.13 -392.3,187.03 -858.4,157.39 -1424.7,-90.53 -673.5,-293.85 -1269.4,-725.94 -1900.4,-1183.38 -197.6,-143.27 -401.9,-291.41 -608,-434.33 C 10509,3855.6 10119.9,3591.05 9711.96,3350.07 9275.12,3092.05 8876,2896.97 8491.78,2753.76 c -80.69,-30.13 -161.96,-58.42 -241.53,-84.15 -440.2,-142.23 -871.04,-223.18 -1280.47,-240.58 -453.24,-19.24 -878.53,39.87 -1264.13,175.71 -712.05,254.02 -1334.38,785.5 -1849.69,1579.7 -10.99,16.98 -22.07,34.29 -32.99,51.51 -159.84,252.03 -306.15,517.98 -447.63,775.16 -66.6,121.04 -135.46,246.23 -204.72,368.05 -238.31,419.79 -452.95,746.18 -675.48,1027.2 -29.95,37.78 -60.85,75.73 -91.85,112.73 -564.21,673.42 -1296.84,1211.27 -2118.698,1555.39 -988.426,413.03 -1992.872,527.3 -2828.302,321.77 -864.2,-213.83 -1716.49,-934.45 -1673.36,-1898.03 l -3.26,-0.16 c -10.34,230.81 30.68,457.13 121.89,672.67 84.5,199.68 210.66,387.51 375.03,558.27 154.88,160.89 338.39,301.56 545.51,418.12 201.07,113.17 414.18,198.05 633.41,252.29 440.64,108.41 924.1,129.12 1436.96,61.56 460.957,-60.73 929.757,-189.75 1393.382,-383.49 C 1108.18,7733.16 1841.25,7195 2405.8,6521.17 c 31.01,-37.03 61.93,-74.98 91.89,-112.79 222.64,-281.14 437.37,-607.67 675.77,-1027.59 69.26,-121.86 138.15,-247.04 204.75,-368.12 141.45,-257.14 287.76,-523.03 447.53,-775 10.89,-17.18 21.97,-34.49 32.96,-51.44 514.92,-793.58 1136.66,-1324.63 1848.06,-1578.43 732.75,-258.19 1611.94,-235.73 2542.51,64.91 79.51,25.72 160.72,54.02 241.4,84.08 858.95,320.23 1644.83,843.23 2376.23,1351.5 206.1,142.91 410.4,291.05 608,434.29 631.1,457.54 1227.2,889.72 1901,1183.71 567.3,248.35 1034.2,277.98 1427.4,90.53 184.3,-88.09 367.3,-226.08 559.5,-421.94 169.4,-172.69 323.9,-366.59 473.2,-554.14 89.4,-112.14 173.8,-218.12 258.9,-316.71 836.6,-974.61 1690,-1988.14 2536.4,-3012.47 l -2.6,-2.05"
           style="fill:#0e0e0e;fill-opacity:1;fill-rule:nonzero;stroke:none"
           id="path6500" /></g><g
         id="g6502"
         transform="scale(3.06748)"><path
           d="M 18594.2,1540.22 C 17760.7,2570.18 16923.6,3595 16106,4586.17 c -82.5,99.72 -164.3,207.56 -251,321.73 -283.5,373.43 -604.8,796.71 -1015.3,989.99 -397.1,186.7 -863.9,137.87 -1427.3,-149.24 -590.3,-300.37 -1132.6,-724.53 -1657.1,-1134.71 -263,-205.67 -534.9,-418.35 -812,-615.16 -437.4,-310.94 -805.4,-548.13 -1158.15,-746.51 -434.98,-244.56 -841.96,-426.73 -1244.24,-556.9 -82.58,-26.7 -166.03,-51.54 -247.99,-73.81 -427.19,-115.99 -846.72,-174.67 -1248.03,-174.67 -22.26,0 -44.46,0.2 -66.63,0.56 -463.96,7.56 -895.85,94.99 -1283.66,259.82 -187.19,80 -370.5,181.55 -544.81,301.84 -163.82,113.09 -324.83,246.23 -478.54,395.8 -276.57,269.08 -535.06,593.64 -790.25,992.18 -10.96,17.15 -21.88,34.33 -32.73,51.57 -148.07,235.15 -288.15,480.95 -423.61,718.67 -78.21,137.21 -159.05,279.12 -240.48,417.25 -250.72,425.56 -463.13,739.53 -688.74,1018.07 -30.33,37.45 -61.63,75.01 -93.01,111.66 -571.08,666.82 -1309.05,1196.39 -2134.113,1531.46 -994.752,403.54 -2001.927,506.6 -2835.987,290.21 -848,-220.64 -1699.18,-946.75 -1685.33,-1907.64 l -3.26,-0.05 c -6.45,447.58 170.93,873.17 512.93,1230.76 154.56,161.61 337.15,303.32 542.65,421.18 199.96,114.67 412.65,201.78 632.19,258.9 440.14,114.2 924.12,140.7 1438.47,78.77 462.065,-55.63 932.948,-179.82 1399.563,-369.11 825.547,-335.27 1563.937,-865.15 2135.367,-1532.36 31.4,-36.67 62.71,-74.26 93.06,-111.73 225.72,-278.67 438.21,-592.77 689.02,-1018.46 81.42,-138.16 162.3,-280.07 240.51,-417.31 135.42,-237.66 275.47,-483.43 423.51,-718.54 10.85,-17.21 21.77,-34.43 32.73,-51.54 542.26,-846.88 1135.03,-1399.23 1812.13,-1688.58 937.87,-398.64 1929.47,-266.57 2596.17,-85.58 81.96,22.27 165.35,47.08 247.86,73.81 925.18,299.33 1769.4,853.53 2401.5,1302.95 277,196.75 549,409.4 811.9,615.07 524.6,410.27 1067,834.53 1657.6,1135.03 252.1,128.48 480.3,207.34 697.5,241.15 267.9,41.66 514.4,10.75 732.6,-91.87 183.9,-86.55 365.1,-225.69 554.2,-425.33 166.5,-175.88 316.9,-374.02 462.4,-565.61 86.6,-114.17 168.5,-221.98 250.9,-321.64 817.6,-991.17 1654.8,-2016.01 2488.2,-3045.98 l -2.5,-2.05"
           style="fill:#0e0e0e;fill-opacity:1;fill-rule:nonzero;stroke:none"
           id="path6504" /></g><g
         id="g6506"
         transform="scale(3.06748)"><path
           d="m 18559.6,1570.93 -2440,3079.53 c -79.6,100.57 -158.8,210 -242.6,325.83 -276.5,382.27 -589.9,815.56 -999.6,1005.61 -396.2,183.8 -877.2,113.84 -1429.8,-207.92 -531.2,-309.37 -1015.7,-720.75 -1484.2,-1118.57 -305.4,-259.33 -621.2,-527.47 -945.6,-763.46 C 10042.5,3182.64 9190.23,2763.7 8335.56,2573.48 7981,2494.59 7631.24,2454.91 7292.03,2454.91 c -102.78,0 -204.56,3.62 -305.3,10.92 -474.91,34.46 -913.38,150.16 -1303.15,343.96 -361.3,179.6 -691.77,433.19 -1010.3,775.23 -254.35,273.13 -498.16,598.73 -767.28,1024.72 -142,224.81 -279.58,458.39 -412.58,684.27 -301.03,511.17 -612.31,1039.78 -997.68,1504.94 C 1904.68,7512.41 1128.82,8071.94 252.043,8417.06 -749.018,8811.1 -1758.92,8902.95 -2591.64,8675.71 -3397.83,8455.7 -4272.85,7761.89 -4288.95,6758.46 l -3.26,0.05 c 7.2,448.51 190.09,874.03 528.93,1230.58 306.38,322.37 722.17,567.34 1170.78,689.76 439.66,119.98 924.14,152.27 1440,95.99 463.173,-50.55 936.134,-169.9 1405.737,-354.75 433.825,-170.76 845.873,-395.54 1224.683,-668.11 381.99,-274.84 725.27,-594.79 1020.33,-950.95 385.54,-465.38 696.88,-994.06 997.97,-1505.36 133.01,-225.85 270.55,-459.43 412.55,-684.2 392.64,-621.52 949.38,-1387.69 1776.25,-1798.77 948.27,-471.43 1964.37,-388.56 2649.82,-236.03 854.25,190.09 1706.16,608.87 2681.06,1317.92 324.3,235.93 640.1,504.03 945.4,763.3 468.7,397.91 953.3,809.39 1484.7,1118.9 553.5,322.34 1035.5,392.37 1432.8,208.08 183.4,-85.12 363,-225.46 549,-429.11 163.8,-179.24 310.2,-381.72 451.8,-577.54 83.8,-115.83 162.9,-225.2 242.6,-325.74 l 2440,-3079.53 -2.6,-2.02"
           style="fill:#0e0e0e;fill-opacity:1;fill-rule:nonzero;stroke:none"
           id="path6508" /></g><g
         id="g6510"
         transform="scale(3.06748)"><path
           d="m 18540,1807.67 c -621.3,857.48 -1154.5,1553.23 -1677.7,2189.61 -253.9,309.18 -513.3,613.47 -771,904.46 -77.9,87.98 -155.1,181.64 -236.8,280.78 -205.4,249.16 -417.8,506.8 -662.2,698 -131.2,102.85 -257.6,176.5 -386.2,225.13 -394.9,150.78 -858.2,51.09 -1377,-296.33 -268.5,-179.5 -513,-383.8 -716.8,-559.97 -215.7,-186.5 -428.5,-392.18 -634.3,-591.07 -295.8,-285.9 -601.6,-581.52 -930.4,-835.44 -200.1,-154.92 -402.9,-293.4 -602.8,-411.54 -400,-236.35 -829.35,-431.11 -1276.13,-578.82 -276.02,-90.27 -553.39,-158.5 -824.32,-202.8 -233.52,-37.98 -467.49,-59.92 -695.36,-65.2 -341.13,-7.89 -673.45,22.2 -987.78,89.52 -334.22,71.59 -650.47,185.88 -940.06,339.69 -258.19,137.12 -502.07,309.83 -745.56,527.96 -453.72,406.13 -815.62,875.73 -1080.2,1239.48 -130.01,179.53 -256.89,362.61 -379.63,539.66 -353.41,509.9 -687.24,991.5 -1104.99,1420.47 -340.62,347.54 -729.35,647.49 -1155.38,891.53 -327.41,187.55 -683.498,340.93 -1058.375,455.9 -89.3,27.36 -180.262,52.83 -270.3607,75.69 -387.8233,98.23 -824.3953,162.2 -1297.5843,190.13 -477.08,28.83 -889.8,3.88 -1261.76,-76.3 -210.26,-44.98 -414,-115.55 -605.57,-209.74 -676.36,-332.52 -1110.69,-890.74 -1161.84,-1493.25 l -4.08,0.34 c 13.66,160.61 53.63,318.84 118.86,470.3 61.97,143.86 147.09,282.6 252.98,412.38 200.1,245.16 474.03,457.44 792.28,613.89 191.87,94.33 395.93,165.01 606.51,210.06 372.32,80.27 785.41,105.25 1262.86,76.39 473.444,-27.95 910.272,-91.96 1298.3465,-190.25 90.1615,-22.88 181.1915,-48.36 270.5525,-75.75 375.167,-115.05 731.541,-268.55 1059.211,-456.25 426.35,-244.22 815.38,-544.41 1156.27,-892.22 417.98,-429.25 751.89,-910.98 1105.43,-1421 122.71,-177.05 249.59,-360.1 379.56,-539.6 264.46,-363.55 626.18,-832.93 1079.62,-1238.83 243.26,-217.9 486.85,-390.42 744.78,-527.4 566.68,-301 1214.61,-445.25 1925.81,-428.73 227.71,5.25 461.45,27.19 694.77,65.17 270.78,44.24 547.91,112.41 823.74,202.61 446.49,147.65 875.6,342.27 1275.3,578.49 199.8,118.04 402.5,256.43 602.4,411.25 328.6,253.76 634.4,549.31 930.1,835.11 205.8,198.96 418.6,404.66 634.4,591.23 203.9,176.27 448.5,380.67 717.2,560.3 231,154.69 454.7,261.55 664.8,317.69 258.2,68.91 499.1,61.87 715.9,-20.93 129.1,-48.8 255.8,-122.64 387.3,-225.76 244.8,-191.46 457.3,-449.26 662.8,-698.58 81.7,-99.14 158.9,-192.73 236.8,-280.69 257.6,-291.02 517.1,-595.37 771.1,-904.55 523.2,-636.45 1056.4,-1332.3 1677.8,-2189.81 l -3.3,-2.41"
           style="fill:#0e0e0e;fill-opacity:1;fill-rule:nonzero;stroke:none"
           id="path6512" /></g><g
         id="g6514"
         transform="scale(3.06748)"><path
           d="m 18520.3,2044.48 c -576.1,871.95 -1116.7,1601.6 -1652.9,2230.62 -261.5,307.22 -532.1,602.58 -804.3,877.85 -72.3,73.03 -143.6,148.92 -219.1,229.25 -226.1,240.55 -459.9,489.29 -721.8,661.38 -132.2,87.27 -258.9,148.04 -387.4,185.79 -491.9,144.65 -991.6,-129.32 -1324.2,-384.65 -235.7,-180.34 -450.9,-384.25 -668.9,-594.75 -190.8,-184.26 -370.3,-382.46 -560.4,-592.28 -282.1,-311.46 -573.8,-633.51 -903.9,-903.93 -195.9,-161.34 -400.3,-300.83 -607.6,-414.61 -386.2,-211.96 -809.02,-376.56 -1292.74,-503.24 -270.71,-70.88 -547.94,-121.34 -823.99,-150.03 -232.93,-23.89 -465.43,-32.4 -691.12,-25.3 -335.69,10.5 -663.87,57.71 -975.4,140.28 -327.14,86.75 -639.31,213.5 -927.82,376.73 -252.78,142.98 -496.8,320.39 -746.09,542.33 -452.71,402.51 -840.56,848.77 -1127.86,1192.57 -106.34,127.24 -210.99,255.33 -312.21,379.18 -403.1,493.33 -783.84,959.28 -1246.68,1351.85 -345.93,293.4 -734.28,541.47 -1154.25,737.33 -317.75,148.19 -654.528,259.22 -1029.565,339.45 -86.569,18.48 -174.61,35.14 -261.6752,49.52 -382.4668,62.81 -790.6388,86.59 -1284.4998,111.15 -356,18.63 -822.03,30.88 -1269.7,-40.26 -212.02,-33.07 -416.99,-90.45 -609.22,-170.57 -676.84,-282.07 -1136.01,-774.88 -1228.23,-1318.26 l -4.83,0.82 c 24.45,144.09 73.97,285.43 147.19,420.08 69.77,128.3 161.44,251.36 272.44,365.77 210.96,217.38 491.58,402.76 811.55,536.11 192.59,80.26 397.94,137.75 610.34,170.88 448.12,71.21 914.48,58.95 1270.71,40.32 494.012,-24.57 902.322,-48.36 1285.0444,-111.21 87.1416,-14.4 175.2606,-31.07 261.9016,-49.56 375.404,-80.31 712.524,-191.46 1030.614,-339.81 420.37,-196.04 809.08,-444.35 1155.34,-738.04 463.18,-392.83 844.07,-858.98 1247.3,-1352.48 101.22,-123.85 205.87,-251.9 312.18,-379.14 287.21,-343.67 674.88,-789.73 1127.37,-1192.05 249,-221.71 492.78,-398.89 745.24,-541.71 567.24,-320.95 1206.82,-494.67 1900.97,-516.39 225.46,-7.1 457.74,1.41 690.44,25.3 275.82,28.62 552.79,79.06 823.28,149.86 483.32,126.59 905.77,291.06 1291.57,502.79 207.1,113.65 411.3,252.98 606.9,414.12 329.8,270.19 621.4,592.12 903.4,903.41 190.1,209.91 369.7,408.15 560.6,592.54 218.1,210.6 433.4,414.61 669.3,595.11 215.6,165.51 428.3,284.6 632.2,353.97 247.2,84.11 481.5,94.71 696.4,31.5 128.9,-37.89 256.1,-98.88 388.7,-186.38 262.4,-172.45 496.4,-421.39 722.7,-662.14 75.4,-80.32 146.7,-156.18 219,-229.14 272.3,-275.37 543,-570.83 804.6,-878.15 536.2,-629.18 1077,-1358.96 1653.2,-2231.11 l -4.1,-2.67"
           style="fill:#0e0e0e;fill-opacity:1;fill-rule:nonzero;stroke:none"
           id="path6516" /></g><g
         id="g6518"
         transform="scale(3.06748)"><path
           d="m 18500.6,2281.28 c -539.1,898.3 -1071.7,1641.35 -1628.1,2271.6 -269,305.37 -550.9,591.76 -837.7,851.29 -61.3,55.45 -124.4,114.33 -185.4,171.28 -252,235.17 -512.6,478.34 -797.2,631.2 -133.5,72.24 -260.6,120.13 -388.5,146.47 -490.9,101.03 -962.4,-201.43 -1271.6,-472.93 -209.5,-183.27 -401,-391.03 -586.2,-591.95 l -34.7,-37.62 c -168.2,-182.23 -326,-382.17 -493,-593.84 -266,-337.02 -541,-685.54 -870.9,-972.1 -192,-167.95 -398.1,-308.49 -612.5,-417.7 -373.9,-190.42 -790,-326.3 -1309.41,-427.62 -268.59,-52.39 -545.69,-85.12 -823.67,-97.24 -232.3,-9.75 -463.41,-4.86 -686.81,14.57 -676.45,58.65 -1308.5,262.13 -1878.64,604.83 -246.46,148.1 -490.67,330.2 -746.54,556.71 -433.03,382.49 -818.17,775.65 -1175.5,1145.56 -47.92,49.62 -95.32,98.84 -142.36,147.71 -488.05,506.93 -949.03,985.7 -1490.78,1354.22 -353.67,240.58 -741.63,436.78 -1153.1,583.16 -302.08,107.46 -629.427,180.42 -1000.758,223.04 -83.687,9.55 -168.807,17.39 -252.993,23.34 -211.8308,14.67 -436.523,17.05 -674.408,19.56 -191.066,2.03 -388.641,4.12 -597.091,12.61 -402.63,17.82 -858.97,38.02 -1277.7,-4.23 -216.03,-21.79 -422.23,-66.01 -612.88,-131.4 -676.56,-232.11 -1160.54,-659.53 -1294.63,-1143.37 l -5.51,1.53 c 35.37,127.56 94.41,252 175.55,369.85 77.59,112.7 175.78,220.08 291.84,319.14 221.97,189.46 509.31,347.92 830.9,458.24 191.06,65.54 397.7,109.85 614.16,131.69 419.14,42.29 875.7,22.08 1278.51,4.26 208.357,-8.49 405.887,-10.59 596.913,-12.61 237.967,-2.52 462.7393,-4.9 674.742,-19.58 84.271,-5.95 169.477,-13.81 253.246,-23.36 371.768,-42.67 699.529,-115.73 1002.019,-223.34 411.93,-146.54 800.33,-342.96 1154.4,-583.81 542.24,-368.84 1003.43,-847.84 1491.68,-1354.96 47.04,-48.87 94.44,-98.13 142.36,-147.71 357.27,-369.85 742.27,-762.91 1175.17,-1145.27 255.61,-226.28 499.53,-408.16 745.69,-556.09 569.39,-342.24 1200.63,-545.47 1876.19,-604.02 223.18,-19.43 454.03,-24.35 686.1,-14.6 277.66,12.16 554.5,44.82 822.8,97.15 518.91,101.22 934.51,236.93 1307.91,427.12 214,108.98 419.7,249.26 611.3,416.92 329.5,286.2 604.4,634.5 870.2,971.35 167.1,211.74 325,411.74 493.3,594.17 l 34.7,37.62 c 185.3,201.01 376.9,408.87 586.7,592.34 310.1,272.38 783.3,575.72 1276.4,474.24 128.5,-26.44 256.1,-74.53 390.1,-147.03 285.2,-153.22 546.1,-396.64 798.4,-632.05 61,-56.92 124.1,-115.79 185.4,-171.25 286.9,-259.62 568.9,-546.21 838.1,-851.7 556.6,-630.52 1089.4,-1373.87 1628.7,-2272.45 l -4.9,-2.94"
           style="fill:#0e0e0e;fill-opacity:1;fill-rule:nonzero;stroke:none"
           id="path6520" /></g><g
         id="g6522"
         transform="scale(3.06748)"><path
           d="m 18480.9,2518.12 c -494.9,911.89 -1034.4,1689.92 -1603.3,2312.52 -276.6,303.44 -569.6,580.93 -870.9,824.71 -43.6,35.18 -88.2,71.72 -131.3,107.09 -284.8,233.45 -579.3,474.85 -893,607.21 -134.7,57.41 -262.2,92.45 -389.8,107.19 -489.5,56.47 -933,-274 -1218.9,-561.18 -177.5,-177.41 -337.7,-374.7 -492.6,-565.51 -26.9,-33.02 -53.6,-65.98 -80.4,-98.81 -147.4,-180.34 -285.2,-381.78 -431.1,-595.08 -248,-362.58 -504.5,-737.48 -832.5,-1040.63 -192.6,-178.02 -394.5,-315.69 -617.3,-420.83 -466.2,-219.95 -931.97,-301.39 -1326.14,-352.02 -266.6,-34.23 -543.61,-49.22 -823.31,-44.46 -231.63,4.4 -461.26,22.75 -682.55,54.51 -656.17,93.92 -1279.94,326.94 -1853.99,692.62 -238.83,152.11 -483.2,338.91 -747,571.05 -266.51,233.94 -514.89,459.04 -755.05,676.74 -163.26,147.98 -317.43,287.73 -468.01,421.82 -569.19,506.86 -1090.56,952.5 -1707.32,1272.83 -361.27,187.62 -748.86,331.96 -1151.98,429.02 -288.94,69.55 -597.782,103.45 -971.946,106.65 -80.721,0.6 -162.925,-0.35 -244.323,-2.84 -123.6585,-4 -251.5638,-12.39 -386.975,-21.28 -259.836,-17.05 -554.351,-36.38 -871.636,-25.54 -120.81,4.12 -244.08,9.98 -363.3,15.64 -306.63,14.58 -623.7,29.65 -922.42,16.16 -219.38,-9.89 -426.82,-40.93 -616.56,-92.26 -675.43,-182.71 -1184.25,-544.8 -1361.04,-968.6 l -6.03,2.51 c 46.29,110.97 114.88,218.52 203.88,319.58 85.45,97.08 190.13,188.78 311.17,272.55 233.19,161.36 527.21,292.85 850.31,380.25 190.2,51.45 398.12,82.57 617.97,92.49 299.03,13.49 616.25,-1.58 923.03,-16.16 119.2,-5.66 242.45,-11.52 363.22,-15.65 316.96,-10.83 611.293,8.49 870.978,25.54 135.4686,8.88 263.4236,17.28 387.197,21.29 81.489,2.49 163.779,3.44 244.585,2.84 374.675,-3.21 683.98,-37.16 973.42,-106.84 403.63,-97.17 791.71,-241.7 1153.46,-429.58 278.59,-144.68 560.9,-327.96 863.07,-560.36 270.52,-208.02 533.7,-435.64 845.58,-713.35 150.58,-134.12 304.81,-273.88 468.04,-421.85 240.16,-217.7 488.51,-442.8 754.98,-676.71 263.57,-231.92 507.65,-418.52 746.22,-570.43 573.27,-365.19 1196.16,-597.89 1851.38,-691.68 221.03,-31.72 450.4,-50.04 681.77,-54.44 279.38,-4.76 556.05,10.2 822.33,44.43 393.68,50.56 858.89,131.87 1324.19,351.43 222.2,104.84 423.6,242.15 615.7,419.73 327.4,302.62 583.7,677.26 831.5,1039.51 146,213.4 283.9,414.97 431.4,595.54 26.8,32.79 53.6,65.79 80.4,98.78 155,190.94 315.4,388.36 493.1,566.03 186,186.83 376.8,330.56 567.1,427.16 225.5,114.46 446.6,160.16 657.2,135.88 128.2,-14.8 256.3,-50.01 391.5,-107.65 314.6,-132.75 609.5,-374.44 894.7,-608.22 43.1,-35.34 87.7,-71.88 131.1,-107.06 301.7,-243.97 594.9,-521.66 871.7,-825.36 302.1,-330.6 597.9,-707.26 879.3,-1119.52 248.7,-364.37 492.6,-766.2 725,-1194.27 l -5.8,-3.13"
           style="fill:#0e0e0e;fill-opacity:1;fill-rule:nonzero;stroke:none"
           id="path6524" /></g><g
         id="g6526"
         transform="scale(3.06748)"><path
           d="m 18461.3,2755.03 c -458.2,937.96 -989.3,1729.79 -1578.6,2353.39 -284.1,301.52 -588.3,570.01 -904.2,798.08 -15,10.86 -30.1,21.71 -45.1,32.6 -328.5,237.46 -668.1,483 -1020.8,593.57 -136.7,42.84 -264.6,65.06 -391,67.91 -487.5,11.01 -903.3,-347.05 -1166.3,-649.35 -154.7,-176.89 -292,-370.7 -424.8,-558.18 -32.9,-46.32 -66.8,-94.25 -100.3,-140.93 -127.7,-177.8 -246.4,-379.98 -372,-594 -228.6,-389.35 -465,-791.92 -791.2,-1111.53 -188.7,-184.91 -392.3,-323.59 -622.3,-424 -453.1,-197.75 -913.2,-249.68 -1342.84,-276.35 -264.94,-16.43 -541.81,-13.66 -822.92,8.31 -230.88,18.59 -459.08,50.34 -678.31,94.41 -633.81,127.14 -1249.3,389.7 -1829.29,780.42 -232.27,156.44 -469.79,342.46 -747.48,585.39 -527.7,460.48 -919.55,784.78 -1270.52,1051.52 -698.06,530.59 -1230.84,842.74 -1781.43,1043.75 -368.59,134.55 -755.8,227.05 -1150.87,274.89 -274.11,33.21 -564.981,30.21 -943.149,-9.7 -77.481,-8.28 -156.772,-18.04 -235.664,-29.01 -74.514,-10.53 -150.2326,-22.57 -230.3955,-35.33 -295.9835,-47.11 -631.4465,-100.51 -1015.4115,-90.53 -202.38,5.26 -409.09,19.63 -609,33.52 -227.18,15.8 -462.1,32.13 -684.81,34.34 -223.33,2.22 -432.04,-15.67 -620.26,-53.14 -673.21,-134 -1206.87,-430.83 -1427.51,-793.99 l -6.29,3.81 c 57.35,94.35 135.45,184.94 232.18,269.28 93.37,81.43 204.53,157.42 330.4,225.95 244.6,133.07 545.35,237.56 869.79,302.15 188.72,37.57 397.9,55.49 621.76,53.27 222.93,-2.21 457.96,-18.55 685.25,-34.35 199.83,-13.89 406.46,-28.25 608.68,-33.51 383.279,-9.94 718.402,43.38 1014.0678,90.44 80.196,12.77 155.9462,24.82 230.5302,35.36 78.977,10.98 158.347,20.75 235.906,29.03 378.747,39.98 670.136,42.96 944.806,9.69 395.63,-47.91 783.39,-140.54 1152.51,-275.29 551.31,-201.27 1084.66,-513.74 1783.34,-1044.77 351.1,-266.86 743.09,-591.26 1270.91,-1051.83 277.46,-242.74 514.73,-428.6 746.74,-584.85 579.2,-390.19 1193.78,-652.36 1826.64,-779.3 218.98,-44.01 446.88,-75.76 677.43,-94.31 280.78,-21.91 557.33,-24.71 821.91,-8.32 429,26.64 888.3,78.47 1340.4,275.8 229.2,100.02 432,238.21 620.1,422.49 325.5,318.93 561.6,721.09 789.9,1110 125.7,214.19 244.5,416.5 372.4,594.56 33.5,46.65 67.5,94.57 100.3,140.93 132.9,187.58 270.4,381.58 425.3,558.7 171.6,197.3 351.5,353.38 534.7,463.9 214.5,129.46 429,192.66 637.3,188 127.1,-2.88 255.7,-25.2 393,-68.24 353.9,-110.93 694,-356.83 1022.9,-594.61 15,-10.89 30.1,-21.78 45.1,-32.64 316.2,-228.33 620.8,-497.15 905.3,-798.99 589.8,-624.13 1121.3,-1416.54 1579.7,-2355.19 l -6.5,-3.22"
           style="fill:#0e0e0e;fill-opacity:1;fill-rule:nonzero;stroke:none"
           id="path6528" /></g><g
         id="g6530"
         transform="scale(3.06748)"><path
           d="m 9864.08,2849.57 c -18.29,0 -36.32,0.06 -54.05,0.13 -263.61,1.11 -540.35,21.64 -822.57,61.09 -230.02,32.76 -456.79,77.95 -674.04,134.34 -310.32,80.4 -621.81,195.93 -925.8,343.38 -293.57,142.36 -589.22,318.96 -878.77,524.83 -283.75,201.69 -548.72,426.44 -747.91,599.71 -466.05,404.3 -909.47,742.27 -1317.95,1004.47 -661.59,424.65 -1251.16,683.52 -1855.45,814.67 -364.58,79.12 -755.7,120.85 -1132.3,120.85 -5.83,0 -11.65,0 -17.48,-0.03 -323.53,-1.11 -630.665,-61.23 -914.373,-126.03 -73.827,-16.99 -150.209,-35.57 -227.015,-55.2 -42.092,-10.88 -84.226,-22.1 -128.835,-33.97 -314.549,-83.81 -671.099,-178.77 -1104.265,-170.98 -263.792,4.72 -533.232,32.08 -793.802,58.51 -168.23,17.09 -342.2,34.76 -508.15,45.38 -228.09,14.67 -438.03,9.95 -623.97,-13.98 -669.59,-86.2 -1228.16,-317.82 -1494.14,-619.53 l -6.1,5.41 c 136.4,154.72 341.61,288.74 609.95,398.24 256.23,104.61 563.73,182.04 889.25,223.96 186.46,24 396.91,28.72 625.53,14.05 166.11,-10.66 340.15,-28.33 508.46,-45.41 260.4,-26.44 529.67,-53.76 793.121,-58.48 432.042,-7.79 787.984,87.04 1102.018,170.69 44.623,11.9 86.772,23.11 128.906,34 76.877,19.66 153.324,38.24 227.222,55.23 284.171,64.9 591.843,125.15 916.173,126.26 382.6,1.33 780.73,-40.52 1151.53,-121.01 311.9,-67.68 614.24,-167.37 924.33,-304.68 298.61,-132.26 604.07,-299.47 933.79,-511.11 408.8,-262.39 852.56,-600.59 1318.9,-1005.15 199.02,-173.14 463.83,-397.75 747.26,-599.22 587.55,-417.74 1193.81,-709.44 1801.93,-866.97 216.92,-56.3 443.39,-101.45 673.09,-134.18 281.89,-39.38 558.28,-59.88 821.49,-60.99 411.84,-1.7 890.14,12.16 1356.54,200.13 236.1,95.13 440.4,234.23 624.4,425.23 323.3,335.46 537.7,766.04 744.9,1182.4 106.6,214.19 207.4,416.5 316.9,591.63 35.1,56.1 70.5,113.94 104.7,169.85 115.7,188.85 235.2,384.15 373,564.66 157.5,207.66 326.4,376.11 502.2,500.64 203.8,144.36 411.5,225.15 617.4,240.1 127.1,9.23 256.1,-0.2 394.4,-28.81 369.7,-76.49 736.2,-298.69 1110.3,-539.18 326.2,-209.69 650.9,-476.84 938.9,-772.62 319.9,-327.6 620.5,-711.92 893.4,-1142.27 243.1,-383.41 465.8,-805.45 661.9,-1254.42 l -7.5,-3.26 c -421,964.18 -943.8,1769.72 -1553.7,2394.24 -287.5,295.36 -611.7,562.12 -937.4,771.48 -373.5,240.04 -739.2,461.84 -1107.5,538.05 -137.6,28.46 -265.8,37.83 -392.2,28.66 -378.4,-27.47 -773.9,-289.41 -1113.7,-737.57 -137.5,-180.18 -257,-375.29 -372.6,-563.98 -34.2,-55.94 -69.6,-113.77 -104.7,-169.87 -109.3,-174.8 -210,-376.96 -316.5,-590.98 -101.7,-204.3 -206.8,-415.58 -327.5,-618.68 -136.8,-230.22 -273.8,-415.29 -418.8,-565.71 -184.9,-191.85 -390.1,-331.57 -627.2,-427.15 -209.2,-84.31 -434.1,-140.02 -687.4,-170.41 -214.6,-25.72 -430.1,-30.44 -618.22,-30.44"
           style="fill:#0e0e0e;fill-opacity:1;fill-rule:nonzero;stroke:none"
           id="path6532" /></g><g
         id="g6534"
         transform="scale(3.06748)"><path
           d="m 10386.8,2833.23 c -166.2,0 -325.9,9.91 -468.67,19.96 -262.69,18.41 -539.31,56.75 -822.21,113.87 -229.05,46.91 -454.38,105.52 -669.73,174.24 -589.7,187.91 -1171.91,500.61 -1779.86,956 -265.14,198.57 -515.05,412.23 -748.3,614.05 -460.45,397.2 -919.81,719.32 -1365.33,957.37 -655.26,350.09 -1268.33,536.2 -1929.39,585.69 -376.67,28.16 -773.88,16.69 -1148.7,-33.29 -313.72,-41.79 -609.533,-142.62 -885.636,-242.34 -69.092,-25.07 -142.566,-52.46 -218.371,-81.37 -18.927,-7.27 -38.057,-14.67 -57.393,-22.14 -318.0217,-122.97 -677.842,-262.1 -1139.669,-262.1 -7.797,0 -15.554,0.03 -23.41,0.13 -312.431,3.16 -631.441,47.76 -939.941,90.89 -122.32,17.11 -248.79,34.78 -370.19,49.09 -237.07,27.91 -442.4,36.12 -627.7,25.1 -674.08,-40.06 -1243.05,-202.31 -1560.96,-445.12 l -5.45,7.11 c 157.17,120.07 384.42,224.25 657.12,301.39 268.24,75.82 582.49,126.19 908.76,145.59 185.84,11.05 391.68,2.8 629.28,-25.17 121.49,-14.31 248.02,-32.01 370.38,-49.09 308.22,-43.1 626.93,-87.67 938.792,-90.83 471.431,-4.82 837.1194,136.6 1159.756,261.36 19.34,7.49 38.477,14.89 57.421,22.16 75.864,28.95 149.383,56.34 218.527,81.44 276.562,99.85 572.894,200.88 887.504,242.8 375.42,50.04 773.28,61.55 1150.54,33.32 327.6,-24.51 639.93,-82.41 954.87,-176.95 324.34,-97.38 644.28,-231.4 978.1,-409.78 446.1,-238.34 905.99,-560.82 1366.95,-958.48 233.13,-201.73 482.91,-415.26 747.81,-613.66 607.15,-454.77 1188.47,-767.04 1777.23,-954.62 215.03,-68.63 440.03,-127.18 668.79,-174.02 282.51,-57.05 558.73,-95.29 821.03,-113.71 441.35,-31.01 910.85,-46.91 1372.75,124.5 243,90.2 448.6,230.19 628.7,427.97 320.7,352.34 520.3,832.9 696.5,1256.86 88.6,213.33 172.3,414.84 264.6,586.6 33.4,61.98 66.9,126.04 99.3,188.01 101.5,193.77 206.4,394.2 330.6,581.35 143.6,218.03 301.7,398.87 469.7,537.46 193,159.2 394,257.49 597.5,292.15 127.2,21.66 256.7,25.15 395.8,10.65 388.7,-40.53 783.7,-240.76 1152.6,-451.11 340.6,-194.23 676.9,-452.29 972.5,-746.28 328.9,-326.06 631.8,-714.23 900.5,-1153.65 240.3,-392.96 452.4,-825.1 630.4,-1284.5 l -8.4,-3.23 c -378.4,976.5 -907.1,1818.53 -1528.8,2435.02 -295.1,293.44 -630.7,551.01 -970.7,744.85 -368,209.87 -761.9,409.63 -1149.1,449.98 -138.2,14.42 -266.9,10.95 -393.3,-10.57 -375.7,-63.99 -752.6,-357.23 -1061.3,-825.72 -123.9,-186.8 -228.7,-386.96 -330,-580.57 -32.5,-61.98 -66,-126.04 -99.4,-188.07 -92.1,-171.38 -175.7,-372.69 -264.3,-585.79 -176.4,-424.68 -376.3,-905.99 -698.1,-1259.47 -181,-198.86 -387.8,-339.63 -632.2,-430.35 -212.1,-78.7 -440.9,-124.24 -699.5,-139.24 -70.1,-4.07 -139.7,-5.74 -208.3,-5.74"
           style="fill:#0e0e0e;fill-opacity:1;fill-rule:nonzero;stroke:none"
           id="path6536" /></g><g
         id="g6538"
         transform="scale(3.06748)"><path
           d="m 10715,2797.93 c -2.4,0 -4.8,0 -7.1,0 -235,0.58 -465.6,29.34 -681.7,58.74 -262.27,35.67 -538.78,91.74 -821.85,166.69 -228,60.99 -451.87,133.04 -665.43,214.18 -566.13,214.7 -1123.82,546.38 -1755.12,1043.75 -227.35,179.08 -451.09,371.9 -667.45,558.34 -27.09,23.35 -54.15,46.69 -81.24,70 -462.86,397.13 -938.1,703.41 -1412.59,910.25 -649.75,283.3 -1305.05,400 -2003.34,356.81 -382.9,-23.7 -779.74,-88.48 -1147.62,-187.32 -290.26,-78.01 -548.928,-203.16 -856.929,-358.7 -62.443,-31.62 -129.09,-65.82 -209.735,-107.54 l -4.506,-2.35 C 244.783,5439.77 68.4167,5347.93 -129.385,5278.1 c -227.181,-80.19 -447.599,-118.79 -673.618,-118.37 -352.457,0.88 -712.107,66.51 -1059.917,129.95 -85.22,15.55 -173.35,31.62 -258.43,46.16 -244.02,41.63 -450.57,62.66 -631.46,64.22 -666.08,5.87 -1259.47,-92.81 -1627.98,-270.74 l -4.27,8.8 c 180.51,87.17 424,157.91 704.13,204.6 280.69,46.81 601.63,70.02 928.2,67.12 181.42,-1.56 388.48,-22.66 633.02,-64.38 85.14,-14.51 173.29,-30.62 258.55,-46.17 347.39,-63.37 706.6,-128.9 1058.18,-129.78 1.571,0 3.149,0 4.721,0 502.909,0 886.0663,199.55 1194.13,359.97 l 4.519,2.35 c 80.685,41.73 147.355,75.92 209.826,107.58 308.517,155.79 567.644,281.14 858.804,359.38 368.5,99.04 766.01,163.91 1149.55,187.65 341.71,21.12 664.02,5.02 985.42,-49.29 346.38,-58.52 680.79,-159.35 1022.41,-308.3 475.4,-207.24 951.49,-514.04 1415.07,-911.82 27.09,-23.31 54.18,-46.65 81.27,-69.96 216.27,-186.41 439.93,-379.14 667.12,-558.08 630.49,-496.76 1187.36,-827.94 1752.55,-1042.32 213.23,-81.01 436.8,-152.96 664.48,-213.89 282.64,-74.79 558.77,-130.79 820.61,-166.42 469,-63.8 928.2,-108.07 1388.8,48.93 250,85.18 457,226.08 633,430.68 317.9,369.55 491.5,881.7 644.7,1333.53 71.7,211.54 139.5,411.38 215.9,579.3 29.4,64.62 58.9,131.45 87.4,196.09 89.2,202.09 181.4,411.09 294.5,608.12 130.2,228.5 277.3,421.75 437.3,574.36 182.3,173.96 376.6,289.74 577.5,344.12 124.5,33.72 251.6,50.14 388.2,50.14 3,0 6,-0.01 9,-0.02 424.6,-2.21 861.6,-195.14 1194.9,-362.97 355.1,-178.79 703,-427.76 1006.2,-719.92 337.8,-324.57 643.2,-716.55 907.6,-1165.09 237.3,-402.48 438.8,-844.8 598.9,-1314.6 l -9.3,-3.16 c -238.2,699.07 -692.4,1696.05 -1504,2475.81 -302.5,291.51 -649.6,539.85 -1003.8,718.22 -332.3,167.36 -768,359.73 -1190.6,361.93 -139.1,0.8 -268.2,-15.56 -394.5,-49.78 -372.3,-100.76 -730.5,-425.32 -1008.9,-913.89 -112.8,-196.58 -204.9,-405.35 -294,-607.21 -28.6,-64.68 -58.1,-131.54 -87.5,-196.19 -76.2,-167.5 -143.9,-367.07 -215.5,-578.39 -153.5,-452.68 -327.5,-965.77 -646.6,-1336.79 -177.1,-205.97 -385.5,-347.78 -637.2,-433.55 -213.3,-72.73 -443.9,-108.1 -704.5,-108.1"
           style="fill:#0e0e0e;fill-opacity:1;fill-rule:nonzero;stroke:none"
           id="path6540" /></g><g
         id="g6542"
         transform="scale(3.06748)"><path
           d="m 10975.9,2752.03 c -50.6,0 -102.3,1.63 -155.3,4.89 -231.7,14.24 -456.9,56.98 -686.4,103.27 -266.08,53.66 -534.77,125.45 -821.42,219.47 -226.83,75.04 -449.26,160.52 -661.16,254.11 -537.48,237.07 -1071.14,586.05 -1730.35,1131.52 -163.71,135.45 -327.36,277.52 -485.64,414.93 -86.16,74.82 -175.22,152.14 -263.44,227.68 -468.33,399.81 -959.51,690.21 -1459.83,863.18 -661.09,228.59 -1340.57,270.45 -2077.25,127.96 C 2245.89,6023.8 1849.42,5905.75 1488.57,5757.68 1198.7,5638.76 946.173,5471.75 678.81,5294.93 l -18.491,-12.23 c -41.773,-27.71 -83.968,-55.81 -126.703,-84.24 -24.606,-16.4 -49.398,-32.89 -74.393,-49.52 C 303.326,5044.75 134.954,4936 -58.1426,4852.31 -282.319,4755.17 -504.09,4707.38 -736.133,4706.2 c -386.317,-1.86 -780.347,87.89 -1161.357,174.8 -54.39,12.39 -110.64,25.24 -165.25,37.4 -256,57.05 -457.85,89.91 -635.24,103.37 -654.67,49.78 -1272.5,14.7 -1695.13,-96.27 l -2.71,10.24 c 423.74,111.26 1042.85,146.47 1698.65,96.59 177.9,-13.53 380.23,-46.42 636.73,-103.6 54.64,-12.16 110.9,-25 165.3,-37.39 376.37,-85.84 765.4,-174.58 1146.608,-174.58 4.115,0 8.228,0.04 12.342,0.04 493.046,2.47 844.017,210.01 1189.535,440.98 25.005,16.62 49.794,33.12 74.401,49.48 42.741,28.46 84.935,56.56 126.724,84.27 l 18.495,12.23 c 267.809,177.12 520.755,344.42 811.585,463.73 361.49,148.3 758.65,266.57 1148.55,341.98 738.56,142.82 1419.83,100.83 2082.72,-128.35 501.58,-173.43 993.87,-464.51 1463.25,-865.17 88.25,-75.53 177.34,-152.89 263.51,-227.71 158.24,-137.38 321.82,-279.41 485.44,-414.8 658.42,-544.81 1191.34,-893.31 1727.9,-1129.98 211.57,-93.44 433.68,-178.81 660.15,-253.73 286.26,-93.89 554.56,-165.57 820.23,-219.17 403.2,-81.34 905.1,-182.56 1404.9,-26.63 256.9,80.16 465.4,221.94 637.2,433.35 314.8,387.32 460.8,932 589.6,1412.59 55.9,208.77 108.8,405.97 170.5,569.62 24,63.76 48,129.71 71.3,193.51 78.2,213.96 158.9,435.18 262.7,645.55 117,239.15 253.1,444.82 404.7,611.34 171.7,188.68 359.3,321.91 557.5,396.01 127.2,47.56 257.6,76.86 398.6,89.61 188.8,17.06 389.8,-1.16 614.4,-55.7 190.1,-46.15 393.8,-117.82 622.9,-219.1 369.5,-163.35 729.1,-403.19 1039.9,-693.56 346.8,-323.03 654.5,-718.86 914.7,-1176.5 234.3,-412.09 425.2,-864.55 567.3,-1344.78 l -10.1,-3 c -300.1,1013.86 -825.4,1907.59 -1479.1,2516.56 -310,289.55 -668.6,528.71 -1037,691.59 -493.6,218.24 -885.1,305.29 -1232.1,273.94 -140,-12.66 -269.4,-41.76 -395.8,-88.98 -471.5,-176.28 -780.4,-642.22 -956.4,-1002.09 -103.5,-209.88 -184.2,-430.85 -262.2,-644.54 -23.3,-63.8 -47.4,-129.78 -71.4,-193.61 -61.5,-163.16 -114.3,-360.1 -170.2,-568.64 -129,-481.57 -275.3,-1027.46 -591.5,-1416.5 -173.2,-213.11 -383.3,-355.96 -642.4,-436.78 -175.5,-54.77 -362.7,-81.79 -568.4,-81.79"
           style="fill:#0e0e0e;fill-opacity:1;fill-rule:nonzero;stroke:none"
           id="path6544" /></g><g
         id="g6546"
         transform="scale(3.06748)"><path
           d="m 11201.9,2699.41 c -344.7,0 -676.2,88.58 -959.7,164.34 -266.83,71.26 -535.39,160.32 -821.06,272.24 -225.56,89 -446.56,187.94 -656.83,294.05 -630.32,317.69 -1192.24,773.76 -1705.56,1219.27 -104.84,90.96 -210.7,184.72 -313.06,275.38 -142.17,125.9 -289.16,256.07 -436.45,381.48 -475.34,403.75 -982.37,678.34 -1506.97,816.14 -678.63,178.23 -1382.3,145.27 -2151.19,-100.8 -395.88,-126.68 -791.98,-297.99 -1145.47,-495.39 -272.63,-152.27 -503.3,-344.48 -747.503,-547.97 -17.297,-14.41 -34.654,-28.85 -52.083,-43.36 l -9.463,-7.89 c -59.369,-49.52 -120.76,-100.7 -183,-152.08 C 364.435,4651.21 200.243,4523.32 10.3034,4425.58 -210.163,4312.17 -432.452,4255.6 -669.261,4252.67 c -415.729,-5.18 -839.429,111.69 -1249.119,224.71 -28.72,7.92 -57.32,15.81 -85.78,23.6 -270.2,74.14 -467.28,118.08 -639.01,142.53 -638.25,90.83 -1280.6,119.38 -1762.36,78.34 l -0.95,11.34 c 482.55,41.15 1125.84,12.56 1764.91,-78.4 172.23,-24.51 369.75,-68.56 640.43,-142.79 28.46,-7.82 57.07,-15.71 85.79,-23.63 408.93,-112.8 831.81,-229.38 1245.948,-224.29 514.332,6.39 876.551,271.53 1175.69,519.55 62.231,51.37 123.609,102.56 182.968,152.04 l 9.466,7.89 c 17.431,14.51 34.784,28.95 52.079,43.36 244.627,203.85 475.689,396.38 749.249,549.15 354.14,197.78 750.96,369.39 1147.55,496.3 364.54,116.68 706.94,184.03 1046.73,205.9 379.04,24.42 752.77,-10.89 1110.85,-104.94 526.26,-138.19 1034.78,-413.59 1511.46,-818.45 147.39,-125.51 294.41,-255.72 436.61,-381.65 102.33,-90.66 208.19,-184.39 312.96,-275.31 512.77,-445.02 1074.04,-900.57 1703.22,-1217.71 209.98,-105.95 430.65,-204.72 655.88,-293.59 285.29,-111.76 553.42,-200.69 819.79,-271.85 409,-109.28 918.1,-245.29 1421,-102.17 263.9,75.07 473.7,217.7 641.5,436.02 311.5,405.51 428.1,983.74 530.9,1493.93 41.3,204.96 80.4,398.6 128.5,557.56 17.8,58.81 35.7,119.58 53,178.35 67.6,229.9 137.5,467.65 233.1,695.62 104.1,249.95 229.3,468.09 372.2,648.33 161.2,203.39 342.1,354.07 537.5,447.85 127,60.9 257.8,103.13 400,129.1 191.5,34.98 404.1,33.81 631.7,-3.48 199.4,-32.66 417.4,-94.26 648,-183.09 383.9,-147.91 755.1,-378.62 1073.6,-667.2 355.8,-321.5 665.9,-721.21 921.8,-1187.94 231.3,-421.72 411.5,-884.31 535.8,-1374.94 l -11.1,-2.8 c -263.3,1039.61 -779.8,1947.78 -1454.2,2557.24 -317.4,287.63 -687.5,517.58 -1070,664.99 -496,191.08 -912.6,251.93 -1273.6,185.99 -141.2,-25.78 -271,-67.7 -397,-128.16 -465.1,-223.14 -748.4,-716.07 -904.2,-1090.29 -95.4,-227.42 -165.2,-464.81 -232.7,-694.41 -17.3,-58.81 -35.2,-119.61 -53,-178.45 -48,-158.47 -86.9,-351.82 -128.2,-556.55 -49.5,-245.45 -105.6,-523.62 -187,-784.42 -93.2,-298.82 -206.5,-532.43 -346.1,-714.2 -80.7,-105.11 -173.5,-194.56 -275.8,-265.86 -110,-76.71 -235,-135.32 -371.6,-174.18 -156.3,-44.5 -313.2,-62.2 -467.3,-62.2"
           style="fill:#0e0e0e;fill-opacity:1;fill-rule:nonzero;stroke:none"
           id="path6548" /></g><g
         id="g6550"
         transform="scale(3.06748)"><path
           d="m 11405.7,2641.68 c -114,0 -233.4,11.08 -359.6,33.21 -248.4,43.62 -486.2,122.68 -696,192.44 -264.4,87.92 -540.53,197.3 -820.63,325.06 -224.13,102.79 -443.65,215.16 -652.52,333.92 -599.42,340.61 -1115.83,793.42 -1680.76,1307 -50.2,45.64 -101.19,92.22 -150.51,137.25 -194.1,177.31 -394.86,360.65 -599.36,533.89 -483.22,408.47 -1006.1,667.25 -1554.07,769.09 -691.28,128.48 -1439.94,17.61 -2225.2,-329.48 -402.95,-178.13 -798.68,-402.68 -1144.4,-649.43 -260.3,-185.79 -474.59,-404.83 -701.466,-636.74 -23.048,-23.57 -46.188,-47.21 -69.476,-70.94 C 693.764,4527.81 631.384,4464.34 567.896,4400.8 434.786,4267.08 272.578,4114.77 78.7685,3998.91 -138.186,3869.23 -360.989,3803.87 -602.383,3799.14 c -441.867,-8.7 -891.637,137.6 -1326.637,279.06 l -16.58,5.41 c -212.98,69.24 -438.27,139.17 -642.82,181.64 -623.44,129.46 -1273.18,219.34 -1829.5,253.08 l 0.75,12.19 c 556.87,-33.77 1207.23,-123.72 1831.24,-253.27 205.12,-42.61 430.8,-112.66 644.11,-182.04 l 16.58,-5.38 c 434.04,-141.15 882.9,-287.1 1322.616,-278.47 507.7975,9.98 858.51,293.34 1161.86,598.05 63.463,63.54 125.817,126.98 183.745,186.11 23.286,23.7 46.422,47.37 69.467,70.91 227.262,232.31 441.922,451.74 703.102,638.14 346.39,247.24 742.86,472.22 1146.56,650.67 368.42,162.84 730.93,275.04 1077.5,333.46 395.96,66.74 784.52,65.69 1154.86,-3.16 550.09,-102.23 1074.88,-361.89 1559.78,-771.74 204.66,-173.4 405.48,-356.84 599.67,-534.21 49.29,-45.03 100.28,-91.61 150.48,-137.22 564.41,-513.09 1080.27,-965.45 1678.61,-1305.43 208.54,-118.6 427.75,-230.78 651.55,-333.43 279.67,-127.6 555.34,-236.78 819.44,-324.57 413.9,-137.64 929,-308.92 1437,-177.7 270.9,69.99 482.1,213.46 645.7,438.66 308.1,424.29 397.2,1063.84 468.9,1577.71 27.9,200.13 54.2,389.18 90,543.09 11.2,48.5 22.6,98.48 33.5,146.83 57.1,251.15 116.1,510.87 204.7,762.02 136.7,390.83 396.3,913.69 857.1,1185.01 127.3,74.92 258.5,130.07 401.3,168.6 373.7,102.26 818.5,69.19 1322.1,-98.29 398.3,-132.46 781.2,-354.05 1107.3,-640.82 364.8,-319.99 677.4,-723.55 929.1,-1199.44 115.4,-218.26 217.4,-451.45 303.2,-692.98 82,-230.71 149.6,-470.29 201,-712.11 l -12,-2.55 c -226.5,1065.44 -734.1,1988.05 -1429.3,2597.9 -324.9,285.7 -706.4,506.45 -1103.2,638.39 -501.2,166.71 -943.7,199.72 -1314.9,98.1 -141.8,-38.25 -272.1,-92.98 -398.4,-167.34 -457.6,-269.44 -715.8,-789.6 -851.8,-1178.51 -88.3,-250.53 -147.2,-509.87 -204.2,-760.69 -11,-48.38 -22.4,-98.35 -33.6,-146.9 -35.6,-153.35 -61.9,-342.13 -89.8,-542 -36.1,-258.59 -76.9,-551.69 -146.7,-828.27 -80.3,-317.85 -186.4,-564.8 -324.4,-754.92 -78.8,-108.46 -170.9,-199.94 -273.8,-271.85 -110.9,-77.52 -238.3,-135.19 -378.7,-171.48 -123.2,-31.81 -252,-47.72 -388.4,-47.72"
           style="fill:#0e0e0e;fill-opacity:1;fill-rule:nonzero;stroke:none"
           id="path6552" /></g><g
         id="g6554"
         transform="scale(3.06748)"><path
           d="m 11593.4,2580.71 c -136.6,0 -280.6,17.74 -434.5,53.21 -249.3,57.47 -489.2,152.86 -700.9,237.03 -266.4,105.92 -542.38,233.06 -820.2,377.84 -222.66,116.51 -440.75,242.31 -648.22,373.85 -570.86,361.7 -1060.51,827.85 -1578.91,1321.38 -25.66,24.42 -51.32,48.87 -77.07,73.35 -241.05,229.24 -490.34,466.31 -750.16,685.35 -491.67,413.66 -1030.39,656.6 -1601.18,722.06 C 4265.25,6507.03 3491.69,6319.25 2682.99,5866.66 2278.51,5640.29 1872.47,5354.94 1539.67,5063.2 1288.39,4842.93 1086.86,4595.07 873.488,4332.64 848.239,4301.57 822.895,4270.4 797.367,4239.17 746.394,4176.68 685.712,4102.58 622.21,4026.79 504.606,3886.05 344.331,3707.24 147.237,3572.67 c -213.4812,-145.76 -436.8,-220.05 -682.721,-227.06 -202.127,-5.05 -425.167,26.14 -681.906,95.38 -220.43,59.47 -433.69,137.19 -669.65,225.24 -215.39,81.3 -442.71,165.35 -646.65,220.83 -604.11,164.34 -1242.21,308.3 -1896.59,427.84 l 2.35,12.85 c 654.74,-119.64 1293.21,-263.67 1897.66,-428.1 204.5,-55.65 432.15,-139.79 647.81,-221.23 395.52,-147.58 887.736,-331.31 1346.627,-319.8 524.6726,15.02 861.843,334.02 1148.042,676.54 63.459,75.73 124.104,149.8 175.058,212.26 25.526,31.23 50.862,62.4 76.105,93.43 213.728,262.86 415.598,511.14 667.698,732.13 333.46,292.36 740.3,578.23 1145.55,805.06 811.12,453.96 1587.36,642.26 2307.11,559.71 275.99,-31.65 547.02,-105.17 805.64,-218.48 277.46,-121.57 547.45,-292 802.45,-506.58 260.15,-219.3 509.57,-456.49 750.78,-685.9 25.72,-24.45 51.41,-48.9 77.06,-73.32 517.92,-493.07 1007.11,-958.8 1576.93,-1319.81 207.14,-131.34 424.91,-256.95 647.24,-373.33 277.43,-144.55 552.97,-271.5 818.97,-377.28 418.2,-166.26 938.6,-373.18 1453.2,-253.14 278.7,65 491.2,209.35 649.8,441.27 305.3,442.97 359.7,1119.65 403.4,1663.35 15.6,194.49 30.4,378.16 54.9,526.69 5.1,30.64 10.1,61.45 15.2,92.42 45.7,279.77 93,569.03 175.1,851.35 117.3,406.06 352.1,956.68 804.6,1273.81 126.2,88.47 257.9,156.54 402.7,208.11 201.1,72.34 425.4,106.36 666.3,101.14 220,-4.77 454.9,-42.16 698.1,-111.11 412.7,-117 807.3,-329.47 1141.1,-614.43 373.8,-318.45 688.8,-725.88 936.2,-1210.94 113.5,-222.56 211.8,-460.47 292.1,-707.19 77,-236.29 137.7,-481.24 180.6,-728.06 l -12.9,-2.25 c -186.6,1075.51 -698.6,2037.21 -1404.5,2638.52 -332.3,283.75 -725.2,495.31 -1136.2,611.8 -506.6,143.63 -975.6,147.17 -1356.4,10.25 -143.6,-51.18 -274.3,-118.73 -399.6,-206.52 -449.4,-314.95 -682.8,-862.71 -799.5,-1266.75 -82,-281.6 -129.2,-570.47 -174.8,-849.82 -5.1,-31 -10.1,-61.81 -15.2,-92.45 -24.4,-148.01 -39.2,-331.41 -54.8,-525.61 -43.8,-545.27 -98.4,-1223.87 -405.7,-1669.68 -76.4,-111.82 -167.8,-205.34 -271.6,-278.01 -111.7,-78.17 -241.5,-134.9 -386,-168.61 -104.2,-24.28 -212.3,-36.48 -325.5,-36.48"
           style="fill:#0e0e0e;fill-opacity:1;fill-rule:nonzero;stroke:none"
           id="path6556" /></g><g
         id="g6558"
         transform="scale(3.06748)"><path
           d="m 11769.9,2517.24 c -155.7,0 -320.6,25.14 -498.3,75.7 -251.4,71.49 -492.7,183.15 -705.7,281.63 -269.1,124.5 -544.9,269.37 -819.77,430.65 -221.06,130.07 -437.69,269.27 -643.92,413.76 -507.81,355.6 -941.81,791.23 -1401.31,1252.46 -75.11,75.37 -152.76,153.35 -229.86,229.96 -270.91,269.27 -502.24,491.31 -750.55,699.59 -500.38,419.14 -1054.94,646.26 -1648.19,675.08 -745.53,36.21 -1544.03,-228.49 -2373.39,-786.77 -412.01,-277.36 -817.67,-617.37 -1142.26,-957.49 -244.54,-256.2 -435.7,-535.1 -638.086,-830.36 -25.076,-36.57 -50.23,-73.25 -75.567,-110.02 C 797.866,3825.87 738.156,3739.48 676.498,3652.83 417.055,3287.45 78.119,2911.31 -468.6,2892.04 c -17.042,-0.52 -34.163,-0.81 -51.236,-0.81 -426.933,0 -862.794,168.97 -1308.684,357.65 l -27.83,11.87 c -220.88,94.28 -429.51,183.31 -622.63,248.12 -727.81,244.24 -1431.68,450.4 -1963.55,602.71 l 3.81,13.33 c 532.03,-152.37 1236.08,-358.6 1964.15,-602.9 193.64,-64.98 402.52,-154.14 623.66,-248.51 l 27.81,-11.87 c 462.22,-195.57 913.638,-370.01 1354.038,-355.73 540.661,19.04 876.781,392.34 1134.269,754.98 61.604,86.56 121.274,172.88 166.377,238.41 25.336,36.74 50.48,73.44 75.55,110.02 202.706,295.72 394.176,575.07 639.496,832.08 325.26,340.77 731.73,681.51 1144.55,959.39 383.15,257.93 766.44,456.01 1139.16,588.69 427.68,152.28 845.77,219.71 1242.61,200.44 596.35,-28.96 1153.68,-257.16 1656.44,-678.29 248.71,-208.61 480.26,-430.87 751.43,-700.38 77.1,-76.67 154.79,-154.62 229.9,-230.02 459.04,-460.77 892.62,-895.98 1399.45,-1250.9 205.9,-144.26 422.23,-283.26 642.97,-413.17 274.46,-161.05 549.96,-305.69 818.66,-430 421.7,-195.11 946.7,-437.91 1469.1,-328.6 285.6,59.75 499.5,204.95 654,443.91 301.4,463.15 319.6,1177.9 334.2,1752.22 4.7,187.38 9.2,364.4 23.6,506.99 l 0.3,3.26 c 32.3,319.39 65.7,649.62 142.1,975.46 66.2,284.21 158.4,539.75 274.1,759.51 130.4,247.79 291.2,450.7 477.9,603.1 124.9,101.98 257.1,182.98 404,247.63 396.9,175.69 883.4,202.8 1406.8,78.37 210.6,-50.07 418.4,-125.92 617.6,-225.43 200.3,-100.1 387.8,-222.09 557.3,-362.6 382.9,-316.91 700.2,-728.19 943.3,-1222.44 218.5,-444.24 371.1,-950.97 441.1,-1465.47 l -13.7,-1.85 c -150,1101.09 -652.8,2077.58 -1379.6,2679.09 -339.9,281.81 -744.2,484.17 -1169.2,585.22 -520.4,123.72 -1003.8,96.9 -1398,-77.57 -145.8,-64.14 -276.9,-144.51 -400.8,-245.68 -348.7,-284.56 -607.1,-753.12 -747.3,-1355.01 -76.2,-324.99 -109.6,-654.8 -141.8,-973.73 l -0.3,-3.23 c -14.3,-142.1 -18.8,-318.86 -23.6,-505.98 -14.6,-576.07 -32.8,-1292.98 -336.4,-1759.42 -74.5,-115.18 -165.2,-210.76 -269.6,-284.05 -112.6,-79.02 -244.9,-134.83 -393.2,-165.87 -88.3,-18.48 -179.4,-27.74 -273.8,-27.74"
           style="fill:#0e0e0e;fill-opacity:1;fill-rule:nonzero;stroke:none"
           id="path6560" /></g><g
         id="g6562"
         transform="scale(3.06748)"><path
           d="m -458.492,2437.4 c -190.917,0 -398.8,37.2 -633.418,113.16 -233.12,75.47 -463.68,179.66 -678.1,280.98 -38.82,18.45 -77.38,36.87 -115.63,55.16 -190.51,91.05 -370.45,177.05 -538.65,244.01 -670.63,267.06 -1309.84,507.03 -1928.01,739.11 l -102.46,38.46 5.15,13.73 102.46,-38.47 c 618.23,-232.08 1257.52,-472.11 1928.29,-739.21 168.65,-67.15 348.81,-153.25 539.55,-244.4 38.24,-18.29 76.78,-36.7 115.57,-55.12 440.16,-208.02 907.856,-409.59 1361.443,-391.63 557.605,23.21 891.734,457.58 1120.527,833.36 58.605,96.13 115.068,191.88 157.709,264.58 23.537,40.1 46.908,80.1 70.224,120.03 193.317,331.06 375.907,643.75 616.057,938.59 316.97,389.14 723.08,784.68 1143.54,1113.78 390.09,305.33 783.74,546.54 1170.05,716.97 443.1,195.5 875.9,296.95 1286.37,301.55 617.64,9.18 1191.3,-203.28 1704.81,-631.5 284.67,-237.65 539.89,-494.73 752.02,-714.91 115.44,-119.81 230.91,-242.61 342.53,-361.37 395.21,-420.45 803.88,-855.17 1262.24,-1207.28 204.73,-157.33 419.59,-309.77 638.67,-453.04 271.05,-176.92 546.35,-339.34 818.25,-482.71 424.9,-224.09 953.8,-503.02 1485.1,-404.01 292.5,54.47 507.7,200.52 658.1,446.49 297.5,484.14 277.5,1238.05 261.3,1843.82 -4.8,179.17 -9.3,348.36 -3.9,484.6 12.3,307.12 30.7,664.06 94.5,1013.66 53.7,296.24 134.9,564.24 241.3,796.55 120.3,262.77 274.4,483.09 458.1,654.83 121.7,113.79 258.1,210.4 405.3,287.13 210.2,109.88 446,178.95 700.9,205.3 238.8,24.67 490.5,11.71 748.2,-38.54 217.4,-42.38 431.6,-112.09 636.7,-207.21 206.5,-95.72 398.9,-214.96 572,-354.41 199.6,-160.59 383.1,-350.23 545.4,-563.66 153.8,-202.23 290.1,-427.75 405.2,-670.29 215.2,-453.76 356.8,-970.96 409.5,-1495.69 l -14.6,-1.46 c -113.1,1126.75 -606.9,2118.03 -1354.7,2719.67 -342.4,275.85 -769.4,474.25 -1202.3,558.65 -535.2,104.37 -1033,47.18 -1439.5,-165.36 -146.1,-76.13 -281.4,-171.96 -402.1,-284.85 -346.1,-323.58 -579.9,-809.18 -695,-1443.3 -63.6,-348.65 -82,-704.97 -94.2,-1011.61 -5.4,-135.74 -0.9,-304.71 3.9,-483.62 7.9,-298.84 17,-637.59 -13.3,-965.06 -35.1,-379.98 -117,-670.09 -250.2,-886.81 -72.5,-118.64 -162.5,-216.24 -267.5,-290.18 -113.5,-79.87 -248.2,-134.73 -400.4,-163.1 -76.7,-14.27 -153.4,-20.79 -229.7,-20.79 -456.7,-0.04 -899.1,233.35 -1265,426.27 -272.2,143.61 -547.9,306.25 -819.37,483.43 -219.4,143.47 -434.56,296.1 -639.62,453.66 -459.26,352.83 -868.33,788.01 -1263.96,1208.87 -111.59,118.73 -227.03,241.51 -342.4,361.25 -211.84,219.88 -466.73,476.61 -750.84,713.8 -510.75,425.92 -1081.09,637.17 -1695.24,628.12 C 4197.84,6716.56 3298.99,6169.22 2714.8,5711.94 2295.18,5383.5 1889.89,4988.78 1573.6,4600.48 1334.17,4306.53 1151.85,3994.32 958.831,3663.75 935.505,3623.82 912.129,3583.78 888.591,3543.68 845.922,3470.96 789.419,3375.11 730.762,3278.91 634.726,3121.16 483.951,2891.56 284.226,2719.39 187.245,2635.84 84.0329,2570.12 -22.5437,2524.15 c -118.8383,-51.31 -246.4073,-80.09 -379.1593,-85.64 -18.756,-0.71 -37.706,-1.11 -56.789,-1.11"
           style="fill:#0e0e0e;fill-opacity:1;fill-rule:nonzero;stroke:none"
           id="path6564" /></g><g
         id="g6566"
         transform="scale(3.06748)"><path
           d="m -397.206,1983.55 c -191.116,0 -398.599,40.03 -631.984,121.79 -241.64,84.66 -480.52,203.65 -682.33,308.89 -62,32.4 -123.89,65.26 -183.73,97.05 -167.32,88.86 -325.35,172.78 -474.37,241.3 -535.11,246.13 -1066.78,486.46 -1580.95,718.86 -170.04,76.87 -345.91,156.35 -516.35,233.55 l 6.39,14.12 c 170.43,-77.2 346.28,-156.68 516.35,-233.55 514.17,-232.44 1045.87,-472.73 1581.04,-718.9 149.41,-68.72 307.63,-152.73 475.15,-241.69 59.82,-31.79 121.69,-64.61 183.64,-97.02 418.52,-218.22 903.951,-449.23 1368.811,-427.48 570.717,27.31 891.298,501.58 1106.822,911.75 55.261,105.07 108.679,210.57 149.042,290.73 20.722,41.14 41.323,82.25 61.89,123.29 184.895,368.84 359.535,717.27 595.635,1051.84 307.08,435.15 712.83,885.52 1142.51,1268.14 598.38,530.54 1523.22,1177.72 2530.98,1247.93 640.95,45.83 1230.81,-150.88 1753.23,-584.68 234.72,-195.01 466.83,-419.99 752.67,-729.43 144.48,-156.38 287.79,-318.46 426.44,-475.17 360.62,-407.73 733.53,-829.35 1153.68,-1181.26 203.58,-170.5 417.02,-336.34 634.39,-492.88 263.25,-189.38 538.35,-369.53 817.85,-535.46 429.2,-253.33 963.5,-568.64 1501.2,-479.41 294.8,47.92 517.6,199.02 662.2,449.06 293.4,506.05 230.5,1333.96 184.5,1938.49 -12.9,169.62 -25.1,329.85 -27.5,459.11 -5.4,287.27 -4.9,666.05 46.5,1048.61 88.7,662.95 306.3,1181.14 646.8,1540.18 119.3,126.48 256.1,236.39 406.6,326.64 214.2,128.59 455.8,215.06 718.2,257.01 247.2,39.51 507.3,38.89 773.3,-1.85 224.4,-35.14 445,-98.83 655.7,-189.29 212.9,-91.35 410.3,-207.73 586.8,-345.92 204,-159.65 390.4,-349.95 554,-565.6 155,-204.35 290.8,-433.09 403.7,-679.86 211.9,-463.3 342.6,-990.96 377.9,-1525.93 l -15.4,-1.01 c -76.2,1152.48 -560.8,2158.54 -1329.8,2760.21 -348.6,272.97 -787.3,461.94 -1235.3,532.1 -552.3,84.61 -1064.5,-2.93 -1481.1,-253.14 -149.3,-89.52 -285,-198.53 -403.4,-324 -338.1,-356.65 -554.4,-871.94 -642.7,-1531.59 -51.2,-381.52 -51.7,-759.55 -46.3,-1046.27 2.4,-128.8 14.5,-288.83 27.4,-458.25 23.8,-312.48 50.7,-666.64 35.3,-1012.46 -17.9,-402.64 -90.5,-708.47 -221.8,-934.94 -70.6,-122.15 -160,-221.91 -265.5,-296.49 -114.5,-80.89 -251.6,-134.74 -407.6,-160.1 -241.9,-40.13 -502.2,-4.05 -795.9,110.28 -255.3,99.4 -499.9,243.72 -715.7,371.09 -279.8,166.16 -555.4,346.57 -819.01,536.2 -217.67,156.78 -431.43,322.84 -635.28,493.6 -421.02,352.63 -794.33,774.71 -1155.34,1182.86 -138.58,156.67 -281.86,318.66 -426.21,474.95 -285.35,308.92 -517.04,533.43 -751.17,727.99 -519.25,431.18 -1105.4,626.71 -1742.24,581.16 C 4248.99,6808.79 3327.22,6163.58 2730.65,5634.65 2301.83,5252.77 1896.91,4803.35 1590.5,4369.15 1355.07,4035.52 1180.68,3687.62 996.06,3319.3 c -20.574,-41.04 -41.181,-82.15 -61.903,-123.29 -40.392,-80.26 -93.85,-185.82 -149.168,-290.99 -217.442,-413.79 -541.228,-892.33 -1119.797,-920.04 -20.601,-0.94 -41.413,-1.43 -62.398,-1.43"
           style="fill:#0e0e0e;fill-opacity:1;fill-rule:nonzero;stroke:none"
           id="path6568" /></g><g
         id="g6570"
         transform="scale(3.06748)"><path
           d="m -334.668,1529.66 c -522.252,0 -1070.212,320.75 -1556.012,605.12 -149.28,87.4 -290.28,169.91 -424.27,239.71 l -2164.06,1127.24 7.53,14.44 2164.06,-1127.21 c 134.35,-69.99 275.51,-152.63 424.97,-240.1 504.57,-295.35 1076.457,-630.12 1613.666,-601.14 583.321,31.49 890.61,545.69 1093.146,990.16 66.241,145.33 130.218,293.27 192.088,436.32 169.22,391.2 344.2,795.73 577.07,1172.19 184.91,298.95 414.6,612.46 664.24,906.61 273.88,322.74 567.1,618.81 871.51,880 335.62,287.96 676.88,526.17 1014.26,707.96 373.17,201.08 740.83,332.37 1092.75,390.21 705.04,115.9 1346.28,-59.99 1905.89,-522.81 465.01,-384.58 860.25,-860.15 1242.49,-1320.04 C 8717.37,4788 9061.4,4374.04 9451,4020.23 c 449.98,-408.67 937,-785.82 1447.5,-1120.92 430.2,-282.38 965.6,-633.77 1517.3,-554.78 466,66.66 735.4,378.48 823.6,953.22 75.1,488.87 3.7,1068.76 -53.7,1534.74 -19.5,158.8 -38,308.79 -47.1,430.42 -50,670.52 -18.1,1224.03 97.5,1692.13 72.1,292.05 178.5,552.39 316.2,773.79 153.9,247.31 351.4,453.47 587.1,612.75 203.9,137.79 433.7,237.88 683.1,297.47 237.3,56.71 487.2,75.72 742.8,56.48 502.5,-37.82 994.1,-222.2 1384.1,-519.15 208.5,-158.74 397.8,-349.69 562.7,-567.56 156.2,-206.48 291.5,-438.44 402.3,-689.44 208.5,-472.86 328.2,-1010.99 346.3,-1556.16 l -16.3,-0.55 c -38.4,1160.96 -526.2,2207.96 -1304.9,2800.74 -826.8,629.52 -2000.6,698.77 -2791,164.66 -782.9,-529.09 -1107.9,-1531.32 -993.6,-3063.95 9,-121.24 27.5,-271.04 47,-429.64 57.5,-466.96 129,-1048.12 53.7,-1539.21 -41.1,-267.48 -123.7,-482.48 -245.4,-638.96 -68.4,-87.98 -151,-159.87 -245.3,-213.66 -100.4,-57.24 -217,-95.71 -346.8,-114.26 -53,-7.6 -107,-11.41 -161.9,-11.41 -199.9,0 -412.8,50.56 -646.2,152.99 -262.9,115.41 -516.6,281.89 -720.4,415.72 -511.3,335.55 -998.96,713.22 -1449.58,1122.48 C 9049.6,4362.76 8705.18,4777.14 8372.14,5177.89 7990.36,5637.23 7595.6,6112.21 7131.77,6495.81 6575.94,6955.48 5939.1,7130.19 5238.92,7015.09 3822.58,6782.27 2363.59,5360.39 1607.38,4137.82 1375.14,3762.37 1200.4,3358.39 1031.41,2967.71 969.507,2824.59 905.498,2676.59 839.193,2531.1 704.727,2236.03 571.915,2024.75 421.217,1866.29 327.17,1767.34 225.135,1689.4 117.946,1634.53 -1.24542,1573.5 -131.067,1538.85 -267.907,1531.45 c -22.201,-1.21 -44.461,-1.79 -66.761,-1.79"
           style="fill:#0e0e0e;fill-opacity:1;fill-rule:nonzero;stroke:none"
           id="path6572" /></g></g></g></svg>
