<svg
   width="254.41771mm"
   height="103.73299mm"
   viewBox="0 0 254.41771 103.73299"
   version="1.1"
   id="svg5"
   xmlns="http://www.w3.org/2000/svg"
   xmlns:svg="http://www.w3.org/2000/svg">
  <defs
     id="defs2" />
  <g
     id="layer1"
     transform="translate(-12.284312,-59.303289)">
    <path
       style="fill:none;stroke:#000000;stroke-width:0.105833;stroke-linecap:butt;stroke-linejoin:miter;stroke-dasharray:none;stroke-opacity:1"
       d="m 12.307388,122.58252 c 23.467718,11.37242 52.545622,10.30383 75.11531,-2.76043 9.410688,-5.44729 17.607422,-12.74277 26.629872,-18.8115 9.02244,-6.068736 19.3603,-11.016626 30.23177,-10.803936 10.7707,0.210719 20.77458,5.434548 29.8784,11.194136 9.10382,5.75958 17.94982,12.26823 28.19965,15.58385 11.16536,3.61178 23.6128,3.10507 34.44764,-1.40229 10.83485,-4.50736 19.96896,-12.9787 25.27817,-23.443999"
       id="path800" />
    <path
       style="fill:none;stroke:#000000;stroke-width:0.105833;stroke-linecap:butt;stroke-linejoin:miter;stroke-dasharray:none;stroke-opacity:1"
       d="m 20.625873,139.3386 c 33.808437,12.31187 73.174729,8.23101 103.738817,-10.75396 12.57705,-7.81227 23.67806,-17.9508 36.79201,-24.82379 17.16834,-8.997886 37.44375,-11.922698 56.45519,-8.143895 19.01143,3.778803 36.62716,14.235035 49.04953,29.114515"
       id="path804" />
    <path
       style="fill:none;stroke:#000000;stroke-width:0.105833;stroke-linecap:butt;stroke-linejoin:miter;stroke-dasharray:none;stroke-opacity:1"
       d="m 24.318284,148.26499 c 2.380811,-8.78291 4.02106,-17.76643 4.897633,-26.82399 0.715435,-7.39253 1.012231,-15.14362 4.699712,-21.59062 2.459817,-4.300617 6.336468,-7.732509 10.799374,-9.883897 4.462907,-2.151388 9.489439,-3.045915 14.438842,-2.823622 9.898806,0.444584 19.202609,5.265957 26.722808,11.718137 15.040397,12.904362 23.669297,31.935522 38.279077,45.325452 12.21047,11.19095 28.40991,17.93659 44.9544,18.71956 16.54448,0.78296 33.30857,-4.4027 46.52131,-14.3905 13.21275,-9.98781 22.77398,-24.70204 26.53298,-40.83284 3.75899,-16.130806 1.68725,-33.555891 -5.7492,-48.355623"
       id="path816" />
    <g
       id="g2764"
       style="stroke-width:0.105833;stroke-dasharray:none">
      <path
         d="m 12.5103,122.991 c 23.4716,11.305 52.4827,10.277 75.091,-2.637 9.4272,-5.384 17.6607,-12.604 26.6817,-18.658 0.289,-0.194 0.578,-0.386 0.87,-0.577 8.809,-5.7907 18.782,-10.4648 29.253,-10.4039 4.837,0.0285 9.524,1.0572 14.051,2.6886 5.503,1.9819 10.771,4.8552 15.777,7.8993 9.126,5.549 18.012,11.873 28.265,15.128 3.211,1.019 6.525,1.711 9.875,2.078 8.3,0.91 16.817,-0.176 24.522,-3.218 10.816,-4.27 19.947,-12.36 25.304,-22.3577"
         style="fill:none;stroke:#000000;stroke-width:0.105833;stroke-linecap:butt;stroke-linejoin:miter;stroke-dasharray:none;stroke-opacity:1"
         id="path2684" />
      <path
         d="m 12.7132,123.4 c 23.4754,11.237 52.4198,10.25 75.0667,-2.514 9.4437,-5.322 17.7141,-12.466 26.7341,-18.505 0.288,-0.193 0.578,-0.385 0.869,-0.576 8.805,-5.7791 18.726,-10.4974 29.144,-10.5814 4.812,-0.0383 9.48,0.9025 13.997,2.4391 5.493,1.8657 10.763,4.6139 15.782,7.5423 9.147,5.339 18.074,11.478 28.329,14.672 3.212,1 6.524,1.686 9.87,2.06 8.29,0.926 16.786,-0.064 24.477,-2.937 10.796,-4.033 19.925,-11.741 25.329,-21.2717"
         style="fill:none;stroke:#000000;stroke-width:0.105833;stroke-linecap:butt;stroke-linejoin:miter;stroke-dasharray:none;stroke-opacity:1"
         id="path2686" />
      <path
         d="m 12.9161,123.809 c 23.4793,11.169 52.3569,10.223 75.0425,-2.39 9.4601,-5.26 17.7674,-12.328 26.7854,-18.352 0.289,-0.193 0.578,-0.385 0.869,-0.575 8.8,-5.7685 18.67,-10.531 29.035,-10.76 4.787,-0.1049 9.436,0.748 13.944,2.1896 5.482,1.7496 10.754,4.3727 15.786,7.1854 9.168,5.128 18.136,11.082 28.393,14.216 3.213,0.982 6.523,1.661 9.865,2.042 8.28,0.942 16.755,0.047 24.433,-2.657 10.776,-3.795 19.902,-11.121 25.354,-20.1848"
         style="fill:none;stroke:#000000;stroke-width:0.105833;stroke-linecap:butt;stroke-linejoin:miter;stroke-dasharray:none;stroke-opacity:1"
         id="path2688" />
      <path
         d="m 13.1189,124.217 c 23.4832,11.103 52.294,10.197 75.0183,-2.266 9.4766,-5.197 17.8208,-12.189 26.8378,-18.199 0.288,-0.192 0.578,-0.383 0.868,-0.574 8.796,-5.7569 18.614,-10.5636 28.926,-10.9375 4.763,-0.1716 9.393,0.5933 13.89,1.94 5.472,1.6336 10.746,4.1315 15.79,6.8285 9.19,4.918 18.198,10.687 28.458,13.76 3.214,0.963 6.522,1.636 9.86,2.023 8.27,0.959 16.724,0.16 24.388,-2.375 10.757,-3.558 19.88,-10.502 25.379,-19.0988"
         style="fill:none;stroke:#000000;stroke-width:0.105833;stroke-linecap:butt;stroke-linejoin:miter;stroke-dasharray:none;stroke-opacity:1"
         id="path2690" />
      <path
         d="m 13.3218,124.626 c 23.4871,11.035 52.2311,10.169 74.994,-2.143 9.4932,-5.134 17.8742,-12.051 26.8892,-18.045 0.289,-0.192 0.578,-0.383 0.869,-0.573 8.79,-5.7462 18.558,-10.5972 28.816,-11.1161 4.738,-0.2382 9.349,0.4387 13.837,1.6906 5.461,1.5174 10.737,3.8903 15.794,6.4715 9.211,4.708 18.26,10.292 28.523,13.304 3.214,0.944 6.52,1.611 9.854,2.005 8.261,0.976 16.693,0.272 24.343,-2.094 10.738,-3.321 19.859,-9.883 25.405,-18.0129"
         style="fill:none;stroke:#000000;stroke-width:0.105833;stroke-linecap:butt;stroke-linejoin:miter;stroke-dasharray:none;stroke-opacity:1"
         id="path2692" />
      <path
         d="m 13.5247,125.035 c 23.4909,10.967 52.1682,10.142 74.9697,-2.02 9.5097,-5.072 17.9276,-11.912 26.9416,-17.892 0.288,-0.191 0.578,-0.382 0.868,-0.571 8.785,-5.7356 18.502,-10.6308 28.708,-11.2946 4.712,-0.3049 9.305,0.2841 13.782,1.441 5.451,1.4013 10.729,3.6491 15.799,6.1146 9.233,4.497 18.322,9.897 28.587,12.849 3.215,0.924 6.519,1.585 9.849,1.986 8.251,0.992 16.662,0.383 24.298,-1.813 10.719,-3.084 19.837,-9.265 25.43,-16.9269"
         style="fill:none;stroke:#000000;stroke-width:0.105833;stroke-linecap:butt;stroke-linejoin:miter;stroke-dasharray:none;stroke-opacity:1"
         id="path2694" />
      <path
         d="m 13.7276,125.443 c 23.4948,10.9 52.1053,10.116 74.9454,-1.896 9.5262,-5.009 17.981,-11.774 26.994,-17.739 0.288,-0.19 0.577,-0.38 0.867,-0.57 8.781,-5.724 18.446,-10.6634 28.599,-11.4722 4.687,-0.3715 9.261,0.1295 13.729,1.1915 5.44,1.2852 10.72,3.4079 15.802,5.7577 9.255,4.287 18.384,9.502 28.652,12.393 3.216,0.905 6.518,1.56 9.844,1.967 8.241,1.009 16.631,0.496 24.253,-1.532 10.699,-2.846 19.815,-8.645 25.456,-15.84"
         style="fill:none;stroke:#000000;stroke-width:0.105833;stroke-linecap:butt;stroke-linejoin:miter;stroke-dasharray:none;stroke-opacity:1"
         id="path2696" />
      <path
         d="m 13.9305,125.852 c 23.4986,10.832 52.0424,10.089 74.9211,-1.772 9.5427,-4.947 18.0334,-11.636 27.0454,-17.586 0.288,-0.19 0.578,-0.38 0.868,-0.569 8.775,-5.713 18.389,-10.697 28.489,-11.6507 4.663,-0.4383 9.217,-0.0251 13.675,0.9419 5.43,1.1691 10.712,3.1667 15.807,5.4008 9.276,4.076 18.446,9.107 28.717,11.937 3.216,0.886 6.515,1.535 9.838,1.949 8.231,1.025 16.6,0.608 24.209,-1.251 10.679,-2.609 19.792,-8.026 25.481,-14.754"
         style="fill:none;stroke:#000000;stroke-width:0.105833;stroke-linecap:butt;stroke-linejoin:miter;stroke-dasharray:none;stroke-opacity:1"
         id="path2698" />
      <path
         d="m 14.1334,126.261 c 23.5025,10.764 51.9794,10.062 74.8969,-1.649 9.5591,-4.884 18.0867,-11.498 27.0977,-17.433 0.288,-0.19 0.577,-0.379 0.867,-0.567 8.771,-5.703 18.333,-10.7306 28.38,-11.8293 4.638,-0.5049 9.174,-0.1797 13.622,0.6925 5.419,1.053 10.703,2.9254 15.81,5.0438 9.298,3.866 18.509,8.711 28.782,11.481 3.217,0.868 6.514,1.51 9.832,1.931 8.222,1.042 16.57,0.719 24.165,-0.97 10.66,-2.372 19.77,-7.407 25.506,-13.6681"
         style="fill:none;stroke:#000000;stroke-width:0.105833;stroke-linecap:butt;stroke-linejoin:miter;stroke-dasharray:none;stroke-opacity:1"
         id="path2700" />
      <path
         d="m 14.3363,126.669 c 23.5063,10.698 51.9165,10.036 74.8726,-1.525 9.5756,-4.821 18.1401,-11.359 27.1491,-17.279 0.288,-0.19 0.577,-0.378 0.867,-0.567 8.766,-5.691 18.278,-10.7632 28.271,-12.0068 4.613,-0.5716 9.13,-0.3344 13.568,0.4429 5.409,0.9369 10.695,2.6843 15.815,4.6869 9.319,3.656 18.571,8.316 28.846,11.025 3.218,0.849 6.513,1.485 9.827,1.912 8.213,1.059 16.539,0.832 24.12,-0.689 10.641,-2.134 19.748,-6.787 25.532,-12.581"
         style="fill:none;stroke:#000000;stroke-width:0.105833;stroke-linecap:butt;stroke-linejoin:miter;stroke-dasharray:none;stroke-opacity:1"
         id="path2702" />
      <path
         d="m 14.5392,127.078 c 23.5102,10.63 51.8536,10.008 74.8483,-1.402 9.5921,-4.759 18.1935,-11.221 27.2015,-17.126 0.288,-0.189 0.577,-0.377 0.867,-0.565 8.761,-5.68 18.221,-10.7968 28.162,-12.1854 4.588,-0.6382 9.086,-0.4889 13.514,0.1934 5.397,0.8208 10.686,2.4431 15.819,4.33 9.34,3.445 18.632,7.921 28.91,10.569 3.219,0.83 6.512,1.46 9.822,1.894 8.203,1.075 16.508,0.943 24.075,-0.408 10.622,-1.897 19.726,-6.169 25.557,-11.495"
         style="fill:none;stroke:#000000;stroke-width:0.105833;stroke-linecap:butt;stroke-linejoin:miter;stroke-dasharray:none;stroke-opacity:1"
         id="path2704" />
      <path
         d="m 14.7421,127.487 c 23.514,10.562 51.7907,9.981 74.824,-1.279 9.6086,-4.696 18.2469,-11.082 27.2529,-16.972 0.289,-0.189 0.577,-0.377 0.867,-0.564 8.756,-5.67 18.165,-10.8304 28.053,-12.3639 4.563,-0.7049 9.042,-0.6436 13.46,-0.0562 5.387,0.7047 10.678,2.2019 15.823,3.9731 9.363,3.235 18.695,7.526 28.976,10.114 3.22,0.81 6.51,1.434 9.816,1.875 8.193,1.091 16.477,1.055 24.03,-0.127 10.602,-1.66 19.704,-5.55 25.583,-10.409"
         style="fill:none;stroke:#000000;stroke-width:0.105833;stroke-linecap:butt;stroke-linejoin:miter;stroke-dasharray:none;stroke-opacity:1"
         id="path2706" />
      <path
         d="m 14.945,127.895 c 23.5179,10.495 51.7278,9.955 74.7997,-1.154 9.6252,-4.634 18.3003,-10.945 27.3053,-16.82 0.288,-0.188 0.577,-0.376 0.866,-0.563 8.752,-5.658 18.109,-10.863 27.944,-12.5415 4.538,-0.7715 8.998,-0.7981 13.407,-0.3056 5.376,0.5885 10.669,1.9606 15.827,3.6161 9.384,3.025 18.757,7.131 29.04,9.658 3.221,0.791 6.509,1.409 9.811,1.857 8.183,1.108 16.446,1.167 23.986,0.154 10.582,-1.422 19.681,-4.931 25.607,-9.323"
         style="fill:none;stroke:#000000;stroke-width:0.105833;stroke-linecap:butt;stroke-linejoin:miter;stroke-dasharray:none;stroke-opacity:1"
         id="path2708" />
      <path
         d="m 15.1478,128.304 c 23.5218,10.427 51.6649,9.928 74.7755,-1.031 9.6417,-4.571 18.3537,-10.806 27.3577,-16.667 0.288,-0.187 0.576,-0.374 0.866,-0.561 8.746,-5.648 18.052,-10.8966 27.834,-12.72 4.514,-0.8383 8.955,-0.9528 13.353,-0.5552 5.366,0.4725 10.661,1.7194 15.832,3.2602 9.405,2.813 18.818,6.735 29.104,9.201 3.222,0.772 6.508,1.384 9.806,1.838 8.174,1.125 16.415,1.279 23.941,0.435 10.563,-1.184 19.66,-4.311 25.633,-8.236"
         style="fill:none;stroke:#000000;stroke-width:0.105833;stroke-linecap:butt;stroke-linejoin:miter;stroke-dasharray:none;stroke-opacity:1"
         id="path2710" />
      <path
         d="m 15.3507,128.713 c 23.5257,10.359 51.602,9.901 74.7513,-0.908 9.6581,-4.509 18.407,-10.667 27.409,-16.513 0.288,-0.187 0.577,-0.374 0.866,-0.56 8.741,-5.637 17.997,-10.9302 27.726,-12.8986 4.488,-0.9049 8.91,-1.1074 13.299,-0.8047 5.355,0.3564 10.652,1.4783 15.835,2.9029 9.427,2.6034 18.881,6.3394 29.169,8.7454 3.223,0.754 6.507,1.359 9.801,1.82 8.164,1.141 16.384,1.391 23.896,0.716 10.544,-0.947 19.638,-3.693 25.658,-7.15"
         style="fill:none;stroke:#000000;stroke-width:0.105833;stroke-linecap:butt;stroke-linejoin:miter;stroke-dasharray:none;stroke-opacity:1"
         id="path2712" />
      <path
         d="m 15.5536,129.121 c 23.5295,10.292 51.5391,9.874 74.727,-0.784 9.6746,-4.446 18.4604,-10.529 27.4614,-16.36 0.288,-0.186 0.576,-0.373 0.865,-0.559 8.737,-5.625 17.941,-10.963 27.617,-13.0761 4.463,-0.9716 8.867,-1.262 13.245,-1.0542 5.345,0.2402 10.644,1.237 15.84,2.546 9.448,2.3923 18.943,5.9443 29.234,8.2893 3.223,0.735 6.505,1.334 9.795,1.802 8.154,1.158 16.353,1.502 23.851,0.997 10.525,-0.71 19.616,-3.074 25.684,-6.064"
         style="fill:none;stroke:#000000;stroke-width:0.105833;stroke-linecap:butt;stroke-linejoin:miter;stroke-dasharray:none;stroke-opacity:1"
         id="path2714" />
      <path
         d="m 15.7565,129.53 c 23.5334,10.225 51.4762,9.847 74.7027,-0.661 9.6908,-4.383 18.5138,-10.39 27.5128,-16.206 0.288,-0.186 0.577,-0.372 0.865,-0.558 8.732,-5.615 17.885,-10.996 27.508,-13.2547 4.438,-1.0382 8.823,-1.4166 13.192,-1.3037 5.334,0.1241 10.635,0.9958 15.844,2.1891 9.469,2.1823 19.004,5.5493 29.298,7.8333 3.224,0.716 6.503,1.309 9.79,1.783 8.144,1.175 16.322,1.615 23.806,1.278 10.505,-0.472 19.594,-2.454 25.709,-4.977"
         style="fill:none;stroke:#000000;stroke-width:0.105833;stroke-linecap:butt;stroke-linejoin:miter;stroke-dasharray:none;stroke-opacity:1"
         id="path2716" />
      <path
         d="m 15.9594,129.939 c 23.5372,10.157 51.4133,9.82 74.6784,-0.538 9.7072,-4.32 18.5672,-10.252 27.5652,-16.053 0.288,-0.186 0.576,-0.371 0.865,-0.556 8.727,-5.604 17.828,-11.03 27.398,-13.4332 4.414,-1.1049 8.779,-1.5712 13.138,-1.5533 5.324,0.008 10.627,0.7546 15.848,1.8323 9.491,1.9722 19.067,5.1542 29.363,7.3782 3.225,0.696 6.502,1.283 9.785,1.764 8.134,1.191 16.291,1.727 23.762,1.559 10.485,-0.235 19.571,-1.835 25.734,-3.891"
         style="fill:none;stroke:#000000;stroke-width:0.105833;stroke-linecap:butt;stroke-linejoin:miter;stroke-dasharray:none;stroke-opacity:1"
         id="path2718" />
      <path
         d="m 16.1623,130.348 c 23.5411,10.089 51.3503,9.793 74.6541,-0.414 9.7246,-4.258 18.6206,-10.114 27.6166,-15.901 0.288,-0.185 0.576,-0.37 0.865,-0.555 8.722,-5.592 17.772,-11.063 27.289,-13.6108 4.389,-1.1715 8.736,-1.7258 13.085,-1.8028 5.313,-0.108 10.618,0.5134 15.852,1.4754 9.513,1.7612 19.129,4.7592 29.428,6.9222 3.225,0.677 6.5,1.258 9.779,1.746 8.125,1.207 16.26,1.838 23.717,1.84 10.466,0.002 19.549,-1.216 25.759,-2.806"
         style="fill:none;stroke:#000000;stroke-width:0.105833;stroke-linecap:butt;stroke-linejoin:miter;stroke-dasharray:none;stroke-opacity:1"
         id="path2720" />
      <path
         d="m 16.3652,130.756 c 23.545,10.022 51.2874,9.767 74.6298,-0.29 9.741,-4.196 18.673,-9.976 27.669,-15.747 0.288,-0.185 0.576,-0.369 0.864,-0.554 8.718,-5.582 17.716,-11.096 27.181,-13.789 4.363,-1.2386 8.691,-1.8808 13.03,-2.0526 5.303,-0.2242 10.61,0.2722 15.856,1.1185 9.535,1.5511 19.191,4.3641 29.493,6.4661 3.226,0.658 6.499,1.233 9.774,1.727 8.115,1.225 16.229,1.951 23.672,2.122 10.447,0.239 19.527,-0.598 25.785,-1.72"
         style="fill:none;stroke:#000000;stroke-width:0.105833;stroke-linecap:butt;stroke-linejoin:miter;stroke-dasharray:none;stroke-opacity:1"
         id="path2722" />
      <path
         d="m 16.5681,131.165 c 23.5488,9.954 51.2245,9.739 74.6056,-0.167 9.7573,-4.133 18.7263,-9.837 27.7213,-15.594 0.287,-0.184 0.575,-0.368 0.864,-0.552 8.712,-5.571 17.66,-11.13 27.071,-13.968 4.339,-1.3048 8.648,-2.0349 12.977,-2.3017 5.292,-0.3403 10.601,0.031 15.86,0.7616 9.556,1.3411 19.253,3.9681 29.557,6.0101 3.227,0.64 6.498,1.208 9.769,1.709 8.105,1.241 16.198,2.062 23.627,2.402 10.427,0.477 19.505,0.022 25.811,-0.633"
         style="fill:none;stroke:#000000;stroke-width:0.105833;stroke-linecap:butt;stroke-linejoin:miter;stroke-dasharray:none;stroke-opacity:1"
         id="path2724" />
      <path
         d="m 16.771,131.574 c 23.5527,9.886 51.1616,9.712 74.5813,-0.044 9.7737,-4.07 18.7797,-9.699 27.7727,-15.44 0.288,-0.184 0.576,-0.368 0.864,-0.552 8.708,-5.56 17.604,-11.162 26.962,-14.145 4.314,-1.372 8.604,-2.1901 12.923,-2.5518 5.281,-0.4564 10.593,-0.2102 15.865,0.4048 9.577,1.13 19.315,3.573 29.621,5.554 3.228,0.621 6.497,1.183 9.764,1.691 8.095,1.257 16.167,2.174 23.582,2.683 10.408,0.714 19.484,0.641 25.836,0.453"
         style="fill:none;stroke:#000000;stroke-width:0.105833;stroke-linecap:butt;stroke-linejoin:miter;stroke-dasharray:none;stroke-opacity:1"
         id="path2726" />
      <path
         d="m 16.9739,131.982 c 23.5565,9.82 51.0987,9.686 74.557,0.08 9.7901,-4.007 18.8331,-9.56 27.8251,-15.287 0.287,-0.183 0.575,-0.367 0.863,-0.55 8.703,-5.549 17.548,-11.196 26.853,-14.324 4.289,-1.438 8.561,-2.3442 12.87,-2.8008 5.27,-0.5726 10.584,-0.4515 15.868,0.0478 9.599,0.92 19.378,3.178 29.687,5.098 3.228,0.602 6.495,1.158 9.758,1.672 8.085,1.274 16.136,2.287 23.538,2.965 10.388,0.951 19.461,1.26 25.861,1.539"
         style="fill:none;stroke:#000000;stroke-width:0.105833;stroke-linecap:butt;stroke-linejoin:miter;stroke-dasharray:none;stroke-opacity:1"
         id="path2728" />
      <path
         d="m 17.1767,132.391 c 23.5605,9.752 51.0359,9.659 74.5328,0.204 9.8065,-3.946 18.8865,-9.422 27.8765,-15.134 0.288,-0.183 0.576,-0.366 0.864,-0.549 8.697,-5.538 17.491,-11.23 26.743,-14.503 4.265,-1.504 8.517,-2.4984 12.816,-3.0499 5.26,-0.6886 10.576,-0.6927 15.873,-0.309 9.62,0.7093 19.439,2.7829 29.751,4.6429 3.229,0.582 6.494,1.132 9.753,1.653 8.076,1.291 16.105,2.398 23.493,3.245 10.369,1.189 19.439,1.88 25.886,2.626"
         style="fill:none;stroke:#000000;stroke-width:0.105833;stroke-linecap:butt;stroke-linejoin:miter;stroke-dasharray:none;stroke-opacity:1"
         id="path2730" />
      <path
         d="m 17.3796,132.8 c 23.5643,9.684 50.9729,9.632 74.5085,0.327 9.8229,-3.883 18.9399,-9.284 27.9289,-14.981 0.288,-0.182 0.575,-0.365 0.863,-0.548 8.693,-5.527 17.435,-11.262 26.635,-14.68 4.239,-1.572 8.472,-2.654 12.762,-3.3 5.249,-0.8047 10.567,-0.9338 15.877,-0.6659 9.642,0.4989 19.501,2.3879 29.815,4.1869 3.23,0.563 6.493,1.107 9.748,1.635 8.066,1.307 16.074,2.51 23.448,3.526 10.35,1.426 19.417,2.498 25.912,3.712"
         style="fill:none;stroke:#000000;stroke-width:0.105833;stroke-linecap:butt;stroke-linejoin:miter;stroke-dasharray:none;stroke-opacity:1"
         id="path2732" />
      <path
         d="m 17.5825,133.208 c 23.5682,9.617 50.91,9.606 74.4842,0.451 9.8393,-3.82 18.9933,-9.145 27.9813,-14.828 0.287,-0.181 0.575,-0.364 0.862,-0.546 8.688,-5.516 17.38,-11.296 26.526,-14.859 4.214,-1.638 8.429,-2.808 12.708,-3.5491 5.239,-0.9208 10.559,-1.175 15.881,-1.0227 9.664,0.2885 19.564,1.9918 29.88,3.7308 3.231,0.544 6.491,1.082 9.743,1.617 8.056,1.323 16.043,2.621 23.403,3.807 10.33,1.663 19.395,3.117 25.937,4.798"
         style="fill:none;stroke:#000000;stroke-width:0.105833;stroke-linecap:butt;stroke-linejoin:miter;stroke-dasharray:none;stroke-opacity:1"
         id="path2734" />
      <path
         d="m 17.7854,133.617 c 23.572,9.549 50.8471,9.578 74.46,0.574 9.8556,-3.757 19.0466,-9.007 28.0326,-14.674 0.288,-0.182 0.575,-0.363 0.862,-0.545 8.684,-5.505 17.324,-11.329 26.417,-15.037 4.189,-1.705 8.385,-2.963 12.655,-3.799 5.228,-1.0371 10.55,-1.4164 15.885,-1.3798 9.685,0.0781 19.625,1.5968 29.945,3.2748 3.231,0.526 6.489,1.057 9.737,1.598 8.046,1.34 16.012,2.734 23.358,4.088 10.311,1.901 19.373,3.737 25.963,5.885"
         style="fill:none;stroke:#000000;stroke-width:0.105833;stroke-linecap:butt;stroke-linejoin:miter;stroke-dasharray:none;stroke-opacity:1"
         id="path2736" />
      <path
         d="m 17.9883,134.026 c 23.5759,9.481 50.7842,9.551 74.4357,0.697 9.873,-3.694 19.1,-8.868 28.085,-14.521 0.287,-0.181 0.574,-0.362 0.862,-0.544 8.678,-5.494 17.267,-11.362 26.307,-15.215 4.165,-1.771 8.342,-3.117 12.601,-4.048 5.218,-1.1533 10.542,-1.6577 15.89,-1.7367 9.706,-0.1324 19.687,1.2018 30.009,2.8187 3.232,0.507 6.488,1.032 9.732,1.58 8.036,1.357 15.981,2.846 23.314,4.369 10.291,2.138 19.35,4.356 25.987,6.971"
         style="fill:none;stroke:#000000;stroke-width:0.105833;stroke-linecap:butt;stroke-linejoin:miter;stroke-dasharray:none;stroke-opacity:1"
         id="path2738" />
      <path
         d="m 18.1912,134.434 c 23.5797,9.415 50.7213,9.525 74.4114,0.822 9.8894,-3.633 19.1534,-8.731 28.1364,-14.368 0.288,-0.181 0.575,-0.362 0.862,-0.543 8.674,-5.483 17.211,-11.396 26.199,-15.393 4.139,-1.839 8.297,-3.272 12.547,-4.298 5.207,-1.2694 10.534,-1.899 15.893,-2.0936 9.728,-0.3429 19.75,0.8065 30.074,2.3626 3.233,0.488 6.487,1.007 9.726,1.562 8.028,1.373 15.951,2.957 23.27,4.65 10.272,2.375 19.328,4.975 26.013,8.057"
         style="fill:none;stroke:#000000;stroke-width:0.105833;stroke-linecap:butt;stroke-linejoin:miter;stroke-dasharray:none;stroke-opacity:1"
         id="path2740" />
      <path
         d="m 18.3941,134.843 c 23.5836,9.347 50.6583,9.498 74.3871,0.945 9.9058,-3.57 19.2068,-8.592 28.1888,-14.215 0.287,-0.18 0.574,-0.36 0.861,-0.542 8.669,-5.472 17.155,-11.428 26.09,-15.571 4.114,-1.905 8.253,-3.426 12.493,-4.547 5.197,-1.3856 10.526,-2.1402 15.898,-2.4506 9.749,-0.5532 19.811,0.4114 30.138,1.9076 3.234,0.468 6.486,0.981 9.721,1.542 8.018,1.39 15.92,3.07 23.225,4.932 10.253,2.612 19.306,5.593 26.038,9.143"
         style="fill:none;stroke:#000000;stroke-width:0.105833;stroke-linecap:butt;stroke-linejoin:miter;stroke-dasharray:none;stroke-opacity:1"
         id="path2742" />
      <path
         d="m 18.597,135.252 c 23.5874,9.279 50.5954,9.471 74.3628,1.068 9.9222,-3.507 19.2602,-8.454 28.2402,-14.062 0.288,-0.179 0.575,-0.359 0.862,-0.54 8.664,-5.461 17.099,-11.462 25.98,-15.749 4.09,-1.972 8.21,-3.582 12.44,-4.797 5.186,-1.5018 10.517,-2.3815 15.901,-2.8075 9.772,-0.7637 19.874,0.0161 30.204,1.4513 3.235,0.4492 6.484,0.9562 9.715,1.5242 8.008,1.407 15.889,3.181 23.18,5.212 10.233,2.85 19.285,6.213 26.064,10.23"
         style="fill:none;stroke:#000000;stroke-width:0.105833;stroke-linecap:butt;stroke-linejoin:miter;stroke-dasharray:none;stroke-opacity:1"
         id="path2744" />
      <path
         d="m 18.7999,135.66 c 23.5913,9.212 50.5325,9.444 74.3386,1.192 9.9385,-3.444 19.3125,-8.315 28.2925,-13.908 0.287,-0.179 0.574,-0.359 0.861,-0.539 8.659,-5.45 17.043,-11.495 25.871,-15.928 4.065,-2.038 8.166,-3.736 12.386,-5.046 5.176,-1.618 10.509,-2.6228 15.906,-3.1645 9.793,-0.9741 19.936,-0.3791 30.268,0.9955 3.236,0.4305 6.483,0.931 9.71,1.506 7.998,1.423 15.858,3.293 23.135,5.493 10.214,3.087 19.263,6.832 26.09,11.316"
         style="fill:none;stroke:#000000;stroke-width:0.105833;stroke-linecap:butt;stroke-linejoin:miter;stroke-dasharray:none;stroke-opacity:1"
         id="path2746" />
      <path
         d="m 19.0028,136.069 c 23.5951,9.144 50.4696,9.417 74.3143,1.315 9.9549,-3.382 19.3659,-8.177 28.3449,-13.755 0.287,-0.178 0.574,-0.357 0.86,-0.538 8.654,-5.439 16.987,-11.528 25.762,-16.105 4.04,-2.105 8.123,-3.891 12.333,-5.297 5.165,-1.7332 10.5,-2.8631 15.91,-3.5204 9.814,-1.1845 19.997,-0.7744 30.332,0.5396 3.237,0.4115 6.482,0.9062 9.705,1.4868 7.988,1.44 15.827,3.406 23.091,5.775 10.194,3.324 19.24,7.451 26.114,12.402"
         style="fill:none;stroke:#000000;stroke-width:0.105833;stroke-linecap:butt;stroke-linejoin:miter;stroke-dasharray:none;stroke-opacity:1"
         id="path2748" />
      <path
         d="m 19.2056,136.478 c 23.5991,9.076 50.4068,9.39 74.2901,1.438 9.9713,-3.319 19.4193,-8.038 28.3963,-13.601 0.287,-0.178 0.574,-0.357 0.861,-0.537 8.649,-5.428 16.93,-11.561 25.653,-16.284 4.015,-2.172 8.078,-4.045 12.278,-5.546 5.154,-1.849 10.492,-3.1044 15.914,-3.8774 9.836,-1.3949 20.06,-1.1695 30.398,0.0837 3.237,0.3925 6.48,0.8811 9.699,1.4688 7.979,1.4559 15.796,3.5169 23.046,6.0549 10.175,3.562 19.218,8.07 26.14,13.489"
         style="fill:none;stroke:#000000;stroke-width:0.105833;stroke-linecap:butt;stroke-linejoin:miter;stroke-dasharray:none;stroke-opacity:1"
         id="path2750" />
      <path
         d="m 19.4085,136.886 c 23.6029,9.009 50.3438,9.364 74.2658,1.563 9.9877,-3.257 19.4727,-7.9 28.4487,-13.449 0.287,-0.177 0.574,-0.356 0.86,-0.535 8.644,-5.417 16.874,-11.595 25.544,-16.463 3.99,-2.238 8.034,-4.199 12.225,-5.795 5.143,-1.966 10.483,-3.3457 15.918,-4.2343 9.857,-1.6054 20.122,-1.5648 30.462,-0.3722 3.238,0.3735 6.478,0.8559 9.694,1.4503 7.969,1.4732 15.765,3.6292 23.001,6.3362 10.155,3.799 19.196,8.689 26.165,14.575"
         style="fill:none;stroke:#000000;stroke-width:0.105833;stroke-linecap:butt;stroke-linejoin:miter;stroke-dasharray:none;stroke-opacity:1"
         id="path2752" />
      <path
         d="m 19.6114,137.295 c 23.6068,8.942 50.2809,9.337 74.2415,1.686 10.0041,-3.194 19.5261,-7.762 28.5001,-13.295 0.287,-0.178 0.574,-0.356 0.86,-0.535 8.64,-5.406 16.819,-11.628 25.435,-16.64 3.965,-2.305 7.991,-4.354 12.171,-6.045 5.133,-2.082 10.475,-3.5869 15.923,-4.5913 9.878,-1.8158 20.184,-1.96 30.526,-0.828 3.239,0.3545 6.477,0.8307 9.689,1.4318 7.959,1.4894 15.734,3.7405 22.956,6.6175 10.136,4.036 19.174,9.308 26.191,15.661"
         style="fill:none;stroke:#000000;stroke-width:0.105833;stroke-linecap:butt;stroke-linejoin:miter;stroke-dasharray:none;stroke-opacity:1"
         id="path2754" />
      <path
         d="m 19.8143,137.704 c 23.6106,8.874 50.218,9.31 74.2172,1.809 10.0215,-3.131 19.5795,-7.623 28.5525,-13.142 0.287,-0.177 0.573,-0.354 0.859,-0.533 8.635,-5.395 16.763,-11.661 25.326,-16.819 3.94,-2.371 7.947,-4.508 12.118,-6.294 5.122,-2.198 10.466,-3.8282 15.926,-4.9482 9.901,-2.0262 20.246,-2.3553 30.591,-1.284 3.24,0.3355 6.476,0.8057 9.684,1.4134 7.949,1.506 15.703,3.8528 22.911,6.8988 10.117,4.274 19.152,9.927 26.216,16.747"
         style="fill:none;stroke:#000000;stroke-width:0.105833;stroke-linecap:butt;stroke-linejoin:miter;stroke-dasharray:none;stroke-opacity:1"
         id="path2756" />
      <path
         d="m 20.0172,138.113 c 23.6145,8.806 50.1551,9.282 74.193,1.932 10.0378,-3.069 19.6328,-7.485 28.6038,-12.989 0.287,-0.176 0.574,-0.353 0.86,-0.531 8.63,-5.385 16.706,-11.695 25.216,-16.997 3.916,-2.438 7.904,-4.664 12.064,-6.544 5.112,-2.314 10.458,-4.0695 15.931,-5.3052 9.922,-2.2366 20.308,-2.7504 30.656,-1.7398 3.24,0.3165 6.474,0.7805 9.678,1.3949 7.939,1.5225 15.672,3.9651 22.867,7.1791 10.097,4.512 19.129,10.547 26.241,17.834"
         style="fill:none;stroke:#000000;stroke-width:0.105833;stroke-linecap:butt;stroke-linejoin:miter;stroke-dasharray:none;stroke-opacity:1"
         id="path2758" />
      <path
         d="m 20.2201,138.521 c 23.6183,8.739 50.0922,9.256 74.1687,2.056 10.0542,-3.006 19.6862,-7.346 28.6562,-12.835 0.287,-0.176 0.573,-0.353 0.859,-0.531 8.625,-5.373 16.65,-11.727 25.108,-17.175 3.89,-2.505 7.859,-4.818 12.01,-6.793 5.101,-2.43 10.449,-4.3108 15.935,-5.6621 9.943,-2.4471 20.37,-3.1457 30.72,-2.1957 3.241,0.2975 6.473,0.7553 9.673,1.3764 7.93,1.5391 15.641,4.0764 22.822,7.4604 10.078,4.749 19.107,11.165 26.266,18.92"
         style="fill:none;stroke:#000000;stroke-width:0.105833;stroke-linecap:butt;stroke-linejoin:miter;stroke-dasharray:none;stroke-opacity:1"
         id="path2760" />
      <path
         d="m 20.423,138.93 c 23.6222,8.671 50.0292,9.229 74.1444,2.18 10.0706,-2.944 19.7396,-7.209 28.7086,-12.683 0.287,-0.175 0.573,-0.351 0.858,-0.529 8.62,-5.362 16.594,-11.761 24.999,-17.353 3.865,-2.572 7.815,-4.973 11.956,-7.043 5.091,-2.546 10.441,-4.5521 15.939,-6.019 9.965,-2.6576 20.432,-3.541 30.785,-2.6517 3.242,0.2785 6.472,0.7302 9.668,1.358 7.92,1.5557 15.61,4.1887 22.777,7.7417 10.058,4.986 19.086,11.784 26.292,20.006"
         style="fill:none;stroke:#000000;stroke-width:0.105833;stroke-linecap:butt;stroke-linejoin:miter;stroke-dasharray:none;stroke-opacity:1"
         id="path2762" />
    </g>
    <g
       id="g2846"
       style="stroke-width:0.105833;stroke-dasharray:none">
      <path
         d="m 20.7159,139.556 c 6.1656,2.01 12.4989,3.467 18.9107,4.383 5.2331,0.747 10.5206,1.127 15.907,1.184 3.5908,0.038 7.2234,-0.06 10.8632,-0.283 3.639,-0.223 7.2848,-0.57 10.9072,-1.045 7.2462,-0.951 14.3921,-2.412 21.2942,-4.439 8.9308,-2.623 17.4618,-6.198 25.4248,-10.776 4.345,-2.498 8.524,-5.272 12.689,-8.109 7.88,-5.369 15.71,-10.97 24.398,-15.296 2.177,-1.085 4.403,-2.081 6.668,-2.99 11.303,-4.5329 23.586,-6.8678 35.718,-6.826 4.85,0.0167 9.677,0.4137 14.408,1.2058 7.103,1.1891 13.974,3.2648 20.408,6.1282 10.718,4.771 20.22,11.733 27.612,20.443"
         style="fill:none;stroke:#000000;stroke-width:0.105833;stroke-linecap:butt;stroke-linejoin:miter;stroke-dasharray:none;stroke-opacity:1"
         id="path2766" />
      <path
         d="m 20.806,139.774 c 6.0709,1.74 12.287,2.936 18.5603,3.602 5.1202,0.544 10.2829,0.72 15.6268,0.615 3.5626,-0.07 7.2013,-0.252 10.8616,-0.523 3.6597,-0.271 7.3399,-0.632 10.9955,-1.09 7.3125,-0.915 14.5124,-2.219 21.4299,-4.034 8.9509,-2.349 17.4439,-5.562 25.4009,-9.769 4.342,-2.295 8.527,-4.864 12.717,-7.511 7.927,-5.011 15.87,-10.32 24.665,-14.475 2.204,-1.042 4.457,-2.004 6.749,-2.886 11.433,-4.4 23.829,-6.8061 35.987,-7.0151 4.862,-0.0835 9.685,0.1849 14.397,0.8248 7.075,0.9607 13.883,2.7553 20.212,5.3053 10.544,4.249 19.757,10.6 26.778,18.723"
         style="fill:none;stroke:#000000;stroke-width:0.105833;stroke-linecap:butt;stroke-linejoin:miter;stroke-dasharray:none;stroke-opacity:1"
         id="path2768" />
      <path
         d="m 20.896,139.992 c 5.9763,1.47 12.0751,2.405 18.21,2.822 5.0073,0.34 10.0452,0.313 15.3467,0.045 3.5343,-0.179 7.179,-0.443 10.86,-0.763 3.6803,-0.319 7.395,-0.694 11.0838,-1.134 7.3788,-0.88 14.6326,-2.027 21.5656,-3.63 8.9709,-2.075 17.4269,-4.927 25.3769,-8.762 4.339,-2.092 8.53,-4.455 12.745,-6.913 7.975,-4.653 16.029,-9.669 24.932,-13.655 2.231,-0.998 4.511,-1.926 6.829,-2.781 11.565,-4.267 24.072,-6.7445 36.257,-7.2042 4.873,-0.1838 9.693,-0.044 14.386,0.4438 7.047,0.7323 13.792,2.2454 20.016,4.4824 10.371,3.726 19.294,9.468 25.944,17.003"
         style="fill:none;stroke:#000000;stroke-width:0.105833;stroke-linecap:butt;stroke-linejoin:miter;stroke-dasharray:none;stroke-opacity:1"
         id="path2770" />
      <path
         d="m 20.9861,140.209 c 5.8817,1.201 11.8631,1.875 17.8597,2.042 4.8943,0.137 9.8074,-0.093 15.0664,-0.524 3.506,-0.287 7.1569,-0.635 10.8584,-1.002 3.7009,-0.368 7.4502,-0.757 11.1721,-1.179 7.4452,-0.846 14.7529,-1.836 21.7014,-3.227 8.9909,-1.801 17.4089,-4.29 25.3529,-7.754 4.337,-1.889 8.533,-4.047 12.773,-6.316 8.022,-4.294 16.188,-9.018 25.199,-12.833 2.258,-0.956 4.565,-1.848 6.909,-2.677 11.696,-4.134 24.315,-6.683 36.528,-7.3932 4.883,-0.2841 9.7,-0.273 14.375,0.0626 7.017,0.504 13.7,1.7366 19.82,3.6596 10.196,3.203 18.83,8.335 25.11,15.283"
         style="fill:none;stroke:#000000;stroke-width:0.105833;stroke-linecap:butt;stroke-linejoin:miter;stroke-dasharray:none;stroke-opacity:1"
         id="path2772" />
      <path
         d="m 21.0762,140.427 c 5.787,0.931 11.6511,1.343 17.5093,1.262 4.7813,-0.067 9.5698,-0.5 14.7863,-1.093 3.4777,-0.396 7.1347,-0.828 10.8568,-1.243 3.7215,-0.416 7.5053,-0.818 11.2604,-1.224 7.5114,-0.81 14.8731,-1.643 21.837,-2.822 9.01,-1.527 17.392,-3.654 25.33,-6.747 4.333,-1.686 8.535,-3.638 12.8,-5.718 8.069,-3.936 16.347,-8.367 25.466,-12.012 2.286,-0.913 4.619,-1.771 6.99,-2.573 11.826,-4.001 24.558,-6.621 36.797,-7.582 4.894,-0.385 9.708,-0.502 14.364,-0.319 6.989,0.276 13.608,1.227 19.624,2.836 10.022,2.681 18.367,7.204 24.276,13.563"
         style="fill:none;stroke:#000000;stroke-width:0.105833;stroke-linecap:butt;stroke-linejoin:miter;stroke-dasharray:none;stroke-opacity:1"
         id="path2774" />
      <path
         d="m 21.1662,140.645 c 5.6925,0.661 11.4392,0.812 17.159,0.481 4.6684,-0.27 9.3321,-0.906 14.5061,-1.662 3.4495,-0.504 7.1126,-1.019 10.8552,-1.483 3.7421,-0.464 7.5604,-0.88 11.3487,-1.268 7.5778,-0.776 14.9934,-1.451 21.9728,-2.418 9.03,-1.253 17.375,-3.019 25.306,-5.74 4.33,-1.482 8.538,-3.229 12.828,-5.12 8.116,-3.578 16.507,-7.717 25.733,-11.191 2.313,-0.871 4.673,-1.693 7.07,-2.469 11.958,-3.868 24.801,-6.559 37.068,-7.771 4.904,-0.485 9.715,-0.731 14.352,-0.7 6.961,0.047 13.517,0.717 19.428,2.013 9.849,2.158 17.904,6.071 23.442,11.843"
         style="fill:none;stroke:#000000;stroke-width:0.105833;stroke-linecap:butt;stroke-linejoin:miter;stroke-dasharray:none;stroke-opacity:1"
         id="path2776" />
      <path
         d="m 21.2563,140.863 c 5.5978,0.391 11.2272,0.281 16.8087,-0.299 4.5554,-0.474 9.0943,-1.314 14.2259,-2.232 3.4212,-0.613 7.0904,-1.211 10.8536,-1.723 3.7627,-0.512 7.6155,-0.942 11.437,-1.312 7.644,-0.741 15.1136,-1.26 22.1084,-2.015 9.0501,-0.978 17.3571,-2.382 25.2821,-4.732 4.327,-1.279 8.541,-2.821 12.856,-4.522 8.163,-3.221 16.666,-7.066 26,-10.37 2.34,-0.828 4.727,-1.616 7.15,-2.365 12.089,-3.735 25.045,-6.498 37.338,-7.961 4.916,-0.584 9.723,-0.959 14.341,-1.08 6.933,-0.181 13.426,0.208 19.233,1.19 9.674,1.635 17.44,4.939 22.607,10.123"
         style="fill:none;stroke:#000000;stroke-width:0.105833;stroke-linecap:butt;stroke-linejoin:miter;stroke-dasharray:none;stroke-opacity:1"
         id="path2778" />
      <path
         d="m 21.3463,141.08 c 5.5033,0.122 11.0153,-0.249 16.4584,-1.078 4.4425,-0.677 8.8566,-1.721 13.9457,-2.802 3.3929,-0.721 7.0682,-1.402 10.8521,-1.963 3.7832,-0.56 7.6706,-1.004 11.5252,-1.356 7.7104,-0.707 15.234,-1.068 22.2442,-1.611 9.0691,-0.705 17.3401,-1.747 25.2581,-3.725 4.324,-1.076 8.544,-2.412 12.884,-3.924 8.21,-2.863 16.825,-6.416 26.268,-9.549 2.366,-0.786 4.78,-1.539 7.229,-2.261 12.22,-3.602 25.288,-6.436 37.608,-8.15 4.927,-0.685 9.731,-1.188 14.33,-1.461 6.905,-0.41 13.335,-0.302 19.037,0.366 9.5,1.114 16.977,3.807 21.774,8.404"
         style="fill:none;stroke:#000000;stroke-width:0.105833;stroke-linecap:butt;stroke-linejoin:miter;stroke-dasharray:none;stroke-opacity:1"
         id="path2780" />
      <path
         d="m 21.4364,141.298 c 5.4086,-0.149 10.8033,-0.78 16.108,-1.859 4.3296,-0.88 8.619,-2.127 13.6656,-3.371 3.3646,-0.829 7.046,-1.594 10.8504,-2.203 3.8039,-0.608 7.7257,-1.065 11.6136,-1.401 7.7767,-0.671 15.3542,-0.876 22.3799,-1.207 9.0891,-0.43 17.3221,-1.11 25.2341,-2.717 4.321,-0.873 8.547,-2.004 12.913,-3.326 8.257,-2.505 16.983,-5.765 26.534,-8.728 2.393,-0.743 4.834,-1.461 7.31,-2.157 12.351,-3.47 25.53,-6.375 37.878,-8.339 4.937,-0.785 9.738,-1.417 14.319,-1.842 6.876,-0.638 13.242,-0.812 18.84,-0.457 9.327,0.591 16.514,2.675 20.94,6.683"
         style="fill:none;stroke:#000000;stroke-width:0.105833;stroke-linecap:butt;stroke-linejoin:miter;stroke-dasharray:none;stroke-opacity:1"
         id="path2782" />
      <path
         d="m 21.5265,141.516 c 5.3139,-0.419 10.5914,-1.311 15.7577,-2.639 4.2166,-1.084 8.3812,-2.534 13.3853,-3.94 3.3364,-0.939 7.0239,-1.787 10.8489,-2.443 3.8244,-0.657 7.7808,-1.128 11.7018,-1.446 7.843,-0.636 15.4745,-0.684 22.5156,-0.803 9.1092,-0.156 17.3052,-0.474 25.2112,-1.709 4.317,-0.671 8.549,-1.596 12.94,-2.729 8.304,-2.147 17.143,-5.115 26.801,-7.908 2.42,-0.7 4.888,-1.383 7.39,-2.052 12.482,-3.337 25.774,-6.313 38.148,-8.528 4.948,-0.885 9.746,-1.646 14.308,-2.223 6.848,-0.866 13.151,-1.321 18.645,-1.28 9.152,0.068 16.05,1.542 20.105,4.963"
         style="fill:none;stroke:#000000;stroke-width:0.105833;stroke-linecap:butt;stroke-linejoin:miter;stroke-dasharray:none;stroke-opacity:1"
         id="path2784" />
      <path
         d="m 21.6165,141.733 c 5.2194,-0.688 10.3795,-1.841 15.4074,-3.419 4.1037,-1.287 8.1435,-2.94 13.1052,-4.509 3.3081,-1.047 7.0017,-1.978 10.8472,-2.683 3.8451,-0.705 7.836,-1.19 11.7902,-1.49 7.9093,-0.602 15.5947,-0.492 22.6513,-0.399 9.1292,0.117 17.2872,0.161 25.1872,-0.702 4.314,-0.467 8.552,-1.188 12.968,-2.131 8.351,-1.789 17.302,-4.464 27.068,-7.087 2.447,-0.657 4.942,-1.306 7.47,-1.948 12.613,-3.204 26.017,-6.251 38.419,-8.717 4.958,-0.986 9.753,-1.875 14.296,-2.604 6.82,-1.095 13.06,-1.831 18.449,-2.103 8.978,-0.455 15.587,0.41 19.272,3.243"
         style="fill:none;stroke:#000000;stroke-width:0.105833;stroke-linecap:butt;stroke-linejoin:miter;stroke-dasharray:none;stroke-opacity:1"
         id="path2786" />
      <path
         d="m 21.7066,141.951 c 5.1247,-0.958 10.1675,-2.372 15.057,-4.199 3.9908,-1.491 7.9058,-3.348 12.8251,-5.079 3.2797,-1.155 6.9794,-2.17 10.8456,-2.923 3.8656,-0.753 7.8911,-1.251 11.8784,-1.535 7.9757,-0.566 15.715,-0.3 22.7871,0.005 9.1482,0.392 17.2702,0.798 25.1632,0.306 4.311,-0.264 8.555,-0.779 12.996,-1.533 8.398,-1.432 17.461,-3.814 27.335,-6.266 2.475,-0.614 4.996,-1.228 7.551,-1.844 12.744,-3.071 26.259,-6.19 38.688,-8.906 4.97,-1.086 9.761,-2.104 14.285,-2.986 6.792,-1.322 12.969,-2.34 18.253,-2.926 8.805,-0.977 15.124,-0.722 18.438,1.524"
         style="fill:none;stroke:#000000;stroke-width:0.105833;stroke-linecap:butt;stroke-linejoin:miter;stroke-dasharray:none;stroke-opacity:1"
         id="path2788" />
      <path
         d="m 21.7966,142.169 c 5.0302,-1.228 9.9556,-2.903 14.7068,-4.98 3.8778,-1.694 7.6681,-3.754 12.5448,-5.648 3.2515,-1.263 6.9573,-2.362 10.844,-3.163 3.8863,-0.801 7.9462,-1.313 11.9667,-1.579 8.042,-0.532 15.8353,-0.108 22.9228,0.409 9.1683,0.666 17.2523,1.433 25.1393,1.313 4.308,-0.061 8.558,-0.37 13.024,-0.936 8.445,-1.073 17.62,-3.162 27.602,-5.444 2.502,-0.572 5.05,-1.151 7.631,-1.74 12.875,-2.938 26.503,-6.128 38.958,-9.095 4.981,-1.186 9.769,-2.333 14.274,-3.367 6.764,-1.551 12.877,-2.849 18.058,-3.749 8.63,-1.499 14.66,-1.854 17.603,-0.197"
         style="fill:none;stroke:#000000;stroke-width:0.105833;stroke-linecap:butt;stroke-linejoin:miter;stroke-dasharray:none;stroke-opacity:1"
         id="path2790" />
      <path
         d="m 21.8867,142.387 c 4.9355,-1.498 9.7436,-3.435 14.3564,-5.76 3.7649,-1.898 7.4304,-4.161 12.2647,-6.218 3.2232,-1.372 6.9351,-2.553 10.8424,-3.403 3.9068,-0.849 8.0013,-1.375 12.055,-1.623 8.1083,-0.497 15.9555,0.084 23.0585,0.812 9.1883,0.94 17.2353,2.07 25.1153,2.321 4.305,0.142 8.561,0.038 13.052,-0.338 8.492,-0.715 17.78,-2.512 27.869,-4.623 2.529,-0.529 5.104,-1.073 7.711,-1.636 13.007,-2.805 26.746,-6.066 39.229,-9.284 4.991,-1.287 9.776,-2.562 14.263,-3.748 6.734,-1.779 12.785,-3.359 17.861,-4.572 8.456,-2.022 14.197,-2.986 16.769,-1.917"
         style="fill:none;stroke:#000000;stroke-width:0.105833;stroke-linecap:butt;stroke-linejoin:miter;stroke-dasharray:none;stroke-opacity:1"
         id="path2792" />
      <path
         d="m 21.9768,142.604 c 4.8408,-1.767 9.5316,-3.965 14.006,-6.54 3.652,-2.101 7.1927,-4.567 11.9845,-6.786 3.195,-1.481 6.913,-2.746 10.8408,-3.644 3.9275,-0.897 8.0565,-1.437 12.1433,-1.668 8.1746,-0.462 16.0758,0.276 23.1942,1.217 9.2074,1.214 17.2174,2.705 25.0924,3.328 4.301,0.345 8.563,0.447 13.079,0.26 8.54,-0.357 17.939,-1.861 28.136,-3.802 2.556,-0.487 5.158,-0.996 7.791,-1.532 13.138,-2.672 26.989,-6.005 39.499,-9.473 5.002,-1.387 9.784,-2.791 14.252,-4.129 6.706,-2.008 12.694,-3.868 17.665,-5.395 8.283,-2.545 13.734,-4.119 15.936,-3.637"
         style="fill:none;stroke:#000000;stroke-width:0.105833;stroke-linecap:butt;stroke-linejoin:miter;stroke-dasharray:none;stroke-opacity:1"
         id="path2794" />
      <path
         d="m 22.0668,142.822 c 4.7463,-2.037 9.3197,-4.496 13.6558,-7.32 3.539,-2.305 6.9549,-4.974 11.7043,-7.356 3.1666,-1.589 6.8908,-2.937 10.8392,-3.883 3.948,-0.946 8.1115,-1.499 12.2316,-1.713 8.2409,-0.427 16.196,0.468 23.3299,1.621 9.2274,1.488 17.2004,3.341 25.0684,4.335 4.298,0.549 8.566,0.855 13.107,0.858 8.587,0.001 18.098,-1.211 28.403,-2.981 2.583,-0.444 5.213,-0.919 7.872,-1.428 13.268,-2.539 27.232,-5.943 39.769,-9.662 5.012,-1.487 9.791,-3.02 14.24,-4.51 6.678,-2.236 12.603,-4.378 17.47,-6.219 8.108,-3.067 13.27,-5.2504 15.101,-5.3562"
         style="fill:none;stroke:#000000;stroke-width:0.105833;stroke-linecap:butt;stroke-linejoin:miter;stroke-dasharray:none;stroke-opacity:1"
         id="path2796" />
      <path
         d="m 22.1569,143.04 c 4.6516,-2.307 9.1077,-5.027 13.3054,-8.1 3.426,-2.509 6.7173,-5.382 11.4241,-7.926 3.1384,-1.698 6.8686,-3.129 10.8377,-4.123 3.9686,-0.995 8.1666,-1.561 12.3198,-1.757 8.3073,-0.392 16.3163,0.66 23.4657,2.024 9.2474,1.763 17.1824,3.978 25.0444,5.343 4.295,0.752 8.569,1.264 13.135,1.456 8.634,0.358 18.258,-0.56 28.671,-2.161 2.609,-0.401 5.266,-0.84 7.951,-1.323 13.4,-2.406 27.475,-5.881 40.039,-9.851 5.024,-1.588 9.799,-3.249 14.229,-4.891 6.65,-2.465 12.511,-4.888 17.274,-7.042 7.934,-3.59 12.807,-6.3829 14.267,-7.0764"
         style="fill:none;stroke:#000000;stroke-width:0.105833;stroke-linecap:butt;stroke-linejoin:miter;stroke-dasharray:none;stroke-opacity:1"
         id="path2798" />
      <path
         d="m 22.2469,143.258 c 4.5571,-2.578 8.8959,-5.558 12.9551,-8.881 3.3131,-2.712 6.4796,-5.788 11.144,-8.495 3.1101,-1.806 6.8464,-3.321 10.836,-4.363 3.9892,-1.043 8.2218,-1.623 12.4082,-1.801 8.3735,-0.358 16.4365,0.851 23.6013,2.428 9.2665,2.036 17.1655,4.613 25.0205,6.35 4.292,0.955 8.573,1.673 13.163,2.054 8.681,0.716 18.417,0.09 28.938,-1.34 2.636,-0.358 5.32,-0.763 8.031,-1.219 13.531,-2.273 27.718,-5.82 40.309,-10.04 5.035,-1.688 9.807,-3.478 14.218,-5.272 6.622,-2.693 12.42,-5.397 17.078,-7.865 7.761,-4.112 12.344,-7.5154 13.434,-8.7967"
         style="fill:none;stroke:#000000;stroke-width:0.105833;stroke-linecap:butt;stroke-linejoin:miter;stroke-dasharray:none;stroke-opacity:1"
         id="path2800" />
      <path
         d="m 22.337,143.475 c 4.4624,-2.847 8.6839,-6.088 12.6048,-9.66 3.2001,-2.916 6.2418,-6.195 10.8637,-9.065 3.0819,-1.914 6.8243,-3.512 10.8345,-4.603 4.0098,-1.091 8.2769,-1.684 12.4964,-1.846 8.4399,-0.322 16.5569,1.044 23.7371,2.833 9.2865,2.31 17.1475,5.249 24.9965,7.357 4.289,1.158 8.576,2.081 13.192,2.652 8.727,1.074 18.575,0.741 29.204,-0.519 2.664,-0.316 5.374,-0.685 8.112,-1.114 13.661,-2.141 27.961,-5.759 40.579,-10.231 5.045,-1.787 9.814,-3.706 14.206,-5.653 6.594,-2.921 12.329,-5.906 16.882,-8.687 7.587,-4.635 11.881,-8.6478 12.6,-10.5169"
         style="fill:none;stroke:#000000;stroke-width:0.105833;stroke-linecap:butt;stroke-linejoin:miter;stroke-dasharray:none;stroke-opacity:1"
         id="path2802" />
      <path
         d="m 22.427,143.693 c 4.3678,-3.117 8.472,-6.619 12.2545,-10.441 3.0872,-3.119 6.0041,-6.601 10.5836,-9.634 3.0535,-2.022 6.8021,-3.704 10.8328,-4.843 4.0304,-1.139 8.332,-1.746 12.5848,-1.89 8.5061,-0.288 16.6771,1.235 23.8728,3.236 9.3065,2.585 17.1305,5.885 24.9735,8.365 4.285,1.361 8.578,2.49 13.219,3.25 8.774,1.432 18.734,1.391 29.471,0.302 2.691,-0.273 5.428,-0.608 8.192,-1.01 13.793,-2.008 28.204,-5.697 40.849,-10.42 5.056,-1.888 9.822,-3.935 14.196,-6.034 6.565,-3.149 12.237,-6.416 16.686,-9.511 7.412,-5.1571 11.417,-9.7793 11.765,-12.2361"
         style="fill:none;stroke:#000000;stroke-width:0.105833;stroke-linecap:butt;stroke-linejoin:miter;stroke-dasharray:none;stroke-opacity:1"
         id="path2804" />
      <path
         d="m 22.5171,143.911 c 4.2732,-3.387 8.26,-7.15 11.9041,-11.221 2.9743,-3.323 5.7665,-7.008 10.3034,-10.203 3.0253,-2.132 6.7799,-3.897 10.8313,-5.084 4.051,-1.187 8.3871,-1.808 12.673,-1.934 8.5725,-0.253 16.7974,1.427 24.0085,3.64 9.3266,2.858 17.1126,6.521 24.9496,9.373 4.282,1.564 8.581,2.897 13.247,3.847 8.822,1.79 18.894,2.042 29.738,1.123 2.718,-0.23 5.482,-0.531 8.272,-0.906 13.924,-1.875 28.448,-5.636 41.12,-10.609 5.066,-1.988 9.829,-4.164 14.184,-6.415 6.537,-3.378 12.145,-6.925 16.49,-10.334 7.239,-5.6799 10.954,-10.9118 10.931,-13.9564"
         style="fill:none;stroke:#000000;stroke-width:0.105833;stroke-linecap:butt;stroke-linejoin:miter;stroke-dasharray:none;stroke-opacity:1"
         id="path2806" />
      <path
         d="m 22.6072,144.128 c 4.1785,-3.656 8.048,-7.68 11.5538,-12.001 2.8613,-3.526 5.5287,-7.415 10.0232,-10.772 2.997,-2.24 6.7577,-4.088 10.8296,-5.324 4.0716,-1.235 8.4423,-1.87 12.7614,-1.979 8.6388,-0.217 16.9176,1.62 24.1442,4.044 9.3456,3.133 17.0956,7.157 24.9256,10.381 4.279,1.767 8.584,3.306 13.275,4.444 8.869,2.148 19.053,2.693 30.005,1.945 2.745,-0.188 5.536,-0.453 8.353,-0.802 14.054,-1.743 28.69,-5.574 41.389,-10.798 5.078,-2.088 9.837,-4.393 14.173,-6.796 6.509,-3.606 12.054,-7.435 16.294,-11.157 7.065,-6.2027 10.491,-12.0442 10.098,-15.6766"
         style="fill:none;stroke:#000000;stroke-width:0.105833;stroke-linecap:butt;stroke-linejoin:miter;stroke-dasharray:none;stroke-opacity:1"
         id="path2808" />
      <path
         d="m 22.6972,144.346 c 4.084,-3.926 7.8361,-8.211 11.2035,-12.781 2.7484,-3.73 5.291,-7.822 9.743,-11.342 2.9688,-2.348 6.7356,-4.28 10.8281,-5.563 4.0922,-1.284 8.4974,-1.932 12.8496,-2.024 8.7051,-0.183 17.0379,1.811 24.2799,4.448 9.3657,3.407 17.0777,7.793 24.9017,11.388 4.276,1.97 8.587,3.714 13.303,5.042 8.916,2.506 19.212,3.344 30.272,2.766 2.772,-0.145 5.59,-0.376 8.433,-0.698 14.186,-1.61 28.933,-5.512 41.659,-10.987 5.089,-2.189 9.845,-4.622 14.162,-7.177 6.48,-3.835 11.963,-7.945 16.099,-11.981 6.89,-6.7245 10.027,-13.1757 9.263,-17.3958"
         style="fill:none;stroke:#000000;stroke-width:0.105833;stroke-linecap:butt;stroke-linejoin:miter;stroke-dasharray:none;stroke-opacity:1"
         id="path2810" />
      <path
         d="m 22.7873,144.564 c 3.9893,-4.196 7.6241,-8.743 10.8531,-13.561 2.6355,-3.934 5.0533,-8.229 9.4629,-11.912 2.9405,-2.456 6.7134,-4.472 10.8265,-5.803 4.1127,-1.332 8.5524,-1.994 12.9379,-2.068 8.7714,-0.148 17.1581,2.003 24.4156,4.852 9.3857,3.681 17.0607,8.429 24.8777,12.395 4.273,2.173 8.59,4.123 13.331,5.64 8.963,2.864 19.371,3.994 30.539,3.586 2.799,-0.102 5.644,-0.297 8.513,-0.593 14.317,-1.477 29.177,-5.451 41.93,-11.176 5.099,-2.289 9.852,-4.851 14.15,-7.558 6.452,-4.063 11.872,-8.454 15.903,-12.804 6.717,-7.2473 9.564,-14.3082 8.429,-19.116"
         style="fill:none;stroke:#000000;stroke-width:0.105833;stroke-linecap:butt;stroke-linejoin:miter;stroke-dasharray:none;stroke-opacity:1"
         id="path2812" />
      <path
         d="m 22.8773,144.782 c 3.8947,-4.466 7.4122,-9.274 10.5029,-14.342 2.5225,-4.136 4.8156,-8.635 9.1826,-12.481 2.9122,-2.565 6.6913,-4.663 10.8249,-6.043 4.1334,-1.38 8.6076,-2.056 13.0262,-2.112 8.8378,-0.114 17.2784,2.195 24.5514,5.255 9.4047,3.955 17.0427,9.065 24.8547,13.403 4.269,2.376 8.592,4.532 13.358,6.238 9.01,3.222 19.531,4.645 30.806,4.407 2.826,-0.059 5.698,-0.22 8.593,-0.489 14.448,-1.344 29.42,-5.389 42.2,-11.365 5.11,-2.39 9.86,-5.08 14.14,-7.939 6.423,-4.292 11.779,-8.964 15.706,-13.627 6.543,-7.7701 9.101,-15.4407 7.596,-20.8363"
         style="fill:none;stroke:#000000;stroke-width:0.105833;stroke-linecap:butt;stroke-linejoin:miter;stroke-dasharray:none;stroke-opacity:1"
         id="path2814" />
      <path
         d="m 22.9674,144.999 c 3.8001,-4.735 7.2003,-9.804 10.1525,-15.121 2.4096,-4.34 4.5779,-9.043 8.9025,-13.05 2.8839,-2.674 6.669,-4.856 10.8233,-6.284 4.1539,-1.428 8.6627,-2.118 13.1145,-2.157 8.904,-0.078 17.3986,2.387 24.687,5.66 9.4248,4.229 17.0258,9.701 24.8308,14.41 4.266,2.58 8.595,4.94 13.386,6.836 9.058,3.58 19.69,5.295 31.073,5.228 2.854,-0.017 5.752,-0.143 8.674,-0.385 14.579,-1.211 29.662,-5.327 42.47,-11.554 5.12,-2.49 9.867,-5.309 14.128,-8.32 6.395,-4.52 11.688,-9.474 15.511,-14.45 6.368,-8.293 8.637,-16.5731 6.761,-22.5565"
         style="fill:none;stroke:#000000;stroke-width:0.105833;stroke-linecap:butt;stroke-linejoin:miter;stroke-dasharray:none;stroke-opacity:1"
         id="path2816" />
      <path
         d="m 23.0575,145.217 c 3.7054,-5.005 6.9883,-10.335 9.8021,-15.902 2.2967,-4.543 4.3402,-9.449 8.6223,-13.619 2.8557,-2.782 6.6469,-5.047 10.8217,-6.524 4.1746,-1.476 8.7178,-2.179 13.2028,-2.201 8.9704,-0.044 17.5189,2.579 24.8228,6.063 9.4446,4.504 17.0078,10.337 24.8068,15.418 4.263,2.783 8.598,5.349 13.414,7.434 9.105,3.937 19.849,5.946 31.341,6.049 2.88,0.026 5.805,-0.065 8.753,-0.281 14.71,-1.078 29.906,-5.266 42.74,-11.743 5.132,-2.59 9.875,-5.538 14.117,-8.702 6.367,-4.748 11.597,-9.982 15.315,-15.273 6.195,-8.8148 8.174,-17.7046 5.927,-24.2757"
         style="fill:none;stroke:#000000;stroke-width:0.105833;stroke-linecap:butt;stroke-linejoin:miter;stroke-dasharray:none;stroke-opacity:1"
         id="path2818" />
      <path
         d="m 23.1475,145.435 c 3.6109,-5.276 6.7764,-10.866 9.4519,-16.682 2.1837,-4.747 4.1024,-9.856 8.3421,-14.189 2.8274,-2.891 6.6247,-5.239 10.8201,-6.764 4.1951,-1.524 8.7729,-2.241 13.291,-2.245 9.0367,-0.009 17.6392,2.771 24.9585,6.467 9.4644,4.777 16.9909,10.973 24.7829,16.425 4.26,2.986 8.601,5.757 13.442,8.032 9.152,4.295 20.008,6.596 31.608,6.87 2.907,0.068 5.859,0.012 8.833,-0.177 14.841,-0.945 30.149,-5.204 43.01,-11.932 5.143,-2.691 9.883,-5.767 14.106,-9.083 6.339,-4.976 11.506,-10.492 15.119,-16.096 6.021,-9.3376 7.711,-18.8371 5.093,-25.996"
         style="fill:none;stroke:#000000;stroke-width:0.105833;stroke-linecap:butt;stroke-linejoin:miter;stroke-dasharray:none;stroke-opacity:1"
         id="path2820" />
      <path
         d="m 23.2376,145.652 c 3.5162,-5.545 6.5644,-11.396 9.1015,-17.462 2.0707,-4.95 3.8648,-10.262 8.0619,-14.758 2.7991,-2.999 6.6026,-5.431 10.8185,-7.003 4.2158,-1.573 8.8281,-2.304 13.3794,-2.291 9.103,0.027 17.7594,2.963 25.0942,6.872 9.4842,5.051 16.9729,11.609 24.7589,17.432 4.257,3.189 8.604,6.166 13.471,8.63 9.198,4.653 20.167,7.247 31.874,7.691 2.934,0.111 5.913,0.089 8.914,-0.073 14.972,-0.812 30.391,-5.143 43.28,-12.121 5.153,-2.791 9.89,-5.996 14.094,-9.464 6.311,-5.205 11.414,-11.002 14.924,-16.919 5.846,-9.8604 7.247,-19.9695 4.259,-27.7162"
         style="fill:none;stroke:#000000;stroke-width:0.105833;stroke-linecap:butt;stroke-linejoin:miter;stroke-dasharray:none;stroke-opacity:1"
         id="path2822" />
      <path
         d="m 23.3276,145.87 c 3.4216,-5.815 6.3525,-11.927 8.7512,-18.242 1.9578,-5.154 3.6271,-10.669 7.7818,-15.328 2.7708,-3.107 6.5803,-5.622 10.8169,-7.243 4.2363,-1.621 8.8832,-2.365 13.4676,-2.335 9.1694,0.061 17.8798,3.155 25.23,7.275 9.5039,5.326 16.9559,12.245 24.7359,18.44 4.253,3.392 8.606,6.574 13.498,9.228 9.245,5.011 20.326,7.897 32.141,8.512 2.961,0.154 5.967,0.167 8.994,0.031 15.103,-0.679 30.635,-5.081 43.55,-12.311 5.164,-2.89 9.898,-6.224 14.084,-9.844 6.282,-5.433 11.322,-11.511 14.727,-17.742 5.673,-10.3832 6.784,-21.102 3.425,-29.4364"
         style="fill:none;stroke:#000000;stroke-width:0.105833;stroke-linecap:butt;stroke-linejoin:miter;stroke-dasharray:none;stroke-opacity:1"
         id="path2824" />
      <path
         d="m 23.4177,146.088 c 3.327,-6.085 6.1405,-12.458 8.4009,-19.023 1.8448,-5.357 3.3893,-11.076 7.5015,-15.896 2.7426,-3.216 6.5582,-5.815 10.8153,-7.484 4.257,-1.669 8.9383,-2.427 13.556,-2.379 9.2356,0.096 18,3.346 25.3656,7.679 9.5237,5.599 16.938,12.881 24.712,19.447 4.25,3.596 8.609,6.983 13.526,9.826 9.292,5.369 20.485,8.548 32.408,9.332 2.988,0.197 6.021,0.245 9.074,0.136 15.234,-0.546 30.878,-5.019 43.82,-12.5 5.175,-2.991 9.906,-6.453 14.073,-10.225 6.254,-5.662 11.231,-12.021 14.531,-18.566 5.499,-10.905 6.321,-22.2335 2.591,-31.1557"
         style="fill:none;stroke:#000000;stroke-width:0.105833;stroke-linecap:butt;stroke-linejoin:miter;stroke-dasharray:none;stroke-opacity:1"
         id="path2826" />
      <path
         d="m 23.5078,146.306 c 3.2323,-6.355 5.9285,-12.989 8.0505,-19.803 1.7319,-5.561 3.1516,-11.483 7.2214,-16.466 2.7143,-3.325 6.536,-6.007 10.8137,-7.724 4.2775,-1.717 8.9934,-2.4889 13.6442,-2.4235 9.302,0.1305 18.1203,3.5385 25.5014,8.0825 9.5434,5.874 16.921,13.517 24.688,20.456 4.247,3.798 8.612,7.391 13.554,10.422 9.34,5.727 20.644,9.199 32.675,10.154 3.015,0.24 6.075,0.323 9.154,0.24 15.366,-0.413 31.121,-4.958 44.091,-12.689 5.186,-3.091 9.913,-6.682 14.061,-10.606 6.225,-5.89 11.14,-12.53 14.336,-19.389 5.324,-11.4278 5.857,-23.366 1.757,-32.8759"
         style="fill:none;stroke:#000000;stroke-width:0.105833;stroke-linecap:butt;stroke-linejoin:miter;stroke-dasharray:none;stroke-opacity:1"
         id="path2828" />
      <path
         d="m 23.5978,146.523 c 3.1378,-6.624 5.7166,-13.52 7.7002,-20.582 1.619,-5.765 2.914,-11.89 6.9412,-17.036 2.686,-3.433 6.5139,-6.198 10.8122,-7.964 4.2981,-1.7654 9.0485,-2.5506 13.7325,-2.4678 9.3683,0.1656 18.2405,3.7308 25.6371,8.4868 9.5631,6.148 16.903,14.153 24.664,21.463 4.245,4.001 8.615,7.799 13.582,11.02 9.387,6.085 20.804,9.85 32.942,10.975 3.043,0.282 6.129,0.4 9.235,0.344 15.496,-0.28 31.364,-4.896 44.36,-12.878 5.197,-3.191 9.921,-6.911 14.05,-10.987 6.197,-6.119 11.048,-13.04 14.14,-20.212 5.151,-11.9506 5.394,-24.4984 0.923,-34.5961"
         style="fill:none;stroke:#000000;stroke-width:0.105833;stroke-linecap:butt;stroke-linejoin:miter;stroke-dasharray:none;stroke-opacity:1"
         id="path2830" />
      <path
         d="m 23.6879,146.741 c 3.0431,-6.894 5.5047,-14.051 7.3499,-21.363 1.506,-5.968 2.6762,-12.296 6.661,-17.605 2.6577,-3.541 6.4917,-6.39 10.8105,-8.2036 4.3187,-1.8139 9.1036,-2.6128 13.8208,-2.5125 9.4346,0.2005 18.3608,3.9221 25.7728,8.8911 9.5829,6.422 16.8861,14.788 24.6401,22.47 4.242,4.204 8.618,8.208 13.61,11.618 9.434,6.443 20.963,10.5 33.209,11.796 3.07,0.325 6.183,0.477 9.315,0.448 15.627,-0.147 31.607,-4.834 44.631,-13.067 5.207,-3.292 9.928,-7.14 14.038,-11.368 6.169,-6.347 10.957,-13.55 13.944,-21.035 4.977,-12.4734 4.931,-25.6309 0.089,-36.3163"
         style="fill:none;stroke:#000000;stroke-width:0.105833;stroke-linecap:butt;stroke-linejoin:miter;stroke-dasharray:none;stroke-opacity:1"
         id="path2832" />
      <path
         d="m 23.7779,146.959 c 2.9486,-7.164 5.2928,-14.582 6.9996,-22.143 1.3931,-6.172 2.4385,-12.703 6.3808,-18.175 2.6295,-3.65 6.4695,-6.581 10.809,-8.4435 4.3393,-1.8621 9.1587,-2.6746 13.9091,-2.5569 9.5009,0.2354 18.481,4.1144 25.9085,9.2944 9.6026,6.696 16.8681,15.425 24.6171,23.478 4.238,4.407 8.62,8.616 13.637,12.216 9.481,6.801 21.122,11.151 33.476,12.617 3.097,0.367 6.237,0.555 9.395,0.552 15.759,-0.015 31.851,-4.773 44.901,-13.256 5.218,-3.392 9.936,-7.369 14.027,-11.75 6.141,-6.575 10.866,-14.058 13.749,-21.858 4.802,-12.9953 4.467,-26.7624 -0.746,-38.0356"
         style="fill:none;stroke:#000000;stroke-width:0.105833;stroke-linecap:butt;stroke-linejoin:miter;stroke-dasharray:none;stroke-opacity:1"
         id="path2834" />
      <path
         d="m 23.868,147.176 c 2.8539,-7.433 5.0808,-15.112 6.6492,-22.923 1.2802,-6.375 2.2008,-13.11 6.1007,-18.744 2.6012,-3.758 6.4473,-6.773 10.8073,-8.6833 4.36,-1.9103 9.2139,-2.7365 13.9974,-2.6014 9.5672,0.2703 18.6013,4.3063 26.0442,9.6987 9.6224,6.97 16.8512,16.061 24.5932,24.485 4.235,4.611 8.623,9.025 13.665,12.814 9.528,7.159 21.282,11.801 33.744,13.438 3.123,0.41 6.29,0.632 9.475,0.656 15.889,0.118 32.093,-4.711 45.17,-13.445 5.229,-3.492 9.945,-7.598 14.017,-12.131 6.112,-6.803 10.774,-14.568 13.552,-22.681 4.629,-13.5181 4.004,-27.8949 -1.579,-39.7558"
         style="fill:none;stroke:#000000;stroke-width:0.105833;stroke-linecap:butt;stroke-linejoin:miter;stroke-dasharray:none;stroke-opacity:1"
         id="path2836" />
      <path
         d="m 23.958,147.394 c 2.7593,-7.704 4.8689,-15.643 6.299,-23.703 1.1672,-6.579 1.963,-13.517 5.8204,-19.313 2.5729,-3.867 6.4252,-6.9656 10.8058,-8.9242 4.3805,-1.9585 9.269,-2.7983 14.0857,-2.6458 9.6335,0.3051 18.7215,4.4983 26.1799,10.103 9.6421,7.244 16.8332,16.696 24.5692,25.492 4.232,4.814 8.627,9.434 13.693,13.412 9.575,7.516 21.441,12.452 34.011,14.259 3.15,0.452 6.344,0.71 9.555,0.76 16.02,0.251 32.336,-4.649 45.441,-13.634 5.24,-3.593 9.952,-7.827 14.005,-12.512 6.084,-7.032 10.682,-15.078 13.356,-23.504 4.455,-14.0409 3.541,-29.0273 -2.413,-41.476"
         style="fill:none;stroke:#000000;stroke-width:0.105833;stroke-linecap:butt;stroke-linejoin:miter;stroke-dasharray:none;stroke-opacity:1"
         id="path2838" />
      <path
         d="m 24.0481,147.612 c 2.6647,-7.974 4.6569,-16.174 5.9486,-24.484 1.0543,-6.782 1.7254,-13.923 5.5403,-19.882 2.5446,-3.9754 6.403,-7.1573 10.8041,-9.164 4.4012,-2.0067 9.3241,-2.8603 14.174,-2.6903 9.6999,0.34 18.8418,4.6902 26.3157,10.5063 9.6618,7.518 16.8162,17.333 24.5452,26.5 4.229,5.017 8.63,9.842 13.721,14.01 9.623,7.874 21.6,13.102 34.278,15.079 3.177,0.496 6.398,0.788 9.635,0.865 16.152,0.384 32.58,-4.588 45.711,-13.823 5.251,-3.693 9.96,-8.056 13.994,-12.893 6.056,-7.26 10.591,-15.587 13.16,-24.328 4.281,-14.5627 3.078,-30.1588 -3.247,-43.1953"
         style="fill:none;stroke:#000000;stroke-width:0.105833;stroke-linecap:butt;stroke-linejoin:miter;stroke-dasharray:none;stroke-opacity:1"
         id="path2840" />
      <path
         d="m 24.1382,147.83 c 2.57,-8.244 4.4449,-16.705 5.5982,-25.264 0.9414,-6.986 1.4877,-14.33 5.2601,-20.452 2.5164,-4.0837 6.3808,-7.3489 10.8026,-9.4038 4.4217,-2.055 9.3792,-2.9222 14.2623,-2.7348 9.7661,0.3749 18.962,4.8821 26.4513,10.9106 9.6816,7.792 16.7983,17.968 24.5213,27.507 4.226,5.22 8.633,10.251 13.75,14.608 9.669,8.232 21.758,13.753 34.544,15.9 3.204,0.539 6.452,0.865 9.716,0.969 16.282,0.517 32.822,-4.526 45.981,-14.012 5.261,-3.793 9.967,-8.285 13.982,-13.274 6.028,-7.489 10.5,-16.097 12.965,-25.151 4.107,-15.0855 2.614,-31.2913 -4.081,-44.9155"
         style="fill:none;stroke:#000000;stroke-width:0.105833;stroke-linecap:butt;stroke-linejoin:miter;stroke-dasharray:none;stroke-opacity:1"
         id="path2842" />
      <path
         d="m 24.2282,148.047 c 2.4755,-8.513 4.233,-17.235 5.248,-26.044 0.8284,-7.189 1.2499,-14.736 4.9799,-21.021 2.4881,-4.192 6.3586,-7.5405 10.8009,-9.6437 4.4424,-2.1031 9.4344,-2.984 14.3506,-2.7791 9.8325,0.4097 19.0823,5.074 26.5871,11.3142 9.7013,8.0666 16.7813,18.6046 24.4983,28.5146 4.222,5.423 8.635,10.659 13.777,15.206 9.716,8.59 21.918,14.403 34.811,16.721 3.232,0.581 6.506,0.943 9.796,1.073 16.413,0.65 33.065,-4.464 46.251,-14.201 5.272,-3.894 9.975,-8.514 13.971,-13.655 6,-7.717 10.409,-16.607 12.769,-25.974 3.933,-15.6083 2.151,-32.4237 -4.915,-46.6357"
         style="fill:none;stroke:#000000;stroke-width:0.105833;stroke-linecap:butt;stroke-linejoin:miter;stroke-dasharray:none;stroke-opacity:1"
         id="path2844" />
    </g>
  </g>
</svg>
