<?xml version="1.0" encoding="UTF-8" standalone="no"?>
<!-- Created with Inkscape (http://www.inkscape.org/) -->

<svg
   version="1.1"
   id="svg1"
   width="173.71387"
   height="173.68799"
   viewBox="0 0 173.71387 173.68799"
   sodipodi:docname="logo.pdf"
   xmlns:inkscape="http://www.inkscape.org/namespaces/inkscape"
   xmlns:sodipodi="http://sodipodi.sourceforge.net/DTD/sodipodi-0.dtd"
   xmlns="http://www.w3.org/2000/svg"
   xmlns:svg="http://www.w3.org/2000/svg">
  <defs
     id="defs1">
    <clipPath
       clipPathUnits="userSpaceOnUse"
       id="clipPath486">
      <path
         d="M 0,1417.319 H 1417.32 V 0 H 0 Z"
         id="path486" />
    </clipPath>
    <clipPath
       clipPathUnits="userSpaceOnUse"
       id="clipPath560">
      <path
         d="m 1035.71,300.728 h 50.76 v -50.765 h -50.76 z"
         id="path560" />
    </clipPath>
    <clipPath
       clipPathUnits="userSpaceOnUse"
       id="clipPath565">
      <path
         d="m 1016.15,281.892 h 35.89 v -35.896 h -35.89 z"
         id="path565" />
    </clipPath>
    <clipPath
       clipPathUnits="userSpaceOnUse"
       id="clipPath569">
      <path
         d="m 997.691,262.179 h 50.769 v -50.764 h -50.769 z"
         id="path569" />
    </clipPath>
    <clipPath
       clipPathUnits="userSpaceOnUse"
       id="clipPath574">
      <path
         d="m 1016.53,227.754 h 35.89 v -35.896 h -35.89 z"
         id="path574" />
    </clipPath>
    <clipPath
       clipPathUnits="userSpaceOnUse"
       id="clipPath578">
      <path
         d="M 1036.24,224.165 H 1087 V 173.4 h -50.76 z"
         id="path578" />
    </clipPath>
    <clipPath
       clipPathUnits="userSpaceOnUse"
       id="clipPath583">
      <path
         d="m 1070.66,228.131 h 35.9 v -35.896 h -35.9 z"
         id="path583" />
    </clipPath>
    <clipPath
       clipPathUnits="userSpaceOnUse"
       id="clipPath587">
      <path
         d="m 1074.25,262.713 h 50.77 v -50.764 h -50.77 z"
         id="path587" />
    </clipPath>
    <clipPath
       clipPathUnits="userSpaceOnUse"
       id="clipPath592">
      <path
         d="m 1070.29,282.27 h 35.89 v -35.896 h -35.89 z"
         id="path592" />
    </clipPath>
  </defs>
  <sodipodi:namedview
     id="namedview1"
     pagecolor="#ffffff"
     bordercolor="#000000"
     borderopacity="0.25"
     inkscape:showpageshadow="2"
     inkscape:pageopacity="0.0"
     inkscape:pagecheckerboard="0"
     inkscape:deskcolor="#d1d1d1"
     showgrid="false" />
  <g
     id="g479"
     inkscape:groupmode="layer"
     inkscape:label="Page 6"
     transform="matrix(1.3333333,0,0,-1.3333333,-385.67075,403.12486)">
    <g
       id="g485">
      <g
         id="g486"
         clip-path="url(#clipPath486)">
        <g
           id="g487"
           transform="translate(281.3335,1012.2583)">
          <path
             d="M 0,0 C -0.162,-0.397 -0.388,-0.752 -0.678,-1.062 -0.968,-1.373 -1.306,-1.622 -1.69,-1.812 -2.074,-2 -2.489,-2.095 -2.935,-2.095 h -6.253 v 6.639 h 6.396 c 0.431,0 0.832,-0.092 1.203,-0.273 C -1.218,4.089 -0.897,3.842 -0.627,3.532 -0.357,3.222 -0.145,2.867 0.01,2.469 0.165,2.071 0.243,1.656 0.243,1.225 0.243,0.807 0.162,0.398 0,0 m -9.188,11.465 h 5.95 c 0.418,0 0.806,-0.087 1.164,-0.263 0.357,-0.176 0.66,-0.415 0.91,-0.719 0.25,-0.302 0.446,-0.651 0.587,-1.042 0.142,-0.391 0.213,-0.802 0.213,-1.234 0,-0.405 -0.074,-0.8 -0.223,-1.184 C -0.735,6.639 -0.941,6.291 -1.204,5.98 -1.467,5.67 -1.781,5.421 -2.146,5.231 -2.509,5.043 -2.914,4.948 -3.359,4.948 h -5.829 z m 9.117,-7.994 c -0.236,0.324 -0.519,0.607 -0.85,0.85 -0.33,0.243 -0.698,0.425 -1.103,0.546 0.634,0.283 1.137,0.729 1.508,1.336 0.371,0.608 0.557,1.276 0.557,2.004 0,0.445 -0.079,0.887 -0.233,1.325 -0.156,0.439 -0.374,0.83 -0.658,1.174 -0.283,0.344 -0.627,0.624 -1.032,0.84 -0.405,0.216 -0.857,0.324 -1.356,0.324 H -9.593 V -2.499 h 6.658 c 0.486,0 0.948,0.101 1.387,0.304 0.438,0.202 0.819,0.475 1.143,0.819 0.324,0.344 0.58,0.738 0.769,1.184 0.189,0.445 0.284,0.918 0.284,1.417 0,0.404 -0.061,0.799 -0.182,1.184 -0.122,0.384 -0.301,0.738 -0.537,1.062"
             style="fill:#231f20;fill-opacity:1;fill-rule:nonzero;stroke:none"
             id="path487" />
        </g>
        <g
           id="g488"
           transform="translate(290.9873,1015.8101)">
          <path
             d="m 0,0 h -5.586 v 7.913 h 5.444 C 0.357,7.913 0.83,7.802 1.275,7.58 1.72,7.356 2.108,7.063 2.438,6.699 2.769,6.335 3.028,5.917 3.218,5.444 3.406,4.972 3.501,4.479 3.501,3.967 3.501,3.468 3.42,2.981 3.258,2.51 3.096,2.037 2.864,1.616 2.56,1.245 2.256,0.874 1.889,0.573 1.457,0.345 1.025,0.114 0.54,0 0,0 M 2.894,1.002 C 3.218,1.4 3.467,1.855 3.643,2.368 3.818,2.881 3.906,3.413 3.906,3.967 3.906,4.507 3.805,5.036 3.602,5.556 3.4,6.075 3.12,6.541 2.762,6.952 2.405,7.363 1.977,7.693 1.477,7.943 0.978,8.193 0.438,8.318 -0.142,8.318 H -5.991 V -6.051 h 0.405 v 5.647 h 5.343 L 3.4,-6.051 h 0.486 l -3.643,5.647 c 0.539,0.04 1.035,0.185 1.487,0.435 0.452,0.249 0.84,0.573 1.164,0.971"
             style="fill:#231f20;fill-opacity:1;fill-rule:nonzero;stroke:none"
             id="path488" />
        </g>
        <path
           d="m 297.99,1009.759 h 0.405 v 14.369 h -0.405 z"
           style="fill:#231f20;fill-opacity:1;fill-rule:nonzero;stroke:none"
           id="path489" />
        <g
           id="g489"
           transform="translate(313.8057,1014.2212)">
          <path
             d="m 0,0 c -0.358,-0.884 -0.86,-1.662 -1.508,-2.337 l -1.295,1.64 h -0.506 l 1.518,-1.904 c -0.526,-0.471 -1.12,-0.849 -1.781,-1.132 -0.661,-0.284 -1.384,-0.425 -2.166,-0.425 -0.917,0 -1.761,0.188 -2.53,0.566 -0.769,0.377 -1.43,0.887 -1.983,1.529 -0.553,0.64 -0.988,1.376 -1.306,2.206 -0.317,0.829 -0.475,1.689 -0.475,2.58 0,0.849 0.152,1.686 0.455,2.509 0.304,0.823 0.732,1.558 1.285,2.205 0.554,0.649 1.218,1.171 1.994,1.57 0.776,0.397 1.629,0.597 2.56,0.597 0.891,0 1.717,-0.189 2.479,-0.567 C -2.496,8.658 -1.832,8.149 -1.265,7.509 -0.699,6.868 -0.256,6.133 0.061,5.303 0.377,4.473 0.536,3.612 0.536,2.723 0.536,1.792 0.357,0.884 0,0 m -0.911,7.701 c -0.587,0.689 -1.292,1.244 -2.115,1.67 -0.823,0.425 -1.727,0.638 -2.712,0.638 -0.944,0 -1.824,-0.199 -2.641,-0.598 -0.816,-0.397 -1.524,-0.934 -2.125,-1.608 -0.6,-0.676 -1.073,-1.451 -1.416,-2.328 -0.345,-0.877 -0.517,-1.794 -0.517,-2.752 0,-0.918 0.162,-1.815 0.486,-2.693 0.324,-0.877 0.783,-1.652 1.376,-2.327 0.594,-0.675 1.299,-1.221 2.116,-1.64 0.815,-0.417 1.723,-0.626 2.721,-0.626 0.81,0 1.569,0.144 2.277,0.435 0.709,0.29 1.346,0.691 1.913,1.204 l 1.234,-1.538 h 0.506 l -1.457,1.802 c 0.688,0.687 1.228,1.493 1.619,2.418 0.391,0.924 0.587,1.912 0.587,2.965 0,0.889 -0.162,1.77 -0.486,2.64 -0.324,0.87 -0.779,1.65 -1.366,2.338"
             style="fill:#231f20;fill-opacity:1;fill-rule:nonzero;stroke:none"
             id="path490" />
        </g>
        <g
           id="g490"
           transform="translate(328.8525,1016.9438)">
          <path
             d="m 0,0 c 0,-0.837 -0.084,-1.667 -0.253,-2.489 -0.169,-0.824 -0.458,-1.559 -0.87,-2.206 -0.412,-0.648 -0.972,-1.174 -1.68,-1.578 -0.708,-0.406 -1.602,-0.608 -2.681,-0.608 -1.066,0 -1.951,0.195 -2.652,0.587 -0.701,0.391 -1.261,0.911 -1.679,1.558 -0.419,0.648 -0.712,1.383 -0.881,2.206 -0.169,0.823 -0.253,1.667 -0.253,2.53 v 7.185 h -0.405 V 0 c 0,-0.904 0.095,-1.791 0.284,-2.661 0.189,-0.871 0.509,-1.65 0.961,-2.338 0.452,-0.688 1.055,-1.241 1.811,-1.66 0.756,-0.418 1.7,-0.627 2.834,-0.627 1.106,0 2.033,0.202 2.782,0.607 0.749,0.406 1.353,0.942 1.812,1.61 0.458,0.668 0.786,1.439 0.981,2.316 C 0.307,-1.876 0.405,-0.958 0.405,0 V 7.185 H 0 Z"
             style="fill:#231f20;fill-opacity:1;fill-rule:nonzero;stroke:none"
             id="path491" />
        </g>
        <g
           id="g491"
           transform="translate(338.6685,1028.3384)">
          <path
             d="M 0,0 -1.295,-1.478 -0.972,-1.721 0.688,0 Z"
             style="fill:#231f20;fill-opacity:1;fill-rule:nonzero;stroke:none"
             id="path492" />
        </g>
        <g
           id="g492"
           transform="translate(333.4263,1016.9028)">
          <path
             d="M 0,0 H 7.751 V 0.405 H 0 V 6.82 h 8.844 v 0.406 h -9.249 v -14.37 h 9.431 v 0.405 H 0 Z"
             style="fill:#231f20;fill-opacity:1;fill-rule:nonzero;stroke:none"
             id="path493" />
        </g>
        <g
           id="g493"
           transform="translate(351.1948,1016.9028)">
          <path
             d="M 0,0 H 7.752 V 0.405 H 0 V 6.82 h 8.844 v 0.406 h -9.249 v -14.37 h 9.432 v 0.405 H 0 Z"
             style="fill:#231f20;fill-opacity:1;fill-rule:nonzero;stroke:none"
             id="path494" />
        </g>
        <g
           id="g494"
           transform="translate(374.5703,1010.3462)">
          <path
             d="m 0,0 -10.989,13.782 h -0.303 V -0.587 h 0.404 v 13.58 L -0.061,-0.587 H 0.405 V 13.782 H 0 Z"
             style="fill:#231f20;fill-opacity:1;fill-rule:nonzero;stroke:none"
             id="path495" />
        </g>
        <g
           id="g495"
           transform="translate(384.2642,1009.7593)">
          <path
             d="M 0,0 H 0.405 V 7.164 H 7.953 V 7.569 H 0.405 v 6.395 h 8.844 v 0.405 H 0 Z"
             style="fill:#231f20;fill-opacity:1;fill-rule:nonzero;stroke:none"
             id="path496" />
        </g>
        <g
           id="g496"
           transform="translate(402.438,1015.8101)">
          <path
             d="m 0,0 h -5.585 v 7.913 h 5.443 C 0.358,7.913 0.83,7.802 1.275,7.58 1.721,7.356 2.108,7.063 2.439,6.699 2.77,6.335 3.029,5.917 3.218,5.444 3.407,4.972 3.501,4.479 3.501,3.967 3.501,3.468 3.42,2.981 3.258,2.51 3.097,2.037 2.864,1.616 2.561,1.245 2.257,0.874 1.889,0.573 1.457,0.345 1.025,0.114 0.54,0 0,0 M 2.895,1.002 C 3.218,1.4 3.468,1.855 3.643,2.368 3.818,2.881 3.906,3.413 3.906,3.967 3.906,4.507 3.805,5.036 3.603,5.556 3.4,6.075 3.12,6.541 2.763,6.952 2.405,7.363 1.977,7.693 1.478,7.943 c -0.5,0.25 -1.04,0.375 -1.62,0.375 H -5.99 V -6.051 h 0.405 v 5.647 h 5.342 L 3.4,-6.051 h 0.486 l -3.643,5.647 c 0.539,0.04 1.035,0.185 1.487,0.435 0.453,0.249 0.84,0.573 1.165,0.971"
             style="fill:#231f20;fill-opacity:1;fill-rule:nonzero;stroke:none"
             id="path497" />
        </g>
        <g
           id="g497"
           transform="translate(410.4321,1015.3042)">
          <path
             d="M 0,0 3.603,8.237 7.165,0 Z M 3.421,8.824 -2.854,-5.545 h 0.446 l 2.246,5.141 h 7.509 l 2.246,-5.141 h 0.446 L 3.785,8.824 Z"
             style="fill:#231f20;fill-opacity:1;fill-rule:nonzero;stroke:none"
             id="path498" />
        </g>
        <g
           id="g498"
           transform="translate(434.1514,1010.3462)">
          <path
             d="m 0,0 -10.989,13.782 h -0.304 V -0.587 h 0.405 v 13.58 L -0.061,-0.587 H 0.405 V 13.782 H 0 Z"
             style="fill:#231f20;fill-opacity:1;fill-rule:nonzero;stroke:none"
             id="path499" />
        </g>
        <g
           id="g499"
           transform="translate(448.4907,1011.7114)">
          <path
             d="m 0,0 c -0.398,-0.384 -0.83,-0.697 -1.295,-0.94 -0.466,-0.244 -0.949,-0.425 -1.448,-0.546 -0.499,-0.122 -0.985,-0.183 -1.457,-0.183 -0.89,0 -1.72,0.189 -2.489,0.566 -0.769,0.378 -1.44,0.887 -2.014,1.529 -0.573,0.64 -1.026,1.38 -1.356,2.216 -0.331,0.837 -0.496,1.712 -0.496,2.63 0,0.824 0.138,1.643 0.415,2.459 0.277,0.817 0.685,1.548 1.224,2.197 0.54,0.647 1.201,1.17 1.984,1.568 0.783,0.398 1.673,0.597 2.671,0.597 0.459,0 0.921,-0.051 1.387,-0.152 0.465,-0.101 0.917,-0.262 1.356,-0.486 0.438,-0.222 0.843,-0.516 1.214,-0.88 0.371,-0.364 0.698,-0.809 0.982,-1.336 l 0.384,0.122 c -0.432,0.917 -1.093,1.669 -1.983,2.256 -0.891,0.587 -1.976,0.881 -3.259,0.881 -1.079,0 -2.04,-0.212 -2.883,-0.638 -0.844,-0.424 -1.552,-0.978 -2.125,-1.659 -0.574,-0.681 -1.012,-1.447 -1.316,-2.298 -0.304,-0.849 -0.455,-1.706 -0.455,-2.57 0,-0.917 0.165,-1.817 0.496,-2.701 0.33,-0.885 0.789,-1.674 1.376,-2.368 0.587,-0.695 1.291,-1.258 2.115,-1.691 0.823,-0.431 1.72,-0.647 2.691,-0.647 0.539,0 1.096,0.071 1.67,0.213 0.573,0.141 1.116,0.354 1.629,0.637 0.513,0.284 0.978,0.634 1.397,1.053 0.418,0.417 0.748,0.897 0.991,1.437 L 1.022,1.367 C 0.739,0.84 0.397,0.385 0,0"
             style="fill:#231f20;fill-opacity:1;fill-rule:nonzero;stroke:none"
             id="path500" />
        </g>
        <g
           id="g500"
           transform="translate(453.0747,1016.9028)">
          <path
             d="M 0,0 H 7.751 V 0.405 H 0 V 6.82 h 8.844 v 0.406 h -9.249 v -14.37 h 9.431 v 0.405 H 0 Z"
             style="fill:#231f20;fill-opacity:1;fill-rule:nonzero;stroke:none"
             id="path501" />
        </g>
        <g
           id="g501"
           transform="translate(180.0532,1053.6704)">
          <path
             d="m 0,0 c -9.978,0 -18.158,8.553 -18.158,18.841 0,10.349 8.18,18.84 18.158,18.84 9.916,0 18.282,-8.491 18.282,-18.84 C 18.282,8.553 9.916,0 0,0 M 20.638,18.841 C 20.638,30.802 11.403,40.47 0,40.47 c -11.466,0 -20.7,-9.668 -20.7,-21.629 0,-11.609 8.791,-21.091 19.867,-21.546 -2.125,-0.195 -4.172,-1.336 -5.86,-3.307 l 1.487,-1.921 c 1.425,1.736 3.161,2.603 5.02,2.603 4.834,-0.061 6.631,-7.56 12.953,-7.498 2.417,0 4.772,1.054 6.631,3.161 l -1.549,2.106 c -1.364,-1.611 -3.161,-2.541 -5.082,-2.541 -5.012,-0.059 -6.875,6.869 -12.315,7.387 11.194,0.253 20.186,9.816 20.186,21.556"
             style="fill:#231f20;fill-opacity:1;fill-rule:nonzero;stroke:none"
             id="path502" />
        </g>
        <g
           id="g502"
           transform="translate(250.6445,1094.3267)">
          <path
             d="m 0,0 h -2.603 v -28.385 c 0,-6.817 -5.639,-12.457 -12.519,-12.457 -6.941,0 -12.518,5.64 -12.518,12.519 V 0 h -2.665 v -28.261 c -0.373,-8.366 7.126,-15.183 15.183,-15.183 8.181,0 14.936,6.631 15.122,15.307 z"
             style="fill:#231f20;fill-opacity:1;fill-rule:nonzero;stroke:none"
             id="path503" />
        </g>
        <g
           id="g503"
           transform="translate(271.0356,1063.5249)">
          <path
             d="M 0,0 10.102,23.86 20.142,0 Z m -8.243,-12.705 h 3.099 l 4.153,10.288 h 22.062 l 4.339,-10.288 h 3.16 L 10.102,30.863 Z"
             style="fill:#231f20;fill-opacity:1;fill-rule:nonzero;stroke:none"
             id="path504" />
        </g>
        <g
           id="g504"
           transform="translate(326.5049,1053.2993)">
          <path
             d="M 0,0 H -7.809 L -7.871,38.362 H 0 c 10.35,0 18.964,-8.739 18.964,-19.026 C 18.964,8.986 10.35,0 0,0 M 0.31,40.966 H -10.411 V -2.417 H 0.31 c 11.775,0.124 21.381,9.916 21.381,21.753 0,11.775 -9.606,21.443 -21.381,21.63"
             style="fill:#231f20;fill-opacity:1;fill-rule:nonzero;stroke:none"
             id="path505" />
        </g>
        <g
           id="g505"
           transform="translate(375.9019,1069.103)">
          <path
             d="M 0,0 H -8.8 V 22.93 H 0 c 6.322,0 11.465,-5.144 11.465,-11.465 C 11.465,5.144 6.322,0 0,0 m 14.068,-18.406 -7.871,17.475 1.364,0.869 c 3.904,2.541 6.198,6.878 6.198,11.527 0,7.436 -6.073,13.635 -13.512,13.759 h -11.403 v -43.63 H -8.8 v 16.051 l 9.047,0.061 c 0.621,0 2.046,0 3.719,0.496 l 7.499,-16.608 z"
             style="fill:#231f20;fill-opacity:1;fill-rule:nonzero;stroke:none"
             id="path506" />
        </g>
        <g
           id="g506"
           transform="translate(414.6377,1063.5249)">
          <path
             d="M 0,0 10.102,23.86 20.141,0 Z M 28.57,-12.705 10.102,30.863 -8.244,-12.705 h 3.099 l 4.153,10.288 h 22.063 l 4.338,-10.288 z"
             style="fill:#231f20;fill-opacity:1;fill-rule:nonzero;stroke:none"
             id="path507" />
        </g>
        <g
           id="g507"
           transform="translate(446.9272,1091.7231)">
          <path
             d="M 0,0 H 16.114 V -41.151 H 18.53 V 0 H 34.645 V 2.479 H 0 Z"
             style="fill:#231f20;fill-opacity:1;fill-rule:nonzero;stroke:none"
             id="path508" />
        </g>
        <path
           d="m 498.37,1050.944 h 2.355 v 43.569 h -2.355 z"
           style="fill:#231f20;fill-opacity:1;fill-rule:nonzero;stroke:none"
           id="path509" />
        <g
           id="g509"
           transform="translate(551.3604,1094.3882)">
          <path
             d="M 0,0 -3.473,-0.062 -25.287,-24.914 V 0 h -2.665 v -43.568 h 2.665 v 14.688 l 5.206,5.764 16.548,-20.328 h 3.221 l -17.909,22.683 z"
             style="fill:#231f20;fill-opacity:1;fill-rule:nonzero;stroke:none"
             id="path510" />
        </g>
        <g
           id="g510"
           transform="translate(375.6543,1156.9829)">
          <path
             d="m 0,0 5.431,5.431 -16.437,16.436 v 11.062 h 10.647 l 16.614,-16.615 5.667,5.667 V 0 Z M -11.006,18.332 1.896,5.431 -3.535,0 h -7.471 z M -21.388,-17.854 -36.742,-2.5 h 7.736 v 23.597 l 7.618,7.617 7.882,-7.882 V -2.5 h 7.471 z M -31.506,18.597 V 0 h -7.736 l -5.43,5.431 z M -64.434,0 v 21.656 l 5.207,-5.207 16.479,16.48 h 11.242 V 22.132 L -48.208,5.431 -42.777,0 Z m 18.151,32.929 -12.944,-12.945 -5.207,5.207 v 7.738 z m -36.228,10.34 15.519,15.519 v -7.776 h 23.306 l 7.743,-7.743 -7.84,-7.84 h -23.151 v -7.738 z m 18.019,18.019 5.265,5.265 13.041,-13.041 h -18.306 z m 0,25.152 h 21.717 l -5.548,-5.547 16.76,-16.76 V 53.512 h -11.088 l -16.576,16.576 -5.265,-5.265 z m 32.929,-18.772 -13.225,13.225 5.548,5.547 h 7.677 z M -21.504,104.176 -6.268,88.94 H -13.48 V 65.633 l -8.024,-8.025 -7.559,7.56 V 88.94 h -7.676 z M -10.98,68.133 V 86.44 h 7.212 L 1.78,80.893 Z M 21.948,86.44 V 64.26 L 16.255,69.953 -0.186,53.512 H -10.98 V 64.598 L 5.315,80.893 -0.232,86.44 Z M 3.349,53.512 16.255,66.418 21.948,60.725 v -7.213 z m -16.855,-29.145 -7.882,7.882 -7.618,-7.617 v 10.797 h -11.242 l 7.84,7.84 -7.743,7.743 h 11.088 v 10.621 l 7.559,-7.56 8.024,8.025 V 51.012 h 10.794 l -7.878,-7.878 7.705,-7.705 H -13.506 Z M 21.922,25.517 16.255,19.85 3.176,32.929 H 21.922 Z M 39.539,43.134 24.422,28.017 v 7.412 H 0.676 l -7.705,7.705 7.878,7.878 h 23.599 v 7.213 z M 24.422,24.481 43.074,43.134 24.448,61.76 V 88.94 H -2.732 L -21.504,107.711 -40.275,88.94 H -66.992 V 62.323 L -86.046,43.269 -66.934,24.156 V -2.5 h 26.657 L -21.388,-21.389 -2.5,-2.5 h 26.922 z"
             style="fill:#231f20;fill-opacity:1;fill-rule:nonzero;stroke:none"
             id="path511" />
        </g>
        <g
           id="g511"
           transform="translate(890.3604,1053.1118)">
          <path
             d="m 0,0 c -9.979,0 -18.161,8.554 -18.161,18.844 0,10.351 8.182,18.844 18.161,18.844 9.918,0 18.286,-8.493 18.286,-18.844 C 18.286,8.554 9.918,0 0,0 m 20.642,18.844 c 0,11.963 -9.237,21.633 -20.642,21.633 -11.468,0 -20.703,-9.67 -20.703,-21.633 0,-11.612 8.792,-21.095 19.87,-21.55 -2.126,-0.195 -4.173,-1.337 -5.861,-3.308 l 1.488,-1.921 c 1.425,1.736 3.161,2.604 5.02,2.604 4.835,-0.062 6.632,-7.563 12.956,-7.5 2.417,0 4.773,1.054 6.631,3.161 l -1.549,2.108 c -1.364,-1.612 -3.161,-2.542 -5.082,-2.542 -5.013,-0.06 -6.877,6.869 -12.318,7.388 11.195,0.253 20.19,9.817 20.19,21.56"
             style="fill:#231f20;fill-opacity:1;fill-rule:nonzero;stroke:none"
             id="path512" />
        </g>
        <g
           id="g512"
           transform="translate(960.9648,1093.7749)">
          <path
             d="m 0,0 h -2.604 v -28.391 c 0,-6.818 -5.639,-12.459 -12.52,-12.459 -6.943,0 -12.522,5.641 -12.522,12.522 V 0 h -2.665 v -28.266 c -0.373,-8.368 7.128,-15.186 15.187,-15.186 8.182,0 14.938,6.632 15.124,15.309 z"
             style="fill:#231f20;fill-opacity:1;fill-rule:nonzero;stroke:none"
             id="path513" />
        </g>
        <g
           id="g513"
           transform="translate(981.3594,1062.9673)">
          <path
             d="M 0,0 10.104,23.864 20.146,0 Z m -8.244,-12.707 h 3.099 l 4.154,10.289 h 22.066 l 4.34,-10.289 h 3.161 L 10.104,30.869 Z"
             style="fill:#231f20;fill-opacity:1;fill-rule:nonzero;stroke:none"
             id="path514" />
        </g>
        <g
           id="g514"
           transform="translate(1036.8389,1052.7397)">
          <path
             d="M 0,0 H -7.81 L -7.872,38.37 H 0 c 10.352,0 18.968,-8.741 18.968,-19.03 C 18.968,8.988 10.352,0 0,0 M 0.311,40.973 H -10.413 V -2.417 H 0.311 c 11.777,0.123 21.385,9.917 21.385,21.757 0,11.777 -9.608,21.447 -21.385,21.633"
             style="fill:#231f20;fill-opacity:1;fill-rule:nonzero;stroke:none"
             id="path515" />
        </g>
        <g
           id="g515"
           transform="translate(1086.2451,1068.5464)">
          <path
             d="M 0,0 H -8.802 V 22.935 H 0 c 6.323,0 11.468,-5.145 11.468,-11.467 C 11.468,5.146 6.323,0 0,0 m 14.071,-18.409 -7.872,17.478 1.363,0.869 c 3.906,2.541 6.2,6.88 6.2,11.53 0,7.437 -6.075,13.636 -13.515,13.761 h -11.405 v -43.638 h 2.356 v 16.054 l 9.049,0.061 c 0.621,0 2.047,0 3.72,0.496 l 7.501,-16.611 z"
             style="fill:#231f20;fill-opacity:1;fill-rule:nonzero;stroke:none"
             id="path516" />
        </g>
        <g
           id="g516"
           transform="translate(1124.9883,1062.9673)">
          <path
             d="M 0,0 10.104,23.864 20.146,0 Z M 28.575,-12.707 10.104,30.869 -8.245,-12.707 h 3.099 l 4.154,10.289 h 22.067 l 4.339,-10.289 z"
             style="fill:#231f20;fill-opacity:1;fill-rule:nonzero;stroke:none"
             id="path517" />
        </g>
        <g
           id="g517"
           transform="translate(1157.2842,1091.1704)">
          <path
             d="m 0,0 h 16.117 v -41.158 h 2.416 V 0 H 34.651 V 2.479 H 0 Z"
             style="fill:#231f20;fill-opacity:1;fill-rule:nonzero;stroke:none"
             id="path518" />
        </g>
        <path
           d="m 1208.735,1050.383 h 2.356 v 43.578 h -2.356 z"
           style="fill:#231f20;fill-opacity:1;fill-rule:nonzero;stroke:none"
           id="path519" />
        <g
           id="g519"
           transform="translate(1261.7363,1093.8364)">
          <path
             d="M 0,0 -3.473,-0.062 -25.291,-24.919 V 0 h -2.666 v -43.576 h 2.666 v 14.69 l 5.206,5.765 16.552,-20.332 h 3.221 l -17.913,22.688 z"
             style="fill:#231f20;fill-opacity:1;fill-rule:nonzero;stroke:none"
             id="path520" />
        </g>
        <g
           id="g520"
           transform="translate(1085.2754,1156.5913)">
          <path
             d="m 0,0 5.431,5.431 -16.437,16.435 v 11.063 h 10.647 l 16.614,-16.615 5.667,5.667 V 0 Z M -11.006,18.332 1.896,5.431 -3.535,0 h -7.471 z M -21.388,-17.854 -36.741,-2.5 h 7.735 v 23.597 l 7.618,7.617 7.882,-7.883 V -2.5 h 7.471 z M -31.506,18.597 V 0 h -7.735 l -5.431,5.431 z M -64.434,0 v 21.656 l 5.207,-5.207 16.48,16.48 h 11.241 V 22.132 L -48.207,5.431 -42.776,0 Z m 18.152,32.929 -12.945,-12.945 -5.207,5.207 v 7.738 z m -36.229,10.34 15.52,15.519 v -7.776 h 23.305 l 7.744,-7.743 -7.84,-7.84 h -23.152 v -7.738 z m 18.02,18.019 5.264,5.265 13.041,-13.041 h -18.305 z m 0,25.152 h 21.717 l -5.548,-5.547 16.759,-16.76 V 53.512 H -42.65 l -16.577,16.576 -5.264,-5.265 z m 32.928,-18.772 -13.224,13.225 5.548,5.547 h 7.676 z m 10.059,36.508 15.236,-15.236 h -7.211 V 65.632 l -8.025,-8.024 -7.559,7.56 V 88.94 h -7.676 z M -10.979,68.132 V 86.44 h 7.211 L 1.78,80.893 Z M 21.948,86.44 V 64.26 L 16.255,69.953 -0.187,53.512 H -10.979 V 64.597 L 5.315,80.893 -0.232,86.44 Z M 3.349,53.512 16.255,66.418 21.948,60.725 v -7.213 z m -16.855,-29.146 -7.882,7.883 -7.618,-7.617 v 10.797 h -11.241 l 7.84,7.84 -7.743,7.743 h 11.087 v 10.621 l 7.559,-7.56 8.025,8.024 V 51.012 h 10.793 l -7.877,-7.878 7.705,-7.705 H -13.506 Z M 21.922,25.517 16.255,19.85 3.176,32.929 H 21.922 Z M 39.539,43.134 24.422,28.017 v 7.412 H 0.676 l -7.704,7.705 7.877,7.878 h 23.599 v 7.213 z M 24.422,24.481 43.074,43.134 24.448,61.76 V 88.94 H -2.732 L -21.504,107.711 -40.274,88.94 H -66.991 V 62.323 L -86.046,43.269 -66.934,24.156 V -2.5 h 26.658 L -21.388,-21.389 -2.5,-2.5 h 26.922 z"
             style="fill:#231f20;fill-opacity:1;fill-rule:nonzero;stroke:none"
             id="path521" />
        </g>
        <g
           id="g521"
           transform="translate(267.9087,588.1636)">
          <path
             d="M 0,0 H 11.731 V 0.537 H -0.537 V -18.522 H 0 v 9.503 h 10.013 v 0.538 L 0,-8.481 Z"
             style="fill:#231f20;fill-opacity:1;fill-rule:nonzero;stroke:none"
             id="path522" />
        </g>
        <g
           id="g522"
           transform="translate(283.0488,576.9976)">
          <path
             d="M 0,0 4.778,10.925 9.503,0 Z M 4.537,11.703 -3.785,-7.356 h 0.591 l 2.979,6.819 h 9.96 l 2.979,-6.819 h 0.59 L 5.02,11.703 Z"
             style="fill:#231f20;fill-opacity:1;fill-rule:nonzero;stroke:none"
             id="path523" />
        </g>
        <g
           id="g523"
           transform="translate(312.2559,572.9565)">
          <path
             d="m 0,0 c -0.215,-0.527 -0.515,-0.998 -0.899,-1.409 -0.386,-0.412 -0.833,-0.742 -1.343,-0.993 -0.51,-0.251 -1.06,-0.376 -1.651,-0.376 h -8.295 v 8.804 h 8.483 c 0.573,0 1.105,-0.12 1.598,-0.361 C -1.616,5.423 -1.19,5.096 -0.832,4.685 -0.475,4.272 -0.193,3.803 0.013,3.275 0.219,2.748 0.322,2.197 0.322,1.625 0.322,1.069 0.215,0.528 0,0 m -12.188,15.207 h 7.893 c 0.554,0 1.069,-0.115 1.543,-0.349 0.475,-0.232 0.877,-0.549 1.209,-0.953 0.33,-0.402 0.59,-0.863 0.778,-1.382 0.188,-0.519 0.282,-1.065 0.282,-1.637 0,-0.537 -0.099,-1.061 -0.296,-1.571 C -0.976,8.806 -1.249,8.344 -1.598,7.933 -1.946,7.521 -2.363,7.19 -2.846,6.939 -3.329,6.688 -3.866,6.563 -4.457,6.563 h -7.731 z M -0.094,4.604 c -0.313,0.429 -0.689,0.805 -1.128,1.127 -0.438,0.323 -0.925,0.564 -1.463,0.725 0.842,0.376 1.508,0.967 2,1.773 0.492,0.804 0.738,1.69 0.738,2.657 0,0.591 -0.103,1.176 -0.308,1.758 -0.206,0.582 -0.496,1.1 -0.873,1.557 -0.375,0.456 -0.832,0.827 -1.369,1.113 -0.537,0.287 -1.136,0.43 -1.798,0.43 h -8.43 V -3.315 h 8.832 c 0.645,0 1.258,0.134 1.839,0.403 0.581,0.267 1.088,0.631 1.517,1.087 0.43,0.456 0.769,0.979 1.02,1.57 0.25,0.591 0.376,1.217 0.376,1.88 0,0.536 -0.081,1.06 -0.242,1.57 -0.161,0.51 -0.398,0.98 -0.711,1.409"
             style="fill:#231f20;fill-opacity:1;fill-rule:nonzero;stroke:none"
             id="path524" />
        </g>
        <g
           id="g524"
           transform="translate(325.0605,577.6685)">
          <path
             d="m 0,0 h -7.409 v 10.495 h 7.221 c 0.662,0 1.288,-0.147 1.879,-0.442 C 2.281,9.758 2.796,9.368 3.235,8.886 3.673,8.401 4.017,7.847 4.268,7.221 4.518,6.594 4.644,5.941 4.644,5.261 4.644,4.599 4.537,3.954 4.322,3.328 4.107,2.701 3.798,2.143 3.396,1.65 2.993,1.158 2.505,0.76 1.932,0.456 1.36,0.151 0.715,0 0,0 M 3.838,1.328 C 4.268,1.856 4.599,2.46 4.832,3.14 5.064,3.82 5.181,4.527 5.181,5.261 5.181,5.977 5.046,6.679 4.778,7.368 4.51,8.057 4.138,8.675 3.664,9.221 3.19,9.767 2.622,10.204 1.959,10.535 1.297,10.867 0.581,11.032 -0.188,11.032 H -7.946 V -8.027 h 0.537 v 7.49 h 7.087 l 4.832,-7.49 h 0.644 l -4.832,7.49 c 0.716,0.054 1.373,0.246 1.973,0.577 0.6,0.331 1.114,0.761 1.543,1.288"
             style="fill:#231f20;fill-opacity:1;fill-rule:nonzero;stroke:none"
             id="path525" />
        </g>
        <path
           d="m 334.349,569.641 h 0.537 v 19.06 h -0.537 z"
           style="fill:#231f20;fill-opacity:1;fill-rule:nonzero;stroke:none"
           id="path526" />
        <g
           id="g526"
           transform="translate(355.3267,575.561)">
          <path
             d="m 0,0 c -0.474,-1.173 -1.141,-2.206 -2,-3.101 l -1.718,2.174 h -0.671 l 2.014,-2.523 c -0.699,-0.626 -1.486,-1.128 -2.363,-1.503 -0.877,-0.375 -1.835,-0.564 -2.872,-0.564 -1.217,0 -2.336,0.25 -3.356,0.751 -1.02,0.501 -1.897,1.177 -2.631,2.028 -0.734,0.849 -1.311,1.825 -1.731,2.925 -0.421,1.101 -0.631,2.242 -0.631,3.423 0,1.127 0.202,2.238 0.604,3.328 0.403,1.092 0.971,2.068 1.705,2.927 0.733,0.86 1.615,1.553 2.644,2.08 1.029,0.529 2.161,0.792 3.396,0.792 1.181,0 2.277,-0.25 3.288,-0.752 1.011,-0.501 1.893,-1.176 2.644,-2.026 C -0.926,9.109 -0.34,8.134 0.081,7.033 0.501,5.933 0.711,4.791 0.711,3.61 0.711,2.375 0.474,1.172 0,0 m -1.208,10.214 c -0.778,0.913 -1.713,1.651 -2.805,2.215 -1.092,0.563 -2.291,0.845 -3.597,0.845 -1.253,0 -2.421,-0.263 -3.503,-0.792 -1.084,-0.528 -2.023,-1.239 -2.819,-2.133 -0.797,-0.896 -1.423,-1.925 -1.879,-3.087 -0.457,-1.164 -0.685,-2.381 -0.685,-3.652 0,-1.216 0.215,-2.407 0.644,-3.57 0.43,-1.164 1.038,-2.192 1.826,-3.088 0.787,-0.894 1.722,-1.619 2.805,-2.174 1.083,-0.554 2.286,-0.832 3.611,-0.832 1.073,0 2.08,0.193 3.02,0.577 0.939,0.385 1.785,0.917 2.537,1.598 l 1.637,-2.041 h 0.671 l -1.933,2.39 c 0.913,0.913 1.629,1.982 2.148,3.208 0.519,1.225 0.779,2.536 0.779,3.932 0,1.181 -0.215,2.35 -0.645,3.503 -0.429,1.155 -1.033,2.189 -1.812,3.101"
             style="fill:#231f20;fill-opacity:1;fill-rule:nonzero;stroke:none"
             id="path527" />
        </g>
        <g
           id="g527"
           transform="translate(375.2856,579.1714)">
          <path
             d="m 0,0 c 0,-1.109 -0.112,-2.21 -0.336,-3.302 -0.224,-1.092 -0.608,-2.067 -1.154,-2.926 -0.546,-0.859 -1.289,-1.557 -2.228,-2.093 -0.94,-0.538 -2.126,-0.806 -3.557,-0.806 -1.414,0 -2.586,0.259 -3.517,0.778 -0.931,0.519 -1.673,1.208 -2.228,2.067 -0.555,0.859 -0.944,1.835 -1.168,2.927 -0.223,1.09 -0.335,2.209 -0.335,3.355 V 9.529 H -15.06 V 0 c 0,-1.199 0.125,-2.376 0.376,-3.53 0.25,-1.155 0.675,-2.188 1.275,-3.101 0.599,-0.912 1.4,-1.646 2.403,-2.201 1.002,-0.555 2.255,-0.832 3.758,-0.832 1.467,0 2.698,0.268 3.691,0.805 0.993,0.538 1.794,1.249 2.403,2.134 0.608,0.886 1.042,1.911 1.301,3.074 0.26,1.163 0.39,2.38 0.39,3.651 V 9.529 H 0 Z"
             style="fill:#231f20;fill-opacity:1;fill-rule:nonzero;stroke:none"
             id="path528" />
        </g>
        <g
           id="g528"
           transform="translate(388.3052,594.2847)">
          <path
             d="M 0,0 -1.718,-1.96 -1.289,-2.282 0.913,0 Z"
             style="fill:#231f20;fill-opacity:1;fill-rule:nonzero;stroke:none"
             id="path529" />
        </g>
        <g
           id="g529"
           transform="translate(381.3521,579.1177)">
          <path
             d="M 0,0 H 10.282 V 0.537 H 0 V 9.046 H 11.731 V 9.583 H -0.537 v -19.06 h 12.51 v 0.538 L 0,-8.939 Z"
             style="fill:#231f20;fill-opacity:1;fill-rule:nonzero;stroke:none"
             id="path530" />
        </g>
        <g
           id="g530"
           transform="translate(404.9209,579.1177)">
          <path
             d="M 0,0 H 10.282 V 0.537 H 0 V 9.046 H 11.73 V 9.583 H -0.537 v -19.06 h 12.51 v 0.538 L 0,-8.939 Z"
             style="fill:#231f20;fill-opacity:1;fill-rule:nonzero;stroke:none"
             id="path531" />
        </g>
        <g
           id="g531"
           transform="translate(435.9258,570.4204)">
          <path
             d="m 0,0 -14.576,18.28 h -0.403 V -0.779 h 0.538 V 17.234 L -0.08,-0.779 H 0.537 V 18.28 H 0 Z"
             style="fill:#231f20;fill-opacity:1;fill-rule:nonzero;stroke:none"
             id="path532" />
        </g>
        <g
           id="g532"
           transform="translate(448.7837,569.6411)">
          <path
             d="M 0,0 H 0.537 V 9.504 H 10.55 v 0.537 H 0.537 v 8.481 H 12.268 V 19.06 H 0 Z"
             style="fill:#231f20;fill-opacity:1;fill-rule:nonzero;stroke:none"
             id="path533" />
        </g>
        <g
           id="g533"
           transform="translate(472.8901,577.6685)">
          <path
             d="m 0,0 h -7.409 v 10.495 h 7.221 c 0.662,0 1.289,-0.147 1.879,-0.442 C 2.282,9.758 2.796,9.368 3.235,8.886 3.673,8.401 4.018,7.847 4.268,7.221 4.519,6.594 4.645,5.941 4.645,5.261 4.645,4.599 4.537,3.954 4.322,3.328 4.107,2.701 3.799,2.143 3.396,1.65 2.994,1.158 2.505,0.76 1.933,0.456 1.36,0.151 0.716,0 0,0 M 3.839,1.328 C 4.268,1.856 4.599,2.46 4.832,3.14 5.065,3.82 5.181,4.527 5.181,5.261 5.181,5.977 5.046,6.679 4.779,7.368 4.51,8.057 4.138,8.675 3.665,9.221 3.189,9.767 2.621,10.204 1.959,10.535 1.297,10.867 0.582,11.032 -0.188,11.032 H -7.946 V -8.027 h 0.537 v 7.49 h 7.087 l 4.832,-7.49 h 0.644 l -4.831,7.49 c 0.715,0.054 1.372,0.246 1.972,0.577 0.6,0.331 1.114,0.761 1.544,1.288"
             style="fill:#231f20;fill-opacity:1;fill-rule:nonzero;stroke:none"
             id="path534" />
        </g>
        <g
           id="g534"
           transform="translate(483.4937,576.9976)">
          <path
             d="M 0,0 4.779,10.925 9.503,0 Z M 4.537,11.703 -3.785,-7.356 h 0.591 l 2.98,6.819 h 9.959 l 2.98,-6.819 h 0.59 L 5.021,11.703 Z"
             style="fill:#231f20;fill-opacity:1;fill-rule:nonzero;stroke:none"
             id="path535" />
        </g>
        <g
           id="g535"
           transform="translate(514.9546,570.4204)">
          <path
             d="m 0,0 -14.576,18.28 h -0.403 V -0.779 h 0.538 V 17.234 L -0.08,-0.779 H 0.537 V 18.28 H 0 Z"
             style="fill:#231f20;fill-opacity:1;fill-rule:nonzero;stroke:none"
             id="path536" />
        </g>
        <g
           id="g536"
           transform="translate(533.9746,572.2319)">
          <path
             d="M 0,0 C -0.528,-0.51 -1.101,-0.926 -1.718,-1.249 -2.336,-1.57 -2.976,-1.812 -3.638,-1.973 -4.3,-2.134 -4.944,-2.215 -5.57,-2.215 c -1.181,0 -2.282,0.251 -3.302,0.752 -1.02,0.501 -1.911,1.177 -2.671,2.027 -0.761,0.85 -1.361,1.83 -1.798,2.939 -0.44,1.11 -0.659,2.272 -0.659,3.49 0,1.092 0.184,2.179 0.55,3.262 0.367,1.083 0.909,2.053 1.624,2.912 0.716,0.859 1.593,1.553 2.631,2.081 1.039,0.527 2.22,0.791 3.544,0.791 0.609,0 1.221,-0.067 1.839,-0.201 0.617,-0.134 1.217,-0.349 1.798,-0.644 0.582,-0.296 1.119,-0.684 1.612,-1.168 0.491,-0.483 0.925,-1.073 1.301,-1.771 l 0.51,0.161 c -0.573,1.217 -1.45,2.214 -2.631,2.992 -1.181,0.779 -2.621,1.168 -4.322,1.168 -1.431,0 -2.706,-0.281 -3.825,-0.846 -1.118,-0.563 -2.058,-1.296 -2.819,-2.201 -0.76,-0.903 -1.342,-1.919 -1.745,-3.047 -0.402,-1.127 -0.604,-2.263 -0.604,-3.409 0,-1.217 0.219,-2.411 0.659,-3.583 0.437,-1.173 1.046,-2.219 1.825,-3.141 0.779,-0.921 1.713,-1.668 2.805,-2.242 1.092,-0.572 2.282,-0.859 3.57,-0.859 0.716,0 1.454,0.095 2.215,0.282 0.76,0.188 1.481,0.471 2.161,0.846 0.68,0.375 1.297,0.841 1.852,1.396 0.554,0.554 0.993,1.19 1.316,1.906 L 1.356,1.812 C 0.98,1.114 0.527,0.51 0,0"
             style="fill:#231f20;fill-opacity:1;fill-rule:nonzero;stroke:none"
             id="path537" />
        </g>
        <g
           id="g537"
           transform="translate(540.0552,579.1177)">
          <path
             d="M 0,0 H 10.281 V 0.537 H 0 V 9.046 H 11.73 V 9.583 H -0.537 v -19.06 h 12.509 v 0.538 L 0,-8.939 Z"
             style="fill:#231f20;fill-opacity:1;fill-rule:nonzero;stroke:none"
             id="path538" />
        </g>
        <g
           id="g538"
           transform="translate(281.7925,606.5571)">
          <path
             d="m 0,0 c -7.226,0 -13.15,6.193 -13.15,13.644 0,7.495 5.924,13.643 13.15,13.643 7.181,0 13.24,-6.148 13.24,-13.643 C 13.24,6.193 7.181,0 0,0 m 14.946,13.644 c 0,8.662 -6.688,15.664 -14.946,15.664 -8.303,0 -14.99,-7.002 -14.99,-15.664 0,-8.408 6.365,-15.274 14.386,-15.603 -1.538,-0.142 -3.021,-0.968 -4.243,-2.395 l 1.077,-1.391 c 1.032,1.257 2.29,1.885 3.635,1.885 3.501,-0.044 4.803,-5.475 9.381,-5.431 1.75,0 3.456,0.764 4.802,2.289 l -1.122,1.525 c -0.988,-1.166 -2.289,-1.838 -3.68,-1.838 -3.63,-0.044 -4.979,4.972 -8.918,5.348 8.106,0.184 14.618,7.109 14.618,15.611"
             style="fill:#231f20;fill-opacity:1;fill-rule:nonzero;stroke:none"
             id="path539" />
        </g>
        <g
           id="g539"
           transform="translate(332.9141,635.9995)">
          <path
             d="m 0,0 h -1.885 v -20.557 c 0,-4.936 -4.084,-9.02 -9.066,-9.02 -5.027,0 -9.066,4.084 -9.066,9.065 V 0 h -1.93 v -20.466 c -0.269,-6.059 5.161,-10.996 10.996,-10.996 5.925,0 10.817,4.802 10.951,11.085 z"
             style="fill:#231f20;fill-opacity:1;fill-rule:nonzero;stroke:none"
             id="path540" />
        </g>
        <g
           id="g540"
           transform="translate(347.6812,613.6929)">
          <path
             d="M 0,0 7.315,17.279 14.587,0 Z m -5.97,-9.201 h 2.244 l 3.008,7.451 H 15.26 l 3.142,-7.451 H 20.69 L 7.315,22.351 Z"
             style="fill:#231f20;fill-opacity:1;fill-rule:nonzero;stroke:none"
             id="path541" />
        </g>
        <g
           id="g541"
           transform="translate(387.8516,606.2876)">
          <path
             d="M 0,0 H -5.655 L -5.7,27.782 H 0 c 7.495,0 13.733,-6.329 13.733,-13.779 C 13.733,6.508 7.495,0 0,0 M 0.225,29.667 H -7.54 V -1.75 h 7.765 c 8.526,0.089 15.483,7.181 15.483,15.753 0,8.528 -6.957,15.529 -15.483,15.664"
             style="fill:#231f20;fill-opacity:1;fill-rule:nonzero;stroke:none"
             id="path542" />
        </g>
        <g
           id="g542"
           transform="translate(423.624,617.7319)">
          <path
             d="M 0,0 H -6.373 V 16.606 H 0 c 4.579,0 8.303,-3.725 8.303,-8.302 C 8.303,3.726 4.579,0 0,0 m 10.188,-13.329 -5.7,12.656 0.988,0.628 c 2.827,1.841 4.488,4.982 4.488,8.349 0,5.385 -4.398,9.874 -9.785,9.964 h -8.258 v -31.597 h 1.706 v 11.624 l 6.552,0.045 c 0.449,0 1.482,0 2.694,0.359 l 5.43,-12.028 z"
             style="fill:#231f20;fill-opacity:1;fill-rule:nonzero;stroke:none"
             id="path543" />
        </g>
        <g
           id="g543"
           transform="translate(451.6763,613.6929)">
          <path
             d="M 0,0 7.315,17.279 14.586,0 Z M 20.69,-9.201 7.315,22.351 -5.97,-9.201 h 2.244 l 3.008,7.451 h 15.977 l 3.142,-7.451 z"
             style="fill:#231f20;fill-opacity:1;fill-rule:nonzero;stroke:none"
             id="path544" />
        </g>
        <g
           id="g544"
           transform="translate(475.0601,634.1138)">
          <path
             d="m 0,0 h 11.67 v -29.801 h 1.749 V 0 h 11.67 V 1.796 H 0 Z"
             style="fill:#231f20;fill-opacity:1;fill-rule:nonzero;stroke:none"
             id="path545" />
        </g>
        <path
           d="m 512.314,604.582 h 1.706 v 31.553 h -1.706 z"
           style="fill:#231f20;fill-opacity:1;fill-rule:nonzero;stroke:none"
           id="path546" />
        <g
           id="g546"
           transform="translate(550.6895,636.0435)">
          <path
             d="M 0,0 -2.515,-0.044 -18.312,-18.042 V 0 h -1.93 v -31.552 h 1.93 v 10.638 l 3.77,4.174 11.983,-14.722 h 2.333 l -12.97,16.428 z"
             style="fill:#231f20;fill-opacity:1;fill-rule:nonzero;stroke:none"
             id="path547" />
        </g>
        <g
           id="g547"
           transform="translate(222.2217,570.7515)">
          <path
             d="M 0,0 3.957,3.957 -8.019,15.933 v 8.06 h 7.757 l 12.106,-12.106 4.129,4.13 V 0 Z m -8.019,13.357 9.4,-9.4 L -2.576,0 h -5.443 z m -7.565,-26.366 -11.187,11.188 h 5.637 v 17.192 l 5.55,5.551 5.743,-5.743 v -17 h 5.444 z M -22.956,13.55 V 0 h -5.637 L -32.55,3.957 Z M -46.949,0 v 15.779 l 3.794,-3.794 12.008,12.008 h 8.191 V 16.126 L -35.125,3.957 -31.168,0 Z m 13.226,23.993 -9.432,-9.431 -3.794,3.793 v 5.638 z m -26.397,7.533 11.308,11.309 v -5.666 h 16.981 l 5.642,-5.643 -5.712,-5.712 H -48.77 v -5.637 z m 13.129,13.13 3.836,3.836 9.503,-9.502 h -13.339 z m 0,18.327 h 15.824 L -35.209,58.94 -22.998,46.729 V 38.99 h -8.079 l -12.078,12.078 -3.836,-3.836 z m 23.993,-13.678 -9.636,9.635 4.043,4.043 h 5.593 z m 7.33,26.6 11.101,-11.1 H -9.822 V 47.821 l -5.846,-5.845 -5.508,5.507 V 64.805 H -26.77 Z M -8,49.644 v 13.339 h 5.255 L 1.297,58.94 Z M 15.992,62.983 V 46.821 L 11.844,50.97 -0.136,38.99 H -8 v 8.077 L 3.873,58.94 -0.169,62.983 Z M 2.44,38.99 l 9.404,9.404 4.148,-4.148 V 38.99 Z m -12.281,-21.236 -5.743,5.743 -5.55,-5.55 v 7.867 h -8.192 l 5.713,5.712 -5.642,5.643 h 8.079 v 7.738 l 5.508,-5.508 5.846,5.847 v -8.077 h 7.865 l -5.74,-5.74 5.614,-5.615 h -7.758 z m 25.814,0.838 -4.129,-4.129 -9.53,9.53 H 15.973 Z M 28.809,31.429 17.794,20.414 v 5.4 H 0.493 l -5.614,5.615 5.74,5.74 h 17.195 v 5.255 z M 17.794,17.838 31.385,31.429 17.814,45 V 64.805 H -1.991 L -15.668,78.481 -29.345,64.805 H -48.812 V 45.41 L -62.696,31.526 -48.77,17.601 V -1.821 h 19.423 l 13.763,-13.764 13.763,13.764 h 19.615 z"
             style="fill:#231f20;fill-opacity:1;fill-rule:nonzero;stroke:none"
             id="path548" />
        </g>
        <g
           id="g548"
           transform="translate(986.8633,591.9175)">
          <path
             d="m 0,0 c -7.226,0 -13.149,6.193 -13.149,13.645 0,7.495 5.923,13.643 13.149,13.643 7.182,0 13.24,-6.148 13.24,-13.643 C 13.24,6.193 7.182,0 0,0 m 14.946,13.645 c 0,8.661 -6.687,15.663 -14.946,15.663 -8.303,0 -14.99,-7.002 -14.99,-15.663 0,-8.408 6.366,-15.274 14.387,-15.604 -1.539,-0.142 -3.021,-0.968 -4.244,-2.395 l 1.077,-1.391 c 1.033,1.257 2.29,1.885 3.636,1.885 3.5,-0.044 4.802,-5.475 9.38,-5.43 1.75,0 3.456,0.763 4.802,2.289 l -1.122,1.525 c -0.988,-1.167 -2.288,-1.839 -3.68,-1.839 -3.629,-0.044 -4.979,4.973 -8.918,5.349 8.106,0.183 14.618,7.108 14.618,15.611"
             style="fill:#231f20;fill-opacity:1;fill-rule:nonzero;stroke:none"
             id="path549" />
        </g>
        <g
           id="g549"
           transform="translate(1037.9854,621.3599)">
          <path
             d="m 0,0 h -1.885 v -20.556 c 0,-4.937 -4.084,-9.021 -9.066,-9.021 -5.027,0 -9.066,4.084 -9.066,9.066 V 0 h -1.93 v -20.466 c -0.27,-6.058 5.161,-10.996 10.996,-10.996 5.925,0 10.816,4.803 10.951,11.086 z"
             style="fill:#231f20;fill-opacity:1;fill-rule:nonzero;stroke:none"
             id="path550" />
        </g>
        <g
           id="g550"
           transform="translate(1052.752,599.0532)">
          <path
             d="M 0,0 7.316,17.28 14.587,0 Z m -5.969,-9.2 h 2.244 l 3.007,7.45 H 15.26 L 18.402,-9.2 H 20.69 L 7.316,22.352 Z"
             style="fill:#231f20;fill-opacity:1;fill-rule:nonzero;stroke:none"
             id="path551" />
        </g>
        <g
           id="g551"
           transform="translate(1092.9229,591.6489)">
          <path
             d="M 0,0 H -5.655 L -5.7,27.781 H 0 c 7.495,0 13.733,-6.328 13.733,-13.778 C 13.733,6.507 7.495,0 0,0 M 0.225,29.666 H -7.54 V -1.751 h 7.765 c 8.526,0.09 15.484,7.182 15.484,15.754 0,8.527 -6.958,15.528 -15.484,15.663"
             style="fill:#231f20;fill-opacity:1;fill-rule:nonzero;stroke:none"
             id="path552" />
        </g>
        <g
           id="g552"
           transform="translate(1128.6953,603.0933)">
          <path
             d="M 0,0 H -6.373 V 16.606 H 0 c 4.578,0 8.303,-3.725 8.303,-8.303 C 8.303,3.726 4.578,0 0,0 m 10.188,-13.329 -5.7,12.655 0.988,0.629 c 2.827,1.84 4.488,4.982 4.488,8.348 0,5.385 -4.399,9.874 -9.785,9.964 h -8.258 v -31.596 h 1.706 v 11.624 l 6.552,0.044 c 0.449,0 1.482,0 2.693,0.359 l 5.431,-12.027 z"
             style="fill:#231f20;fill-opacity:1;fill-rule:nonzero;stroke:none"
             id="path553" />
        </g>
        <g
           id="g553"
           transform="translate(1156.7471,599.0532)">
          <path
             d="M 0,0 7.316,17.28 14.587,0 Z M 20.69,-9.2 7.316,22.352 -5.97,-9.2 h 2.244 l 3.008,7.45 H 15.26 l 3.141,-7.45 z"
             style="fill:#231f20;fill-opacity:1;fill-rule:nonzero;stroke:none"
             id="path554" />
        </g>
        <g
           id="g554"
           transform="translate(1180.1309,619.4751)">
          <path
             d="m 0,0 h 11.67 v -29.802 h 1.75 V 0 H 25.09 V 1.795 H 0 Z"
             style="fill:#231f20;fill-opacity:1;fill-rule:nonzero;stroke:none"
             id="path555" />
        </g>
        <path
           d="m 1217.385,589.943 h 1.706 v 31.552 h -1.706 z"
           style="fill:#231f20;fill-opacity:1;fill-rule:nonzero;stroke:none"
           id="path556" />
        <g
           id="g556"
           transform="translate(1255.7607,621.4048)">
          <path
             d="M 0,0 -2.515,-0.045 -18.312,-18.042 V 0 h -1.93 v -31.552 h 1.93 v 10.637 l 3.769,4.174 11.984,-14.721 h 2.333 l -12.97,16.427 z"
             style="fill:#231f20;fill-opacity:1;fill-rule:nonzero;stroke:none"
             id="path557" />
        </g>
        <g
           id="g557"
           transform="translate(927.3125,570.7407)">
          <path
             d="M 0,0 3.957,3.957 -8.02,15.933 v 8.06 h 7.758 l 12.106,-12.106 4.129,4.13 V 0 Z M -8.02,13.357 1.381,3.957 -2.575,0 H -8.02 Z m -7.564,-26.366 -11.187,11.188 h 5.636 v 17.193 l 5.551,5.55 5.743,-5.743 v -17 h 5.444 z M -22.956,13.55 V 0 h -5.637 L -32.55,3.957 Z M -46.948,0 v 15.779 l 3.794,-3.794 12.007,12.008 h 8.191 V 16.126 L -35.125,3.957 -31.169,0 Z m 13.225,23.993 -9.431,-9.431 -3.794,3.793 v 5.638 z m -26.397,7.533 11.307,11.309 v -5.666 h 16.982 l 5.642,-5.643 -5.712,-5.712 h -16.87 v -5.637 z m 13.13,13.13 3.836,3.836 9.502,-9.502 H -46.99 Z m 0,18.327 h 15.823 L -35.209,58.94 -22.998,46.729 V 38.99 h -8.079 l -12.077,12.078 -3.836,-3.836 z m 23.992,-13.678 -9.636,9.635 4.043,4.043 h 5.593 z m 7.33,26.6 11.101,-11.1 H -9.822 V 47.821 l -5.846,-5.845 -5.509,5.507 V 64.805 H -26.77 Z M -8,49.644 v 13.339 h 5.255 L 1.297,58.94 Z M 15.992,62.983 V 46.821 L 11.844,50.97 -0.136,38.99 H -8 v 8.077 L 3.873,58.94 -0.169,62.983 Z M 2.44,38.99 l 9.404,9.405 4.148,-4.149 V 38.99 Z m -12.281,-21.236 -5.743,5.743 -5.551,-5.55 v 7.867 h -8.19 l 5.712,5.712 -5.642,5.643 h 8.078 v 7.738 l 5.509,-5.508 5.846,5.847 v -8.077 h 7.865 l -5.74,-5.74 5.614,-5.615 h -7.758 z m 25.814,0.838 -4.129,-4.129 -9.53,9.53 H 15.973 Z M 28.81,31.429 17.795,20.414 v 5.4 H 0.493 l -5.614,5.615 5.739,5.74 h 17.195 v 5.255 z M 17.795,17.838 31.385,31.429 17.813,45 V 64.805 H -1.991 L -15.668,78.481 -29.346,64.805 H -48.813 V 45.41 L -62.695,31.526 -48.771,17.601 V -1.821 h 19.424 l 13.763,-13.764 13.763,13.764 h 19.616 z"
             style="fill:#231f20;fill-opacity:1;fill-rule:nonzero;stroke:none"
             id="path558" />
        </g>
        <g
           id="g558"
           transform="translate(376.0757,193.6597)">
          <path
             d="M 0,0 5.479,5.479 -11.105,22.064 V 33.227 H -0.362 L 16.402,16.462 22.12,22.18 V 0 Z M -11.105,18.498 1.913,5.479 -3.567,0 h -7.538 z m -10.477,-36.513 -15.492,15.493 h 7.806 v 23.809 l 7.686,7.687 7.954,-7.954 V -2.522 h 7.539 z m -10.209,36.78 V 0 h -7.805 l -5.48,5.479 z M -65.016,0 v 21.852 l 5.254,-5.254 16.628,16.629 h 11.343 V 22.332 L -48.643,5.479 -43.163,0 Z m 18.315,33.227 -13.061,-13.062 -5.254,5.254 v 7.808 z m -36.555,10.432 15.659,15.66 v -7.846 h 23.516 l 7.813,-7.814 -7.91,-7.91 h -23.361 v -7.808 z m 18.182,18.183 5.312,5.312 13.159,-13.159 h -18.471 z m 0,25.379 h 21.913 l -5.598,-5.598 16.91,-16.911 V 53.995 h -11.187 l -16.726,16.726 -5.312,-5.312 z m 33.225,-18.942 -13.343,13.344 5.598,5.598 h 7.745 z m 10.151,36.837 15.373,-15.372 h -7.277 V 66.226 l -8.096,-8.097 -7.628,7.628 v 23.987 h -7.745 z m 10.619,-36.368 v 18.473 h 7.277 L 1.796,81.623 Z M 22.146,87.221 V 64.84 l -5.744,5.745 -16.59,-16.59 H -11.079 V 65.181 L 5.363,81.623 -0.235,87.221 Z M 3.379,53.995 16.402,67.018 22.146,61.273 v -7.278 z m -17.007,-29.408 -7.954,7.953 -7.686,-7.686 v 10.895 h -11.343 l 7.911,7.91 -7.814,7.814 h 11.188 v 10.716 l 7.628,-7.627 8.096,8.096 V 51.473 H -2.71 l -7.949,-7.95 7.774,-7.774 H -13.628 Z M 22.12,25.747 16.402,20.029 3.205,33.227 H 22.12 Z M 39.896,43.523 24.643,28.27 v 7.479 H 0.682 l -7.774,7.774 7.948,7.95 h 23.813 v 7.278 z M 24.643,24.703 43.463,43.523 24.669,62.317 V 89.744 H -2.757 l -18.941,18.94 -18.941,-18.94 H -67.597 V 62.886 L -86.823,43.659 -67.539,24.375 V -2.522 h 26.898 l 19.059,-19.06 19.06,19.06 h 27.165 z"
             style="fill:#231f20;fill-opacity:1;fill-rule:nonzero;stroke:none"
             id="path559" />
        </g>
        <g
           id="g559">
          <g
             id="g560" />
          <g
             id="g563">
            <g
               clip-path="url(#clipPath560)"
               opacity="0.5"
               id="g562">
              <g
                 transform="translate(1061.0879,249.9634)"
                 id="g561">
                <path
                   d="M 0,0 -25.382,25.382 0,50.765 25.383,25.382 Z"
                   style="fill:#231f20;fill-opacity:1;fill-rule:nonzero;stroke:none"
                   id="path561" />
              </g>
            </g>
          </g>
        </g>
        <g
           id="g564">
          <g
             id="g565" />
          <g
             id="g567">
            <g
               clip-path="url(#clipPath565)"
               opacity="0.5"
               id="g566">
              <path
                 d="m 1052.045,245.997 h -35.896 v 35.896 h 35.896 z"
                 style="fill:#231f20;fill-opacity:1;fill-rule:nonzero;stroke:none"
                 id="path566" />
            </g>
          </g>
        </g>
        <g
           id="g568">
          <g
             id="g569" />
          <g
             id="g572">
            <g
               clip-path="url(#clipPath569)"
               opacity="0.5"
               id="g571">
              <g
                 transform="translate(1048.4561,236.7974)"
                 id="g570">
                <path
                   d="M 0,0 -25.383,-25.383 -50.766,0 -25.383,25.382 Z"
                   style="fill:#231f20;fill-opacity:1;fill-rule:nonzero;stroke:none"
                   id="path570" />
              </g>
            </g>
          </g>
        </g>
        <g
           id="g573">
          <g
             id="g574" />
          <g
             id="g576">
            <g
               clip-path="url(#clipPath574)"
               opacity="0.5"
               id="g575">
              <path
                 d="m 1052.423,191.858 h -35.896 v 35.896 h 35.896 z"
                 style="fill:#231f20;fill-opacity:1;fill-rule:nonzero;stroke:none"
                 id="path575" />
            </g>
          </g>
        </g>
        <g
           id="g577">
          <g
             id="g578" />
          <g
             id="g581">
            <g
               clip-path="url(#clipPath578)"
               opacity="0.5"
               id="g580">
              <g
                 transform="translate(1061.6221,224.1646)"
                 id="g579">
                <path
                   d="M 0,0 25.382,-25.382 0,-50.765 -25.383,-25.382 Z"
                   style="fill:#231f20;fill-opacity:1;fill-rule:nonzero;stroke:none"
                   id="path579" />
              </g>
            </g>
          </g>
        </g>
        <g
           id="g582">
          <g
             id="g583" />
          <g
             id="g585">
            <g
               clip-path="url(#clipPath583)"
               opacity="0.5"
               id="g584">
              <path
                 d="m 1070.665,228.131 h 35.896 v -35.896 h -35.896 z"
                 style="fill:#231f20;fill-opacity:1;fill-rule:nonzero;stroke:none"
                 id="path584" />
            </g>
          </g>
        </g>
        <g
           id="g586">
          <g
             id="g587" />
          <g
             id="g590">
            <g
               clip-path="url(#clipPath587)"
               opacity="0.5"
               id="g589">
              <g
                 transform="translate(1074.2539,237.3306)"
                 id="g588">
                <path
                   d="M 0,0 25.383,25.383 50.765,0 25.383,-25.382 Z"
                   style="fill:#231f20;fill-opacity:1;fill-rule:nonzero;stroke:none"
                   id="path588" />
              </g>
            </g>
          </g>
        </g>
        <g
           id="g591">
          <g
             id="g592" />
          <g
             id="g594">
            <g
               clip-path="url(#clipPath592)"
               opacity="0.5"
               id="g593">
              <path
                 d="m 1070.287,282.27 h 35.896 v -35.896 h -35.896 z"
                 style="fill:#231f20;fill-opacity:1;fill-rule:nonzero;stroke:none"
                 id="path593" />
            </g>
          </g>
        </g>
        <g
           id="g595"
           transform="translate(1082.7686,193.7798)">
          <path
             d="M 0,0 5.479,5.479 -11.105,22.064 V 33.227 H -0.362 L 16.401,16.462 22.119,22.18 V 0 Z M -11.105,18.498 1.912,5.479 -3.567,0 h -7.538 z m -10.477,-36.513 -15.492,15.493 h 7.805 v 23.809 l 7.687,7.687 7.954,-7.954 V -2.522 h 7.538 z m -10.209,36.78 V 0 h -7.806 l -5.479,5.479 z M -65.017,0 v 21.852 l 5.254,-5.254 16.629,16.629 h 11.343 V 22.332 L -48.644,5.479 -43.164,0 Z m 18.316,33.227 -13.062,-13.062 -5.254,5.254 v 7.808 z m -36.555,10.432 15.659,15.66 v -7.846 h 23.516 l 7.813,-7.814 -7.911,-7.91 h -23.36 v -7.808 z m 18.182,18.183 5.311,5.312 13.159,-13.159 h -18.47 z m 0,25.38 h 21.913 L -48.76,81.623 -31.849,64.712 V 53.995 h -11.187 l -16.727,16.726 -5.311,-5.312 z m 33.225,-18.943 -13.343,13.344 5.597,5.599 h 7.746 z m 10.151,36.838 15.373,-15.373 h -7.278 V 66.226 l -8.095,-8.097 -7.628,7.628 v 23.987 h -7.746 z M -11.08,68.748 v 18.474 h 7.277 L 1.796,81.623 Z M 22.146,87.222 V 64.84 L 16.401,70.585 -0.188,53.995 H -11.08 V 65.181 L 5.363,81.623 -0.235,87.222 Z M 3.379,53.995 16.401,67.018 22.146,61.273 v -7.278 z m -17.007,-29.408 -7.954,7.953 -7.687,-7.686 v 10.895 h -11.342 l 7.91,7.91 -7.813,7.814 h 11.188 v 10.716 l 7.628,-7.627 8.095,8.096 V 51.473 h 10.892 l -7.949,-7.95 7.774,-7.774 H -13.628 Z M 22.119,25.747 16.401,20.029 3.204,33.227 H 22.119 Z M 39.896,43.523 24.642,28.27 v 7.479 H 0.682 l -7.775,7.774 7.949,7.95 h 23.813 v 7.278 z M 24.642,24.703 43.462,43.523 24.669,62.317 V 89.744 H -2.758 l -18.94,18.94 -18.941,-18.94 H -67.597 V 62.887 L -86.823,43.659 -67.539,24.375 V -2.522 h 26.898 l 19.059,-19.06 19.06,19.06 h 27.164 z"
             style="fill:#231f20;fill-opacity:1;fill-rule:nonzero;stroke:none"
             id="path595" />
        </g>
      </g>
    </g>
  </g>
</svg>
