<svg width="54" height="55" viewBox="0 0 54 55" fill="none" xmlns="http://www.w3.org/2000/svg">
<path d="M46.2003 35.3135L54 27.5126L46.2086 19.72V8.35112H34.8415L26.9916 0.5L19.1417 8.35112H7.96701V19.4857L0 27.454L7.9921 35.4473V46.5987H19.1417L27.0418 54.5L34.9419 46.5987H46.2003V35.3135ZM52.5195 27.5084L46.1961 33.8328V30.7333H36.2676L33.0432 27.5126L36.3388 24.2165H46.2086V21.2007L52.5195 27.5084ZM45.1547 34.8785L42.7835 37.2501L37.3132 31.779H45.1506V34.8785H45.1547ZM30.3374 35.3595L27.0418 32.0634L23.855 35.2507V30.7333H19.1543L22.4331 27.454L19.1961 24.2165H23.8341V19.7744L26.9958 22.9366L30.3499 19.582V24.2165H34.8624L31.5669 27.5126L34.7913 30.7333H30.3374V35.3595ZM37.3843 23.1708L42.7793 17.7708L45.1589 20.1508V23.1666H37.3843V23.1708ZM45.1631 9.39682V18.6743L42.7835 16.2943L35.908 23.1708H31.3954V18.5362L38.2082 11.7183L35.8871 9.39682H45.1631ZM31.3954 17.0555V9.39682H34.4108L36.7319 11.7183L31.3954 17.0555ZM26.9916 1.97653L33.3652 8.35112H30.3499V18.1012L26.9958 21.4558L23.8341 18.2936V8.35112H20.6222L26.9916 1.97653ZM22.7844 17.2479L17.2556 11.7183L19.5767 9.39682H22.7886V17.2479H22.7844ZM9.01255 9.39682H18.0962L15.7751 11.7183L22.7844 18.7287V23.1708H18.1464L11.2124 16.2357L9.01255 18.4359V9.39682ZM9.01255 19.9166L11.2124 17.7122L16.6659 23.1666H9.01255V19.9166ZM1.4763 27.454L7.96701 20.9623V24.2165H17.7114L20.9484 27.454L17.6696 30.7333H7.9921V33.9708L1.4763 27.454ZM16.6282 31.779L11.2124 37.1957L9.03346 35.0165V31.779H16.6282ZM9.03764 45.553V36.493L11.2165 38.6723L18.1087 31.779H22.8095V36.2964L15.8253 43.2817L18.0962 45.553H9.03764ZM22.8095 37.773V45.553H19.5725L17.3016 43.2817L22.8095 37.773ZM27.0418 53.0193L20.6222 46.5987H23.8592V36.7273L27.046 33.54L30.3415 36.836V46.5945H33.4656L27.0418 53.0193ZM31.3829 37.8859L36.7779 43.2817L34.507 45.553H31.3829V37.8859ZM35.9874 45.553L38.2584 43.2817L31.3829 36.4052V31.779H35.8369L42.7835 38.7266L45.1547 36.355V45.5488H35.9874V45.553Z" fill="white"/>
</svg>
