<svg width="552" height="553" viewBox="0 0 552 553" fill="none" xmlns="http://www.w3.org/2000/svg">
<path d="M306.9 285.233C306.9 279.43 302.303 274.678 296.656 274.678C291.408 274.678 287.111 278.73 286.511 283.933H288.16C288.76 279.68 292.358 276.429 296.656 276.429C301.403 276.429 305.251 280.381 305.251 285.233C305.251 286.934 304.851 288.635 303.452 290.586L295.406 298.29V300.691H297.555V298.34L304.602 291.887C306.101 289.986 306.9 287.534 306.9 285.233ZM298.055 308.145C298.055 307.195 297.305 306.394 296.356 306.394C295.406 306.394 294.607 307.195 294.607 308.145C294.607 309.096 295.406 309.846 296.356 309.846C297.305 309.846 298.055 309.096 298.055 308.145Z" fill="#D0C3B4"/>
<mask id="mask0_265_265" style="mask-type:luminance" maskUnits="userSpaceOnUse" x="17" y="18" width="517" height="518">
<path d="M521.388 225.907L326.382 30.6976C309.84 14.1383 283.009 14.1493 266.453 30.7224L29.9768 267.445C13.421 284.018 13.41 310.877 29.952 327.437L224.958 522.646C241.5 539.205 268.331 539.194 284.887 522.621L521.363 285.898C537.919 269.325 537.93 242.466 521.388 225.907Z" fill="white"/>
</mask>
<g mask="url(#mask0_265_265)">
<path opacity="0.05" d="M187.41 367.017L187.477 335.606L164.635 312.74L141.793 289.874L164.603 267.041L187.413 244.207L187.476 211.995L187.54 179.783L219.718 179.72L251.896 179.657L274.706 156.823L297.515 133.99L320.306 156.804L343.097 179.619L375.275 179.656L407.453 179.692L407.49 211.904L407.526 244.115L430.317 266.93L453.108 289.745L430.424 312.452L407.741 335.159L407.49 367.437L407.241 399.713L374.997 399.964L342.753 400.215L320.069 422.922L297.386 445.629L274.544 422.763L251.702 399.897L220.324 399.965C203.067 400.001 188.586 399.67 188.146 399.228C187.705 398.787 187.374 384.292 187.41 367.017ZM220.327 393.971L245.705 393.894L239.38 387.562L233.054 381.23L252.957 361.307L272.859 341.384L272.719 327.88L272.58 314.375L258.904 314.752L245.229 315.128L225.677 334.7L206.125 354.273L199.8 347.941L193.474 341.609L193.397 367.014C193.355 380.986 193.687 392.785 194.135 393.233C194.583 393.681 206.369 394.014 220.327 393.971ZM187.433 317.507L187.626 308.639L216.743 308.573L245.861 308.505L254.443 299.914L263.026 291.322L252.955 281.241L242.885 271.16L215.263 271.114L187.642 271.068L187.456 262.202L187.27 253.336L169.021 271.604L150.774 289.87L169.007 308.122L187.24 326.374L187.433 317.507ZM222.598 331.793C230.833 323.549 237.048 316.28 236.409 315.64C235.77 315 225.878 314.517 214.428 314.565L193.61 314.654L193.417 323.509C193.254 330.959 194.367 333.509 200.424 339.573L207.625 346.781L222.598 331.793ZM263.813 393.951L272.686 393.757L272.695 372.141L272.704 350.525L257.37 365.875L242.035 381.227L248.487 387.686C253.717 392.921 256.621 394.108 263.813 393.951ZM315.637 418.373L333.886 400.105L325.029 399.919L316.173 399.733L316.127 372.082L316.08 344.432L306.758 335.1L297.435 325.768L288.105 335.108L278.775 344.447L278.706 372.098L278.637 399.748L269.78 399.942L260.924 400.136L279.157 418.388L297.39 436.639L315.637 418.373ZM215.891 265.122L236.764 265.033L221.469 249.722L206.175 234.412L199.893 240.7C195.116 245.482 193.569 248.959 193.432 255.216C193.333 259.742 193.649 263.842 194.135 264.328C194.62 264.813 204.41 265.17 215.891 265.122ZM331.656 393.937C338.174 394.074 341.212 392.771 346.333 387.645L352.791 381.181L337.496 365.87L322.201 350.559L322.113 371.454C322.064 382.947 322.341 392.668 322.73 393.057C323.118 393.446 327.135 393.842 331.656 393.937ZM305.739 325.087C310.226 329.578 314.373 332.775 314.956 332.191C315.539 331.608 316.078 326.074 316.154 319.893L316.293 308.655L329.63 308.524L342.967 308.393L333.679 299.096L324.391 289.798L333.688 280.492L342.983 271.187L329.645 271.068L316.308 270.948L316.18 259.71C316.109 253.53 315.574 247.996 314.992 247.413C314.409 246.83 310.227 250.062 305.697 254.597L297.462 262.841L289.233 254.604C284.708 250.073 280.528 246.844 279.945 247.428C279.362 248.011 278.823 253.545 278.747 259.726L278.608 270.964L265.271 271.095L251.934 271.225L261.222 280.523L270.51 289.821L262.274 298.065C257.745 302.599 254.516 306.785 255.099 307.368C255.681 307.951 261.227 308.487 267.424 308.558L278.69 308.687L278.674 321.385L278.657 334.082L288.12 325.502L297.582 316.921L305.739 325.087ZM226.15 245.415L245.95 265.235L259.295 265.104L272.641 264.973L272.771 251.613L272.901 238.255L253.016 218.348L233.13 198.442L239.484 192.082L245.836 185.723L219.688 185.734L193.539 185.744L193.446 211.254L193.353 236.763L199.852 231.179L206.351 225.594L226.15 245.415ZM377.481 393.906L401.359 393.825L401.438 369.924C401.482 356.778 400.998 345.5 400.362 344.863C399.725 344.226 396.846 346.065 393.964 348.951L388.723 354.197L368.837 334.291L348.952 314.384L335.607 314.514L322.262 314.645L322.131 328.005L322 341.364L341.885 361.27L361.771 381.177L356.53 386.423C353.648 389.308 351.81 392.191 352.447 392.828C353.083 393.465 364.349 393.95 377.481 393.906ZM272.764 207.498L272.773 185.882L263.9 185.695C256.708 185.544 253.803 186.734 248.569 191.973L242.111 198.438L257.433 213.776L272.755 229.114L272.764 207.498ZM306.796 244.511L316.126 235.172L316.195 207.521L316.264 179.87L325.121 179.677L333.978 179.483L315.745 161.231L297.512 142.979L279.264 161.246L261.016 179.513L269.892 179.7L278.767 179.887L278.756 207.499L278.744 235.11L288.105 244.481L297.466 253.851L306.796 244.511ZM379.638 308.505L407.26 308.55L407.434 316.844C407.529 321.405 408.076 325.605 408.648 326.177C409.22 326.75 417.774 319.125 427.656 309.233L445.625 291.245L426.644 272.245L407.663 253.244L407.468 262.11L407.275 270.976L379.654 271.046L352.032 271.115L342.702 280.455L333.371 289.794L342.694 299.127L352.016 308.459L379.638 308.505ZM395.485 341.437C399.41 337.509 400.855 333.429 401.171 325.394L401.594 314.619L379.838 314.575L358.083 314.531L374.153 330.618L390.223 346.705L395.485 341.437ZM336.494 265.078L349.211 264.953L368.994 245.149L388.776 225.346L394.013 230.588C396.893 233.471 399.771 235.307 400.407 234.67C401.045 234.032 401.538 222.744 401.505 209.584L401.444 185.658L375.298 185.669L349.151 185.68L355.499 192.034L361.847 198.388L342.065 218.191L322.282 237.995L322.157 250.725C322.088 257.726 322.425 263.847 322.906 264.328C323.386 264.809 329.501 265.146 336.494 265.078ZM337.894 213.381L352.867 198.392L346.415 191.932C341.19 186.701 338.28 185.51 331.116 185.667L322.27 185.86L322.181 206.7C322.132 218.163 322.278 227.727 322.506 227.955C322.734 228.183 329.658 221.625 337.894 213.381ZM401.484 256.136C401.641 248.937 400.456 246.029 395.226 240.794L388.773 234.335L373.438 249.686L358.103 265.037L379.697 265.028L401.291 265.018L401.484 256.136Z" fill="#D0C3B4"/>
<path d="M317.653 342.451L317.653 396.829L342.328 396.829L296.284 442.92L250.11 396.698L273.972 396.698L273.972 342.598" stroke="white" stroke-width="4"/>
<path d="M243.891 311.882L189.57 311.881L189.57 336.582L143.527 290.491L189.701 244.268V268.155L243.745 268.155" stroke="white" stroke-width="4"/>
<path d="M275.488 237.695L275.487 183.317L250.812 183.317L296.856 137.226L343.03 183.448L319.168 183.448L319.168 237.549" stroke="white" stroke-width="4.48234"/>
<path d="M349.249 268.264L403.57 268.264L403.57 243.563L449.613 289.655L403.439 335.877L403.439 311.991L349.395 311.991" stroke="white" stroke-width="4"/>
</g>
</svg>
