<svg width="1501" height="918" viewBox="0 0 1501 918" fill="none" xmlns="http://www.w3.org/2000/svg">
<rect opacity="0.1" x="0.54126" y="0.5" width="1470.86" height="750.082" stroke="#D0C3B4"/>
<path d="M1162.92 626.624H311.188L119.089 841.992H1352.86L1162.92 626.624Z" fill="#332D2A" stroke="#D0C3B4"/>
<path d="M1162.92 591.991H311.188L119.089 807.359H1352.86L1162.92 591.991Z" fill="#332D2A" stroke="#D0C3B4"/>
<rect x="153.139" y="38.3789" width="230.602" height="462.203" stroke="#D0C3B4"/>
<rect x="166.126" y="50.2839" width="230.602" height="462.203" fill="#1B1A1A" stroke="#D0C3B4"/>
<rect x="1084.96" y="44.8726" width="230.602" height="462.203" stroke="#D0C3B4"/>
<rect x="1075.22" y="56.7771" width="230.602" height="462.203" fill="#1B1A1A" stroke="#D0C3B4"/>
<rect x="511.364" y="55.6948" width="449.216" height="233.848" stroke="#D0C3B4"/>
<rect x="518.439" y="64.9353" width="29.3676" height="27.8293" fill="white"/>
<rect x="518.439" y="96.8877" width="29.3676" height="26.7986" fill="#8EA365"/>
<rect x="518.439" y="127.809" width="29.3676" height="27.8293" fill="#8EA365"/>
<rect x="518.439" y="159.761" width="29.3676" height="27.8293" fill="white"/>
<rect x="518.439" y="190.682" width="29.3676" height="27.8293" fill="#8EA365"/>
<rect x="518.439" y="222.635" width="29.3676" height="27.8293" fill="#8EA365"/>
<rect x="518.439" y="254.587" width="29.3676" height="26.7986" fill="white"/>
<rect x="549.982" y="64.9353" width="28.2799" height="27.8293" fill="#8EA365"/>
<rect x="549.982" y="96.8877" width="28.2799" height="26.7986" fill="white"/>
<rect x="549.982" y="127.809" width="28.2799" height="27.8293" fill="#8EA365"/>
<rect x="549.982" y="159.761" width="28.2799" height="27.8293" fill="#8EA365"/>
<rect x="549.982" y="190.682" width="28.2799" height="27.8293" fill="#8EA365"/>
<rect x="549.982" y="222.635" width="28.2799" height="27.8293" fill="white"/>
<rect x="549.982" y="254.587" width="28.2799" height="26.7986" fill="#8EA365"/>
<rect x="580.438" y="64.9353" width="29.3676" height="27.8293" fill="#8EA365"/>
<rect x="580.438" y="96.8877" width="29.3676" height="26.7986" fill="#8EA365"/>
<rect x="580.438" y="127.809" width="29.3676" height="27.8293" fill="#8EA365"/>
<rect x="580.438" y="159.761" width="29.3676" height="27.8293" fill="white"/>
<rect x="580.438" y="190.682" width="29.3676" height="27.8293" fill="#8EA365"/>
<rect x="580.438" y="222.635" width="29.3676" height="27.8293" fill="#8EA365"/>
<rect x="580.438" y="254.587" width="29.3676" height="26.7986" fill="#8EA365"/>
<rect x="611.981" y="64.9353" width="29.3676" height="27.8293" fill="white"/>
<rect x="611.981" y="96.8877" width="29.3676" height="26.7986" fill="#8EA365"/>
<rect x="611.981" y="127.809" width="29.3676" height="27.8293" fill="white"/>
<rect x="611.981" y="159.761" width="29.3676" height="27.8293" fill="#8EA365"/>
<rect x="611.981" y="190.682" width="29.3676" height="27.8293" fill="white"/>
<rect x="611.981" y="222.635" width="29.3676" height="27.8293" fill="#8EA365"/>
<rect x="611.981" y="254.587" width="29.3676" height="26.7986" fill="white"/>
<rect x="643.524" y="64.9353" width="29.3676" height="27.8293" fill="#8EA365"/>
<rect x="643.524" y="96.8877" width="29.3676" height="26.7986" fill="#8EA365"/>
<rect x="643.524" y="127.809" width="29.3676" height="27.8293" fill="#8EA365"/>
<rect x="643.524" y="159.761" width="29.3676" height="27.8293" fill="white"/>
<rect x="643.524" y="190.682" width="29.3676" height="27.8293" fill="#8EA365"/>
<rect x="643.524" y="222.635" width="29.3676" height="27.8293" fill="#8EA365"/>
<rect x="643.524" y="254.587" width="29.3676" height="26.7986" fill="#8EA365"/>
<rect x="675.067" y="64.9353" width="28.2799" height="27.8293" fill="#8EA365"/>
<rect x="675.067" y="96.8877" width="28.2799" height="26.7986" fill="white"/>
<rect x="675.067" y="127.809" width="28.2799" height="27.8293" fill="#8EA365"/>
<rect x="675.067" y="159.761" width="28.2799" height="27.8293" fill="#8EA365"/>
<rect x="675.067" y="190.682" width="28.2799" height="27.8293" fill="#8EA365"/>
<rect x="675.067" y="222.635" width="28.2799" height="27.8293" fill="white"/>
<rect x="675.067" y="254.587" width="28.2799" height="26.7986" fill="#8EA365"/>
<rect x="705.522" y="64.9353" width="29.3676" height="27.8293" fill="white"/>
<rect x="705.522" y="96.8877" width="29.3676" height="26.7986" fill="#8EA365"/>
<rect x="705.522" y="127.809" width="29.3676" height="27.8293" fill="#8EA365"/>
<rect x="705.522" y="159.761" width="29.3676" height="27.8293" fill="white"/>
<rect x="705.522" y="190.682" width="29.3676" height="27.8293" fill="#8EA365"/>
<rect x="705.522" y="222.635" width="29.3676" height="27.8293" fill="#8EA365"/>
<rect x="705.522" y="254.587" width="29.3676" height="26.7986" fill="white"/>
<rect x="738.137" y="64.9353" width="29.3676" height="27.8293" fill="white"/>
<rect x="738.136" y="96.8877" width="29.3676" height="26.7986" fill="#8EA365"/>
<rect x="738.136" y="127.809" width="29.3676" height="27.8293" fill="#8EA365"/>
<rect x="738.136" y="159.761" width="29.3676" height="27.8293" fill="white"/>
<rect x="738.136" y="190.682" width="29.3676" height="27.8293" fill="#8EA365"/>
<rect x="738.136" y="222.635" width="29.3676" height="27.8293" fill="#8EA365"/>
<rect x="738.136" y="254.587" width="29.3676" height="26.7986" fill="white"/>
<rect x="769.68" y="64.9353" width="28.2799" height="27.8293" fill="#8EA365"/>
<rect x="769.68" y="96.8877" width="28.2799" height="26.7986" fill="white"/>
<rect x="769.68" y="127.809" width="28.2799" height="27.8293" fill="#8EA365"/>
<rect x="769.68" y="159.761" width="28.2799" height="27.8293" fill="#8EA365"/>
<rect x="769.68" y="190.682" width="28.2799" height="27.8293" fill="#8EA365"/>
<rect x="769.68" y="222.635" width="28.2799" height="27.8293" fill="white"/>
<rect x="769.68" y="254.587" width="28.2799" height="26.7986" fill="#8EA365"/>
<rect x="800.135" y="64.9353" width="29.3676" height="27.8293" fill="#8EA365"/>
<rect x="800.135" y="96.8877" width="29.3676" height="26.7986" fill="#8EA365"/>
<rect x="800.135" y="127.809" width="29.3676" height="27.8293" fill="#8EA365"/>
<rect x="800.135" y="159.761" width="29.3676" height="27.8293" fill="white"/>
<rect x="800.135" y="190.682" width="29.3676" height="27.8293" fill="#8EA365"/>
<rect x="800.135" y="222.635" width="29.3676" height="27.8293" fill="#8EA365"/>
<rect x="800.135" y="254.587" width="29.3676" height="26.7986" fill="#8EA365"/>
<rect x="831.678" y="64.9353" width="29.3676" height="27.8293" fill="white"/>
<rect x="831.678" y="96.8877" width="29.3676" height="26.7986" fill="#8EA365"/>
<rect x="831.678" y="127.809" width="29.3676" height="27.8293" fill="white"/>
<rect x="831.678" y="159.761" width="29.3676" height="27.8293" fill="#8EA365"/>
<rect x="831.678" y="190.682" width="29.3676" height="27.8293" fill="white"/>
<rect x="831.678" y="222.635" width="29.3676" height="27.8293" fill="#8EA365"/>
<rect x="831.678" y="254.587" width="29.3676" height="26.7986" fill="white"/>
<rect x="863.221" y="64.9353" width="29.3676" height="27.8293" fill="#8EA365"/>
<rect x="863.221" y="96.8877" width="29.3676" height="26.7986" fill="#8EA365"/>
<rect x="863.221" y="127.809" width="29.3676" height="27.8293" fill="#8EA365"/>
<rect x="863.221" y="159.761" width="29.3676" height="27.8293" fill="white"/>
<rect x="863.221" y="190.682" width="29.3676" height="27.8293" fill="#8EA365"/>
<rect x="863.221" y="222.635" width="29.3676" height="27.8293" fill="#8EA365"/>
<rect x="863.221" y="254.587" width="29.3676" height="26.7986" fill="#8EA365"/>
<rect x="894.764" y="64.9353" width="28.2799" height="27.8293" fill="#8EA365"/>
<rect x="894.764" y="96.8877" width="28.2799" height="26.7986" fill="white"/>
<rect x="894.764" y="127.809" width="28.2799" height="27.8293" fill="#8EA365"/>
<rect x="894.764" y="159.761" width="28.2799" height="27.8293" fill="#8EA365"/>
<rect x="894.764" y="190.682" width="28.2799" height="27.8293" fill="#8EA365"/>
<rect x="894.764" y="222.635" width="28.2799" height="27.8293" fill="white"/>
<rect x="894.764" y="254.587" width="28.2799" height="26.7986" fill="#8EA365"/>
<rect x="925.219" y="64.9353" width="29.3676" height="27.8293" fill="white"/>
<rect x="925.219" y="96.8877" width="29.3676" height="26.7986" fill="#8EA365"/>
<rect x="925.219" y="127.809" width="29.3676" height="27.8293" fill="#8EA365"/>
<rect x="925.219" y="159.761" width="29.3676" height="27.8293" fill="white"/>
<rect x="925.219" y="190.682" width="29.3676" height="27.8293" fill="#8EA365"/>
<rect x="925.219" y="222.635" width="29.3676" height="27.8293" fill="#8EA365"/>
<rect x="925.219" y="254.587" width="29.3676" height="26.7986" fill="white"/>
<path d="M566.211 365.17L584.353 638.758M566.211 365.17L538.493 417.066M566.211 365.17L578.306 343.001V331.412M584.353 638.758L587.377 692.67M584.353 638.758L530.057 674.531M584.353 638.758L617.615 650.85M452.819 725.42L530.057 674.531M645.333 660.927L617.615 650.85M587.377 692.67L530.057 674.531M587.377 692.67L617.615 650.85" stroke="#D0C3B4" stroke-width="4" stroke-linecap="round" stroke-linejoin="round"/>
<path d="M888.243 693.678L869.092 698.212M888.243 693.678L889.854 653.874M888.243 693.678L950.23 679.066M869.092 698.212L889.854 653.874M869.092 698.212L819.704 793.943M889.854 653.874L890.364 641.278M950.23 679.066L890.364 641.278M950.23 679.066L1035.4 731.97M890.364 641.278L903.362 350.055V326.878" stroke="#D0C3B4" stroke-width="4" stroke-linecap="round" stroke-linejoin="round"/>
<path d="M929.568 384.316L915.457 595.931M915.457 595.931L912.271 624.146M915.457 595.931L929.568 608.346M915.457 595.931L897.818 606.932M860.525 630.193L897.818 606.932M965.853 640.269L929.568 608.346M908.402 658.408L912.271 624.146M912.271 624.146L929.568 608.346M912.271 624.146L897.818 606.932" stroke="#D0C3B4" stroke-width="4" stroke-linecap="round" stroke-linejoin="round"/>
<path d="M951.238 477.528L940.655 615.581M940.655 615.581L964.845 639.262M940.655 615.581L905.882 635.231M940.655 615.581L911.929 613.566" stroke="#D0C3B4" stroke-width="4" stroke-linecap="round" stroke-linejoin="round"/>
<path d="M616.607 685.112L592.417 768.751" stroke="#D0C3B4" stroke-width="3" stroke-linecap="round" stroke-linejoin="round"/>
<path d="M867.58 687.127L889.755 764.216" stroke="#D0C3B4" stroke-width="3" stroke-linecap="round" stroke-linejoin="round"/>
<path d="M902.595 367.899C903.17 360.443 894.206 357.623 889.651 357.145C895.256 356.843 903.943 356.293 908.417 355.784C909.064 355.206 909.76 354.902 910.505 354.995C912.199 355.206 911.022 355.488 908.417 355.784C904.068 359.677 901.969 376.012 902.595 367.899Z" fill="#D0C3B4"/>
<path d="M875.972 362.651C894.518 361.442 917.969 356.773 927.377 354.59V351.063H937.456V354.59C957.11 356.605 994.807 361.039 988.356 362.651C981.905 364.263 945.015 365.338 927.377 365.674C902.514 365.17 857.427 363.86 875.972 362.651Z" fill="#332D2A" stroke="#D0C3B4" stroke-linecap="round" stroke-linejoin="round"/>
<path d="M936.448 381.797C934.432 382.603 933.256 384.82 932.92 385.828L930.904 392.378H926.873L925.361 383.813C924.857 382.805 923.446 380.79 921.833 380.79C919.817 380.79 920.825 377.263 920.825 375.751C920.825 374.542 919.145 373.904 918.305 373.736C903.354 371.384 873.755 366.48 874.965 365.674C876.174 364.868 914.106 366.01 932.92 366.682C952.743 367.522 992.086 369.403 990.876 370.209C989.364 371.217 951.567 373.736 947.535 373.736C944.31 373.736 940.144 376.087 938.464 377.263C938.632 378.438 938.464 380.991 936.448 381.797Z" fill="#332D2A" stroke="#D0C3B4" stroke-linecap="round" stroke-linejoin="round"/>
<path fill-rule="evenodd" clip-rule="evenodd" d="M717.351 512.673L720.522 424.053C656.272 426.997 607.833 421.197 591.645 417.929C590.467 430.146 590.4 443.619 590.278 456.13C590.127 471.477 591.568 486.229 592.448 508.203C637.027 525.125 695.13 518.264 717.351 512.673Z" fill="#332D2A"/>
<path d="M591.645 417.929C607.833 421.197 656.272 426.997 720.522 424.053C710.108 419.143 692.758 416.405 663.36 414.949C633.962 413.494 600.147 415.208 591.645 417.929Z" fill="white"/>
<path d="M591.645 417.929C607.833 421.197 656.272 426.997 720.522 424.053M591.645 417.929C600.147 415.208 633.962 413.494 663.36 414.949C692.758 416.405 710.108 419.143 720.522 424.053M591.645 417.929C590.467 430.146 590.4 443.619 590.278 456.13C590.127 471.477 591.568 486.229 592.448 508.203C637.027 525.125 695.13 518.264 717.351 512.673M720.522 424.053C719.189 461.314 718.666 475.916 717.351 512.673M720.522 424.053L717.351 512.673" stroke="white" stroke-linecap="round" stroke-linejoin="round"/>
<path fill-rule="evenodd" clip-rule="evenodd" d="M859.11 511.361C859.965 473.208 858.925 455.597 856.271 418.102C792.362 425.471 748.222 424.172 731.85 421.889C732.962 458.423 733.361 471.517 738.159 513.21C783.775 527.674 837.315 518.629 859.11 511.361Z" fill="#332D2A"/>
<path d="M731.85 421.889C748.222 424.172 792.362 425.471 856.271 418.102C845.55 413.735 817.996 412.901 788.565 413.38C759.135 413.858 740.151 418.508 731.85 421.889Z" fill="white"/>
<path d="M731.85 421.889C748.222 424.172 792.362 425.471 856.271 418.102M731.85 421.889C732.962 458.423 733.361 471.517 738.159 513.21C783.775 527.674 837.315 518.629 859.11 511.361C859.965 473.208 858.925 455.597 856.271 418.102M731.85 421.889C740.151 418.508 759.135 413.858 788.565 413.38C817.996 412.901 845.55 413.735 856.271 418.102" stroke="white" stroke-linecap="round" stroke-linejoin="round"/>
<path d="M732.725 437.771C748.238 440.657 791.816 444.156 842.033 435.065" stroke="#D0C3B4"/>
<path d="M926.544 441.856C936.119 446.29 967.365 452.84 988.532 443.267C980.835 440.193 971.397 436.891 957.79 436.717C944.183 436.543 930.576 438.732 926.544 441.856Z" fill="white"/>
<path d="M988.532 443.267C967.365 452.84 936.119 446.29 926.544 441.856V477.529C959.384 487.912 970.389 485.59 987.02 480.048L988.532 443.267Z" fill="#332D2A"/>
<path d="M926.544 441.856C936.119 446.29 967.365 452.84 988.532 443.267M926.544 441.856C926.544 447.802 926.544 469.467 926.544 477.529M926.544 441.856C930.576 438.732 944.183 436.543 957.79 436.717C971.397 436.891 980.835 440.193 988.532 443.267M926.544 441.856V477.529M988.532 443.267L987.02 480.048C970.389 485.59 959.384 487.912 926.544 477.529" stroke="white" stroke-linecap="round" stroke-linejoin="round"/>
<path fill-rule="evenodd" clip-rule="evenodd" d="M948.796 457.351C949.685 439.551 949.936 434.538 952.246 406.242C891.659 414.852 859.157 409.287 842.504 406.435C842.119 406.369 841.743 406.305 841.375 406.242C841.375 423.902 841.728 431.964 842.092 440.297C842.483 449.211 842.887 458.434 842.887 480.048C888.042 495.893 925.536 488.109 947.711 478.536C948.186 469.551 948.521 462.843 948.796 457.351Z" fill="#332D2A"/>
<path d="M898.322 398.424C868.891 398.008 849.774 403.115 841.375 406.242C841.743 406.305 842.119 406.369 842.504 406.435C859.157 409.287 891.659 414.852 952.246 406.242C941.663 401.551 927.754 398.841 898.322 398.424Z" fill="white"/>
<path d="M841.375 406.242C849.774 403.115 868.891 398.008 898.322 398.424C927.754 398.841 941.663 401.551 952.246 406.242M841.375 406.242C841.743 406.305 842.119 406.369 842.504 406.435C859.157 409.287 891.659 414.852 952.246 406.242M841.375 406.242C841.375 423.902 841.728 431.964 842.092 440.297C842.483 449.211 842.887 458.434 842.887 480.048C888.042 495.893 925.536 488.109 947.711 478.536C948.186 469.551 948.521 462.843 948.796 457.351C949.685 439.551 949.936 434.538 952.246 406.242" stroke="white" stroke-linecap="round" stroke-linejoin="round"/>
<path d="M851.962 623.643C851.962 689.341 801.394 742.555 739.07 742.555C676.746 742.555 626.178 689.341 626.178 623.643C626.178 557.946 676.746 504.732 739.07 504.732C801.394 504.732 851.962 557.946 851.962 623.643Z" fill="#332D2A" stroke="#D0C3B4" stroke-linecap="round" stroke-linejoin="round"/>
<path d="M714.88 545.547L727.983 505.24C740.078 504.736 737.558 504.232 749.653 505.24C754.189 519.851 760.237 536.982 762.756 544.539C745.42 540.912 723.615 543.532 714.88 545.547Z" fill="#D0C3B4"/>
<path d="M870.199 661.619C870.199 727.258 812.922 780.53 742.188 780.53C671.455 780.53 614.178 727.258 614.178 661.619C614.178 595.98 671.455 542.708 742.188 542.708C812.922 542.708 870.199 595.98 870.199 661.619Z" fill="#332D2A" stroke="#D0C3B4" stroke-linecap="round" stroke-linejoin="round"/>
<path d="M864.26 662.338C864.26 724.787 809.766 775.474 742.465 775.474C675.165 775.474 620.671 724.787 620.671 662.338C620.671 599.888 675.165 549.201 742.465 549.201C809.766 549.201 864.26 599.888 864.26 662.338Z" fill="#332D2A" stroke="#D0C3B4" stroke-linecap="round" stroke-linejoin="round"/>
<path fill-rule="evenodd" clip-rule="evenodd" d="M569.826 517.238C569.115 499.147 568.401 480.993 567.797 454.053C552.95 466.342 441.73 470.45 437.451 459.435C438.749 476.769 440.63 492.66 442.699 510.141C445.215 531.402 448.01 555.016 450.374 586.439C496.012 607.487 550.034 589.195 571.829 579.511C571.237 553.114 570.533 535.207 569.826 517.238Z" fill="#332D2A"/>
<path d="M437.451 459.435C441.73 470.45 552.95 466.342 567.797 454.053C557.07 447.759 538.254 449.772 508.817 449.851C479.38 449.929 445.75 454.893 437.451 459.435Z" fill="white"/>
<path d="M437.451 459.435C441.73 470.45 552.95 466.342 567.797 454.053M437.451 459.435C445.75 454.893 479.38 449.929 508.817 449.851C538.254 449.772 557.07 447.759 567.797 454.053M437.451 459.435C438.749 476.769 440.63 492.66 442.699 510.141C445.215 531.402 448.01 555.016 450.374 586.439C496.012 607.487 550.034 589.195 571.829 579.511C571.237 553.114 570.533 535.207 569.826 517.238C569.115 499.147 568.401 480.993 567.797 454.053" stroke="white" stroke-linecap="round" stroke-linejoin="round"/>
<path d="M618.623 478.171C603.504 490.124 493.64 487.101 489.608 475.993C491.624 514.462 490.616 548.577 493.64 605.918C538.795 627.983 596.617 615.112 618.623 605.918V478.171Z" fill="#332D2A"/>
<path d="M489.608 475.993C493.64 487.101 603.504 490.124 618.623 478.171C608.04 471.638 590.603 468.59 561.171 468.009C531.74 467.428 498.008 471.638 489.608 475.993Z" fill="white"/>
<path d="M489.608 475.993C493.64 487.101 603.504 490.124 618.623 478.171M489.608 475.993C491.624 514.462 490.616 548.577 493.64 605.918C538.795 627.983 596.617 615.112 618.623 605.918M489.608 475.993C498.008 471.638 531.74 467.428 561.171 468.009C590.603 468.59 608.04 471.638 618.623 478.171M618.623 478.171C618.623 531.882 618.623 552.932 618.623 605.918M618.623 478.171V605.918" stroke="white" stroke-linecap="round" stroke-linejoin="round"/>
<path d="M654.372 339.807C654.355 340.366 653.957 341.005 652.951 341.697C651.96 342.38 650.476 343.043 648.524 343.67C644.627 344.921 638.982 345.992 631.988 346.824C618.009 348.489 598.727 349.194 577.462 348.542C556.197 347.89 536.995 346.004 523.143 343.486C516.214 342.226 510.645 340.812 506.832 339.324C504.922 338.579 503.482 337.826 502.534 337.084C501.573 336.332 501.215 335.669 501.232 335.111C501.249 334.552 501.648 333.913 502.653 333.221C503.644 332.538 505.128 331.875 507.08 331.248C510.977 329.997 516.622 328.926 523.616 328.094C537.595 326.429 556.877 325.724 578.142 326.376C599.408 327.028 618.609 328.914 632.461 331.432C639.39 332.692 644.959 334.106 648.772 335.594C650.682 336.339 652.122 337.092 653.07 337.834C654.031 338.586 654.389 339.249 654.372 339.807Z" fill="#332D2A" stroke="#D0C3B4" stroke-linecap="round" stroke-linejoin="round"/>
<path d="M439.976 483.225C449.717 485.931 469.738 488.636 491.383 488.636" stroke="#D0C3B4"/>
<path d="M1006.59 327.38C1006.7 328.458 1006.22 329.648 1005.02 330.95C1003.83 332.249 1001.98 333.601 999.507 334.98C994.571 337.734 987.27 340.534 978.126 343.215C959.846 348.575 934.296 353.43 905.814 356.504C877.331 359.579 851.334 360.287 832.331 358.952C822.825 358.284 815.095 357.106 809.685 355.468C806.977 354.648 804.881 353.722 803.437 352.708C801.991 351.691 801.263 350.632 801.147 349.554C801.03 348.476 801.515 347.286 802.711 345.984C803.905 344.685 805.755 343.333 808.225 341.954C813.161 339.2 820.462 336.399 829.606 333.718C847.886 328.359 873.436 323.504 901.918 320.429C930.4 317.355 956.398 316.647 975.401 317.982C984.907 318.65 992.637 319.828 998.047 321.466C1000.75 322.285 1002.85 323.211 1004.29 324.226C1005.74 325.243 1006.47 326.302 1006.59 327.38Z" fill="#332D2A" stroke="#D0C3B4" stroke-linecap="round" stroke-linejoin="round"/>
<path d="M904.849 337.139L889.756 339.021C890.279 337.527 892.442 334.32 896.916 333.447C901.389 332.575 904.068 335.545 904.849 337.139Z" fill="#D0C3B4"/>
<path d="M587.401 337.663L574.717 337.004C576.386 335.796 580.658 333.644 584.397 334.698C588.135 335.752 587.957 337.114 587.401 337.663Z" fill="#D0C3B4"/>
<path d="M570.439 357.511C571.997 354.461 570.965 350.459 570.079 348.539C573.053 348.767 577.738 349.054 580.327 349.013C581.086 348.577 581.671 348.382 581.984 348.539C582.618 348.855 581.821 348.989 580.327 349.013C577.748 350.494 573.165 354.765 570.439 357.511C570.094 358.185 569.624 358.813 568.997 359.361C567.423 360.738 568.424 359.541 570.439 357.511Z" fill="#D0C3B4"/>
<path d="M730.561 507.035L720.279 542.208" stroke="#332D2A"/>
<path d="M490.842 499.459C512.487 505.411 568.331 513.745 618.548 499.459" stroke="#D0C3B4"/>
<path d="M590.95 432.9C610.611 437.77 664.002 445.671 720.279 438.311" stroke="#D0C3B4"/>
<path d="M988.136 454.545C983.447 457.431 969.089 462.338 949.175 458.874" stroke="#D0C3B4"/>
<path d="M772.48 677.799L784.673 665.604L772.493 653.422V635.65H754.724L742.452 623.376L730.181 635.65H712.712V653.056L700.258 665.512L712.751 678.008V695.44H730.181L742.531 707.792L754.881 695.44H772.48V677.799ZM782.359 665.597L772.474 675.484V670.639H756.953L751.913 665.604L757.064 660.451H772.493V655.737L782.359 665.597ZM770.846 677.119L767.139 680.826L758.588 672.273H770.839V677.119H770.846ZM747.683 677.871L742.531 672.718L737.549 677.701V670.639H730.201L735.326 665.512L730.266 660.451H737.516V653.507L742.459 658.45L747.702 653.206V660.451H754.756L749.605 665.604L754.645 670.639H747.683V677.871V677.871ZM758.699 658.817L767.132 650.375L770.852 654.096V658.81H758.699V658.817ZM770.859 637.284V651.787L767.139 648.067L756.391 658.817H749.337V651.572L759.987 640.913L756.358 637.284H770.859V637.284ZM749.337 649.257V637.284H754.05L757.679 640.913L749.337 649.257ZM742.452 625.685L752.416 635.65H747.702V650.892L742.459 656.136L737.516 651.192V635.65H732.495L742.452 625.685ZM735.875 649.558L727.232 640.913L730.861 637.284H735.882V649.558H735.875ZM714.347 637.284H728.547L724.918 640.913L735.875 651.872V658.817H728.625L717.785 647.975L714.347 651.415V637.284ZM714.347 653.729L717.785 650.284L726.311 658.81H714.347V653.729ZM702.566 665.512L712.712 655.364V660.451H727.945L733.005 665.512L727.88 670.639H712.751V675.7L702.566 665.512ZM726.252 672.273L717.785 680.741L714.379 677.334V672.273H726.252ZM714.386 693.806V679.643L717.792 683.049L728.566 672.273H735.915V679.335L724.997 690.255L728.547 693.806H714.386V693.806ZM735.915 681.643V693.806H730.854L727.304 690.255L735.915 681.643ZM742.531 705.477L732.495 695.44H737.556V680.009L742.537 675.026L747.689 680.179V695.434H752.573L742.531 705.477ZM749.317 681.82L757.751 690.255L754.201 693.806H749.317V681.82V681.82ZM756.515 693.806L760.065 690.255L749.317 679.505V672.273H756.28L767.139 683.134L770.846 679.427V693.799H756.515V693.806Z" fill="#D0C3B4"/>
<path opacity="0.3" d="M296.819 287.65L303.072 281.396L296.826 275.149V266.035H287.713L281.42 259.741L275.127 266.035H266.168V274.961L259.782 281.349L266.189 287.757V296.697H275.127L281.46 303.031L287.793 296.697H296.819V287.65ZM301.885 281.393L296.815 286.463V283.978H288.856L286.271 281.396L288.913 278.754H296.826V276.336L301.885 281.393ZM295.981 287.301L294.08 289.202L289.694 284.816H295.977V287.301H295.981ZM284.102 287.687L281.46 285.044L278.905 287.6V283.978H275.137L277.765 281.349L275.17 278.754H278.889V275.193L281.423 277.728L284.112 275.038V278.754H287.73L285.088 281.396L287.673 283.978H284.102V287.687V287.687ZM289.751 277.915L294.076 273.586L295.984 275.494V277.912H289.751V277.915ZM295.987 266.873V274.311L294.08 272.403L288.568 277.915H284.95V274.2L290.412 268.734L288.551 266.873H295.987V266.873ZM284.95 273.013V266.873H287.368L289.228 268.734L284.95 273.013ZM281.42 260.925L286.529 266.035H284.112V273.851L281.423 276.541L278.889 274.006V266.035H276.314L281.42 260.925ZM278.047 273.167L273.615 268.734L275.476 266.873H278.05V273.167H278.047ZM267.007 266.873H274.289L272.428 268.734L278.047 274.354V277.915H274.329L268.77 272.356L267.007 274.12V266.873ZM267.007 275.307L268.77 273.539L273.142 277.912H267.007V275.307ZM260.965 281.349L266.168 276.145V278.754H273.98L276.575 281.349L273.947 283.978H266.189V286.573L260.965 281.349ZM273.112 284.816L268.77 289.159L267.023 287.412V284.816H273.112ZM267.027 295.858V288.595L268.773 290.342L274.299 284.816H278.067V288.438L272.468 294.038L274.289 295.858H267.027V295.858ZM278.067 289.621V295.858H275.472L273.652 294.038L278.067 289.621ZM281.46 301.844L276.314 296.697H278.909V288.783L281.463 286.228L284.105 288.87V296.693H286.61L281.46 301.844ZM284.94 289.712L289.265 294.038L287.445 295.858H284.94V289.712V289.712ZM288.632 295.858L290.452 294.038L284.94 288.525V284.816H288.511L294.08 290.386L295.981 288.485V295.855H288.632V295.858Z" fill="#D0C3B4"/>
<path opacity="0.3" d="M1205.91 287.65L1212.16 281.396L1205.92 275.149V266.035H1196.8L1190.51 259.741L1184.22 266.035H1175.26V274.961L1168.87 281.349L1175.28 287.757V296.697H1184.22L1190.55 303.031L1196.88 296.697H1205.91V287.65ZM1210.98 281.393L1205.91 286.463V283.978H1197.95L1195.36 281.396L1198 278.754H1205.92V276.336L1210.98 281.393ZM1205.07 287.301L1203.17 289.202L1198.79 284.816H1205.07V287.301H1205.07ZM1193.19 287.687L1190.55 285.044L1188 287.6V283.978H1184.23L1186.86 281.349L1184.26 278.754H1187.98V275.193L1190.51 277.728L1193.2 275.038V278.754H1196.82L1194.18 281.396L1196.76 283.978H1193.19V287.687V287.687ZM1198.84 277.915L1203.17 273.586L1205.07 275.494V277.912H1198.84V277.915ZM1205.08 266.873V274.311L1203.17 272.403L1197.66 277.915H1194.04V274.2L1199.5 268.734L1197.64 266.873H1205.08V266.873ZM1194.04 273.013V266.873H1196.46L1198.32 268.734L1194.04 273.013ZM1190.51 260.925L1195.62 266.035H1193.2V273.851L1190.51 276.541L1187.98 274.006V266.035H1185.4L1190.51 260.925ZM1187.14 273.167L1182.71 268.734L1184.57 266.873H1187.14V273.167H1187.14ZM1176.1 266.873H1183.38L1181.52 268.734L1187.14 274.354V277.915H1183.42L1177.86 272.356L1176.1 274.12V266.873ZM1176.1 275.307L1177.86 273.539L1182.23 277.912H1176.1V275.307ZM1170.06 281.349L1175.26 276.145V278.754H1183.07L1185.67 281.349L1183.04 283.978H1175.28V286.573L1170.06 281.349ZM1182.2 284.816L1177.86 289.159L1176.11 287.412V284.816H1182.2ZM1176.12 295.858V288.595L1177.86 290.342L1183.39 284.816H1187.16V288.438L1181.56 294.038L1183.38 295.858H1176.12V295.858ZM1187.16 289.621V295.858H1184.56L1182.74 294.038L1187.16 289.621ZM1190.55 301.844L1185.4 296.697H1188V288.783L1190.55 286.228L1193.2 288.87V296.693H1195.7L1190.55 301.844ZM1194.03 289.712L1198.36 294.038L1196.54 295.858H1194.03V289.712V289.712ZM1197.72 295.858L1199.54 294.038L1194.03 288.525V284.816H1197.6L1203.17 290.386L1205.07 288.485V295.855H1197.72V295.858Z" fill="#D0C3B4"/>
</svg>
