<svg width="1472" height="844" viewBox="0 0 1472 844" fill="none" xmlns="http://www.w3.org/2000/svg">
<rect x="0.5" y="0.5" width="1471" height="750" stroke="#D0C3B4"/>
<path d="M1229.01 701.155H242.215L119.059 843.105H1352.94L1229.01 701.155Z" stroke="#D0C3B4"/>
<path d="M1229.01 665.942H242.215L119.059 807.893H1352.94L1229.01 665.942Z" fill="#332D2A" stroke="#D0C3B4"/>
<rect x="192.077" y="38.1182" width="230.624" height="234.484" stroke="#D0C3B4"/>
<rect x="205.065" y="50.2224" width="230.624" height="234.484" fill="#1B1A1A" stroke="#D0C3B4"/>
<rect x="1055.79" y="32.616" width="230.624" height="234.484" stroke="#D0C3B4"/>
<rect x="1046.05" y="44.7205" width="230.624" height="234.484" fill="#1B1A1A" stroke="#D0C3B4"/>
<path d="M546.75 685.749H924.167L964.377 786.985H506.541L546.75 685.749Z" stroke="#D0C3B4"/>
<path d="M546.75 653.838H924.167L964.377 777.082H506.541L546.75 653.838Z" fill="#332D2A" stroke="#D0C3B4"/>
<path d="M242.447 666.492L210.518 701.705V642.284L242.447 605.42V666.492Z" stroke="#D0C3B4"/>
<path d="M1228.47 666.492L1260.4 701.705V642.284L1228.47 605.42V666.492Z" stroke="#D0C3B4"/>
<path d="M1259.32 641.183H211.059L242.447 604.87H1228.47L1259.32 641.183Z" fill="#332D2A" stroke="#D0C3B4"/>
<path d="M353.388 454.116L268.965 457.968L290.612 470.622L385.859 465.12L353.388 454.116Z" stroke="#D0C3B4"/>
<path d="M290.612 470.072V628.529L384.777 624.127V465.12L290.612 470.072Z" fill="#332D2A" stroke="#D0C3B4"/>
<path d="M366.418 569.658C366.418 584.877 354.044 597.218 338.777 597.218C331.096 597.218 324.192 595.043 319.213 590.538C314.243 586.041 311.135 579.171 311.135 569.658C311.135 554.438 323.51 542.098 338.777 542.098C347.309 542.098 354.211 545.189 358.981 550.162C363.754 555.139 366.418 562.026 366.418 569.658Z" stroke="#D0C3B4"/>
<path d="M355.594 502.534C355.594 511.67 348.072 519.09 338.777 519.09C334.083 519.09 329.884 517.777 326.864 515.078C323.854 512.388 321.959 508.269 321.959 502.534C321.959 493.397 329.481 485.978 338.777 485.978C349.144 485.978 355.594 493.376 355.594 502.534Z" stroke="#D0C3B4"/>
<path d="M267.341 615.324V457.968L290.612 470.072V629.079L267.341 615.324Z" fill="#332D2A" stroke="#D0C3B4"/>
<path d="M1134.31 454.116L1218.73 457.968L1197.08 470.622L1101.84 465.12L1134.31 454.116Z" stroke="#D0C3B4"/>
<path d="M1197.08 470.072V628.529L1102.92 624.127V465.12L1197.08 470.072Z" fill="#332D2A" stroke="#D0C3B4"/>
<path d="M1121.28 569.658C1121.28 584.877 1133.65 597.218 1148.92 597.218C1156.6 597.218 1163.5 595.043 1168.48 590.538C1173.45 586.041 1176.56 579.171 1176.56 569.658C1176.56 554.438 1164.18 542.098 1148.92 542.098C1140.39 542.098 1133.48 545.189 1128.71 550.162C1123.94 555.139 1121.28 562.026 1121.28 569.658Z" stroke="#D0C3B4"/>
<path d="M1132.1 502.534C1132.1 511.67 1139.62 519.09 1148.92 519.09C1153.61 519.09 1157.81 517.777 1160.83 515.078C1163.84 512.388 1165.74 508.269 1165.74 502.534C1165.74 493.397 1158.21 485.978 1148.92 485.978C1138.55 485.978 1132.1 493.376 1132.1 502.534Z" stroke="#D0C3B4"/>
<path d="M1220.35 615.324V457.968L1197.08 470.072V629.079L1220.35 615.324Z" fill="#332D2A" stroke="#D0C3B4"/>
<rect x="565.488" y="353.93" width="339.941" height="194.87" rx="5.5" fill="#332D2A" stroke="#D0C3B4"/>
<mask id="path-24-inside-1_252_4860" fill="white">
<path d="M716.518 549.3H755.482V601.019H716.518V549.3Z"/>
</mask>
<path d="M716.518 549.3H755.482V601.019H716.518V549.3Z" fill="#332D2A"/>
<path d="M754.482 549.3V601.019H756.482V549.3H754.482ZM717.518 601.019V549.3H715.518V601.019H717.518Z" fill="#D0C3B4" mask="url(#path-24-inside-1_252_4860)"/>
<path d="M698.315 629.129L716.323 612.523H754.903L773.646 629.129H698.315Z" stroke="#D0C3B4"/>
<path d="M698.097 622.527L716.364 600.419H754.863L773.875 622.527H698.097Z" fill="#332D2A" stroke="#D0C3B4"/>
<path d="M574.188 685.749L559.577 736.918" stroke="#D0C3B4"/>
<path d="M600.165 685.749L588.259 737.468" stroke="#D0C3B4"/>
<path d="M563.946 697.445C564.09 697.044 564.473 696.778 564.899 696.783L577.935 696.934C578.622 696.941 579.097 697.624 578.865 698.271L577.674 701.597C577.531 701.998 577.148 702.264 576.722 702.259L563.686 702.109C562.999 702.101 562.524 701.418 562.755 700.771L563.946 697.445Z" fill="#D0C3B4"/>
<path d="M585.593 717.414C585.737 717.013 586.12 716.747 586.546 716.752L599.582 716.903C600.269 716.911 600.744 717.593 600.513 718.24L599.322 721.566C599.178 721.967 598.795 722.233 598.369 722.228L585.333 722.078C584.646 722.07 584.171 721.387 584.403 720.74L585.593 717.414Z" fill="#D0C3B4"/>
<path d="M718.182 671.444C718.182 672.718 717.316 673.957 715.731 674.905C714.156 675.847 711.948 676.446 709.482 676.446C707.017 676.446 704.809 675.847 703.234 674.905C701.649 673.957 700.782 672.718 700.782 671.444C700.782 670.17 701.649 668.93 703.234 667.982C704.809 667.041 707.017 666.442 709.482 666.442C711.948 666.442 714.156 667.041 715.731 667.982C717.316 668.93 718.182 670.17 718.182 671.444Z" stroke="#D0C3B4"/>
<path d="M746.323 671.444C746.323 672.718 745.457 673.957 743.872 674.905C742.297 675.847 740.089 676.446 737.623 676.446C735.158 676.446 732.95 675.847 731.375 674.905C729.789 673.957 728.923 672.718 728.923 671.444C728.923 670.17 729.789 668.93 731.375 667.982C732.95 667.041 735.158 666.442 737.623 666.442C740.089 666.442 742.297 667.041 743.872 667.982C745.457 668.93 746.323 670.17 746.323 671.444Z" stroke="#D0C3B4"/>
<path d="M774.465 671.444C774.465 672.718 773.599 673.957 772.013 674.905C770.439 675.847 768.23 676.446 765.765 676.446C763.299 676.446 761.091 675.847 759.516 674.905C757.931 673.957 757.065 672.718 757.065 671.444C757.065 670.17 757.931 668.93 759.516 667.982C761.091 667.041 763.299 666.442 765.765 666.442C768.23 666.442 770.439 667.041 772.013 667.982C773.599 668.93 774.465 670.17 774.465 671.444Z" stroke="#D0C3B4"/>
<rect x="485.394" y="43.6199" width="230.624" height="237.785" stroke="#D0C3B4"/>
<rect x="765.723" y="43.6199" width="230.624" height="237.785" stroke="#D0C3B4"/>
<rect x="492" y="53" width="29.4422" height="28.2857" fill="white"/>
<rect x="492" y="85.4763" width="29.4422" height="27.2381" fill="#8EA365"/>
<rect x="492" y="116.904" width="29.4422" height="28.2857" fill="#8EA365"/>
<rect x="492" y="149.381" width="29.4422" height="28.2857" fill="white"/>
<rect x="492" y="180.809" width="29.4422" height="28.2857" fill="#8EA365"/>
<rect x="492" y="213.286" width="29.4422" height="28.2857" fill="#8EA365"/>
<rect x="492" y="245.762" width="29.4422" height="27.2381" fill="white"/>
<rect x="523.623" y="53" width="28.3518" height="28.2857" fill="#8EA365"/>
<rect x="523.623" y="85.4763" width="28.3518" height="27.2381" fill="white"/>
<rect x="523.623" y="116.904" width="28.3518" height="28.2857" fill="#8EA365"/>
<rect x="523.623" y="149.381" width="28.3518" height="28.2857" fill="#8EA365"/>
<rect x="523.623" y="180.809" width="28.3518" height="28.2857" fill="#8EA365"/>
<rect x="523.623" y="213.286" width="28.3518" height="28.2857" fill="white"/>
<rect x="523.623" y="245.762" width="28.3518" height="27.2381" fill="#8EA365"/>
<rect x="554.156" y="53" width="29.4422" height="28.2857" fill="#8EA365"/>
<rect x="554.156" y="85.4763" width="29.4422" height="27.2381" fill="#8EA365"/>
<rect x="554.156" y="116.904" width="29.4422" height="28.2857" fill="#8EA365"/>
<rect x="554.156" y="149.381" width="29.4422" height="28.2857" fill="white"/>
<rect x="554.156" y="180.809" width="29.4422" height="28.2857" fill="#8EA365"/>
<rect x="554.156" y="213.286" width="29.4422" height="28.2857" fill="#8EA365"/>
<rect x="554.156" y="245.762" width="29.4422" height="27.2381" fill="#8EA365"/>
<rect x="585.779" y="53" width="29.4422" height="28.2857" fill="white"/>
<rect x="585.779" y="85.4763" width="29.4422" height="27.2381" fill="#8EA365"/>
<rect x="585.779" y="116.904" width="29.4422" height="28.2857" fill="white"/>
<rect x="585.779" y="149.381" width="29.4422" height="28.2857" fill="#8EA365"/>
<rect x="585.779" y="180.809" width="29.4422" height="28.2857" fill="white"/>
<rect x="585.779" y="213.286" width="29.4422" height="28.2857" fill="#8EA365"/>
<rect x="585.779" y="245.762" width="29.4422" height="27.2381" fill="white"/>
<rect x="617.402" y="53" width="29.4422" height="28.2857" fill="#8EA365"/>
<rect x="617.402" y="85.4763" width="29.4422" height="27.2381" fill="#8EA365"/>
<rect x="617.402" y="116.904" width="29.4422" height="28.2857" fill="#8EA365"/>
<rect x="617.402" y="149.381" width="29.4422" height="28.2857" fill="white"/>
<rect x="617.402" y="180.809" width="29.4422" height="28.2857" fill="#8EA365"/>
<rect x="617.402" y="213.286" width="29.4422" height="28.2857" fill="#8EA365"/>
<rect x="617.402" y="245.762" width="29.4422" height="27.2381" fill="#8EA365"/>
<rect x="649.025" y="53" width="28.3518" height="28.2857" fill="#8EA365"/>
<rect x="649.025" y="85.4763" width="28.3518" height="27.2381" fill="white"/>
<rect x="649.025" y="116.904" width="28.3518" height="28.2857" fill="#8EA365"/>
<rect x="649.025" y="149.381" width="28.3518" height="28.2857" fill="#8EA365"/>
<rect x="649.025" y="180.809" width="28.3518" height="28.2857" fill="#8EA365"/>
<rect x="649.025" y="213.286" width="28.3518" height="28.2857" fill="white"/>
<rect x="649.025" y="245.762" width="28.3518" height="27.2381" fill="#8EA365"/>
<rect x="679.558" y="53" width="29.4422" height="28.2857" fill="white"/>
<rect x="679.558" y="85.4763" width="29.4422" height="27.2381" fill="#8EA365"/>
<rect x="679.558" y="116.904" width="29.4422" height="28.2857" fill="#8EA365"/>
<rect x="679.558" y="149.381" width="29.4422" height="28.2857" fill="white"/>
<rect x="679.558" y="180.809" width="29.4422" height="28.2857" fill="#8EA365"/>
<rect x="679.558" y="213.286" width="29.4422" height="28.2857" fill="#8EA365"/>
<rect x="679.558" y="245.762" width="29.4422" height="27.2381" fill="white"/>
<rect x="772" y="53" width="29.4422" height="28.2857" fill="white"/>
<rect x="772" y="85.4763" width="29.4422" height="27.2381" fill="#8EA365"/>
<rect x="772" y="116.904" width="29.4422" height="28.2857" fill="#8EA365"/>
<rect x="772" y="149.381" width="29.4422" height="28.2857" fill="white"/>
<rect x="772" y="180.809" width="29.4422" height="28.2857" fill="#8EA365"/>
<rect x="772" y="213.286" width="29.4422" height="28.2857" fill="#8EA365"/>
<rect x="772" y="245.762" width="29.4422" height="27.2381" fill="white"/>
<rect x="803.623" y="53" width="28.3518" height="28.2857" fill="#8EA365"/>
<rect x="803.623" y="85.4763" width="28.3518" height="27.2381" fill="white"/>
<rect x="803.623" y="116.904" width="28.3518" height="28.2857" fill="#8EA365"/>
<rect x="803.623" y="149.381" width="28.3518" height="28.2857" fill="#8EA365"/>
<rect x="803.623" y="180.809" width="28.3518" height="28.2857" fill="#8EA365"/>
<rect x="803.623" y="213.286" width="28.3518" height="28.2857" fill="white"/>
<rect x="803.623" y="245.762" width="28.3518" height="27.2381" fill="#8EA365"/>
<rect x="834.156" y="53" width="29.4422" height="28.2857" fill="#8EA365"/>
<rect x="834.156" y="85.4763" width="29.4422" height="27.2381" fill="#8EA365"/>
<rect x="834.156" y="116.904" width="29.4422" height="28.2857" fill="#8EA365"/>
<rect x="834.156" y="149.381" width="29.4422" height="28.2857" fill="white"/>
<rect x="834.156" y="180.809" width="29.4422" height="28.2857" fill="#8EA365"/>
<rect x="834.156" y="213.286" width="29.4422" height="28.2857" fill="#8EA365"/>
<rect x="834.156" y="245.762" width="29.4422" height="27.2381" fill="#8EA365"/>
<rect x="865.779" y="53" width="29.4422" height="28.2857" fill="white"/>
<rect x="865.779" y="85.4763" width="29.4422" height="27.2381" fill="#8EA365"/>
<rect x="865.779" y="116.904" width="29.4422" height="28.2857" fill="white"/>
<rect x="865.779" y="149.381" width="29.4422" height="28.2857" fill="#8EA365"/>
<rect x="865.779" y="180.809" width="29.4422" height="28.2857" fill="white"/>
<rect x="865.779" y="213.286" width="29.4422" height="28.2857" fill="#8EA365"/>
<rect x="865.779" y="245.762" width="29.4422" height="27.2381" fill="white"/>
<rect x="897.402" y="53" width="29.4422" height="28.2857" fill="#8EA365"/>
<rect x="897.402" y="85.4763" width="29.4422" height="27.2381" fill="#8EA365"/>
<rect x="897.402" y="116.904" width="29.4422" height="28.2857" fill="#8EA365"/>
<rect x="897.402" y="149.381" width="29.4422" height="28.2857" fill="white"/>
<rect x="897.402" y="180.809" width="29.4422" height="28.2857" fill="#8EA365"/>
<rect x="897.402" y="213.286" width="29.4422" height="28.2857" fill="#8EA365"/>
<rect x="897.402" y="245.762" width="29.4422" height="27.2381" fill="#8EA365"/>
<rect x="929.025" y="53" width="28.3518" height="28.2857" fill="#8EA365"/>
<rect x="929.025" y="85.4763" width="28.3518" height="27.2381" fill="white"/>
<rect x="929.025" y="116.904" width="28.3518" height="28.2857" fill="#8EA365"/>
<rect x="929.025" y="149.381" width="28.3518" height="28.2857" fill="#8EA365"/>
<rect x="929.025" y="180.809" width="28.3518" height="28.2857" fill="#8EA365"/>
<rect x="929.025" y="213.286" width="28.3518" height="28.2857" fill="white"/>
<rect x="929.025" y="245.762" width="28.3518" height="27.2381" fill="#8EA365"/>
<rect x="959.558" y="53" width="29.4422" height="28.2857" fill="white"/>
<rect x="959.558" y="85.4763" width="29.4422" height="27.2381" fill="#8EA365"/>
<rect x="959.558" y="116.904" width="29.4422" height="28.2857" fill="#8EA365"/>
<rect x="959.558" y="149.381" width="29.4422" height="28.2857" fill="white"/>
<rect x="959.558" y="180.809" width="29.4422" height="28.2857" fill="#8EA365"/>
<rect x="959.558" y="213.286" width="29.4422" height="28.2857" fill="#8EA365"/>
<rect x="959.558" y="245.762" width="29.4422" height="27.2381" fill="white"/>
</svg>
