<?xml version="1.0" encoding="UTF-8" standalone="no"?>
<!-- Created with Inkscape (http://www.inkscape.org/) -->

<svg
   version="1.1"
   id="svg854"
   width="42.519287"
   height="44.384277"
   viewBox="0 0 42.519287 44.384277"
   sodipodi:docname="web_template_quadratik2.svg"
   inkscape:version="1.3-dev (38535c2, 2022-11-14)"
   xml:space="preserve"
   xmlns:inkscape="http://www.inkscape.org/namespaces/inkscape"
   xmlns:sodipodi="http://sodipodi.sourceforge.net/DTD/sodipodi-0.dtd"
   xmlns="http://www.w3.org/2000/svg"
   xmlns:svg="http://www.w3.org/2000/svg"><defs
     id="defs858"><linearGradient
       id="linearGradient3615"
       inkscape:swatch="solid"><stop
         style="stop-color:#d35f5f;stop-opacity:1;"
         offset="0"
         id="stop3613" /></linearGradient><linearGradient
       id="linearGradient15189"
       inkscape:swatch="solid"><stop
         style="stop-color:#000000;stop-opacity:1;"
         offset="0"
         id="stop15187" /></linearGradient><linearGradient
       id="linearGradient15165"
       inkscape:swatch="solid"><stop
         style="stop-color:#000000;stop-opacity:1;"
         offset="0"
         id="stop15163" /></linearGradient></defs><sodipodi:namedview
     id="namedview856"
     pagecolor="#505050"
     bordercolor="#ffffff"
     borderopacity="1"
     inkscape:pageshadow="0"
     inkscape:pageopacity="0"
     inkscape:pagecheckerboard="1"
     showgrid="true"
     units="px"
     inkscape:zoom="0.11016922"
     inkscape:cx="1829.0045"
     inkscape:cy="3835.0095"
     inkscape:window-width="2560"
     inkscape:window-height="1415"
     inkscape:window-x="1680"
     inkscape:window-y="0"
     inkscape:window-maximized="1"
     inkscape:current-layer="layer8"
     inkscape:document-units="mm"
     inkscape:snap-grids="false"
     inkscape:snap-page="true"
     showguides="false"
     inkscape:guide-bbox="true"
     inkscape:lockguides="true"
     inkscape:showpageshadow="0"
     inkscape:deskcolor="#505050"><sodipodi:guide
       position="-0.47111511,1080.0346"
       orientation="1,0"
       id="guide32320"
       inkscape:locked="true" /><sodipodi:guide
       position="1920,1080"
       orientation="1,0"
       id="guide32322"
       inkscape:locked="true" /><sodipodi:guide
       position="0,1080"
       orientation="0,1920"
       id="guide32389"
       inkscape:locked="true" /><sodipodi:guide
       position="1920,0"
       orientation="0,-1920"
       id="guide32393"
       inkscape:locked="true" /><inkscape:grid
       type="xygrid"
       id="grid32435"
       originx="-68.039185"
       originy="-4868.0874"
       spacingx="47.9"
       spacingy="54"
       empspacing="5"
       color="#3f3fff"
       opacity="0.04705882"
       empcolor="#3f3fff"
       empopacity="0.16862745"
       visible="true"
       snapvisiblegridlinesonly="true" /><sodipodi:guide
       position="959.375,1217.5"
       orientation="1,0"
       id="guide32439"
       inkscape:locked="true" /></sodipodi:namedview><g
     id="g66691"
     transform="translate(-985.82927,-5868.8405)"><path
       style="fill:#ffffff;stroke-width:0.0868033"
       d="m 1024.7537,5913.072 c -0.4094,-0.1895 -0.665,-0.4542 -1.1963,-1.2384 -0.5444,-0.8038 -0.5709,-1.058 -0.2346,-2.2587 0.3398,-1.2137 0.4885,-1.4699 1.2717,-2.1914 0.8701,-0.8015 1.2855,-0.9509 2.0528,-0.7378 0.6143,0.1705 0.9498,0.6246 1.3508,1.8278 0.5271,1.5818 0.4919,1.8738 -0.3277,2.7232 -0.309,0.3203 -0.56,0.6781 -0.6518,0.9291 -0.3348,0.9146 -1.3853,1.3535 -2.2649,0.9462 z m 0.9727,-1.2459 c 0.045,-0.06 0.1478,-0.2857 0.2276,-0.5022 0.089,-0.2412 0.3302,-0.5762 0.6226,-0.865 0.2626,-0.2593 0.4774,-0.5313 0.4774,-0.6044 0,-0.2393 -0.533,-1.739 -0.6649,-1.871 -0.2249,-0.2248 -0.4111,-0.1428 -0.9808,0.4319 -0.5181,0.5228 -0.572,0.6152 -0.7977,1.3672 -0.1331,0.4436 -0.2433,0.8495 -0.2447,0.9021 0,0.052 0.1938,0.3553 0.4341,0.6727 0.4423,0.5842 0.7285,0.729 0.9264,0.4687 z m -19.5625,-0.9354 c -1.2678,-0.1335 -1.3368,-0.1767 -3.7186,-2.327 -0.4296,-0.3879 -0.8139,-0.7061 -0.8538,-0.7071 -0.04,0 -0.2743,0.2098 -0.5208,0.4684 -0.5389,0.5652 -0.9718,0.7226 -1.55502,0.5656 -0.20291,-0.055 -1.36712,-0.6007 -2.58715,-1.2135 -2.45538,-1.2333 -2.8456,-1.5215 -3.35334,-2.4766 -0.60205,-1.1325 -0.56568,-2.0949 0.13822,-3.6571 0.74639,-1.6567 1.07889,-2.9731 1.17927,-4.6692 0.14201,-2.3997 0.3218,-3.5348 0.7119,-4.495 0.2707,-0.6661 0.2881,-1.3597 0.0476,-1.8963 -0.0935,-0.2087 -0.53932,-0.8091 -0.99062,-1.3342 -1.06654,-1.241 -1.2998,-1.5931 -1.67328,-2.5254 -0.35989,-0.8983 -0.79131,-1.5068 -1.38766,-1.9576 -0.25033,-0.1892 -1.23448,-0.665 -2.40131,-1.161 -1.27257,-0.5409 -2.09814,-0.9439 -2.31668,-1.1309 -0.18674,-0.16 -0.48617,-0.5698 -0.66539,-0.9108 -0.53667,-1.0213 -0.5172,-1.8801 0.0622,-2.7418 0.45657,-0.6791 0.8665,-0.8707 2.5916,-1.2112 0.8271,-0.1632 1.64091,-0.2967 1.80847,-0.2967 0.16757,0 1.23049,0.2786 2.36207,0.6191 1.13158,0.3405 2.11859,0.5956 2.19337,0.5669 0.20362,-0.078 0.16973,-0.2892 -0.21126,-1.3163 -0.45389,-1.2235 -0.46734,-1.717 -0.0651,-2.3877 0.38555,-0.6431 0.93304,-0.9783 1.67457,-1.0256 0.5386,-0.034 0.58175,-0.02 2.1826,0.7297 2.07714,0.9725 2.08954,0.9734 2.84024,0.1847 0.6864,-0.7209 1.19,-0.9657 2.343,-1.1389 0.7233,-0.1087 0.898,-0.1671 1.1147,-0.3722 0.347,-0.3285 0.3746,-0.4203 0.5452,-1.8118 0.1784,-1.4557 0.3275,-1.8468 0.8313,-2.1794 0.3652,-0.2413 0.3902,-0.245 1.6352,-0.2407 1.1829,0 1.3148,0.022 2.0497,0.2746 1.4766,0.508 2.0819,0.984 4.1717,3.28 0.6956,0.7643 0.924,0.9485 1.9117,1.5417 1.3699,0.8227 1.6795,0.9437 3.1263,1.2204 0.6267,0.1199 1.2605,0.2805 1.4083,0.3571 0.1478,0.077 0.5136,0.4005 0.8127,0.7202 1.1358,1.2136 0.9291,1.089 2.4102,1.4524 1.5969,0.3917 2.0326,0.5866 2.4064,1.0762 0.5406,0.7082 0.5852,1.5644 0.1243,2.3824 -0.2374,0.4211 -0.2628,0.56 -0.3867,2.114 -0.151,1.8934 -0.2506,2.2216 -0.8326,2.7459 -0.4409,0.3971 -0.6642,0.4909 -1.3894,0.5839 -0.4034,0.052 -0.6102,0.1266 -0.7552,0.2734 -0.2074,0.2098 -1.8577,3.8214 -1.8577,4.0653 0,0.2187 0.1839,0.3468 0.4982,0.3468 0.3744,0 0.8954,0.268 1.1813,0.6077 0.3389,0.4028 0.4245,0.8316 0.3113,1.5607 l -0.096,0.6179 0.3624,0.5997 c 0.6542,1.0828 0.5693,1.7873 -0.3212,2.666 -0.301,0.2969 -0.5473,0.5722 -0.5473,0.6117 0,0.1255 0.3499,1.702 0.4405,1.9846 0.058,0.1822 0.2528,0.3882 0.589,0.624 1.0534,0.7389 1.4202,1.3105 1.4269,2.2232 0.01,0.7076 -0.2082,1.1588 -1.0348,2.1865 -0.6819,0.8478 -1.2789,1.388 -1.8642,1.6866 -0.6614,0.3373 -2.1332,0.631 -3.2031,0.639 l -0.9982,0.01 -2.0283,-0.7677 c -2.6668,-1.0095 -2.6827,-1.0093 -4.3952,0.051 -1.1351,0.7029 -1.4322,1.1948 -1.4322,2.371 0,0.7485 -0.065,0.9504 -0.4492,1.3876 -0.4658,0.5305 -0.8234,0.6448 -1.9814,0.6333 -0.549,-0.01 -1.2779,-0.039 -1.6197,-0.076 z m 2.6183,-1.387 c 0.1154,-0.1275 0.1532,-0.2947 0.1414,-0.6264 -0.032,-0.9171 0.2499,-1.7617 0.8267,-2.4731 0.3112,-0.3838 1.4989,-1.1675 2.4604,-1.6234 0.5001,-0.2372 0.6528,-0.2677 1.3454,-0.2678 0.4297,0 0.8886,0.03 1.0199,0.067 l 0.2387,0.067 v -10.4932 c 0,-10.4841 2e-4,-10.4932 0.1799,-10.7218 0.2052,-0.2608 0.6305,-0.3101 0.9103,-0.1055 0.1648,0.1205 0.1695,0.3594 0.2119,10.9919 l 0.043,10.8687 1.1284,0.4189 c 0.9499,0.3528 1.2266,0.4197 1.7485,0.4228 0.8581,0.01 2.4965,-0.4134 3.0153,-0.7704 0.4847,-0.3334 1.7523,-1.8951 1.8316,-2.2566 0.096,-0.438 -0.1741,-0.8525 -0.9387,-1.4389 -0.3739,-0.2869 -0.7525,-0.6389 -0.8413,-0.7824 -0.1477,-0.2383 -0.3984,-1.202 -0.6165,-2.3686 -0.139,-0.7437 0.058,-1.2652 0.7039,-1.8619 0.3371,-0.3116 0.5224,-0.5512 0.5224,-0.6757 0,-0.106 -0.154,-0.4235 -0.3423,-0.7054 -0.4044,-0.6057 -0.4909,-1.0444 -0.3542,-1.7981 0.1214,-0.6692 0.069,-0.7504 -0.5331,-0.8216 -0.583,-0.07 -1.0445,-0.3801 -1.2772,-0.8609 -0.3216,-0.6642 -0.2634,-0.956 0.565,-2.8357 1.0225,-2.3203 1.1801,-2.617 1.5824,-2.9804 0.3645,-0.3293 1.0409,-0.5857 1.5456,-0.5857 0.1919,0 0.3774,-0.081 0.5608,-0.2448 l 0.2741,-0.245 0.1481,-1.7753 c 0.1405,-1.6844 0.1621,-1.802 0.4216,-2.2941 0.3077,-0.5838 0.3274,-0.7273 0.1476,-1.075 -0.1528,-0.2956 -0.291,-0.3504 -1.7835,-0.7077 -0.6446,-0.1544 -1.3477,-0.369 -1.5625,-0.477 -0.2372,-0.1194 -0.6878,-0.5197 -1.1475,-1.0195 l -0.7568,-0.8229 -0.8057,-0.1442 c -1.2131,-0.2173 -2.0059,-0.4509 -2.6755,-0.788 l -0.6039,-0.3041 v 3.0391 c 0,2.9235 -0.01,3.0458 -0.1737,3.2129 -0.2584,0.2585 -0.7231,0.2314 -0.9485,-0.055 -0.175,-0.2225 -0.1799,-0.321 -0.1804,-3.6241 v -3.3952 l -0.3152,-0.2148 c -0.1734,-0.1181 -0.6711,-0.6063 -1.1061,-1.085 -2.0181,-2.2211 -2.5895,-2.6578 -3.9243,-2.9992 -0.7878,-0.2015 -2.2715,-0.2414 -2.3377,-0.063 -0.022,0.06 -0.1167,0.6846 -0.2101,1.3886 -0.1896,1.4292 -0.3478,1.8784 -0.8321,2.3627 -0.4341,0.4342 -0.9204,0.6386 -1.7737,0.7455 -0.7697,0.097 -1.0951,0.196 -1.3265,0.4054 -0.1433,0.1297 -0.1521,0.7357 -0.1521,10.4686 0,9.4913 -0.011,10.3439 -0.1436,10.4897 -0.1817,0.2007 -0.6983,0.2092 -0.9128,0.015 -0.152,-0.1375 -0.1588,-0.5598 -0.1588,-9.9429 v -9.7992 l -0.3255,0.069 c -0.7395,0.1568 -1.0747,0.07 -2.74016,-0.706 -0.89284,-0.4162 -1.71113,-0.744 -1.85739,-0.744 -0.34845,0 -0.71913,0.3696 -0.71913,0.7171 0,0.1427 0.15624,0.684 0.34721,1.203 0.19191,0.5216 0.34721,1.1003 0.34721,1.2939 0,0.868 -0.67847,1.5602 -1.52919,1.5602 -0.16645,0 -1.20252,-0.2734 -2.30237,-0.6077 -1.09984,-0.3341 -2.08413,-0.6074 -2.18729,-0.6073 -0.40593,0 -2.84634,0.5186 -3.02136,0.6412 -0.3015,0.2111 -0.50696,0.5939 -0.50757,0.9455 -5.5e-4,0.3537 0.31391,1.0581 0.57597,1.29 0.0887,0.078 1.01331,0.5031 2.05466,0.9434 1.04137,0.4403 2.12472,0.9551 2.40745,1.1439 0.73205,0.4888 1.33773,1.2064 1.74466,2.0668 0.19192,0.4058 0.44705,0.9408 0.56694,1.1888 0.1199,0.2481 0.62951,0.9317 1.13248,1.5191 1.16883,1.3651 1.44373,1.9091 1.48554,2.9398 0.0271,0.668 -8.7e-4,0.8353 -0.27812,1.6493 -0.3812,1.1201 -0.45786,1.5714 -0.57415,3.3798 -0.16482,2.5631 -0.44186,3.7843 -1.31186,5.7826 -0.23108,0.5308 -0.44517,1.1216 -0.47575,1.3128 -0.0902,0.5641 0.16259,1.2664 0.64089,1.7805 0.35744,0.3842 0.67629,0.5696 2.60765,1.5164 l 2.20042,1.0788 0.44716,-0.4791 c 0.3438,-0.3686 0.5422,-0.5045 0.8593,-0.5888 l 0.4123,-0.1096 v -4.2594 c 0,-4.7914 -0.019,-4.6453 0.5991,-4.6453 0.224,0 0.3815,0.058 0.4942,0.1826 0.1576,0.174 0.1665,0.4004 0.1899,4.8165 l 0.024,4.634 1.1307,1.0209 c 0.6219,0.5616 1.2287,1.0725 1.3485,1.1354 0.2989,0.157 1.1076,0.2521 2.2541,0.2652 0.8614,0.01 0.9796,-0.01 1.1204,-0.1629 z"
       id="path36201" /></g></svg>
