<svg width="80" height="80" viewBox="0 0 80 80" fill="none" xmlns="http://www.w3.org/2000/svg">
<path d="M23.3321 79.7356C23.2029 79.5746 23.0973 76.2796 23.0973 72.4137V65.3845L12.412 65.2581L1.72668 65.1305L0.863342 64.1144C0.273399 63.4207 0 62.6613 0 61.7156C0 60.5277 0.73303 59.2874 5.18392 52.9436C8.03505 48.8799 10.2857 45.3889 10.1853 45.1854C10.085 44.9825 8.98357 44.8164 7.73776 44.8164C5.8029 44.8164 5.36651 44.6742 4.7448 43.847C3.80601 42.5966 3.81097 40.6576 4.75595 39.1131C5.16298 38.4485 7.42252 35.1335 9.77715 31.7456C12.1318 28.3579 14.0582 25.5085 14.0582 25.4147C14.0582 25.3214 13.0464 25.1435 11.8096 25.0194C9.91285 24.8281 9.44138 24.6186 8.79694 23.681C7.66206 22.0303 7.81001 20.4202 9.28818 18.3354C13.0147 13.0789 22.5968 0.573538 23.1531 0.24018C23.5493 0.00246738 24.1025 0.00246738 24.582 0.24018C25.2338 0.563041 34.0355 11.9441 38.5782 18.3388C40.0567 20.4197 40.2047 22.0299 39.0694 23.681C38.4251 24.6186 37.9536 24.8288 36.0568 25.0194C34.82 25.1431 33.8083 25.3293 33.8083 25.4329C33.8083 25.5355 35.6564 28.2916 37.9155 31.5542C43.9055 40.2064 43.8504 40.1124 43.8504 41.6338C43.8504 43.8782 42.7402 44.8164 40.0828 44.8164C38.8627 44.8164 37.7832 44.9814 37.6837 45.182C37.5849 45.3826 39.8348 48.871 42.6851 52.9322C47.1476 59.2905 47.8674 60.5092 47.8674 61.7076C47.8674 62.6615 47.596 63.4186 47.0041 64.1144L46.1408 65.1305L35.4633 65.2581L24.7858 65.3845L24.6944 72.5822C24.6161 78.6884 24.5247 79.7994 24.0844 79.9053C23.7992 79.9729 23.4612 79.8825 23.3321 79.7356ZM23.0201 54.241L23.1103 45.8643L19.5891 41.4744C16.1641 37.2039 15.5048 35.8469 16.5993 35.3211C16.9661 35.1462 17.9992 36.1463 19.9332 38.5538C21.8785 40.9752 22.7901 41.858 22.914 41.4402C23.0121 41.1089 23.1313 37.3515 23.1787 33.0897C23.2613 25.6562 23.292 25.3406 23.9343 25.3406C24.5879 25.3406 24.6058 25.6569 24.6921 38.6392C24.7406 45.9535 24.9062 51.9378 25.0597 51.9378C25.2126 51.9378 26.4732 50.4119 27.8601 48.5468C30.4279 45.0933 31.5187 44.4581 31.73 46.2937C31.7989 46.8884 30.793 48.4079 28.2865 51.4981L24.7461 55.863L24.843 59.2404L24.94 62.6177H35.317C45.6595 62.6177 45.6946 62.6182 45.7962 61.7235C45.8707 61.0647 44.2188 58.4699 39.5297 51.8809L33.1615 42.9324L37.4193 42.7228C41.3591 42.5292 41.6839 42.4498 41.7672 41.6748C41.8288 41.1038 39.9366 38.0361 35.8269 32.0418C32.5102 27.204 29.7961 23.1106 29.7951 22.9452C29.7944 22.7795 31.5637 22.5906 33.7271 22.526C37.525 22.4117 37.6602 22.3766 37.6602 21.4883C37.6602 20.8685 35.4386 17.6161 30.8407 11.5033L24.021 2.4363L22.3662 4.46384C19.0444 8.53458 9.87367 20.9908 9.77066 21.5715C9.62617 22.3858 10.5768 22.6027 14.8332 22.7242L18.4507 22.8267L12.5401 31.413C9.28931 36.1355 6.39779 40.3248 6.11463 40.7237C5.701 41.3062 5.68115 41.5722 6.01358 42.0735C6.33056 42.5513 7.39272 42.7243 10.5517 42.8139L14.6759 42.9312L9.48834 50.2611C2.12992 60.6584 1.57831 61.5475 2.04712 62.2543C2.36617 62.7354 4.24523 62.8183 12.6831 62.727L22.9315 62.6154L23.0201 54.241ZM55.456 79.7208C55.3329 79.5668 55.2334 74.0547 55.234 67.4701L55.2351 55.4974L51.6828 51.2806C48.0685 46.9896 47.4625 45.6093 49.0655 45.321C49.5644 45.2323 50.428 46.1317 52.2044 48.5935C53.5523 50.4614 54.7828 51.8301 54.9388 51.6348C55.0954 51.4389 55.2625 45.4433 55.3114 38.31C55.3971 25.6569 55.4157 25.3406 56.0693 25.3406C56.7131 25.3406 56.7423 25.6574 56.8297 33.6125C56.88 38.1622 57.0301 41.8847 57.1644 41.8844C57.2986 41.8844 58.5178 40.3669 59.874 38.5116C61.6968 36.0176 62.5252 35.1711 63.0507 35.2653C64.6522 35.5525 64.0719 36.9009 60.4483 41.3103L56.8923 45.6376L56.9837 54.1271L57.075 62.6177L67.3235 62.7305C76.1396 62.8261 77.6308 62.7531 77.9924 62.2065C78.4695 61.4873 78.6826 61.8282 70.3793 50.0538L65.3581 42.9335L69.7525 42.7239C73.645 42.5373 74.147 42.4302 74.147 41.783C74.147 41.3813 71.3979 37.0126 68.0379 32.0748C64.6779 27.1367 61.9287 22.9888 61.9287 22.8575C61.9287 22.7268 63.6426 22.6183 65.7372 22.6183C70.5559 22.6183 70.9739 22.2356 69.0769 19.561C66.7247 16.2442 56.5032 2.72473 56.2588 2.60716C56.1264 2.54417 53.2603 6.08677 49.8889 10.4804C43.9901 18.1674 42.8514 19.2687 42.5855 17.5403C42.524 17.1384 45.0457 13.4893 48.8798 8.43462C53.7619 1.99841 55.4693 0.000976562 56.0873 0.000976562C57.1151 0.000976562 57.5315 0.49365 65.4267 11.0727C71.4475 19.1398 71.9712 19.9637 71.9712 21.3664C71.9712 23.6838 70.8975 24.7071 68.0989 25.057L65.8275 25.3406L70.9077 32.6569C75.5331 39.3175 75.9879 40.1147 75.9879 41.5575C75.9879 43.9878 75.1179 44.8167 72.557 44.8244C71.4064 44.8244 70.28 44.978 70.0541 45.157C69.767 45.3856 70.3076 46.4242 71.8483 48.606C79.2309 59.0603 80.0052 60.3029 80 61.6837C80 63.1533 79.8358 63.5471 78.8661 64.504C78.3419 65.0216 76.3659 65.1688 67.6524 65.3412L57.075 65.5508L56.9837 72.7759C56.8998 79.4263 56.8439 80.001 56.2862 80.001C55.9531 80.001 55.5787 79.874 55.456 79.7208Z" fill="#8EA65F"/>
</svg>
