<?xml version="1.0" encoding="UTF-8" standalone="no"?>
<!-- Created with Inkscape (http://www.inkscape.org/) -->

<svg
   version="1.1"
   id="svg854"
   width="42.909912"
   height="34.293945"
   viewBox="0 0 42.909912 34.293945"
   sodipodi:docname="web_template_quadratik2.svg"
   inkscape:version="1.3-dev (38535c2, 2022-11-14)"
   xml:space="preserve"
   xmlns:inkscape="http://www.inkscape.org/namespaces/inkscape"
   xmlns:sodipodi="http://sodipodi.sourceforge.net/DTD/sodipodi-0.dtd"
   xmlns="http://www.w3.org/2000/svg"
   xmlns:svg="http://www.w3.org/2000/svg"><defs
     id="defs858"><linearGradient
       id="linearGradient3615"
       inkscape:swatch="solid"><stop
         style="stop-color:#d35f5f;stop-opacity:1;"
         offset="0"
         id="stop3613" /></linearGradient><linearGradient
       id="linearGradient15189"
       inkscape:swatch="solid"><stop
         style="stop-color:#000000;stop-opacity:1;"
         offset="0"
         id="stop15187" /></linearGradient><linearGradient
       id="linearGradient15165"
       inkscape:swatch="solid"><stop
         style="stop-color:#000000;stop-opacity:1;"
         offset="0"
         id="stop15163" /></linearGradient></defs><sodipodi:namedview
     id="namedview856"
     pagecolor="#505050"
     bordercolor="#ffffff"
     borderopacity="1"
     inkscape:pageshadow="0"
     inkscape:pageopacity="0"
     inkscape:pagecheckerboard="1"
     showgrid="true"
     units="px"
     inkscape:zoom="0.11016922"
     inkscape:cx="1829.0045"
     inkscape:cy="3835.0095"
     inkscape:window-width="2560"
     inkscape:window-height="1415"
     inkscape:window-x="1680"
     inkscape:window-y="0"
     inkscape:window-maximized="1"
     inkscape:current-layer="layer8"
     inkscape:document-units="mm"
     inkscape:snap-grids="false"
     inkscape:snap-page="true"
     showguides="false"
     inkscape:guide-bbox="true"
     inkscape:lockguides="true"
     inkscape:showpageshadow="0"
     inkscape:deskcolor="#505050"><sodipodi:guide
       position="-0.47111511,1080.0346"
       orientation="1,0"
       id="guide32320"
       inkscape:locked="true" /><sodipodi:guide
       position="1920,1080"
       orientation="1,0"
       id="guide32322"
       inkscape:locked="true" /><sodipodi:guide
       position="0,1080"
       orientation="0,1920"
       id="guide32389"
       inkscape:locked="true" /><sodipodi:guide
       position="1920,0"
       orientation="0,-1920"
       id="guide32393"
       inkscape:locked="true" /><inkscape:grid
       type="xygrid"
       id="grid32435"
       originx="-69.143677"
       originy="-4931.2334"
       spacingx="47.9"
       spacingy="54"
       empspacing="5"
       color="#3f3fff"
       opacity="0.04705882"
       empcolor="#3f3fff"
       empopacity="0.16862745"
       visible="true"
       snapvisiblegridlinesonly="true" /><sodipodi:guide
       position="959.375,1217.5"
       orientation="1,0"
       id="guide32439"
       inkscape:locked="true" /></sodipodi:namedview><g
     id="g66691"
     transform="translate(-986.93376,-5931.9865)"><path
       style="display:inline;fill:#ffffff;stroke-width:0.179548"
       d="m 999.44849,5966.1666 c -0.0693,-0.069 -0.12591,-1.4818 -0.12591,-3.139 v -3.013 l -5.73133,-0.054 -5.73134,-0.055 -0.46306,-0.4353 c -0.31643,-0.2974 -0.46306,-0.623 -0.46306,-1.0284 0,-0.5092 0.39315,-1.041 2.78049,-3.7604 1.52927,-1.742 2.73644,-3.2384 2.68262,-3.3256 -0.0538,-0.087 -0.64459,-0.1583 -1.31281,-0.1583 -1.03781,0 -1.27186,-0.061 -1.60533,-0.4156 -0.50354,-0.536 -0.50086,-1.3669 0.006,-2.029 0.21832,-0.2849 1.43026,-1.7061 2.69322,-3.1584 1.26296,-1.4522 2.29629,-2.6733 2.29629,-2.7135 0,-0.04 -0.54276,-0.1167 -1.20613,-0.1699 -1.01736,-0.082 -1.27027,-0.1714 -1.61593,-0.5733 -0.60872,-0.7076 -0.52935,-1.3979 0.2635,-2.2916 1.99883,-2.2533 7.13834,-7.6142 7.43674,-7.7571 0.21254,-0.1019 0.50928,-0.1019 0.76645,0 0.3496,0.1384 5.0706,5.0175 7.5072,7.7587 0.793,0.892 0.8724,1.5822 0.2635,2.29 -0.3456,0.4019 -0.5985,0.4916 -1.6159,0.5733 -0.6634,0.053 -1.2061,0.1331 -1.2061,0.1775 0,0.044 0.9913,1.2252 2.203,2.6238 3.2129,3.7089 3.1834,3.6688 3.1834,4.321 0,0.9621 -0.5955,1.3641 -2.0209,1.3641 -0.6544,0 -1.2334,0.071 -1.2868,0.157 -0.053,0.086 1.1538,1.5813 2.6826,3.3222 2.3936,2.7256 2.7797,3.2481 2.7797,3.7618 0,0.4089 -0.1456,0.7334 -0.4631,1.0317 l -0.463,0.4353 -5.7272,0.055 -5.7271,0.054 -0.049,3.0856 c -0.042,2.6175 -0.091,3.0936 -0.32718,3.139 -0.15294,0.029 -0.33474,-0.01 -0.40398,-0.073 z m -0.16734,-10.9287 0.0484,-3.591 -1.88871,-1.882 c -1.83707,-1.8306 -2.19072,-2.4122 -1.60364,-2.6376 0.19674,-0.075 0.75083,0.354 1.7882,1.386 1.04341,1.038 1.53239,1.4163 1.59884,1.2372 0.0526,-0.142 0.11653,-1.7529 0.14195,-3.5798 0.0443,-3.1865 0.0608,-3.3216 0.40531,-3.3216 0.3506,0 0.3602,0.1355 0.4065,5.7006 0.026,3.1354 0.1148,5.7007 0.1971,5.7007 0.082,0 0.7582,-0.6542 1.5021,-1.4537 1.3773,-1.4804 1.9624,-1.7526 2.0757,-0.9657 0.037,0.2549 -0.5026,0.9064 -1.847,2.2311 l -1.899,1.8711 0.052,1.4478 0.052,1.4478 h 5.566 c 5.5474,0 5.5662,0 5.6207,-0.3835 0.04,-0.2824 -0.846,-1.3949 -3.3611,-4.2194 l -3.4158,-3.8358 2.2838,-0.09 c 2.1132,-0.083 2.2874,-0.1166 2.3321,-0.4488 0.033,-0.2448 -0.9819,-1.56 -3.1862,-4.1296 -1.779,-2.0738 -3.2348,-3.8286 -3.2353,-3.8995 -4e-4,-0.071 0.9486,-0.1518 2.109,-0.1795 2.0371,-0.049 2.1096,-0.064 2.1096,-0.4448 0,-0.2657 -1.1916,-1.6602 -3.6578,-4.2806 l -3.65792,-3.8866 -0.88755,0.8693 c -1.78172,1.745 -6.70071,7.0845 -6.75596,7.3334 -0.0775,0.3491 0.43242,0.4418 2.7154,0.4939 l 1.9404,0.044 -3.1703,3.6807 c -1.74366,2.0244 -3.29456,3.8206 -3.44644,3.9916 -0.22186,0.2497 -0.23251,0.3634 -0.0542,0.5783 0.17002,0.2048 0.73969,0.2792 2.4341,0.3176 l 2.21213,0.05 -2.78246,3.1421 c -3.94686,4.457 -4.24275,4.8381 -3.99129,5.1411 0.17113,0.2062 1.17901,0.2421 5.70484,0.203 l 5.49698,-0.048 z m 17.39775,10.9225 c -0.066,-0.066 -0.1194,-2.4292 -0.1191,-5.2518 l 6e-4,-5.1321 -1.9054,-1.8078 c -1.9386,-1.8394 -2.2636,-2.4308 -1.4038,-2.5544 0.2676,-0.038 0.7308,0.3474 1.6836,1.4027 0.723,0.8007 1.383,1.3873 1.4667,1.3036 0.084,-0.084 0.1736,-2.6541 0.1998,-5.7119 0.046,-5.424 0.056,-5.5596 0.4066,-5.5596 0.3453,0 0.3609,0.136 0.4078,3.5461 0.027,1.9503 0.1075,3.546 0.1795,3.5459 0.072,0 0.726,-0.6508 1.4534,-1.4461 0.9777,-1.0691 1.422,-1.4318 1.7039,-1.3914 0.859,0.1231 0.5477,0.701 -1.3959,2.5912 l -1.9073,1.8549 0.049,3.6395 0.049,3.6396 5.497,0.048 c 4.7287,0.041 5.5285,0.01 5.7225,-0.2243 0.2559,-0.3083 0.3703,-0.1623 -4.0834,-5.2096 l -2.6933,-3.0523 2.3571,-0.09 c 2.0878,-0.08 2.357,-0.1256 2.357,-0.403 0,-0.1722 -1.4745,-2.0451 -3.2767,-4.1618 -1.8022,-2.1168 -3.2768,-3.8948 -3.2768,-3.9511 0,-0.056 0.9193,-0.1024 2.0428,-0.1024 2.5846,0 2.8088,-0.1641 1.7913,-1.3106 -1.2617,-1.4218 -6.7442,-7.2171 -6.8753,-7.2675 -0.071,-0.027 -1.6083,1.4915 -3.4166,3.3749 -3.164,3.2952 -3.7748,3.7671 -3.9174,3.0262 -0.033,-0.1723 1.3196,-1.7363 3.3761,-3.9031 2.6186,-2.759 3.5344,-3.6155 3.8659,-3.6155 0.5513,0 0.7746,0.2115 5.0094,4.7464 3.2294,3.4581 3.5103,3.8112 3.5103,4.4125 0,0.9934 -0.5759,1.432 -2.077,1.582 l -1.2183,0.1217 2.7249,3.136 c 2.4809,2.8552 2.7249,3.1969 2.7249,3.8154 0,1.0418 -0.4667,1.397 -1.8403,1.4003 -0.6172,0 -1.2213,0.066 -1.3425,0.1427 -0.154,0.098 0.136,0.5432 0.9624,1.4785 3.9598,4.4814 4.3751,5.0139 4.3723,5.6058 0,0.63 -0.088,0.7988 -0.6081,1.209 -0.2812,0.2219 -1.3411,0.2852 -6.0148,0.3591 l -5.6734,0.09 -0.049,3.0972 c -0.045,2.8508 -0.075,3.0972 -0.3741,3.0972 -0.1787,0 -0.3788,-0.054 -0.4446,-0.1197 z"
       id="path36413"
       inkscape:label="Bois" /></g></svg>
