<?xml version="1.0" encoding="UTF-8" standalone="no"?>
<!-- Created with Inkscape (http://www.inkscape.org/) -->

<svg
   version="1.1"
   id="svg854"
   width="31.912964"
   height="36.479492"
   viewBox="0 0 31.912964 36.479492"
   sodipodi:docname="web_template_quadratik2.svg"
   inkscape:version="1.3-dev (38535c2, 2022-11-14)"
   xml:space="preserve"
   xmlns:inkscape="http://www.inkscape.org/namespaces/inkscape"
   xmlns:sodipodi="http://sodipodi.sourceforge.net/DTD/sodipodi-0.dtd"
   xmlns="http://www.w3.org/2000/svg"
   xmlns:svg="http://www.w3.org/2000/svg"><defs
     id="defs858"><linearGradient
       id="linearGradient3615"
       inkscape:swatch="solid"><stop
         style="stop-color:#d35f5f;stop-opacity:1;"
         offset="0"
         id="stop3613" /></linearGradient><linearGradient
       id="linearGradient15189"
       inkscape:swatch="solid"><stop
         style="stop-color:#000000;stop-opacity:1;"
         offset="0"
         id="stop15187" /></linearGradient><linearGradient
       id="linearGradient15165"
       inkscape:swatch="solid"><stop
         style="stop-color:#000000;stop-opacity:1;"
         offset="0"
         id="stop15163" /></linearGradient></defs><sodipodi:namedview
     id="namedview856"
     pagecolor="#505050"
     bordercolor="#ffffff"
     borderopacity="1"
     inkscape:pageshadow="0"
     inkscape:pageopacity="0"
     inkscape:pagecheckerboard="1"
     showgrid="true"
     units="px"
     inkscape:zoom="0.11016922"
     inkscape:cx="1829.0045"
     inkscape:cy="3835.0095"
     inkscape:window-width="2560"
     inkscape:window-height="1415"
     inkscape:window-x="1680"
     inkscape:window-y="0"
     inkscape:window-maximized="1"
     inkscape:current-layer="layer8"
     inkscape:document-units="mm"
     inkscape:snap-grids="false"
     inkscape:snap-page="true"
     showguides="false"
     inkscape:guide-bbox="true"
     inkscape:lockguides="true"
     inkscape:showpageshadow="0"
     inkscape:deskcolor="#505050"><sodipodi:guide
       position="-0.47111511,1080.0346"
       orientation="1,0"
       id="guide32320"
       inkscape:locked="true" /><sodipodi:guide
       position="1920,1080"
       orientation="1,0"
       id="guide32322"
       inkscape:locked="true" /><sodipodi:guide
       position="0,1080"
       orientation="0,1920"
       id="guide32389"
       inkscape:locked="true" /><sodipodi:guide
       position="1920,0"
       orientation="0,-1920"
       id="guide32393"
       inkscape:locked="true" /><inkscape:grid
       type="xygrid"
       id="grid32435"
       originx="381.57648"
       originy="-4930.7852"
       spacingx="47.9"
       spacingy="54"
       empspacing="5"
       color="#3f3fff"
       opacity="0.04705882"
       empcolor="#3f3fff"
       empopacity="0.16862745"
       visible="true"
       snapvisiblegridlinesonly="true" /><sodipodi:guide
       position="959.375,1217.5"
       orientation="1,0"
       id="guide32439"
       inkscape:locked="true" /></sodipodi:namedview><g
     inkscape:groupmode="layer"
     id="layer10"
     inkscape:label="La personalisation"
     style="display:inline"
     transform="translate(-578.42352,-5470.7852)"><g
       id="g26075"
       transform="translate(-1557.2438,-695.35586)"><path
         style="fill:#ffffff;fill-opacity:1;stroke-width:2.08252;stroke-dasharray:none"
         d="m 2139.2203,6202.4282 c -0.3978,-0.094 -0.9699,-0.2978 -1.2714,-0.4538 -0.8094,-0.4185 -1.8485,-1.7257 -2.1015,-2.6436 -0.1616,-0.5863 -0.2066,-4.7727 -0.166,-15.4313 l 0.056,-14.6266 0.4218,-0.7885 c 0.5195,-0.9711 1.314,-1.6579 2.3908,-2.0666 0.7329,-0.2781 2.1545,-0.3055 13.3588,-0.2577 l 12.5386,0.054 0.9358,0.5787 c 0.5798,0.3585 1.1559,0.9346 1.5145,1.5144 l 0.5786,0.9358 0.052,14.8374 0.052,14.8374 -0.5303,1.0459 c -0.6493,1.2806 -1.7854,2.1802 -3.1127,2.4648 -1.1919,0.2557 -23.6318,0.2557 -24.7173,1e-4 z m 25.2188,-1.3042 c 0.4328,-0.1966 1.0351,-0.6827 1.3384,-1.0802 l 0.5513,-0.7229 0.051,-14.7859 c 0.05,-14.4501 0.043,-14.8028 -0.3302,-15.5337 -0.4479,-0.8778 -1.1452,-1.4193 -2.2066,-1.7132 -0.5202,-0.1441 -4.4382,-0.2122 -12.2498,-0.2129 -12.9353,0 -12.968,0 -14.0208,1.2789 -0.3224,0.3912 -0.663,1.1075 -0.7751,1.6303 -0.2805,1.3078 -0.273,27.3222 0.01,28.6336 0.2503,1.167 0.9372,2.0375 1.9826,2.5124 0.7235,0.3286 1.5401,0.3509 12.8182,0.3509 11.3563,0 12.0905,-0.02 12.8325,-0.3573 z m -24.0517,-5.5362 c -0.5466,-0.4883 -0.6223,-0.6827 -0.6919,-1.7754 -0.1548,-2.4315 0.7507,-3.337 3.1821,-3.1822 1.0928,0.07 1.2871,0.1454 1.7755,0.6919 0.492,0.5507 0.5484,0.7501 0.5484,1.9402 0,2.3041 -0.5662,2.8739 -2.8555,2.8739 -1.2104,0 -1.4062,-0.055 -1.9586,-0.5484 z m 3.4156,-0.8233 c 0.3382,-0.3178 0.4425,-0.6231 0.4425,-1.2959 0,-1.3634 -0.364,-1.7299 -1.718,-1.7299 -1.4708,0 -1.7236,0.2528 -1.7236,1.7235 0,0.9435 0.068,1.1703 0.4249,1.4204 0.6431,0.4504 2.0371,0.3865 2.5742,-0.1181 z m 5.8971,-0.9906 c -0.217,-0.1587 -0.3076,-0.3811 -0.2337,-0.5736 0.1087,-0.2834 0.773,-0.3145 6.729,-0.3145 5.9559,0 6.6202,0.031 6.7289,0.3145 0.2922,0.7612 -0.2857,0.8327 -6.7289,0.8327 -4.8656,0 -6.2145,-0.054 -6.4953,-0.2591 z m -8.7846,-8.5198 c -0.8935,-0.9005 -1.275,-1.4189 -1.1958,-1.6252 0.2068,-0.5389 0.7637,-0.3244 1.7907,0.6899 l 1.0054,0.9929 2.1618,-2.2456 c 1.624,-1.687 2.2434,-2.2142 2.49,-2.1196 0.7494,0.2876 0.3381,0.9553 -2.031,3.2974 -1.2976,1.2828 -2.4829,2.3324 -2.6341,2.3324 -0.1512,0 -0.8653,-0.595 -1.587,-1.3222 z m 8.5509,-0.713 c -0.2922,-0.7612 0.2857,-0.8328 6.729,-0.8328 6.4432,0 7.0211,0.072 6.7289,0.8328 -0.1087,0.2834 -0.773,0.3144 -6.7289,0.3144 -5.956,0 -6.6203,-0.031 -6.729,-0.3144 z m -9.079,-7.3083 c -0.5466,-0.4883 -0.6223,-0.6827 -0.6919,-1.7754 -0.1548,-2.4315 0.7507,-3.337 3.1821,-3.1822 1.0928,0.07 1.2871,0.1453 1.7755,0.6919 0.492,0.5507 0.5484,0.7501 0.5484,1.9402 0,2.3041 -0.5662,2.8739 -2.8555,2.8739 -1.2104,0 -1.4062,-0.055 -1.9586,-0.5484 z m 3.4156,-0.8233 c 0.3382,-0.3178 0.4425,-0.6231 0.4425,-1.2959 0,-1.3635 -0.364,-1.73 -1.718,-1.73 -1.4708,0 -1.7236,0.2529 -1.7236,1.7236 0,0.9435 0.068,1.1703 0.4249,1.4204 0.6431,0.4504 2.0371,0.3865 2.5742,-0.1181 z m 5.8971,-0.9906 c -0.217,-0.1587 -0.3076,-0.3811 -0.2337,-0.5736 0.1087,-0.2834 0.773,-0.3145 6.729,-0.3145 5.9559,0 6.6202,0.031 6.7289,0.3145 0.2922,0.7612 -0.2857,0.8327 -6.7289,0.8327 -4.8656,0 -6.2145,-0.054 -6.4953,-0.2591 z"
         id="path11092" /></g></g></svg>
