<svg width="56" height="73" viewBox="0 0 56 73" fill="none" xmlns="http://www.w3.org/2000/svg">
<path d="M8.07058 72.3865C6.03653 71.9749 4.46329 70.8942 3.50985 69.2543L2.58862 67.6703L1.38683 37.7887C0.643586 19.3085 0.303796 7.41997 0.496493 6.62956C0.908246 4.94032 2.76836 2.90834 4.37552 2.39152C6.20279 1.80374 47.1065 0.182019 48.4909 0.642829C49.9238 1.11924 51.6244 2.64358 52.2955 4.05262C52.7516 5.01054 53.0665 10.5856 54.0631 35.3644L55.2755 65.5109L54.5126 67.1883C53.9779 68.3638 53.2649 69.1614 52.1286 69.8538L50.5077 70.8413L29.8769 71.7336C18.5299 72.2237 8.71703 72.5164 8.07058 72.3865ZM52.0301 67.3936C52.7515 66.5176 53.0713 65.6358 53.1843 64.2105C53.2706 63.1261 52.7728 49.3916 52.0783 33.6888C51.1284 12.2103 50.6988 4.95026 50.3401 4.37933C50.0777 3.96184 49.3877 3.3254 48.807 2.96494C47.8012 2.34054 46.7381 2.35009 26.5648 3.16142C7.3054 3.936 5.27701 4.07458 4.25869 4.68654C2.07095 6.00177 2.09687 4.99207 3.41136 37.676C4.71909 70.1917 4.54549 68.5605 6.85089 69.8518C8.01385 70.503 8.77052 70.4935 29.5427 69.5655L51.0316 68.6057L52.0301 67.3936ZM24.9357 62.6129C21.864 61.9179 19.3894 60.5229 17.1158 58.205C9.92609 50.8749 11.9085 38.7286 21.1104 33.7294C23.3503 32.5125 23.7113 32.4306 27.5442 32.2764C31.1895 32.1298 31.827 32.2069 33.7756 33.0255C38.1438 34.8621 41.3342 38.1826 42.7266 42.341C43.7903 45.5173 43.6959 50.502 42.5184 53.3568C39.7052 60.176 32.0279 64.2175 24.9357 62.6129ZM34.1073 59.5507C36.6547 58.319 39.446 55.2779 40.5467 52.5353C41.8345 49.3265 41.9033 46.3405 40.7648 43.071C39.0884 38.257 35.3902 35.1646 30.3241 34.342C17.3632 32.2375 9.53387 47.8304 18.9083 57.078C20.6236 58.7701 23.1385 60.1624 25.3495 60.6438C27.331 61.0752 32.2154 60.4654 34.1073 59.5507ZM25.7897 53.6018C21.9541 52.0426 20.6953 47.027 23.2973 43.6697C25.5097 40.815 29.928 40.4399 32.6921 42.8723C35.8648 45.6647 35.1691 51.4745 31.4367 53.3533C29.5095 54.3232 27.7544 54.4 25.7897 53.6018ZM31.4436 50.8039C34.8835 47.0757 30.7234 41.4075 26.2645 43.7473C23.5406 45.1768 23.1419 49.1255 25.5237 51.0873C26.4772 51.8728 27.0493 52.0405 28.5632 51.9796C30.1255 51.9168 30.5927 51.7261 31.4436 50.8039ZM25.4855 22.9837C22.1981 22.0664 20.0545 18.6056 20.7828 15.3911C22.2139 9.07617 31.0166 8.48502 33.0913 14.5648C34.0349 17.3297 32.9913 20.6227 30.7045 22.0955C29.4265 22.9186 26.8337 23.3598 25.4855 22.9837ZM29.272 20.5913C29.7838 20.3727 30.5118 19.6379 30.8899 18.9579C33.2179 14.7697 28.5095 10.3576 24.5583 13.0248C21.104 15.3564 22.8113 21.2113 26.8976 21.047C27.6918 21.015 28.7603 20.8097 29.272 20.5913Z" fill="white"/>
</svg>
