<svg width="68" height="80" viewBox="0 0 68 80" fill="none" xmlns="http://www.w3.org/2000/svg">
<path d="M9.45884 79.9657C6.93631 79.5074 4.98526 78.3043 3.80285 76.4785L2.66039 74.715L1.16999 41.4466C0.248258 20.8718 -0.173133 7.63581 0.0658404 6.75582C0.576476 4.87512 2.8833 2.61283 4.87641 2.03743C7.1425 1.38303 57.8692 -0.422494 59.5861 0.0905443C61.3631 0.620952 63.4721 2.31806 64.3044 3.8868C64.87 4.95329 65.2605 11.1602 66.4964 38.7475L68 72.3108L67.0539 74.1783C66.3908 75.4871 65.5066 76.3751 64.0974 77.1459L62.0872 78.2454L36.5019 79.2388C22.43 79.7844 10.2605 80.1103 9.45884 79.9657ZM63.9752 74.4069C64.8699 73.4316 65.2665 72.4499 65.4066 70.863C65.5136 69.6557 64.8963 54.3645 64.035 36.882C62.857 12.9691 62.3242 4.88618 61.8794 4.25054C61.5539 3.78573 60.6982 3.07716 59.9781 2.67585C58.7307 1.98068 57.4123 1.99131 32.3944 2.89459C8.50991 3.75697 5.9944 3.91125 4.73153 4.59257C2.0184 6.05687 2.05055 4.93273 3.68071 41.3211C5.30249 77.5221 5.0872 75.7061 7.94624 77.1437C9.38849 77.8687 10.3269 77.8581 36.0875 76.825L62.7369 75.7564L63.9752 74.4069ZM30.3741 69.0844C26.5647 68.3106 23.4959 66.7575 20.6763 64.1769C11.76 56.016 14.2184 42.493 25.6302 36.9272C28.408 35.5723 28.8557 35.4812 33.609 35.3095C38.1298 35.1463 38.9204 35.2321 41.3369 36.1435C46.7541 38.1883 50.7107 41.8851 52.4375 46.5148C53.7566 50.0511 53.6396 55.6008 52.1793 58.7792C48.6905 66.3713 39.1695 70.8708 30.3741 69.0844ZM41.7483 65.6751C44.9074 64.3038 48.3691 60.918 49.7341 57.8645C51.3311 54.2921 51.4165 50.9676 50.0046 47.3276C47.9256 41.9679 43.3393 38.525 37.0565 37.6092C20.9831 35.2662 11.2735 52.6264 22.8992 62.9221C25.0265 64.806 28.1453 66.3561 30.8873 66.8921C33.3446 67.3724 39.402 66.6935 41.7483 65.6751ZM31.4332 59.0519C26.6765 57.316 25.1154 51.7319 28.3423 47.9941C31.086 44.8159 36.5653 44.3982 39.9932 47.1063C43.9278 50.2152 43.0651 56.6835 38.4363 58.7753C36.0463 59.8551 33.8697 59.9406 31.4332 59.0519ZM38.4449 55.9369C42.7109 51.7862 37.5517 45.4755 32.022 48.0805C28.644 49.672 28.1495 54.0683 31.1033 56.2524C32.2858 57.127 32.9953 57.3137 34.8728 57.2459C36.8102 57.1759 37.3896 56.9636 38.4449 55.9369ZM31.0559 24.9635C26.9791 23.9423 24.3207 20.0892 25.2239 16.5104C26.9987 9.47973 37.9153 8.82158 40.4883 15.5904C41.6585 18.6687 40.3643 22.3349 37.5283 23.9747C35.9434 24.8911 32.7279 25.3823 31.0559 24.9635ZM35.7518 22.3C36.3865 22.0566 37.2893 21.2385 37.7582 20.4815C40.6453 15.8186 34.8062 10.9064 29.9061 13.8759C25.6222 16.4718 27.7395 22.9903 32.8072 22.8073C33.7921 22.7717 35.1172 22.5431 35.7518 22.3Z" fill="#8EA65F"/>
</svg>
