<?xml version="1.0" encoding="UTF-8" standalone="no"?>
<!-- Created with Inkscape (http://www.inkscape.org/) -->

<svg
   version="1.1"
   id="svg854"
   width="31.168579"
   height="41.935059"
   viewBox="0 0 31.168579 41.935059"
   sodipodi:docname="web_template_quadratik2.svg"
   inkscape:version="1.3-dev (38535c2, 2022-11-14)"
   xml:space="preserve"
   xmlns:inkscape="http://www.inkscape.org/namespaces/inkscape"
   xmlns:sodipodi="http://sodipodi.sourceforge.net/DTD/sodipodi-0.dtd"
   xmlns="http://www.w3.org/2000/svg"
   xmlns:svg="http://www.w3.org/2000/svg"><defs
     id="defs858"><linearGradient
       id="linearGradient3615"
       inkscape:swatch="solid"><stop
         style="stop-color:#d35f5f;stop-opacity:1;"
         offset="0"
         id="stop3613" /></linearGradient><linearGradient
       id="linearGradient15189"
       inkscape:swatch="solid"><stop
         style="stop-color:#000000;stop-opacity:1;"
         offset="0"
         id="stop15187" /></linearGradient><linearGradient
       id="linearGradient15165"
       inkscape:swatch="solid"><stop
         style="stop-color:#000000;stop-opacity:1;"
         offset="0"
         id="stop15163" /></linearGradient></defs><sodipodi:namedview
     id="namedview856"
     pagecolor="#505050"
     bordercolor="#ffffff"
     borderopacity="1"
     inkscape:pageshadow="0"
     inkscape:pageopacity="0"
     inkscape:pagecheckerboard="1"
     showgrid="true"
     units="px"
     inkscape:zoom="0.11016922"
     inkscape:cx="1829.0045"
     inkscape:cy="3835.0095"
     inkscape:window-width="2560"
     inkscape:window-height="1415"
     inkscape:window-x="1680"
     inkscape:window-y="0"
     inkscape:window-maximized="1"
     inkscape:current-layer="layer8"
     inkscape:document-units="mm"
     inkscape:snap-grids="false"
     inkscape:snap-page="true"
     showguides="false"
     inkscape:guide-bbox="true"
     inkscape:lockguides="true"
     inkscape:showpageshadow="0"
     inkscape:deskcolor="#505050"><sodipodi:guide
       position="-0.47111511,1080.0346"
       orientation="1,0"
       id="guide32320"
       inkscape:locked="true" /><sodipodi:guide
       position="1920,1080"
       orientation="1,0"
       id="guide32322"
       inkscape:locked="true" /><sodipodi:guide
       position="0,1080"
       orientation="0,1920"
       id="guide32389"
       inkscape:locked="true" /><sodipodi:guide
       position="1920,0"
       orientation="0,-1920"
       id="guide32393"
       inkscape:locked="true" /><inkscape:grid
       type="xygrid"
       id="grid32435"
       originx="381.25928"
       originy="-4991.4302"
       spacingx="47.9"
       spacingy="54"
       empspacing="5"
       color="#3f3fff"
       opacity="0.04705882"
       empcolor="#3f3fff"
       empopacity="0.16862745"
       visible="true"
       snapvisiblegridlinesonly="true" /><sodipodi:guide
       position="959.375,1217.5"
       orientation="1,0"
       id="guide32439"
       inkscape:locked="true" /></sodipodi:namedview><g
     inkscape:groupmode="layer"
     id="layer10"
     inkscape:label="La personalisation"
     style="display:inline"
     transform="translate(-578.74072,-5531.4302)"><g
       id="g26075"
       transform="translate(-1557.2438,-695.35586)"><path
         style="fill:#ffffff;fill-opacity:1;stroke-width:0.219497"
         d="m 2150.7706,6268.6701 c -1.2177,-0.1968 -2.8612,-1.4408 -3.5711,-2.7032 -0.6769,-1.2035 -0.6792,-1.2188 -0.7548,-5.0821 l -0.076,-3.8752 -2.8874,-0.077 c -2.4591,-0.066 -3.0371,-0.15 -3.897,-0.5734 -1.2866,-0.6334 -2.4681,-1.8148 -3.1023,-3.1018 -0.497,-1.0086 -0.4975,-1.0222 -0.4975,-12.0018 v -10.9921 l 0.6643,-1.0745 c 0.4117,-0.666 1.0727,-1.327 1.7387,-1.7388 l 1.0745,-0.6643 h 12.1068 12.1068 l 1.0744,0.6643 c 0.6661,0.4118 1.327,1.0728 1.7388,1.739 l 0.6643,1.0745 v 11.1017 c 0,11.0217 0,11.1083 -0.4834,12.0054 -0.7448,1.3923 -1.4594,2.1315 -2.736,2.8303 -1.0931,0.5985 -1.363,0.6466 -4.0789,0.7287 l -2.9083,0.088 v 3.4468 c 0,3.8922 -0.2534,5.1371 -1.3043,6.4074 -1.0455,1.2641 -3.2165,2.0651 -4.8718,1.7975 z m 2.3887,-1.5042 c 1.0427,-0.4356 1.5413,-0.8977 2.0547,-1.9036 0.3657,-0.7163 0.4157,-1.3272 0.4157,-5.0789 v -4.2644 l 3.1278,-0.093 c 3.4713,-0.104 4.3462,-0.3461 5.6249,-1.5578 0.9575,-0.9075 1.532,-2.2003 1.7025,-3.8317 0.1296,-1.2401 0.1106,-1.3114 -0.3854,-1.4442 -0.2869,-0.077 -6.757,-0.1409 -14.378,-0.1425 -15.5324,0 -14.527,-0.1155 -14.2577,1.5894 0.3936,2.4916 1.3243,3.9101 3.1402,4.7855 0.9404,0.4534 1.377,0.5071 4.2313,0.5209 l 3.1827,0.015 0.1098,4.5167 c 0.1079,4.441 0.1195,4.5313 0.6954,5.4007 1.0481,1.5822 3.0247,2.2032 4.7361,1.4881 z m -2.3586,-2.7354 c -0.2414,-0.2414 -0.439,-0.6366 -0.439,-0.878 0,-0.2414 0.1976,-0.6365 0.439,-0.8779 0.2415,-0.2415 0.6366,-0.439 0.878,-0.439 0.2415,0 0.6366,0.1975 0.878,0.439 0.2415,0.2414 0.439,0.6365 0.439,0.8779 0,0.2414 -0.1975,0.6366 -0.439,0.878 -0.2414,0.2415 -0.6365,0.439 -0.878,0.439 -0.2414,0 -0.6365,-0.1975 -0.878,-0.439 z m 15.3135,-24.474 c 0.039,-5.1059 -0.025,-8.0864 -0.191,-8.8869 -0.4966,-2.3982 -2.3173,-3.3957 -5.9323,-3.2504 l -1.6175,0.065 -0.1098,3.8411 c -0.1079,3.7784 -0.1178,3.8425 -0.6036,3.9114 -0.2716,0.038 -0.5126,0.038 -0.5355,0 -0.023,-0.038 -0.097,-1.7987 -0.1647,-3.9114 l -0.1229,-3.8411 h -2.5242 -2.5242 l -0.1098,3.1827 -0.1097,3.1827 h -0.5488 -0.5487 l -0.1098,-3.1827 -0.1097,-3.1827 -2.8535,-0.064 c -4.26,-0.094 -3.8215,-0.6149 -3.8915,4.618 -0.055,4.1445 -0.087,4.4442 -0.4721,4.5183 -0.227,0.044 -0.4971,-0.055 -0.6003,-0.2167 -0.1031,-0.1628 -0.1891,-2.2595 -0.1909,-4.6594 v -4.3633 l -1.1524,0.1524 c -1.6312,0.2158 -2.7946,0.9237 -3.4543,2.1019 l -0.5515,0.985 -0.067,8.0951 c -0.037,4.4524 -0.015,8.2312 0.049,8.3973 0.097,0.2533 2.4577,0.2931 14.5542,0.2458 l 14.4383,-0.056 z"
         id="path11120" /></g></g></svg>
