<?xml version="1.0" encoding="UTF-8" standalone="no"?>
<!-- Created with Inkscape (http://www.inkscape.org/) -->

<svg
   version="1.1"
   id="svg854"
   width="38.640259"
   height="32.461426"
   viewBox="0 0 38.640259 32.461426"
   sodipodi:docname="web_template_quadratik2.svg"
   inkscape:version="1.3-dev (38535c2, 2022-11-14)"
   xml:space="preserve"
   xmlns:inkscape="http://www.inkscape.org/namespaces/inkscape"
   xmlns:sodipodi="http://sodipodi.sourceforge.net/DTD/sodipodi-0.dtd"
   xmlns="http://www.w3.org/2000/svg"
   xmlns:svg="http://www.w3.org/2000/svg"><defs
     id="defs858"><linearGradient
       id="linearGradient3615"
       inkscape:swatch="solid"><stop
         style="stop-color:#d35f5f;stop-opacity:1;"
         offset="0"
         id="stop3613" /></linearGradient><linearGradient
       id="linearGradient15189"
       inkscape:swatch="solid"><stop
         style="stop-color:#000000;stop-opacity:1;"
         offset="0"
         id="stop15187" /></linearGradient><linearGradient
       id="linearGradient15165"
       inkscape:swatch="solid"><stop
         style="stop-color:#000000;stop-opacity:1;"
         offset="0"
         id="stop15163" /></linearGradient></defs><sodipodi:namedview
     id="namedview856"
     pagecolor="#505050"
     bordercolor="#ffffff"
     borderopacity="1"
     inkscape:pageshadow="0"
     inkscape:pageopacity="0"
     inkscape:pagecheckerboard="1"
     showgrid="true"
     units="px"
     inkscape:zoom="0.11016922"
     inkscape:cx="1829.0045"
     inkscape:cy="3835.0095"
     inkscape:window-width="2560"
     inkscape:window-height="1415"
     inkscape:window-x="1680"
     inkscape:window-y="0"
     inkscape:window-maximized="1"
     inkscape:current-layer="layer8"
     inkscape:document-units="mm"
     inkscape:snap-grids="false"
     inkscape:snap-page="true"
     showguides="false"
     inkscape:guide-bbox="true"
     inkscape:lockguides="true"
     inkscape:showpageshadow="0"
     inkscape:deskcolor="#505050"><sodipodi:guide
       position="-0.47111511,1080.0346"
       orientation="1,0"
       id="guide32320"
       inkscape:locked="true" /><sodipodi:guide
       position="1920,1080"
       orientation="1,0"
       id="guide32322"
       inkscape:locked="true" /><sodipodi:guide
       position="0,1080"
       orientation="0,1920"
       id="guide32389"
       inkscape:locked="true" /><sodipodi:guide
       position="1920,0"
       orientation="0,-1920"
       id="guide32393"
       inkscape:locked="true" /><inkscape:grid
       type="xygrid"
       id="grid32435"
       originx="383.6488"
       originy="-4874.1582"
       spacingx="47.9"
       spacingy="54"
       empspacing="5"
       color="#3f3fff"
       opacity="0.04705882"
       empcolor="#3f3fff"
       empopacity="0.16862745"
       visible="true"
       snapvisiblegridlinesonly="true" /><sodipodi:guide
       position="959.375,1217.5"
       orientation="1,0"
       id="guide32439"
       inkscape:locked="true" /></sodipodi:namedview><g
     inkscape:groupmode="layer"
     id="layer10"
     inkscape:label="La personalisation"
     style="display:inline"
     transform="translate(-576.3512,-5414.1582)"><g
       id="g26075"
       transform="translate(-1557.2438,-695.35586)"><path
         style="fill:#ffffff;fill-opacity:1;stroke-width:0.165288"
         d="m 2136.562,6141.8004 c -0.4116,-0.1546 -1.0327,-0.6674 -1.7161,-1.4165 -1.176,-1.2894 -1.4527,-2.0593 -1.1202,-3.1174 0.1207,-0.3841 2.2441,-2.7284 6.9243,-7.6445 6.5461,-6.8762 7.1801,-7.4588 7.3912,-6.7922 0.031,0.099 -2.8482,3.2244 -6.3987,6.9463 -3.5506,3.7218 -6.5997,7.0046 -6.7759,7.2952 -0.565,0.9319 -0.4373,1.4456 0.6677,2.6867 1.0301,1.157 1.4541,1.3882 2.1968,1.1977 0.2947,-0.075 2.6975,-2.4774 7.1611,-7.1582 6.5109,-6.8277 7.231,-7.4867 7.231,-6.6177 0,0.3047 -13.7401,14.6995 -14.0336,14.7024 -0.1307,0 -0.3827,0.038 -0.5601,0.081 -0.1773,0.043 -0.6127,-0.03 -0.9675,-0.1632 z m 20.4079,-6.1796 c -0.3507,-0.3686 -0.3582,-0.4573 -0.3103,-3.6657 l 0.049,-3.288 -4.6934,-4.9566 c -4.9279,-5.2043 -5.058,-5.3821 -4.8093,-6.5716 0.076,-0.3619 1.0172,-1.4913 3.1888,-3.8248 1.6948,-1.8212 3.2968,-3.4282 3.56,-3.5711 0.8975,-0.4877 1.628,-0.2207 2.8325,1.0352 0.5877,0.6126 1.1163,1.114 1.1746,1.114 0.058,0 0.5779,-0.4885 1.1545,-1.0855 1.5815,-1.6372 2.4537,-1.6836 3.9373,-0.2095 1.0496,1.043 1.3249,1.5604 1.3249,2.4905 0,0.6442 -0.099,0.8112 -1.161,1.9621 l -1.161,1.2581 1.6014,1.6887 1.6014,1.689 h 3.0713 c 3.3744,0 3.6723,0.076 3.8638,0.9927 0.1722,0.8236 -0.2279,4.0731 -0.6774,5.5019 -0.7877,2.5041 -2.4026,4.9369 -4.3691,6.5819 -2.2742,1.9025 -4.9952,2.955 -8.1082,3.1365 -1.6191,0.094 -1.7298,0.079 -2.0699,-0.2778 z m 4.9092,-1.1005 c 1.4346,-0.3951 3.7498,-1.6505 4.7648,-2.5838 2.9975,-2.7558 4.2245,-5.4035 4.598,-9.9214 l 0.1086,-1.313 h -3.2048 -3.2047 l -4.8357,-5.0827 c -4.1511,-4.3631 -4.9029,-5.0827 -5.3105,-5.0827 -0.4,0 -0.9425,0.4876 -3.4402,3.092 -1.6309,1.7006 -3.0704,3.3016 -3.1988,3.5579 -0.2041,0.4071 -0.2039,0.5247 0,0.9317 0.1294,0.2564 2.3083,2.6384 4.8418,5.2934 l 4.6064,4.8274 v 3.3715 3.3716 l 1.6529,-0.098 c 0.9091,-0.054 2.0883,-0.2176 2.6204,-0.3642 z m -1.5075,-2.4475 c -0.4925,-0.3279 -0.091,-0.7139 1.2495,-1.2005 1.5938,-0.5788 2.7828,-1.3947 3.8946,-2.6728 0.8049,-0.9253 1.9615,-3.1855 2.1667,-4.2341 0.1239,-0.6331 0.2665,-0.7672 0.651,-0.6122 0.4223,0.1703 0.1933,1.3911 -0.5732,3.0549 -1.1453,2.4858 -3.3151,4.503 -5.7987,5.3905 -1.3384,0.4783 -1.2947,0.4707 -1.5899,0.2742 z m 3.129,-18.855 c 0.1296,-0.4287 -0.2885,-1.1628 -1.1217,-1.9698 -1.055,-1.0217 -1.3913,-0.9726 -2.6773,0.3906 l -1.0394,1.1018 1.3627,1.439 1.3626,1.4392 1.0124,-1.0543 c 0.5569,-0.5798 1.0522,-1.1858 1.1007,-1.3465 z"
         id="path11106" /></g></g></svg>
