<svg width="80" height="80" viewBox="0 0 80 80" fill="none" xmlns="http://www.w3.org/2000/svg">
<path d="M6.14306 79.5678C5.29089 79.1868 4.00505 77.923 2.59016 76.0769C0.155396 72.8992 -0.417811 71.0023 0.270589 68.3947C0.520483 67.4481 4.91675 61.6706 14.6065 49.5551C28.1594 32.609 29.4724 31.1725 29.9094 32.8153C29.9736 33.0593 24.0126 40.7617 16.6617 49.9341C9.31066 59.1063 2.99792 67.1972 2.63312 67.9133C1.46336 70.21 1.72729 71.4755 4.01506 74.5342C6.14775 77.3855 7.02605 77.9555 8.56372 77.486C9.17386 77.3011 14.1481 71.3805 23.3895 59.8449C36.8695 43.0183 38.3608 41.3943 38.3608 43.5359C38.3608 44.2869 9.9134 79.7628 9.30574 79.7699C9.03514 79.7699 8.51349 79.8637 8.14621 79.9697C7.77913 80.0757 6.87763 79.896 6.14306 79.5678ZM48.3952 64.3382C47.6691 63.4298 47.6536 63.2116 47.7528 55.3047L47.8539 47.2013L38.1368 34.9862C27.9342 22.1604 27.6648 21.7218 28.1797 18.7903C28.3371 17.8984 30.2861 15.1153 34.7821 9.36449C38.291 4.87622 41.6073 0.916582 42.1522 0.564411C44.0104 -0.637504 45.5229 0.0203979 48.0166 3.11551C49.2334 4.62523 50.3282 5.86034 50.4489 5.86034C50.569 5.86034 51.645 4.65658 52.8387 3.1853C56.113 -0.849505 57.9192 -0.963788 60.9909 2.66907C63.1639 5.23949 63.7335 6.51515 63.7335 8.80734C63.7335 10.3949 63.5288 10.806 61.33 13.6424L58.926 16.7434L62.2419 20.9046L65.5572 25.067H71.9159C78.9022 25.067 79.5189 25.2542 79.9154 27.5134C80.2719 29.5431 79.4439 37.5515 78.5132 41.0727C76.8824 47.2439 73.5389 53.2398 69.4675 57.2938C64.759 61.9824 59.1256 64.5756 52.6805 65.0229C49.3284 65.2546 49.0994 65.2175 48.3952 64.3382ZM58.5591 61.6271C61.5292 60.6534 66.3223 57.559 68.4237 55.259C74.6296 48.4674 77.1703 41.9423 77.9436 30.8081L78.1685 27.5723H71.5333H64.8981L54.8864 15.0467C46.292 4.29403 44.7359 2.51985 43.892 2.51985C43.0639 2.51985 41.9402 3.72222 36.7691 10.1406C33.3925 14.3317 30.4123 18.2766 30.1465 18.9082C29.7239 19.9115 29.7243 20.2012 30.1465 21.2042C30.4144 21.8361 34.9255 27.7066 40.1708 34.2497L49.7079 46.1472V54.4563V62.7654L53.1299 62.5236C55.0121 62.3905 57.4534 61.9871 58.555 61.6259L58.5591 61.6271ZM55.4378 55.5947C54.4182 54.7866 55.2495 53.8349 58.0248 52.6357C61.3246 51.2092 63.7861 49.1996 66.0879 46.0497C67.7544 43.7694 70.1491 38.1985 70.5739 35.6143C70.8304 34.0541 71.1259 33.7233 71.922 34.1053C72.7963 34.525 72.3221 37.5343 70.7352 41.6347C68.364 47.7608 63.8714 52.7324 58.7294 54.9196C55.9584 56.0984 56.049 56.0789 55.4378 55.5947ZM61.9159 9.12743C62.1842 8.07092 61.3188 6.26194 59.5938 4.27313C57.4095 1.75519 56.7134 1.87626 54.0508 5.2358L51.8986 7.95056L54.7201 11.4968L57.5411 15.0443L59.6372 12.4463C60.7902 11.0174 61.8154 9.52347 61.9159 9.12743Z" fill="#8EA65F"/>
</svg>
