<?xml version="1.0" encoding="UTF-8" standalone="no"?>
<!-- Created with Inkscape (http://www.inkscape.org/) -->

<svg
   version="1.1"
   id="svg854"
   width="37.755005"
   height="37.742188"
   viewBox="0 0 37.755005 37.742188"
   sodipodi:docname="web_template_quadratik2.svg"
   inkscape:version="1.3-dev (38535c2, 2022-11-14)"
   xml:space="preserve"
   xmlns:inkscape="http://www.inkscape.org/namespaces/inkscape"
   xmlns:sodipodi="http://sodipodi.sourceforge.net/DTD/sodipodi-0.dtd"
   xmlns="http://www.w3.org/2000/svg"
   xmlns:svg="http://www.w3.org/2000/svg"><defs
     id="defs858"><linearGradient
       id="linearGradient3615"
       inkscape:swatch="solid"><stop
         style="stop-color:#d35f5f;stop-opacity:1;"
         offset="0"
         id="stop3613" /></linearGradient><linearGradient
       id="linearGradient15189"
       inkscape:swatch="solid"><stop
         style="stop-color:#000000;stop-opacity:1;"
         offset="0"
         id="stop15187" /></linearGradient><linearGradient
       id="linearGradient15165"
       inkscape:swatch="solid"><stop
         style="stop-color:#000000;stop-opacity:1;"
         offset="0"
         id="stop15163" /></linearGradient></defs><sodipodi:namedview
     id="namedview856"
     pagecolor="#505050"
     bordercolor="#ffffff"
     borderopacity="1"
     inkscape:pageshadow="0"
     inkscape:pageopacity="0"
     inkscape:pagecheckerboard="1"
     showgrid="true"
     units="px"
     inkscape:zoom="0.11016922"
     inkscape:cx="1829.0045"
     inkscape:cy="3835.0095"
     inkscape:window-width="2560"
     inkscape:window-height="1415"
     inkscape:window-x="1680"
     inkscape:window-y="0"
     inkscape:window-maximized="1"
     inkscape:current-layer="layer8"
     inkscape:document-units="mm"
     inkscape:snap-grids="false"
     inkscape:snap-page="true"
     showguides="false"
     inkscape:guide-bbox="true"
     inkscape:lockguides="true"
     inkscape:showpageshadow="0"
     inkscape:deskcolor="#505050"><sodipodi:guide
       position="-0.47111511,1080.0346"
       orientation="1,0"
       id="guide32320"
       inkscape:locked="true" /><sodipodi:guide
       position="1920,1080"
       orientation="1,0"
       id="guide32322"
       inkscape:locked="true" /><sodipodi:guide
       position="0,1080"
       orientation="0,1920"
       id="guide32389"
       inkscape:locked="true" /><sodipodi:guide
       position="1920,0"
       orientation="0,-1920"
       id="guide32393"
       inkscape:locked="true" /><inkscape:grid
       type="xygrid"
       id="grid32435"
       originx="-72.953491"
       originy="-4987.98"
       spacingx="47.9"
       spacingy="54"
       empspacing="5"
       color="#3f3fff"
       opacity="0.04705882"
       empcolor="#3f3fff"
       empopacity="0.16862745"
       visible="true"
       snapvisiblegridlinesonly="true" /><sodipodi:guide
       position="959.375,1217.5"
       orientation="1,0"
       id="guide32439"
       inkscape:locked="true" /></sodipodi:namedview><g
     id="g66691"
     transform="translate(-990.74357,-5988.7331)"><path
       style="display:inline;fill:#ffffff;stroke-width:0.22642"
       d="m 994.7869,6026.3347 c -1.8093,-0.5632 -3.3831,-2.0864 -3.8308,-3.7077 -0.1873,-0.6782 -0.244,-4.0199 -0.1966,-11.5946 l 0.067,-10.6418 1.7724,-3.9623 c 2.4545,-5.4869 2.4017,-5.3846 3.1806,-6.1635 1.5538,-1.5538 1.2875,-1.5243 13.7905,-1.5298 12.425,-0.01 12.1969,-0.029 13.7117,1.4216 0.8621,0.8258 1.3821,1.8051 3.5698,6.7245 l 1.5607,3.5095 0.064,10.755 c 0.057,9.5661 0.023,10.8639 -0.3108,11.741 -0.4784,1.2574 -1.4945,2.4143 -2.6755,3.0463 -0.9242,0.4944 -0.9741,0.4962 -15.5313,0.5373 -8.0322,0.023 -14.8595,-0.038 -15.1716,-0.1355 z m 30.0022,-1.579 c 1.0477,-0.4836 1.7924,-1.2276 2.1358,-2.134 0.1577,-0.4163 0.2416,-4.0889 0.2416,-10.5865 v -9.9492 l -17.6042,0.058 -17.6042,0.058 -0.06,9.17 c -0.066,10.0793 0.025,11.1051 1.0954,12.3241 1.3565,1.5449 0.5996,1.4772 16.5122,1.4774 13.5005,2e-4 14.433,-0.025 15.2834,-0.4178 z m -19.8716,-7.4401 c -3.7666,-3.7337 -4.4819,-4.646 -4.8008,-6.1234 -0.246,-1.1392 0.2604,-2.8247 1.1668,-3.8836 2.0554,-2.4012 5.1908,-2.5731 7.4716,-0.4094 l 0.7212,0.6841 0.9671,-0.8278 c 1.876,-1.6058 4.2132,-1.8246 6.1783,-0.5783 1.4282,0.9057 2.1789,2.1336 2.3312,3.8128 0.1773,1.9549 -0.5229,3.2837 -2.9366,5.5729 -1.028,0.975 -2.7474,2.6215 -3.821,3.659 -2.817,2.722 -2.534,2.7961 -7.2778,-1.9063 z m 8.9096,-1.339 c 2.9597,-3.0073 3.5675,-3.741 3.7685,-4.5485 0.4454,-1.789 -0.243,-3.359 -1.8846,-4.2977 -1.6879,-0.9652 -3.2202,-0.5936 -5.1116,1.2394 l -1.0572,1.0247 -1.2154,-1.1495 c -0.6684,-0.6323 -1.4984,-1.2572 -1.8443,-1.3886 -2.9916,-1.1374 -6.0812,2.0924 -4.8138,5.0324 0.1727,0.4007 1.997,2.393 4.0541,4.4273 3.1853,3.1504 3.8018,3.6653 4.1576,3.4725 0.2298,-0.1244 2.0058,-1.8398 3.9467,-3.812 z m -5.0007,-20.6804 v -5.4341 h -4.8113 c -2.6464,0 -5.1894,0.1062 -5.6513,0.2345 -1.5712,0.4363 -2.1287,1.2445 -4.3674,6.3304 -0.4111,0.934 -1.0112,2.284 -1.3334,3.0001 l -0.586,1.3019 h 8.3747 8.3747 z m 18.1137,5.2166 c 0,-0.1197 -0.8703,-2.1415 -1.934,-4.4931 -2.0341,-4.497 -2.6747,-5.4064 -4.1566,-5.9008 -0.4799,-0.1601 -2.6321,-0.2568 -5.7171,-0.2568 h -4.9474 v 5.4341 5.4341 h 8.3775 c 5.2058,0 8.3776,-0.082 8.3776,-0.2175 z"
       id="path36429" /></g></svg>
