<svg width="80" height="80" viewBox="0 0 80 80" fill="none" xmlns="http://www.w3.org/2000/svg">
<path d="M8.56743 79.702C4.73366 78.5082 1.39888 75.28 0.450234 71.8434C0.0533591 70.4058 -0.0667718 63.3223 0.0336653 47.2666L0.175539 24.7101L3.93112 16.3111C9.13202 4.68082 9.02015 4.8975 10.6706 3.2465C13.963 -0.0470126 13.3988 0.0155487 39.8917 0.00389062C66.2193 -0.0173059 65.7359 -0.0569965 68.9457 3.01777C70.7724 4.76818 71.8742 6.84315 76.5097 17.2706L79.8169 24.7101L79.9525 47.5067C80.0732 67.7835 80.0012 70.5348 79.2939 72.394C78.2802 75.0592 76.1271 77.5116 73.6247 78.8513C71.6663 79.8992 71.5607 79.9026 40.7151 79.9897C23.6955 80.0385 9.22875 79.9087 8.56743 79.702ZM72.1397 76.3559C74.3597 75.3308 75.9378 73.7532 76.6654 71.832C76.9996 70.9496 77.1773 63.1651 77.1773 49.3924V28.3035L39.8754 28.4267L2.57343 28.5499L2.44617 47.9869C2.30632 69.3515 2.49926 71.5261 4.76736 74.11C7.64168 77.3846 6.03776 77.2404 39.7554 77.2408C68.3619 77.2412 70.3378 77.1885 72.1397 76.3559ZM30.0333 60.5848C22.0522 52.6706 20.5365 50.7376 19.8608 47.606C19.3396 45.1913 20.4126 41.6183 22.3332 39.3738C26.6884 34.284 33.3322 33.9201 38.165 38.5064L39.6931 39.9565L41.7424 38.2011C45.7175 34.7974 50.6698 34.334 54.8337 36.9757C57.8599 38.8955 59.4506 41.4986 59.7733 45.0579C60.149 49.2016 58.6653 52.0179 53.5509 56.8702C51.3726 58.9369 47.7294 62.4262 45.4545 64.6254C39.4855 70.3951 40.0851 70.5522 30.0333 60.5848ZM48.9121 57.7468C55.1835 51.3724 56.4713 49.8176 56.8973 48.1059C57.841 44.3139 56.3824 40.9857 52.904 38.996C49.3274 36.9501 46.0807 37.7375 42.0729 41.6228L39.8327 43.7952L37.2574 41.3589C35.8411 40.0186 34.0824 38.6939 33.3494 38.4154C27.0105 36.0045 20.4639 42.8501 23.1494 49.0819C23.5153 49.9313 27.3808 54.1541 31.7397 58.4662C38.4891 65.1439 39.7954 66.2356 40.5493 65.827C41.0362 65.5633 44.7995 61.9272 48.9121 57.7468ZM38.3161 13.912V2.39368H28.1212C22.5137 2.39368 17.1252 2.61852 16.1465 2.89047C12.8172 3.81527 11.636 5.52769 6.89236 16.308C6.02127 18.2878 4.74976 21.1501 4.06705 22.668L2.82536 25.4273H20.5707H38.3161V13.912ZM76.6975 24.9688C76.6975 24.7151 74.8535 20.4294 72.5996 15.4449C68.2895 5.91278 66.9321 3.98603 63.792 2.93808C62.7752 2.59872 58.2148 2.39368 51.6779 2.39368H41.1948V13.912V25.4304H58.9461C69.9768 25.4304 76.6975 25.256 76.6975 24.9688Z" fill="#8EA65F"/>
</svg>
