<svg width="804" height="531" viewBox="0 0 804 531" fill="none" xmlns="http://www.w3.org/2000/svg">
<g filter="url(#filter0_d_303_829)">
<path d="M256.609 418.503C256.608 419.976 257.8 421.171 259.273 421.173C260.746 421.174 261.941 419.982 261.943 418.509C261.944 417.036 260.751 415.841 259.279 415.839C257.806 415.838 256.611 417.031 256.609 418.503ZM657.459 257.818C657.458 259.291 658.651 260.486 660.123 260.487C661.596 260.489 662.791 259.296 662.793 257.824C662.794 256.351 661.602 255.156 660.129 255.154C658.656 255.152 657.461 256.345 657.459 257.818ZM259.462 418.97L260.39 418.598L260.018 417.67L259.09 418.042L259.462 418.97ZM262.246 417.854L264.101 417.11L263.729 416.182L261.873 416.926L262.246 417.854ZM265.957 416.367L267.813 415.623L267.441 414.694L265.585 415.438L265.957 416.367ZM269.669 414.879L271.525 414.135L271.152 413.207L269.297 413.951L269.669 414.879ZM273.38 413.391L275.236 412.647L274.864 411.719L273.008 412.463L273.38 413.391ZM277.092 411.903L278.948 411.159L278.576 410.231L276.72 410.975L277.092 411.903ZM280.803 410.415L282.659 409.671L282.287 408.743L280.431 409.487L280.803 410.415ZM284.515 408.927L286.371 408.184L285.999 407.255L284.143 407.999L284.515 408.927ZM288.227 407.44L290.082 406.696L289.71 405.767L287.855 406.511L288.227 407.44ZM291.938 405.952L293.794 405.208L293.422 404.28L291.566 405.024L291.938 405.952ZM295.65 404.464L297.506 403.72L297.133 402.792L295.278 403.536L295.65 404.464ZM299.361 402.976L301.217 402.232L300.845 401.304L298.989 402.048L299.361 402.976ZM303.073 401.488L304.929 400.744L304.557 399.816L302.701 400.56L303.073 401.488ZM306.784 400L308.64 399.257L308.268 398.328L306.412 399.072L306.784 400ZM310.496 398.513L312.352 397.769L311.98 396.841L310.124 397.584L310.496 398.513ZM314.208 397.025L316.063 396.281L315.691 395.353L313.836 396.097L314.208 397.025ZM317.919 395.537L319.775 394.793L319.403 393.865L317.547 394.609L317.919 395.537ZM321.631 394.049L323.487 393.305L323.114 392.377L321.259 393.121L321.631 394.049ZM325.342 392.561L327.198 391.817L326.826 390.889L324.97 391.633L325.342 392.561ZM329.054 391.073L330.91 390.33L330.538 389.401L328.682 390.145L329.054 391.073ZM332.766 389.586L334.621 388.842L334.249 387.914L332.393 388.657L332.766 389.586ZM336.477 388.098L338.333 387.354L337.961 386.426L336.105 387.17L336.477 388.098ZM340.189 386.61L342.044 385.866L341.672 384.938L339.817 385.682L340.189 386.61ZM343.9 385.122L345.756 384.378L345.384 383.45L343.528 384.194L343.9 385.122ZM347.612 383.634L349.468 382.89L349.095 381.962L347.24 382.706L347.612 383.634ZM351.323 382.147L353.179 381.403L352.807 380.474L350.951 381.218L351.323 382.147ZM355.035 380.659L356.891 379.915L356.519 378.987L354.663 379.731L355.035 380.659ZM358.747 379.171L360.602 378.427L360.23 377.499L358.374 378.243L358.747 379.171ZM362.458 377.683L364.314 376.939L363.942 376.011L362.086 376.755L362.458 377.683ZM366.17 376.195L368.025 375.451L367.653 374.523L365.798 375.267L366.17 376.195ZM369.881 374.707L371.737 373.963L371.365 373.035L369.509 373.779L369.881 374.707ZM373.593 373.22L375.449 372.476L375.076 371.547L373.221 372.291L373.593 373.22ZM377.304 371.732L379.16 370.988L378.788 370.06L376.932 370.804L377.304 371.732ZM381.016 370.244L382.872 369.5L382.5 368.572L380.644 369.316L381.016 370.244ZM384.728 368.756L386.583 368.012L386.211 367.084L384.355 367.828L384.728 368.756ZM388.439 367.268L390.295 366.524L389.923 365.596L388.067 366.34L388.439 367.268ZM392.151 365.78L394.006 365.037L393.634 364.108L391.779 364.852L392.151 365.78ZM395.862 364.293L397.718 363.549L397.346 362.62L395.49 363.364L395.862 364.293ZM399.574 362.805L401.43 362.061L401.058 361.133L399.202 361.877L399.574 362.805ZM403.285 361.317L405.141 360.573L404.769 359.645L402.913 360.389L403.285 361.317ZM406.997 359.829L408.853 359.085L408.481 358.157L406.625 358.901L406.997 359.829ZM410.709 358.341L412.564 357.597L412.192 356.669L410.337 357.413L410.709 358.341ZM414.42 356.853L416.276 356.11L415.904 355.181L414.048 355.925L414.42 356.853ZM418.132 355.366L419.988 354.622L419.615 353.693L417.76 354.437L418.132 355.366ZM421.843 353.878L423.699 353.134L423.327 352.206L421.471 352.95L421.843 353.878ZM425.555 352.39L427.411 351.646L427.039 350.718L425.183 351.462L425.555 352.39ZM429.267 350.902L431.122 350.158L430.75 349.23L428.894 349.974L429.267 350.902ZM432.978 349.414L434.834 348.67L434.462 347.742L432.606 348.486L432.978 349.414ZM436.69 347.926L438.545 347.183L438.173 346.254L436.318 346.998L436.69 347.926ZM440.401 346.439L442.257 345.695L441.885 344.766L440.029 345.51L440.401 346.439ZM444.113 344.951L445.969 344.207L445.597 343.279L443.741 344.023L444.113 344.951ZM447.824 343.463L449.68 342.719L449.308 341.791L447.452 342.535L447.824 343.463ZM451.536 341.975L453.392 341.231L453.02 340.303L451.164 341.047L451.536 341.975ZM455.248 340.487L457.103 339.743L456.731 338.815L454.876 339.559L455.248 340.487ZM458.959 338.999L460.815 338.256L460.443 337.327L458.587 338.071L458.959 338.999ZM462.671 337.512L464.527 336.768L464.154 335.84L462.299 336.583L462.671 337.512ZM466.382 336.024L468.238 335.28L467.866 334.352L466.01 335.096L466.382 336.024ZM470.094 334.536L471.95 333.792L471.578 332.864L469.722 333.608L470.094 334.536ZM473.806 333.048L475.661 332.304L475.289 331.376L473.433 332.12L473.806 333.048ZM477.517 331.56L479.373 330.816L479.001 329.888L477.145 330.632L477.517 331.56ZM481.229 330.072L483.085 329.329L482.712 328.4L480.857 329.144L481.229 330.072ZM484.94 328.585L486.796 327.841L486.424 326.913L484.568 327.656L484.94 328.585ZM488.652 327.097L490.508 326.353L490.136 325.425L488.28 326.169L488.652 327.097ZM492.363 325.609L494.219 324.865L493.847 323.937L491.991 324.681L492.363 325.609ZM496.075 324.121L497.931 323.377L497.559 322.449L495.703 323.193L496.075 324.121ZM499.787 322.633L501.642 321.889L501.27 320.961L499.415 321.705L499.787 322.633ZM503.498 321.146L505.354 320.402L504.982 319.473L503.126 320.217L503.498 321.146ZM507.21 319.658L509.066 318.914L508.693 317.986L506.838 318.729L507.21 319.658ZM510.921 318.17L512.777 317.426L512.405 316.498L510.549 317.242L510.921 318.17ZM514.633 316.682L516.489 315.938L516.117 315.01L514.261 315.754L514.633 316.682ZM518.344 315.194L520.2 314.45L519.828 313.522L517.972 314.266L518.344 315.194ZM522.056 313.706L523.912 312.962L523.54 312.034L521.684 312.778L522.056 313.706ZM525.768 312.219L527.623 311.475L527.251 310.546L525.395 311.29L525.768 312.219ZM529.479 310.731L531.335 309.987L530.963 309.059L529.107 309.803L529.479 310.731ZM533.191 309.243L535.046 308.499L534.674 307.571L532.819 308.315L533.191 309.243ZM536.902 307.755L538.758 307.011L538.386 306.083L536.53 306.827L536.902 307.755ZM540.614 306.267L542.47 305.523L542.097 304.595L540.242 305.339L540.614 306.267ZM544.325 304.779L546.181 304.036L545.809 303.107L543.953 303.851L544.325 304.779ZM548.037 303.292L549.893 302.548L549.521 301.62L547.665 302.363L548.037 303.292ZM551.748 301.804L553.604 301.06L553.232 300.132L551.376 300.876L551.748 301.804ZM555.46 300.316L557.316 299.572L556.944 298.644L555.088 299.388L555.46 300.316ZM559.172 298.828L561.027 298.084L560.655 297.156L558.799 297.9L559.172 298.828ZM562.883 297.34L564.739 296.596L564.367 295.668L562.511 296.412L562.883 297.34ZM566.595 295.853L568.45 295.109L568.078 294.18L566.223 294.924L566.595 295.853ZM570.306 294.365L572.162 293.621L571.79 292.693L569.934 293.437L570.306 294.365ZM574.018 292.877L575.874 292.133L575.501 291.205L573.646 291.949L574.018 292.877ZM577.729 291.389L579.585 290.645L579.213 289.717L577.357 290.461L577.729 291.389ZM581.441 289.901L583.297 289.157L582.925 288.229L581.069 288.973L581.441 289.901ZM585.152 288.413L587.008 287.67L586.636 286.741L584.78 287.485L585.152 288.413ZM588.864 286.926L590.72 286.182L590.348 285.254L588.492 285.997L588.864 286.926ZM592.576 285.438L594.431 284.694L594.059 283.766L592.203 284.51L592.576 285.438ZM596.287 283.95L598.143 283.206L597.771 282.278L595.915 283.022L596.287 283.95ZM599.999 282.462L601.854 281.718L601.482 280.79L599.627 281.534L599.999 282.462ZM603.71 280.974L605.566 280.23L605.194 279.302L603.338 280.046L603.71 280.974ZM607.422 279.487L609.278 278.743L608.905 277.814L607.05 278.558L607.422 279.487ZM611.133 277.999L612.989 277.255L612.617 276.327L610.761 277.071L611.133 277.999ZM614.845 276.511L616.701 275.767L616.329 274.839L614.473 275.583L614.845 276.511ZM618.556 275.023L620.412 274.279L620.04 273.351L618.184 274.095L618.556 275.023ZM622.268 273.535L624.124 272.791L623.752 271.863L621.896 272.607L622.268 273.535ZM625.98 272.047L627.835 271.304L627.463 270.375L625.607 271.119L625.98 272.047ZM629.691 270.56L631.547 269.816L631.175 268.888L629.319 269.631L629.691 270.56ZM633.403 269.072L635.258 268.328L634.886 267.4L633.031 268.144L633.403 269.072ZM637.114 267.584L638.97 266.84L638.598 265.912L636.742 266.656L637.114 267.584ZM640.826 266.096L642.682 265.352L642.309 264.424L640.454 265.168L640.826 266.096ZM644.537 264.608L646.393 263.864L646.021 262.936L644.165 263.68L644.537 264.608ZM648.249 263.121L650.105 262.377L649.733 261.448L647.877 262.192L648.249 263.121ZM651.96 261.633L653.816 260.889L653.444 259.961L651.588 260.704L651.96 261.633ZM655.672 260.145L657.528 259.401L657.156 258.473L655.3 259.217L655.672 260.145ZM659.384 258.657L660.312 258.285L659.94 257.357L659.011 257.729L659.384 258.657Z" fill="#D0C3B4"/>
</g>
<rect width="66.7642" height="29.4452" transform="matrix(0.92061 -0.390482 0.337342 0.941382 425.913 342.851)" fill="#332D2A"/>
<path d="M454.367 347.201C453.671 347.479 452.979 347.551 452.293 347.416C451.609 347.291 451.032 346.995 450.56 346.527L451.026 345.793C451.441 346.154 451.919 346.388 452.459 346.495C453.009 346.598 453.554 346.542 454.092 346.327C454.557 346.142 454.935 345.873 455.228 345.52C455.53 345.163 455.726 344.757 455.817 344.302C455.917 343.843 455.886 343.371 455.725 342.887C455.57 342.422 455.327 342.057 454.997 341.791C454.672 341.512 454.296 341.345 453.867 341.29C453.448 341.232 453.015 341.292 452.57 341.469C452.142 341.64 451.767 341.903 451.443 342.257C451.116 342.603 450.893 343.009 450.775 343.475L449.897 343.825L449.103 337.693L453.881 335.787L454.18 336.684L450.112 338.306L450.637 342.208C450.79 341.846 451.02 341.523 451.325 341.24C451.628 340.948 451.983 340.72 452.392 340.557C452.996 340.316 453.585 340.237 454.159 340.319C454.743 340.398 455.26 340.622 455.709 340.991C456.158 341.36 456.487 341.858 456.695 342.484C456.916 343.148 456.953 343.795 456.804 344.424C456.665 345.049 456.382 345.603 455.953 346.085C455.528 346.577 454.999 346.949 454.367 347.201ZM463.975 336.243C464.253 337.078 464.348 337.884 464.26 338.661C464.177 339.425 463.933 340.097 463.527 340.679C463.12 341.26 462.583 341.684 461.914 341.95C461.245 342.217 460.585 342.271 459.932 342.112C459.289 341.95 458.706 341.607 458.185 341.084C457.66 340.552 457.259 339.868 456.981 339.033C456.703 338.198 456.61 337.397 456.702 336.629C456.79 335.852 457.033 335.175 457.43 334.598C457.833 334.007 458.369 333.578 459.038 333.312C459.706 333.045 460.369 332.996 461.025 333.164C461.677 333.323 462.261 333.67 462.776 334.207C463.298 334.73 463.697 335.408 463.975 336.243ZM463.014 336.627C462.79 335.953 462.485 335.403 462.101 334.976C461.717 334.548 461.287 334.269 460.812 334.136C460.333 333.994 459.843 334.022 459.341 334.223C458.839 334.423 458.447 334.746 458.164 335.192C457.878 335.628 457.709 336.147 457.657 336.748C457.614 337.346 457.704 337.981 457.929 338.655C458.153 339.329 458.457 339.879 458.841 340.306C459.235 340.73 459.669 341.008 460.145 341.14C460.621 341.273 461.109 341.24 461.611 341.04C462.112 340.84 462.506 340.521 462.792 340.085C463.075 339.639 463.24 339.122 463.286 338.534C463.329 337.936 463.238 337.3 463.014 336.627ZM472.507 332.841C472.785 333.676 472.879 334.482 472.791 335.259C472.708 336.022 472.464 336.695 472.058 337.276C471.651 337.857 471.114 338.281 470.445 338.548C469.776 338.815 469.116 338.869 468.463 338.71C467.82 338.547 467.237 338.204 466.716 337.681C466.192 337.149 465.79 336.465 465.512 335.63C465.234 334.796 465.141 333.994 465.233 333.227C465.321 332.45 465.564 331.773 465.961 331.195C466.364 330.605 466.9 330.176 467.569 329.909C468.238 329.643 468.9 329.593 469.556 329.762C470.208 329.921 470.792 330.268 471.307 330.804C471.829 331.327 472.229 332.006 472.507 332.841ZM471.545 333.224C471.321 332.551 471.017 332 470.632 331.573C470.248 331.146 469.818 330.866 469.343 330.733C468.864 330.591 468.374 330.62 467.872 330.82C467.371 331.02 466.978 331.343 466.695 331.789C466.409 332.226 466.24 332.745 466.188 333.346C466.145 333.943 466.235 334.579 466.46 335.253C466.684 335.926 466.988 336.477 467.372 336.904C467.766 337.327 468.201 337.605 468.676 337.738C469.152 337.871 469.64 337.837 470.142 337.637C470.644 337.437 471.037 337.119 471.323 336.682C471.606 336.236 471.771 335.719 471.817 335.131C471.86 334.534 471.769 333.898 471.545 333.224Z" fill="#D0C3B4"/>
<path opacity="0.6" d="M597.59 431.731C597.398 432.304 597.226 432.962 597.072 433.707C596.918 434.451 596.789 435.174 596.686 435.875C596.597 436.589 596.544 437.233 596.526 437.809C596.509 438.398 596.542 438.816 596.625 439.065C596.749 439.124 596.867 439.21 596.981 439.323C597.109 439.436 597.177 439.572 597.187 439.731C597.215 439.957 597.155 440.174 597.007 440.384C596.861 440.607 596.654 440.72 596.387 440.723C595.96 440.723 595.643 440.569 595.437 440.261C595.245 439.966 595.124 439.633 595.074 439.262C595.011 438.892 594.982 438.433 594.988 437.885C595.007 437.336 595.045 436.772 595.103 436.194C595.174 435.629 595.254 435.076 595.34 434.536C595.44 433.996 595.539 433.542 595.636 433.175C595.692 433.011 595.68 432.912 595.597 432.877C595.514 432.829 595.421 432.841 595.319 432.914C595.177 432.99 595.01 433.094 594.817 433.226C594.625 433.358 594.414 433.505 594.184 433.666C593.966 433.814 593.735 433.975 593.492 434.15C593.263 434.325 593.033 434.486 592.801 434.634C592.288 434.974 591.811 435.15 591.372 435.165C590.932 435.179 590.557 435.062 590.247 434.814C589.811 434.454 589.588 433.88 589.579 433.092C589.581 432.478 589.657 431.885 589.809 431.314C589.959 430.731 590.161 430.217 590.414 429.774C590.786 429.096 591.242 428.493 591.784 427.965C592.338 427.423 592.892 426.987 593.446 426.659C593.716 426.495 593.989 426.364 594.263 426.267C594.55 426.156 594.827 426.092 595.093 426.075C595.372 426.058 595.629 426.102 595.862 426.207C596.095 426.3 596.292 426.461 596.454 426.692C596.601 426.91 596.654 427.113 596.612 427.303C596.584 427.492 596.513 427.643 596.4 427.757C596.109 428.016 595.783 428.036 595.422 427.818C595.267 427.694 595.111 427.65 594.953 427.687C594.794 427.71 594.579 427.791 594.307 427.928C594.074 428.049 593.83 428.211 593.575 428.414C593.333 428.603 593.093 428.812 592.853 429.04C592.627 429.268 592.415 429.509 592.217 429.761C592.032 430.013 591.88 430.257 591.761 430.491C591.558 430.878 591.407 431.241 591.308 431.582C591.222 431.908 591.171 432.265 591.155 432.653C591.139 432.828 591.155 432.974 591.202 433.091C591.262 433.194 591.327 433.277 591.398 433.339C591.622 433.499 591.925 433.44 592.309 433.162C592.628 432.929 592.973 432.68 593.344 432.416C593.714 432.139 594.079 431.883 594.438 431.647C594.797 431.397 595.137 431.176 595.459 430.982C595.781 430.788 596.066 430.643 596.314 430.548C596.628 430.448 596.931 430.489 597.223 430.671C597.389 430.768 597.512 430.914 597.591 431.109C597.669 431.291 597.669 431.499 597.59 431.731ZM616.681 426.171C616.703 426.303 616.671 426.432 616.585 426.558C616.5 426.683 616.358 426.766 616.16 426.805C615.882 426.849 615.524 426.884 615.085 426.912C614.645 426.939 614.206 426.96 613.766 426.974C613.326 426.988 612.92 427.007 612.547 427.03C612.187 427.039 611.941 427.061 611.81 427.096C611.743 427.1 611.672 427.138 611.596 427.21C611.52 427.268 611.449 427.319 611.385 427.363C611.283 427.436 611.172 427.47 611.051 427.464C610.93 427.458 610.821 427.418 610.723 427.344C610.528 427.223 610.443 427.028 610.466 426.759C610.494 426.57 610.571 426.405 610.696 426.264C610.834 426.122 610.995 426.025 611.178 425.973C611.388 425.907 611.713 425.866 612.153 425.852C612.592 425.825 613.059 425.809 613.553 425.805C614.046 425.788 614.519 425.771 614.972 425.757C615.426 425.742 615.785 425.713 616.049 425.669C616.234 425.631 616.383 425.668 616.497 425.782C616.611 425.895 616.672 426.024 616.681 426.171ZM616.921 429.042C616.942 429.174 616.91 429.303 616.825 429.428C616.739 429.554 616.597 429.636 616.399 429.675C616.121 429.719 615.763 429.755 615.324 429.782C614.885 429.81 614.445 429.831 614.005 429.845C613.565 429.859 613.159 429.877 612.786 429.901C612.426 429.91 612.18 429.932 612.049 429.967C611.982 429.971 611.911 430.009 611.836 430.08C611.759 430.138 611.689 430.19 611.625 430.234C611.522 430.307 611.411 430.341 611.29 430.335C611.17 430.329 611.06 430.289 610.962 430.215C610.768 430.093 610.682 429.898 610.705 429.63C610.734 429.441 610.81 429.276 610.935 429.134C611.073 428.992 611.234 428.895 611.418 428.844C611.627 428.777 611.952 428.737 612.392 428.723C612.831 428.696 613.298 428.68 613.792 428.676C614.285 428.658 614.758 428.642 615.212 428.627C615.665 428.612 616.024 428.583 616.288 428.54C616.473 428.502 616.622 428.539 616.736 428.652C616.85 428.765 616.912 428.895 616.921 429.042ZM637.798 417.88C637.91 417.966 637.978 418.089 638.001 418.248C638.024 418.407 637.967 418.557 637.829 418.699C637.027 419.551 636.293 420.425 635.628 421.322C634.976 422.217 634.417 423.114 633.952 424.011C633.5 424.908 633.155 425.791 632.915 426.661C632.689 427.53 632.601 428.364 632.65 429.162C632.722 430.307 633.086 431.219 633.743 431.899C634.4 432.58 635.398 433.052 636.737 433.316C636.953 433.356 637.105 433.433 637.192 433.548C637.28 433.676 637.317 433.834 637.302 434.022C637.285 434.17 637.212 434.295 637.085 434.396C636.958 434.511 636.774 434.549 636.531 434.511C634.887 434.28 633.648 433.689 632.813 432.739C631.98 431.802 631.52 430.642 631.434 429.258C631.372 428.26 631.483 427.258 631.767 426.252C632.065 425.244 632.471 424.257 632.985 423.29C633.512 422.309 634.115 421.369 634.793 420.472C635.485 419.574 636.187 418.728 636.899 417.936C637.048 417.753 637.203 417.67 637.365 417.686C637.539 417.689 637.683 417.753 637.798 417.88ZM650.174 430.233C650.305 430.398 650.364 430.589 650.35 430.803C650.337 431.018 650.221 431.199 650.003 431.346C649.567 431.627 649.048 431.766 648.446 431.764C647.845 431.761 647.237 431.538 646.621 431.096C645.934 430.578 645.259 429.925 644.595 429.138C644.29 429.384 643.967 429.658 643.625 429.96C643.295 430.248 642.96 430.549 642.619 430.865C642.277 431.167 641.936 431.475 641.595 431.79C641.267 432.105 640.952 432.411 640.65 432.711C640.66 432.871 640.604 433.041 640.482 433.222C640.36 433.417 640.195 433.548 639.985 433.614C639.749 433.682 639.542 433.675 639.363 433.593C639.184 433.51 639.056 433.385 638.979 433.216C638.888 433.048 638.856 432.863 638.884 432.661C638.911 432.459 639.006 432.266 639.168 432.082C639.432 431.812 639.709 431.534 639.998 431.249C640.287 430.963 640.609 430.663 640.964 430.347C641.33 430.017 641.736 429.657 642.179 429.269C642.622 428.881 643.123 428.442 643.68 427.953C643.489 427.684 643.306 427.429 643.131 427.186C642.968 426.929 642.821 426.717 642.691 426.552C642.425 426.568 642.226 426.487 642.094 426.309C642.021 426.206 641.974 426.089 641.952 425.957C641.944 425.824 641.936 425.697 641.929 425.577C641.932 425.417 641.976 425.267 642.061 425.128C642.158 424.975 642.278 424.861 642.42 424.785C642.562 424.71 642.714 424.68 642.876 424.697C643.05 424.713 643.216 424.796 643.372 424.946C643.472 425.047 643.581 425.187 643.699 425.367C643.83 425.546 643.962 425.731 644.094 425.923C644.226 426.115 644.352 426.308 644.471 426.501C644.602 426.68 644.718 426.826 644.819 426.94C645.123 426.681 645.447 426.407 645.79 426.118C646.132 425.829 646.469 425.548 646.799 425.274C647.128 424.986 647.452 424.705 647.769 424.432C648.085 424.158 648.37 423.906 648.623 423.677C648.8 423.519 648.977 423.461 649.153 423.503C649.343 423.545 649.496 423.636 649.611 423.775C649.754 423.927 649.825 424.103 649.825 424.303C649.836 424.49 649.748 424.675 649.559 424.861C649.014 425.336 648.398 425.855 647.712 426.419C647.038 426.969 646.373 427.544 645.716 428.147C646.338 428.909 646.922 429.487 647.467 429.881C647.762 430.103 648.064 430.231 648.373 430.265C648.696 430.298 648.986 430.234 649.243 430.071C649.436 429.965 649.615 429.934 649.778 429.977C649.953 430.006 650.085 430.092 650.174 430.233ZM657.82 421.961L652.191 422.312L652.124 421.234L654.28 418.855C654.793 418.302 655.173 417.858 655.419 417.522C655.678 417.172 655.846 416.867 655.923 416.608C656.013 416.336 656.049 416.053 656.03 415.76C656.004 415.334 655.858 415.023 655.591 414.826C655.339 414.628 655.013 414.541 654.613 414.566C654.214 414.591 653.853 414.694 653.53 414.874C653.22 415.04 652.9 415.267 652.571 415.555L651.815 414.681C652.18 414.324 652.583 414.032 653.023 413.804C653.476 413.575 653.989 413.443 654.561 413.407C655.413 413.354 656.091 413.525 656.597 413.921C657.115 414.303 657.397 414.86 657.443 415.592C657.483 416.244 657.32 416.842 656.953 417.386C656.6 417.929 656.073 418.576 655.371 419.328L653.85 420.966L657.743 420.723L657.82 421.961ZM673.539 426.31C673.407 426.332 673.278 426.3 673.152 426.214C673.027 426.128 672.944 425.987 672.905 425.789C672.862 425.524 672.828 425.186 672.802 424.773C672.775 424.347 672.755 423.921 672.742 423.494C672.409 423.502 672.109 423.514 671.843 423.531C671.59 423.546 671.411 423.571 671.306 423.604C671.24 423.608 671.168 423.646 671.093 423.718C671.016 423.776 670.946 423.827 670.882 423.871C670.78 423.944 670.668 423.978 670.548 423.972C670.427 423.966 670.318 423.926 670.219 423.852C670.025 423.731 669.939 423.536 669.963 423.267C669.991 423.078 670.067 422.913 670.192 422.772C670.33 422.63 670.491 422.533 670.675 422.481C670.859 422.43 671.13 422.393 671.49 422.37C671.861 422.334 672.261 422.315 672.689 422.315C672.676 422.116 672.665 421.943 672.656 421.796C672.646 421.637 672.632 421.517 672.614 421.438C672.61 421.372 672.572 421.301 672.5 421.225C672.442 421.149 672.391 421.078 672.347 421.014C672.274 420.912 672.24 420.8 672.246 420.68C672.252 420.559 672.292 420.45 672.366 420.352C672.487 420.157 672.682 420.072 672.951 420.095C673.14 420.123 673.305 420.206 673.447 420.344C673.589 420.469 673.685 420.623 673.737 420.807C673.772 420.952 673.805 421.157 673.835 421.422C673.865 421.688 673.883 421.974 673.889 422.281C674.236 422.272 674.549 422.266 674.829 422.262C675.122 422.244 675.361 422.216 675.545 422.177C675.73 422.139 675.879 422.176 675.993 422.29C676.107 422.403 676.169 422.532 676.178 422.679C676.2 422.811 676.168 422.94 676.082 423.066C675.996 423.191 675.854 423.274 675.656 423.313C675.445 423.352 675.186 423.382 674.88 423.401C674.588 423.419 674.268 423.439 673.922 423.461C673.923 423.902 673.93 424.329 673.942 424.742C673.967 425.141 674 425.453 674.041 425.678C674.079 425.862 674.041 426.012 673.928 426.126C673.815 426.24 673.685 426.301 673.539 426.31ZM699.078 422.693C699.124 422.997 699.162 423.396 699.192 423.888C699.223 424.38 699.238 424.934 699.236 425.548C699.233 426.15 699.22 426.799 699.197 427.495C699.186 428.177 699.156 428.873 699.107 429.584C699.058 430.295 699.002 431 698.938 431.699C698.875 432.398 698.796 433.057 698.701 433.678C698.665 433.947 698.556 434.141 698.377 434.259C698.197 434.377 698.013 434.422 697.824 434.394C697.623 434.379 697.45 434.29 697.306 434.125C697.177 433.973 697.136 433.755 697.185 433.472C697.306 432.836 697.402 432.129 697.474 431.349C697.545 430.57 697.596 429.779 697.626 428.975C697.656 428.172 697.668 427.39 697.66 426.629C697.665 425.854 697.655 425.159 697.63 424.547C697.636 424.426 697.618 424.34 697.574 424.29C697.531 424.239 697.469 424.209 697.388 424.201C697.321 424.192 697.249 424.21 697.171 424.255C697.094 424.299 697.024 424.357 696.962 424.428C696.761 424.641 696.51 424.897 696.208 425.196C695.906 425.496 695.585 425.81 695.245 426.138C694.904 426.453 694.556 426.762 694.201 427.065C693.859 427.367 693.541 427.627 693.247 427.846C692.71 428.227 692.184 428.473 691.67 428.586C691.171 428.71 690.683 428.607 690.208 428.276C690.039 428.14 689.867 427.95 689.692 427.707C689.53 427.463 689.429 427.129 689.389 426.704C689.369 426.385 689.394 426.042 689.465 425.677C689.548 425.298 689.659 424.93 689.797 424.574C689.935 424.218 690.081 423.889 690.236 423.585C690.404 423.281 690.556 423.037 690.692 422.855C690.826 422.66 690.993 422.543 691.191 422.504C691.389 422.465 691.563 422.474 691.713 422.531C691.933 422.624 692.076 422.776 692.143 422.985C692.208 423.182 692.149 423.412 691.965 423.678C691.855 423.831 691.74 424.026 691.621 424.26C691.502 424.495 691.39 424.736 691.285 424.983C691.18 425.23 691.096 425.475 691.031 425.72C690.979 425.963 690.959 426.178 690.971 426.365C690.98 426.511 691.014 426.629 691.073 426.719C691.131 426.796 691.189 426.859 691.245 426.909C691.372 427.021 691.528 427.051 691.712 427C691.909 426.947 692.135 426.826 692.39 426.637C692.774 426.359 693.168 426.041 693.573 425.681C693.991 425.308 694.408 424.921 694.823 424.521C695.238 424.108 695.64 423.695 696.029 423.284C696.43 422.871 696.8 422.481 697.138 422.112C697.287 421.929 697.473 421.811 697.697 421.757C697.921 421.703 698.134 421.703 698.338 421.757C698.515 421.813 698.669 421.917 698.798 422.069C698.941 422.22 699.035 422.428 699.078 422.693ZM708.503 418.798L702.874 419.149L702.806 418.072L704.962 415.693C705.476 415.14 705.855 414.695 706.102 414.359C706.36 414.009 706.528 413.705 706.606 413.446C706.696 413.173 706.731 412.89 706.713 412.598C706.687 412.172 706.54 411.86 706.274 411.663C706.021 411.465 705.695 411.379 705.296 411.404C704.897 411.429 704.536 411.531 704.213 411.712C703.903 411.878 703.583 412.105 703.254 412.393L702.498 411.518C702.863 411.161 703.265 410.869 703.705 410.641C704.159 410.413 704.672 410.28 705.244 410.245C706.095 410.191 706.774 410.363 707.28 410.759C707.798 411.141 708.08 411.697 708.125 412.429C708.166 413.081 708.003 413.679 707.636 414.223C707.283 414.766 706.755 415.414 706.054 416.166L704.533 417.804L708.426 417.561L708.503 418.798ZM719.336 418.162C719.399 419.16 719.281 420.163 718.983 421.17C718.685 422.177 718.273 423.172 717.746 424.153C717.232 425.12 716.636 426.053 715.957 426.95C715.279 427.861 714.584 428.705 713.871 429.485C713.722 429.668 713.56 429.751 713.386 429.735C713.225 429.732 713.087 429.667 712.973 429.541C712.86 429.454 712.793 429.332 712.769 429.173C712.746 429.014 712.803 428.863 712.942 428.721C713.743 427.87 714.47 426.996 715.123 426.1C715.788 425.204 716.347 424.307 716.798 423.411C717.263 422.513 717.609 421.63 717.835 420.761C718.075 419.891 718.17 419.057 718.12 418.258C718.049 417.114 717.684 416.201 717.027 415.521C716.37 414.841 715.372 414.369 714.033 414.105C713.817 414.065 713.665 413.987 713.578 413.873C713.49 413.745 713.453 413.587 713.468 413.399C713.486 413.25 713.558 413.126 713.685 413.024C713.812 412.91 713.997 412.871 714.239 412.91C715.061 413.019 715.782 413.227 716.403 413.536C717.023 413.845 717.541 414.227 717.957 414.681C718.373 415.136 718.692 415.658 718.916 416.245C719.153 416.831 719.293 417.47 719.336 418.162ZM752.889 423.283C752.829 423.393 752.736 423.506 752.61 423.621C752.496 423.721 752.366 423.783 752.22 423.805C752.167 423.809 752.127 423.805 752.099 423.793C752.072 423.781 752.005 423.772 751.897 423.765C751.726 423.803 751.431 423.888 751.011 424.021C750.605 424.14 750.193 424.286 749.776 424.459C749.256 424.678 748.722 424.792 748.174 424.799C747.64 424.806 747.159 424.589 746.731 424.148C746.403 423.821 746.131 423.411 745.913 422.916C745.694 422.409 745.494 421.874 745.312 421.311C745.213 421.01 745.063 420.865 744.864 420.878C744.638 420.892 744.296 421.094 743.839 421.483C743.737 421.556 743.598 421.685 743.423 421.87C743.246 422.041 743.053 422.253 742.841 422.507C742.629 422.747 742.412 423.008 742.189 423.289C741.978 423.556 741.781 423.822 741.597 424.088C741.512 424.226 741.399 424.334 741.257 424.409C741.114 424.485 740.97 424.527 740.824 424.537C740.677 424.546 740.529 424.522 740.378 424.464C740.227 424.393 740.107 424.287 740.018 424.146C739.822 423.784 739.636 423.375 739.46 422.918C739.298 422.461 739.134 422.077 738.968 421.767C738.864 421.6 738.713 421.542 738.516 421.595C738.277 421.623 738.042 421.818 737.811 422.18C737.617 422.499 737.39 422.82 737.13 423.144C736.882 423.453 736.635 423.769 736.388 424.092C736.19 424.345 735.988 424.651 735.784 425.011C735.578 425.358 735.403 425.663 735.26 425.926C735.14 426.147 734.975 426.284 734.764 426.337C734.555 426.404 734.361 426.403 734.183 426.334C734.032 426.276 733.906 426.177 733.804 426.037C733.701 425.896 733.637 425.72 733.61 425.508C733.557 425.084 733.508 424.619 733.463 424.114C733.418 423.596 733.379 423.091 733.349 422.598C733.33 422.092 733.314 421.619 733.3 421.179C733.286 420.739 733.277 420.378 733.273 420.098C733.283 419.83 733.357 419.632 733.496 419.503C733.648 419.373 733.818 419.303 734.004 419.291C734.203 419.265 734.386 419.314 734.554 419.437C734.722 419.56 734.807 419.749 734.81 420.002C734.817 420.55 734.828 421.143 734.841 421.784C734.866 422.41 734.91 423.009 734.973 423.579C735.046 423.468 735.131 423.335 735.229 423.182C735.325 423.016 735.442 422.855 735.579 422.7C735.766 422.474 735.951 422.236 736.136 421.984C736.32 421.718 736.498 421.467 736.67 421.229C736.879 420.935 737.148 420.645 737.477 420.357C737.806 420.069 738.142 419.881 738.484 419.793C738.787 419.721 739.075 419.743 739.35 419.859C739.637 419.962 739.894 420.226 740.121 420.653C740.244 420.912 740.368 421.185 740.492 421.471C740.617 421.757 740.718 421.992 740.797 422.174C740.831 422.292 740.888 422.355 740.969 422.363C741.049 422.358 741.126 422.307 741.2 422.209C741.311 422.068 741.435 421.913 741.571 421.745C741.721 421.575 741.871 421.405 742.021 421.236C742.184 421.065 742.34 420.902 742.491 420.745C742.641 420.589 742.773 420.454 742.886 420.34C743.756 419.498 744.51 419.056 745.148 419.017C745.507 418.981 745.814 419.089 746.07 419.34C746.326 419.578 746.522 419.946 746.66 420.445C746.785 420.945 746.95 421.442 747.154 421.937C747.371 422.418 747.595 422.785 747.824 423.038C748.024 423.239 748.237 423.333 748.463 423.318C748.688 423.291 748.905 423.237 749.114 423.158C749.349 423.063 749.59 422.968 749.838 422.872C750.099 422.776 750.354 422.686 750.602 422.604C750.864 422.521 751.107 422.445 751.33 422.378C751.566 422.31 751.77 422.264 751.942 422.24C752.274 422.206 752.545 422.269 752.756 422.429C753.036 422.639 753.08 422.923 752.889 423.283ZM760.021 422.076C760.254 421.754 760.308 421.43 760.18 421.104C760.067 420.778 759.85 420.517 759.531 420.323C759.331 420.336 759.092 420.357 758.813 420.388C758.547 420.405 758.294 420.414 758.053 420.416C757.681 420.439 757.378 420.398 757.144 420.292C756.923 420.172 756.839 420.01 756.893 419.807C756.824 419.771 756.751 419.769 756.672 419.8C756.608 419.831 756.523 419.87 756.419 419.916C756.151 420.12 755.877 420.438 755.597 420.869C755.317 421.301 755.153 421.779 755.105 422.303C755.025 422.949 755.094 423.412 755.312 423.693C755.545 423.999 755.908 424.136 756.4 424.106C756.787 424.095 757.132 424.053 757.434 423.981C757.749 423.895 758.024 423.791 758.256 423.669C758.593 423.501 758.913 423.274 759.216 422.988C759.519 422.702 759.787 422.398 760.021 422.076ZM762.524 419.475C762.53 419.582 762.51 419.69 762.464 419.8C762.417 419.909 762.342 419.994 762.239 420.054C762.017 420.135 761.72 420.187 761.347 420.21C761.434 420.312 761.516 420.453 761.594 420.635C761.685 420.817 761.739 421.027 761.754 421.267C761.782 421.505 761.758 421.767 761.682 422.053C761.62 422.337 761.478 422.627 761.256 422.921C760.578 423.832 759.818 424.507 758.977 424.947C758.616 425.143 758.23 425.287 757.822 425.38C757.414 425.472 756.977 425.539 756.512 425.582C755.303 425.684 754.448 425.363 753.947 424.619C753.549 424.016 753.43 423.176 753.589 422.097C753.644 421.693 753.74 421.306 753.878 420.937C754.028 420.553 754.213 420.201 754.433 419.88C754.653 419.559 754.903 419.27 755.18 419.012C755.458 418.754 755.752 418.535 756.061 418.356C756.345 418.191 756.647 418.105 756.967 418.099C757.286 418.079 757.587 418.187 757.869 418.423C757.986 418.376 758.118 418.348 758.264 418.338C758.41 418.316 758.537 418.315 758.645 418.335C758.873 418.347 759.117 418.405 759.377 418.509C759.637 418.6 759.851 418.714 760.02 418.85L761.677 418.747C761.916 418.732 762.114 418.8 762.27 418.95C762.44 419.1 762.524 419.275 762.524 419.475ZM774.742 419.975C774.792 420.346 774.73 420.637 774.556 420.849C774.395 421.046 774.201 421.151 773.975 421.165C773.815 421.175 773.653 421.146 773.488 421.076C773.337 421.005 773.209 420.879 773.104 420.699C772.944 420.482 772.756 420.26 772.541 420.033C772.339 419.791 772.112 419.578 771.86 419.394C771.622 419.208 771.365 419.064 771.092 418.961C770.818 418.858 770.548 418.814 770.282 418.831C770.043 418.846 769.78 418.916 769.494 419.04C769.207 419.152 768.922 419.297 768.639 419.474C768.356 419.652 768.082 419.857 767.816 420.087C767.549 420.317 767.317 420.546 767.117 420.772C766.98 420.927 766.883 421.087 766.826 421.251C766.77 421.415 766.745 421.556 766.753 421.676C766.779 421.888 766.898 422.075 767.108 422.235C767.318 422.396 767.62 422.517 768.013 422.6C768.23 422.653 768.513 422.695 768.862 422.727C769.211 422.745 769.598 422.741 770.024 422.715C770.449 422.675 770.892 422.614 771.355 422.531C771.816 422.436 772.275 422.294 772.731 422.105C772.94 422.025 773.127 422.027 773.292 422.11C773.471 422.192 773.606 422.317 773.696 422.485C773.775 422.668 773.786 422.854 773.731 423.044C773.676 423.235 773.499 423.393 773.2 423.518C772.666 423.739 772.135 423.899 771.607 423.998C771.078 424.098 770.568 424.163 770.076 424.194C769.597 424.224 769.156 424.225 768.753 424.197C768.352 424.182 768.009 424.149 767.725 424.1C766.901 423.951 766.263 423.677 765.81 423.278C765.371 422.878 765.128 422.406 765.081 421.861C765.018 421.277 765.253 420.661 765.787 420.013C766.023 419.718 766.311 419.419 766.653 419.117C767.008 418.815 767.385 418.537 767.783 418.285C768.181 418.02 768.588 417.801 769.005 417.628C769.434 417.441 769.842 417.335 770.227 417.311C770.547 417.291 770.835 417.314 771.093 417.378C771.35 417.428 771.589 417.507 771.809 417.613C772.043 417.719 772.251 417.84 772.433 417.975C772.629 418.11 772.81 418.239 772.978 418.362C772.883 417.687 772.779 416.985 772.667 416.257C772.554 415.516 772.435 414.789 772.31 414.075C772.199 413.361 772.083 412.68 771.962 412.033C771.841 411.373 771.724 410.786 771.612 410.272C771.542 410.009 771.569 409.793 771.692 409.625C771.827 409.443 771.987 409.333 772.172 409.295C772.356 409.243 772.538 409.272 772.718 409.381C772.911 409.476 773.037 409.668 773.095 409.959C773.212 410.539 773.35 411.252 773.509 412.097C773.669 412.942 773.824 413.827 773.975 414.753C774.14 415.678 774.285 416.604 774.409 417.531C774.546 418.445 774.657 419.259 774.742 419.975ZM798.52 412.32C798.667 412.751 798.761 413.293 798.801 413.945C798.855 414.583 798.87 415.25 798.846 415.946C798.835 416.628 798.791 417.306 798.712 417.979C798.633 418.638 798.529 419.206 798.398 419.682C798.226 420.347 797.933 420.9 797.519 421.34C797.105 421.766 796.619 422.004 796.061 422.052C795.714 422.06 795.349 421.983 794.964 421.82C794.581 421.67 794.183 421.394 793.771 420.992C793.133 420.404 792.494 419.703 791.856 418.888C791.23 418.058 790.632 417.16 790.065 416.194C790.044 416.716 790.024 417.252 790.004 417.801C789.999 418.349 789.991 418.877 789.983 419.385C789.974 419.88 789.976 420.347 789.99 420.787C790.005 421.227 790.034 421.6 790.08 421.904C790.116 422.049 790.15 422.173 790.184 422.278C790.217 422.383 790.288 422.452 790.397 422.485C790.587 422.54 790.714 422.639 790.776 422.782C790.853 422.938 790.862 423.091 790.805 423.241C790.747 423.392 790.655 423.518 790.528 423.619C790.415 423.733 790.258 423.783 790.056 423.769C789.641 423.755 789.319 423.621 789.089 423.368C788.873 423.115 788.74 422.802 788.69 422.432C788.606 421.942 788.548 421.332 788.516 420.599C788.496 419.852 788.488 419.078 788.491 418.276C788.507 417.46 788.531 416.664 788.562 415.887C788.607 415.109 788.652 414.438 788.697 413.874C788.622 413.732 788.532 413.578 788.428 413.41C788.337 413.229 788.265 413.046 788.213 412.863C788.175 412.678 788.192 412.517 788.263 412.379C788.334 412.227 788.434 412.114 788.563 412.039C788.705 411.964 788.85 411.928 788.997 411.932C789.158 411.935 789.295 412 789.41 412.127C789.482 412.216 789.548 412.312 789.608 412.415C789.667 412.505 789.726 412.595 789.785 412.684C790 412.698 790.153 412.795 790.244 412.976C790.336 413.158 790.349 413.364 790.283 413.595C790.525 414.048 790.811 414.558 791.14 415.125C791.468 415.679 791.824 416.244 792.208 416.822C792.604 417.398 793.02 417.953 793.454 418.487C793.901 419.02 794.351 419.48 794.802 419.866C795.043 420.078 795.259 420.225 795.451 420.306C795.656 420.374 795.831 420.396 795.976 420.374C796.255 420.343 796.467 420.203 796.611 419.953C796.755 419.691 796.867 419.443 796.946 419.211C797.024 418.966 797.101 418.594 797.177 418.095C797.252 417.596 797.313 417.064 797.358 416.5C797.402 415.923 797.42 415.354 797.412 414.794C797.402 414.22 797.359 413.735 797.281 413.339C797.059 413.206 796.953 413.005 796.963 412.738C796.963 412.524 797.018 412.347 797.13 412.206C797.241 412.066 797.375 411.957 797.53 411.881C797.713 411.802 797.899 411.797 798.091 411.866C798.295 411.933 798.438 412.084 798.52 412.32Z" fill="#D0C3B4"/>
<path d="M383.849 516.781C381.446 509.209 377.925 498.146 376.025 492.198C373.149 483.195 372.435 479.704 371.767 471.371C371.325 465.865 371.17 461.154 371.423 460.901C371.945 460.379 450.379 446.679 450.746 447.046C450.878 447.177 455.036 458.078 459.987 471.271L468.989 495.257L469.419 505.491L469.849 515.725L467.989 516.152C465.823 516.649 389.182 530.549 388.605 530.549C388.392 530.549 386.252 524.354 383.849 516.781ZM430.684 521.544L468.186 514.738L467.933 504.997L467.68 495.257L458.844 471.987C453.984 459.189 449.937 448.628 449.85 448.518C449.763 448.408 432.613 451.286 411.737 454.912C390.862 458.538 373.491 461.508 373.135 461.511C372.779 461.511 372.714 465.442 372.991 470.242C373.466 478.474 373.939 480.387 381.353 504.05C389.176 529.02 389.22 529.131 391.197 528.741C392.289 528.526 410.059 525.287 430.684 521.544ZM141.838 319.369C75.8066 252.503 61.9512 238.111 61.7566 236.187C61.6271 234.907 61.1017 231.012 60.589 227.532L59.6568 221.204L46.6754 208.245L33.6939 195.286L34.7409 201.387C35.3167 204.742 35.9937 208.334 36.2452 209.368C36.4968 210.402 41.4888 216.161 47.3385 222.166C58.4047 233.526 61.187 236.575 60.4875 236.575C60.2595 236.575 48.4922 224.735 34.3378 210.264L8.60265 183.954L4.0679 158.101C1.57376 143.882 -0.24474 132.022 0.0267989 131.746C0.298338 131.47 14.2547 127.175 31.0409 122.202L61.5614 113.159L64.7975 115.881C66.5773 117.378 72.5733 122.78 78.1218 127.886C83.6703 132.992 88.3068 136.906 88.4252 136.584C88.5435 136.263 87.048 125.208 85.1018 112.018C83.1556 98.8277 81.4874 87.2173 81.3946 86.2168C81.2405 84.555 81.8635 84.211 88.598 82.2386C92.6526 81.051 106.234 77.0701 118.779 73.3923C131.323 69.7145 142.126 66.7053 142.785 66.7053C143.444 66.7053 144.725 67.4018 145.631 68.2531L147.279 69.8008L161.977 65.4598C170.061 63.0722 176.88 60.9941 177.131 60.8419C177.381 60.6896 177.13 56.816 176.574 52.2339C176.017 47.6518 175.637 43.8375 175.73 43.7576C175.885 43.6251 218.003 31.2867 228.45 28.3138L232.887 27.0509L241.45 33.3698L250.013 39.6885L262.621 36.035C269.555 34.0256 278.456 31.4136 282.401 30.2306L289.573 28.0794L301.026 36.2443C307.324 40.7349 314.187 45.6532 316.277 47.174L320.076 49.939L319.564 43.7785C318.399 29.7733 317.577 15.9734 317.889 15.6613C318.42 15.1316 370.551 -0.000874084 371.843 3.78686e-08C372.483 0.000437099 377.721 3.1412 383.483 6.97953C389.245 10.8179 394.464 13.9588 395.082 13.9594C395.699 13.9594 403.207 18.5652 411.766 24.1932C420.325 29.8212 427.435 34.4954 427.566 34.5803C427.698 34.6651 428.011 37.914 428.263 41.7999C428.515 45.6858 429.032 48.8651 429.413 48.8651C429.793 48.8651 436.775 46.7872 444.927 44.2476C461.772 39.0001 459.427 38.8604 469.62 45.7201C472.821 47.8743 476.161 49.6377 477.041 49.6389C477.921 49.6389 481.741 48.5936 485.529 47.3138C489.317 46.0339 492.934 44.9869 493.568 44.9869C494.639 44.9869 512.332 55.8937 525.274 64.5316L530.875 68.2696L531.094 76.9578L531.313 85.6459L549.938 97.733L568.562 109.82L568.95 136.076L569.338 162.333L571.432 163.895L573.526 165.457L590.305 159.472C599.533 156.18 607.519 153.594 608.051 153.727C608.583 153.859 618.037 159.892 629.061 167.134L649.103 180.301L648.696 207.311C648.472 222.166 648.122 234.487 647.918 234.691C647.667 234.943 261.372 384.967 222.46 399.926C222.033 400.09 185.753 363.839 141.838 319.369ZM254.845 385.83C272.031 379.186 286.392 373.46 286.757 373.106C287.401 372.481 286.296 357.134 285.554 356.392C285.16 355.998 222.112 379.902 221.055 380.845C220.255 381.559 222.061 397.912 222.94 397.912C223.301 397.912 237.658 392.475 254.845 385.83ZM219.788 388.052L218.857 380.459L202.817 364.364C193.995 355.512 186.567 348.269 186.31 348.269C186.054 348.269 186.329 351.847 186.922 356.22L188.001 364.17L204.031 380.236C212.847 389.073 220.209 396.154 220.39 395.973C220.571 395.792 220.3 392.228 219.788 388.052ZM252.74 366.935C270.531 360.137 285.224 354.439 285.389 354.274C285.554 354.109 285.294 350.095 284.812 345.354L283.934 336.735L281.133 337.833C279.593 338.436 264.937 343.979 248.565 350.149C232.192 356.32 218.645 361.52 218.461 361.704C218.124 362.041 219.824 379.296 220.194 379.296C220.302 379.296 234.948 373.733 252.74 366.935ZM217.794 371.345C217.486 367.826 216.838 363.899 216.355 362.619C215.86 361.309 208.4 353.343 199.286 344.391C185.745 331.093 183.169 328.871 183.546 330.817C183.794 332.097 184.364 335.936 184.813 339.349L185.63 345.555L201.71 361.65C210.554 370.502 217.917 377.744 218.072 377.744C218.227 377.744 218.102 374.865 217.794 371.345ZM321.984 359.777L352.442 347.992L352.352 344.059C352.302 341.895 352.04 337.997 351.77 335.395L351.278 330.666L320.626 342.402C303.767 348.857 289.621 354.357 289.191 354.624C288.11 355.296 289.536 371.535 290.678 371.551C291.144 371.557 305.232 366.259 321.984 359.777ZM184.842 353.074L183.901 345.394L168.088 329.602C150.325 311.863 151.944 312.377 154.079 325.156L154.947 330.354L169.982 345.938C178.251 354.509 185.189 361.349 185.4 361.138C185.611 360.927 185.36 357.299 184.842 353.074ZM251.066 347.69L283.551 335.471L283.02 327.327C282.728 322.847 282.186 318.872 281.816 318.492C281.426 318.093 267.485 322.875 248.698 329.853L216.252 341.903L216.414 348.383C216.592 355.492 215.565 354.039 214.689 345.942L214.228 341.676L197.465 325.397C182.031 310.408 180.74 309.332 181.189 311.823C181.457 313.311 181.905 316.972 182.183 319.958L182.691 325.387L199.837 342.646C209.267 352.138 217.342 359.905 217.781 359.906C218.221 359.906 233.199 354.41 251.066 347.69ZM319.196 341.106C336.201 334.607 350.093 329.11 350.066 328.89C350.013 328.445 319.05 301.161 316.757 299.539C315.491 298.643 313.09 299.326 297.983 304.879C288.456 308.38 280.512 311.377 280.33 311.538C280.147 311.698 280.899 312.786 281.999 313.955C283.909 315.982 284.081 316.927 285.754 334.501C286.719 344.633 287.681 352.923 287.893 352.923C288.105 352.923 302.191 347.606 319.196 341.106ZM385.423 335.213L414.911 323.749L415.165 319.914C415.305 317.805 415.196 313.954 414.923 311.356L414.426 306.632L384.544 318.068C368.109 324.358 354.498 329.668 354.297 329.868C353.772 330.393 354.907 346.722 355.467 346.697C355.724 346.686 369.204 341.518 385.423 335.213ZM181.577 325.581C180.406 316.516 179.437 308.575 179.424 307.935C179.408 307.11 185.046 304.767 198.819 299.875C209.498 296.081 218.411 292.696 218.624 292.351C218.837 292.006 218.37 291.381 217.587 290.962C216.487 290.374 209.279 292.66 185.943 300.999C169.322 306.939 155.218 311.992 154.601 312.228C153.835 312.521 158.144 317.326 168.173 327.361C176.256 335.448 183.057 342.064 183.288 342.064C183.518 342.064 182.749 334.647 181.577 325.581ZM252.725 326.537C268.09 320.859 280.836 316.065 281.049 315.883C281.263 315.702 279.702 314.101 277.582 312.326C275.462 310.551 267.693 303.577 260.318 296.828L246.908 284.557L214.896 296.002C197.289 302.297 182.714 307.582 182.507 307.745C182.299 307.908 189.633 315.306 198.803 324.185L215.476 340.328L220.132 338.594C222.693 337.641 237.36 332.215 252.725 326.537ZM151.589 320.037L150.464 311.972L135.827 297.357C119.822 281.375 120.549 281.647 122.05 292.196L122.91 298.239L137.757 313.171C145.923 321.383 152.629 328.102 152.659 328.102C152.689 328.102 152.207 324.473 151.589 320.037ZM385.423 316.262C401.215 310.243 414.262 305.228 414.417 305.117C414.572 305.006 414.398 301.11 414.029 296.458L413.359 288.001L383.095 299.43L352.83 310.86L353.051 317.736C353.343 326.838 353.704 328.383 355.385 327.724C356.114 327.438 369.631 322.28 385.423 316.262ZM351.632 318.824C351.103 312.737 350.588 310.406 349.552 309.419C344.657 304.754 316.497 280.777 316.229 281.045C316.048 281.226 316.142 284.584 316.438 288.506C316.797 293.251 317.393 296.138 318.219 297.13C319.565 298.746 351.963 327.281 352.195 327.054C352.272 326.978 352.019 323.275 351.632 318.824ZM447.973 310.953C463.507 304.935 476.264 299.961 476.323 299.9C476.382 299.84 476.207 296.083 475.935 291.552L475.44 283.313L447.116 294.123C431.537 300.068 418.499 305.22 418.141 305.571C417.37 306.329 418.348 321.897 419.167 321.897C419.477 321.897 432.44 316.972 447.973 310.953ZM184.361 299.352C200.965 293.418 214.695 288.419 214.872 288.242C215.191 287.924 213.546 272.083 213.148 271.635C212.866 271.317 150.399 293.273 149.863 293.878C149.627 294.144 149.934 298.133 150.546 302.744C151.496 309.908 151.84 311.055 152.914 310.633C153.605 310.361 167.756 305.285 184.361 299.352ZM296.957 303.087C306.347 299.645 314.097 296.787 314.18 296.737C314.466 296.564 312.807 280.47 312.468 280.131C312.28 279.944 301.236 283.747 287.925 288.583L263.723 297.376L270.64 303.799C275.07 307.913 277.976 310.064 278.721 309.784C279.361 309.544 287.568 306.53 296.957 303.087ZM149.054 301.391L148.078 293.939L133.293 279.266C125.162 271.196 118.428 264.674 118.331 264.771C118.233 264.869 118.671 268.426 119.306 272.674L120.459 280.399L134.951 294.914C142.921 302.898 149.575 309.298 149.736 309.136C149.897 308.975 149.59 305.49 149.054 301.391ZM383.095 297.967L413.359 286.528L413.098 278.422C412.954 273.964 412.604 270.082 412.322 269.796C412.039 269.51 398.097 274.364 381.341 280.583L350.874 291.889L351.392 298.094C351.777 302.703 351.679 304.156 351.012 303.744C350.518 303.439 350.079 301.203 350.037 298.775C349.994 296.348 349.733 293.599 349.455 292.668C349.177 291.737 341.132 284.27 331.575 276.076L314.2 261.177L314.74 268.461C315.037 272.467 315.454 276.344 315.668 277.075C316.043 278.358 351.361 309.528 352.346 309.446C352.612 309.424 366.449 304.258 383.095 297.967ZM460.308 287.578L475.44 281.786L475.158 273.724C475.003 269.29 474.749 265.524 474.593 265.355C474.436 265.186 461.387 269.898 445.594 275.826L416.88 286.605L416.866 291.732C416.858 294.552 417.066 298.426 417.329 300.341L417.806 303.823L431.491 298.596C439.018 295.721 451.985 290.763 460.308 287.578ZM508.225 287.549L534.802 277.297V268.969V260.642L530.728 262.175C528.488 263.018 515.829 267.852 502.598 272.917L478.542 282.126L478.286 285.529C478.145 287.4 478.263 291.139 478.548 293.836C478.983 297.966 479.269 298.667 480.355 298.272C481.065 298.013 493.605 293.188 508.223 287.549H508.225ZM119.887 288.156L118.761 280.399L105.038 266.613C89.8619 251.367 90.0491 251.434 91.889 261.925L92.866 267.496L106.737 281.931C114.366 289.87 120.699 296.264 120.81 296.139C120.921 296.015 120.506 292.422 119.887 288.156ZM288.231 287.019L312.688 278.126L312.3 273.445C312.087 270.871 311.69 266.984 311.419 264.808L310.926 260.851L279.94 271.993C262.897 278.121 248.845 283.243 248.713 283.376C248.289 283.799 262.546 296.391 263.173 296.147C263.504 296.018 274.78 291.911 288.231 287.019ZM180.943 281.183C197.802 275.288 211.909 270.188 212.292 269.85C212.919 269.296 211.629 253.801 210.895 253.068C210.737 252.91 196.226 257.759 178.648 263.843L146.687 274.905L147.1 277.265C147.327 278.562 147.722 281.893 147.977 284.666C148.623 291.676 147.248 289.003 146.182 281.175L145.337 274.97L130.766 260.467C122.752 252.49 116.046 246.113 115.864 246.294C115.682 246.476 115.963 249.861 116.487 253.816L117.441 261.008L133.09 276.723C141.697 285.366 149.088 292.317 149.515 292.169C149.942 292.021 164.085 287.077 180.943 281.183ZM227.54 289.588L233.097 287.529L225.451 280.318C221.245 276.352 217.542 273.09 217.222 273.069C216.467 273.019 216.518 275.209 217.436 282.285C217.973 286.419 218.663 288.557 219.876 289.847C220.806 290.837 221.66 291.646 221.775 291.646C221.89 291.646 224.484 290.72 227.54 289.588ZM382.207 278.758L412.766 267.421L412.445 260.336C411.891 248.121 413.483 250.273 393.165 234.252C383.159 226.362 374.705 219.826 374.378 219.726C374.05 219.627 360.164 224.383 343.518 230.296L313.254 241.045L313.503 248.463C313.641 252.543 314.001 256.807 314.304 257.939C314.676 259.332 320.488 264.847 332.29 275.007C341.88 283.262 350.159 290.035 350.687 290.056C351.215 290.077 365.399 284.993 382.207 278.758ZM240.41 284.988C243.342 283.885 245.834 282.889 245.949 282.775C246.064 282.661 240.477 277.395 233.533 271.073C226.589 264.751 219.381 258.154 217.515 256.415L214.122 253.251L214.566 257.13C214.809 259.263 215.239 262.991 215.519 265.414L216.029 269.82L225.324 278.406C230.436 283.129 234.722 286.992 234.849 286.992C234.976 286.992 237.478 286.09 240.41 284.988ZM446.192 274.14L475.145 263.335L474.618 255.19C474.329 250.711 473.969 246.911 473.818 246.745C473.668 246.579 460.522 251.272 444.604 257.172L415.664 267.901L415.627 276.699C415.602 282.583 415.863 285.405 416.414 285.221C416.868 285.069 430.268 280.083 446.192 274.14ZM278.063 271.155C294.003 265.43 307.93 260.406 309.012 259.991L310.978 259.235L310.291 250.813C309.913 246.182 309.51 242.292 309.396 242.171C309.282 242.049 294.988 246.935 277.631 253.03L246.072 264.111L246.521 267.989C246.767 270.122 247.16 273.176 247.393 274.776C247.639 276.463 247.494 277.685 247.049 277.685C246.627 277.685 246.054 275.503 245.776 272.837C245.498 270.17 245.088 267.035 244.865 265.869C244.571 264.333 240.055 259.769 228.451 249.28C219.647 241.321 212.343 235.119 212.221 235.498C212.098 235.877 212.432 239.564 212.961 243.692L213.924 251.198L230.58 266.381C239.741 274.731 247.651 281.563 248.158 281.563C248.665 281.563 262.122 276.879 278.063 271.155ZM509.197 268.851L534.417 259.219L534.216 251.25C534.105 246.867 533.896 243.164 533.752 243.02C533.608 242.876 521.826 247.162 507.569 252.545C493.313 257.927 480.688 262.678 479.514 263.103C477.127 263.966 476.932 265.449 477.882 275.502L478.372 280.689L481.174 279.586C482.715 278.979 495.326 274.149 509.197 268.851ZM117.247 269.666L116.282 262.291L102.052 248.084C94.2255 240.269 87.828 234.396 87.8355 235.031C87.843 235.667 88.3629 239.321 88.9908 243.151L90.1326 250.116L103.879 263.872C111.44 271.438 117.758 277.496 117.919 277.335C118.08 277.173 117.778 273.723 117.247 269.666ZM564.05 265.956C578.482 260.359 590.565 255.529 590.901 255.224C591.237 254.918 591.411 251.143 591.289 246.836L591.066 239.003L564.294 249.247L537.521 259.491L537.301 267.812C537.18 272.389 537.245 276.133 537.446 276.133C537.647 276.133 549.619 271.554 564.05 265.956ZM192.584 257.525L210.044 251.474L209.881 245.382C209.792 242.031 209.443 238.042 209.105 236.518L208.492 233.746L176.413 244.662L144.334 255.578L144.805 259.844C145.064 262.191 145.496 265.821 145.765 267.912C146.075 270.322 145.975 271.541 145.492 271.243C145.073 270.984 144.293 267.338 143.758 263.141L142.785 255.509L128.073 241.293C119.982 233.474 113.217 227.221 113.041 227.398C112.865 227.574 113.236 231.194 113.865 235.443L115.011 243.168L130.698 258.357L146.386 273.546L160.755 268.561C168.658 265.819 182.981 260.853 192.584 257.525ZM449.241 253.962L474.259 244.719L474.177 240.841C474.132 238.708 473.874 234.828 473.604 232.218L473.112 227.474L443.587 238.285L414.062 249.095L414.184 257.766C414.251 262.536 414.355 266.522 414.415 266.625C414.475 266.728 416.706 266 419.373 265.009C422.041 264.016 435.482 259.046 449.241 253.962ZM89.6294 257.517L88.4844 250.149L75.1914 236.797C67.8803 229.453 61.8041 223.539 61.6887 223.654C61.5734 223.77 62.0276 227.16 62.6981 231.189L63.9172 238.514L77.1911 251.866C84.4918 259.209 90.5346 265.143 90.6196 265.052C90.7046 264.961 90.259 261.57 89.6294 257.517ZM277.169 251.754L308.598 240.598L308.376 232.198C308.254 227.578 307.904 223.58 307.6 223.313C306.84 222.649 244.164 244.671 244.285 245.559C245.073 251.356 245.256 256.742 244.664 256.742C244.262 256.742 243.692 254.173 243.398 251.033C243.103 247.893 242.637 244.978 242.362 244.555C241.656 243.471 210.199 215.607 209.955 215.85C209.846 215.959 210.158 219.667 210.649 224.089L211.541 232.13L228.641 247.53C238.046 256.001 245.741 262.926 245.741 262.921C245.741 262.915 259.883 257.89 277.169 251.754ZM506.749 251.302L534.029 241.001V232.5C534.029 226.023 533.798 224.084 533.059 224.36C532.526 224.559 520.042 229.174 505.317 234.617C490.592 240.059 478.327 244.733 478.062 245.003C477.796 245.274 477.361 249.288 477.094 253.923C476.637 261.856 476.692 262.329 478.039 261.977C478.825 261.772 491.745 256.968 506.749 251.302ZM114.491 251.359C113.888 247.332 113.221 243.842 113.009 243.603C111.089 241.443 85.1185 215.748 84.988 215.879C84.8938 215.973 85.3705 219.64 86.0475 224.027L87.2783 232.005L101.257 245.539C108.946 252.983 115.315 258.985 115.411 258.877C115.507 258.769 115.093 255.386 114.491 251.359ZM562.477 248.178C590.21 237.696 590.995 237.385 590.584 237.055C590.423 236.925 581.928 230.947 571.708 223.771L553.126 210.724L546.876 212.928C543.438 214.14 539.438 215.619 537.987 216.216L535.349 217.301L535.853 226.671C536.13 231.825 536.357 240.874 536.357 246.78C536.357 252.701 536.674 257.517 537.063 257.517C537.45 257.517 548.887 253.315 562.477 248.178ZM175.995 243.08C193.015 237.272 207.229 232.254 207.582 231.928C207.935 231.602 207.114 230.546 205.758 229.581C204.402 228.615 197.345 222.501 190.077 215.993L176.861 204.16L173.664 205.201C149.48 213.077 115.206 224.449 114.635 224.786C113.81 225.274 142.815 253.577 144.179 253.615C144.659 253.628 158.976 248.887 175.995 243.08ZM621.344 243.716L646.939 233.793L647.161 225.813C647.34 219.373 647.178 217.884 646.32 218.09C645.736 218.231 633.851 222.71 619.91 228.042L594.561 237.738V245.688C594.561 250.061 594.828 253.639 595.155 253.639C595.483 253.639 607.268 249.174 621.346 243.716H621.344ZM86.7319 238.852C85.8319 233.264 85.1705 231.274 83.7866 229.993C82.805 229.084 76.7288 223.201 70.284 216.92L58.5661 205.499L59.8946 213.358L61.223 221.218L74.3264 234.332C81.5332 241.545 87.5338 247.134 87.6611 246.753C87.7884 246.371 87.3702 242.816 86.7319 238.852ZM444.012 236.651L473.112 225.939L472.922 217.556C472.817 212.946 472.573 209.016 472.379 208.823C472.185 208.629 459.7 212.922 444.633 218.361C429.567 223.801 416.366 228.557 415.299 228.931C413.404 229.594 413.366 229.762 413.633 236.195C413.996 244.941 412.586 244.811 411.707 236.018L411.031 229.256L393.183 215.206L375.335 201.156L375.124 203.934C375.008 205.461 375.183 209.243 375.512 212.337L376.111 217.962L394.347 232.643C404.377 240.717 413.107 247.333 413.747 247.344C414.388 247.355 428.007 242.543 444.012 236.651ZM276.393 232.095L307.046 221.412L306.777 212.511C306.629 207.615 306.419 203.515 306.31 203.401C306.201 203.286 292.703 207.737 276.314 213.291C259.925 218.845 245.644 223.666 244.576 224.004C242.673 224.607 242.641 224.747 242.891 231.455C243.068 236.205 242.891 238.135 242.309 237.776C241.849 237.491 241.472 236.106 241.472 234.698C241.472 233.289 241.245 230.481 240.968 228.456C240.467 224.803 240.343 224.67 224.167 210.495C215.204 202.64 207.766 196.319 207.637 196.448C207.508 196.577 207.872 200.291 208.446 204.701C209.668 214.091 207.611 211.489 228.668 230.288C237.53 238.2 243.877 243.317 244.576 243.114C245.217 242.929 259.534 237.97 276.393 232.095ZM505.773 232.958L534.25 222.362L533.751 214.213C533.477 209.731 533.139 205.951 533.002 205.814C532.864 205.676 523.348 209.008 511.856 213.218C500.363 217.428 487.597 222.001 483.486 223.379L476.012 225.886L476.067 234.721C476.098 239.58 476.387 243.555 476.71 243.555C477.032 243.555 490.111 238.787 505.773 232.958ZM111.899 232.556L110.993 225.327L96.9019 211.608C89.1519 204.062 82.6837 198.015 82.5282 198.17C82.3728 198.326 82.6853 201.707 83.2227 205.685L84.1998 212.917L98.2331 226.603C105.951 234.13 112.388 240.175 112.536 240.036C112.684 239.898 112.398 236.532 111.899 232.556ZM327.416 234.479C335.632 231.603 342.354 229.015 342.354 228.729C342.354 227.103 338.904 227.744 328.993 231.21C312.429 237.003 311.314 237.47 311.314 238.619C311.314 239.201 311.576 239.685 311.896 239.694C312.216 239.702 319.2 237.356 327.416 234.479ZM591.289 219.064C590.74 218.543 582.259 212.488 572.442 205.609L554.594 193.101L554.37 200.624C554.211 205.985 554.434 208.433 555.146 209.141C555.696 209.687 564.177 215.833 573.994 222.797L591.842 235.461L592.065 227.735C592.225 222.199 592.004 219.742 591.289 219.064ZM621.489 225.945L647.327 216.091V208.105C647.327 203.712 647.15 200.119 646.933 200.119C646.717 200.119 634.844 204.532 620.549 209.926L594.558 219.733V227.766C594.558 232.184 594.804 235.799 595.104 235.799C595.404 235.799 607.277 231.365 621.489 225.945ZM325.526 230.27L339.349 225.489L338.885 220.366C338.63 217.549 338.24 213.781 338.019 211.992L337.616 208.74L323.883 213.48C316.33 216.087 310.027 218.312 309.877 218.426C309.399 218.788 310.703 235.023 311.212 235.037C311.481 235.044 317.922 232.899 325.526 230.27ZM84.0442 221.449L82.7536 213.693L69.5735 200.759C62.3245 193.646 56.2968 188.089 56.1787 188.411C56.0606 188.733 56.4554 192.064 57.0561 195.814L58.1484 202.632L71.5907 216.085C78.9839 223.484 85.1009 229.463 85.1839 229.371C85.2669 229.28 84.754 225.715 84.0442 221.449ZM209.654 228.236C209.654 226.523 208.011 212.981 207.776 212.73C207.552 212.491 195.428 216.507 194.912 216.992C194.348 217.521 207.536 229.581 208.686 229.588C209.219 229.588 209.655 228.983 209.654 228.236ZM351.828 225.909C355.151 224.736 357.871 223.557 357.872 223.289C357.872 222.664 341.407 209.339 341.061 209.685C340.918 209.828 341.03 213.165 341.309 217.102C341.687 222.426 342.199 224.743 343.306 226.15C344.125 227.191 345.018 228.042 345.29 228.042C345.562 228.042 348.504 227.082 351.828 225.909ZM443.041 217.103C458.94 211.388 471.948 206.506 471.948 206.254C471.948 206.003 471.163 205.439 470.202 205.001C469.242 204.564 460.89 198.574 451.643 191.691L434.83 179.176L410.514 187.599C397.141 192.232 383.857 196.793 380.994 197.735L375.79 199.447L394.163 213.762C404.269 221.635 412.896 227.946 413.336 227.786C413.776 227.626 427.143 222.819 443.041 217.103ZM504.483 214.113C519.56 208.584 532.055 203.902 532.251 203.706C532.446 203.511 530.744 202.157 528.468 200.699C526.192 199.24 517.745 193.301 509.698 187.501L495.067 176.956L484.09 180.85C478.052 182.992 469.009 186.182 463.994 187.939C458.979 189.697 454.894 191.323 454.915 191.554C454.936 191.785 459.389 195.29 464.809 199.343L474.664 206.711L474.884 215.438C475.045 221.849 475.364 224.164 476.087 224.164C476.627 224.164 489.406 219.641 504.483 214.113ZM143.973 212.824L175.68 202.26L175.249 199.444C175.012 197.895 174.585 194.489 174.299 191.875C174.014 189.261 173.517 186.696 173.196 186.176C172.765 185.48 164.542 187.826 142.051 195.061C125.242 200.468 111.054 205.028 110.52 205.195C109.313 205.574 109.325 206.558 110.644 215.244C111.226 219.083 111.547 222.487 111.357 222.806C111.167 223.126 111.293 223.388 111.638 223.388C111.984 223.388 126.534 218.634 143.973 212.824ZM273.677 212.506C290.322 206.838 304.23 201.95 304.583 201.643C304.936 201.336 304.063 200.273 302.643 199.28C301.223 198.288 293.658 192.224 285.833 185.805C278.007 179.386 271.197 174.168 270.7 174.21C269.777 174.289 209.549 194.064 208.923 194.494C208.734 194.625 209.945 195.857 211.615 197.231C213.286 198.606 220.751 205.066 228.205 211.588C235.659 218.109 242.13 223.302 242.585 223.127C243.04 222.953 257.032 218.173 273.677 212.506ZM368.61 219.934L373.783 218.178L373.545 208.483L373.308 198.789L380.529 196.226C384.501 194.816 390.632 192.639 394.153 191.388C397.675 190.136 400.38 188.827 400.164 188.479C399.949 188.131 393.401 190.066 385.614 192.78C377.826 195.494 364.905 199.907 356.9 202.587C348.895 205.267 342.434 207.699 342.544 207.991C342.653 208.283 346.738 211.695 351.621 215.572C358.094 220.711 360.899 222.496 361.969 222.157C362.777 221.901 365.765 220.9 368.61 219.934ZM109.004 213.487L107.78 205.556L93.533 191.901C85.697 184.391 79.2858 178.633 79.2858 179.107C79.2858 179.581 79.8139 183.248 80.4593 187.257L81.6326 194.546L92.2934 204.955C103.571 215.966 109.832 221.814 110.078 221.568C110.16 221.486 109.677 217.849 109.004 213.487ZM620.801 208.359L647.327 198.372V190.325C647.327 185.899 647.037 182.278 646.683 182.278C646.328 182.278 635.347 186.26 622.28 191.127C609.214 195.995 597.456 200.211 596.152 200.497L593.782 201.017V206.819C593.782 210.489 593.497 212.444 593.006 212.141C592.58 211.878 592.23 209.307 592.23 206.429V201.197L573.981 188.606C563.944 181.681 555.266 175.836 554.697 175.618C553.861 175.297 553.736 176.755 554.045 183.209C554.379 190.19 554.633 191.345 556.056 192.362C571.657 203.507 593.497 218.618 593.835 218.5C594.077 218.416 606.212 213.852 620.801 208.359ZM56.795 202.791C55.4911 194.763 54.3277 188.099 54.2098 187.982C54.0399 187.812 41.1686 191.749 35.872 193.591C35.1211 193.852 38.6963 197.93 46.6992 205.942C53.2708 212.521 58.7641 217.787 58.9067 217.644C59.0492 217.502 58.0989 210.818 56.795 202.791ZM324.506 211.811L337.31 207.299L337.089 200.412C336.724 189.016 338.444 189.575 321.404 195.315C310.847 198.872 306.824 200.549 307.342 201.178C307.741 201.662 308.32 205.286 308.627 209.232C309.086 215.128 309.41 216.4 310.444 216.365C311.136 216.342 317.464 214.293 324.506 211.811ZM200.214 213.219L207.46 210.806L206.909 203.457C206.606 199.415 206.314 195.527 206.261 194.817C206.187 193.828 208.391 192.798 215.661 190.423C220.884 188.716 225.162 187.088 225.167 186.805C225.173 186.522 221.83 183.413 217.74 179.896L210.304 173.502L192.907 179.214C180.121 183.412 175.519 185.243 175.539 186.123C175.555 186.781 176.006 190.641 176.542 194.701L177.516 202.081L181.364 205.612C183.48 207.553 186.783 210.593 188.704 212.367C190.624 214.141 192.369 215.602 192.582 215.612C192.794 215.623 196.229 214.546 200.214 213.219ZM543.73 211.893L551.49 208.935L551.276 201.276C551.159 197.063 550.928 193.481 550.763 193.316C550.462 193.016 533.817 198.955 531.792 200.085C530.988 200.533 531.331 201.046 533.15 202.12C535.521 203.52 535.581 203.697 535.581 209.206C535.581 212.313 535.669 214.855 535.775 214.854C535.882 214.854 539.461 213.52 543.73 211.893ZM81.2103 202.75L79.9924 195.077L66.6409 182.176C59.2976 175.081 53.1859 169.367 53.0594 169.479C52.9329 169.59 53.3786 173.092 54.0497 177.261L55.27 184.84L68.6359 197.822C75.9872 204.962 82.0977 210.718 82.215 210.613C82.3322 210.508 81.8801 206.97 81.2103 202.75ZM33.1115 200.79L31.8669 193.525L20.1108 181.724C13.6449 175.234 8.20684 170.071 8.02619 170.251C7.84547 170.432 8.15705 173.474 8.71856 177.011L9.7395 183.442L15.5836 189.647C26.3161 201.043 33.8047 208.606 34.0817 208.329C34.2326 208.178 33.796 204.786 33.1115 200.79ZM369.127 196.331C391.331 188.613 397.824 186.065 397.774 185.09C397.739 184.397 397.646 181.124 397.569 177.818C397.491 174.512 397.145 171.362 396.8 170.819C396.322 170.066 389.447 172.118 367.905 179.446L339.638 189.061L339.823 197.499C339.924 202.139 340.012 206.023 340.017 206.13C340.032 206.45 339.45 206.646 369.127 196.331ZM141.367 193.558C158.226 188.112 172.093 183.593 172.182 183.516C172.435 183.297 143.629 157.881 142.769 157.564C141.823 157.215 80.8641 176.282 80.8489 176.933C80.8246 177.979 108.99 204.081 109.82 203.782C110.312 203.604 124.508 199.003 141.367 193.558ZM621.053 189.827L646.384 180.474L634.245 172.606C627.569 168.28 618.876 162.568 614.926 159.913L607.746 155.087L582.334 164.158C568.357 169.148 556.682 173.433 556.389 173.682C555.494 174.44 593.268 200.11 594.558 199.621C595.199 199.379 607.121 194.971 621.053 189.827ZM321.298 193.913L336.242 188.871L335.709 180.339C335.417 175.646 335.11 171.726 335.029 171.627C334.709 171.239 290.364 186.32 290.399 186.805C290.456 187.596 305.217 199.442 305.823 199.183C306.115 199.057 313.079 196.686 321.298 193.913ZM540.856 195.045L551.102 191.354V183.051V174.748L533.297 181.149C523.504 184.669 515.072 187.69 514.559 187.86C514.046 188.031 517.082 190.668 521.306 193.719C525.529 196.771 529.351 199.148 529.798 199.002C530.245 198.856 535.222 197.075 540.856 195.045ZM49.2153 187.301C54.2276 185.697 54.2223 185.711 52.8807 177.961C51.5058 170.017 51.4053 169.748 49.9655 170.165C49.2328 170.377 44.5868 171.808 39.641 173.344L30.6486 176.138L31.5985 181.341C32.121 184.203 32.7729 187.823 33.0474 189.386L33.5463 192.228L39.1497 190.478C42.2317 189.516 46.7612 188.086 49.2153 187.301ZM78.7544 185.187C78.1738 181.241 77.6193 177.522 77.5222 176.922C77.3945 176.133 84.2533 173.67 102.357 168.002C116.113 163.696 127.288 159.941 127.189 159.658C126.855 158.697 114.736 148.21 114.276 148.484C114.024 148.634 100.549 152.856 84.3299 157.867C68.1112 162.877 54.6668 167.134 54.4534 167.328C54.1863 167.57 78.7305 191.835 79.742 192.329C79.7795 192.347 79.3351 189.133 78.7544 185.187ZM30.0896 182.548L28.9273 175.685L17.0885 164.272C10.5772 157.995 5.12257 152.987 4.96722 153.142C4.81186 153.297 5.11432 156.339 5.63934 159.901L6.59402 166.377L18.6816 178.618C25.3298 185.35 30.8778 190.532 31.0105 190.134C31.1432 189.736 30.7289 186.322 30.0896 182.548ZM457.039 188.598C460.311 187.27 460.67 186.157 457.826 186.157C455.49 186.157 450.841 188.381 451.374 189.243C452.035 190.313 453.117 190.189 457.039 188.598ZM418.24 183.054C426.808 180.068 434.247 177.624 434.772 177.624C435.296 177.624 438.201 179.478 441.227 181.743C444.252 184.008 447.121 186.096 447.601 186.383C448.434 186.88 455.516 184.924 456.518 183.921C456.78 183.657 456.78 179.903 456.518 175.577L456.04 167.713L428.88 177.071C413.941 182.219 401.597 186.52 401.447 186.63C401.161 186.84 402.033 188.484 402.43 188.484C402.558 188.484 409.672 186.04 418.24 183.054ZM367.682 178.012C383.321 172.679 396.294 168.317 396.51 168.317C396.897 168.317 396.028 151.898 395.619 151.49C395.504 151.374 382.52 155.577 366.766 160.828L338.122 170.375L338.262 178.46C338.433 188.326 338.393 187.708 338.861 187.708C339.074 187.708 352.043 183.345 367.682 178.012ZM531.381 180.339C541.512 176.713 549.919 173.746 550.063 173.746C550.208 173.746 550.326 170.081 550.326 165.602C550.326 159.619 550.069 157.457 549.359 157.457C548.827 157.457 536.794 161.559 522.618 166.571C502.544 173.67 497.052 175.891 497.783 176.616C499.235 178.056 511.841 186.932 512.434 186.932C512.724 186.932 521.25 183.965 531.381 180.339ZM235.458 183.88C238.339 182.929 240.696 182.03 240.696 181.882C240.696 181.433 211.327 156.682 210.795 156.682C210.25 156.682 211.125 167.505 211.906 170.422C212.444 172.432 228.197 186.317 229.444 185.88C229.871 185.73 232.577 184.83 235.458 183.88ZM469.781 184.024C473.105 182.85 475.825 181.669 475.826 181.398C475.826 181.128 472.162 178.249 467.68 175L459.532 169.094V176.207C459.532 181.737 459.818 183.635 460.816 184.738C462.468 186.563 462.623 186.551 469.781 184.024ZM311.702 177.454C323.225 173.578 332.934 170.163 333.276 169.865C333.618 169.567 332.92 168.684 331.724 167.903C330.528 167.122 323.16 161.451 315.35 155.301L301.151 144.118L271.894 153.59C255.802 158.799 242.532 163.156 242.405 163.271C241.986 163.648 257.302 176.073 258.186 176.073C258.661 176.073 261.616 175.2 264.753 174.134C267.89 173.067 270.853 172.195 271.337 172.195C271.821 172.195 275.838 175.175 280.264 178.817C285.579 183.191 288.725 185.281 289.53 184.971C290.201 184.713 300.178 181.33 311.702 177.454ZM428.492 175.766L456.04 166.184L455.762 158.136C455.609 153.71 455.404 149.999 455.305 149.89C455.206 149.781 442.662 153.932 427.429 159.115L399.732 168.538L399.837 176.96C399.894 181.591 400.167 185.374 400.442 185.365C400.718 185.356 413.34 181.037 428.492 175.766ZM185.344 179.878C196.555 176.232 196.393 177.376 186.846 169.264L181.496 164.718L171.439 167.863L161.383 171.007L167.865 177.003C171.43 180.301 174.624 183.012 174.962 183.027C175.301 183.042 179.972 181.625 185.344 179.878ZM250.576 178.864L255.668 177.147L248.529 171.093C244.602 167.763 241.241 165.186 241.06 165.367C240.879 165.548 241.07 168.642 241.484 172.242C241.898 175.842 242.239 179.422 242.243 180.197C242.249 181.745 241.835 181.811 250.576 178.864ZM485.757 178.363C489.442 177.063 492.569 175.888 492.706 175.751C492.842 175.614 485.064 169.834 475.42 162.907C465.777 155.979 457.784 150.435 457.659 150.588C457.533 150.74 457.642 154.412 457.899 158.749L458.368 166.634L468.058 173.681C473.387 177.556 478.042 180.727 478.402 180.727C478.762 180.727 482.072 179.663 485.757 178.363ZM239.712 170.549L238.756 163.087L223.714 150.551C215.441 143.656 208.528 138.159 208.352 138.335C208.176 138.511 208.398 141.567 208.844 145.127C209.291 148.687 209.656 152.024 209.656 152.543C209.656 153.719 240.166 179.619 240.456 178.689C240.572 178.317 240.237 174.654 239.712 170.549ZM204.493 173.535L209.72 171.772L197.652 161.456C191.015 155.781 184.603 150.314 183.404 149.305L181.224 147.471L182.154 155.215C182.666 159.474 183.214 163.068 183.372 163.203C183.53 163.337 186.739 166.113 190.502 169.372C194.265 172.631 197.776 175.297 198.305 175.297C198.833 175.297 201.618 174.504 204.493 173.535ZM42.2312 171.006C47.3624 169.411 51.3494 167.757 51.3494 167.223C51.3494 166.659 58.9345 163.94 70.0057 160.534C80.2666 157.377 88.9536 154.608 89.31 154.381C89.837 154.044 88.4283 142.192 87.6514 140.427C87.4588 139.989 28.2775 157.766 27.569 158.474C27.4133 158.63 27.6146 159.773 28.0158 161.016C28.4172 162.258 29.1509 165.818 29.6463 168.927C30.3886 173.585 30.7725 174.514 31.8299 174.209C32.5357 174.006 37.2163 172.564 42.2312 171.006ZM523.075 164.973L549.756 155.509L549.605 147.386C549.522 142.919 549.353 139.163 549.23 139.039C549.047 138.856 501.233 155.247 496.587 157.086C495.409 157.552 495.229 158.747 495.229 166.073C495.229 170.72 495.491 174.503 495.811 174.479C496.131 174.456 508.4 170.178 523.075 164.973ZM493.367 165.418C493.033 160.268 492.472 156.884 491.894 156.549C491.381 156.251 483.296 150.586 473.927 143.959C464.559 137.333 456.84 131.988 456.774 132.08C456.708 132.173 456.865 135.897 457.123 140.357L457.592 148.466L475.052 161.045C484.656 167.963 492.826 173.651 493.209 173.685C493.611 173.72 493.678 170.227 493.367 165.418ZM27.2985 165.451L26.3547 158.621L14.2535 146.817C7.59785 140.325 2.02372 135.142 1.8665 135.299C1.70933 135.456 2.01028 138.499 2.53531 142.061L3.48998 148.538L15.5374 160.737C22.1635 167.447 27.7328 172.79 27.9137 172.609C28.0945 172.428 27.8176 169.207 27.2985 165.451ZM570.14 165.295C569.19 164.346 567.891 164.598 560.652 167.132C556.04 168.747 552.135 170.182 551.976 170.322C551.816 170.462 551.889 171.107 552.138 171.755C552.518 172.745 554.075 172.412 561.915 169.664C569.963 166.842 571.089 166.244 570.14 165.295ZM209.261 163.587C208.955 160.132 208.482 156.492 208.21 155.498C207.624 153.355 179.963 129.76 179.536 131.039C179.379 131.51 179.656 134.941 180.151 138.662C180.97 144.81 181.277 145.615 183.52 147.48C184.877 148.609 191.226 154.085 197.628 159.649C204.03 165.212 209.392 169.788 209.543 169.816C209.694 169.845 209.567 167.041 209.261 163.587ZM170.467 166.138L179.779 163.189L179.536 158.485C179.401 155.897 179.052 152.2 178.76 150.268L178.227 146.756L162.343 151.76C153.606 154.513 146.333 156.889 146.181 157.041C146.029 157.193 147.416 158.684 149.262 160.356C151.108 162.027 154.016 164.667 155.723 166.223C157.43 167.778 159.351 169.059 159.991 169.068C160.631 169.078 165.346 167.76 170.467 166.138ZM366.558 159.348L395.807 149.603L395.358 141.313C395.111 136.754 394.809 132.905 394.687 132.76C394.565 132.615 381.33 136.785 365.277 142.027C336.277 151.497 336.092 151.571 336.467 153.538C337.25 157.659 337.296 166.729 336.534 166.788C335.619 166.858 335.605 166.782 334.961 158.083L334.462 151.339L323.47 142.862C317.424 138.2 309.925 132.385 306.805 129.94L301.131 125.493L301.687 132.361C301.993 136.139 302.458 140.035 302.72 141.019C303.02 142.146 309.371 147.672 319.866 155.938C329.033 163.16 336.709 169.074 336.922 169.08C337.135 169.087 350.472 164.707 366.558 159.348ZM435.752 154.747L455.816 147.909L455.355 145.121C455.101 143.587 454.889 139.83 454.885 136.771L454.876 131.209L426.745 140.562C411.274 145.706 398.518 149.992 398.401 150.087C398.283 150.182 398.42 154.109 398.706 158.814L399.226 167.369L407.456 164.476C411.983 162.886 424.716 158.507 435.752 154.747ZM560.22 165.097L567.398 162.634V154.627V146.621L559.832 149.324C555.67 150.811 552.178 152.028 552.072 152.028C551.965 152.028 551.878 155.518 551.878 159.784C551.878 164.051 552.139 167.545 552.46 167.55C552.78 167.557 556.272 166.451 560.22 165.097ZM270.185 152.06C286.19 146.849 299.393 142.48 299.524 142.35C299.914 141.964 298.377 126.428 297.901 125.952C297.661 125.712 284.604 129.589 268.886 134.567C253.168 139.546 239.853 143.762 239.297 143.937C238.523 144.18 238.387 145.847 238.718 151.05C239.213 158.835 238.053 157.235 237.178 148.925L236.647 143.884L221.105 131.188C209.486 121.699 205.674 118.957 206.004 120.329C206.248 121.339 206.693 125.074 206.993 128.629L207.54 135.092L223.536 148.552C232.334 155.954 239.882 161.904 240.308 161.773C240.735 161.641 254.18 157.271 270.185 152.06ZM135.619 157.406C138.14 156.524 141.425 155.739 142.919 155.661C144.413 155.582 152.913 153.25 161.809 150.477L177.983 145.435L177.454 140.005C177.163 137.019 176.694 133.3 176.412 131.741L175.899 128.906L146.799 137.898C130.794 142.844 117.524 147.033 117.31 147.208C116.773 147.649 129.138 158.959 130.187 158.987C130.654 158.999 133.098 158.287 135.619 157.406ZM55.2295 148.131C69.5274 143.805 82.5682 139.848 84.209 139.336L87.192 138.405L74.266 126.795C67.1567 120.409 60.8925 115.274 60.3454 115.384C59.2081 115.613 4.8959 131.685 3.45407 132.219C2.10662 132.718 26.6155 156.707 28.069 156.312C28.7092 156.137 40.9314 152.456 55.2295 148.131ZM522.303 146.597C536.981 141.478 549.116 137.29 549.27 137.29C549.424 137.29 549.55 133.451 549.55 128.758C549.55 124.065 549.244 120.226 548.871 120.226C548.498 120.226 546.665 120.782 544.797 121.461C542.93 122.14 530.751 126.324 517.733 130.758L494.065 138.82V144.183C494.065 147.132 493.803 149.813 493.483 150.14C493.163 150.467 492.895 148.321 492.889 145.37C492.883 142.419 492.592 139.556 492.244 139.008C491.641 138.058 456.242 113.148 455.961 113.476C455.887 113.562 456.049 117.361 456.321 121.917L456.816 130.202L475.052 143.044C485.082 150.108 493.812 155.89 494.453 155.895C495.093 155.901 507.626 151.715 522.303 146.597ZM97.8294 151.96C99.5811 151.436 101.014 150.756 101.014 150.449C101.014 150.142 98.6912 147.852 95.8519 145.36L90.6898 140.83L91.1567 143.52C91.4136 145 91.8587 147.889 92.146 149.941C92.5041 152.5 92.9786 153.553 93.6563 153.293C94.1998 153.085 96.0777 152.485 97.8294 151.96ZM207.056 143.254C206.478 139.076 205.691 135.382 205.308 135.046C204.925 134.709 199.199 129.96 192.584 124.49C185.968 119.021 179.731 113.818 178.723 112.926L176.89 111.306L177.425 116.744C178.491 127.585 177.638 126.357 193.388 139.735C201.269 146.429 207.804 151.669 207.912 151.379C208.02 151.089 207.635 147.433 207.056 143.254ZM561.19 147.367L567.01 145.24L567.231 137.387C567.353 133.068 567.178 129.53 566.843 129.525C566.508 129.518 563.004 130.624 559.056 131.978L551.878 134.441V142.511C551.878 151.786 550.733 151.189 561.19 147.367ZM109.738 148.283C111.762 147.57 113.354 146.637 113.276 146.211C113.142 145.485 89.0317 123.329 88.3753 123.329C88.0963 123.329 89.9501 137.151 90.3567 138.102C90.4564 138.336 93.2651 141.041 96.5982 144.114C103.167 150.17 103.809 150.373 109.738 148.283ZM364.977 140.365C380.704 135.23 393.571 130.751 393.571 130.412C393.571 130.073 392.626 129.301 391.472 128.695C390.317 128.09 382.757 122.774 374.671 116.882L359.969 106.17L333.895 114.428C319.555 118.97 306.655 123.043 305.228 123.479C303.802 123.915 302.931 124.568 303.294 124.931C305.167 126.803 335.084 149.665 335.683 149.682C336.068 149.692 349.251 145.5 364.977 140.365ZM428.689 138.131L453.64 129.813L440.096 120.245C432.647 114.982 424.966 109.533 423.029 108.136L419.506 105.596L399.944 111.941C389.185 115.431 380.389 118.461 380.398 118.675C380.407 118.888 384.041 121.679 388.473 124.878L396.531 130.693L397.079 139.087L397.628 147.481L400.683 146.965C402.363 146.681 414.966 142.706 428.689 138.131ZM146.799 136.499C162.377 131.688 175.268 127.629 175.445 127.481C175.816 127.169 174.213 111.688 173.763 111.238C173.465 110.941 114.866 128.631 114.297 129.19C113.939 129.542 115.812 144.39 116.329 145.294C116.528 145.643 117.093 145.775 117.583 145.588C118.073 145.4 131.22 141.31 146.799 136.499ZM113.433 135.372L112.52 128.938L99.2743 117.205C91.9894 110.751 85.9234 105.576 85.7944 105.705C85.186 106.313 87.8679 120.602 88.754 121.473C89.3083 122.018 95.1747 127.347 101.79 133.315C109.817 140.556 113.906 143.772 114.083 142.985C114.228 142.336 113.936 138.91 113.433 135.372ZM263.977 134.446C296.601 124.052 296.624 124.044 296.158 123.291C295.926 122.915 288.996 117.39 280.759 111.013L265.782 99.4189L237.137 108.287C221.382 113.165 208.194 117.247 207.829 117.36C207.465 117.473 214.063 123.232 222.492 130.159C234.801 140.275 238.139 142.653 239.451 142.246C240.349 141.968 251.386 138.458 263.977 134.446ZM521.813 127.593L548.785 118.417L545.869 116.754C544.265 115.84 536.03 110.465 527.569 104.812C514.357 95.9836 511.875 94.5994 510 95.0111C508.799 95.2748 496.415 99.2779 482.481 103.907L457.145 112.323L470.173 121.196C477.338 126.077 485.47 131.684 488.245 133.657C491.019 135.63 493.638 137.137 494.065 137.006C494.491 136.875 506.978 132.639 521.813 127.593ZM205.069 123.57C204.616 119.87 204.328 116.777 204.429 116.696C204.53 116.615 214.367 113.53 226.29 109.841C238.212 106.152 248.06 103.041 248.173 102.927C248.592 102.509 236.142 93.077 235.14 93.054C233.246 93.0103 178.643 109.744 178.825 110.312C178.923 110.619 184.94 115.812 192.196 121.853C201.69 129.757 205.459 132.48 205.64 131.566C205.779 130.868 205.522 127.269 205.069 123.57ZM559.817 130.203L566.622 127.77V119.68C566.622 112.049 566.537 111.616 565.129 112.063C564.308 112.323 560.755 113.504 557.234 114.686L550.833 116.837L550.998 122.216C551.187 128.318 551.822 132.636 552.531 132.636C552.795 132.636 556.074 131.542 559.817 130.203ZM454.791 119.715C454.595 111.829 454.664 111.419 456.283 110.82C457.216 110.475 457.98 110.06 457.98 109.898C457.98 109.737 454.319 107.091 449.845 104.018L441.709 98.4328L431.513 101.636L421.316 104.84L423.934 106.689C425.374 107.705 432.663 112.884 440.132 118.196C447.601 123.509 454.001 127.884 454.354 127.919C454.708 127.954 454.904 124.262 454.791 119.715ZM144.318 118.37C160.239 113.515 173.378 109.416 173.515 109.261C173.653 109.106 173.298 105.488 172.726 101.222C172.155 96.9562 171.675 93.2531 171.659 92.9932C171.644 92.7333 158.1 96.5875 141.561 101.558C114.861 109.583 111.507 110.766 111.638 112.114C112.436 120.306 113.736 127.206 114.481 127.202C114.97 127.202 128.397 123.225 144.318 118.37ZM111.068 118.535C110.539 114.559 109.719 110.814 109.246 110.212C107.435 107.907 83.8287 87.5029 83.4322 87.8992C83.2026 88.1287 83.4522 91.5164 83.9869 95.4274L84.9592 102.538L98.2248 114.386C105.521 120.902 111.612 126.128 111.76 125.998C111.908 125.869 111.597 122.51 111.068 118.535ZM298.851 114.341C298.38 110.126 297.762 106.268 297.477 105.767C296.934 104.814 266.52 81.443 265.824 81.443C265.604 81.443 265.595 82.0539 265.804 82.8005C266.012 83.5471 266.415 87.192 266.698 90.9004L267.213 97.6427L283.242 110.04C292.058 116.859 299.369 122.34 299.488 122.221C299.608 122.101 299.321 118.555 298.851 114.341ZM327.958 114.368C342.065 109.867 354.725 105.831 356.093 105.4L358.58 104.616L358.128 96.7138C357.88 92.3676 357.426 88.5345 357.12 88.1954C356.606 87.6266 349.802 89.6508 312.982 101.326L299.517 105.595L300.039 112.717C300.588 120.211 301.012 122.553 301.82 122.553C302.09 122.553 313.852 118.87 327.958 114.368ZM397.839 110.647L417.239 104.282L417.436 96.9348C417.545 92.8937 417.33 89.1187 416.958 88.5459C416.42 87.7166 410.762 89.2741 389.213 96.1822C374.324 100.955 362.05 104.949 361.937 105.057C361.683 105.299 377.513 117.065 378.051 117.034C378.264 117.022 387.169 114.148 397.839 110.647ZM564.956 110.521C565.963 110.146 533.479 88.592 530.799 87.8567C529.383 87.4682 513.853 92.3171 513.853 93.1477C513.853 93.4313 521.54 98.7427 530.936 104.951L548.018 116.238L555.962 113.575C560.331 112.111 564.378 110.736 564.956 110.521ZM474.856 103.436C474.324 102.92 466.904 97.7629 458.368 91.9769L442.848 81.457L442.602 85.91C442.467 88.3592 442.575 91.8444 442.843 93.6547C443.312 96.8265 443.654 97.1696 452.231 103.08L461.133 109.213L468.479 106.794C474.271 104.887 475.619 104.177 474.856 103.436ZM139.713 100.39C154.921 95.879 168.146 91.9523 169.102 91.6636C170.62 91.2051 169.067 89.6868 156.824 79.6643L142.807 68.1899L113.957 76.4633C98.0887 81.0136 84.8686 84.9555 84.5784 85.2229C84.0044 85.7522 110.162 108.591 111.342 108.591C111.739 108.591 124.506 104.9 139.713 100.39ZM192.196 103.986C206.928 99.4323 206.94 99.4268 206.815 97.2228C206.519 92.0306 205.624 86.0977 205.138 86.1068C204.849 86.113 197.802 88.1694 189.48 90.6784L174.347 95.2403L174.48 97.8435C174.791 103.976 175.676 108.59 176.537 108.567C177.04 108.553 184.086 106.492 192.196 103.986ZM327.403 95.0179C343.023 90.1124 355.953 85.9491 356.136 85.7661C356.319 85.5831 354.952 84.4764 353.098 83.307C351.243 82.1376 344.837 77.6396 338.862 73.3115C332.887 68.9834 327.06 64.828 325.913 64.0773C323.85 62.7275 323.527 62.8036 296.424 71.0149C281.352 75.5813 268.73 79.5803 268.374 79.9017C267.882 80.3469 297.596 103.837 298.756 103.92C298.892 103.929 311.783 99.9235 327.403 95.0179ZM422.647 102.425C422.898 102.02 422.395 101.309 421.529 100.846C420.188 100.129 419.955 100.237 419.955 101.583C419.955 103.187 421.816 103.769 422.647 102.425ZM373.452 99.3745C387.457 95.0457 415.598 86.0567 415.811 85.8438C416.121 85.5342 383.394 63.1952 382.809 63.3168C379.186 64.0701 345.458 74.8957 345.458 75.3054C345.458 75.6141 348.565 78.1377 352.363 80.9133L359.268 85.9598L359.833 94.2562L360.399 102.553L363.268 102.094C364.846 101.842 369.429 100.618 373.452 99.3745ZM503.774 93.9677L528.985 85.5496L528.723 77.8728C528.579 73.6506 528.351 70.0841 528.216 69.9475C528.081 69.8108 516.588 73.4048 502.676 77.9341L477.38 86.1693V94.2774C477.38 98.737 477.646 102.386 477.971 102.386C478.297 102.386 489.908 98.5976 503.774 93.9677ZM258.802 99.8257C261.718 98.8874 264.084 97.8462 264.061 97.5119C264.006 96.7396 236.025 74.9947 235.614 75.4052C234.961 76.0584 236.973 90.4149 237.839 91.276C241.349 94.7677 250.673 101.552 251.949 101.543C252.802 101.537 255.886 100.764 258.802 99.8257ZM433.536 99.2326C436.523 98.3274 439.24 97.3293 439.574 97.0148C439.907 96.7003 433.649 91.9336 425.667 86.4221C407.486 73.8688 409.091 74.7802 409.091 77.0113C409.091 78.4188 410.295 79.6817 414.117 82.2855L419.143 85.7092L419.161 90.9525C419.176 94.9889 419.492 96.4521 420.538 97.31C425.001 100.972 425.888 101.512 426.94 101.211C427.58 101.028 430.548 100.138 433.536 99.2326ZM475.544 93.7111C475.259 89.3666 474.945 85.75 474.845 85.6742C474.746 85.5984 467.244 80.5972 458.174 74.5606L441.684 63.5848L441.761 69.993C441.804 73.5175 442.066 77.1698 442.343 78.1093C442.667 79.2067 448.534 83.6964 458.756 90.67C467.506 96.6391 474.979 101.543 475.363 101.567C475.766 101.592 475.843 98.2682 475.544 93.7111ZM222.46 94.7137L234.876 90.9266L234.659 84.4809C234.539 80.9358 234.297 77.8906 234.12 77.7139C233.944 77.5372 228.105 79.1074 221.145 81.2031C210.162 84.5106 208.515 85.2131 208.666 86.5249C208.761 87.3561 209.073 90.3922 209.359 93.2718C209.645 96.1514 209.916 98.506 209.961 98.5041C210.007 98.5041 215.631 96.7965 222.46 94.7137ZM265.15 88.6178C264.865 84.8849 264.467 81.2403 264.266 80.5185C263.875 79.1144 263.108 79.3891 291.801 70.6618C298.781 68.5385 304.65 66.6433 304.844 66.4503C305.037 66.2573 302.336 64.0144 298.841 61.4661L292.487 56.8329L283.858 59.4304C279.112 60.859 266.758 64.556 256.405 67.6458C246.052 70.7357 237.677 73.5526 237.795 73.9056C238.069 74.7263 264.147 95.2652 265.017 95.3451C265.375 95.3782 265.435 92.3507 265.15 88.6178ZM440.908 89.2966C440.908 79.5706 441.75 80.6144 424.351 68.7868L408.703 58.1495L408.483 60.6822C408.361 62.0752 408.536 65.5541 408.871 68.413L409.479 73.6112L424.612 84.0891C432.934 89.852 440.006 94.581 440.326 94.5981C440.646 94.615 440.908 92.2296 440.908 89.2966ZM201.992 85.2955L205.095 84.4602L200.974 81.2537C198.707 79.49 192.836 74.8655 187.928 70.977C183.019 67.0885 178.578 63.6505 178.058 63.3368C177.363 62.9171 150.488 70.0223 149.335 70.9307C149.236 71.0085 154.538 75.5004 161.118 80.9125C167.697 86.3247 173.286 91.4022 173.538 92.1958C173.965 93.5427 174.824 93.389 186.442 89.8847C193.287 87.82 200.285 85.7549 201.992 85.2955ZM497.507 77.9079C508.845 74.2571 520.318 70.559 523.002 69.6898L527.884 68.1097L510.848 57.287L493.813 46.4644L474.151 52.6578C463.336 56.0642 451.938 59.611 448.821 60.5395C445.704 61.4679 443.312 62.3859 443.505 62.5794C444.641 63.715 475.568 84.482 476.166 84.5108C476.566 84.5301 486.169 81.5587 497.507 77.9079ZM215.2 81.4994C217.913 80.6772 223.188 79.0854 226.922 77.962C232.761 76.2055 233.714 75.6817 233.721 74.2213C233.728 72.6874 235.127 72.1141 248.176 68.2995L262.623 64.0761L262.104 57.8612C261.819 54.443 261.485 51.5462 261.363 51.4237C261.24 51.3013 248.945 54.8199 234.04 59.2429L206.94 67.2847L207.017 69.9039C207.221 76.8225 208.272 82.9943 209.248 82.9943C209.809 82.9943 212.488 82.3216 215.2 81.4994ZM206.05 79.31C205.856 77.7102 205.452 74.3314 205.154 71.8017L204.612 67.2021L191.052 56.5271C183.594 50.6557 177.426 45.9191 177.345 46.0012C177.264 46.0833 177.607 49.4664 178.106 53.5192L179.013 60.8881L192.201 71.5319C199.454 77.386 205.617 82.1852 205.896 82.1971C206.176 82.209 206.245 80.9098 206.05 79.31ZM440.359 69.4203C439.981 62.7399 440.093 61.2726 440.985 61.2576C441.583 61.2476 449.336 58.885 458.215 56.0076L474.358 50.7759L467.439 46.3301C463.634 43.8849 460.037 41.8784 459.445 41.8711C458.071 41.8542 409.784 56.7974 410.122 57.1348C410.928 57.9404 439.838 77.4778 440.282 77.5171C440.579 77.5433 440.613 73.8997 440.359 69.4203ZM406.763 76.0134C406.763 75.5868 406.219 75.2377 405.553 75.2377C404.888 75.2377 404.559 75.5868 404.823 76.0134C405.087 76.4401 405.631 76.789 406.033 76.789C406.435 76.789 406.763 76.4401 406.763 76.0134ZM404.76 73.9912C405.749 73.6116 405.985 72.2215 405.975 66.8164C405.969 63.1292 405.665 59.6412 405.3 59.0653C404.757 58.2101 403.394 58.3967 397.863 60.0831C385.728 63.7827 386.037 62.8771 394.818 69.0226C403.021 74.7645 402.901 74.7042 404.76 73.9912ZM353.672 70.4505C360.965 68.1765 363.838 66.9576 363.334 66.3506C362.016 64.7631 351.923 58.1731 350.817 58.1781C349.121 58.1856 330.624 63.9636 330.466 64.5351C330.31 65.103 341.588 73.5335 342.629 73.6269C342.994 73.6594 347.963 72.2303 353.672 70.4505ZM232.969 57.8219C246.858 53.749 258.673 50.4166 259.224 50.4166C261.32 50.4166 259.311 48.6655 246.092 38.9672L232.474 28.9772L205.9 36.4981C191.284 40.6345 179.163 44.1807 178.965 44.3786C178.301 45.0424 205.373 65.7628 206.552 65.4932C207.192 65.3467 219.08 61.8947 232.969 57.8219ZM313.642 64.0435L319.462 62.1779L319.186 57.2669C319.035 54.5658 318.806 52.2433 318.678 52.1059C318.328 51.7308 299.386 57.4489 298.64 58.1551C298.284 58.4912 300.205 60.3677 302.908 62.3251C305.61 64.2826 307.822 65.8898 307.822 65.8966C307.822 65.9035 310.441 65.0696 313.642 64.0435ZM375.695 63.6211C379.734 62.3608 383.797 61.5199 384.724 61.7524C385.651 61.985 390.64 60.8674 395.81 59.2689L405.211 56.3626L405.154 51.6445C405.122 49.0494 404.86 45.4988 404.572 43.7543L404.047 40.5826L378.216 48.4666L352.386 56.3509L359.204 61.1354C362.954 63.7668 366.546 65.9182 367.187 65.9162C367.827 65.9162 371.655 64.8814 375.695 63.6211ZM294.316 55.8902C295.952 56.557 298.209 56.1771 306.344 53.8659C311.851 52.3011 316.629 50.7705 316.961 50.4645C317.293 50.1584 311.22 45.4253 303.464 39.9463L289.364 29.9844L275.312 34.098C267.584 36.3605 259.253 38.7631 256.799 39.437C254.345 40.111 252.337 40.8592 252.337 41.0996C252.337 41.3401 254.731 43.3277 257.657 45.5166C263.247 49.698 263.964 51.0317 263.987 57.3005C264.012 63.9644 263.223 63.8608 278.586 59.2159C289.98 55.771 292.642 55.2084 294.316 55.8902ZM331.75 61.8173L333.951 60.8776L328.012 56.7332C324.746 54.4538 321.989 52.7111 321.885 52.8603C321.781 53.0095 321.838 54.9639 322.012 57.2036C322.296 60.8684 322.51 61.2759 324.147 61.2759C325.148 61.2759 326.182 61.6248 326.446 62.0515C327.074 63.0679 329.024 62.9819 331.75 61.8173ZM343.486 58.3231L350.438 56.1696L335.9 45.9245C327.903 40.2896 321.196 35.6792 320.993 35.6792C320.463 35.6792 320.542 42.6053 321.12 46.8252C321.599 50.3197 321.834 50.587 328.686 55.4654C332.576 58.2341 335.933 60.4943 336.146 60.488C336.36 60.4817 339.662 59.5074 343.486 58.3231ZM417.239 52.8598L426.552 49.9067L426.777 43.082C426.984 36.8383 426.885 36.2904 425.613 36.6449C424.849 36.858 420.295 38.1943 415.493 39.6143L406.763 42.1961L406.774 47.276C406.783 51.4201 407.333 55.9089 407.824 55.8296C407.881 55.8202 412.118 54.4839 417.239 52.8598ZM378.051 47.0571L404.047 39.0759L403.785 31.3662C403.641 27.1258 403.398 23.5304 403.246 23.3763C403.094 23.2223 391.339 26.5828 377.124 30.8441L351.278 38.5919L351.557 44.5043C351.93 52.4218 350.39 52.34 349.694 44.4053L349.166 38.3939L334.814 28.4484C318.978 17.4752 317.905 16.8572 318.541 19.079C318.773 19.8902 319.191 23.3533 319.471 26.775L319.98 32.9963L335.629 44.0244C344.236 50.0897 351.453 55.049 351.666 55.0451C351.88 55.0389 363.753 51.4467 378.051 47.0571ZM417.06 37.5814C421.23 36.3713 424.548 35.1304 424.433 34.8237C424.212 34.2344 407.915 23.364 406.356 22.766C405.681 22.5071 405.529 24.4924 405.772 30.4051C406.159 39.8219 406.353 40.6248 408.131 40.1454C408.872 39.9453 412.891 38.7915 417.06 37.5814ZM374.171 30.0274C386.335 26.3833 397.844 22.9897 399.746 22.4863C402.8 21.678 403.027 21.4753 401.686 20.7529C400.851 20.303 393.807 15.7675 386.034 10.6739L371.901 1.41307L347.234 8.5647C333.666 12.4981 322.13 15.9459 321.597 16.2264C320.481 16.8132 349.99 37.4438 351.253 36.96C351.694 36.7911 362.007 33.6715 374.171 30.0274ZM693.306 184.481L672.936 171.271L672.947 163.007C672.954 158.462 673.216 154.379 673.529 153.935C673.843 153.491 680.211 150.901 687.68 148.18C695.149 145.458 702.259 142.818 703.48 142.312C705.565 141.447 705.082 141.238 695.508 138.859L685.317 136.326L685.813 133.512C687.378 124.639 689.145 116.909 689.728 116.385C690.095 116.055 695.786 115.232 702.374 114.556L714.353 113.327L742.641 120.246C758.2 124.051 771.083 127.318 771.272 127.506C771.571 127.806 768.896 142.525 767.922 145.932C767.642 146.91 765.39 147.538 758.187 148.647L748.816 150.089L757.132 155.098L765.447 160.106L764.895 169.059C764.592 173.984 764.272 178.092 764.183 178.189C764.039 178.347 716.329 196.809 714.452 197.433C714.025 197.575 704.51 191.746 693.306 184.481ZM713.288 187.464V179.463L694.082 167.318L674.876 155.173L674.652 162.657C674.492 167.999 674.714 170.415 675.428 171.1C676.33 171.964 712.631 195.439 713.094 195.457C713.201 195.463 713.288 191.864 713.288 187.464ZM739.051 186.443C751.984 181.481 762.664 177.338 762.785 177.238C762.906 177.137 763.219 173.548 763.48 169.262L763.955 161.468L739.982 170.549C716.812 179.326 715.992 179.707 715.516 181.924C714.94 184.607 714.678 195.465 715.189 195.465C715.381 195.465 726.119 191.405 739.051 186.443ZM732.751 171.513C742.746 167.725 753.195 163.829 755.969 162.856C758.743 161.882 761.295 160.842 761.64 160.545C762.647 159.678 746.459 150.479 743.887 150.456C742.636 150.445 734.237 148.577 725.221 146.305L708.83 142.174L693.017 147.874C684.319 151.009 676.893 153.679 676.512 153.807C676.132 153.935 681.37 157.493 688.153 161.714C694.935 165.935 703.627 171.412 707.468 173.885C711.309 176.359 714.48 178.386 714.514 178.391C714.549 178.397 722.755 175.301 732.751 171.513ZM742.972 147.956C743.687 146.04 746.154 131.876 745.827 131.564C745.294 131.056 691.348 117.852 691.045 118.156C690.576 118.624 687.432 134.978 687.759 135.25C688.131 135.56 740.459 148.751 741.724 148.854C742.211 148.893 742.773 148.489 742.972 147.956ZM756.952 147.478C761.975 146.695 766.215 145.915 766.376 145.745C766.805 145.289 769.986 129.324 769.704 129.042C769.387 128.725 748.285 131.521 747.898 131.931C747.559 132.291 745.105 146.321 745.105 147.898C745.105 149.219 745.985 149.188 756.952 147.478ZM760.237 128.406L766.445 127.512L740.407 121.126L714.369 114.739L704.711 115.811C699.398 116.401 695.576 117.11 696.216 117.386C696.856 117.662 708.555 120.643 722.212 124.01C748.64 130.525 746.91 130.325 760.237 128.406Z" fill="#D0C3B4"/>
<path d="M364.977 140.365C380.704 135.23 393.571 130.751 393.571 130.412C393.571 130.073 392.626 129.301 391.472 128.695C390.317 128.09 382.757 122.774 374.671 116.882L359.969 106.17L333.895 114.428C319.555 118.97 306.655 123.043 305.228 123.479C303.802 123.915 302.931 124.568 303.294 124.931C305.167 126.803 335.084 149.665 335.683 149.682C336.068 149.692 349.251 145.5 364.977 140.365Z" fill="#8EA365"/>
<path d="M273.677 212.506C290.322 206.838 304.23 201.95 304.583 201.643C304.936 201.336 304.063 200.273 302.643 199.28C301.223 198.288 293.658 192.224 285.833 185.805C278.007 179.386 271.197 174.168 270.7 174.21C269.777 174.289 209.549 194.064 208.923 194.494C208.734 194.625 209.945 195.857 211.615 197.231C213.286 198.606 220.751 205.066 228.205 211.588C235.659 218.109 242.13 223.302 242.585 223.127C243.04 222.953 257.032 218.173 273.677 212.506Z" fill="#8EA365"/>
<path d="M443.041 217.103C458.94 211.388 471.948 206.506 471.948 206.254C471.948 206.003 471.163 205.439 470.202 205.001C469.242 204.564 460.89 198.574 451.643 191.691L434.83 179.176L410.514 187.599C397.141 192.232 383.857 196.793 380.994 197.735L375.79 199.447L394.163 213.762C404.269 221.635 412.896 227.946 413.336 227.786C413.776 227.626 427.143 222.819 443.041 217.103Z" fill="#8EA365"/>
<path d="M374.171 30.0274C386.335 26.3833 397.844 22.9897 399.746 22.4863C402.8 21.678 403.027 21.4753 401.686 20.7529C400.851 20.303 393.807 15.7675 386.034 10.6739L371.901 1.41307L347.234 8.5647C333.666 12.4981 322.13 15.9459 321.597 16.2264C320.481 16.8132 349.99 37.4438 351.253 36.96C351.694 36.7911 362.007 33.6715 374.171 30.0274Z" fill="#8EA365"/>
<defs>
<filter id="filter0_d_303_829" x="252.609" y="255.154" width="414.184" height="174.019" filterUnits="userSpaceOnUse" color-interpolation-filters="sRGB">
<feFlood flood-opacity="0" result="BackgroundImageFix"/>
<feColorMatrix in="SourceAlpha" type="matrix" values="0 0 0 0 0 0 0 0 0 0 0 0 0 0 0 0 0 0 127 0" result="hardAlpha"/>
<feOffset dy="4"/>
<feGaussianBlur stdDeviation="2"/>
<feComposite in2="hardAlpha" operator="out"/>
<feColorMatrix type="matrix" values="0 0 0 0 0 0 0 0 0 0 0 0 0 0 0 0 0 0 0.25 0"/>
<feBlend mode="normal" in2="BackgroundImageFix" result="effect1_dropShadow_303_829"/>
<feBlend mode="normal" in="SourceGraphic" in2="effect1_dropShadow_303_829" result="shape"/>
</filter>
</defs>
</svg>
