<svg width="183" height="183" viewBox="0 0 183 183" fill="none" xmlns="http://www.w3.org/2000/svg">
<path opacity="0.7" d="M0.5 181.535V0.5H181.97V181.535H0.5Z" stroke="#8EA365"/>
<path d="M137.5 168.5L15 86" stroke="#FEFEFE" stroke-width="3" stroke-linecap="round"/>
<path d="M32.6218 156.655C32.9833 156.863 33.4457 156.74 33.6545 156.378L37.058 150.488C37.2668 150.126 37.1431 149.664 36.7816 149.455C36.4201 149.246 35.9578 149.37 35.7489 149.731L32.7237 154.967L27.4876 151.942C27.1261 151.733 26.6637 151.857 26.4549 152.218C26.246 152.58 26.3698 153.042 26.7312 153.251L32.6218 156.655ZM13.2698 85.1954L13.4677 85.935L14.9281 85.5442L14.7302 84.8046L13.2698 85.1954ZM14.6552 90.3725L15.051 91.8517L16.5115 91.4608L16.1156 89.9817L14.6552 90.3725ZM16.2385 96.2892L16.6344 97.7683L18.0948 97.3775L17.699 95.8983L16.2385 96.2892ZM17.8219 102.206L18.2177 103.685L19.6781 103.294L19.2823 101.815L17.8219 102.206ZM19.4052 108.122L19.801 109.602L21.2615 109.211L20.8656 107.732L19.4052 108.122ZM20.9885 114.039L21.3844 115.518L22.8448 115.128L22.449 113.648L20.9885 114.039ZM22.5719 119.956L22.9677 121.435L24.4281 121.044L24.0323 119.565L22.5719 119.956ZM24.1552 125.872L24.551 127.352L26.0115 126.961L25.6156 125.482L24.1552 125.872ZM25.7385 131.789L26.1344 133.268L27.5948 132.878L27.199 131.398L25.7385 131.789ZM27.3219 137.706L27.7177 139.185L29.1781 138.794L28.7823 137.315L27.3219 137.706ZM28.9052 143.622L29.301 145.102L30.7615 144.711L30.3656 143.232L28.9052 143.622ZM30.4885 149.539L30.8844 151.018L32.3448 150.628L31.949 149.148L30.4885 149.539ZM32.0719 155.456L32.2698 156.195L33.7302 155.805L33.5323 155.065L32.0719 155.456Z" fill="#FEFEFE"/>
<path d="M104.786 75.141C105.044 74.8132 104.988 74.3379 104.66 74.0793L99.3186 69.8664C98.9908 69.6078 98.5155 69.664 98.257 69.9918C97.9985 70.3196 98.0546 70.7949 98.3824 71.0534L103.131 74.7983L99.3857 79.5464C99.1272 79.8742 99.1833 80.3495 99.5111 80.6081C99.8389 80.8666 100.314 80.8104 100.573 80.4826L104.786 75.141ZM13.8912 86.1014L14.6444 86.0125L14.4671 84.5111L13.7138 84.6001L13.8912 86.1014ZM19.1639 85.4786L20.6704 85.3006L20.493 83.7992L18.9865 83.9772L19.1639 85.4786ZM25.1899 84.7667L26.6964 84.5887L26.519 83.0874L25.0125 83.2653L25.1899 84.7667ZM31.2159 84.0548L32.7224 83.8769L32.545 82.3755L31.0385 82.5535L31.2159 84.0548ZM37.2418 83.343L38.7483 83.165L38.571 81.6637L37.0645 81.8416L37.2418 83.343ZM43.2678 82.6311L44.7743 82.4532L44.597 80.9518L43.0905 81.1298L43.2678 82.6311ZM49.2938 81.9193L50.8003 81.7413L50.6229 80.2399L49.1164 80.4179L49.2938 81.9193ZM55.3198 81.2074L56.8263 81.0294L56.6489 79.5281L55.1424 79.706L55.3198 81.2074ZM61.3458 80.4955L62.8523 80.3176L62.6749 78.8162L61.1684 78.9942L61.3458 80.4955ZM67.3717 79.7837L68.8782 79.6057L68.7009 78.1043L67.1944 78.2823L67.3717 79.7837ZM73.3977 79.0718L74.9042 78.8939L74.7269 77.3925L73.2204 77.5705L73.3977 79.0718ZM79.4237 78.36L80.9302 78.182L80.7528 76.6806L79.2464 76.8586L79.4237 78.36ZM85.4497 77.6481L86.9562 77.4701L86.7788 75.9688L85.2723 76.1467L85.4497 77.6481ZM91.4757 76.9362L92.9822 76.7583L92.8048 75.2569L91.2983 75.4349L91.4757 76.9362ZM97.5016 76.2244L99.0081 76.0464L98.8308 74.545L97.3243 74.723L97.5016 76.2244ZM103.528 75.5125L104.281 75.4235L104.104 73.9222L103.35 74.0111L103.528 75.5125Z" fill="#FEFEFE"/>
<path d="M76.7535 33.06C76.7867 32.6439 76.4762 32.2796 76.06 32.2465L69.2783 31.7063C68.8622 31.6732 68.498 31.9837 68.4648 32.3999C68.4317 32.816 68.7422 33.1802 69.1583 33.2134L75.1865 33.6935L74.7063 39.7217C74.6732 40.1378 74.9837 40.502 75.3999 40.5352C75.816 40.5683 76.1802 40.2578 76.2134 39.8417L76.7535 33.06ZM15.4904 85.5753L16.0769 85.0753L15.0962 83.9247L14.5096 84.4247L15.4904 85.5753ZM19.5962 82.0753L20.7692 81.0753L19.7885 79.9247L18.6154 80.9247L19.5962 82.0753ZM24.2885 78.0753L25.4615 77.0753L24.4808 75.9247L23.3077 76.9247L24.2885 78.0753ZM28.9808 74.0753L30.1538 73.0753L29.1731 71.9247L28 72.9247L28.9808 74.0753ZM33.6731 70.0753L34.8462 69.0753L33.8654 67.9247L32.6923 68.9247L33.6731 70.0753ZM38.3654 66.0753L39.5385 65.0753L38.5577 63.9247L37.3846 64.9247L38.3654 66.0753ZM43.0577 62.0753L44.2308 61.0753L43.25 59.9247L42.0769 60.9247L43.0577 62.0753ZM47.75 58.0753L48.9231 57.0753L47.9423 55.9247L46.7692 56.9247L47.75 58.0753ZM52.4423 54.0753L53.6154 53.0753L52.6346 51.9248L51.4615 52.9247L52.4423 54.0753ZM57.1346 50.0753L58.3077 49.0753L57.3269 47.9248L56.1538 48.9247L57.1346 50.0753ZM61.8269 46.0753L63 45.0753L62.0192 43.9248L60.8461 44.9248L61.8269 46.0753ZM66.5192 42.0753L67.6923 41.0753L66.7115 39.9247L65.5385 40.9247L66.5192 42.0753ZM71.2115 38.0753L72.3846 37.0753L71.4038 35.9247L70.2308 36.9247L71.2115 38.0753ZM75.9038 34.0753L76.4904 33.5753L75.5096 32.4247L74.9231 32.9247L75.9038 34.0753Z" fill="#FEFEFE"/>
<path opacity="0.7" d="M13.5 169.53V14.5H168.903V169.53H13.5Z" stroke="#8EA365"/>
</svg>
