<svg width="65" height="1408" viewBox="0 0 65 1408" fill="none" xmlns="http://www.w3.org/2000/svg">
<rect x="64.1667" width="4.33009" height="4.27778" transform="rotate(90 64.1667 0)" fill="#D0C3B4"/>
<rect x="64.1667" y="19.4854" width="4.33009" height="4.27778" transform="rotate(90 64.1667 19.4854)" fill="#D0C3B4"/>
<rect x="64.1667" y="38.9709" width="4.33009" height="4.27778" transform="rotate(90 64.1667 38.9709)" fill="#D0C3B4"/>
<rect x="64.1667" y="58.4563" width="4.33009" height="4.27778" transform="rotate(90 64.1667 58.4563)" fill="#D0C3B4"/>
<rect x="64.1667" y="77.9417" width="4.33009" height="4.27778" transform="rotate(90 64.1667 77.9417)" fill="#D0C3B4"/>
<rect x="64.1667" y="97.427" width="4.33009" height="4.27778" transform="rotate(90 64.1667 97.427)" fill="#D0C3B4"/>
<rect x="64.1667" y="116.913" width="4.33009" height="4.27778" transform="rotate(90 64.1667 116.913)" fill="#D0C3B4"/>
<rect x="64.1667" y="136.398" width="4.33009" height="4.27778" transform="rotate(90 64.1667 136.398)" fill="#D0C3B4"/>
<rect x="64.1667" y="155.883" width="4.33009" height="4.27778" transform="rotate(90 64.1667 155.883)" fill="#D0C3B4"/>
<rect x="64.1667" y="175.369" width="4.33009" height="4.27778" transform="rotate(90 64.1667 175.369)" fill="#D0C3B4"/>
<rect x="64.1667" y="194.854" width="4.33009" height="4.27778" transform="rotate(90 64.1667 194.854)" fill="#D0C3B4"/>
<rect x="64.1667" y="214.34" width="4.33009" height="4.27778" transform="rotate(90 64.1667 214.34)" fill="#D0C3B4"/>
<rect x="64.1667" y="233.825" width="4.33009" height="4.27778" transform="rotate(90 64.1667 233.825)" fill="#D0C3B4"/>
<rect x="64.1667" y="253.31" width="4.33009" height="4.27778" transform="rotate(90 64.1667 253.31)" fill="#D0C3B4"/>
<rect x="64.1667" y="272.796" width="4.33009" height="4.27778" transform="rotate(90 64.1667 272.796)" fill="#D0C3B4"/>
<rect x="64.1667" y="292.281" width="4.33009" height="4.27778" transform="rotate(90 64.1667 292.281)" fill="#D0C3B4"/>
<rect x="64.1667" y="311.767" width="4.33009" height="4.27778" transform="rotate(90 64.1667 311.767)" fill="#D0C3B4"/>
<rect x="64.1667" y="331.252" width="4.33009" height="4.27778" transform="rotate(90 64.1667 331.252)" fill="#D0C3B4"/>
<rect x="64.1667" y="350.737" width="4.33009" height="4.27778" transform="rotate(90 64.1667 350.737)" fill="#D0C3B4"/>
<rect x="64.1667" y="370.223" width="4.33009" height="4.27778" transform="rotate(90 64.1667 370.223)" fill="#D0C3B4"/>
<rect x="64.1667" y="389.708" width="4.33009" height="4.27778" transform="rotate(90 64.1667 389.708)" fill="#D0C3B4"/>
<rect x="64.1667" y="409.194" width="4.33009" height="4.27778" transform="rotate(90 64.1667 409.194)" fill="#D0C3B4"/>
<rect x="64.1667" y="428.679" width="4.33009" height="4.27778" transform="rotate(90 64.1667 428.679)" fill="#D0C3B4"/>
<rect x="64.1667" y="448.165" width="4.33009" height="4.27778" transform="rotate(90 64.1667 448.165)" fill="#D0C3B4"/>
<rect x="64.1667" y="467.65" width="4.33009" height="4.27778" transform="rotate(90 64.1667 467.65)" fill="#D0C3B4"/>
<rect x="64.1667" y="487.135" width="4.33009" height="4.27778" transform="rotate(90 64.1667 487.135)" fill="#D0C3B4"/>
<rect x="64.1667" y="506.621" width="4.33009" height="4.27778" transform="rotate(90 64.1667 506.621)" fill="#D0C3B4"/>
<rect x="64.1667" y="526.106" width="4.33009" height="4.27778" transform="rotate(90 64.1667 526.106)" fill="#D0C3B4"/>
<rect x="64.1667" y="545.592" width="4.33009" height="4.27778" transform="rotate(90 64.1667 545.592)" fill="#D0C3B4"/>
<rect x="64.1667" y="565.077" width="4.33009" height="4.27778" transform="rotate(90 64.1667 565.077)" fill="#D0C3B4"/>
<rect x="64.1667" y="584.562" width="4.33009" height="4.27778" transform="rotate(90 64.1667 584.562)" fill="#D0C3B4"/>
<rect x="64.1667" y="604.048" width="4.33009" height="4.27778" transform="rotate(90 64.1667 604.048)" fill="#D0C3B4"/>
<rect x="64.1667" y="623.533" width="4.33009" height="4.27778" transform="rotate(90 64.1667 623.533)" fill="#D0C3B4"/>
<rect x="64.1667" y="643.019" width="4.33009" height="4.27778" transform="rotate(90 64.1667 643.019)" fill="#D0C3B4"/>
<rect x="64.1667" y="662.504" width="4.33009" height="4.27778" transform="rotate(90 64.1667 662.504)" fill="#D0C3B4"/>
<rect x="64.1667" y="681.99" width="4.33009" height="4.27778" transform="rotate(90 64.1667 681.99)" fill="#D0C3B4"/>
<rect x="64.1667" y="701.475" width="4.33009" height="4.27778" transform="rotate(90 64.1667 701.475)" fill="#D0C3B4"/>
<rect x="64.1667" y="720.96" width="4.33009" height="4.27778" transform="rotate(90 64.1667 720.96)" fill="#D0C3B4"/>
<rect x="64.1667" y="740.446" width="4.33009" height="4.27778" transform="rotate(90 64.1667 740.446)" fill="#D0C3B4"/>
<rect x="64.1667" y="759.931" width="4.33009" height="4.27778" transform="rotate(90 64.1667 759.931)" fill="#D0C3B4"/>
<rect x="64.1667" y="1091" width="4.33009" height="4.27778" transform="rotate(90 64.1667 1091)" fill="#D0C3B4"/>
<rect x="64.1667" y="779.417" width="4.33009" height="4.27778" transform="rotate(90 64.1667 779.417)" fill="#D0C3B4"/>
<rect x="64.1667" y="1110.49" width="4.33009" height="4.27778" transform="rotate(90 64.1667 1110.49)" fill="#D0C3B4"/>
<rect x="64.1667" y="798.902" width="4.33009" height="4.27778" transform="rotate(90 64.1667 798.902)" fill="#D0C3B4"/>
<rect x="64.1667" y="1129.97" width="4.33009" height="4.27778" transform="rotate(90 64.1667 1129.97)" fill="#D0C3B4"/>
<rect x="64.1667" y="818.387" width="4.33009" height="4.27778" transform="rotate(90 64.1667 818.387)" fill="#D0C3B4"/>
<rect x="64.1667" y="1149.46" width="4.33009" height="4.27778" transform="rotate(90 64.1667 1149.46)" fill="#D0C3B4"/>
<rect x="64.1667" y="837.873" width="4.33009" height="4.27778" transform="rotate(90 64.1667 837.873)" fill="#D0C3B4"/>
<rect x="64.1667" y="1168.94" width="4.33009" height="4.27778" transform="rotate(90 64.1667 1168.94)" fill="#D0C3B4"/>
<rect x="64.1667" y="857.358" width="4.33009" height="4.27778" transform="rotate(90 64.1667 857.358)" fill="#D0C3B4"/>
<rect x="64.1667" y="1188.43" width="4.33009" height="4.27778" transform="rotate(90 64.1667 1188.43)" fill="#D0C3B4"/>
<rect x="64.1667" y="876.844" width="4.33009" height="4.27778" transform="rotate(90 64.1667 876.844)" fill="#D0C3B4"/>
<rect x="64.1667" y="1207.91" width="4.33009" height="4.27778" transform="rotate(90 64.1667 1207.91)" fill="#D0C3B4"/>
<rect x="64.1666" y="896.329" width="4.33009" height="4.27778" transform="rotate(90 64.1666 896.329)" fill="#D0C3B4"/>
<rect x="64.1666" y="1227.4" width="4.33009" height="4.27778" transform="rotate(90 64.1666 1227.4)" fill="#D0C3B4"/>
<rect x="64.1666" y="915.814" width="4.33009" height="4.27778" transform="rotate(90 64.1666 915.814)" fill="#D0C3B4"/>
<rect x="64.1666" y="1246.88" width="4.33009" height="4.27778" transform="rotate(90 64.1666 1246.88)" fill="#D0C3B4"/>
<rect x="64.1666" y="935.3" width="4.33009" height="4.27778" transform="rotate(90 64.1666 935.3)" fill="#D0C3B4"/>
<rect x="64.1666" y="1266.37" width="4.33009" height="4.27778" transform="rotate(90 64.1666 1266.37)" fill="#D0C3B4"/>
<rect x="64.1666" y="954.785" width="4.33009" height="4.27778" transform="rotate(90 64.1666 954.785)" fill="#D0C3B4"/>
<rect x="64.1666" y="1285.85" width="4.33009" height="4.27778" transform="rotate(90 64.1666 1285.85)" fill="#D0C3B4"/>
<rect x="64.1666" y="974.271" width="4.33009" height="4.27778" transform="rotate(90 64.1666 974.271)" fill="#D0C3B4"/>
<rect x="64.1666" y="1305.34" width="4.33009" height="4.27778" transform="rotate(90 64.1666 1305.34)" fill="#D0C3B4"/>
<rect x="64.1666" y="993.756" width="4.33009" height="4.27778" transform="rotate(90 64.1666 993.756)" fill="#D0C3B4"/>
<rect x="64.1666" y="1324.82" width="4.33009" height="4.27778" transform="rotate(90 64.1666 1324.82)" fill="#D0C3B4"/>
<rect x="64.1666" y="1013.24" width="4.33009" height="4.27778" transform="rotate(90 64.1666 1013.24)" fill="#D0C3B4"/>
<rect x="64.1666" y="1344.31" width="4.33009" height="4.27778" transform="rotate(90 64.1666 1344.31)" fill="#D0C3B4"/>
<rect x="64.1666" y="1032.73" width="4.33009" height="4.27778" transform="rotate(90 64.1666 1032.73)" fill="#D0C3B4"/>
<rect x="64.1666" y="1363.8" width="4.33009" height="4.27778" transform="rotate(90 64.1666 1363.8)" fill="#D0C3B4"/>
<rect x="64.1666" y="1052.21" width="4.33009" height="4.27778" transform="rotate(90 64.1666 1052.21)" fill="#D0C3B4"/>
<rect x="64.1666" y="1383.28" width="4.33009" height="4.27778" transform="rotate(90 64.1666 1383.28)" fill="#D0C3B4"/>
<rect x="64.1666" y="1071.7" width="4.33009" height="4.27778" transform="rotate(90 64.1666 1071.7)" fill="#D0C3B4"/>
<rect x="64.1666" y="1402.77" width="4.33009" height="4.27778" transform="rotate(90 64.1666 1402.77)" fill="#D0C3B4"/>
<rect x="49.1949" width="4.33009" height="4.27778" transform="rotate(90 49.1949 0)" fill="#D0C3B4"/>
<rect x="49.1949" y="19.4854" width="4.33009" height="4.27778" transform="rotate(90 49.1949 19.4854)" fill="#D0C3B4"/>
<rect x="49.1949" y="38.9709" width="4.33009" height="4.27778" transform="rotate(90 49.1949 38.9709)" fill="#D0C3B4"/>
<rect x="49.1949" y="58.4563" width="4.33009" height="4.27778" transform="rotate(90 49.1949 58.4563)" fill="#D0C3B4"/>
<rect x="49.1949" y="77.9417" width="4.33009" height="4.27778" transform="rotate(90 49.1949 77.9417)" fill="#D0C3B4"/>
<rect x="49.1949" y="97.427" width="4.33009" height="4.27778" transform="rotate(90 49.1949 97.427)" fill="#D0C3B4"/>
<rect x="49.1949" y="116.913" width="4.33009" height="4.27778" transform="rotate(90 49.1949 116.913)" fill="#D0C3B4"/>
<rect x="49.1949" y="136.398" width="4.33009" height="4.27778" transform="rotate(90 49.1949 136.398)" fill="#D0C3B4"/>
<rect x="49.1949" y="155.883" width="4.33009" height="4.27778" transform="rotate(90 49.1949 155.883)" fill="#D0C3B4"/>
<rect x="49.1949" y="175.369" width="4.33009" height="4.27778" transform="rotate(90 49.1949 175.369)" fill="#D0C3B4"/>
<rect x="49.1949" y="194.854" width="4.33009" height="4.27778" transform="rotate(90 49.1949 194.854)" fill="#D0C3B4"/>
<rect x="49.1949" y="214.34" width="4.33009" height="4.27778" transform="rotate(90 49.1949 214.34)" fill="#D0C3B4"/>
<rect x="49.1949" y="233.825" width="4.33009" height="4.27778" transform="rotate(90 49.1949 233.825)" fill="#D0C3B4"/>
<rect x="49.1949" y="253.31" width="4.33009" height="4.27778" transform="rotate(90 49.1949 253.31)" fill="#D0C3B4"/>
<rect x="49.1949" y="272.796" width="4.33009" height="4.27778" transform="rotate(90 49.1949 272.796)" fill="#D0C3B4"/>
<rect x="49.1949" y="292.281" width="4.33009" height="4.27778" transform="rotate(90 49.1949 292.281)" fill="#D0C3B4"/>
<rect x="49.1949" y="311.767" width="4.33009" height="4.27778" transform="rotate(90 49.1949 311.767)" fill="#D0C3B4"/>
<rect x="49.1949" y="331.252" width="4.33009" height="4.27778" transform="rotate(90 49.1949 331.252)" fill="#D0C3B4"/>
<rect x="49.1949" y="350.737" width="4.33009" height="4.27778" transform="rotate(90 49.1949 350.737)" fill="#D0C3B4"/>
<rect x="49.1949" y="370.223" width="4.33009" height="4.27778" transform="rotate(90 49.1949 370.223)" fill="#D0C3B4"/>
<rect x="49.1949" y="389.708" width="4.33009" height="4.27778" transform="rotate(90 49.1949 389.708)" fill="#D0C3B4"/>
<rect x="49.1949" y="409.194" width="4.33009" height="4.27778" transform="rotate(90 49.1949 409.194)" fill="#D0C3B4"/>
<rect x="49.1949" y="428.679" width="4.33009" height="4.27778" transform="rotate(90 49.1949 428.679)" fill="#D0C3B4"/>
<rect x="49.1949" y="448.165" width="4.33009" height="4.27778" transform="rotate(90 49.1949 448.165)" fill="#D0C3B4"/>
<rect x="49.1949" y="467.65" width="4.33009" height="4.27778" transform="rotate(90 49.1949 467.65)" fill="#D0C3B4"/>
<rect x="49.1949" y="487.135" width="4.33009" height="4.27778" transform="rotate(90 49.1949 487.135)" fill="#D0C3B4"/>
<rect x="49.1949" y="506.621" width="4.33009" height="4.27778" transform="rotate(90 49.1949 506.621)" fill="#D0C3B4"/>
<rect x="49.1949" y="526.106" width="4.33009" height="4.27778" transform="rotate(90 49.1949 526.106)" fill="#D0C3B4"/>
<rect x="49.1949" y="545.592" width="4.33009" height="4.27778" transform="rotate(90 49.1949 545.592)" fill="#D0C3B4"/>
<rect x="49.1949" y="565.077" width="4.33009" height="4.27778" transform="rotate(90 49.1949 565.077)" fill="#D0C3B4"/>
<rect x="49.1949" y="584.562" width="4.33009" height="4.27778" transform="rotate(90 49.1949 584.562)" fill="#D0C3B4"/>
<rect x="49.1949" y="604.048" width="4.33009" height="4.27778" transform="rotate(90 49.1949 604.048)" fill="#D0C3B4"/>
<rect x="49.1949" y="623.533" width="4.33009" height="4.27778" transform="rotate(90 49.1949 623.533)" fill="#D0C3B4"/>
<rect x="49.1949" y="643.019" width="4.33009" height="4.27778" transform="rotate(90 49.1949 643.019)" fill="#D0C3B4"/>
<rect x="49.1949" y="662.504" width="4.33009" height="4.27778" transform="rotate(90 49.1949 662.504)" fill="#D0C3B4"/>
<rect x="49.1949" y="681.99" width="4.33009" height="4.27778" transform="rotate(90 49.1949 681.99)" fill="#D0C3B4"/>
<rect x="49.1949" y="701.475" width="4.33009" height="4.27778" transform="rotate(90 49.1949 701.475)" fill="#D0C3B4"/>
<rect x="49.1949" y="720.96" width="4.33009" height="4.27778" transform="rotate(90 49.1949 720.96)" fill="#D0C3B4"/>
<rect x="49.1949" y="740.446" width="4.33009" height="4.27778" transform="rotate(90 49.1949 740.446)" fill="#D0C3B4"/>
<rect x="49.1949" y="759.931" width="4.33009" height="4.27778" transform="rotate(90 49.1949 759.931)" fill="#D0C3B4"/>
<rect x="49.1949" y="1091" width="4.33009" height="4.27778" transform="rotate(90 49.1949 1091)" fill="#D0C3B4"/>
<rect x="49.1949" y="779.417" width="4.33009" height="4.27778" transform="rotate(90 49.1949 779.417)" fill="#D0C3B4"/>
<rect x="49.1949" y="1110.49" width="4.33009" height="4.27778" transform="rotate(90 49.1949 1110.49)" fill="#D0C3B4"/>
<rect x="49.1949" y="798.902" width="4.33009" height="4.27778" transform="rotate(90 49.1949 798.902)" fill="#D0C3B4"/>
<rect x="49.1949" y="1129.97" width="4.33009" height="4.27778" transform="rotate(90 49.1949 1129.97)" fill="#D0C3B4"/>
<rect x="49.1949" y="818.387" width="4.33009" height="4.27778" transform="rotate(90 49.1949 818.387)" fill="#D0C3B4"/>
<rect x="49.1949" y="1149.46" width="4.33009" height="4.27778" transform="rotate(90 49.1949 1149.46)" fill="#D0C3B4"/>
<rect x="49.1949" y="837.873" width="4.33009" height="4.27778" transform="rotate(90 49.1949 837.873)" fill="#D0C3B4"/>
<rect x="49.1949" y="1168.94" width="4.33009" height="4.27778" transform="rotate(90 49.1949 1168.94)" fill="#D0C3B4"/>
<rect x="49.1949" y="857.358" width="4.33009" height="4.27778" transform="rotate(90 49.1949 857.358)" fill="#D0C3B4"/>
<rect x="49.1949" y="1188.43" width="4.33009" height="4.27778" transform="rotate(90 49.1949 1188.43)" fill="#D0C3B4"/>
<rect x="49.1949" y="876.844" width="4.33009" height="4.27778" transform="rotate(90 49.1949 876.844)" fill="#D0C3B4"/>
<rect x="49.1949" y="1207.91" width="4.33009" height="4.27778" transform="rotate(90 49.1949 1207.91)" fill="#D0C3B4"/>
<rect x="49.1949" y="896.329" width="4.33009" height="4.27778" transform="rotate(90 49.1949 896.329)" fill="#D0C3B4"/>
<rect x="49.1949" y="1227.4" width="4.33009" height="4.27778" transform="rotate(90 49.1949 1227.4)" fill="#D0C3B4"/>
<rect x="49.1949" y="915.814" width="4.33009" height="4.27778" transform="rotate(90 49.1949 915.814)" fill="#D0C3B4"/>
<rect x="49.1949" y="1246.88" width="4.33009" height="4.27778" transform="rotate(90 49.1949 1246.88)" fill="#D0C3B4"/>
<rect x="49.1949" y="935.3" width="4.33009" height="4.27778" transform="rotate(90 49.1949 935.3)" fill="#D0C3B4"/>
<rect x="49.1949" y="1266.37" width="4.33009" height="4.27778" transform="rotate(90 49.1949 1266.37)" fill="#D0C3B4"/>
<rect x="49.1949" y="954.785" width="4.33009" height="4.27778" transform="rotate(90 49.1949 954.785)" fill="#D0C3B4"/>
<rect x="49.1949" y="1285.85" width="4.33009" height="4.27778" transform="rotate(90 49.1949 1285.85)" fill="#D0C3B4"/>
<rect x="49.1949" y="974.271" width="4.33009" height="4.27778" transform="rotate(90 49.1949 974.271)" fill="#D0C3B4"/>
<rect x="49.1949" y="1305.34" width="4.33009" height="4.27778" transform="rotate(90 49.1949 1305.34)" fill="#D0C3B4"/>
<rect x="49.1949" y="993.756" width="4.33009" height="4.27778" transform="rotate(90 49.1949 993.756)" fill="#D0C3B4"/>
<rect x="49.1949" y="1324.82" width="4.33009" height="4.27778" transform="rotate(90 49.1949 1324.82)" fill="#D0C3B4"/>
<rect x="49.1949" y="1013.24" width="4.33009" height="4.27778" transform="rotate(90 49.1949 1013.24)" fill="#D0C3B4"/>
<rect x="49.1949" y="1344.31" width="4.33009" height="4.27778" transform="rotate(90 49.1949 1344.31)" fill="#D0C3B4"/>
<rect x="49.1949" y="1032.73" width="4.33009" height="4.27778" transform="rotate(90 49.1949 1032.73)" fill="#D0C3B4"/>
<rect x="49.1949" y="1363.8" width="4.33009" height="4.27778" transform="rotate(90 49.1949 1363.8)" fill="#D0C3B4"/>
<rect x="49.1949" y="1052.21" width="4.33009" height="4.27778" transform="rotate(90 49.1949 1052.21)" fill="#D0C3B4"/>
<rect x="49.1949" y="1383.28" width="4.33009" height="4.27778" transform="rotate(90 49.1949 1383.28)" fill="#D0C3B4"/>
<rect x="49.1949" y="1071.7" width="4.33009" height="4.27778" transform="rotate(90 49.1949 1071.7)" fill="#D0C3B4"/>
<rect x="49.1949" y="1402.77" width="4.33009" height="4.27778" transform="rotate(90 49.1949 1402.77)" fill="#D0C3B4"/>
<rect x="34.2225" width="4.33009" height="4.27778" transform="rotate(90 34.2225 0)" fill="#D0C3B4"/>
<rect x="34.2225" y="19.4854" width="4.33009" height="4.27778" transform="rotate(90 34.2225 19.4854)" fill="#D0C3B4"/>
<rect x="34.2225" y="38.9709" width="4.33009" height="4.27778" transform="rotate(90 34.2225 38.9709)" fill="#D0C3B4"/>
<rect x="34.2225" y="58.4563" width="4.33009" height="4.27778" transform="rotate(90 34.2225 58.4563)" fill="#D0C3B4"/>
<rect x="34.2225" y="77.9417" width="4.33009" height="4.27778" transform="rotate(90 34.2225 77.9417)" fill="#D0C3B4"/>
<rect x="34.2225" y="97.427" width="4.33009" height="4.27778" transform="rotate(90 34.2225 97.427)" fill="#D0C3B4"/>
<rect x="34.2225" y="116.913" width="4.33009" height="4.27778" transform="rotate(90 34.2225 116.913)" fill="#D0C3B4"/>
<rect x="34.2225" y="136.398" width="4.33009" height="4.27778" transform="rotate(90 34.2225 136.398)" fill="#D0C3B4"/>
<rect x="34.2225" y="155.883" width="4.33009" height="4.27778" transform="rotate(90 34.2225 155.883)" fill="#D0C3B4"/>
<rect x="34.2225" y="175.369" width="4.33009" height="4.27778" transform="rotate(90 34.2225 175.369)" fill="#D0C3B4"/>
<rect x="34.2225" y="194.854" width="4.33009" height="4.27778" transform="rotate(90 34.2225 194.854)" fill="#D0C3B4"/>
<rect x="34.2225" y="214.34" width="4.33009" height="4.27778" transform="rotate(90 34.2225 214.34)" fill="#D0C3B4"/>
<rect x="34.2225" y="233.825" width="4.33009" height="4.27778" transform="rotate(90 34.2225 233.825)" fill="#D0C3B4"/>
<rect x="34.2225" y="253.31" width="4.33009" height="4.27778" transform="rotate(90 34.2225 253.31)" fill="#D0C3B4"/>
<rect x="34.2225" y="272.796" width="4.33009" height="4.27778" transform="rotate(90 34.2225 272.796)" fill="#D0C3B4"/>
<rect x="34.2225" y="292.281" width="4.33009" height="4.27778" transform="rotate(90 34.2225 292.281)" fill="#D0C3B4"/>
<rect x="34.2225" y="311.767" width="4.33009" height="4.27778" transform="rotate(90 34.2225 311.767)" fill="#D0C3B4"/>
<rect x="34.2225" y="331.252" width="4.33009" height="4.27778" transform="rotate(90 34.2225 331.252)" fill="#D0C3B4"/>
<rect x="34.2225" y="350.737" width="4.33009" height="4.27778" transform="rotate(90 34.2225 350.737)" fill="#D0C3B4"/>
<rect x="34.2225" y="370.223" width="4.33009" height="4.27778" transform="rotate(90 34.2225 370.223)" fill="#D0C3B4"/>
<rect x="34.2225" y="389.708" width="4.33009" height="4.27778" transform="rotate(90 34.2225 389.708)" fill="#D0C3B4"/>
<rect x="34.2225" y="409.194" width="4.33009" height="4.27778" transform="rotate(90 34.2225 409.194)" fill="#D0C3B4"/>
<rect x="34.2225" y="428.679" width="4.33009" height="4.27778" transform="rotate(90 34.2225 428.679)" fill="#D0C3B4"/>
<rect x="34.2225" y="448.165" width="4.33009" height="4.27778" transform="rotate(90 34.2225 448.165)" fill="#D0C3B4"/>
<rect x="34.2225" y="467.65" width="4.33009" height="4.27778" transform="rotate(90 34.2225 467.65)" fill="#D0C3B4"/>
<rect x="34.2225" y="487.135" width="4.33009" height="4.27778" transform="rotate(90 34.2225 487.135)" fill="#D0C3B4"/>
<rect x="34.2225" y="506.621" width="4.33009" height="4.27778" transform="rotate(90 34.2225 506.621)" fill="#D0C3B4"/>
<rect x="34.2225" y="526.106" width="4.33009" height="4.27778" transform="rotate(90 34.2225 526.106)" fill="#D0C3B4"/>
<rect x="34.2225" y="545.592" width="4.33009" height="4.27778" transform="rotate(90 34.2225 545.592)" fill="#D0C3B4"/>
<rect x="34.2225" y="565.077" width="4.33009" height="4.27778" transform="rotate(90 34.2225 565.077)" fill="#D0C3B4"/>
<rect x="34.2225" y="584.562" width="4.33009" height="4.27778" transform="rotate(90 34.2225 584.562)" fill="#D0C3B4"/>
<rect x="34.2225" y="604.048" width="4.33009" height="4.27778" transform="rotate(90 34.2225 604.048)" fill="#D0C3B4"/>
<rect x="34.2225" y="623.533" width="4.33009" height="4.27778" transform="rotate(90 34.2225 623.533)" fill="#D0C3B4"/>
<rect x="34.2225" y="643.019" width="4.33009" height="4.27778" transform="rotate(90 34.2225 643.019)" fill="#D0C3B4"/>
<rect x="34.2225" y="662.504" width="4.33009" height="4.27778" transform="rotate(90 34.2225 662.504)" fill="#D0C3B4"/>
<rect x="34.2225" y="681.99" width="4.33009" height="4.27778" transform="rotate(90 34.2225 681.99)" fill="#D0C3B4"/>
<rect x="34.2225" y="701.475" width="4.33009" height="4.27778" transform="rotate(90 34.2225 701.475)" fill="#D0C3B4"/>
<rect x="34.2225" y="720.96" width="4.33009" height="4.27778" transform="rotate(90 34.2225 720.96)" fill="#D0C3B4"/>
<rect x="34.2225" y="740.446" width="4.33009" height="4.27778" transform="rotate(90 34.2225 740.446)" fill="#D0C3B4"/>
<rect x="34.2225" y="759.931" width="4.33009" height="4.27778" transform="rotate(90 34.2225 759.931)" fill="#D0C3B4"/>
<rect x="34.2225" y="1091" width="4.33009" height="4.27778" transform="rotate(90 34.2225 1091)" fill="#D0C3B4"/>
<rect x="34.2225" y="779.417" width="4.33009" height="4.27778" transform="rotate(90 34.2225 779.417)" fill="#D0C3B4"/>
<rect x="34.2225" y="1110.49" width="4.33009" height="4.27778" transform="rotate(90 34.2225 1110.49)" fill="#D0C3B4"/>
<rect x="34.2225" y="798.902" width="4.33009" height="4.27778" transform="rotate(90 34.2225 798.902)" fill="#D0C3B4"/>
<rect x="34.2225" y="1129.97" width="4.33009" height="4.27778" transform="rotate(90 34.2225 1129.97)" fill="#D0C3B4"/>
<rect x="34.2225" y="818.387" width="4.33009" height="4.27778" transform="rotate(90 34.2225 818.387)" fill="#D0C3B4"/>
<rect x="34.2225" y="1149.46" width="4.33009" height="4.27778" transform="rotate(90 34.2225 1149.46)" fill="#D0C3B4"/>
<rect x="34.2225" y="837.873" width="4.33009" height="4.27778" transform="rotate(90 34.2225 837.873)" fill="#D0C3B4"/>
<rect x="34.2225" y="1168.94" width="4.33009" height="4.27778" transform="rotate(90 34.2225 1168.94)" fill="#D0C3B4"/>
<rect x="34.2225" y="857.358" width="4.33009" height="4.27778" transform="rotate(90 34.2225 857.358)" fill="#D0C3B4"/>
<rect x="34.2225" y="1188.43" width="4.33009" height="4.27778" transform="rotate(90 34.2225 1188.43)" fill="#D0C3B4"/>
<rect x="34.2225" y="876.844" width="4.33009" height="4.27778" transform="rotate(90 34.2225 876.844)" fill="#D0C3B4"/>
<rect x="34.2225" y="1207.91" width="4.33009" height="4.27778" transform="rotate(90 34.2225 1207.91)" fill="#D0C3B4"/>
<rect x="34.2225" y="896.329" width="4.33009" height="4.27778" transform="rotate(90 34.2225 896.329)" fill="#D0C3B4"/>
<rect x="34.2225" y="1227.4" width="4.33009" height="4.27778" transform="rotate(90 34.2225 1227.4)" fill="#D0C3B4"/>
<rect x="34.2225" y="915.814" width="4.33009" height="4.27778" transform="rotate(90 34.2225 915.814)" fill="#D0C3B4"/>
<rect x="34.2225" y="1246.88" width="4.33009" height="4.27778" transform="rotate(90 34.2225 1246.88)" fill="#D0C3B4"/>
<rect x="34.2225" y="935.3" width="4.33009" height="4.27778" transform="rotate(90 34.2225 935.3)" fill="#D0C3B4"/>
<rect x="34.2225" y="1266.37" width="4.33009" height="4.27778" transform="rotate(90 34.2225 1266.37)" fill="#D0C3B4"/>
<rect x="34.2225" y="954.785" width="4.33009" height="4.27778" transform="rotate(90 34.2225 954.785)" fill="#D0C3B4"/>
<rect x="34.2225" y="1285.85" width="4.33009" height="4.27778" transform="rotate(90 34.2225 1285.85)" fill="#D0C3B4"/>
<rect x="34.2225" y="974.271" width="4.33009" height="4.27778" transform="rotate(90 34.2225 974.271)" fill="#D0C3B4"/>
<rect x="34.2225" y="1305.34" width="4.33009" height="4.27778" transform="rotate(90 34.2225 1305.34)" fill="#D0C3B4"/>
<rect x="34.2225" y="993.756" width="4.33009" height="4.27778" transform="rotate(90 34.2225 993.756)" fill="#D0C3B4"/>
<rect x="34.2225" y="1324.82" width="4.33009" height="4.27778" transform="rotate(90 34.2225 1324.82)" fill="#D0C3B4"/>
<rect x="34.2225" y="1013.24" width="4.33009" height="4.27778" transform="rotate(90 34.2225 1013.24)" fill="#D0C3B4"/>
<rect x="34.2225" y="1344.31" width="4.33009" height="4.27778" transform="rotate(90 34.2225 1344.31)" fill="#D0C3B4"/>
<rect x="34.2225" y="1032.73" width="4.33009" height="4.27778" transform="rotate(90 34.2225 1032.73)" fill="#D0C3B4"/>
<rect x="34.2225" y="1363.8" width="4.33009" height="4.27778" transform="rotate(90 34.2225 1363.8)" fill="#D0C3B4"/>
<rect x="34.2225" y="1052.21" width="4.33009" height="4.27778" transform="rotate(90 34.2225 1052.21)" fill="#D0C3B4"/>
<rect x="34.2225" y="1383.28" width="4.33009" height="4.27778" transform="rotate(90 34.2225 1383.28)" fill="#D0C3B4"/>
<rect x="34.2225" y="1071.7" width="4.33009" height="4.27778" transform="rotate(90 34.2225 1071.7)" fill="#D0C3B4"/>
<rect x="34.2225" y="1402.77" width="4.33009" height="4.27778" transform="rotate(90 34.2225 1402.77)" fill="#D0C3B4"/>
<rect x="19.2502" width="4.33009" height="4.27778" transform="rotate(90 19.2502 0)" fill="#D0C3B4"/>
<rect x="19.2502" y="19.4854" width="4.33009" height="4.27778" transform="rotate(90 19.2502 19.4854)" fill="#D0C3B4"/>
<rect x="19.2502" y="38.9709" width="4.33009" height="4.27778" transform="rotate(90 19.2502 38.9709)" fill="#D0C3B4"/>
<rect x="19.2502" y="58.4563" width="4.33009" height="4.27778" transform="rotate(90 19.2502 58.4563)" fill="#D0C3B4"/>
<rect x="19.2502" y="77.9417" width="4.33009" height="4.27778" transform="rotate(90 19.2502 77.9417)" fill="#D0C3B4"/>
<rect x="19.2502" y="97.427" width="4.33009" height="4.27778" transform="rotate(90 19.2502 97.427)" fill="#D0C3B4"/>
<rect x="19.2502" y="116.913" width="4.33009" height="4.27778" transform="rotate(90 19.2502 116.913)" fill="#D0C3B4"/>
<rect x="19.2502" y="136.398" width="4.33009" height="4.27778" transform="rotate(90 19.2502 136.398)" fill="#D0C3B4"/>
<rect x="19.2502" y="155.883" width="4.33009" height="4.27778" transform="rotate(90 19.2502 155.883)" fill="#D0C3B4"/>
<rect x="19.2502" y="175.369" width="4.33009" height="4.27778" transform="rotate(90 19.2502 175.369)" fill="#D0C3B4"/>
<rect x="19.2502" y="194.854" width="4.33009" height="4.27778" transform="rotate(90 19.2502 194.854)" fill="#D0C3B4"/>
<rect x="19.2502" y="214.34" width="4.33009" height="4.27778" transform="rotate(90 19.2502 214.34)" fill="#D0C3B4"/>
<rect x="19.2502" y="233.825" width="4.33009" height="4.27778" transform="rotate(90 19.2502 233.825)" fill="#D0C3B4"/>
<rect x="19.2502" y="253.31" width="4.33009" height="4.27778" transform="rotate(90 19.2502 253.31)" fill="#D0C3B4"/>
<rect x="19.2502" y="272.796" width="4.33009" height="4.27778" transform="rotate(90 19.2502 272.796)" fill="#D0C3B4"/>
<rect x="19.2502" y="292.281" width="4.33009" height="4.27778" transform="rotate(90 19.2502 292.281)" fill="#D0C3B4"/>
<rect x="19.2502" y="311.767" width="4.33009" height="4.27778" transform="rotate(90 19.2502 311.767)" fill="#D0C3B4"/>
<rect x="19.2502" y="331.252" width="4.33009" height="4.27778" transform="rotate(90 19.2502 331.252)" fill="#D0C3B4"/>
<rect x="19.2502" y="350.737" width="4.33009" height="4.27778" transform="rotate(90 19.2502 350.737)" fill="#D0C3B4"/>
<rect x="19.2502" y="370.223" width="4.33009" height="4.27778" transform="rotate(90 19.2502 370.223)" fill="#D0C3B4"/>
<rect x="19.2502" y="389.708" width="4.33009" height="4.27778" transform="rotate(90 19.2502 389.708)" fill="#D0C3B4"/>
<rect x="19.2502" y="409.194" width="4.33009" height="4.27778" transform="rotate(90 19.2502 409.194)" fill="#D0C3B4"/>
<rect x="19.2502" y="428.679" width="4.33009" height="4.27778" transform="rotate(90 19.2502 428.679)" fill="#D0C3B4"/>
<rect x="19.2502" y="448.165" width="4.33009" height="4.27778" transform="rotate(90 19.2502 448.165)" fill="#D0C3B4"/>
<rect x="19.2502" y="467.65" width="4.33009" height="4.27778" transform="rotate(90 19.2502 467.65)" fill="#D0C3B4"/>
<rect x="19.2502" y="487.135" width="4.33009" height="4.27778" transform="rotate(90 19.2502 487.135)" fill="#D0C3B4"/>
<rect x="19.2502" y="506.621" width="4.33009" height="4.27778" transform="rotate(90 19.2502 506.621)" fill="#D0C3B4"/>
<rect x="19.2502" y="526.106" width="4.33009" height="4.27778" transform="rotate(90 19.2502 526.106)" fill="#D0C3B4"/>
<rect x="19.2502" y="545.592" width="4.33009" height="4.27778" transform="rotate(90 19.2502 545.592)" fill="#D0C3B4"/>
<rect x="19.2502" y="565.077" width="4.33009" height="4.27778" transform="rotate(90 19.2502 565.077)" fill="#D0C3B4"/>
<rect x="19.2502" y="584.562" width="4.33009" height="4.27778" transform="rotate(90 19.2502 584.562)" fill="#D0C3B4"/>
<rect x="19.2502" y="604.048" width="4.33009" height="4.27778" transform="rotate(90 19.2502 604.048)" fill="#D0C3B4"/>
<rect x="19.2502" y="623.533" width="4.33009" height="4.27778" transform="rotate(90 19.2502 623.533)" fill="#D0C3B4"/>
<rect x="19.2502" y="643.019" width="4.33009" height="4.27778" transform="rotate(90 19.2502 643.019)" fill="#D0C3B4"/>
<rect x="19.2502" y="662.504" width="4.33009" height="4.27778" transform="rotate(90 19.2502 662.504)" fill="#D0C3B4"/>
<rect x="19.2502" y="681.99" width="4.33009" height="4.27778" transform="rotate(90 19.2502 681.99)" fill="#D0C3B4"/>
<rect x="19.2502" y="701.475" width="4.33009" height="4.27778" transform="rotate(90 19.2502 701.475)" fill="#D0C3B4"/>
<rect x="19.2502" y="720.96" width="4.33009" height="4.27778" transform="rotate(90 19.2502 720.96)" fill="#D0C3B4"/>
<rect x="19.2502" y="740.446" width="4.33009" height="4.27778" transform="rotate(90 19.2502 740.446)" fill="#D0C3B4"/>
<rect x="19.2502" y="759.931" width="4.33009" height="4.27778" transform="rotate(90 19.2502 759.931)" fill="#D0C3B4"/>
<rect x="19.2502" y="1091" width="4.33009" height="4.27778" transform="rotate(90 19.2502 1091)" fill="#D0C3B4"/>
<rect x="19.2502" y="779.417" width="4.33009" height="4.27778" transform="rotate(90 19.2502 779.417)" fill="#D0C3B4"/>
<rect x="19.2502" y="1110.49" width="4.33009" height="4.27778" transform="rotate(90 19.2502 1110.49)" fill="#D0C3B4"/>
<rect x="19.2502" y="798.902" width="4.33009" height="4.27778" transform="rotate(90 19.2502 798.902)" fill="#D0C3B4"/>
<rect x="19.2502" y="1129.97" width="4.33009" height="4.27778" transform="rotate(90 19.2502 1129.97)" fill="#D0C3B4"/>
<rect x="19.2502" y="818.387" width="4.33009" height="4.27778" transform="rotate(90 19.2502 818.387)" fill="#D0C3B4"/>
<rect x="19.2502" y="1149.46" width="4.33009" height="4.27778" transform="rotate(90 19.2502 1149.46)" fill="#D0C3B4"/>
<rect x="19.2502" y="837.873" width="4.33009" height="4.27778" transform="rotate(90 19.2502 837.873)" fill="#D0C3B4"/>
<rect x="19.2502" y="1168.94" width="4.33009" height="4.27778" transform="rotate(90 19.2502 1168.94)" fill="#D0C3B4"/>
<rect x="19.2502" y="857.358" width="4.33009" height="4.27778" transform="rotate(90 19.2502 857.358)" fill="#D0C3B4"/>
<rect x="19.2502" y="1188.43" width="4.33009" height="4.27778" transform="rotate(90 19.2502 1188.43)" fill="#D0C3B4"/>
<rect x="19.2502" y="876.844" width="4.33009" height="4.27778" transform="rotate(90 19.2502 876.844)" fill="#D0C3B4"/>
<rect x="19.2502" y="1207.91" width="4.33009" height="4.27778" transform="rotate(90 19.2502 1207.91)" fill="#D0C3B4"/>
<rect x="19.2502" y="896.329" width="4.33009" height="4.27778" transform="rotate(90 19.2502 896.329)" fill="#D0C3B4"/>
<rect x="19.2502" y="1227.4" width="4.33009" height="4.27778" transform="rotate(90 19.2502 1227.4)" fill="#D0C3B4"/>
<rect x="19.2502" y="915.814" width="4.33009" height="4.27778" transform="rotate(90 19.2502 915.814)" fill="#D0C3B4"/>
<rect x="19.2502" y="1246.88" width="4.33009" height="4.27778" transform="rotate(90 19.2502 1246.88)" fill="#D0C3B4"/>
<rect x="19.2502" y="935.3" width="4.33009" height="4.27778" transform="rotate(90 19.2502 935.3)" fill="#D0C3B4"/>
<rect x="19.2502" y="1266.37" width="4.33009" height="4.27778" transform="rotate(90 19.2502 1266.37)" fill="#D0C3B4"/>
<rect x="19.2502" y="954.785" width="4.33009" height="4.27778" transform="rotate(90 19.2502 954.785)" fill="#D0C3B4"/>
<rect x="19.2502" y="1285.85" width="4.33009" height="4.27778" transform="rotate(90 19.2502 1285.85)" fill="#D0C3B4"/>
<rect x="19.2502" y="974.271" width="4.33009" height="4.27778" transform="rotate(90 19.2502 974.271)" fill="#D0C3B4"/>
<rect x="19.2502" y="1305.34" width="4.33009" height="4.27778" transform="rotate(90 19.2502 1305.34)" fill="#D0C3B4"/>
<rect x="19.2502" y="993.756" width="4.33009" height="4.27778" transform="rotate(90 19.2502 993.756)" fill="#D0C3B4"/>
<rect x="19.2502" y="1324.82" width="4.33009" height="4.27778" transform="rotate(90 19.2502 1324.82)" fill="#D0C3B4"/>
<rect x="19.2502" y="1013.24" width="4.33009" height="4.27778" transform="rotate(90 19.2502 1013.24)" fill="#D0C3B4"/>
<rect x="19.2502" y="1344.31" width="4.33009" height="4.27778" transform="rotate(90 19.2502 1344.31)" fill="#D0C3B4"/>
<rect x="19.2502" y="1032.73" width="4.33009" height="4.27778" transform="rotate(90 19.2502 1032.73)" fill="#D0C3B4"/>
<rect x="19.2502" y="1363.8" width="4.33009" height="4.27778" transform="rotate(90 19.2502 1363.8)" fill="#D0C3B4"/>
<rect x="19.2502" y="1052.21" width="4.33009" height="4.27778" transform="rotate(90 19.2502 1052.21)" fill="#D0C3B4"/>
<rect x="19.2502" y="1383.28" width="4.33009" height="4.27778" transform="rotate(90 19.2502 1383.28)" fill="#D0C3B4"/>
<rect x="19.2502" y="1071.7" width="4.33009" height="4.27778" transform="rotate(90 19.2502 1071.7)" fill="#D0C3B4"/>
<rect x="19.2502" y="1402.77" width="4.33009" height="4.27778" transform="rotate(90 19.2502 1402.77)" fill="#D0C3B4"/>
<rect x="4.27783" width="4.33009" height="4.27778" transform="rotate(90 4.27783 0)" fill="#D0C3B4"/>
<rect x="4.27783" y="19.4854" width="4.33009" height="4.27778" transform="rotate(90 4.27783 19.4854)" fill="#D0C3B4"/>
<rect x="4.27783" y="38.9709" width="4.33009" height="4.27778" transform="rotate(90 4.27783 38.9709)" fill="#D0C3B4"/>
<rect x="4.27783" y="58.4563" width="4.33009" height="4.27778" transform="rotate(90 4.27783 58.4563)" fill="#D0C3B4"/>
<rect x="4.27783" y="77.9417" width="4.33009" height="4.27778" transform="rotate(90 4.27783 77.9417)" fill="#D0C3B4"/>
<rect x="4.27783" y="97.427" width="4.33009" height="4.27778" transform="rotate(90 4.27783 97.427)" fill="#D0C3B4"/>
<rect x="4.27783" y="116.913" width="4.33009" height="4.27778" transform="rotate(90 4.27783 116.913)" fill="#D0C3B4"/>
<rect x="4.27783" y="136.398" width="4.33009" height="4.27778" transform="rotate(90 4.27783 136.398)" fill="#D0C3B4"/>
<rect x="4.27783" y="155.883" width="4.33009" height="4.27778" transform="rotate(90 4.27783 155.883)" fill="#D0C3B4"/>
<rect x="4.27783" y="175.369" width="4.33009" height="4.27778" transform="rotate(90 4.27783 175.369)" fill="#D0C3B4"/>
<rect x="4.27783" y="194.854" width="4.33009" height="4.27778" transform="rotate(90 4.27783 194.854)" fill="#D0C3B4"/>
<rect x="4.27783" y="214.34" width="4.33009" height="4.27778" transform="rotate(90 4.27783 214.34)" fill="#D0C3B4"/>
<rect x="4.27783" y="233.825" width="4.33009" height="4.27778" transform="rotate(90 4.27783 233.825)" fill="#D0C3B4"/>
<rect x="4.27783" y="253.31" width="4.33009" height="4.27778" transform="rotate(90 4.27783 253.31)" fill="#D0C3B4"/>
<rect x="4.27783" y="272.796" width="4.33009" height="4.27778" transform="rotate(90 4.27783 272.796)" fill="#D0C3B4"/>
<rect x="4.27783" y="292.281" width="4.33009" height="4.27778" transform="rotate(90 4.27783 292.281)" fill="#D0C3B4"/>
<rect x="4.27783" y="311.767" width="4.33009" height="4.27778" transform="rotate(90 4.27783 311.767)" fill="#D0C3B4"/>
<rect x="4.27783" y="331.252" width="4.33009" height="4.27778" transform="rotate(90 4.27783 331.252)" fill="#D0C3B4"/>
<rect x="4.27783" y="350.737" width="4.33009" height="4.27778" transform="rotate(90 4.27783 350.737)" fill="#D0C3B4"/>
<rect x="4.27783" y="370.223" width="4.33009" height="4.27778" transform="rotate(90 4.27783 370.223)" fill="#D0C3B4"/>
<rect x="4.27783" y="389.708" width="4.33009" height="4.27778" transform="rotate(90 4.27783 389.708)" fill="#D0C3B4"/>
<rect x="4.27783" y="409.194" width="4.33009" height="4.27778" transform="rotate(90 4.27783 409.194)" fill="#D0C3B4"/>
<rect x="4.27783" y="428.679" width="4.33009" height="4.27778" transform="rotate(90 4.27783 428.679)" fill="#D0C3B4"/>
<rect x="4.27783" y="448.165" width="4.33009" height="4.27778" transform="rotate(90 4.27783 448.165)" fill="#D0C3B4"/>
<rect x="4.27783" y="467.65" width="4.33009" height="4.27778" transform="rotate(90 4.27783 467.65)" fill="#D0C3B4"/>
<rect x="4.27783" y="487.135" width="4.33009" height="4.27778" transform="rotate(90 4.27783 487.135)" fill="#D0C3B4"/>
<rect x="4.27783" y="506.621" width="4.33009" height="4.27778" transform="rotate(90 4.27783 506.621)" fill="#D0C3B4"/>
<rect x="4.27783" y="526.106" width="4.33009" height="4.27778" transform="rotate(90 4.27783 526.106)" fill="#D0C3B4"/>
<rect x="4.27783" y="545.592" width="4.33009" height="4.27778" transform="rotate(90 4.27783 545.592)" fill="#D0C3B4"/>
<rect x="4.27783" y="565.077" width="4.33009" height="4.27778" transform="rotate(90 4.27783 565.077)" fill="#D0C3B4"/>
<rect x="4.27783" y="584.562" width="4.33009" height="4.27778" transform="rotate(90 4.27783 584.562)" fill="#D0C3B4"/>
<rect x="4.27783" y="604.048" width="4.33009" height="4.27778" transform="rotate(90 4.27783 604.048)" fill="#D0C3B4"/>
<rect x="4.27783" y="623.533" width="4.33009" height="4.27778" transform="rotate(90 4.27783 623.533)" fill="#D0C3B4"/>
<rect x="4.27783" y="643.019" width="4.33009" height="4.27778" transform="rotate(90 4.27783 643.019)" fill="#D0C3B4"/>
<rect x="4.27783" y="662.504" width="4.33009" height="4.27778" transform="rotate(90 4.27783 662.504)" fill="#D0C3B4"/>
<rect x="4.27783" y="681.99" width="4.33009" height="4.27778" transform="rotate(90 4.27783 681.99)" fill="#D0C3B4"/>
<rect x="4.27783" y="701.475" width="4.33009" height="4.27778" transform="rotate(90 4.27783 701.475)" fill="#D0C3B4"/>
<rect x="4.27783" y="720.96" width="4.33009" height="4.27778" transform="rotate(90 4.27783 720.96)" fill="#D0C3B4"/>
<rect x="4.27783" y="740.446" width="4.33009" height="4.27778" transform="rotate(90 4.27783 740.446)" fill="#D0C3B4"/>
<rect x="4.27783" y="759.931" width="4.33009" height="4.27778" transform="rotate(90 4.27783 759.931)" fill="#D0C3B4"/>
<rect x="4.27783" y="1091" width="4.33009" height="4.27778" transform="rotate(90 4.27783 1091)" fill="#D0C3B4"/>
<rect x="4.27783" y="779.417" width="4.33009" height="4.27778" transform="rotate(90 4.27783 779.417)" fill="#D0C3B4"/>
<rect x="4.27783" y="1110.49" width="4.33009" height="4.27778" transform="rotate(90 4.27783 1110.49)" fill="#D0C3B4"/>
<rect x="4.27783" y="798.902" width="4.33009" height="4.27778" transform="rotate(90 4.27783 798.902)" fill="#D0C3B4"/>
<rect x="4.27783" y="1129.97" width="4.33009" height="4.27778" transform="rotate(90 4.27783 1129.97)" fill="#D0C3B4"/>
<rect x="4.27783" y="818.387" width="4.33009" height="4.27778" transform="rotate(90 4.27783 818.387)" fill="#D0C3B4"/>
<rect x="4.27783" y="1149.46" width="4.33009" height="4.27778" transform="rotate(90 4.27783 1149.46)" fill="#D0C3B4"/>
<rect x="4.27783" y="837.873" width="4.33009" height="4.27778" transform="rotate(90 4.27783 837.873)" fill="#D0C3B4"/>
<rect x="4.27783" y="1168.94" width="4.33009" height="4.27778" transform="rotate(90 4.27783 1168.94)" fill="#D0C3B4"/>
<rect x="4.27783" y="857.358" width="4.33009" height="4.27778" transform="rotate(90 4.27783 857.358)" fill="#D0C3B4"/>
<rect x="4.27783" y="1188.43" width="4.33009" height="4.27778" transform="rotate(90 4.27783 1188.43)" fill="#D0C3B4"/>
<rect x="4.27783" y="876.844" width="4.33009" height="4.27778" transform="rotate(90 4.27783 876.844)" fill="#D0C3B4"/>
<rect x="4.27783" y="1207.91" width="4.33009" height="4.27778" transform="rotate(90 4.27783 1207.91)" fill="#D0C3B4"/>
<rect x="4.27783" y="896.329" width="4.33009" height="4.27778" transform="rotate(90 4.27783 896.329)" fill="#D0C3B4"/>
<rect x="4.27783" y="1227.4" width="4.33009" height="4.27778" transform="rotate(90 4.27783 1227.4)" fill="#D0C3B4"/>
<rect x="4.27783" y="915.814" width="4.33009" height="4.27778" transform="rotate(90 4.27783 915.814)" fill="#D0C3B4"/>
<rect x="4.27783" y="1246.88" width="4.33009" height="4.27778" transform="rotate(90 4.27783 1246.88)" fill="#D0C3B4"/>
<rect x="4.27783" y="935.3" width="4.33009" height="4.27778" transform="rotate(90 4.27783 935.3)" fill="#D0C3B4"/>
<rect x="4.27783" y="1266.37" width="4.33009" height="4.27778" transform="rotate(90 4.27783 1266.37)" fill="#D0C3B4"/>
<rect x="4.27783" y="954.785" width="4.33009" height="4.27778" transform="rotate(90 4.27783 954.785)" fill="#D0C3B4"/>
<rect x="4.27783" y="1285.85" width="4.33009" height="4.27778" transform="rotate(90 4.27783 1285.85)" fill="#D0C3B4"/>
<rect x="4.27783" y="974.271" width="4.33009" height="4.27778" transform="rotate(90 4.27783 974.271)" fill="#D0C3B4"/>
<rect x="4.27783" y="1305.34" width="4.33009" height="4.27778" transform="rotate(90 4.27783 1305.34)" fill="#D0C3B4"/>
<rect x="4.27783" y="993.756" width="4.33009" height="4.27778" transform="rotate(90 4.27783 993.756)" fill="#D0C3B4"/>
<rect x="4.27783" y="1324.82" width="4.33009" height="4.27778" transform="rotate(90 4.27783 1324.82)" fill="#D0C3B4"/>
<rect x="4.27783" y="1013.24" width="4.33009" height="4.27778" transform="rotate(90 4.27783 1013.24)" fill="#D0C3B4"/>
<rect x="4.27783" y="1344.31" width="4.33009" height="4.27778" transform="rotate(90 4.27783 1344.31)" fill="#D0C3B4"/>
<rect x="4.27783" y="1032.73" width="4.33009" height="4.27778" transform="rotate(90 4.27783 1032.73)" fill="#D0C3B4"/>
<rect x="4.27783" y="1363.8" width="4.33009" height="4.27778" transform="rotate(90 4.27783 1363.8)" fill="#D0C3B4"/>
<rect x="4.27783" y="1052.21" width="4.33009" height="4.27778" transform="rotate(90 4.27783 1052.21)" fill="#D0C3B4"/>
<rect x="4.27783" y="1383.28" width="4.33009" height="4.27778" transform="rotate(90 4.27783 1383.28)" fill="#D0C3B4"/>
<rect x="4.27783" y="1071.7" width="4.33009" height="4.27778" transform="rotate(90 4.27783 1071.7)" fill="#D0C3B4"/>
<rect x="4.27783" y="1402.77" width="4.33009" height="4.27778" transform="rotate(90 4.27783 1402.77)" fill="#D0C3B4"/>
</svg>
