<svg width="80" height="80" viewBox="0 0 80 80" fill="none" xmlns="http://www.w3.org/2000/svg">
<path d="M73.2364 79.7247C72.4661 79.3832 71.9852 78.9063 70.9855 77.4928C69.9613 76.044 69.9115 75.5856 70.5442 73.4214C71.1836 71.2338 71.4633 70.772 72.9369 69.4715C74.574 68.0269 75.3556 67.7576 76.7993 68.1417C77.9551 68.449 78.5862 69.2681 79.3407 71.4368C80.3324 74.2879 80.2663 74.8141 78.7242 76.3451C78.1428 76.9225 77.6705 77.5676 77.4978 78.02C76.8678 79.6685 74.8913 80.4589 73.2364 79.7247ZM75.0666 77.4796C75.1513 77.3714 75.3446 76.9642 75.4948 76.574C75.6622 76.1392 76.1162 75.5358 76.6663 75.0153C77.1604 74.5479 77.5644 74.0575 77.5644 73.9257C77.5644 73.4944 76.5617 70.7911 76.3136 70.5532C75.8904 70.148 75.54 70.2962 74.4681 71.3321C73.4933 72.2744 73.3918 72.4409 72.9672 73.7964C72.7168 74.5959 72.5093 75.3271 72.5067 75.4219C72.5067 75.5156 72.8715 76.0626 73.3236 76.6347C74.1558 77.6877 74.6943 77.9488 75.0666 77.4796ZM38.2597 75.7933C35.8743 75.5527 35.7445 75.4745 31.2632 71.5987C30.4549 70.8996 29.7318 70.3262 29.6567 70.3243C29.5814 70.3243 29.1406 70.7031 28.6768 71.1692C27.6629 72.188 26.8484 72.4714 25.7511 72.1884C25.3693 72.0893 23.1788 71.1059 20.8833 70.0014C16.2635 67.7784 15.5293 67.259 14.574 65.5375C13.4413 63.4962 13.5098 61.7613 14.8341 58.9455C16.2385 55.9594 16.8641 53.5862 17.0529 50.5291C17.3201 46.2037 17.6583 44.1584 18.3923 42.4277C18.9016 41.2271 18.9343 39.9766 18.4818 39.0094C18.3059 38.6332 17.4672 37.5514 16.618 36.605C14.6113 34.3681 14.1725 33.7335 13.4698 32.0531C12.7926 30.4339 11.981 29.3364 10.8589 28.5239C10.3879 28.1828 8.53614 27.3259 6.34074 26.4319C3.9464 25.4569 2.39315 24.7306 1.98196 24.3935C1.63061 24.1051 1.0672 23.3659 0.730002 22.7513C-0.279744 20.9104 -0.24312 19.3627 0.847021 17.8095C1.70606 16.5854 2.47737 16.2397 5.72315 15.626C7.27934 15.3318 8.81052 15.0917 9.12579 15.0917C9.44107 15.0917 11.4409 15.594 13.57 16.2077C15.6991 16.8214 17.5561 17.2812 17.6968 17.2295C18.0799 17.0889 18.0162 16.708 17.2994 14.8567C16.4454 12.6514 16.4201 11.7619 17.1769 10.553C17.9024 9.39388 18.9324 8.79008 20.3276 8.70482C21.341 8.64354 21.4221 8.6684 24.4341 10.0197C28.3423 11.7726 28.3656 11.774 29.7781 10.3524C31.0696 9.05299 32.0171 8.61216 34.1865 8.29997C35.5474 8.10405 35.876 7.99902 36.2838 7.62934C36.9366 7.03723 36.9885 6.87138 37.3095 4.36327C37.6452 1.73945 37.9257 1.03487 38.8736 0.435375C39.5607 0.000443812 39.6078 -0.00626608 41.9503 0.00148446C44.1759 0.00148446 44.4241 0.0408032 45.8068 0.496102C48.585 1.41175 49.7239 2.26933 53.6558 6.40775C54.9646 7.78537 55.3943 8.1179 57.2527 9.18712C59.8301 10.67 60.4127 10.8878 63.1349 11.3865C64.314 11.6026 65.5065 11.8927 65.7845 12.0307C66.0626 12.1695 66.7508 12.7518 67.3136 13.328C69.4506 15.5155 69.0617 15.2913 71.8484 15.9463C74.853 16.6523 75.6727 17.0036 76.376 17.8861C77.3932 19.1626 77.4772 20.7057 76.6101 22.1801C76.1634 22.9391 76.1156 23.1899 75.8825 25.9909C75.5983 29.4037 75.4109 29.9947 74.3158 30.9397C73.4863 31.6555 73.0661 31.8247 71.7017 31.9923C70.9427 32.0861 70.5536 32.2206 70.2808 32.4852C69.8906 32.8634 66.7855 39.3733 66.7855 39.8129C66.7855 40.2071 67.1315 40.4378 67.7229 40.4378C68.4273 40.4378 69.4075 40.9212 69.9455 41.5335C70.5831 42.2596 70.7442 43.0322 70.5312 44.3464L70.3506 45.4597L71.0324 46.5413C72.2633 48.493 72.1036 49.7629 70.4281 51.3467C69.8618 51.8818 69.3984 52.3774 69.3984 52.4486C69.3984 52.6748 70.0567 55.5168 70.2272 56.0262C70.3363 56.3546 70.7028 56.726 71.3353 57.151C73.3173 58.4828 74.0074 59.513 74.02 61.1581C74.0388 62.4335 73.6283 63.2468 72.0731 65.0992C70.7901 66.6273 69.6668 67.6008 68.5656 68.1391C67.3211 68.747 64.552 69.2767 62.539 69.2911L60.6608 69.3087L56.8447 67.9252C51.8271 66.1056 51.7971 66.1056 48.5751 68.0167C46.4394 69.2837 45.8803 70.1705 45.8803 72.2905C45.8803 73.6396 45.7581 74.0037 45.0352 74.7918C44.1588 75.748 43.486 75.954 41.3072 75.9332C40.2743 75.9152 38.9028 75.8626 38.2597 75.7959V75.7933ZM43.1861 73.2938C43.4032 73.064 43.4742 72.7625 43.452 72.1646C43.3918 70.5116 43.9223 68.9892 45.0075 67.7069C45.593 67.0151 47.8277 65.6023 49.6367 64.7806C50.5777 64.353 50.865 64.2985 52.1681 64.2983C52.9766 64.2983 53.84 64.3522 54.0871 64.4189L54.5362 64.5394V45.626C54.5362 26.7289 54.5366 26.7128 54.8747 26.3007C55.2608 25.8306 56.061 25.7418 56.5874 26.1106C56.8975 26.3278 56.9064 26.7581 56.9861 45.9226L57.067 65.5128L59.1901 66.268C60.9773 66.9039 61.4979 67.0245 62.4799 67.0301C64.0944 67.0481 67.1771 66.2848 68.1532 65.6413C69.0651 65.0404 71.4501 62.226 71.5993 61.5744C71.78 60.7849 71.2717 60.0377 69.8331 58.9807C69.1297 58.4636 68.4173 57.8285 68.2502 57.5699C67.9723 57.1404 67.5007 55.4041 67.0904 53.3014C66.8288 51.9609 67.1994 51.0202 68.4147 49.9447C69.0489 49.383 69.3976 48.9519 69.3976 48.7275C69.3976 48.5364 69.1078 47.9639 68.7536 47.4558C67.9927 46.364 67.83 45.5728 68.0872 44.2143C68.3156 43.0081 68.217 42.8623 67.0842 42.734C65.9872 42.6078 65.1189 42.049 64.6811 41.1824C64.076 39.9852 64.1855 39.4588 65.7441 36.0707C67.668 31.8885 67.9645 31.3536 68.7214 30.6986C69.4072 30.105 70.6798 29.6434 71.6294 29.6434C71.9905 29.6434 72.3396 29.4968 72.6847 29.2015L73.2003 28.7606L73.4789 25.5606C73.7432 22.5245 73.7839 22.3128 74.2722 21.4258C74.8511 20.3736 74.8882 20.1146 74.5499 19.4878C74.2624 18.955 74.0023 18.8566 71.1942 18.2126C69.9814 17.9343 68.6585 17.5474 68.2544 17.3527C67.8081 17.1375 66.9603 16.4159 66.0954 15.5151L64.6714 14.0312L63.1556 13.7716C60.8731 13.3799 59.3814 12.9587 58.1215 12.3511L56.9853 11.8028V17.2814C56.9853 22.5509 56.9665 22.7713 56.6585 23.0725C56.1723 23.5384 55.298 23.4893 54.8739 22.9731C54.5447 22.572 54.5354 22.3946 54.5345 16.4409V10.3207L53.9414 9.93345C53.6152 9.72058 52.6788 8.84069 51.8604 7.97786C48.0633 3.97443 46.9882 3.18762 44.4767 2.57227C42.9945 2.20907 40.2029 2.13717 40.0783 2.45873C40.037 2.56688 39.8588 3.69282 39.6831 4.96174C39.3263 7.53781 39.0287 8.34764 38.1175 9.22056C37.3007 10.0032 36.3857 10.3709 34.7802 10.5636C33.332 10.7384 32.7198 10.9175 32.2844 11.295C32.0148 11.5287 31.9982 12.6204 31.9982 30.1635C31.9982 47.2711 31.9775 48.8079 31.728 49.0707C31.3862 49.4325 30.4142 49.4481 30.0106 49.098C29.7246 48.8502 29.7118 48.0891 29.7118 31.1765V13.5137L29.0994 13.6387C27.708 13.9213 27.0773 13.7648 23.9438 12.3661C22.2639 11.6159 20.7243 11.0248 20.4491 11.0248C19.7935 11.0248 19.0961 11.6913 19.0961 12.3176C19.0961 12.5749 19.39 13.5499 19.7493 14.4853C20.1104 15.4255 20.4026 16.4687 20.4026 16.8176C20.4026 18.3821 19.1261 19.6295 17.5255 19.6295C17.2123 19.6295 15.2629 19.1373 13.1936 18.5347C11.1242 17.9325 9.27223 17.4397 9.07813 17.4398C8.31437 17.4398 3.72273 18.3744 3.39343 18.5954C2.82616 18.9759 2.43959 19.6664 2.43844 20.3002C2.43741 20.9377 3.0291 22.2074 3.52217 22.6254C3.68906 22.766 5.42876 23.5322 7.38806 24.3258C9.3474 25.1194 11.3857 26.0467 11.9176 26.387C13.295 27.268 14.4346 28.5616 15.2002 30.1124C15.5613 30.8439 16.0413 31.8085 16.2669 32.2555C16.4924 32.7027 17.4513 33.9347 18.3977 34.9935C20.5968 37.454 21.114 38.4348 21.1927 40.2926C21.2437 41.4966 21.191 41.7984 20.6694 43.2656C19.9522 45.2845 19.8079 46.0972 19.5891 49.3568C19.279 53.9766 18.7578 56.178 17.1209 59.7798C16.6861 60.7366 16.2833 61.8018 16.2257 62.1464C16.056 63.1632 16.5317 64.4286 17.4317 65.3553C18.1042 66.0478 18.704 66.3823 22.3379 68.0889L26.478 70.033L27.3193 69.1697C27.9662 68.5053 28.3395 68.2602 28.9361 68.1082L29.7118 67.9111V60.2331C29.7118 51.5968 29.6761 51.8607 30.8391 51.8607C31.2605 51.8607 31.5569 51.9652 31.7689 52.1898C32.0654 52.5035 32.0821 52.9114 32.1262 60.8712L32.1713 69.2233L34.2988 71.0636C35.4689 72.0759 36.6106 72.9974 36.836 73.1108C37.3984 73.3937 38.9199 73.565 41.0771 73.5887C42.6978 73.6067 42.9212 73.5694 43.1861 73.2938Z" fill="#8EA65F"/>
</svg>
