<svg width="80" height="80" viewBox="0 0 80 80" fill="none" xmlns="http://www.w3.org/2000/svg">
<path d="M8.90639 79.5784C7.90918 79.3723 6.47543 78.9258 5.71963 78.5837C3.69061 77.6659 1.08562 74.7982 0.451395 72.7852C0.0462936 71.4994 -0.0665524 62.3189 0.0352244 38.9443L0.175376 6.86809L1.23294 5.13873C2.53523 3.00908 4.52707 1.50333 7.22641 0.607045C9.06366 -0.00283585 12.627 -0.0631714 40.7141 0.0416552L72.1466 0.159445L74.4925 1.42943C75.9459 2.21563 77.3899 3.4785 78.2888 4.75002L79.7393 6.80277L79.8696 39.3416L80 71.8804L78.6707 74.174C77.043 76.9824 74.1948 78.9554 70.8675 79.5795C67.8796 80.1403 11.6275 80.139 8.90639 79.5784ZM72.1258 76.7183C73.2108 76.2872 74.7206 75.2214 75.4809 74.3497L76.8628 72.7638L76.9907 40.3385C77.1161 8.64906 77.0982 7.8756 76.1627 6.27272C75.0399 4.34768 73.292 3.15976 70.6313 2.51523C69.3272 2.19922 59.5056 2.04989 39.9234 2.04836C7.49693 2.04836 7.41508 2.04816 4.7759 4.85282C3.9677 5.71073 3.11376 7.28175 2.83275 8.42826C2.12959 11.2963 2.14841 68.347 2.85784 71.2229C3.4853 73.7821 5.20678 75.6908 7.82741 76.7322C9.64109 77.4528 11.6886 77.5021 39.9607 77.5021C68.4289 77.5021 70.2694 77.458 72.1295 76.7183H72.1258ZM11.8324 64.5774C10.4622 63.5066 10.2725 63.0803 10.098 60.6839C9.70993 55.3516 11.9799 53.366 18.075 53.7055C20.8145 53.859 21.3013 54.0243 22.5256 55.2228C23.7589 56.4305 23.9002 56.8672 23.9002 59.4771C23.9002 64.5301 22.4809 65.7799 16.742 65.7799C13.7078 65.7799 13.2172 65.6595 11.8324 64.5774ZM20.3945 62.772C21.2424 62.0751 21.5041 61.4056 21.5041 59.9301C21.5041 56.9401 20.5916 56.1362 17.1974 56.1362C13.5103 56.1362 12.8765 56.6909 12.8765 59.9162C12.8765 61.9853 13.0468 62.4827 13.9414 63.0312C15.5536 64.0189 19.0481 63.8786 20.3945 62.772ZM35.1778 60.5994C34.6338 60.2513 34.4062 59.7633 34.5915 59.3411C34.864 58.7196 36.5293 58.6515 51.4599 58.6515C66.3902 58.6515 68.0558 58.7194 68.3282 59.3411C69.0607 61.0105 67.6118 61.168 51.4599 61.168C39.2627 61.168 35.8817 61.0491 35.1778 60.5994ZM13.1562 41.9147C10.9164 39.9399 9.96004 38.8035 10.1586 38.3511C10.677 37.1692 12.0732 37.6397 14.6477 39.8641L17.168 42.0411L22.5868 37.1164C26.6579 33.4168 28.2106 32.2606 28.8287 32.468C30.7073 33.0987 29.6769 34.564 23.738 39.7003C20.4851 42.5135 17.5134 44.8145 17.1343 44.8145C16.7553 44.8145 14.9654 43.5095 13.1562 41.9147ZM34.5915 40.3513C33.859 38.682 35.3077 38.5256 51.4599 38.5256C67.6118 38.5256 69.0607 38.6829 68.3282 40.3513C68.0558 40.9729 66.3902 41.041 51.4599 41.041C36.5293 41.041 34.864 40.9729 34.5915 40.3513ZM11.8324 24.3245C10.4622 23.2536 10.2725 22.8273 10.098 20.431C9.70993 15.0987 11.9799 13.113 18.075 13.4525C20.8145 13.606 21.3013 13.7712 22.5256 14.9699C23.7589 16.1776 23.9002 16.6143 23.9002 19.2242C23.9002 24.2772 22.4809 25.527 16.742 25.527C13.7078 25.527 13.2172 25.4065 11.8324 24.3245ZM20.3945 22.5191C21.2424 21.8222 21.5041 21.1526 21.5041 19.6772C21.5041 16.687 20.5916 15.8833 17.1974 15.8833C13.5103 15.8833 12.8765 16.438 12.8765 19.6632C12.8765 21.7324 13.0468 22.2298 13.9414 22.7782C15.5536 23.766 19.0481 23.6257 20.3945 22.5191ZM35.1778 20.3464C34.6338 19.9984 34.4062 19.5104 34.5915 19.0882C34.864 18.4667 36.5293 18.3986 51.4599 18.3986C66.3902 18.3986 68.0558 18.4665 68.3282 19.0882C69.0607 20.7575 67.6118 20.915 51.4599 20.915C39.2627 20.915 35.8817 20.7962 35.1778 20.3464Z" fill="#8EA65F"/>
</svg>
