<svg width="60" height="80" viewBox="0 0 60 80" fill="none" xmlns="http://www.w3.org/2000/svg">
<path d="M28.4632 79.9026C26.1191 79.5272 22.9554 77.1541 21.5888 74.7458C20.2858 72.4499 20.2812 72.4208 20.1357 65.0507L19.9895 57.6583L14.4311 57.5111C9.69727 57.3852 8.58466 57.2253 6.92933 56.4175C4.4526 55.2092 2.17819 52.9549 0.957342 50.4997C0.000605313 48.5756 0 48.5493 0 27.6033V6.63418L1.27834 4.58394C2.07087 3.31339 3.34344 2.05245 4.62551 1.26685L6.69387 0H30H53.3057L55.374 1.26685C56.6563 2.05245 57.9285 3.31301 58.7212 4.58394L60 6.63418V27.8129C60 48.8392 60 49.0044 59.0694 50.7158C57.6357 53.3719 56.2599 54.7826 53.8024 56.1157C51.6982 57.2575 51.1787 57.3489 45.9505 57.5055L40.3522 57.6732V64.2496C40.3522 71.6749 39.8641 74.0495 37.8411 76.4728C35.8285 78.8844 31.6497 80.4132 28.4632 79.9026ZM33.0614 77.0336C35.0686 76.2026 36.0289 75.3206 37.0172 73.4017C37.7212 72.0352 37.8171 70.8703 37.8171 63.7131V55.5773L43.8385 55.4003C50.5208 55.2019 52.2047 54.7395 54.6662 52.4279C56.5094 50.6966 57.6156 48.2306 57.9439 45.1184C58.1933 42.7526 58.1566 42.6163 57.2018 42.363C56.6495 42.2161 44.1945 42.094 29.5239 42.091C-0.376315 42.091 1.55889 41.8706 2.0773 45.123C2.83498 49.8763 4.62695 52.5827 8.1226 54.2527C9.93289 55.1177 10.7732 55.2203 16.2678 55.2466L22.3944 55.2755L22.6059 63.8919C22.8136 72.3641 22.8357 72.5367 23.9444 74.1953C25.962 77.2137 29.7669 78.3978 33.0614 77.0336ZM28.5215 71.8153C28.0568 71.3548 27.6764 70.601 27.6764 70.1405C27.6764 69.6799 28.0568 68.9262 28.5215 68.4656C28.9863 68.0049 29.7468 67.6282 30.2115 67.6282C30.6764 67.6282 31.4368 68.0049 31.9015 68.4656C32.3664 68.9262 32.7465 69.6799 32.7465 70.1405C32.7465 70.601 32.3664 71.3548 31.9015 71.8153C31.4368 72.276 30.6764 72.6527 30.2115 72.6527C29.7468 72.6527 28.9863 72.276 28.5215 71.8153ZM58.0002 25.1255C58.0753 15.3848 57.9518 9.69923 57.6323 8.17209C56.6763 3.59699 53.1717 1.69387 46.2128 1.97106L43.0987 2.09496L42.8877 9.42217C42.68 16.6303 42.6606 16.753 41.7254 16.8845C41.2026 16.957 40.7389 16.957 40.6948 16.8845C40.6505 16.812 40.5079 13.4526 40.3775 9.42217L40.1411 2.09496H35.2821H30.423L30.2115 8.16651L30.0005 14.2381H28.944H27.8875L27.6764 8.16651L27.4649 2.09496L21.9719 1.97293C13.7713 1.7936 14.6157 0.79925 14.4809 10.7822C14.375 18.6887 14.3133 19.261 13.572 19.4023C13.135 19.4863 12.615 19.2972 12.4163 18.9887C12.2178 18.6782 12.0522 14.6787 12.0488 10.1003V1.77638L9.8305 2.06701C6.6904 2.4787 4.45074 3.82853 3.1808 6.07621L2.11912 7.95599L1.99035 23.3985C1.91912 31.8924 1.96114 39.1016 2.08435 39.4185C2.27107 39.9017 6.81547 39.9782 30.1015 39.888L57.8959 39.7809L58.0002 25.1255Z" fill="#8EA65F"/>
</svg>
