<svg width="80" height="81" viewBox="0 0 80 81" fill="none" xmlns="http://www.w3.org/2000/svg">
<path d="M36.7833 80.0548C35.2754 79.477 33.8674 78.1918 33.0287 76.6282L32.184 75.0525L29.4975 75.165C24.3465 75.3807 20.012 73.7068 16.1738 70.0194C12.8328 66.8099 10.8509 62.8973 10.0639 57.9564C9.8381 56.5383 9.75092 56.4204 8.95522 56.4537C6.20795 56.5687 2.57477 54.1026 1.15938 51.1627C0.399492 49.5846 0.33194 49.0927 0.120244 43.6124C-0.0942145 38.0605 -0.0694691 37.6644 0.591811 36.1246C1.50143 34.0056 2.99459 32.3508 4.93883 31.3072C6.18123 30.6404 7.03147 30.4445 9.05195 30.3572C11.9289 30.2368 11.9735 30.191 11.8855 27.6805C11.8209 25.5387 12.3867 22.3238 13.4025 19.2148C16.1069 10.9369 23.3019 3.82945 31.6895 1.15081C34.7343 0.178361 42.0294 -0.127114 45.1396 0.587603C53.7065 2.5563 61.427 9.0392 64.7612 17.0641C66.0133 20.0782 66.8357 23.235 66.9261 25.3757C67.0412 27.8847 67.0808 27.9237 69.9571 27.8069C71.9774 27.7223 72.8401 27.8486 74.1299 28.41C76.1486 29.2876 77.7646 30.8122 78.8345 32.8483C79.6122 34.3279 79.6676 34.7206 79.8821 40.2724C80.0938 45.7528 80.0639 46.2487 79.4289 47.8853C78.5925 50.0385 76.3401 52.403 74.3709 53.1948C72.5552 53.925 66.4153 54.2622 65.895 53.6597C65.6741 53.4044 65.3095 48.092 64.8617 38.6161C64.2103 24.8142 64.1246 23.8218 63.3914 21.4313C60.6575 12.5173 54.1822 6.11599 45.415 3.66225C43.3825 3.09334 42.3849 3.02521 38.5041 3.18773C34.6234 3.35023 33.6343 3.50116 31.6522 4.23856C23.1029 7.41739 17.1419 14.3394 15.1045 23.4532C14.558 25.8973 14.5498 26.8937 14.9646 40.7055C15.249 50.1882 15.2951 55.514 15.0948 55.7869C14.9236 56.019 14.3097 56.2286 13.7286 56.2529C12.4968 56.3045 12.4797 56.4245 13.2493 59.5747C14.6905 65.4735 19.4048 70.3935 25.0884 71.9305C25.9236 72.1564 27.8769 72.3727 29.4293 72.4109L32.2519 72.4804L32.967 70.7174C33.4553 69.5139 34.1003 68.6266 35.0002 67.9206L36.3183 66.887L40.9561 66.6927L45.5936 66.4985L46.9893 67.4325C50.9561 70.0897 51.1784 75.8186 47.4285 78.8025C46.1323 79.8344 46.045 79.8548 41.839 80.1029C39.4588 80.2424 37.2187 80.2223 36.7813 80.0539L36.7833 80.0548ZM45.9813 76.2579C46.4816 75.7827 47.0324 74.8791 47.2053 74.2497C47.6178 72.7484 47.0563 71.151 45.7431 70.0918C44.8214 69.3479 44.5732 69.3149 41.0642 69.4618C37.5552 69.6087 37.3107 69.6622 36.4492 70.481C35.949 70.9561 35.3979 71.8597 35.225 72.4892C34.8125 73.9904 35.374 75.5877 36.6874 76.6471C37.6092 77.3909 37.8571 77.4239 41.3661 77.2771C44.8751 77.1301 45.1199 77.0765 45.9813 76.2579ZM12.161 43.0637L11.7629 32.7602L9.37941 33.0856C6.62388 33.4624 4.97551 34.3075 3.95525 35.8653C2.79106 37.643 2.60232 38.9313 2.79345 43.7945C2.95361 47.9408 3.05136 48.544 3.78056 50.0153C5.08264 52.6452 6.81131 53.5551 10.2903 53.4411L12.559 53.3665L12.161 43.0637ZM74.7316 49.682C75.6278 49.009 76.2384 48.1808 76.7161 46.9899C77.3424 45.4285 77.3901 44.8452 77.2318 40.6775C77.0439 35.8142 76.7597 34.5457 75.4619 32.8711C74.3248 31.4036 72.6168 30.699 69.8409 30.5539L67.44 30.4288L67.8392 40.7656L68.2385 51.1025L70.8381 50.878C73.0597 50.6865 73.6252 50.5129 74.7316 49.682Z" fill="#8EA65F"/>
</svg>
