<svg width="69" height="69" viewBox="0 0 69 69" fill="none" xmlns="http://www.w3.org/2000/svg">
<path d="M3.4965 68.0523C3.03514 67.6267 2.63881 57.6293 3.03379 56.1273C3.43077 54.5786 4.86771 53.1174 6.46393 52.6391C7.75261 52.2529 7.75916 52.2455 7.22802 51.7554C6.19731 50.8042 5.51971 49.0149 5.63399 47.5463C6.00568 42.7709 12.1013 40.9784 15.0195 44.7862C16.48 46.692 16.3599 49.7124 14.7542 51.4527C14.2639 51.9839 14.2713 51.9908 15.587 52.2722C17.2164 52.6207 18.7657 53.9618 19.2857 55.4736C19.7899 56.9395 20.1978 66.9365 19.7822 67.3973C19.3478 67.8681 3.98749 68.4859 3.51666 68.0515L3.4965 68.0523ZM17.702 60.891L17.5096 56.1071L16.4434 55.1231L15.3769 54.1391L11.09 54.3115L6.80289 54.484L5.81909 55.5504L4.83509 56.6169L5.02749 61.4008L5.21989 66.1847L11.5573 65.9298L17.8944 65.6749L17.702 60.891ZM13.1315 50.0213C13.8066 49.2895 13.9166 48.9676 13.8717 47.8521C13.8264 46.7245 13.6928 46.4268 12.921 45.7137C12.1481 45.0004 11.8405 44.8918 10.713 44.9371C8.95908 45.0077 7.86031 46.1104 7.72883 47.9318C7.64534 49.0875 7.70432 49.2125 8.77766 50.2038C9.85238 51.1956 9.98141 51.2431 11.1268 51.067C12.0236 50.9297 12.5447 50.6573 13.1315 50.0213ZM27.7895 67.0752C27.3281 66.6497 26.9319 56.6523 27.3268 55.1502C27.7237 53.6015 29.1605 52.1404 30.7569 51.6621C32.0457 51.2759 32.0521 51.2684 31.5208 50.7784C29.7807 49.1727 29.4184 46.1716 30.7212 44.1547C33.3243 40.1249 39.5438 41.422 40.298 46.1522C40.5298 47.6069 39.9981 49.4448 39.0471 50.4757C38.5571 51.0068 38.5642 51.0138 39.8797 51.2952C41.5094 51.6437 43.0588 52.9848 43.5789 54.4966C44.0831 55.9625 44.4909 65.9595 44.0753 66.4203C43.6409 66.8911 28.2805 67.5089 27.8096 67.0744L27.7895 67.0752ZM41.995 59.914L41.8026 55.1301L40.7361 54.1461L39.6699 53.1621L35.383 53.3345L31.0959 53.5069L30.1121 54.5734L29.1281 55.6399L29.3205 60.4238L29.5129 65.2076L35.8502 64.9528L42.1874 64.6979L41.995 59.914ZM37.4245 49.0443C38.0996 48.3125 38.2096 47.9906 38.1647 46.875C38.1193 45.7475 37.9858 45.4498 37.214 44.7367C36.4411 44.0234 36.1335 43.9148 35.0059 43.9601C33.2519 44.0307 32.1533 45.1334 32.0218 46.9548C31.9383 48.1104 31.9956 48.2356 33.0706 49.2268C34.1452 50.2186 34.2745 50.266 35.4196 50.09C36.3167 49.9527 36.8377 49.6803 37.4245 49.0443ZM52.0824 66.0982C51.6211 65.6727 51.2247 55.6753 51.6197 54.1732C52.0165 52.6245 53.4534 51.1633 55.0497 50.6851C56.3383 50.2989 56.3449 50.2914 55.8137 49.8014C54.0735 48.1957 53.7112 45.1946 55.0141 43.1777C57.6169 39.1479 63.8368 40.445 64.5908 45.1751C64.8226 46.6299 64.2909 48.4678 63.3399 49.4987C62.8498 50.0298 62.857 50.0367 64.1727 50.3182C65.8022 50.6667 67.3516 52.0078 67.8717 53.5196C68.3757 54.9855 68.7835 64.9825 68.3681 65.4432C67.9337 65.9141 52.5734 66.5318 52.1026 66.0974L52.0824 66.0982ZM66.2879 58.937L66.0955 54.1531L65.0293 53.1691L63.9628 52.1851L59.6757 52.3575L55.3888 52.5299L54.405 53.5964L53.4212 54.6628L53.6136 59.4467L53.806 64.2306L60.143 63.9757L66.4803 63.7209L66.2879 58.937ZM61.7175 48.0673C62.3925 47.3354 62.5023 47.0136 62.4575 45.898C62.4121 44.7705 62.2788 44.4728 61.5069 43.7597C60.7341 43.0464 60.4264 42.9378 59.2987 42.9831C57.5446 43.0537 56.4462 44.1563 56.3148 45.9778C56.2313 47.1334 56.2902 47.2585 57.3636 48.2498C58.4383 49.2416 58.5673 49.289 59.7127 49.113C60.6097 48.9756 61.1307 48.7032 61.7175 48.0673ZM9.26906 35.3419L9.2266 34.2863L10.2829 34.2438L11.339 34.2013L11.3814 35.257L11.4239 36.3135L10.3678 36.3559L9.31155 36.3984L9.26906 35.3419ZM33.562 34.3649L33.5196 33.3092L34.5759 33.2667L35.632 33.2243L35.6744 34.28L35.7169 35.3365L34.6608 35.3789L33.6045 35.4214L33.562 34.3649ZM57.855 33.3879L57.8125 32.3322L58.8686 32.2897L59.9249 32.2472L59.9674 33.3029L60.0099 34.3594L58.9536 34.4019L57.8975 34.4444L57.855 33.3879ZM9.05667 30.0611L9.01418 29.0046L10.0705 28.9621L11.1266 28.9196L11.1691 29.9761L11.2115 31.0318L10.1554 31.0743L9.09913 31.1167L9.05667 30.0611ZM33.3496 29.084L33.3071 28.0275L34.3634 27.9851L35.4195 27.9426L35.462 28.9991L35.5045 30.0548L34.4484 30.0972L33.3921 30.1397L33.3496 29.084ZM57.6426 28.107L57.6001 27.0505L58.6562 27.008L59.7125 26.9656L59.755 28.0221L59.7974 29.0777L58.7411 29.1202L57.6851 29.1627L57.6426 28.107ZM8.84428 24.7802L8.80179 23.7237L9.85809 23.6812L10.9142 23.6387L10.9567 24.6952L10.9991 25.7509L9.94304 25.7934L8.88674 25.8359L8.84428 24.7802ZM33.1372 23.8032L33.0948 22.7467L34.1511 22.7042L35.2071 22.6617L35.2496 23.7182L35.2921 24.7739L34.236 24.8164L33.1797 24.8589L33.1372 23.8032ZM57.4302 22.8262L57.3877 21.7697L58.4438 21.7272L59.5001 21.6847L59.5426 22.7412L59.5851 23.7969L58.5288 23.8394L57.4727 23.8818L57.4302 22.8262ZM1.54245 19.4663C1.07162 19.0319 0.453856 3.67165 0.88828 3.20082C1.3227 2.72999 16.6832 2.11221 17.154 2.54664C17.6248 2.98106 18.2426 18.3413 17.8082 18.8122C17.3738 19.283 2.01328 19.9008 1.54245 19.4663ZM15.6855 10.7516L15.4306 4.41425L9.09346 4.66912L2.75609 4.924L3.01097 11.2614L3.26585 17.5987L9.60321 17.3439L15.9404 17.089L15.6855 10.7516ZM25.8393 18.4933C25.6559 18.3239 25.4994 18.0303 25.4918 17.8405C25.4649 17.1714 32.4957 1.94417 32.9149 1.76359C33.1487 1.66304 33.5434 1.68079 33.7924 1.80412C34.0413 1.92745 36.1059 5.41437 38.3802 9.55454C41.7624 15.712 42.4657 17.1683 42.2438 17.5541C41.9968 17.9828 41.2505 18.0614 34.0726 18.4135C28.1496 18.7041 26.0892 18.7175 25.8393 18.4933ZM39.4359 16.0138C39.4253 15.7503 33.5835 5.27149 33.4502 5.27685C33.3153 5.28227 28.3352 16.1963 28.3458 16.4598C28.3487 16.5323 30.8464 16.4887 33.8961 16.366C36.9461 16.2433 39.4388 16.0846 39.4359 16.0138ZM52.2961 17.5438C52.13 17.4408 50.8864 15.5876 49.5304 13.4238L47.0652 9.48958L49.2065 5.37006C50.3843 3.10433 51.4757 1.15712 51.6325 1.04212C51.7898 0.926078 54.0491 0.775969 56.6545 0.706626L61.392 0.580376L63.8669 4.44748C65.2283 6.57463 66.349 8.4933 66.3578 8.71119C66.3666 8.92908 65.4036 10.9315 64.2174 13.1612L62.0611 17.2153L57.3287 17.47C54.7262 17.6118 52.4613 17.6419 52.2959 17.5389L52.2961 17.5438ZM62.3619 12.1594C63.2718 10.4384 64.0122 8.93003 64.0073 8.80819C64.0023 8.68518 63.1433 7.24335 62.0981 5.60073L60.1978 2.61379L56.4969 2.77994L52.7957 2.94528L51.1402 6.17825L49.4847 9.41122L51.3944 12.5008L53.3042 15.5904L57.0068 15.458L60.7091 15.3264L62.3619 12.1594Z" fill="white"/>
</svg>
