<svg width="75" height="72" viewBox="0 0 75 72" fill="none" xmlns="http://www.w3.org/2000/svg">
<path d="M34.511 71.2965C33.112 70.7816 31.8056 69.6364 31.0275 68.243L30.2437 66.8388L27.7512 66.9391C22.972 67.1313 18.9505 65.6396 15.3893 62.3537C12.2895 59.4936 10.4507 56.007 9.72051 51.604C9.51103 50.3403 9.43015 50.2352 8.69189 50.2649C6.14295 50.3674 2.77206 48.1698 1.45885 45.5499C0.753817 44.1436 0.691142 43.7053 0.494728 38.8216C0.295752 33.8742 0.318711 33.5212 0.932252 32.149C1.7762 30.2607 3.16157 28.7861 4.96545 27.8561C6.11816 27.2619 6.90702 27.0873 8.78164 27.0095C11.4509 26.9022 11.4923 26.8614 11.4106 24.6242C11.3507 22.7156 11.8756 19.8507 12.8181 17.0802C15.3273 9.70354 22.0029 3.36987 29.7849 0.982851C32.6099 0.116276 39.3784 -0.155942 42.264 0.480963C50.2125 2.23533 57.3756 8.01243 60.4691 15.1637C61.6308 17.8496 62.3939 20.6627 62.4777 22.5704C62.5845 24.8062 62.6213 24.841 65.2899 24.7369C67.1644 24.6615 67.9648 24.774 69.1615 25.2743C71.0344 26.0564 72.5338 27.415 73.5264 29.2294C74.248 30.5479 74.2994 30.8979 74.4984 35.8453C74.6948 40.729 74.6671 41.1709 74.0779 42.6293C73.3019 44.5481 71.2121 46.6552 69.3851 47.3608C67.7005 48.0115 62.0038 48.312 61.5211 47.7751C61.3161 47.5476 60.9778 42.8135 60.5624 34.3693C59.958 22.07 59.8785 21.1856 59.1982 19.0554C56.6617 11.1119 50.6538 5.40747 42.5196 3.22087C40.6338 2.7139 39.7082 2.65319 36.1076 2.79801C32.507 2.94282 31.5893 3.07732 29.7503 3.73444C21.8182 6.56719 16.2876 12.7356 14.3972 20.8572C13.8902 23.0352 13.8826 23.9231 14.2674 36.2312C14.5313 44.6815 14.5741 49.4275 14.3882 49.6707C14.2294 49.8775 13.6598 50.0643 13.1207 50.086C11.9778 50.1319 11.9619 50.2389 12.676 53.0461C14.0131 58.3027 18.3871 62.6871 23.6604 64.0567C24.4353 64.258 26.2476 64.4508 27.6879 64.4848L30.3067 64.5468L30.9702 62.9757C31.4233 61.9032 32.0217 61.1125 32.8566 60.4834L34.0796 59.5623L38.3826 59.3892L42.6853 59.2161L43.9802 60.0484C47.6606 62.4163 47.8669 67.5215 44.3877 70.1806C43.1851 71.1001 43.1041 71.1183 39.2017 71.3394C36.9934 71.4637 34.915 71.4458 34.5091 71.2957L34.511 71.2965ZM43.045 67.913C43.5092 67.4895 44.0202 66.6843 44.1806 66.1234C44.5633 64.7856 44.0424 63.3621 42.824 62.4182C41.9688 61.7553 41.7385 61.7259 38.4829 61.8568C35.2272 61.9877 35.0003 62.0354 34.201 62.765C33.7369 63.1884 33.2256 63.9936 33.0652 64.5546C32.6825 65.8924 33.2034 67.3158 34.422 68.2598C35.2773 68.9226 35.5073 68.9521 38.763 68.8212C42.0186 68.6902 42.2458 68.6425 43.045 67.913ZM11.6662 38.3327L11.2969 29.1509L9.08546 29.4409C6.52885 29.7767 4.99948 30.5298 4.05288 31.918C2.97273 33.5021 2.79762 34.6502 2.97495 38.9839C3.12355 42.6788 3.21424 43.2163 3.8908 44.5274C5.09888 46.871 6.70275 47.6819 9.93058 47.5803L12.0355 47.5138L11.6662 38.3327ZM69.7197 44.2304C70.5512 43.6307 71.1178 42.8927 71.561 41.8314C72.1421 40.44 72.1863 39.9202 72.0394 36.2063C71.8651 31.8724 71.6014 30.742 70.3973 29.2497C69.3423 27.942 67.7576 27.3141 65.1821 27.1848L62.9545 27.0733L63.3249 36.2848L63.6954 45.4963L66.1073 45.2962C68.1685 45.1256 68.6932 44.9709 69.7197 44.2304Z" fill="white"/>
</svg>
