<svg width="80" height="81" viewBox="0 0 80 81" fill="none" xmlns="http://www.w3.org/2000/svg">
<path d="M3.2517 80.6848C2.70731 80.1813 2.23966 68.3533 2.70572 66.5763C3.17414 64.744 4.86967 63.0152 6.75315 62.4494C8.27375 61.9924 8.28148 61.9837 7.65475 61.4039C6.43855 60.2785 5.63901 58.1615 5.77386 56.424C6.21244 50.7742 13.405 48.6535 16.8484 53.1586C18.5717 55.4133 18.43 58.9868 16.5354 61.0457C15.9568 61.6742 15.9656 61.6824 17.518 62.0153C19.4407 62.4276 21.2688 64.0143 21.8824 65.8029C22.4773 67.5372 22.9586 79.3647 22.4682 79.9099C21.9556 80.4669 3.83105 81.1978 3.27549 80.6839L3.2517 80.6848ZM20.0136 72.2122L19.7866 66.5524L18.5285 65.3882L17.2701 64.224L12.2117 64.428L7.15311 64.6321L5.99227 65.8937L4.83118 67.1555L5.05821 72.8154L5.28523 78.4752L12.7631 78.1737L20.2407 77.8721L20.0136 72.2122ZM14.6206 59.3522C15.4172 58.4864 15.547 58.1056 15.494 56.7858C15.4406 55.4518 15.2829 55.0996 14.3722 54.2559C13.4603 53.412 13.0973 53.2835 11.7669 53.3371C9.69733 53.4206 8.40083 54.7252 8.24569 56.8801C8.14717 58.2474 8.21677 58.3953 9.48327 59.5681C10.7514 60.7415 10.9036 60.7977 12.2552 60.5894C13.3134 60.427 13.9282 60.1047 14.6206 59.3522ZM31.9165 79.5288C31.3721 79.0254 30.9046 67.1974 31.3705 65.4203C31.8389 63.588 33.5342 61.8593 35.4179 61.2935C36.9387 60.8366 36.9462 60.8277 36.3193 60.248C34.266 58.3482 33.8386 54.7976 35.3758 52.4114C38.4474 47.6437 45.7861 49.1783 46.6761 54.7747C46.9496 56.4957 46.3222 58.6702 45.2 59.8898C44.6219 60.5182 44.6302 60.5265 46.1825 60.8594C48.1055 61.2717 49.9337 62.8584 50.5474 64.647C51.1423 66.3813 51.6235 78.2088 51.1331 78.754C50.6206 79.311 32.4959 80.0419 31.9402 79.5278L31.9165 79.5288ZM48.6785 71.0563L48.4514 65.3965L47.193 64.2323L45.9349 63.0681L40.8765 63.2721L35.8179 63.4761L34.6571 64.7378L33.496 65.9996L33.723 71.6595L33.9501 77.3192L41.4278 77.0178L48.9055 76.7162L48.6785 71.0563ZM43.2854 58.1963C44.082 57.3305 44.2118 56.9497 44.1588 55.6298C44.1053 54.2959 43.9478 53.9437 43.0371 53.1C42.1251 52.2561 41.7621 52.1276 40.4316 52.1812C38.3619 52.2647 37.0656 53.5693 36.9105 55.7242C36.8119 57.0914 36.8795 57.2396 38.148 58.4122C39.416 59.5857 39.5686 59.6417 40.9197 59.4335C41.9783 59.2711 42.593 58.9488 43.2854 58.1963ZM60.5812 78.3729C60.0369 77.8695 59.5692 66.0415 60.0352 64.2644C60.5034 62.4321 62.1989 60.7033 64.0825 60.1376C65.603 59.6807 65.6108 59.6718 64.984 59.0921C62.9306 57.1923 62.5031 53.6417 64.0405 51.2555C67.1117 46.4878 74.4509 48.0225 75.3406 53.6187C75.6142 55.3398 74.9868 57.5143 73.8646 58.7339C73.2863 59.3623 73.2948 59.3704 74.8473 59.7035C76.77 60.1158 78.5983 61.7025 79.212 63.4911C79.8067 65.2254 80.2879 77.0529 79.7977 77.598C79.2851 78.1551 61.1606 78.8859 60.605 78.3719L60.5812 78.3729ZM77.3432 69.9004L77.1161 64.2406L75.8581 63.0764L74.5996 61.9122L69.541 62.1162L64.4826 62.3202L63.3218 63.5819L62.1609 64.8436L62.388 70.5035L62.615 76.1633L70.0924 75.8618L77.5702 75.5603L77.3432 69.9004ZM71.9503 57.0404C72.7467 56.1745 72.8763 55.7938 72.8234 54.4739C72.7699 53.14 72.6126 52.7878 71.7018 51.9441C70.7899 51.1002 70.4268 50.9717 69.0962 51.0253C67.0264 51.1088 65.7303 52.4133 65.5753 54.5683C65.4767 55.9355 65.5462 56.0835 66.8128 57.2564C68.0809 58.4298 68.2331 58.4858 69.5847 58.2776C70.6431 58.1151 71.2579 57.7928 71.9503 57.0404ZM10.0631 41.9849L10.013 40.7361L11.2594 40.6858L12.5055 40.6355L12.5556 41.8845L12.6057 43.1345L11.3596 43.1846L10.1132 43.2349L10.0631 41.9849ZM38.7278 40.8291L38.6778 39.58L39.9242 39.5298L41.1704 39.4796L41.2204 40.7286L41.2705 41.9786L40.0244 42.0287L38.778 42.079L38.7278 40.8291ZM67.3927 39.6732L67.3425 38.4242L68.5887 38.3739L69.8351 38.3236L69.8852 39.5726L69.9354 40.8225L68.689 40.8728L67.4428 40.9231L67.3927 39.6732ZM9.81249 35.7372L9.76235 34.4873L11.0088 34.437L12.2549 34.3867L12.3051 35.6366L12.3551 36.8856L11.1089 36.9359L9.86259 36.9861L9.81249 35.7372ZM38.4772 34.5812L38.4271 33.3312L39.6735 33.2811L40.9196 33.2308L40.9698 34.4807L41.0199 35.7298L39.7738 35.7799L38.5274 35.8302L38.4772 34.5812ZM67.142 33.4253L67.0919 32.1753L68.338 32.1251L69.5844 32.0749L69.6346 33.3249L69.6846 34.5737L68.4382 34.624L67.1922 34.6743L67.142 33.4253ZM9.56187 29.4893L9.51174 28.2394L10.7581 28.1891L12.0043 28.1388L12.0544 29.3888L12.1045 30.6378L10.8584 30.6881L9.61198 30.7383L9.56187 29.4893ZM38.2266 28.3334L38.1766 27.0835L39.423 27.0332L40.669 26.9829L40.7191 28.2329L40.7693 29.4819L39.5231 29.5322L38.2767 29.5825L38.2266 28.3334ZM66.8914 27.1776L66.8413 25.9276L68.0874 25.8773L69.3338 25.827L69.384 27.077L69.4341 28.326L68.1877 28.3763L66.9416 28.4264L66.8914 27.1776ZM0.945995 23.2024C0.390433 22.6885 -0.338505 4.5157 0.174099 3.95866C0.686698 3.40162 18.8115 2.67072 19.367 3.1847C19.9226 3.69866 20.6515 21.8714 20.139 22.4286C19.6264 22.9856 1.50156 23.7165 0.945995 23.2024ZM17.6343 12.892L17.3335 5.39428L9.8559 5.69581L2.37804 5.99736L2.67879 13.4952L2.97954 20.9929L10.4574 20.6914L17.935 20.3898L17.6343 12.892ZM29.6153 22.0513C29.3989 21.8509 29.2143 21.5035 29.2053 21.2789C29.1736 20.4873 37.4696 2.47191 37.9643 2.25827C38.2402 2.1393 38.7059 2.1603 38.9997 2.30622C39.2934 2.45213 41.7295 6.57752 44.4131 11.4758C48.404 18.7607 49.2339 20.4837 48.972 20.9401C48.6806 21.4473 47.8 21.5403 39.3303 21.9569C32.3414 22.3007 29.9102 22.3165 29.6153 22.0513ZM45.6588 19.1178C45.6463 18.806 38.7532 6.40848 38.5959 6.41482C38.4367 6.42124 32.5604 19.3337 32.5729 19.6454C32.5763 19.7312 35.5235 19.6796 39.1221 19.5345C42.7209 19.3893 45.6622 19.2015 45.6588 19.1178ZM60.8334 20.9279C60.6374 20.8061 59.17 18.6135 57.5699 16.0535L54.6611 11.3989L57.1878 6.5251C58.5775 3.8445 59.8653 1.54075 60.0503 1.40469C60.2359 1.2674 62.9018 1.08981 65.9761 1.00777L71.5662 0.858398L74.4865 5.43359C76.0929 7.95023 77.4153 10.2202 77.4256 10.478C77.436 10.7358 76.2997 13.1049 74.9 15.7428L72.3557 20.5393L66.7716 20.8406C63.7008 21.0084 61.0283 21.044 60.8331 20.9221L60.8334 20.9279ZM72.7106 14.5576C73.7843 12.5215 74.6579 10.7369 74.6521 10.5928C74.6462 10.4472 73.6326 8.7414 72.3993 6.79801L70.1571 3.26414L65.7901 3.46071L61.4229 3.65633L59.4694 7.48127L57.516 11.3062L59.7694 14.9615L62.0229 18.6168L66.3918 18.4602L70.7604 18.3045L72.7106 14.5576Z" fill="#8EA65F"/>
</svg>
